<?xml version="1.0" encoding="utf-8"?>
<svg version="1.1" xmlns:xlink="http://www.w3.org/1999/xlink" width="12px" height="12px" viewBox="515 477  12 12" xmlns="http://www.w3.org/2000/svg">
  <path d="M 521 477  C 524.36 477  527 479.64  527 483  C 527 486.36  524.36 489  521 489  C 517.64 489  515 486.36  515 483  C 515 479.64  517.64 477  521 477  Z " fill-rule="nonzero" fill="#ffffff" stroke="none" />
  <path d="M 521 477.5  C 524.08 477.5  526.5 479.92  526.5 483  C 526.5 486.08  524.08 488.5  521 488.5  C 517.92 488.5  515.5 486.08  515.5 483  C 515.5 479.92  517.92 477.5  521 477.5  Z " stroke-width="1" stroke="#797979" fill="none" />
  <path d="M 521 486  C 519.32 486  518 484.68  518 483  C 518 481.32  519.32 480  521 480  C 522.68 480  524 481.32  524 483  C 524 484.68  522.68 486  521 486  " fill-rule="nonzero" fill="#797979" stroke="none" />
</svg>