<?xml version="1.0" encoding="utf-8"?>
<svg version="1.1" xmlns:xlink="http://www.w3.org/1999/xlink" width="12px" height="12px" viewBox="520 845  12 12" xmlns="http://www.w3.org/2000/svg">
  <path d="M 526 845  C 529.36 845  532 847.64  532 851  C 532 854.36  529.36 857  526 857  C 522.64 857  520 854.36  520 851  C 520 847.64  522.64 845  526 845  Z " fill-rule="nonzero" fill="#ffffff" stroke="none" />
  <path d="M 526 845.5  C 529.08 845.5  531.5 847.92  531.5 851  C 531.5 854.08  529.08 856.5  526 856.5  C 522.92 856.5  520.5 854.08  520.5 851  C 520.5 847.92  522.92 845.5  526 845.5  Z " stroke-width="1" stroke="#797979" fill="none" />
  <path d="M 526 854  C 524.32 854  523 852.68  523 851  C 523 849.32  524.32 848  526 848  C 527.68 848  529 849.32  529 851  C 529 852.68  527.68 854  526 854  " fill-rule="nonzero" fill="#797979" stroke="none" />
</svg>