<?xml version="1.0" encoding="utf-8"?>
<svg version="1.1" xmlns:xlink="http://www.w3.org/1999/xlink" width="12px" height="12px" viewBox="515 444  12 12" xmlns="http://www.w3.org/2000/svg">
  <path d="M 521 444  C 524.36 444  527 446.64  527 450  C 527 453.36  524.36 456  521 456  C 517.64 456  515 453.36  515 450  C 515 446.64  517.64 444  521 444  Z " fill-rule="nonzero" fill="#ffffff" stroke="none" />
  <path d="M 521 444.5  C 524.08 444.5  526.5 446.92  526.5 450  C 526.5 453.08  524.08 455.5  521 455.5  C 517.92 455.5  515.5 453.08  515.5 450  C 515.5 446.92  517.92 444.5  521 444.5  Z " stroke-width="1" stroke="#797979" fill="none" />
  <path d="M 521 453  C 519.32 453  518 451.68  518 450  C 518 448.32  519.32 447  521 447  C 522.68 447  524 448.32  524 450  C 524 451.68  522.68 453  521 453  " fill-rule="nonzero" fill="#797979" stroke="none" />
</svg>