<?xml version="1.0" encoding="utf-8"?>
<svg version="1.1" xmlns:xlink="http://www.w3.org/1999/xlink" width="12px" height="12px" viewBox="520 810  12 12" xmlns="http://www.w3.org/2000/svg">
  <path d="M 526 810  C 529.36 810  532 812.64  532 816  C 532 819.36  529.36 822  526 822  C 522.64 822  520 819.36  520 816  C 520 812.64  522.64 810  526 810  Z " fill-rule="nonzero" fill="#ffffff" stroke="none" />
  <path d="M 526 810.5  C 529.08 810.5  531.5 812.92  531.5 816  C 531.5 819.08  529.08 821.5  526 821.5  C 522.92 821.5  520.5 819.08  520.5 816  C 520.5 812.92  522.92 810.5  526 810.5  Z " stroke-width="1" stroke="#797979" fill="none" />
  <path d="M 526 819  C 524.32 819  523 817.68  523 816  C 523 814.32  524.32 813  526 813  C 527.68 813  529 814.32  529 816  C 529 817.68  527.68 819  526 819  " fill-rule="nonzero" fill="#797979" stroke="none" />
</svg>