<?xml version="1.0" encoding="utf-8"?>
<svg version="1.1" xmlns:xlink="http://www.w3.org/1999/xlink" width="12px" height="12px" viewBox="2164 2721  12 12" xmlns="http://www.w3.org/2000/svg">
  <path d="M 2170 2721  C 2173.36 2721  2176 2723.64  2176 2727  C 2176 2730.36  2173.36 2733  2170 2733  C 2166.64 2733  2164 2730.36  2164 2727  C 2164 2723.64  2166.64 2721  2170 2721  Z " fill-rule="nonzero" fill="#ffffff" stroke="none" />
  <path d="M 2170 2721.5  C 2173.08 2721.5  2175.5 2723.92  2175.5 2727  C 2175.5 2730.08  2173.08 2732.5  2170 2732.5  C 2166.92 2732.5  2164.5 2730.08  2164.5 2727  C 2164.5 2723.92  2166.92 2721.5  2170 2721.5  Z " stroke-width="1" stroke="#797979" fill="none" />
  <path d="M 2170 2730  C 2168.32 2730  2167 2728.68  2167 2727  C 2167 2725.32  2168.32 2724  2170 2724  C 2171.68 2724  2173 2725.32  2173 2727  C 2173 2728.68  2171.68 2730  2170 2730  " fill-rule="nonzero" fill="#797979" stroke="none" />
</svg>