<?xml version="1.0" encoding="utf-8"?>
<svg version="1.1" xmlns:xlink="http://www.w3.org/1999/xlink" width="12px" height="12px" viewBox="2026 3202  12 12" xmlns="http://www.w3.org/2000/svg">
  <path d="M 2032 3202  C 2035.36 3202  2038 3204.64  2038 3208  C 2038 3211.36  2035.36 3214  2032 3214  C 2028.64 3214  2026 3211.36  2026 3208  C 2026 3204.64  2028.64 3202  2032 3202  Z " fill-rule="nonzero" fill="#ffffff" stroke="none" />
  <path d="M 2032 3202.5  C 2035.08 3202.5  2037.5 3204.92  2037.5 3208  C 2037.5 3211.08  2035.08 3213.5  2032 3213.5  C 2028.92 3213.5  2026.5 3211.08  2026.5 3208  C 2026.5 3204.92  2028.92 3202.5  2032 3202.5  Z " stroke-width="1" stroke="#797979" fill="none" />
  <path d="M 2032 3211  C 2030.32 3211  2029 3209.68  2029 3208  C 2029 3206.32  2030.32 3205  2032 3205  C 2033.68 3205  2035 3206.32  2035 3208  C 2035 3209.68  2033.68 3211  2032 3211  " fill-rule="nonzero" fill="#797979" stroke="none" />
</svg>