<?xml version="1.0" encoding="utf-8"?>
<svg version="1.1" xmlns:xlink="http://www.w3.org/1999/xlink" width="12px" height="12px" viewBox="2164 3202  12 12" xmlns="http://www.w3.org/2000/svg">
  <path d="M 2170 3202  C 2173.36 3202  2176 3204.64  2176 3208  C 2176 3211.36  2173.36 3214  2170 3214  C 2166.64 3214  2164 3211.36  2164 3208  C 2164 3204.64  2166.64 3202  2170 3202  Z " fill-rule="nonzero" fill="#f0f0f0" stroke="none" />
  <path d="M 2170 3202.5  C 2173.08 3202.5  2175.5 3204.92  2175.5 3208  C 2175.5 3211.08  2173.08 3213.5  2170 3213.5  C 2166.92 3213.5  2164.5 3211.08  2164.5 3208  C 2164.5 3204.92  2166.92 3202.5  2170 3202.5  Z " stroke-width="1" stroke="#797979" fill="none" />
  <path d="M 2170 3211  C 2168.32 3211  2167 3209.68  2167 3208  C 2167 3206.32  2168.32 3205  2170 3205  C 2171.68 3205  2173 3206.32  2173 3208  C 2173 3209.68  2171.68 3211  2170 3211  " fill-rule="nonzero" fill="#797979" stroke="none" />
</svg>