<?xml version="1.0" encoding="utf-8"?>
<svg version="1.1" xmlns:xlink="http://www.w3.org/1999/xlink" width="12px" height="12px" viewBox="669 394  12 12" xmlns="http://www.w3.org/2000/svg">
  <path d="M 675 394  C 678.36 394  681 396.64  681 400  C 681 403.36  678.36 406  675 406  C 671.64 406  669 403.36  669 400  C 669 396.64  671.64 394  675 394  Z " fill-rule="nonzero" fill="#f0f0f0" stroke="none" />
  <path d="M 675 394.5  C 678.08 394.5  680.5 396.92  680.5 400  C 680.5 403.08  678.08 405.5  675 405.5  C 671.92 405.5  669.5 403.08  669.5 400  C 669.5 396.92  671.92 394.5  675 394.5  Z " stroke-width="1" stroke="#797979" fill="none" />
  <path d="M 675 403  C 673.32 403  672 401.68  672 400  C 672 398.32  673.32 397  675 397  C 676.68 397  678 398.32  678 400  C 678 401.68  676.68 403  675 403  " fill-rule="nonzero" fill="#797979" stroke="none" />
</svg>