<?xml version="1.0" encoding="utf-8"?>
<svg version="1.1" xmlns:xlink="http://www.w3.org/1999/xlink" width="8px" height="8px" xmlns="http://www.w3.org/2000/svg">
  <g transform="matrix(1 0 0 1 -399 -231 )">
    <path d="M 403 232  C 404.68 232  406 233.32  406 235  C 406 236.68  404.68 238  403 238  C 401.32 238  400 236.68  400 235  C 400 233.32  401.32 232  403 232  Z " fill-rule="nonzero" fill="#108ee9" stroke="none" />
    <path d="M 403 232  C 404.68 232  406 233.32  406 235  C 406 236.68  404.68 238  403 238  C 401.32 238  400 236.68  400 235  C 400 233.32  401.32 232  403 232  Z " stroke-width="2" stroke="#108ee9" fill="none" />
  </g>
</svg>