<?xml version="1.0" encoding="utf-8"?>
<svg version="1.1" xmlns:xlink="http://www.w3.org/1999/xlink" width="12px" height="12px" viewBox="920 393  12 12" xmlns="http://www.w3.org/2000/svg">
  <path d="M 926 393  C 929.36 393  932 395.64  932 399  C 932 402.36  929.36 405  926 405  C 922.64 405  920 402.36  920 399  C 920 395.64  922.64 393  926 393  Z " fill-rule="nonzero" fill="#ffffff" stroke="none" />
  <path d="M 926 393.5  C 929.08 393.5  931.5 395.92  931.5 399  C 931.5 402.08  929.08 404.5  926 404.5  C 922.92 404.5  920.5 402.08  920.5 399  C 920.5 395.92  922.92 393.5  926 393.5  Z " stroke-width="1" stroke="#797979" fill="none" />
  <path d="M 926 402  C 924.32 402  923 400.68  923 399  C 923 397.32  924.32 396  926 396  C 927.68 396  929 397.32  929 399  C 929 400.68  927.68 402  926 402  " fill-rule="nonzero" fill="#797979" stroke="none" />
</svg>