<?xml version="1.0" encoding="utf-8"?>
<svg version="1.1" xmlns:xlink="http://www.w3.org/1999/xlink" width="12px" height="12px" viewBox="789 394  12 12" xmlns="http://www.w3.org/2000/svg">
  <path d="M 795 394  C 798.36 394  801 396.64  801 400  C 801 403.36  798.36 406  795 406  C 791.64 406  789 403.36  789 400  C 789 396.64  791.64 394  795 394  Z " fill-rule="nonzero" fill="#f0f0f0" stroke="none" />
  <path d="M 795 394.5  C 798.08 394.5  800.5 396.92  800.5 400  C 800.5 403.08  798.08 405.5  795 405.5  C 791.92 405.5  789.5 403.08  789.5 400  C 789.5 396.92  791.92 394.5  795 394.5  Z " stroke-width="1" stroke="#797979" fill="none" />
  <path d="M 795 403  C 793.32 403  792 401.68  792 400  C 792 398.32  793.32 397  795 397  C 796.68 397  798 398.32  798 400  C 798 401.68  796.68 403  795 403  " fill-rule="nonzero" fill="#797979" stroke="none" />
</svg>