<?xml version="1.0" encoding="utf-8"?>
<svg version="1.1" xmlns:xlink="http://www.w3.org/1999/xlink" width="12px" height="12px" viewBox="789 464  12 12" xmlns="http://www.w3.org/2000/svg">
  <path d="M 795 464  C 798.36 464  801 466.64  801 470  C 801 473.36  798.36 476  795 476  C 791.64 476  789 473.36  789 470  C 789 466.64  791.64 464  795 464  Z " fill-rule="nonzero" fill="#f0f0f0" stroke="none" />
  <path d="M 795 464.5  C 798.08 464.5  800.5 466.92  800.5 470  C 800.5 473.08  798.08 475.5  795 475.5  C 791.92 475.5  789.5 473.08  789.5 470  C 789.5 466.92  791.92 464.5  795 464.5  Z " stroke-width="1" stroke="#797979" fill="none" />
  <path d="M 795 473  C 793.32 473  792 471.68  792 470  C 792 468.32  793.32 467  795 467  C 796.68 467  798 468.32  798 470  C 798 471.68  796.68 473  795 473  " fill-rule="nonzero" fill="#797979" stroke="none" />
</svg>