<?xml version="1.0" encoding="utf-8"?>
<svg version="1.1" xmlns:xlink="http://www.w3.org/1999/xlink" width="12px" height="12px" viewBox="669 464  12 12" xmlns="http://www.w3.org/2000/svg">
  <path d="M 675 464  C 678.36 464  681 466.64  681 470  C 681 473.36  678.36 476  675 476  C 671.64 476  669 473.36  669 470  C 669 466.64  671.64 464  675 464  Z " fill-rule="nonzero" fill="#f0f0f0" stroke="none" />
  <path d="M 675 464.5  C 678.08 464.5  680.5 466.92  680.5 470  C 680.5 473.08  678.08 475.5  675 475.5  C 671.92 475.5  669.5 473.08  669.5 470  C 669.5 466.92  671.92 464.5  675 464.5  Z " stroke-width="1" stroke="#797979" fill="none" />
  <path d="M 675 473  C 673.32 473  672 471.68  672 470  C 672 468.32  673.32 467  675 467  C 676.68 467  678 468.32  678 470  C 678 471.68  676.68 473  675 473  " fill-rule="nonzero" fill="#797979" stroke="none" />
</svg>