<?xml version="1.0" encoding="utf-8"?>
<svg version="1.1" xmlns:xlink="http://www.w3.org/1999/xlink" width="8px" height="8px" xmlns="http://www.w3.org/2000/svg">
  <g transform="matrix(1 0 0 1 -1162 -231 )">
    <path d="M 1166 232  C 1167.68 232  1169 233.32  1169 235  C 1169 236.68  1167.68 238  1166 238  C 1164.32 238  1163 236.68  1163 235  C 1163 233.32  1164.32 232  1166 232  Z " fill-rule="nonzero" fill="#e9e9e9" stroke="none" />
    <path d="M 1166 232  C 1167.68 232  1169 233.32  1169 235  C 1169 236.68  1167.68 238  1166 238  C 1164.32 238  1163 236.68  1163 235  C 1163 233.32  1164.32 232  1166 232  Z " stroke-width="2" stroke="#e9e9e9" fill="none" />
  </g>
</svg>