<?xml version="1.0" encoding="utf-8"?>
<svg version="1.1" xmlns:xlink="http://www.w3.org/1999/xlink" width="12px" height="12px" viewBox="1045 393  12 12" xmlns="http://www.w3.org/2000/svg">
  <path d="M 1051 393  C 1054.36 393  1057 395.64  1057 399  C 1057 402.36  1054.36 405  1051 405  C 1047.64 405  1045 402.36  1045 399  C 1045 395.64  1047.64 393  1051 393  Z " fill-rule="nonzero" fill="#ffffff" stroke="none" />
  <path d="M 1051 393.5  C 1054.08 393.5  1056.5 395.92  1056.5 399  C 1056.5 402.08  1054.08 404.5  1051 404.5  C 1047.92 404.5  1045.5 402.08  1045.5 399  C 1045.5 395.92  1047.92 393.5  1051 393.5  Z " stroke-width="1" stroke="#797979" fill="none" />
  <path d="M 1051 402  C 1049.32 402  1048 400.68  1048 399  C 1048 397.32  1049.32 396  1051 396  C 1052.68 396  1054 397.32  1054 399  C 1054 400.68  1052.68 402  1051 402  " fill-rule="nonzero" fill="#797979" stroke="none" />
</svg>