<?xml version="1.0" encoding="utf-8"?>
<svg version="1.1" xmlns:xlink="http://www.w3.org/1999/xlink" width="12px" height="12px" viewBox="1142 393  12 12" xmlns="http://www.w3.org/2000/svg">
  <path d="M 1148 393  C 1151.36 393  1154 395.64  1154 399  C 1154 402.36  1151.36 405  1148 405  C 1144.64 405  1142 402.36  1142 399  C 1142 395.64  1144.64 393  1148 393  Z " fill-rule="nonzero" fill="#f0f0f0" stroke="none" />
  <path d="M 1148 393.5  C 1151.08 393.5  1153.5 395.92  1153.5 399  C 1153.5 402.08  1151.08 404.5  1148 404.5  C 1144.92 404.5  1142.5 402.08  1142.5 399  C 1142.5 395.92  1144.92 393.5  1148 393.5  Z " stroke-width="1" stroke="#797979" fill="none" />
  <path d="M 1148 402  C 1146.32 402  1145 400.68  1145 399  C 1145 397.32  1146.32 396  1148 396  C 1149.68 396  1151 397.32  1151 399  C 1151 400.68  1149.68 402  1148 402  " fill-rule="nonzero" fill="#797979" stroke="none" />
</svg>