<?xml version="1.0" encoding="utf-8"?>
<svg version="1.1" xmlns:xlink="http://www.w3.org/1999/xlink" width="12px" height="12px" viewBox="1197 129  12 12" xmlns="http://www.w3.org/2000/svg">
  <path d="M 1203 129  C 1206.36 129  1209 131.64  1209 135  C 1209 138.36  1206.36 141  1203 141  C 1199.64 141  1197 138.36  1197 135  C 1197 131.64  1199.64 129  1203 129  Z " fill-rule="nonzero" fill="#ffffff" stroke="none" />
  <path d="M 1203 129.5  C 1206.08 129.5  1208.5 131.92  1208.5 135  C 1208.5 138.08  1206.08 140.5  1203 140.5  C 1199.92 140.5  1197.5 138.08  1197.5 135  C 1197.5 131.92  1199.92 129.5  1203 129.5  Z " stroke-width="1" stroke="#797979" fill="none" />
  <path d="M 1203 138  C 1201.32 138  1200 136.68  1200 135  C 1200 133.32  1201.32 132  1203 132  C 1204.68 132  1206 133.32  1206 135  C 1206 136.68  1204.68 138  1203 138  " fill-rule="nonzero" fill="#797979" stroke="none" />
</svg>