<?xml version="1.0" encoding="utf-8"?>
<svg version="1.1" xmlns:xlink="http://www.w3.org/1999/xlink" width="12px" height="12px" viewBox="2097 1169  12 12" xmlns="http://www.w3.org/2000/svg">
  <path d="M 2103 1169  C 2106.36 1169  2109 1171.64  2109 1175  C 2109 1178.36  2106.36 1181  2103 1181  C 2099.64 1181  2097 1178.36  2097 1175  C 2097 1171.64  2099.64 1169  2103 1169  Z " fill-rule="nonzero" fill="#f0f0f0" stroke="none" />
  <path d="M 2103 1169.5  C 2106.08 1169.5  2108.5 1171.92  2108.5 1175  C 2108.5 1178.08  2106.08 1180.5  2103 1180.5  C 2099.92 1180.5  2097.5 1178.08  2097.5 1175  C 2097.5 1171.92  2099.92 1169.5  2103 1169.5  Z " stroke-width="1" stroke="#797979" fill="none" />
  <path d="M 2103 1178  C 2101.32 1178  2100 1176.68  2100 1175  C 2100 1173.32  2101.32 1172  2103 1172  C 2104.68 1172  2106 1173.32  2106 1175  C 2106 1176.68  2104.68 1178  2103 1178  " fill-rule="nonzero" fill="#797979" stroke="none" />
</svg>