<?xml version="1.0" encoding="utf-8"?>
<svg version="1.1" xmlns:xlink="http://www.w3.org/1999/xlink" width="12px" height="12px" viewBox="2097 1263  12 12" xmlns="http://www.w3.org/2000/svg">
  <path d="M 2103 1263  C 2106.36 1263  2109 1265.64  2109 1269  C 2109 1272.36  2106.36 1275  2103 1275  C 2099.64 1275  2097 1272.36  2097 1269  C 2097 1265.64  2099.64 1263  2103 1263  Z " fill-rule="nonzero" fill="#f0f0f0" stroke="none" />
  <path d="M 2103 1263.5  C 2106.08 1263.5  2108.5 1265.92  2108.5 1269  C 2108.5 1272.08  2106.08 1274.5  2103 1274.5  C 2099.92 1274.5  2097.5 1272.08  2097.5 1269  C 2097.5 1265.92  2099.92 1263.5  2103 1263.5  Z " stroke-width="1" stroke="#797979" fill="none" />
  <path d="M 2103 1272  C 2101.32 1272  2100 1270.68  2100 1269  C 2100 1267.32  2101.32 1266  2103 1266  C 2104.68 1266  2106 1267.32  2106 1269  C 2106 1270.68  2104.68 1272  2103 1272  " fill-rule="nonzero" fill="#797979" stroke="none" />
</svg>