<?xml version="1.0" encoding="utf-8"?>
<svg version="1.1" xmlns:xlink="http://www.w3.org/1999/xlink" width="12px" height="12px" viewBox="2185 1607  12 12" xmlns="http://www.w3.org/2000/svg">
  <path d="M 2191 1607  C 2194.36 1607  2197 1609.64  2197 1613  C 2197 1616.36  2194.36 1619  2191 1619  C 2187.64 1619  2185 1616.36  2185 1613  C 2185 1609.64  2187.64 1607  2191 1607  Z " fill-rule="nonzero" fill="#ffffff" stroke="none" />
  <path d="M 2191 1607.5  C 2194.08 1607.5  2196.5 1609.92  2196.5 1613  C 2196.5 1616.08  2194.08 1618.5  2191 1618.5  C 2187.92 1618.5  2185.5 1616.08  2185.5 1613  C 2185.5 1609.92  2187.92 1607.5  2191 1607.5  Z " stroke-width="1" stroke="#797979" fill="none" />
  <path d="M 2191 1616  C 2189.32 1616  2188 1614.68  2188 1613  C 2188 1611.32  2189.32 1610  2191 1610  C 2192.68 1610  2194 1611.32  2194 1613  C 2194 1614.68  2192.68 1616  2191 1616  " fill-rule="nonzero" fill="#797979" stroke="none" />
</svg>