<?xml version="1.0" encoding="utf-8"?>
<svg version="1.1" xmlns:xlink="http://www.w3.org/1999/xlink" width="12px" height="12px" viewBox="2099 1607  12 12" xmlns="http://www.w3.org/2000/svg">
  <path d="M 2105 1607  C 2108.36 1607  2111 1609.64  2111 1613  C 2111 1616.36  2108.36 1619  2105 1619  C 2101.64 1619  2099 1616.36  2099 1613  C 2099 1609.64  2101.64 1607  2105 1607  Z " fill-rule="nonzero" fill="#ffffff" stroke="none" />
  <path d="M 2105 1607.5  C 2108.08 1607.5  2110.5 1609.92  2110.5 1613  C 2110.5 1616.08  2108.08 1618.5  2105 1618.5  C 2101.92 1618.5  2099.5 1616.08  2099.5 1613  C 2099.5 1609.92  2101.92 1607.5  2105 1607.5  Z " stroke-width="1" stroke="#797979" fill="none" />
  <path d="M 2105 1616  C 2103.32 1616  2102 1614.68  2102 1613  C 2102 1611.32  2103.32 1610  2105 1610  C 2106.68 1610  2108 1611.32  2108 1613  C 2108 1614.68  2106.68 1616  2105 1616  " fill-rule="nonzero" fill="#797979" stroke="none" />
</svg>