<?xml version="1.0" encoding="utf-8"?>
<svg version="1.1" xmlns:xlink="http://www.w3.org/1999/xlink" width="12px" height="12px" viewBox="2185 1770  12 12" xmlns="http://www.w3.org/2000/svg">
  <path d="M 2191 1770  C 2194.36 1770  2197 1772.64  2197 1776  C 2197 1779.36  2194.36 1782  2191 1782  C 2187.64 1782  2185 1779.36  2185 1776  C 2185 1772.64  2187.64 1770  2191 1770  Z " fill-rule="nonzero" fill="#f0f0f0" stroke="none" />
  <path d="M 2191 1770.5  C 2194.08 1770.5  2196.5 1772.92  2196.5 1776  C 2196.5 1779.08  2194.08 1781.5  2191 1781.5  C 2187.92 1781.5  2185.5 1779.08  2185.5 1776  C 2185.5 1772.92  2187.92 1770.5  2191 1770.5  Z " stroke-width="1" stroke="#797979" fill="none" />
  <path d="M 2191 1779  C 2189.32 1779  2188 1777.68  2188 1776  C 2188 1774.32  2189.32 1773  2191 1773  C 2192.68 1773  2194 1774.32  2194 1776  C 2194 1777.68  2192.68 1779  2191 1779  " fill-rule="nonzero" fill="#797979" stroke="none" />
</svg>