<?xml version="1.0" encoding="utf-8"?>
<svg version="1.1" xmlns:xlink="http://www.w3.org/1999/xlink" width="12px" height="12px" viewBox="2183 1263  12 12" xmlns="http://www.w3.org/2000/svg">
  <path d="M 2189 1263  C 2192.36 1263  2195 1265.64  2195 1269  C 2195 1272.36  2192.36 1275  2189 1275  C 2185.64 1275  2183 1272.36  2183 1269  C 2183 1265.64  2185.64 1263  2189 1263  Z " fill-rule="nonzero" fill="#f0f0f0" stroke="none" />
  <path d="M 2189 1263.5  C 2192.08 1263.5  2194.5 1265.92  2194.5 1269  C 2194.5 1272.08  2192.08 1274.5  2189 1274.5  C 2185.92 1274.5  2183.5 1272.08  2183.5 1269  C 2183.5 1265.92  2185.92 1263.5  2189 1263.5  Z " stroke-width="1" stroke="#797979" fill="none" />
  <path d="M 2189 1272  C 2187.32 1272  2186 1270.68  2186 1269  C 2186 1267.32  2187.32 1266  2189 1266  C 2190.68 1266  2192 1267.32  2192 1269  C 2192 1270.68  2190.68 1272  2189 1272  " fill-rule="nonzero" fill="#797979" stroke="none" />
</svg>