<?xml version="1.0" encoding="utf-8"?>
<svg version="1.1" xmlns:xlink="http://www.w3.org/1999/xlink" width="86px" height="26px" xmlns="http://www.w3.org/2000/svg">
  <defs>
    <mask fill="white" id="clip18">
      <path d="M 0 22  L 0 4  C 0 1.75999999999999  1.75999999999999 0  4 0  L 39.4179104477612 0  L 82 0  C 84.24 0  86 1.75999999999999  86 4  L 86 22  C 86 24.24  84.24 26  82 26  L 4 26  C 1.75999999999999 26  0 24.24  0 22  Z " fill-rule="evenodd" />
    </mask>
  </defs>
  <g transform="matrix(1 0 0 1 -1144 -1915 )">
    <path d="M 0 22  L 0 4  C 0 1.75999999999999  1.75999999999999 0  4 0  L 39.4179104477612 0  L 82 0  C 84.24 0  86 1.75999999999999  86 4  L 86 22  C 86 24.24  84.24 26  82 26  L 4 26  C 1.75999999999999 26  0 24.24  0 22  Z " fill-rule="nonzero" fill="#ffffff" stroke="none" transform="matrix(1 0 0 1 1144 1915 )" />
    <path d="M 0 22  L 0 4  C 0 1.75999999999999  1.75999999999999 0  4 0  L 39.4179104477612 0  L 82 0  C 84.24 0  86 1.75999999999999  86 4  L 86 22  C 86 24.24  84.24 26  82 26  L 4 26  C 1.75999999999999 26  0 24.24  0 22  Z " stroke-width="2" stroke="#d9d9d9" fill="none" transform="matrix(1 0 0 1 1144 1915 )" mask="url(#clip18)" />
  </g>
</svg>