<?xml version="1.0" encoding="utf-8"?>
<svg version="1.1" xmlns:xlink="http://www.w3.org/1999/xlink" width="12px" height="20px" xmlns="http://www.w3.org/2000/svg">
  <g transform="matrix(1 0 0 1 -17 -38 )">
    <path d="M 9.93718518515625 19.6170666666016  C 10.1028740740234 19.7829925925781  10.3204740740234 19.8659555554688  10.5378370371094 19.8659555556641  C 10.7552 19.8659555556641  10.9728 19.7829925927734  11.1387259259766 19.6170666666016  C 11.4705777779297 19.2852148146484  11.4705777779297 18.747140740625  11.1387259259766 18.4155259259766  L 2.73884444433594 10.0156444443359  L 11.1387259259766 1.616  C 11.4705777779297 1.28438518515625  11.4705777779297 0.746074074023437  11.1387259259766 0.414459259375  C 10.8068740740234 0.0826074074218749  10.2690370371094 0.0826074074218749  9.93718518515625 0.414459259375  L 0.936414814843749 9.41499259277344  C 0.604614379379698 9.74687976554736  0.604614379379698 10.2848831977339  0.93641481484375 10.6167703705078  L 9.93718518515625 19.6170666666016  Z " fill-rule="nonzero" fill="#2c2c2c" stroke="none" transform="matrix(1 0 0 1 17 38 )" />
  </g>
</svg>