<?xml version="1.0" encoding="utf-8"?>
<svg version="1.1" xmlns:xlink="http://www.w3.org/1999/xlink" width="6px" height="6px" xmlns="http://www.w3.org/2000/svg">
  <g transform="matrix(1 0 0 1 -294 -489 )">
    <path d="M 297 489  C 298.68 489  300 490.32  300 492  C 300 493.68  298.68 495  297 495  C 295.32 495  294 493.68  294 492  C 294 490.32  295.32 489  297 489  Z " fill-rule="nonzero" fill="#ffffff" stroke="none" />
    <path d="M 297 489.5  C 298.4 489.5  299.5 490.6  299.5 492  C 299.5 493.4  298.4 494.5  297 494.5  C 295.6 494.5  294.5 493.4  294.5 492  C 294.5 490.6  295.6 489.5  297 489.5  Z " stroke-width="1" stroke="#797979" fill="none" />
  </g>
</svg>