<?xml version="1.0" encoding="utf-8"?>
<svg version="1.1" xmlns:xlink="http://www.w3.org/1999/xlink" width="12px" height="12px" viewBox="599 651  12 12" xmlns="http://www.w3.org/2000/svg">
  <path d="M 605 651  C 608.36 651  611 653.64  611 657  C 611 660.36  608.36 663  605 663  C 601.64 663  599 660.36  599 657  C 599 653.64  601.64 651  605 651  Z " fill-rule="nonzero" fill="#ffffff" stroke="none" />
  <path d="M 605 651.5  C 608.08 651.5  610.5 653.92  610.5 657  C 610.5 660.08  608.08 662.5  605 662.5  C 601.92 662.5  599.5 660.08  599.5 657  C 599.5 653.92  601.92 651.5  605 651.5  Z " stroke-width="1" stroke="#797979" fill="none" />
  <path d="M 605 660  C 603.32 660  602 658.68  602 657  C 602 655.32  603.32 654  605 654  C 606.68 654  608 655.32  608 657  C 608 658.68  606.68 660  605 660  " fill-rule="nonzero" fill="#797979" stroke="none" />
</svg>