<?xml version="1.0" encoding="utf-8"?>
<svg version="1.1" xmlns:xlink="http://www.w3.org/1999/xlink" width="12px" height="12px" viewBox="888 651  12 12" xmlns="http://www.w3.org/2000/svg">
  <path d="M 894 651  C 897.36 651  900 653.64  900 657  C 900 660.36  897.36 663  894 663  C 890.64 663  888 660.36  888 657  C 888 653.64  890.64 651  894 651  Z " fill-rule="nonzero" fill="#ffffff" stroke="none" />
  <path d="M 894 651.5  C 897.08 651.5  899.5 653.92  899.5 657  C 899.5 660.08  897.08 662.5  894 662.5  C 890.92 662.5  888.5 660.08  888.5 657  C 888.5 653.92  890.92 651.5  894 651.5  Z " stroke-width="1" stroke="#797979" fill="none" />
  <path d="M 894 660  C 892.32 660  891 658.68  891 657  C 891 655.32  892.32 654  894 654  C 895.68 654  897 655.32  897 657  C 897 658.68  895.68 660  894 660  " fill-rule="nonzero" fill="#797979" stroke="none" />
</svg>