<?xml version="1.0" encoding="utf-8"?>
<svg version="1.1" xmlns:xlink="http://www.w3.org/1999/xlink" width="12px" height="12px" viewBox="699 651  12 12" xmlns="http://www.w3.org/2000/svg">
  <path d="M 705 651  C 708.36 651  711 653.64  711 657  C 711 660.36  708.36 663  705 663  C 701.64 663  699 660.36  699 657  C 699 653.64  701.64 651  705 651  Z " fill-rule="nonzero" fill="#ffffff" stroke="none" />
  <path d="M 705 651.5  C 708.08 651.5  710.5 653.92  710.5 657  C 710.5 660.08  708.08 662.5  705 662.5  C 701.92 662.5  699.5 660.08  699.5 657  C 699.5 653.92  701.92 651.5  705 651.5  Z " stroke-width="1" stroke="#797979" fill="none" />
  <path d="M 705 660  C 703.32 660  702 658.68  702 657  C 702 655.32  703.32 654  705 654  C 706.68 654  708 655.32  708 657  C 708 658.68  706.68 660  705 660  " fill-rule="nonzero" fill="#797979" stroke="none" />
</svg>