<?xml version="1.0" encoding="utf-8"?>
<svg version="1.1" xmlns:xlink="http://www.w3.org/1999/xlink" width="12px" height="12px" viewBox="988 651  12 12" xmlns="http://www.w3.org/2000/svg">
  <path d="M 994 651  C 997.36 651  1000 653.64  1000 657  C 1000 660.36  997.36 663  994 663  C 990.64 663  988 660.36  988 657  C 988 653.64  990.64 651  994 651  Z " fill-rule="nonzero" fill="#f0f0f0" stroke="none" />
  <path d="M 994 651.5  C 997.08 651.5  999.5 653.92  999.5 657  C 999.5 660.08  997.08 662.5  994 662.5  C 990.92 662.5  988.5 660.08  988.5 657  C 988.5 653.92  990.92 651.5  994 651.5  Z " stroke-width="1" stroke="#797979" fill="none" />
  <path d="M 994 660  C 992.32 660  991 658.68  991 657  C 991 655.32  992.32 654  994 654  C 995.68 654  997 655.32  997 657  C 997 658.68  995.68 660  994 660  " fill-rule="nonzero" fill="#797979" stroke="none" />
</svg>