<?xml version="1.0" encoding="utf-8"?>
<svg version="1.1" xmlns:xlink="http://www.w3.org/1999/xlink" width="12px" height="12px" viewBox="388 1026  12 12" xmlns="http://www.w3.org/2000/svg">
  <path d="M 394 1026  C 397.36 1026  400 1028.64  400 1032  C 400 1035.36  397.36 1038  394 1038  C 390.64 1038  388 1035.36  388 1032  C 388 1028.64  390.64 1026  394 1026  Z " fill-rule="nonzero" fill="#f0f0f0" stroke="none" />
  <path d="M 394 1026.5  C 397.08 1026.5  399.5 1028.92  399.5 1032  C 399.5 1035.08  397.08 1037.5  394 1037.5  C 390.92 1037.5  388.5 1035.08  388.5 1032  C 388.5 1028.92  390.92 1026.5  394 1026.5  Z " stroke-width="1" stroke="#797979" fill="none" />
  <path d="M 394 1035  C 392.32 1035  391 1033.68  391 1032  C 391 1030.32  392.32 1029  394 1029  C 395.68 1029  397 1030.32  397 1032  C 397 1033.68  395.68 1035  394 1035  " fill-rule="nonzero" fill="#797979" stroke="none" />
</svg>