<?xml version="1.0" encoding="utf-8"?>
<svg version="1.1" xmlns:xlink="http://www.w3.org/1999/xlink" width="12px" height="12px" viewBox="2187 1077  12 12" xmlns="http://www.w3.org/2000/svg">
  <path d="M 2193 1077  C 2196.36 1077  2199 1079.64  2199 1083  C 2199 1086.36  2196.36 1089  2193 1089  C 2189.64 1089  2187 1086.36  2187 1083  C 2187 1079.64  2189.64 1077  2193 1077  Z " fill-rule="nonzero" fill="#f0f0f0" stroke="none" />
  <path d="M 2193 1077.5  C 2196.08 1077.5  2198.5 1079.92  2198.5 1083  C 2198.5 1086.08  2196.08 1088.5  2193 1088.5  C 2189.92 1088.5  2187.5 1086.08  2187.5 1083  C 2187.5 1079.92  2189.92 1077.5  2193 1077.5  Z " stroke-width="1" stroke="#797979" fill="none" />
  <path d="M 2193 1086  C 2191.32 1086  2190 1084.68  2190 1083  C 2190 1081.32  2191.32 1080  2193 1080  C 2194.68 1080  2196 1081.32  2196 1083  C 2196 1084.68  2194.68 1086  2193 1086  " fill-rule="nonzero" fill="#797979" stroke="none" />
</svg>