<?xml version="1.0" encoding="utf-8"?>
<svg version="1.1" xmlns:xlink="http://www.w3.org/1999/xlink" width="12px" height="12px" viewBox="477 1053  12 12" xmlns="http://www.w3.org/2000/svg">
  <path d="M 483 1053  C 486.36 1053  489 1055.64  489 1059  C 489 1062.36  486.36 1065  483 1065  C 479.64 1065  477 1062.36  477 1059  C 477 1055.64  479.64 1053  483 1053  Z " fill-rule="nonzero" fill="#f0f0f0" stroke="none" />
  <path d="M 483 1053.5  C 486.08 1053.5  488.5 1055.92  488.5 1059  C 488.5 1062.08  486.08 1064.5  483 1064.5  C 479.92 1064.5  477.5 1062.08  477.5 1059  C 477.5 1055.92  479.92 1053.5  483 1053.5  Z " stroke-width="1" stroke="#797979" fill="none" />
  <path d="M 483 1062  C 481.32 1062  480 1060.68  480 1059  C 480 1057.32  481.32 1056  483 1056  C 484.68 1056  486 1057.32  486 1059  C 486 1060.68  484.68 1062  483 1062  " fill-rule="nonzero" fill="#797979" stroke="none" />
</svg>