<?xml version="1.0" encoding="utf-8"?>
<svg version="1.1" xmlns:xlink="http://www.w3.org/1999/xlink" width="12px" height="12px" viewBox="477 1741  12 12" xmlns="http://www.w3.org/2000/svg">
  <path d="M 483 1741  C 486.36 1741  489 1743.64  489 1747  C 489 1750.36  486.36 1753  483 1753  C 479.64 1753  477 1750.36  477 1747  C 477 1743.64  479.64 1741  483 1741  Z " fill-rule="nonzero" fill="#ffffff" stroke="none" />
  <path d="M 483 1741.5  C 486.08 1741.5  488.5 1743.92  488.5 1747  C 488.5 1750.08  486.08 1752.5  483 1752.5  C 479.92 1752.5  477.5 1750.08  477.5 1747  C 477.5 1743.92  479.92 1741.5  483 1741.5  Z " stroke-width="1" stroke="#797979" fill="none" />
  <path d="M 483 1750  C 481.32 1750  480 1748.68  480 1747  C 480 1745.32  481.32 1744  483 1744  C 484.68 1744  486 1745.32  486 1747  C 486 1748.68  484.68 1750  483 1750  " fill-rule="nonzero" fill="#797979" stroke="none" />
</svg>