<?xml version="1.0" encoding="utf-8"?>
<svg version="1.1" xmlns:xlink="http://www.w3.org/1999/xlink" width="12px" height="7px" xmlns="http://www.w3.org/2000/svg">
  <g transform="matrix(1 0 0 1 -1442 -29 )">
    <path d="M 0.544043970061518 0.0877670529049901  L 0.544043970061518 0  L 10.762612949419 0  C 11.0157544416506 0.0891432640345702  11.2208297276175 0.294427237463481  11.2208297276175 0.54756886063061  C 11.2208297276175 0.658168300286261  11.1808676174365 0.765043390643545  11.1083035379357 0.848510093096378  L 5.99901904825701 6.72301258277512  C 5.9119217816515 6.82251033907582  5.78612147767621 6.87957866469548  5.65388783082707 6.87957866469548  C 5.52165418397793 6.87957866469548  5.39585388000263 6.82251033907582  5.30875661339713 6.72301258277512  L 0.199472123581681 0.848510092959671  C 0.126301624154001 0.764894032822684  0.0859699952937865 0.657560560693838  0.0859699952937865 0.546449951392439  C 0.0859699952937865 0.293364082934457  0.290958324917116 0.0881032596462425  0.544043970061518 0.0877670529049901  Z " fill-rule="nonzero" fill="#333333" stroke="none" transform="matrix(1 0 0 1 1442 29 )" />
  </g>
</svg>