<?xml version="1.0" encoding="utf-8"?>
<svg version="1.1" xmlns:xlink="http://www.w3.org/1999/xlink" width="16px" height="16px" xmlns="http://www.w3.org/2000/svg">
  <g transform="matrix(1 0 0 1 -1326 -24 )">
    <path d="M 4.03125 0.5  L 2.703125 1.828125  L 6.1875 5.3125  L 5.296875 6.203125  L 1.828125 2.703125  L 0.5 4.03125  L 0.5 0.5  L 4.03125 0.5  Z M 6.1875 10.6875  L 5.3125 9.8125  L 1.828125 13.296875  L 0.5 11.96875  L 0.5 15.5  L 4.03125 15.5  L 2.703125 14.171875  L 6.1875 10.6875  Z M 15.515625 0.5  L 11.96875 0.5  L 13.296875 1.828125  L 9.8125 5.3125  L 10.703125 6.203125  L 14.1875 2.71875  L 15.515625 4.046875  L 15.515625 0.5  Z M 14.171875 13.296875  L 10.6875 9.8125  L 9.796875 10.703125  L 13.28125 14.1875  L 11.953125 15.515625  L 15.5 15.515625  L 15.5 11.96875  L 14.171875 13.296875  Z " fill-rule="nonzero" fill="#333333" stroke="none" transform="matrix(1 0 0 1 1326 24 )" />
  </g>
</svg>