<?xml version="1.0" encoding="utf-8"?>
<svg version="1.1" xmlns:xlink="http://www.w3.org/1999/xlink" width="15px" height="7px" xmlns="http://www.w3.org/2000/svg">
  <g transform="matrix(1 0 0 1 -1287 -24 )">
    <path d="M 3.2513216015625 3.59448693359375  C 4.2894177734375 2.55629083984375  5.72266603515625 1.913286796875  7.30319443359375 1.913286796875  C 9.05316794921875 1.913286796875  10.6720103710937 2.7102664453125  11.7445032226562 4.02389580078125  L 9.76018859375 6.0083303515625  L 14.6741968945312 6.0083303515625  L 14.6741968945312 1.094222109375  L 12.9098731054688 2.85908552734375  C 11.5309680078125 1.24623904296875  9.49542810546875 0.2752573828125  7.3032144140625 0.2752573828125  C 5.27087234375 0.2752573828125  3.428021796875 1.10187693359375  2.093106875 2.43679185546875  C 1.12740162109375 3.402716953125  0.433172304687501 4.629205390625  0.120464335937501 6.0083303515625  L 1.80530201171875 6.0083303515625  C 2.079156328125 5.07720166015625  2.58105603515625 4.26453265625  3.2513216015625 3.59448693359375  Z " fill-rule="nonzero" fill="#333333" stroke="none" transform="matrix(1 0 0 1 1287 24 )" />
  </g>
</svg>