<?xml version="1.0" encoding="utf-8"?>
<svg version="1.1" xmlns:xlink="http://www.w3.org/1999/xlink" width="16px" height="7px" xmlns="http://www.w3.org/2000/svg">
  <g transform="matrix(1 0 0 1 -1286 -33 )">
    <path d="M 12.3549673242187 2.69813267578125  C 11.316851171875 3.73632876953125  9.88360291015625 4.379452734375  8.30319443359375 4.379452734375  C 6.5532009375 4.379452734375  4.9342785546875 3.5823731640625  3.8617457421875 2.26872380859375  L 5.84618029296875 0.284409179687501  L 0.93207205078125 0.284409179687501  L 0.93207205078125 5.19841748046875  L 2.69639583984375 3.43409369140625  C 4.07534091796875 5.04650048828125  6.11086083984375 6.0175021484375  8.303174453125 6.0175021484375  C 10.3355165234375 6.0175021484375  12.1782271679687 5.1912023828125  13.5131420898437 3.85636740234375  C 14.4772084570312 2.8915815234375  15.1706982617187 1.65953685546875  15.4842456835937 0.2844291796875  L 13.7947111914063 0.28442916015625  C 13.51875828125 1.206963671875  13.0192169726563 2.03396296875  12.3549673242187 2.69813267578125  Z " fill-rule="nonzero" fill="#333333" stroke="none" transform="matrix(1 0 0 1 1286 33 )" />
  </g>
</svg>