<?xml version="1.0" encoding="utf-8"?>
<svg version="1.1" xmlns:xlink="http://www.w3.org/1999/xlink" width="12px" height="12px" viewBox="1461 509  12 12" xmlns="http://www.w3.org/2000/svg">
  <path d="M 1467 509  C 1470.36 509  1473 511.64  1473 515  C 1473 518.36  1470.36 521  1467 521  C 1463.64 521  1461 518.36  1461 515  C 1461 511.64  1463.64 509  1467 509  Z " fill-rule="nonzero" fill="#ffffff" stroke="none" />
  <path d="M 1467 509.5  C 1470.08 509.5  1472.5 511.92  1472.5 515  C 1472.5 518.08  1470.08 520.5  1467 520.5  C 1463.92 520.5  1461.5 518.08  1461.5 515  C 1461.5 511.92  1463.92 509.5  1467 509.5  Z " stroke-width="1" stroke="#797979" fill="none" />
  <path d="M 1467 518  C 1465.32 518  1464 516.68  1464 515  C 1464 513.32  1465.32 512  1467 512  C 1468.68 512  1470 513.32  1470 515  C 1470 516.68  1468.68 518  1467 518  " fill-rule="nonzero" fill="#797979" stroke="none" />
</svg>