<?xml version="1.0" encoding="utf-8"?>
<svg version="1.1" xmlns:xlink="http://www.w3.org/1999/xlink" width="12px" height="12px" viewBox="1639 509  12 12" xmlns="http://www.w3.org/2000/svg">
  <path d="M 1645 509  C 1648.36 509  1651 511.64  1651 515  C 1651 518.36  1648.36 521  1645 521  C 1641.64 521  1639 518.36  1639 515  C 1639 511.64  1641.64 509  1645 509  Z " fill-rule="nonzero" fill="#f0f0f0" stroke="none" />
  <path d="M 1645 509.5  C 1648.08 509.5  1650.5 511.92  1650.5 515  C 1650.5 518.08  1648.08 520.5  1645 520.5  C 1641.92 520.5  1639.5 518.08  1639.5 515  C 1639.5 511.92  1641.92 509.5  1645 509.5  Z " stroke-width="1" stroke="#797979" fill="none" />
  <path d="M 1645 518  C 1643.32 518  1642 516.68  1642 515  C 1642 513.32  1643.32 512  1645 512  C 1646.68 512  1648 513.32  1648 515  C 1648 516.68  1646.68 518  1645 518  " fill-rule="nonzero" fill="#797979" stroke="none" />
</svg>