<?xml version="1.0" encoding="utf-8"?>
<svg version="1.1" xmlns:xlink="http://www.w3.org/1999/xlink" width="12px" height="12px" viewBox="1577 509  12 12" xmlns="http://www.w3.org/2000/svg">
  <path d="M 1583 509  C 1586.36 509  1589 511.64  1589 515  C 1589 518.36  1586.36 521  1583 521  C 1579.64 521  1577 518.36  1577 515  C 1577 511.64  1579.64 509  1583 509  Z " fill-rule="nonzero" fill="#f0f0f0" stroke="none" />
  <path d="M 1583 509.5  C 1586.08 509.5  1588.5 511.92  1588.5 515  C 1588.5 518.08  1586.08 520.5  1583 520.5  C 1579.92 520.5  1577.5 518.08  1577.5 515  C 1577.5 511.92  1579.92 509.5  1583 509.5  Z " stroke-width="1" stroke="#797979" fill="none" />
  <path d="M 1583 518  C 1581.32 518  1580 516.68  1580 515  C 1580 513.32  1581.32 512  1583 512  C 1584.68 512  1586 513.32  1586 515  C 1586 516.68  1584.68 518  1583 518  " fill-rule="nonzero" fill="#797979" stroke="none" />
</svg>