<?xml version="1.0" encoding="utf-8"?>
<svg version="1.1" xmlns:xlink="http://www.w3.org/1999/xlink" width="12px" height="12px" viewBox="391 398  12 12" xmlns="http://www.w3.org/2000/svg">
  <path d="M 397 398  C 400.36 398  403 400.64  403 404  C 403 407.36  400.36 410  397 410  C 393.64 410  391 407.36  391 404  C 391 400.64  393.64 398  397 398  Z " fill-rule="nonzero" fill="#ffffff" stroke="none" />
  <path d="M 397 398.5  C 400.08 398.5  402.5 400.92  402.5 404  C 402.5 407.08  400.08 409.5  397 409.5  C 393.92 409.5  391.5 407.08  391.5 404  C 391.5 400.92  393.92 398.5  397 398.5  Z " stroke-width="1" stroke="#797979" fill="none" />
  <path d="M 397 407  C 395.32 407  394 405.68  394 404  C 394 402.32  395.32 401  397 401  C 398.68 401  400 402.32  400 404  C 400 405.68  398.68 407  397 407  " fill-rule="nonzero" fill="#797979" stroke="none" />
</svg>