<?xml version="1.0" encoding="utf-8"?>
<svg version="1.1" xmlns:xlink="http://www.w3.org/1999/xlink" width="12px" height="12px" viewBox="1981 2660  12 12" xmlns="http://www.w3.org/2000/svg">
  <path d="M 1987 2660  C 1990.36 2660  1993 2662.64  1993 2666  C 1993 2669.36  1990.36 2672  1987 2672  C 1983.64 2672  1981 2669.36  1981 2666  C 1981 2662.64  1983.64 2660  1987 2660  Z " fill-rule="nonzero" fill="#f0f0f0" stroke="none" />
  <path d="M 1987 2660.5  C 1990.08 2660.5  1992.5 2662.92  1992.5 2666  C 1992.5 2669.08  1990.08 2671.5  1987 2671.5  C 1983.92 2671.5  1981.5 2669.08  1981.5 2666  C 1981.5 2662.92  1983.92 2660.5  1987 2660.5  Z " stroke-width="1" stroke="#797979" fill="none" />
  <path d="M 1987 2669  C 1985.32 2669  1984 2667.68  1984 2666  C 1984 2664.32  1985.32 2663  1987 2663  C 1988.68 2663  1990 2664.32  1990 2666  C 1990 2667.68  1988.68 2669  1987 2669  " fill-rule="nonzero" fill="#797979" stroke="none" />
</svg>