<?xml version="1.0" encoding="utf-8"?>
<svg version="1.1" xmlns:xlink="http://www.w3.org/1999/xlink" width="12px" height="12px" viewBox="1981 2500  12 12" xmlns="http://www.w3.org/2000/svg">
  <path d="M 1987 2500  C 1990.36 2500  1993 2502.64  1993 2506  C 1993 2509.36  1990.36 2512  1987 2512  C 1983.64 2512  1981 2509.36  1981 2506  C 1981 2502.64  1983.64 2500  1987 2500  Z " fill-rule="nonzero" fill="#ffffff" stroke="none" />
  <path d="M 1987 2500.5  C 1990.08 2500.5  1992.5 2502.92  1992.5 2506  C 1992.5 2509.08  1990.08 2511.5  1987 2511.5  C 1983.92 2511.5  1981.5 2509.08  1981.5 2506  C 1981.5 2502.92  1983.92 2500.5  1987 2500.5  Z " stroke-width="1" stroke="#797979" fill="none" />
  <path d="M 1987 2509  C 1985.32 2509  1984 2507.68  1984 2506  C 1984 2504.32  1985.32 2503  1987 2503  C 1988.68 2503  1990 2504.32  1990 2506  C 1990 2507.68  1988.68 2509  1987 2509  " fill-rule="nonzero" fill="#797979" stroke="none" />
</svg>