<?xml version="1.0" encoding="utf-8"?>
<svg version="1.1" xmlns:xlink="http://www.w3.org/1999/xlink" width="12px" height="12px" viewBox="1981 2609  12 12" xmlns="http://www.w3.org/2000/svg">
  <path d="M 1987 2609  C 1990.36 2609  1993 2611.64  1993 2615  C 1993 2618.36  1990.36 2621  1987 2621  C 1983.64 2621  1981 2618.36  1981 2615  C 1981 2611.64  1983.64 2609  1987 2609  Z " fill-rule="nonzero" fill="#f0f0f0" stroke="none" />
  <path d="M 1987 2609.5  C 1990.08 2609.5  1992.5 2611.92  1992.5 2615  C 1992.5 2618.08  1990.08 2620.5  1987 2620.5  C 1983.92 2620.5  1981.5 2618.08  1981.5 2615  C 1981.5 2611.92  1983.92 2609.5  1987 2609.5  Z " stroke-width="1" stroke="#797979" fill="none" />
  <path d="M 1987 2618  C 1985.32 2618  1984 2616.68  1984 2615  C 1984 2613.32  1985.32 2612  1987 2612  C 1988.68 2612  1990 2613.32  1990 2615  C 1990 2616.68  1988.68 2618  1987 2618  " fill-rule="nonzero" fill="#797979" stroke="none" />
</svg>