<?xml version="1.0" encoding="utf-8"?>
<svg version="1.1" xmlns:xlink="http://www.w3.org/1999/xlink" width="12px" height="12px" viewBox="1981 2555  12 12" xmlns="http://www.w3.org/2000/svg">
  <path d="M 1987 2555  C 1990.36 2555  1993 2557.64  1993 2561  C 1993 2564.36  1990.36 2567  1987 2567  C 1983.64 2567  1981 2564.36  1981 2561  C 1981 2557.64  1983.64 2555  1987 2555  Z " fill-rule="nonzero" fill="#ffffff" stroke="none" />
  <path d="M 1987 2555.5  C 1990.08 2555.5  1992.5 2557.92  1992.5 2561  C 1992.5 2564.08  1990.08 2566.5  1987 2566.5  C 1983.92 2566.5  1981.5 2564.08  1981.5 2561  C 1981.5 2557.92  1983.92 2555.5  1987 2555.5  Z " stroke-width="1" stroke="#797979" fill="none" />
  <path d="M 1987 2564  C 1985.32 2564  1984 2562.68  1984 2561  C 1984 2559.32  1985.32 2558  1987 2558  C 1988.68 2558  1990 2559.32  1990 2561  C 1990 2562.68  1988.68 2564  1987 2564  " fill-rule="nonzero" fill="#797979" stroke="none" />
</svg>