<?xml version="1.0" encoding="utf-8"?>
<svg version="1.1" xmlns:xlink="http://www.w3.org/1999/xlink" width="12px" height="12px" viewBox="515 1138  12 12" xmlns="http://www.w3.org/2000/svg">
  <path d="M 521 1138  C 524.36 1138  527 1140.64  527 1144  C 527 1147.36  524.36 1150  521 1150  C 517.64 1150  515 1147.36  515 1144  C 515 1140.64  517.64 1138  521 1138  Z " fill-rule="nonzero" fill="#f0f0f0" stroke="none" />
  <path d="M 521 1138.5  C 524.08 1138.5  526.5 1140.92  526.5 1144  C 526.5 1147.08  524.08 1149.5  521 1149.5  C 517.92 1149.5  515.5 1147.08  515.5 1144  C 515.5 1140.92  517.92 1138.5  521 1138.5  Z " stroke-width="1" stroke="#797979" fill="none" />
  <path d="M 521 1147  C 519.32 1147  518 1145.68  518 1144  C 518 1142.32  519.32 1141  521 1141  C 522.68 1141  524 1142.32  524 1144  C 524 1145.68  522.68 1147  521 1147  " fill-rule="nonzero" fill="#797979" stroke="none" />
</svg>