<?xml version="1.0" encoding="utf-8"?>
<svg version="1.1" xmlns:xlink="http://www.w3.org/1999/xlink" width="71px" height="65px" xmlns="http://www.w3.org/2000/svg">
  <g transform="matrix(1 0 0 1 -425 -455 )">
    <path d="M 425 455  L 496 455  L 496 520  L 425 520  L 425 455  " fill-rule="nonzero" fill="#cccccc" stroke="none" />
    <path d="M 430 460  L 491 460  L 491 515  L 430 515  L 430 460  " fill-rule="nonzero" fill="#ffffff" stroke="none" />
    <path d="M 466.795 474.5  C 464.065 474.5  461.92 472.355  461.92 469.625  C 461.92 466.895  464.065 464.75  466.795 464.75  C 469.525 464.75  471.67 466.895  471.67 469.625  C 471.67 472.355  469.525 474.5  466.795 474.5  " fill-rule="nonzero" fill="#cccccc" stroke="none" />
    <path d="M 432 514  L 432 485.4  L 446.5 472.4  L 466.8 485.43661971831  L 478.4 480.2  L 490 485.43661971831  L 490 514  L 432 514  " fill-rule="nonzero" fill="#169bd5" stroke="none" />
  </g>
</svg>