<?xml version="1.0" encoding="utf-8"?>
<svg version="1.1" xmlns:xlink="http://www.w3.org/1999/xlink" width="12px" height="12px" viewBox="425 1021  12 12" xmlns="http://www.w3.org/2000/svg">
  <path d="M 431 1021  C 434.36 1021  437 1023.64  437 1027  C 437 1030.36  434.36 1033  431 1033  C 427.64 1033  425 1030.36  425 1027  C 425 1023.64  427.64 1021  431 1021  Z " fill-rule="nonzero" fill="#ffffff" stroke="none" />
  <path d="M 431 1021.5  C 434.08 1021.5  436.5 1023.92  436.5 1027  C 436.5 1030.08  434.08 1032.5  431 1032.5  C 427.92 1032.5  425.5 1030.08  425.5 1027  C 425.5 1023.92  427.92 1021.5  431 1021.5  Z " stroke-width="1" stroke="#797979" fill="none" />
  <path d="M 431 1030  C 429.32 1030  428 1028.68  428 1027  C 428 1025.32  429.32 1024  431 1024  C 432.68 1024  434 1025.32  434 1027  C 434 1028.68  432.68 1030  431 1030  " fill-rule="nonzero" fill="#797979" stroke="none" />
</svg>