<?xml version="1.0" encoding="utf-8"?>
<svg version="1.1" xmlns:xlink="http://www.w3.org/1999/xlink" width="12px" height="12px" viewBox="425 991  12 12" xmlns="http://www.w3.org/2000/svg">
  <path d="M 431 991  C 434.36 991  437 993.64  437 997  C 437 1000.36  434.36 1003  431 1003  C 427.64 1003  425 1000.36  425 997  C 425 993.64  427.64 991  431 991  Z " fill-rule="nonzero" fill="#ffffff" stroke="none" />
  <path d="M 431 991.5  C 434.08 991.5  436.5 993.92  436.5 997  C 436.5 1000.08  434.08 1002.5  431 1002.5  C 427.92 1002.5  425.5 1000.08  425.5 997  C 425.5 993.92  427.92 991.5  431 991.5  Z " stroke-width="1" stroke="#797979" fill="none" />
  <path d="M 431 1000  C 429.32 1000  428 998.68  428 997  C 428 995.32  429.32 994  431 994  C 432.68 994  434 995.32  434 997  C 434 998.68  432.68 1000  431 1000  " fill-rule="nonzero" fill="#797979" stroke="none" />
</svg>