<?xml version="1.0" encoding="utf-8"?>
<svg version="1.1" xmlns:xlink="http://www.w3.org/1999/xlink" width="12px" height="12px" viewBox="378 594  12 12" xmlns="http://www.w3.org/2000/svg">
  <path d="M 384 594  C 387.36 594  390 596.64  390 600  C 390 603.36  387.36 606  384 606  C 380.64 606  378 603.36  378 600  C 378 596.64  380.64 594  384 594  Z " fill-rule="nonzero" fill="#f0f0f0" stroke="none" />
  <path d="M 384 594.5  C 387.08 594.5  389.5 596.92  389.5 600  C 389.5 603.08  387.08 605.5  384 605.5  C 380.92 605.5  378.5 603.08  378.5 600  C 378.5 596.92  380.92 594.5  384 594.5  Z " stroke-width="1" stroke="#797979" fill="none" />
  <path d="M 384 603  C 382.32 603  381 601.68  381 600  C 381 598.32  382.32 597  384 597  C 385.68 597  387 598.32  387 600  C 387 601.68  385.68 603  384 603  " fill-rule="nonzero" fill="#797979" stroke="none" />
</svg>