<?xml version="1.0" encoding="utf-8"?>
<svg version="1.1" xmlns:xlink="http://www.w3.org/1999/xlink" width="12px" height="12px" viewBox="478 594  12 12" xmlns="http://www.w3.org/2000/svg">
  <path d="M 484 594  C 487.36 594  490 596.64  490 600  C 490 603.36  487.36 606  484 606  C 480.64 606  478 603.36  478 600  C 478 596.64  480.64 594  484 594  Z " fill-rule="nonzero" fill="#ffffff" stroke="none" />
  <path d="M 484 594.5  C 487.08 594.5  489.5 596.92  489.5 600  C 489.5 603.08  487.08 605.5  484 605.5  C 480.92 605.5  478.5 603.08  478.5 600  C 478.5 596.92  480.92 594.5  484 594.5  Z " stroke-width="1" stroke="#797979" fill="none" />
  <path d="M 484 603  C 482.32 603  481 601.68  481 600  C 481 598.32  482.32 597  484 597  C 485.68 597  487 598.32  487 600  C 487 601.68  485.68 603  484 603  " fill-rule="nonzero" fill="#797979" stroke="none" />
</svg>