<?xml version="1.0" encoding="utf-8"?>
<svg version="1.1" xmlns:xlink="http://www.w3.org/1999/xlink" width="12px" height="12px" viewBox="378 685  12 12" xmlns="http://www.w3.org/2000/svg">
  <path d="M 384 685  C 387.36 685  390 687.64  390 691  C 390 694.36  387.36 697  384 697  C 380.64 697  378 694.36  378 691  C 378 687.64  380.64 685  384 685  Z " fill-rule="nonzero" fill="#ffffff" stroke="none" />
  <path d="M 384 685.5  C 387.08 685.5  389.5 687.92  389.5 691  C 389.5 694.08  387.08 696.5  384 696.5  C 380.92 696.5  378.5 694.08  378.5 691  C 378.5 687.92  380.92 685.5  384 685.5  Z " stroke-width="1" stroke="#797979" fill="none" />
  <path d="M 384 694  C 382.32 694  381 692.68  381 691  C 381 689.32  382.32 688  384 688  C 385.68 688  387 689.32  387 691  C 387 692.68  385.68 694  384 694  " fill-rule="nonzero" fill="#797979" stroke="none" />
</svg>