<?xml version="1.0" encoding="utf-8"?>
<svg version="1.1" xmlns:xlink="http://www.w3.org/1999/xlink" width="12px" height="12px" viewBox="510 685  12 12" xmlns="http://www.w3.org/2000/svg">
  <path d="M 516 685  C 519.36 685  522 687.64  522 691  C 522 694.36  519.36 697  516 697  C 512.64 697  510 694.36  510 691  C 510 687.64  512.64 685  516 685  Z " fill-rule="nonzero" fill="#ffffff" stroke="none" />
  <path d="M 516 685.5  C 519.08 685.5  521.5 687.92  521.5 691  C 521.5 694.08  519.08 696.5  516 696.5  C 512.92 696.5  510.5 694.08  510.5 691  C 510.5 687.92  512.92 685.5  516 685.5  Z " stroke-width="1" stroke="#797979" fill="none" />
  <path d="M 516 694  C 514.32 694  513 692.68  513 691  C 513 689.32  514.32 688  516 688  C 517.68 688  519 689.32  519 691  C 519 692.68  517.68 694  516 694  " fill-rule="nonzero" fill="#797979" stroke="none" />
</svg>