<?xml version="1.0" encoding="utf-8"?>
<svg version="1.1" xmlns:xlink="http://www.w3.org/1999/xlink" width="12px" height="12px" viewBox="2207 1585  12 12" xmlns="http://www.w3.org/2000/svg">
  <path d="M 2213 1585  C 2216.36 1585  2219 1587.64  2219 1591  C 2219 1594.36  2216.36 1597  2213 1597  C 2209.64 1597  2207 1594.36  2207 1591  C 2207 1587.64  2209.64 1585  2213 1585  Z " fill-rule="nonzero" fill="#ffffff" stroke="none" />
  <path d="M 2213 1585.5  C 2216.08 1585.5  2218.5 1587.92  2218.5 1591  C 2218.5 1594.08  2216.08 1596.5  2213 1596.5  C 2209.92 1596.5  2207.5 1594.08  2207.5 1591  C 2207.5 1587.92  2209.92 1585.5  2213 1585.5  Z " stroke-width="1" stroke="#797979" fill="none" />
  <path d="M 2213 1594  C 2211.32 1594  2210 1592.68  2210 1591  C 2210 1589.32  2211.32 1588  2213 1588  C 2214.68 1588  2216 1589.32  2216 1591  C 2216 1592.68  2214.68 1594  2213 1594  " fill-rule="nonzero" fill="#797979" stroke="none" />
</svg>