<?xml version="1.0" encoding="utf-8"?>
<svg version="1.1" xmlns:xlink="http://www.w3.org/1999/xlink" width="12px" height="12px" viewBox="643 511  12 12" xmlns="http://www.w3.org/2000/svg">
  <path d="M 649 511  C 652.36 511  655 513.64  655 517  C 655 520.36  652.36 523  649 523  C 645.64 523  643 520.36  643 517  C 643 513.64  645.64 511  649 511  Z " fill-rule="nonzero" fill="#ffffff" stroke="none" />
  <path d="M 649 511.5  C 652.08 511.5  654.5 513.92  654.5 517  C 654.5 520.08  652.08 522.5  649 522.5  C 645.92 522.5  643.5 520.08  643.5 517  C 643.5 513.92  645.92 511.5  649 511.5  Z " stroke-width="1" stroke="#797979" fill="none" />
  <path d="M 649 520  C 647.32 520  646 518.68  646 517  C 646 515.32  647.32 514  649 514  C 650.68 514  652 515.32  652 517  C 652 518.68  650.68 520  649 520  " fill-rule="nonzero" fill="#797979" stroke="none" />
</svg>