<?xml version="1.0" encoding="utf-8"?>
<svg version="1.1" xmlns:xlink="http://www.w3.org/1999/xlink" width="12px" height="12px" viewBox="411 511  12 12" xmlns="http://www.w3.org/2000/svg">
  <path d="M 417 511  C 420.36 511  423 513.64  423 517  C 423 520.36  420.36 523  417 523  C 413.64 523  411 520.36  411 517  C 411 513.64  413.64 511  417 511  Z " fill-rule="nonzero" fill="#f0f0f0" stroke="none" />
  <path d="M 417 511.5  C 420.08 511.5  422.5 513.92  422.5 517  C 422.5 520.08  420.08 522.5  417 522.5  C 413.92 522.5  411.5 520.08  411.5 517  C 411.5 513.92  413.92 511.5  417 511.5  Z " stroke-width="1" stroke="#797979" fill="none" />
  <path d="M 417 520  C 415.32 520  414 518.68  414 517  C 414 515.32  415.32 514  417 514  C 418.68 514  420 515.32  420 517  C 420 518.68  418.68 520  417 520  " fill-rule="nonzero" fill="#797979" stroke="none" />
</svg>