<?xml version="1.0" encoding="utf-8"?>
<svg version="1.1" xmlns:xlink="http://www.w3.org/1999/xlink" width="64px" height="64px" xmlns="http://www.w3.org/2000/svg">
  <g transform="matrix(1 0 0 1 -454 -2158 )">
    <path d="M 486 2158  C 503.92 2158  518 2172.08  518 2190  C 518 2207.92  503.92 2222  486 2222  C 468.08 2222  454 2207.92  454 2190  C 454 2172.08  468.08 2158  486 2158  Z " fill-rule="nonzero" fill="#e9e9e9" stroke="none" />
    <path d="M 486 2158.5  C 503.64 2158.5  517.5 2172.36  517.5 2190  C 517.5 2207.64  503.64 2221.5  486 2221.5  C 468.36 2221.5  454.5 2207.64  454.5 2190  C 454.5 2172.36  468.36 2158.5  486 2158.5  Z " stroke-width="1" stroke="#ffffff" fill="none" />
  </g>
</svg>