<?xml version="1.0" encoding="utf-8"?>
<svg version="1.1" xmlns:xlink="http://www.w3.org/1999/xlink" width="64px" height="64px" xmlns="http://www.w3.org/2000/svg">
  <g transform="matrix(1 0 0 1 -454 -2158 )">
    <path d="M 483.333511537484 2158.61306260062  C 484.22026999089 2158.53772771924  485.109897522075 2158.5  486 2158.5  C 503.39696961967 2158.5  517.5 2172.60303038033  517.5 2190  C 517.5 2207.39696961967  503.39696961967 2221.5  486 2221.5  C 468.60303038033 2221.5  454.5 2207.39696961967  454.5 2190  C 454.5 2184.63735536427  455.869029054164 2179.36633840497  458.473635776507 2174.68499647495  L 485.75 2190.43301270189  A 0.5 0.5 0 0 0 486.497470760719 2189.9497720971 L 483.333511537502 2158.61306260062  Z " fill-rule="nonzero" fill="#99d5fd" stroke="none" />
    <path d="M 483.333511537484 2158.61306260062  C 484.22026999089 2158.53772771924  485.109897522075 2158.5  486 2158.5  C 503.39696961967 2158.5  517.5 2172.60303038033  517.5 2190  C 517.5 2207.39696961967  503.39696961967 2221.5  486 2221.5  C 468.60303038033 2221.5  454.5 2207.39696961967  454.5 2190  C 454.5 2184.63735536427  455.869029054164 2179.36633840497  458.473635776507 2174.68499647495  L 485.75 2190.43301270189  A 0.5 0.5 0 0 0 486.497470760719 2189.9497720971 L 483.333511537502 2158.61306260062  Z " stroke-width="1" stroke="#ffffff" fill="none" />
  </g>
</svg>