<?xml version="1.0" encoding="utf-8"?>
<svg version="1.1" xmlns:xlink="http://www.w3.org/1999/xlink" width="39px" height="39px" xmlns="http://www.w3.org/2000/svg">
  <g transform="matrix(1 0 0 1 -466 -2170 )">
    <path d="M 485.5 2170  C 496.42 2170  505 2178.58  505 2189.5  C 505 2200.42  496.42 2209  485.5 2209  C 474.58 2209  466 2200.42  466 2189.5  C 466 2178.58  474.58 2170  485.5 2170  Z " fill-rule="nonzero" fill="#ffffff" stroke="none" />
    <path d="M 485.5 2170.5  C 496.14 2170.5  504.5 2178.86  504.5 2189.5  C 504.5 2200.14  496.14 2208.5  485.5 2208.5  C 474.86 2208.5  466.5 2200.14  466.5 2189.5  C 466.5 2178.86  474.86 2170.5  485.5 2170.5  Z " stroke-width="1" stroke="#ffffff" fill="none" />
  </g>
</svg>