<?xml version="1.0" encoding="utf-8"?>
<svg version="1.1" xmlns:xlink="http://www.w3.org/1999/xlink" width="64px" height="64px" xmlns="http://www.w3.org/2000/svg">
  <g transform="matrix(1 0 0 1 -689 -2158 )">
    <path d="M 718.333511537483 2158.61306260062  C 719.22026999089 2158.53772771924  720.109897522075 2158.5  721 2158.5  C 738.39696961967 2158.5  752.5 2172.60303038033  752.5 2190  C 752.5 2207.39696961967  738.39696961967 2221.5  721 2221.5  C 704.852014491797 2221.5  691.349015581785 2209.29642682772  689.672190417079 2193.28974163612  L 721.044318343823 2190.49803201142  A 0.5 0.5 0 0 0 721.497470760719 2189.9497720971 L 718.333511537502 2158.61306260062  Z " fill-rule="nonzero" fill="#0096fa" stroke="none" />
    <path d="M 718.333511537483 2158.61306260062  C 719.22026999089 2158.53772771924  720.109897522075 2158.5  721 2158.5  C 738.39696961967 2158.5  752.5 2172.60303038033  752.5 2190  C 752.5 2207.39696961967  738.39696961967 2221.5  721 2221.5  C 704.852014491797 2221.5  691.349015581785 2209.29642682772  689.672190417079 2193.28974163612  L 721.044318343823 2190.49803201142  A 0.5 0.5 0 0 0 721.497470760719 2189.9497720971 L 718.333511537502 2158.61306260062  Z " stroke-width="1" stroke="#ffffff" fill="none" />
  </g>
</svg>