<?xml version="1.0" encoding="utf-8"?>
<svg version="1.1" xmlns:xlink="http://www.w3.org/1999/xlink" width="5px" height="5px" xmlns="http://www.w3.org/2000/svg">
  <g transform="matrix(1 0 0 1 -387 -551 )">
    <path d="M 389.5 551  C 390.9 551  392 552.1  392 553.5  C 392 554.9  390.9 556  389.5 556  C 388.1 556  387 554.9  387 553.5  C 387 552.1  388.1 551  389.5 551  Z " fill-rule="nonzero" fill="#ffffff" stroke="none" />
    <path d="M 389.5 551.5  C 390.62 551.5  391.5 552.38  391.5 553.5  C 391.5 554.62  390.62 555.5  389.5 555.5  C 388.38 555.5  387.5 554.62  387.5 553.5  C 387.5 552.38  388.38 551.5  389.5 551.5  Z " stroke-width="1" stroke="#1890ff" fill="none" />
  </g>
</svg>