<?xml version="1.0" encoding="utf-8"?>
<svg version="1.1" xmlns:xlink="http://www.w3.org/1999/xlink" width="11px" height="11px" xmlns="http://www.w3.org/2000/svg">
  <g transform="matrix(1 0 0 1 -3109 -3508 )">
    <path d="M 3114.5 3509  C 3117.02 3509  3119 3510.98  3119 3513.5  C 3119 3516.02  3117.02 3518  3114.5 3518  C 3111.98 3518  3110 3516.02  3110 3513.5  C 3110 3510.98  3111.98 3509  3114.5 3509  Z " fill-rule="nonzero" fill="#ffffff" stroke="none" />
    <path d="M 3114.5 3509  C 3117.02 3509  3119 3510.98  3119 3513.5  C 3119 3516.02  3117.02 3518  3114.5 3518  C 3111.98 3518  3110 3516.02  3110 3513.5  C 3110 3510.98  3111.98 3509  3114.5 3509  Z " stroke-width="2" stroke="#61a5e8" fill="none" />
  </g>
</svg>