<?xml version="1.0" encoding="utf-8"?>
<svg version="1.1" xmlns:xlink="http://www.w3.org/1999/xlink" width="12px" height="12px" viewBox="457 1426  12 12" xmlns="http://www.w3.org/2000/svg">
  <path d="M 463 1426  C 466.36 1426  469 1428.64  469 1432  C 469 1435.36  466.36 1438  463 1438  C 459.64 1438  457 1435.36  457 1432  C 457 1428.64  459.64 1426  463 1426  Z " fill-rule="nonzero" fill="#f0f0f0" stroke="none" />
  <path d="M 463 1426.5  C 466.08 1426.5  468.5 1428.92  468.5 1432  C 468.5 1435.08  466.08 1437.5  463 1437.5  C 459.92 1437.5  457.5 1435.08  457.5 1432  C 457.5 1428.92  459.92 1426.5  463 1426.5  Z " stroke-width="1" stroke="#1890ff" fill="none" />
  <path d="M 463 1435  C 461.32 1435  460 1433.68  460 1432  C 460 1430.32  461.32 1429  463 1429  C 464.68 1429  466 1430.32  466 1432  C 466 1433.68  464.68 1435  463 1435  " fill-rule="nonzero" fill="#1890ff" stroke="none" />
</svg>