<?xml version="1.0" encoding="utf-8"?>
<svg version="1.1" xmlns:xlink="http://www.w3.org/1999/xlink" width="12px" height="12px" viewBox="577 1426  12 12" xmlns="http://www.w3.org/2000/svg">
  <path d="M 583 1426  C 586.36 1426  589 1428.64  589 1432  C 589 1435.36  586.36 1438  583 1438  C 579.64 1438  577 1435.36  577 1432  C 577 1428.64  579.64 1426  583 1426  Z " fill-rule="nonzero" fill="#ffffff" stroke="none" />
  <path d="M 583 1426.5  C 586.08 1426.5  588.5 1428.92  588.5 1432  C 588.5 1435.08  586.08 1437.5  583 1437.5  C 579.92 1437.5  577.5 1435.08  577.5 1432  C 577.5 1428.92  579.92 1426.5  583 1426.5  Z " stroke-width="1" stroke="#1890ff" fill="none" />
  <path d="M 583 1435  C 581.32 1435  580 1433.68  580 1432  C 580 1430.32  581.32 1429  583 1429  C 584.68 1429  586 1430.32  586 1432  C 586 1433.68  584.68 1435  583 1435  " fill-rule="nonzero" fill="#1890ff" stroke="none" />
</svg>