<?xml version="1.0" encoding="utf-8"?>
<svg version="1.1" xmlns:xlink="http://www.w3.org/1999/xlink" width="12px" height="12px" viewBox="460 1476  12 12" xmlns="http://www.w3.org/2000/svg">
  <path d="M 466 1476  C 469.36 1476  472 1478.64  472 1482  C 472 1485.36  469.36 1488  466 1488  C 462.64 1488  460 1485.36  460 1482  C 460 1478.64  462.64 1476  466 1476  Z " fill-rule="nonzero" fill="#f0f0f0" stroke="none" />
  <path d="M 466 1476.5  C 469.08 1476.5  471.5 1478.92  471.5 1482  C 471.5 1485.08  469.08 1487.5  466 1487.5  C 462.92 1487.5  460.5 1485.08  460.5 1482  C 460.5 1478.92  462.92 1476.5  466 1476.5  Z " stroke-width="1" stroke="#1890ff" fill="none" />
  <path d="M 466 1485  C 464.32 1485  463 1483.68  463 1482  C 463 1480.32  464.32 1479  466 1479  C 467.68 1479  469 1480.32  469 1482  C 469 1483.68  467.68 1485  466 1485  " fill-rule="nonzero" fill="#1890ff" stroke="none" />
</svg>