<?xml version="1.0" encoding="utf-8"?>
<svg version="1.1" xmlns:xlink="http://www.w3.org/1999/xlink" width="12px" height="12px" viewBox="580 1476  12 12" xmlns="http://www.w3.org/2000/svg">
  <path d="M 586 1476  C 589.36 1476  592 1478.64  592 1482  C 592 1485.36  589.36 1488  586 1488  C 582.64 1488  580 1485.36  580 1482  C 580 1478.64  582.64 1476  586 1476  Z " fill-rule="nonzero" fill="#ffffff" stroke="none" />
  <path d="M 586 1476.5  C 589.08 1476.5  591.5 1478.92  591.5 1482  C 591.5 1485.08  589.08 1487.5  586 1487.5  C 582.92 1487.5  580.5 1485.08  580.5 1482  C 580.5 1478.92  582.92 1476.5  586 1476.5  Z " stroke-width="1" stroke="#1890ff" fill="none" />
  <path d="M 586 1485  C 584.32 1485  583 1483.68  583 1482  C 583 1480.32  584.32 1479  586 1479  C 587.68 1479  589 1480.32  589 1482  C 589 1483.68  587.68 1485  586 1485  " fill-rule="nonzero" fill="#1890ff" stroke="none" />
</svg>