<?xml version="1.0" encoding="utf-8"?>
<svg version="1.1" xmlns:xlink="http://www.w3.org/1999/xlink" width="14px" height="14px" xmlns="http://www.w3.org/2000/svg">
  <g transform="matrix(1 0 0 1 -683 -1245 )">
    <path d="M 13.60625 13.125  C 13.628125 13.16875  13.628125 13.16875  13.60625 13.125  L 13.16875 10.0625  C 13.16875 9.821875  12.971875 9.625  12.73125 9.625  C 12.6875 9.625  12.578125 9.625  12.534375 9.66875  C 12.490625 9.66875  12.446875 9.7125  12.38125 9.75625  L 11.59375 10.54375  L 8.596875 7.525  C 8.44375 7.371875  8.203125 7.371875  8.071875 7.525  L 7.546875 8.05  C 7.39375 8.203125  7.39375 8.44375  7.546875 8.575  L 10.609375 11.6375  L 9.821875 12.425  C 9.778125 12.46875  9.734375 12.5125  9.734375 12.578125  C 9.690625 12.621875  9.690625 12.73125  9.690625 12.775  C 9.690625 13.015625  9.8875 13.2125  10.128125 13.2125  L 13.125 13.60625  L 13.16875 13.60625  C 13.321875 13.60625  13.453125 13.51875  13.51875 13.409375  C 13.5625 13.321875  13.628125 13.278125  13.60625 13.125  Z M 6.475 8.05  C 6.475 8.071875  5.928125 7.525  5.928125 7.525  C 5.775 7.371875  5.534375 7.371875  5.403125 7.525  L 2.384375 10.54375  L 1.596875 9.75625  C 1.553125 9.7125  1.509375 9.66875  1.44375 9.66875  C 1.4 9.66875  1.35625 9.625  1.246875 9.625  C 1.00625 9.625  0.809375 9.821875  0.809375 10.0625  L 0.371875 13.125  C 0.371875 13.2125  0.415625 13.321875  0.459375 13.365625  C 0.56875 13.475  0.678125 13.5625  0.83125 13.5625  L 0.875 13.5625  L 3.9375 13.16875  C 4.178125 13.16875  4.375 12.971875  4.375 12.73125  C 4.375 12.6875  4.375 12.578125  4.33125 12.534375  C 4.33125 12.490625  4.2875 12.446875  4.24375 12.38125  L 3.45625 11.59375  L 6.475 8.575  C 6.628125 8.421875  6.628125 8.18125  6.475 8.05  Z M 13.60625 0.831249999999999  C 13.60625 0.874999999999999  13.60625 0.874999999999999  13.60625 0.83125  C 13.60625 0.74375  13.5625 0.634375  13.51875 0.590625  C 13.43125 0.503125  13.321875 0.39375  13.16875 0.39375  L 13.125 0.39375  L 10.10625 0.765625  C 9.865625 0.765625  9.66875 0.9625  9.66875 1.203125  C 9.66875 1.246875  9.66875 1.35625  9.7125 1.4  C 9.7125 1.44375  9.75625 1.4875  9.8 1.553125  L 10.5875 2.340625  L 7.590625 5.3375  C 7.4375 5.490625  7.4375 5.73125  7.590625 5.8625  L 8.115625 6.3875  C 8.26875 6.540625  8.509375 6.540625  8.640625 6.3875  L 11.659375 3.36875  L 12.446875 4.15625  C 12.490625 4.2  12.534375 4.24375  12.64375 4.24375  C 12.6875 4.24375  12.73125 4.2875  12.796875 4.2875  C 13.0375 4.2875  13.234375 4.090625  13.234375 3.85  L 13.60625 0.831249999999999  Z M 6.475 5.38125  C 6.475 5.3375  3.390625 2.384375  3.390625 2.384375  L 4.178125 1.596875  C 4.221875 1.553125  4.265625 1.509375  4.265625 1.44375  C 4.309375 1.4  4.309375 1.290625  4.309375 1.246875  C 4.309375 1.00625  4.1125 0.809375  3.871875 0.809375  L 0.875 0.39375  L 0.83125 0.39375  C 0.678125 0.39375  0.590625 0.48125  0.48125 0.590625  C 0.4375 0.678125  0.39375 0.721875  0.39375 0.83125  L 0.83125 3.89375  C 0.83125 4.134375  1.028125 4.33125  1.26875 4.33125  C 1.3125 4.33125  1.35625 4.33125  1.465625 4.2875  C 1.509375 4.2875  1.553125 4.24375  1.61875 4.2  L 2.40625 3.4125  L 5.425 6.43125  C 5.578125 6.584375  5.81875 6.584375  5.95 6.43125  L 6.475 5.90625  C 6.628125 5.753125  6.628125 5.5125  6.475 5.38125  Z " fill-rule="nonzero" fill="#aaaaaa" stroke="none" transform="matrix(1 0 0 1 683 1245 )" />
  </g>
</svg>