<?xml version="1.0" encoding="utf-8"?>
<svg version="1.1" xmlns:xlink="http://www.w3.org/1999/xlink" width="12px" height="12px" viewBox="361 998  12 12" xmlns="http://www.w3.org/2000/svg">
  <path d="M 367 998  C 370.36 998  373 1000.64  373 1004  C 373 1007.36  370.36 1010  367 1010  C 363.64 1010  361 1007.36  361 1004  C 361 1000.64  363.64 998  367 998  Z " fill-rule="nonzero" fill="#f0f0f0" stroke="none" />
  <path d="M 367 998.5  C 370.08 998.5  372.5 1000.92  372.5 1004  C 372.5 1007.08  370.08 1009.5  367 1009.5  C 363.92 1009.5  361.5 1007.08  361.5 1004  C 361.5 1000.92  363.92 998.5  367 998.5  Z " stroke-width="1" stroke="#797979" fill="none" />
  <path d="M 367 1007  C 365.32 1007  364 1005.68  364 1004  C 364 1002.32  365.32 1001  367 1001  C 368.68 1001  370 1002.32  370 1004  C 370 1005.68  368.68 1007  367 1007  " fill-rule="nonzero" fill="#797979" stroke="none" />
</svg>