<?xml version="1.0" encoding="utf-8"?>
<svg version="1.1" xmlns:xlink="http://www.w3.org/1999/xlink" width="12px" height="12px" viewBox="1234 944  12 12" xmlns="http://www.w3.org/2000/svg">
  <path d="M 1240 944  C 1243.36 944  1246 946.64  1246 950  C 1246 953.36  1243.36 956  1240 956  C 1236.64 956  1234 953.36  1234 950  C 1234 946.64  1236.64 944  1240 944  Z " fill-rule="nonzero" fill="#f0f0f0" stroke="none" />
  <path d="M 1240 944.5  C 1243.08 944.5  1245.5 946.92  1245.5 950  C 1245.5 953.08  1243.08 955.5  1240 955.5  C 1236.92 955.5  1234.5 953.08  1234.5 950  C 1234.5 946.92  1236.92 944.5  1240 944.5  Z " stroke-width="1" stroke="#797979" fill="none" />
  <path d="M 1240 953  C 1238.32 953  1237 951.68  1237 950  C 1237 948.32  1238.32 947  1240 947  C 1241.68 947  1243 948.32  1243 950  C 1243 951.68  1241.68 953  1240 953  " fill-rule="nonzero" fill="#797979" stroke="none" />
</svg>