<?xml version="1.0" encoding="utf-8"?>
<svg version="1.1" xmlns:xlink="http://www.w3.org/1999/xlink" width="12px" height="12px" viewBox="1234 1004  12 12" xmlns="http://www.w3.org/2000/svg">
  <path d="M 1240 1004  C 1243.36 1004  1246 1006.64  1246 1010  C 1246 1013.36  1243.36 1016  1240 1016  C 1236.64 1016  1234 1013.36  1234 1010  C 1234 1006.64  1236.64 1004  1240 1004  Z " fill-rule="nonzero" fill="#ffffff" stroke="none" />
  <path d="M 1240 1004.5  C 1243.08 1004.5  1245.5 1006.92  1245.5 1010  C 1245.5 1013.08  1243.08 1015.5  1240 1015.5  C 1236.92 1015.5  1234.5 1013.08  1234.5 1010  C 1234.5 1006.92  1236.92 1004.5  1240 1004.5  Z " stroke-width="1" stroke="#797979" fill="none" />
  <path d="M 1240 1013  C 1238.32 1013  1237 1011.68  1237 1010  C 1237 1008.32  1238.32 1007  1240 1007  C 1241.68 1007  1243 1008.32  1243 1010  C 1243 1011.68  1241.68 1013  1240 1013  " fill-rule="nonzero" fill="#797979" stroke="none" />
</svg>