<?xml version="1.0" encoding="utf-8"?>
<svg version="1.1" xmlns:xlink="http://www.w3.org/1999/xlink" width="12px" height="12px" viewBox="1234 914  12 12" xmlns="http://www.w3.org/2000/svg">
  <path d="M 1240 914  C 1243.36 914  1246 916.64  1246 920  C 1246 923.36  1243.36 926  1240 926  C 1236.64 926  1234 923.36  1234 920  C 1234 916.64  1236.64 914  1240 914  Z " fill-rule="nonzero" fill="#ffffff" stroke="none" />
  <path d="M 1240 914.5  C 1243.08 914.5  1245.5 916.92  1245.5 920  C 1245.5 923.08  1243.08 925.5  1240 925.5  C 1236.92 925.5  1234.5 923.08  1234.5 920  C 1234.5 916.92  1236.92 914.5  1240 914.5  Z " stroke-width="1" stroke="#797979" fill="none" />
  <path d="M 1240 923  C 1238.32 923  1237 921.68  1237 920  C 1237 918.32  1238.32 917  1240 917  C 1241.68 917  1243 918.32  1243 920  C 1243 921.68  1241.68 923  1240 923  " fill-rule="nonzero" fill="#797979" stroke="none" />
</svg>