<?xml version="1.0" encoding="utf-8"?>
<svg version="1.1" xmlns:xlink="http://www.w3.org/1999/xlink" width="12px" height="12px" viewBox="1234 1034  12 12" xmlns="http://www.w3.org/2000/svg">
  <path d="M 1240 1034  C 1243.36 1034  1246 1036.64  1246 1040  C 1246 1043.36  1243.36 1046  1240 1046  C 1236.64 1046  1234 1043.36  1234 1040  C 1234 1036.64  1236.64 1034  1240 1034  Z " fill-rule="nonzero" fill="#ffffff" stroke="none" />
  <path d="M 1240 1034.5  C 1243.08 1034.5  1245.5 1036.92  1245.5 1040  C 1245.5 1043.08  1243.08 1045.5  1240 1045.5  C 1236.92 1045.5  1234.5 1043.08  1234.5 1040  C 1234.5 1036.92  1236.92 1034.5  1240 1034.5  Z " stroke-width="1" stroke="#797979" fill="none" />
  <path d="M 1240 1043  C 1238.32 1043  1237 1041.68  1237 1040  C 1237 1038.32  1238.32 1037  1240 1037  C 1241.68 1037  1243 1038.32  1243 1040  C 1243 1041.68  1241.68 1043  1240 1043  " fill-rule="nonzero" fill="#797979" stroke="none" />
</svg>