<?xml version="1.0" encoding="utf-8"?>
<svg version="1.1" xmlns:xlink="http://www.w3.org/1999/xlink" width="12px" height="12px" viewBox="2169 1399  12 12" xmlns="http://www.w3.org/2000/svg">
  <path d="M 2175 1399  C 2178.36 1399  2181 1401.64  2181 1405  C 2181 1408.36  2178.36 1411  2175 1411  C 2171.64 1411  2169 1408.36  2169 1405  C 2169 1401.64  2171.64 1399  2175 1399  Z " fill-rule="nonzero" fill="#f0f0f0" stroke="none" />
  <path d="M 2175 1399.5  C 2178.08 1399.5  2180.5 1401.92  2180.5 1405  C 2180.5 1408.08  2178.08 1410.5  2175 1410.5  C 2171.92 1410.5  2169.5 1408.08  2169.5 1405  C 2169.5 1401.92  2171.92 1399.5  2175 1399.5  Z " stroke-width="1" stroke="#797979" fill="none" />
  <path d="M 2175 1408  C 2173.32 1408  2172 1406.68  2172 1405  C 2172 1403.32  2173.32 1402  2175 1402  C 2176.68 1402  2178 1403.32  2178 1405  C 2178 1406.68  2176.68 1408  2175 1408  " fill-rule="nonzero" fill="#797979" stroke="none" />
</svg>