<?xml version="1.0" encoding="utf-8"?>
<svg version="1.1" xmlns:xlink="http://www.w3.org/1999/xlink" width="40px" height="40px" xmlns="http://www.w3.org/2000/svg">
  <g transform="matrix(1 0 0 1 12 -240 )">
    <path d="M 8 240  C 19.2 240  28 248.8  28 260  C 28 271.2  19.2 280  8 280  C -3.2 280  -12 271.2  -12 260  C -12 248.8  -3.2 240  8 240  Z " fill-rule="nonzero" fill="#ffffff" stroke="none" />
    <path d="M 8 240.5  C 18.92 240.5  27.5 249.08  27.5 260  C 27.5 270.92  18.92 279.5  8 279.5  C -2.92 279.5  -11.5 270.92  -11.5 260  C -11.5 249.08  -2.92 240.5  8 240.5  Z " stroke-width="1" stroke="#777777" fill="none" />
  </g>
</svg>