<?xml version="1.0" encoding="utf-8"?>
<svg version="1.1" xmlns:xlink="http://www.w3.org/1999/xlink" width="12px" height="12px" viewBox="115 40  12 12" xmlns="http://www.w3.org/2000/svg">
  <path d="M 121 40  C 124.36 40  127 42.64  127 46  C 127 49.36  124.36 52  121 52  C 117.64 52  115 49.36  115 46  C 115 42.64  117.64 40  121 40  Z " fill-rule="nonzero" fill="#ffffff" stroke="none" />
  <path d="M 121 40.5  C 124.08 40.5  126.5 42.92  126.5 46  C 126.5 49.08  124.08 51.5  121 51.5  C 117.92 51.5  115.5 49.08  115.5 46  C 115.5 42.92  117.92 40.5  121 40.5  Z " stroke-width="1" stroke="#797979" fill="none" />
  <path d="M 121 49  C 119.32 49  118 47.68  118 46  C 118 44.32  119.32 43  121 43  C 122.68 43  124 44.32  124 46  C 124 47.68  122.68 49  121 49  " fill-rule="nonzero" fill="#797979" stroke="none" />
</svg>