<?xml version="1.0" encoding="utf-8"?>
<svg version="1.1" xmlns:xlink="http://www.w3.org/1999/xlink" width="12px" height="12px" viewBox="438 1167  12 12" xmlns="http://www.w3.org/2000/svg">
  <path d="M 444 1167  C 447.36 1167  450 1169.64  450 1173  C 450 1176.36  447.36 1179  444 1179  C 440.64 1179  438 1176.36  438 1173  C 438 1169.64  440.64 1167  444 1167  Z " fill-rule="nonzero" fill="#f0f0f0" stroke="none" />
  <path d="M 444 1167.5  C 447.08 1167.5  449.5 1169.92  449.5 1173  C 449.5 1176.08  447.08 1178.5  444 1178.5  C 440.92 1178.5  438.5 1176.08  438.5 1173  C 438.5 1169.92  440.92 1167.5  444 1167.5  Z " stroke-width="1" stroke="#797979" fill="none" />
  <path d="M 444 1176  C 442.32 1176  441 1174.68  441 1173  C 441 1171.32  442.32 1170  444 1170  C 445.68 1170  447 1171.32  447 1173  C 447 1174.68  445.68 1176  444 1176  " fill-rule="nonzero" fill="#797979" stroke="none" />
</svg>