<?xml version="1.0" encoding="utf-8"?>
<svg version="1.1" xmlns:xlink="http://www.w3.org/1999/xlink" width="12px" height="12px" viewBox="901 825  12 12" xmlns="http://www.w3.org/2000/svg">
  <path d="M 907 825  C 910.36 825  913 827.64  913 831  C 913 834.36  910.36 837  907 837  C 903.64 837  901 834.36  901 831  C 901 827.64  903.64 825  907 825  Z " fill-rule="nonzero" fill="#ffffff" stroke="none" />
  <path d="M 907 825.5  C 910.08 825.5  912.5 827.92  912.5 831  C 912.5 834.08  910.08 836.5  907 836.5  C 903.92 836.5  901.5 834.08  901.5 831  C 901.5 827.92  903.92 825.5  907 825.5  Z " stroke-width="1" stroke="#797979" fill="none" />
  <path d="M 907 834  C 905.32 834  904 832.68  904 831  C 904 829.32  905.32 828  907 828  C 908.68 828  910 829.32  910 831  C 910 832.68  908.68 834  907 834  " fill-rule="nonzero" fill="#797979" stroke="none" />
</svg>