<?xml version="1.0" encoding="utf-8"?>
<svg version="1.1" xmlns:xlink="http://www.w3.org/1999/xlink" width="12px" height="12px" viewBox="1025 958  12 12" xmlns="http://www.w3.org/2000/svg">
  <path d="M 1031 958  C 1034.36 958  1037 960.64  1037 964  C 1037 967.36  1034.36 970  1031 970  C 1027.64 970  1025 967.36  1025 964  C 1025 960.64  1027.64 958  1031 958  Z " fill-rule="nonzero" fill="#ffffff" stroke="none" />
  <path d="M 1031 958.5  C 1034.08 958.5  1036.5 960.92  1036.5 964  C 1036.5 967.08  1034.08 969.5  1031 969.5  C 1027.92 969.5  1025.5 967.08  1025.5 964  C 1025.5 960.92  1027.92 958.5  1031 958.5  Z " stroke-width="1" stroke="#797979" fill="none" />
  <path d="M 1031 967  C 1029.32 967  1028 965.68  1028 964  C 1028 962.32  1029.32 961  1031 961  C 1032.68 961  1034 962.32  1034 964  C 1034 965.68  1032.68 967  1031 967  " fill-rule="nonzero" fill="#797979" stroke="none" />
</svg>