<?xml version="1.0" encoding="utf-8"?>
<svg version="1.1" xmlns:xlink="http://www.w3.org/1999/xlink" width="12px" height="12px" viewBox="891 958  12 12" xmlns="http://www.w3.org/2000/svg">
  <path d="M 897 958  C 900.36 958  903 960.64  903 964  C 903 967.36  900.36 970  897 970  C 893.64 970  891 967.36  891 964  C 891 960.64  893.64 958  897 958  Z " fill-rule="nonzero" fill="#f0f0f0" stroke="none" />
  <path d="M 897 958.5  C 900.08 958.5  902.5 960.92  902.5 964  C 902.5 967.08  900.08 969.5  897 969.5  C 893.92 969.5  891.5 967.08  891.5 964  C 891.5 960.92  893.92 958.5  897 958.5  Z " stroke-width="1" stroke="#797979" fill="none" />
  <path d="M 897 967  C 895.32 967  894 965.68  894 964  C 894 962.32  895.32 961  897 961  C 898.68 961  900 962.32  900 964  C 900 965.68  898.68 967  897 967  " fill-rule="nonzero" fill="#797979" stroke="none" />
</svg>