<?xml version="1.0" encoding="utf-8"?>
<svg version="1.1" xmlns:xlink="http://www.w3.org/1999/xlink" width="12px" height="12px" viewBox="489 309  12 12" xmlns="http://www.w3.org/2000/svg">
  <path d="M 495 309  C 498.36 309  501 311.64  501 315  C 501 318.36  498.36 321  495 321  C 491.64 321  489 318.36  489 315  C 489 311.64  491.64 309  495 309  Z " fill-rule="nonzero" fill="#f0f0f0" stroke="none" />
  <path d="M 495 309.5  C 498.08 309.5  500.5 311.92  500.5 315  C 500.5 318.08  498.08 320.5  495 320.5  C 491.92 320.5  489.5 318.08  489.5 315  C 489.5 311.92  491.92 309.5  495 309.5  Z " stroke-width="1" stroke="#797979" fill="none" />
  <path d="M 495 318  C 493.32 318  492 316.68  492 315  C 492 313.32  493.32 312  495 312  C 496.68 312  498 313.32  498 315  C 498 316.68  496.68 318  495 318  " fill-rule="nonzero" fill="#797979" stroke="none" />
</svg>