<?xml version="1.0" encoding="utf-8"?>
<svg version="1.1" xmlns:xlink="http://www.w3.org/1999/xlink" width="12px" height="12px" viewBox="493 2868  12 12" xmlns="http://www.w3.org/2000/svg">
  <path d="M 499 2868  C 502.36 2868  505 2870.64  505 2874  C 505 2877.36  502.36 2880  499 2880  C 495.64 2880  493 2877.36  493 2874  C 493 2870.64  495.64 2868  499 2868  Z " fill-rule="nonzero" fill="#ffffff" stroke="none" />
  <path d="M 499 2868.5  C 502.08 2868.5  504.5 2870.92  504.5 2874  C 504.5 2877.08  502.08 2879.5  499 2879.5  C 495.92 2879.5  493.5 2877.08  493.5 2874  C 493.5 2870.92  495.92 2868.5  499 2868.5  Z " stroke-width="1" stroke="#797979" fill="none" />
  <path d="M 499 2877  C 497.32 2877  496 2875.68  496 2874  C 496 2872.32  497.32 2871  499 2871  C 500.68 2871  502 2872.32  502 2874  C 502 2875.68  500.68 2877  499 2877  " fill-rule="nonzero" fill="#797979" stroke="none" />
</svg>