<?xml version="1.0" encoding="utf-8"?>
<svg version="1.1" xmlns:xlink="http://www.w3.org/1999/xlink" width="12px" height="12px" viewBox="625 2868  12 12" xmlns="http://www.w3.org/2000/svg">
  <path d="M 631 2868  C 634.36 2868  637 2870.64  637 2874  C 637 2877.36  634.36 2880  631 2880  C 627.64 2880  625 2877.36  625 2874  C 625 2870.64  627.64 2868  631 2868  Z " fill-rule="nonzero" fill="#f0f0f0" stroke="none" />
  <path d="M 631 2868.5  C 634.08 2868.5  636.5 2870.92  636.5 2874  C 636.5 2877.08  634.08 2879.5  631 2879.5  C 627.92 2879.5  625.5 2877.08  625.5 2874  C 625.5 2870.92  627.92 2868.5  631 2868.5  Z " stroke-width="1" stroke="#797979" fill="none" />
  <path d="M 631 2877  C 629.32 2877  628 2875.68  628 2874  C 628 2872.32  629.32 2871  631 2871  C 632.68 2871  634 2872.32  634 2874  C 634 2875.68  632.68 2877  631 2877  " fill-rule="nonzero" fill="#797979" stroke="none" />
</svg>