<?xml version="1.0" encoding="utf-8"?>
<svg version="1.1" xmlns:xlink="http://www.w3.org/1999/xlink" width="12px" height="12px" viewBox="599 394  12 12" xmlns="http://www.w3.org/2000/svg">
  <path d="M 605 394  C 608.36 394  611 396.64  611 400  C 611 403.36  608.36 406  605 406  C 601.64 406  599 403.36  599 400  C 599 396.64  601.64 394  605 394  Z " fill-rule="nonzero" fill="#f0f0f0" stroke="none" />
  <path d="M 605 394.5  C 608.08 394.5  610.5 396.92  610.5 400  C 610.5 403.08  608.08 405.5  605 405.5  C 601.92 405.5  599.5 403.08  599.5 400  C 599.5 396.92  601.92 394.5  605 394.5  Z " stroke-width="1" stroke="#797979" fill="none" />
  <path d="M 605 403  C 603.32 403  602 401.68  602 400  C 602 398.32  603.32 397  605 397  C 606.68 397  608 398.32  608 400  C 608 401.68  606.68 403  605 403  " fill-rule="nonzero" fill="#797979" stroke="none" />
</svg>