<?xml version="1.0" encoding="utf-8"?>
<svg version="1.1" xmlns:xlink="http://www.w3.org/1999/xlink" width="12px" height="12px" viewBox="489 2966  12 12" xmlns="http://www.w3.org/2000/svg">
  <path d="M 495 2966  C 498.36 2966  501 2968.64  501 2972  C 501 2975.36  498.36 2978  495 2978  C 491.64 2978  489 2975.36  489 2972  C 489 2968.64  491.64 2966  495 2966  Z " fill-rule="nonzero" fill="#ffffff" stroke="none" />
  <path d="M 495 2966.5  C 498.08 2966.5  500.5 2968.92  500.5 2972  C 500.5 2975.08  498.08 2977.5  495 2977.5  C 491.92 2977.5  489.5 2975.08  489.5 2972  C 489.5 2968.92  491.92 2966.5  495 2966.5  Z " stroke-width="1" stroke="#797979" fill="none" />
  <path d="M 495 2975  C 493.32 2975  492 2973.68  492 2972  C 492 2970.32  493.32 2969  495 2969  C 496.68 2969  498 2970.32  498 2972  C 498 2973.68  496.68 2975  495 2975  " fill-rule="nonzero" fill="#797979" stroke="none" />
</svg>