<?xml version="1.0" encoding="utf-8"?>
<svg version="1.1" xmlns:xlink="http://www.w3.org/1999/xlink" width="12px" height="12px" viewBox="489 394  12 12" xmlns="http://www.w3.org/2000/svg">
  <path d="M 495 394  C 498.36 394  501 396.64  501 400  C 501 403.36  498.36 406  495 406  C 491.64 406  489 403.36  489 400  C 489 396.64  491.64 394  495 394  Z " fill-rule="nonzero" fill="#ffffff" stroke="none" />
  <path d="M 495 394.5  C 498.08 394.5  500.5 396.92  500.5 400  C 500.5 403.08  498.08 405.5  495 405.5  C 491.92 405.5  489.5 403.08  489.5 400  C 489.5 396.92  491.92 394.5  495 394.5  Z " stroke-width="1" stroke="#797979" fill="none" />
  <path d="M 495 403  C 493.32 403  492 401.68  492 400  C 492 398.32  493.32 397  495 397  C 496.68 397  498 398.32  498 400  C 498 401.68  496.68 403  495 403  " fill-rule="nonzero" fill="#797979" stroke="none" />
</svg>