<?xml version="1.0" encoding="utf-8"?>
<svg version="1.1" xmlns:xlink="http://www.w3.org/1999/xlink" width="12px" height="12px" viewBox="1279 658  12 12" xmlns="http://www.w3.org/2000/svg">
  <path d="M 1285 658  C 1288.36 658  1291 660.64  1291 664  C 1291 667.36  1288.36 670  1285 670  C 1281.64 670  1279 667.36  1279 664  C 1279 660.64  1281.64 658  1285 658  Z " fill-rule="nonzero" fill="#f0f0f0" stroke="none" />
  <path d="M 1285 658.5  C 1288.08 658.5  1290.5 660.92  1290.5 664  C 1290.5 667.08  1288.08 669.5  1285 669.5  C 1281.92 669.5  1279.5 667.08  1279.5 664  C 1279.5 660.92  1281.92 658.5  1285 658.5  Z " stroke-width="1" stroke="#797979" fill="none" />
  <path d="M 1285 667  C 1283.32 667  1282 665.68  1282 664  C 1282 662.32  1283.32 661  1285 661  C 1286.68 661  1288 662.32  1288 664  C 1288 665.68  1286.68 667  1285 667  " fill-rule="nonzero" fill="#797979" stroke="none" />
</svg>