<?xml version="1.0" encoding="utf-8"?>
<svg version="1.1" xmlns:xlink="http://www.w3.org/1999/xlink" width="12px" height="12px" viewBox="1389 658  12 12" xmlns="http://www.w3.org/2000/svg">
  <path d="M 1395 658  C 1398.36 658  1401 660.64  1401 664  C 1401 667.36  1398.36 670  1395 670  C 1391.64 670  1389 667.36  1389 664  C 1389 660.64  1391.64 658  1395 658  Z " fill-rule="nonzero" fill="#ffffff" stroke="none" />
  <path d="M 1395 658.5  C 1398.08 658.5  1400.5 660.92  1400.5 664  C 1400.5 667.08  1398.08 669.5  1395 669.5  C 1391.92 669.5  1389.5 667.08  1389.5 664  C 1389.5 660.92  1391.92 658.5  1395 658.5  Z " stroke-width="1" stroke="#797979" fill="none" />
  <path d="M 1395 667  C 1393.32 667  1392 665.68  1392 664  C 1392 662.32  1393.32 661  1395 661  C 1396.68 661  1398 662.32  1398 664  C 1398 665.68  1396.68 667  1395 667  " fill-rule="nonzero" fill="#797979" stroke="none" />
</svg>