<?xml version="1.0" encoding="utf-8"?>
<svg version="1.1" xmlns:xlink="http://www.w3.org/1999/xlink" width="16px" height="16px" xmlns="http://www.w3.org/2000/svg">
  <g transform="matrix(1 0 0 1 -582 -1944 )">
    <path d="M 590 1944  C 594.48 1944  598 1947.52  598 1952  C 598 1956.48  594.48 1960  590 1960  C 585.52 1960  582 1956.48  582 1952  C 582 1947.52  585.52 1944  590 1944  Z " fill-rule="nonzero" fill="#ffffff" stroke="none" />
    <path d="M 590 1944.5  C 594.2 1944.5  597.5 1947.8  597.5 1952  C 597.5 1956.2  594.2 1959.5  590 1959.5  C 585.8 1959.5  582.5 1956.2  582.5 1952  C 582.5 1947.8  585.8 1944.5  590 1944.5  Z " stroke-width="1" stroke="#666666" fill="none" />
  </g>
</svg>