<?xml version="1.0" encoding="utf-8"?>
<svg version="1.1" xmlns:xlink="http://www.w3.org/1999/xlink" width="11px" height="14px" xmlns="http://www.w3.org/2000/svg">
  <g transform="matrix(1 0 0 1 -119 -190 )">
    <path d="M 0.933333339843752 13.8666666601563  C 0.866666679687501 13.9333333203125  0.800000000000003 14  0.666666660156251 14  L 0.6 14  C 0.46666666015625 13.9333333398437  0.333333339843751 13.8  0.333333339843751 13.6666666601562  L 0.333333339843751 1  C 0.333333339843751 0.86666666015625  0.4 0.73333333984375  0.53333333984375 0.73333333984375  C 0.6666666796875 0.666666679687499  0.800000000000001 0.666666679687499  0.86666666015625 0.800000000000001  L 10.2 8.13333333984375  C 10.3333333398438 8.2  10.3333333398438 8.4  10.3333333398438 8.53333333984375  C 10.2666666796875 8.6  10.1333333398438 8.6666666796875  10 8.66666666015625  L 4.2 8.66666666015625  L 0.933333339843752 13.8666666601563  Z M 9.06666666015625 8  L 1 1.66666666015625  L 1 12.4666666601562  L 3.73333333984375 8.13333333984375  C 3.8 8.0666666796875  3.93333333984375 8  4 8  L 9.06666666015625 8  Z " fill-rule="nonzero" fill="#ffffff" stroke="none" transform="matrix(1 0 0 1 119 190 )" />
  </g>
</svg>