<?xml version="1.0" encoding="utf-8"?>
<svg version="1.1" xmlns:xlink="http://www.w3.org/1999/xlink" width="15px" height="14px" xmlns="http://www.w3.org/2000/svg">
  <g transform="matrix(1 0 0 1 -112 -184 )">
    <path d="M 5.33333333984375 13.2666666601562  C 5.2666666796875 13.4  5.13333333984375 13.4666666601562  5 13.4666666601562  L 4.86666666015625 13.4666666601562  C 2.3333333203125 12.3333333203125  0.66666666015625 9.86666666015625  0.66666666015625 7.06666666015625  C 0.66666666015625 3.13333333984375  3.8 0  7.66666666015625 0  C 11.5333333203125 0  14.6666666601562 3.13333333984375  14.6666666601562 7  C 14.6666666601562 7.6  14.6 8.13333333984375  14.4666666601562 8.73333333984375  C 14.4 8.93333333984375  14.2666666601563 9  14.0666666601562 9  C 13.8666666601562 8.93333333984375  13.8 8.8  13.8 8.6  C 13.9333333398438 8.06666666015625  14 7.53333333984375  14 7  C 14 3.53333333984375  11.1333333398437 0.666666660156251  7.66666666015625 0.666666660156251  C 4.19999998046875 0.666666660156251  1.3333333203125 3.5333333203125  1.33333333984375 7  C 1.33333333984375 9.53333333984375  2.8 11.8  5.13333333984375 12.8  C 5.33333333984375 12.8666666601562  5.4 13.0666666601562  5.33333333984375 13.2666666601562  Z " fill-rule="nonzero" fill="#ffffff" stroke="none" transform="matrix(1 0 0 1 112 184 )" />
  </g>
</svg>