<?xml version="1.0" encoding="utf-8"?>
<svg version="1.1" xmlns:xlink="http://www.w3.org/1999/xlink" width="9px" height="9px" xmlns="http://www.w3.org/2000/svg">
  <g transform="matrix(1 0 0 1 -115 -186 )">
    <path d="M 3.4 8.8  C 3.33333333984375 8.93333333984375  3.2 9  3.06666666015625 9  L 2.93333333984375 9  C 1.33333333984375 8.33333333984375  0.33333333984375 6.73333333984375  0.33333333984375 5  C 0.33333333984375 2.6  2.26666666015625 0.66666666015625  4.66666666015625 0.66666666015625  C 7.06666666015625 0.66666666015625  9 2.6  9 5  C 9 5.33333333984375  8.93333333984375 5.73333333984375  8.86666666015625 6.06666666015625  C 8.8 6.26666666015625  8.66666666015625 6.3333333203125  8.46666666015625 6.33333333984375  C 8.26666666015625 6.2666666796875  8.2 6.13333333984375  8.2 5.93333333984375  C 8.26666666015625 5.6  8.33333333984375 5.33333333984375  8.33333333984375 5  C 8.33333333984375 3  6.66666666015625 1.33333333984375  4.66666666015625 1.33333333984375  C 2.66666666015625 1.33333333984375  1 3  1 5  C 1 6.46666666015625  1.86666666015625 7.8  3.2 8.33333333984375  C 3.4 8.4  3.46666666015625 8.6  3.4 8.8  Z " fill-rule="nonzero" fill="#ffffff" stroke="none" transform="matrix(1 0 0 1 115 186 )" />
  </g>
</svg>