<?xml version="1.0" encoding="utf-8"?>
<svg version="1.1" xmlns:xlink="http://www.w3.org/1999/xlink" width="15px" height="19px" xmlns="http://www.w3.org/2000/svg">
  <g transform="matrix(1 0 0 1 -2122 -154 )">
    <path d="M 1.27272728160512 18.8190476102121  C 1.18181819957387 18.9095237918527  1.09090909090909 19  0.909090900213069 19  L 0.818181818181818 19  C 0.636363627485795 18.9095238183594  0.454545463423297 18.7285714285714  0.454545463423297 18.5476190387835  L 0.454545463423297 1.35714285714286  C 0.454545463423297 1.17619046735491  0.545454545454546 0.99523810407366  0.727272736150569 0.99523810407366  C 0.909090926846591 0.904761922433035  1.09090909090909 0.904761922433035  1.18181817294034 1.08571428571429  L 13.9090909090909 11.0380952469308  C 14.0909090997869 11.1285714285714  14.0909090997869 11.4  14.0909090997869 11.5809523897879  C 14.0000000177557 11.6714285714286  13.8181818270597 11.7619047795759  13.6363636363636 11.7619047530692  L 5.72727272727273 11.7619047530692  L 1.27272728160512 18.8190476102121  Z M 12.3636363547585 10.8571428571429  L 1.36363636363636 2.26190475306919  L 1.36363636363636 16.9190476102121  L 5.09090909978693 11.0380952469308  C 5.18181818181818 10.9476190652902  5.36363637251421 10.8571428571429  5.45454545454546 10.8571428571429  L 12.3636363547585 10.8571428571429  Z " fill-rule="nonzero" fill="#ff0000" stroke="none" transform="matrix(1 0 0 1 2122 154 )" />
  </g>
</svg>