<?xml version="1.0" encoding="utf-8"?>
<svg version="1.1" xmlns:xlink="http://www.w3.org/1999/xlink" width="12px" height="12px" xmlns="http://www.w3.org/2000/svg">
  <g transform="matrix(1 0 0 1 -2117 -149 )">
    <path d="M 4.53333333333333 11.7333333333333  C 4.444444453125 11.9111111197917  4.26666666666667 12  4.08888888020833 12  L 3.91111111979167 12  C 1.77777778645833 11.1111111197917  0.444444453125 8.97777778645833  0.444444453125 6.66666666666667  C 0.444444453125 3.46666666666667  3.02222221354167 0.888888880208333  6.22222221354167 0.888888880208333  C 9.42222221354167 0.888888880208333  12 3.46666666666667  12 6.66666666666667  C 12 7.11111111979167  11.9111111197917 7.644444453125  11.8222222135417 8.08888888020833  C 11.7333333333333 8.355555546875  11.555555546875 8.44444442708333  11.2888888802083 8.444444453125  C 11.0222222135417 8.35555557291666  10.9333333333333 8.17777778645833  10.9333333333333 7.91111111979167  C 11.0222222135417 7.46666666666667  11.1111111197917 7.11111111979166  11.1111111197917 6.66666666666666  C 11.1111111197917 4  8.88888888020833 1.77777778645833  6.22222221354167 1.77777778645833  C 3.555555546875 1.77777778645833  1.33333333333333 4  1.33333333333333 6.66666666666667  C 1.33333333333333 8.62222221354167  2.48888888020833 10.4  4.26666666666667 11.1111111197917  C 4.53333333333333 11.2  4.62222221354167 11.4666666666667  4.53333333333333 11.7333333333333  Z " fill-rule="nonzero" fill="#ff0000" stroke="none" transform="matrix(1 0 0 1 2117 149 )" />
  </g>
</svg>