<?xml version="1.0" encoding="utf-8"?>
<svg version="1.1" xmlns:xlink="http://www.w3.org/1999/xlink" width="12px" height="12px" viewBox="558 487  12 12" xmlns="http://www.w3.org/2000/svg">
  <path d="M 564 487  C 567.36 487  570 489.64  570 493  C 570 496.36  567.36 499  564 499  C 560.64 499  558 496.36  558 493  C 558 489.64  560.64 487  564 487  Z " fill-rule="nonzero" fill="#ffffff" stroke="none" />
  <path d="M 564 487.5  C 567.08 487.5  569.5 489.92  569.5 493  C 569.5 496.08  567.08 498.5  564 498.5  C 560.92 498.5  558.5 496.08  558.5 493  C 558.5 489.92  560.92 487.5  564 487.5  Z " stroke-width="1" stroke="#797979" fill="none" />
  <path d="M 564 496  C 562.32 496  561 494.68  561 493  C 561 491.32  562.32 490  564 490  C 565.68 490  567 491.32  567 493  C 567 494.68  565.68 496  564 496  " fill-rule="nonzero" fill="#797979" stroke="none" />
</svg>