<?xml version="1.0" encoding="utf-8"?>
<svg version="1.1" xmlns:xlink="http://www.w3.org/1999/xlink" width="12px" height="12px" viewBox="432 487  12 12" xmlns="http://www.w3.org/2000/svg">
  <path d="M 438 487  C 441.36 487  444 489.64  444 493  C 444 496.36  441.36 499  438 499  C 434.64 499  432 496.36  432 493  C 432 489.64  434.64 487  438 487  Z " fill-rule="nonzero" fill="#f0f0f0" stroke="none" />
  <path d="M 438 487.5  C 441.08 487.5  443.5 489.92  443.5 493  C 443.5 496.08  441.08 498.5  438 498.5  C 434.92 498.5  432.5 496.08  432.5 493  C 432.5 489.92  434.92 487.5  438 487.5  Z " stroke-width="1" stroke="#797979" fill="none" />
  <path d="M 438 496  C 436.32 496  435 494.68  435 493  C 435 491.32  436.32 490  438 490  C 439.68 490  441 491.32  441 493  C 441 494.68  439.68 496  438 496  " fill-rule="nonzero" fill="#797979" stroke="none" />
</svg>