<?xml version="1.0" encoding="utf-8"?>
<svg version="1.1" xmlns:xlink="http://www.w3.org/1999/xlink" width="12px" height="12px" viewBox="432 599  12 12" xmlns="http://www.w3.org/2000/svg">
  <path d="M 438 599  C 441.36 599  444 601.64  444 605  C 444 608.36  441.36 611  438 611  C 434.64 611  432 608.36  432 605  C 432 601.64  434.64 599  438 599  Z " fill-rule="nonzero" fill="#f0f0f0" stroke="none" />
  <path d="M 438 599.5  C 441.08 599.5  443.5 601.92  443.5 605  C 443.5 608.08  441.08 610.5  438 610.5  C 434.92 610.5  432.5 608.08  432.5 605  C 432.5 601.92  434.92 599.5  438 599.5  Z " stroke-width="1" stroke="#797979" fill="none" />
  <path d="M 438 608  C 436.32 608  435 606.68  435 605  C 435 603.32  436.32 602  438 602  C 439.68 602  441 603.32  441 605  C 441 606.68  439.68 608  438 608  " fill-rule="nonzero" fill="#797979" stroke="none" />
</svg>