<?xml version="1.0" encoding="utf-8"?>
<svg version="1.1" xmlns:xlink="http://www.w3.org/1999/xlink" width="12px" height="12px" viewBox="432 550  12 12" xmlns="http://www.w3.org/2000/svg">
  <path d="M 438 550  C 441.36 550  444 552.64  444 556  C 444 559.36  441.36 562  438 562  C 434.64 562  432 559.36  432 556  C 432 552.64  434.64 550  438 550  Z " fill-rule="nonzero" fill="#ffffff" stroke="none" />
  <path d="M 438 550.5  C 441.08 550.5  443.5 552.92  443.5 556  C 443.5 559.08  441.08 561.5  438 561.5  C 434.92 561.5  432.5 559.08  432.5 556  C 432.5 552.92  434.92 550.5  438 550.5  Z " stroke-width="1" stroke="#797979" fill="none" />
  <path d="M 438 559  C 436.32 559  435 557.68  435 556  C 435 554.32  436.32 553  438 553  C 439.68 553  441 554.32  441 556  C 441 557.68  439.68 559  438 559  " fill-rule="nonzero" fill="#797979" stroke="none" />
</svg>