<?xml version="1.0" encoding="utf-8"?>
<svg version="1.1" xmlns:xlink="http://www.w3.org/1999/xlink" width="12px" height="12px" viewBox="2073 3611  12 12" xmlns="http://www.w3.org/2000/svg">
  <path d="M 2079 3611  C 2082.36 3611  2085 3613.64  2085 3617  C 2085 3620.36  2082.36 3623  2079 3623  C 2075.64 3623  2073 3620.36  2073 3617  C 2073 3613.64  2075.64 3611  2079 3611  Z " fill-rule="nonzero" fill="#f0f0f0" stroke="none" />
  <path d="M 2079 3611.5  C 2082.08 3611.5  2084.5 3613.92  2084.5 3617  C 2084.5 3620.08  2082.08 3622.5  2079 3622.5  C 2075.92 3622.5  2073.5 3620.08  2073.5 3617  C 2073.5 3613.92  2075.92 3611.5  2079 3611.5  Z " stroke-width="1" stroke="#797979" fill="none" />
  <path d="M 2079 3620  C 2077.32 3620  2076 3618.68  2076 3617  C 2076 3615.32  2077.32 3614  2079 3614  C 2080.68 3614  2082 3615.32  2082 3617  C 2082 3618.68  2080.68 3620  2079 3620  " fill-rule="nonzero" fill="#797979" stroke="none" />
</svg>