<?xml version="1.0" encoding="utf-8"?>
<svg version="1.1" xmlns:xlink="http://www.w3.org/1999/xlink" width="12px" height="12px" viewBox="2255 1938  12 12" xmlns="http://www.w3.org/2000/svg">
  <path d="M 2261 1938  C 2264.36 1938  2267 1940.64  2267 1944  C 2267 1947.36  2264.36 1950  2261 1950  C 2257.64 1950  2255 1947.36  2255 1944  C 2255 1940.64  2257.64 1938  2261 1938  Z " fill-rule="nonzero" fill="#ffffff" stroke="none" />
  <path d="M 2261 1938.5  C 2264.08 1938.5  2266.5 1940.92  2266.5 1944  C 2266.5 1947.08  2264.08 1949.5  2261 1949.5  C 2257.92 1949.5  2255.5 1947.08  2255.5 1944  C 2255.5 1940.92  2257.92 1938.5  2261 1938.5  Z " stroke-width="1" stroke="#797979" fill="none" />
  <path d="M 2261 1947  C 2259.32 1947  2258 1945.68  2258 1944  C 2258 1942.32  2259.32 1941  2261 1941  C 2262.68 1941  2264 1942.32  2264 1944  C 2264 1945.68  2262.68 1947  2261 1947  " fill-rule="nonzero" fill="#797979" stroke="none" />
</svg>