<?xml version="1.0" encoding="utf-8"?>
<svg version="1.1" xmlns:xlink="http://www.w3.org/1999/xlink" width="12px" height="12px" viewBox="2073 3506  12 12" xmlns="http://www.w3.org/2000/svg">
  <path d="M 2079 3506  C 2082.36 3506  2085 3508.64  2085 3512  C 2085 3515.36  2082.36 3518  2079 3518  C 2075.64 3518  2073 3515.36  2073 3512  C 2073 3508.64  2075.64 3506  2079 3506  Z " fill-rule="nonzero" fill="#ffffff" stroke="none" />
  <path d="M 2079 3506.5  C 2082.08 3506.5  2084.5 3508.92  2084.5 3512  C 2084.5 3515.08  2082.08 3517.5  2079 3517.5  C 2075.92 3517.5  2073.5 3515.08  2073.5 3512  C 2073.5 3508.92  2075.92 3506.5  2079 3506.5  Z " stroke-width="1" stroke="#797979" fill="none" />
  <path d="M 2079 3515  C 2077.32 3515  2076 3513.68  2076 3512  C 2076 3510.32  2077.32 3509  2079 3509  C 2080.68 3509  2082 3510.32  2082 3512  C 2082 3513.68  2080.68 3515  2079 3515  " fill-rule="nonzero" fill="#797979" stroke="none" />
</svg>