<?xml version="1.0" encoding="utf-8"?>
<svg version="1.1" xmlns:xlink="http://www.w3.org/1999/xlink" width="12px" height="12px" viewBox="802 486  12 12" xmlns="http://www.w3.org/2000/svg">
  <path d="M 808 486  C 811.36 486  814 488.64  814 492  C 814 495.36  811.36 498  808 498  C 804.64 498  802 495.36  802 492  C 802 488.64  804.64 486  808 486  Z " fill-rule="nonzero" fill="#ffffff" stroke="none" />
  <path d="M 808 486.5  C 811.08 486.5  813.5 488.92  813.5 492  C 813.5 495.08  811.08 497.5  808 497.5  C 804.92 497.5  802.5 495.08  802.5 492  C 802.5 488.92  804.92 486.5  808 486.5  Z " stroke-width="1" stroke="#797979" fill="none" />
  <path d="M 808 495  C 806.32 495  805 493.68  805 492  C 805 490.32  806.32 489  808 489  C 809.68 489  811 490.32  811 492  C 811 493.68  809.68 495  808 495  " fill-rule="nonzero" fill="#797979" stroke="none" />
</svg>