<?xml version="1.0" encoding="utf-8"?>
<svg version="1.1" xmlns:xlink="http://www.w3.org/1999/xlink" width="12px" height="12px" viewBox="2073 3451  12 12" xmlns="http://www.w3.org/2000/svg">
  <path d="M 2079 3451  C 2082.36 3451  2085 3453.64  2085 3457  C 2085 3460.36  2082.36 3463  2079 3463  C 2075.64 3463  2073 3460.36  2073 3457  C 2073 3453.64  2075.64 3451  2079 3451  Z " fill-rule="nonzero" fill="#ffffff" stroke="none" />
  <path d="M 2079 3451.5  C 2082.08 3451.5  2084.5 3453.92  2084.5 3457  C 2084.5 3460.08  2082.08 3462.5  2079 3462.5  C 2075.92 3462.5  2073.5 3460.08  2073.5 3457  C 2073.5 3453.92  2075.92 3451.5  2079 3451.5  Z " stroke-width="1" stroke="#797979" fill="none" />
  <path d="M 2079 3460  C 2077.32 3460  2076 3458.68  2076 3457  C 2076 3455.32  2077.32 3454  2079 3454  C 2080.68 3454  2082 3455.32  2082 3457  C 2082 3458.68  2080.68 3460  2079 3460  " fill-rule="nonzero" fill="#797979" stroke="none" />
</svg>