<?xml version="1.0" encoding="utf-8"?>
<svg version="1.1" xmlns:xlink="http://www.w3.org/1999/xlink" width="12px" height="12px" viewBox="2129 1938  12 12" xmlns="http://www.w3.org/2000/svg">
  <path d="M 2135 1938  C 2138.36 1938  2141 1940.64  2141 1944  C 2141 1947.36  2138.36 1950  2135 1950  C 2131.64 1950  2129 1947.36  2129 1944  C 2129 1940.64  2131.64 1938  2135 1938  Z " fill-rule="nonzero" fill="#f0f0f0" stroke="none" />
  <path d="M 2135 1938.5  C 2138.08 1938.5  2140.5 1940.92  2140.5 1944  C 2140.5 1947.08  2138.08 1949.5  2135 1949.5  C 2131.92 1949.5  2129.5 1947.08  2129.5 1944  C 2129.5 1940.92  2131.92 1938.5  2135 1938.5  Z " stroke-width="1" stroke="#797979" fill="none" />
  <path d="M 2135 1947  C 2133.32 1947  2132 1945.68  2132 1944  C 2132 1942.32  2133.32 1941  2135 1941  C 2136.68 1941  2138 1942.32  2138 1944  C 2138 1945.68  2136.68 1947  2135 1947  " fill-rule="nonzero" fill="#797979" stroke="none" />
</svg>