<?xml version="1.0" encoding="utf-8"?>
<svg version="1.1" xmlns:xlink="http://www.w3.org/1999/xlink" width="12px" height="12px" viewBox="581 5569  12 12" xmlns="http://www.w3.org/2000/svg">
  <path d="M 587 5569  C 590.36 5569  593 5571.64  593 5575  C 593 5578.36  590.36 5581  587 5581  C 583.64 5581  581 5578.36  581 5575  C 581 5571.64  583.64 5569  587 5569  Z " fill-rule="nonzero" fill="#ffffff" stroke="none" />
  <path d="M 587 5569.5  C 590.08 5569.5  592.5 5571.92  592.5 5575  C 592.5 5578.08  590.08 5580.5  587 5580.5  C 583.92 5580.5  581.5 5578.08  581.5 5575  C 581.5 5571.92  583.92 5569.5  587 5569.5  Z " stroke-width="1" stroke="#797979" fill="none" />
  <path d="M 587 5578  C 585.32 5578  584 5576.68  584 5575  C 584 5573.32  585.32 5572  587 5572  C 588.68 5572  590 5573.32  590 5575  C 590 5576.68  588.68 5578  587 5578  " fill-rule="nonzero" fill="#797979" stroke="none" />
</svg>