<?xml version="1.0" encoding="utf-8"?>
<svg version="1.1" xmlns:xlink="http://www.w3.org/1999/xlink" width="12px" height="12px" viewBox="661 5569  12 12" xmlns="http://www.w3.org/2000/svg">
  <path d="M 667 5569  C 670.36 5569  673 5571.64  673 5575  C 673 5578.36  670.36 5581  667 5581  C 663.64 5581  661 5578.36  661 5575  C 661 5571.64  663.64 5569  667 5569  Z " fill-rule="nonzero" fill="#f0f0f0" stroke="none" />
  <path d="M 667 5569.5  C 670.08 5569.5  672.5 5571.92  672.5 5575  C 672.5 5578.08  670.08 5580.5  667 5580.5  C 663.92 5580.5  661.5 5578.08  661.5 5575  C 661.5 5571.92  663.92 5569.5  667 5569.5  Z " stroke-width="1" stroke="#797979" fill="none" />
  <path d="M 667 5578  C 665.32 5578  664 5576.68  664 5575  C 664 5573.32  665.32 5572  667 5572  C 668.68 5572  670 5573.32  670 5575  C 670 5576.68  668.68 5578  667 5578  " fill-rule="nonzero" fill="#797979" stroke="none" />
</svg>