<?xml version="1.0" encoding="utf-8"?>
<svg version="1.1" xmlns:xlink="http://www.w3.org/1999/xlink" width="142px" height="46px" xmlns="http://www.w3.org/2000/svg">
  <defs>
    <filter x="657px" y="4800px" width="142px" height="46px" filterUnits="userSpaceOnUse" id="filter443">
      <feOffset dx="0" dy="0" in="SourceAlpha" result="shadowOffsetInner" />
      <feGaussianBlur stdDeviation="1.5" in="shadowOffsetInner" result="shadowGaussian" />
      <feComposite in2="shadowGaussian" operator="atop" in="SourceAlpha" result="shadowComposite" />
      <feColorMatrix type="matrix" values="0 0 0 0 0  0 0 0 0 0.474509803921569  0 0 0 0 0.996078431372549  0 0 0 0.8 0  " in="shadowComposite" />
    </filter>
    <g id="widget444">
      <path d="M 660.5 4806  A 2.5 2.5 0 0 1 663 4803.5 L 793 4803.5  A 2.5 2.5 0 0 1 795.5 4806 L 795.5 4840  A 2.5 2.5 0 0 1 793 4842.5 L 663 4842.5  A 2.5 2.5 0 0 1 660.5 4840 L 660.5 4806  Z " fill-rule="nonzero" fill="#ffffff" stroke="none" />
      <path d="M 660.5 4806  A 2.5 2.5 0 0 1 663 4803.5 L 793 4803.5  A 2.5 2.5 0 0 1 795.5 4806 L 795.5 4840  A 2.5 2.5 0 0 1 793 4842.5 L 663 4842.5  A 2.5 2.5 0 0 1 660.5 4840 L 660.5 4806  Z " stroke-width="1" stroke="#0079fe" fill="none" />
    </g>
  </defs>
  <g transform="matrix(1 0 0 1 -657 -4800 )">
    <use xlink:href="#widget444" filter="url(#filter443)" />
    <use xlink:href="#widget444" />
  </g>
</svg>