<?xml version="1.0" encoding="utf-8"?>
<svg version="1.1" xmlns:xlink="http://www.w3.org/1999/xlink" width="136px" height="40px" xmlns="http://www.w3.org/2000/svg">
  <g transform="matrix(1 0 0 1 -660 -4803 )">
    <path d="M 661 4806  A 2 2 0 0 1 663 4804 L 793 4804  A 2 2 0 0 1 795 4806 L 795 4840  A 2 2 0 0 1 793 4842 L 663 4842  A 2 2 0 0 1 661 4840 L 661 4806  Z " fill-rule="nonzero" fill="#ffffff" stroke="none" />
    <path d="M 660.5 4806  A 2.5 2.5 0 0 1 663 4803.5 L 793 4803.5  A 2.5 2.5 0 0 1 795.5 4806 L 795.5 4840  A 2.5 2.5 0 0 1 793 4842.5 L 663 4842.5  A 2.5 2.5 0 0 1 660.5 4840 L 660.5 4806  Z " stroke-width="1" stroke="#cccccc" fill="none" stroke-opacity="0.698039215686274" />
  </g>
</svg>