<?xml version="1.0" encoding="utf-8"?>
<svg version="1.1" xmlns:xlink="http://www.w3.org/1999/xlink" width="12px" height="12px" viewBox="2080 1765  12 12" xmlns="http://www.w3.org/2000/svg">
  <path d="M 2086 1765  C 2089.36 1765  2092 1767.64  2092 1771  C 2092 1774.36  2089.36 1777  2086 1777  C 2082.64 1777  2080 1774.36  2080 1771  C 2080 1767.64  2082.64 1765  2086 1765  Z " fill-rule="nonzero" fill="#ffffff" stroke="none" />
  <path d="M 2086 1765.5  C 2089.08 1765.5  2091.5 1767.92  2091.5 1771  C 2091.5 1774.08  2089.08 1776.5  2086 1776.5  C 2082.92 1776.5  2080.5 1774.08  2080.5 1771  C 2080.5 1767.92  2082.92 1765.5  2086 1765.5  Z " stroke-width="1" stroke="#797979" fill="none" />
  <path d="M 2086 1774  C 2084.32 1774  2083 1772.68  2083 1771  C 2083 1769.32  2084.32 1768  2086 1768  C 2087.68 1768  2089 1769.32  2089 1771  C 2089 1772.68  2087.68 1774  2086 1774  " fill-rule="nonzero" fill="#797979" stroke="none" />
</svg>