<?xml version="1.0" encoding="utf-8"?>
<svg version="1.1" xmlns:xlink="http://www.w3.org/1999/xlink" width="12px" height="12px" viewBox="2180 1141  12 12" xmlns="http://www.w3.org/2000/svg">
  <path d="M 2186 1141  C 2189.36 1141  2192 1143.64  2192 1147  C 2192 1150.36  2189.36 1153  2186 1153  C 2182.64 1153  2180 1150.36  2180 1147  C 2180 1143.64  2182.64 1141  2186 1141  Z " fill-rule="nonzero" fill="#f0f0f0" stroke="none" />
  <path d="M 2186 1141.5  C 2189.08 1141.5  2191.5 1143.92  2191.5 1147  C 2191.5 1150.08  2189.08 1152.5  2186 1152.5  C 2182.92 1152.5  2180.5 1150.08  2180.5 1147  C 2180.5 1143.92  2182.92 1141.5  2186 1141.5  Z " stroke-width="1" stroke="#797979" fill="none" />
  <path d="M 2186 1150  C 2184.32 1150  2183 1148.68  2183 1147  C 2183 1145.32  2184.32 1144  2186 1144  C 2187.68 1144  2189 1145.32  2189 1147  C 2189 1148.68  2187.68 1150  2186 1150  " fill-rule="nonzero" fill="#797979" stroke="none" />
</svg>