<?xml version="1.0" encoding="utf-8"?>
<svg version="1.1" xmlns:xlink="http://www.w3.org/1999/xlink" width="12px" height="12px" viewBox="378 3491  12 12" xmlns="http://www.w3.org/2000/svg">
  <path d="M 384 3491  C 387.36 3491  390 3493.64  390 3497  C 390 3500.36  387.36 3503  384 3503  C 380.64 3503  378 3500.36  378 3497  C 378 3493.64  380.64 3491  384 3491  Z " fill-rule="nonzero" fill="#ffffff" stroke="none" />
  <path d="M 384 3491.5  C 387.08 3491.5  389.5 3493.92  389.5 3497  C 389.5 3500.08  387.08 3502.5  384 3502.5  C 380.92 3502.5  378.5 3500.08  378.5 3497  C 378.5 3493.92  380.92 3491.5  384 3491.5  Z " stroke-width="1" stroke="#797979" fill="none" />
  <path d="M 384 3500  C 382.32 3500  381 3498.68  381 3497  C 381 3495.32  382.32 3494  384 3494  C 385.68 3494  387 3495.32  387 3497  C 387 3498.68  385.68 3500  384 3500  " fill-rule="nonzero" fill="#797979" stroke="none" />
</svg>