<?xml version="1.0" encoding="utf-8"?>
<svg version="1.1" xmlns:xlink="http://www.w3.org/1999/xlink" width="12px" height="12px" viewBox="461 3491  12 12" xmlns="http://www.w3.org/2000/svg">
  <path d="M 467 3491  C 470.36 3491  473 3493.64  473 3497  C 473 3500.36  470.36 3503  467 3503  C 463.64 3503  461 3500.36  461 3497  C 461 3493.64  463.64 3491  467 3491  Z " fill-rule="nonzero" fill="#f0f0f0" stroke="none" />
  <path d="M 467 3491.5  C 470.08 3491.5  472.5 3493.92  472.5 3497  C 472.5 3500.08  470.08 3502.5  467 3502.5  C 463.92 3502.5  461.5 3500.08  461.5 3497  C 461.5 3493.92  463.92 3491.5  467 3491.5  Z " stroke-width="1" stroke="#797979" fill="none" />
  <path d="M 467 3500  C 465.32 3500  464 3498.68  464 3497  C 464 3495.32  465.32 3494  467 3494  C 468.68 3494  470 3495.32  470 3497  C 470 3498.68  468.68 3500  467 3500  " fill-rule="nonzero" fill="#797979" stroke="none" />
</svg>