<?xml version="1.0" encoding="utf-8"?>
<svg version="1.1" xmlns:xlink="http://www.w3.org/1999/xlink" width="26px" height="20px" xmlns="http://www.w3.org/2000/svg">
  <g transform="matrix(1 0 0 1 -345 -260 )">
    <path d="M 362.91363785395 260.5  C 362.91363785395 260.5  364.6720433633 261.176309811288  364.6720433633 261.176309811288  C 364.6720433633 261.176309811288  370.407441985963 270  370.407441985963 270  C 370.407441985963 270  364.6720433633 278.823690188712  364.6720433633 278.823690188712  C 364.6720433633 278.823690188712  362.91363785395 279.5  362.91363785395 279.5  C 362.91363785395 279.5  345.5 279.5  345.5 279.5  C 345.5 279.5  345.5 260.5  345.5 260.5  C 345.5 260.5  362.91363785395 260.5  362.91363785395 260.5  Z " fill-rule="nonzero" fill="#009900" stroke="none" />
    <path d="M 362.91363785395 260.5  C 362.91363785395 260.5  364.6720433633 261.176309811288  364.6720433633 261.176309811288  C 364.6720433633 261.176309811288  370.407441985963 270  370.407441985963 270  C 370.407441985963 270  364.6720433633 278.823690188712  364.6720433633 278.823690188712  C 364.6720433633 278.823690188712  362.91363785395 279.5  362.91363785395 279.5  C 362.91363785395 279.5  345.5 279.5  345.5 279.5  C 345.5 279.5  345.5 260.5  345.5 260.5  C 345.5 260.5  362.91363785395 260.5  362.91363785395 260.5  Z " stroke-width="1" stroke="#797979" fill="none" />
  </g>
</svg>