<?xml version="1.0" encoding="utf-8"?>
<svg version="1.1" xmlns:xlink="http://www.w3.org/1999/xlink" width="32px" height="32px" xmlns="http://www.w3.org/2000/svg">
  <g transform="matrix(1 0 0 1 -351 -223 )">
    <path d="M 367 223  C 375.96 223  383 230.04  383 239  C 383 247.96  375.96 255  367 255  C 358.04 255  351 247.96  351 239  C 351 230.04  358.04 223  367 223  Z " fill-rule="nonzero" fill="#ffffff" stroke="none" />
    <path d="M 367 223.5  C 375.68 223.5  382.5 230.32  382.5 239  C 382.5 247.68  375.68 254.5  367 254.5  C 358.32 254.5  351.5 247.68  351.5 239  C 351.5 230.32  358.32 223.5  367 223.5  Z " stroke-width="1" stroke="#1890ff" fill="none" />
  </g>
</svg>