<?xml version="1.0" encoding="utf-8"?>
<svg version="1.1" xmlns:xlink="http://www.w3.org/1999/xlink" width="12px" height="12px" viewBox="498 595  12 12" xmlns="http://www.w3.org/2000/svg">
  <path d="M 504 595  C 507.36 595  510 597.64  510 601  C 510 604.36  507.36 607  504 607  C 500.64 607  498 604.36  498 601  C 498 597.64  500.64 595  504 595  Z " fill-rule="nonzero" fill="#ffffff" stroke="none" />
  <path d="M 504 595.5  C 507.08 595.5  509.5 597.92  509.5 601  C 509.5 604.08  507.08 606.5  504 606.5  C 500.92 606.5  498.5 604.08  498.5 601  C 498.5 597.92  500.92 595.5  504 595.5  Z " stroke-width="1" stroke="#797979" fill="none" />
  <path d="M 504 604  C 502.32 604  501 602.68  501 601  C 501 599.32  502.32 598  504 598  C 505.68 598  507 599.32  507 601  C 507 602.68  505.68 604  504 604  " fill-rule="nonzero" fill="#797979" stroke="none" />
</svg>