<?xml version="1.0" encoding="utf-8"?>
<svg version="1.1" xmlns:xlink="http://www.w3.org/1999/xlink" width="12px" height="12px" viewBox="498 558  12 12" xmlns="http://www.w3.org/2000/svg">
  <path d="M 504 558  C 507.36 558  510 560.64  510 564  C 510 567.36  507.36 570  504 570  C 500.64 570  498 567.36  498 564  C 498 560.64  500.64 558  504 558  Z " fill-rule="nonzero" fill="#f0f0f0" stroke="none" />
  <path d="M 504 558.5  C 507.08 558.5  509.5 560.92  509.5 564  C 509.5 567.08  507.08 569.5  504 569.5  C 500.92 569.5  498.5 567.08  498.5 564  C 498.5 560.92  500.92 558.5  504 558.5  Z " stroke-width="1" stroke="#797979" fill="none" />
  <path d="M 504 567  C 502.32 567  501 565.68  501 564  C 501 562.32  502.32 561  504 561  C 505.68 561  507 562.32  507 564  C 507 565.68  505.68 567  504 567  " fill-rule="nonzero" fill="#797979" stroke="none" />
</svg>