<?xml version="1.0" encoding="utf-8"?>
<svg version="1.1" xmlns:xlink="http://www.w3.org/1999/xlink" width="12px" height="12px" viewBox="510 2409  12 12" xmlns="http://www.w3.org/2000/svg">
  <path d="M 516 2409  C 519.36 2409  522 2411.64  522 2415  C 522 2418.36  519.36 2421  516 2421  C 512.64 2421  510 2418.36  510 2415  C 510 2411.64  512.64 2409  516 2409  Z " fill-rule="nonzero" fill="#f0f0f0" stroke="none" />
  <path d="M 516 2409.5  C 519.08 2409.5  521.5 2411.92  521.5 2415  C 521.5 2418.08  519.08 2420.5  516 2420.5  C 512.92 2420.5  510.5 2418.08  510.5 2415  C 510.5 2411.92  512.92 2409.5  516 2409.5  Z " stroke-width="1" stroke="#797979" fill="none" />
  <path d="M 516 2418  C 514.32 2418  513 2416.68  513 2415  C 513 2413.32  514.32 2412  516 2412  C 517.68 2412  519 2413.32  519 2415  C 519 2416.68  517.68 2418  516 2418  " fill-rule="nonzero" fill="#797979" stroke="none" />
</svg>