<?xml version="1.0" encoding="utf-8"?>
<svg version="1.1" xmlns:xlink="http://www.w3.org/1999/xlink" width="12px" height="12px" viewBox="498 2033  12 12" xmlns="http://www.w3.org/2000/svg">
  <path d="M 504 2033  C 507.36 2033  510 2035.64  510 2039  C 510 2042.36  507.36 2045  504 2045  C 500.64 2045  498 2042.36  498 2039  C 498 2035.64  500.64 2033  504 2033  Z " fill-rule="nonzero" fill="#f0f0f0" stroke="none" />
  <path d="M 504 2033.5  C 507.08 2033.5  509.5 2035.92  509.5 2039  C 509.5 2042.08  507.08 2044.5  504 2044.5  C 500.92 2044.5  498.5 2042.08  498.5 2039  C 498.5 2035.92  500.92 2033.5  504 2033.5  Z " stroke-width="1" stroke="#797979" fill="none" />
  <path d="M 504 2042  C 502.32 2042  501 2040.68  501 2039  C 501 2037.32  502.32 2036  504 2036  C 505.68 2036  507 2037.32  507 2039  C 507 2040.68  505.68 2042  504 2042  " fill-rule="nonzero" fill="#797979" stroke="none" />
</svg>