<?xml version="1.0" encoding="utf-8"?>
<svg version="1.1" xmlns:xlink="http://www.w3.org/1999/xlink" width="12px" height="12px" viewBox="498 970  12 12" xmlns="http://www.w3.org/2000/svg">
  <path d="M 504 970  C 507.36 970  510 972.64  510 976  C 510 979.36  507.36 982  504 982  C 500.64 982  498 979.36  498 976  C 498 972.64  500.64 970  504 970  Z " fill-rule="nonzero" fill="#f0f0f0" stroke="none" />
  <path d="M 504 970.5  C 507.08 970.5  509.5 972.92  509.5 976  C 509.5 979.08  507.08 981.5  504 981.5  C 500.92 981.5  498.5 979.08  498.5 976  C 498.5 972.92  500.92 970.5  504 970.5  Z " stroke-width="1" stroke="#797979" fill="none" />
  <path d="M 504 979  C 502.32 979  501 977.68  501 976  C 501 974.32  502.32 973  504 973  C 505.68 973  507 974.32  507 976  C 507 977.68  505.68 979  504 979  " fill-rule="nonzero" fill="#797979" stroke="none" />
</svg>