<?xml version="1.0" encoding="utf-8"?>
<svg version="1.1" xmlns:xlink="http://www.w3.org/1999/xlink" width="12px" height="12px" viewBox="498 1996  12 12" xmlns="http://www.w3.org/2000/svg">
  <path d="M 504 1996  C 507.36 1996  510 1998.64  510 2002  C 510 2005.36  507.36 2008  504 2008  C 500.64 2008  498 2005.36  498 2002  C 498 1998.64  500.64 1996  504 1996  Z " fill-rule="nonzero" fill="#f0f0f0" stroke="none" />
  <path d="M 504 1996.5  C 507.08 1996.5  509.5 1998.92  509.5 2002  C 509.5 2005.08  507.08 2007.5  504 2007.5  C 500.92 2007.5  498.5 2005.08  498.5 2002  C 498.5 1998.92  500.92 1996.5  504 1996.5  Z " stroke-width="1" stroke="#797979" fill="none" />
  <path d="M 504 2005  C 502.32 2005  501 2003.68  501 2002  C 501 2000.32  502.32 1999  504 1999  C 505.68 1999  507 2000.32  507 2002  C 507 2003.68  505.68 2005  504 2005  " fill-rule="nonzero" fill="#797979" stroke="none" />
</svg>