<?xml version="1.0" encoding="utf-8"?>
<svg version="1.1" xmlns:xlink="http://www.w3.org/1999/xlink" width="12px" height="12px" viewBox="498 933  12 12" xmlns="http://www.w3.org/2000/svg">
  <path d="M 504 933  C 507.36 933  510 935.64  510 939  C 510 942.36  507.36 945  504 945  C 500.64 945  498 942.36  498 939  C 498 935.64  500.64 933  504 933  Z " fill-rule="nonzero" fill="#f0f0f0" stroke="none" />
  <path d="M 504 933.5  C 507.08 933.5  509.5 935.92  509.5 939  C 509.5 942.08  507.08 944.5  504 944.5  C 500.92 944.5  498.5 942.08  498.5 939  C 498.5 935.92  500.92 933.5  504 933.5  Z " stroke-width="1" stroke="#797979" fill="none" />
  <path d="M 504 942  C 502.32 942  501 940.68  501 939  C 501 937.32  502.32 936  504 936  C 505.68 936  507 937.32  507 939  C 507 940.68  505.68 942  504 942  " fill-rule="nonzero" fill="#797979" stroke="none" />
</svg>