<?xml version="1.0" encoding="utf-8"?>
<svg version="1.1" xmlns:xlink="http://www.w3.org/1999/xlink" width="9px" height="12px" xmlns="http://www.w3.org/2000/svg">
  <g transform="matrix(1 0 0 1 -1184 -381 )">
    <path d="M 0.293478260869565 2.06896551724138  L 0.293478260869565 1.60344827586207  L 8.65760869565217 1.60344827586207  L 8.65760869565217 2.06896551724138  L 0.293478260869565 2.06896551724138  Z M 6.45652173913043 1.13793103448276  L 6.45652173913043 1.83620689655172  L 6.01630434782609 1.83620689655172  L 6.01630434782609 1.13793103448276  C 6.01630434782609 0.88096551724138  5.81908695652174 0.672413793103448  5.57608695652174 0.672413793103448  L 3.375 0.672413793103448  C 3.132 0.672413793103448  2.93478260869565 0.88096551724138  2.93478260869565 1.13793103448276  L 2.93478260869565 1.83620689655172  L 2.4945652173913 1.83620689655172  L 2.4945652173913 1.13793103448276  C 2.4945652173913 0.62376724137931  2.88877989130435 0.206896551724138  3.375 0.206896551724138  L 5.57608695652174 0.206896551724138  C 6.06230706521739 0.206896551724138  6.45652173913043 0.62376724137931  6.45652173913043 1.13793103448276  Z M 2.71467391304348 3  L 3.15489130434783 3  L 3.375 10.448275862069  L 2.93478260869565 10.448275862069  L 2.71467391304348 3  Z M 5.57608695652174 10.448275862069  L 5.79619565217391 3  L 6.23641304347826 3  L 6.01630434782609 10.448275862069  L 5.57608695652174 10.448275862069  Z M 4.2554347826087 10.448275862069  L 4.2554347826087 3  L 4.69565217391304 3  L 4.69565217391304 10.448275862069  L 4.2554347826087 10.448275862069  Z M 7.5570652173913 10.920775862069  C 7.53549456521739 11.424  7.15272554347826 11.825974137931  6.67663043478261 11.8448275862069  L 2.27445652173913 11.8448275862069  C 1.80122282608696 11.8380775862069  1.41493206521739 11.4419224137931  1.39402173913043 10.941724137931  L 0.733695652173913 1.86413793103448  L 1.17391304347826 1.82922413793103  L 1.83423913043478 10.9068103448276  C 1.84194293478261 11.1616810344828  2.03365760869565 11.3674396551724  2.27445652173913 11.3793103448276  L 6.67663043478261 11.3793103448276  C 6.92095108695652 11.3578965517241  7.11090489130435 11.1451551724138  7.11684782608696 10.8858620689655  L 7.77717391304348 1.80827586206897  L 8.21739130434783 1.84318965517241  L 7.5570652173913 10.920775862069  Z " fill-rule="nonzero" fill="#ff0000" stroke="none" transform="matrix(1 0 0 1 1184 381 )" />
  </g>
</svg>