<?xml version="1.0" encoding="utf-8"?>
<svg version="1.1" xmlns:xlink="http://www.w3.org/1999/xlink" width="19px" height="19px" xmlns="http://www.w3.org/2000/svg">
  <g transform="matrix(1 0 0 1 -1306 -334 )">
    <path d="M 1315.5 334  C 1320.82 334  1325 338.18  1325 343.5  C 1325 348.82  1320.82 353  1315.5 353  C 1310.18 353  1306 348.82  1306 343.5  C 1306 338.18  1310.18 334  1315.5 334  Z " fill-rule="nonzero" fill="#ffffff" stroke="none" />
    <path d="M 1315.5 334.5  C 1320.54 334.5  1324.5 338.46  1324.5 343.5  C 1324.5 348.54  1320.54 352.5  1315.5 352.5  C 1310.46 352.5  1306.5 348.54  1306.5 343.5  C 1306.5 338.46  1310.46 334.5  1315.5 334.5  Z " stroke-width="1" stroke="#666666" fill="none" />
  </g>
</svg>