<?xml version="1.0" encoding="utf-8"?>
<svg version="1.1" xmlns:xlink="http://www.w3.org/1999/xlink" width="66px" height="40px" xmlns="http://www.w3.org/2000/svg">
  <g transform="matrix(1 0 0 1 -1143 -368 )">
    <path d="M 1143 368  L 1209 368  L 1209 408  L 1143 408  L 1143 368  " fill-rule="nonzero" fill="#cccccc" stroke="none" />
    <path d="M 1146 371  L 1206 371  L 1206 405  L 1146 405  L 1146 371  " fill-rule="nonzero" fill="#ffffff" stroke="none" />
    <path d="M 1180.32 380  C 1178.64 380  1177.32 378.68  1177.32 377  C 1177.32 375.32  1178.64 374  1180.32 374  C 1182 374  1183.32 375.32  1183.32 377  C 1183.32 378.68  1182 380  1180.32 380  " fill-rule="nonzero" fill="#cccccc" stroke="none" />
    <path d="M 1147 404  L 1147 386.4  L 1161.5 378.4  L 1181.8 392.363636363636  L 1193.4 383.2  L 1205 392.363636363636  L 1205 404  L 1147 404  " fill-rule="nonzero" fill="#169bd5" stroke="none" />
  </g>
</svg>