<?xml version="1.0" encoding="utf-8"?>
<svg version="1.1" xmlns:xlink="http://www.w3.org/1999/xlink" width="13px" height="8px" xmlns="http://www.w3.org/2000/svg">
  <g transform="matrix(1 0 0 1 -1161 -383 )">
    <path d="M 12.6001621621622 4.16963636363636  C 12.6760540540541 4.07036363636364  12.6760540540541 3.92963636363636  12.6001621621622 3.83036363636364  C 12.4857972972973 3.68145454545455  9.76791891891892 0.181818181818182  6.33275675675676 0.181818181818182  C 2.8975945945946 0.181818181818182  0.179189189189189 3.68145454545455  0.0653513513513514 3.83036363636364  C -0.0105405405405405 3.92963636363636  -0.0105405405405405 4.06981818181818  0.0653513513513514 4.16909090909091  C 0.179189189189189 4.31854545454545  2.89706756756757 7.81818181818182  6.33275675675676 7.81818181818182  C 9.76844594594595 7.81818181818182  12.4857972972973 4.31854545454545  12.6001621621622 4.16963636363636  Z M 12.0483648648649 4  C 11.4628378378378 4.69327272727273  9.09859459459459 7.27272727272727  6.33275675675676 7.27272727272727  C 3.56744594594595 7.27272727272727  1.20267567567568 4.69327272727273  0.617148648648648 4  C 1.20267567567568 3.30672727272727  3.56744594594595 0.727272727272727  6.33275675675676 0.727272727272727  C 9.09859459459459 0.727272727272727  11.4628378378378 3.30672727272727  12.0483648648649 4  Z M 8.70437837837838 4  C 8.70437837837838 2.64672727272727  7.64031081081081 1.54545454545455  6.33275675675676 1.54545454545455  C 5.0252027027027 1.54545454545455  3.96113513513514 2.64672727272727  3.96113513513514 4  C 3.96113513513514 5.35272727272727  5.0252027027027 6.45454545454545  6.33275675675676 6.45454545454545  C 7.64031081081081 6.45454545454545  8.70437837837838 5.35272727272727  8.70437837837838 4  Z M 8.17735135135135 4  C 8.17735135135135 5.05272727272727  7.34939189189189 5.90909090909091  6.33275675675676 5.90909090909091  C 5.31559459459459 5.90909090909091  4.48816216216216 5.05272727272727  4.48816216216216 4  C 4.48816216216216 2.94727272727273  5.31559459459459 2.09090909090909  6.33275675675676 2.09090909090909  C 7.34939189189189 2.09090909090909  8.17735135135135 2.94727272727273  8.17735135135135 4  Z " fill-rule="nonzero" fill="#ff0000" stroke="none" transform="matrix(1 0 0 1 1161 383 )" />
  </g>
</svg>