<?xml version="1.0" encoding="utf-8"?>
<svg version="1.1" xmlns:xlink="http://www.w3.org/1999/xlink" width="12px" height="12px" viewBox="392 101  12 12" xmlns="http://www.w3.org/2000/svg">
  <path d="M 398 101  C 401.36 101  404 103.64  404 107  C 404 110.36  401.36 113  398 113  C 394.64 113  392 110.36  392 107  C 392 103.64  394.64 101  398 101  Z " fill-rule="nonzero" fill="#ffffff" stroke="none" />
  <path d="M 398 101.5  C 401.08 101.5  403.5 103.92  403.5 107  C 403.5 110.08  401.08 112.5  398 112.5  C 394.92 112.5  392.5 110.08  392.5 107  C 392.5 103.92  394.92 101.5  398 101.5  Z " stroke-width="1" stroke="#797979" fill="none" />
  <path d="M 398 110  C 396.32 110  395 108.68  395 107  C 395 105.32  396.32 104  398 104  C 399.68 104  401 105.32  401 107  C 401 108.68  399.68 110  398 110  " fill-rule="nonzero" fill="#797979" stroke="none" />
</svg>