<?xml version="1.0" encoding="utf-8"?>
<svg version="1.1" xmlns:xlink="http://www.w3.org/1999/xlink" width="65px" height="65px" xmlns="http://www.w3.org/2000/svg">
  <g transform="matrix(1 0 0 1 -109 -189 )">
    <path d="M 109 189  L 174 189  L 174 254  L 109 254  L 109 189  " fill-rule="nonzero" fill="#cccccc" stroke="none" />
    <path d="M 114 194  L 169 194  L 169 249  L 114 249  L 114 194  " fill-rule="nonzero" fill="#ffffff" stroke="none" />
    <path d="M 147.675 208.5  C 144.945 208.5  142.8 206.355  142.8 203.625  C 142.8 200.895  144.945 198.75  147.675 198.75  C 150.405 198.75  152.55 200.895  152.55 203.625  C 152.55 206.355  150.405 208.5  147.675 208.5  " fill-rule="nonzero" fill="#cccccc" stroke="none" />
    <path d="M 116 248  L 116 219.4  L 129 206.4  L 147.2 216.8  L 157.6 214.2  L 168 216.8  L 168 248  L 116 248  " fill-rule="nonzero" fill="#169bd5" stroke="none" />
  </g>
</svg>