<?xml version="1.0" encoding="utf-8"?>
<svg version="1.1" xmlns:xlink="http://www.w3.org/1999/xlink" width="12px" height="12px" viewBox="291 185  12 12" xmlns="http://www.w3.org/2000/svg">
  <path d="M 297 185  C 300.36 185  303 187.64  303 191  C 303 194.36  300.36 197  297 197  C 293.64 197  291 194.36  291 191  C 291 187.64  293.64 185  297 185  Z " fill-rule="nonzero" fill="#ffffff" stroke="none" />
  <path d="M 297 185.5  C 300.08 185.5  302.5 187.92  302.5 191  C 302.5 194.08  300.08 196.5  297 196.5  C 293.92 196.5  291.5 194.08  291.5 191  C 291.5 187.92  293.92 185.5  297 185.5  Z " stroke-width="1" stroke="#797979" fill="none" />
  <path d="M 297 194  C 295.32 194  294 192.68  294 191  C 294 189.32  295.32 188  297 188  C 298.68 188  300 189.32  300 191  C 300 192.68  298.68 194  297 194  " fill-rule="nonzero" fill="#797979" stroke="none" />
</svg>