<?xml version="1.0" encoding="utf-8"?>
<svg version="1.1" xmlns:xlink="http://www.w3.org/1999/xlink" width="12px" height="12px" viewBox="392 153  12 12" xmlns="http://www.w3.org/2000/svg">
  <path d="M 398 153  C 401.36 153  404 155.64  404 159  C 404 162.36  401.36 165  398 165  C 394.64 165  392 162.36  392 159  C 392 155.64  394.64 153  398 153  Z " fill-rule="nonzero" fill="#ffffff" stroke="none" />
  <path d="M 398 153.5  C 401.08 153.5  403.5 155.92  403.5 159  C 403.5 162.08  401.08 164.5  398 164.5  C 394.92 164.5  392.5 162.08  392.5 159  C 392.5 155.92  394.92 153.5  398 153.5  Z " stroke-width="1" stroke="#797979" fill="none" />
  <path d="M 398 162  C 396.32 162  395 160.68  395 159  C 395 157.32  396.32 156  398 156  C 399.68 156  401 157.32  401 159  C 401 160.68  399.68 162  398 162  " fill-rule="nonzero" fill="#797979" stroke="none" />
</svg>