<?xml version="1.0" encoding="utf-8"?>
<svg version="1.1" xmlns:xlink="http://www.w3.org/1999/xlink" width="18px" height="20px" xmlns="http://www.w3.org/2000/svg">
  <g transform="matrix(1 0 0 1 -101 -680 )">
    <path d="M 7.03723138671875 2.822338828125  L 7.2446276953125 2.813593203125  C 8.26036982421875 2.813593203125  9.07621189453125 3.51074462890625  9.24487755859375 4.48275861328125  L 9.26986505859375 4.668915546875  L 9.276111953125 4.8513243359375  L 9.276111953125 6.2806096875  L 9.40104947265625 6.2493753125  L 9.53848076171875 6.2243878125  L 9.68090955078125 6.20814591796875  L 9.88705646484375 6.19940029296875  C 10.6329335351562 6.19940029296875  11.2988505664062 6.595452265625  11.6561719140625 7.23263369140625  L 11.6936531640625 7.3075962109375  L 11.8860569726563 7.23763119140625  L 11.9985007421875 7.203898046875  L 12.11219390625 7.177661171875  L 12.3433283398437 7.14017990234375  L 12.5632183984375 7.12768615234375  C 13.30909546875 7.12768615234375  13.976261875 7.5249875  14.333583203125 8.16216890625  L 14.3660669726563 8.23088455078125  L 14.5209895117188 8.16841580078125  L 14.62593703125 8.13468265625  L 14.7346326757813 8.10719640625  L 14.955772109375 8.06971513671875  L 15.1719140429688 8.05722138671875  L 15.2468765625 8.05722138671875  L 15.4255372265625 8.06596701171875  C 16.3308722916988 8.14780003266336  17.0651561064974 8.8337147706024  17.2083958007813 9.73138431640625  L 17.2321339257813 9.91504248046875  L 17.2396301757813 10.0962018945312  L 17.2383808007813 13.9442778515625  L 17.2221389257813 14.5114942578125  L 17.1909045507813 15.0462268945312  C 16.9122938476563 18.6406796679687  15.3418290820312 20  11.2938530664062 20  C 9.24487755859375 20  8.03923037109375 19.656421796875  6.86856572265625 18.7656171875  L 6.73738130859375 18.6744127929688  L 6.60744626953125 18.5744627734375  L 6.48750625 18.469515234375  L 1.3400799609375 13.4895052539063  C 0.481759121093752 12.6599200390625  0.582958515625002 11.3480759765625  1.476261875 10.4835082421875  C 2.13843078125 9.8438280859375  3.31659171875 9.74637681640625  4.1249375390625 10.2461269335938  L 4.281109453125 10.3535732226563  L 4.4310344921875 10.4835082421875  L 5.14317841796875 11.1706646679688  L 5.14317841796875 4.8513243359375  C 5.14192904296875 4.5139930078125  5.2268865625 4.18290853515625  5.3905547265625 3.8880559765625  L 5.49675162109375 3.7143928125  L 5.62168916015625 3.55197400390625  L 5.75912044921875 3.405797109375  C 6.10651873876752 3.07178335047833  6.55728979771732 2.86600613695527  7.03723138671875 2.822338828125  Z M 7.27836082031249 4.43028486328125  L 7.2783608203125 4.43153423828125  C 6.9860069921875 4.43153423828125  6.75362318359375 4.58645677734375  6.6699150390625 4.8088455859375  L 6.6424287890625 4.90879560546875  L 6.6336831640625 5.016241875  L 6.6336831640625 14.0117441210938  L 6.55622189453125 14.1266866601562  L 6.3475762109375 14.2128935546875  L 6.212643671875 14.1879060546875  L 5.15317341796875 13.16216890625  L 4.54097951171875 12.5912043945312  L 3.5352323828125 11.6316841601563  C 3.29785107421875 11.4005497265625  2.80059970703125 11.4155422265625  2.54447775390625 11.6641679101563  C 2.3008495703125 11.89905046875  2.23838080078125 12.176411796875  2.36331833984375 12.4175412304688  L 2.428285859375 12.51749125  L 2.50949525390625 12.6074462695313  L 7.417041484375 17.3213393359375  C 8.24162919921875 18.11844078125  9.328585703125 18.4970015039063  10.9865067382812 18.5419790039062  L 11.3263368359375 18.5457271289063  L 11.8585707226562 18.5382308789063  C 14.6496751757812 18.455772109375  15.529235390625 17.7011494140625  15.7316341796875 15.1824087890625  L 15.7491254296875 14.9250374804688  L 15.7703648242187 14.4402798632813  L 15.7803598242187 13.9155422265625  L 15.8165916992187 10.1611694140625  C 15.8165916992187 9.8238380859375  15.7216391796875 9.666416796875  15.5229884960937 9.60644677734375  L 15.4655172460937 9.59270365234375  L 15.4117941015625 9.58395802734375  L 15.2043977929687 9.57646177734375  C 15.0430449394903 9.57452539514232  14.8873757764599 9.63598555479154  14.7708645703125 9.74762619140625  C 14.7049377375245 9.81087364708319  14.6548565128109 9.88877777367198  14.62468765625 9.9750125  L 14.60344828125 10.0587206445313  L 14.59595203125 10.1611694140625  L 14.59595203125 12.1201899023437  C 14.595955774419 12.121129216714  14.5959576460091 12.1220685376105  14.5959576460091 12.123007859439  C 14.5959576460091 12.5135540462953  14.2793574070842 12.8301542852202  13.8888112202279 12.8301542852202  C 13.8817283514848 12.8301542852202  13.8746458824616 12.8300478708462  13.8675662109375 12.829835078125  C 13.5581178962755 12.8371619110374  13.2793735240774 12.6437577561712  13.1779110351562 12.3513243359375  L 13.1491754101562 12.2388805664063  L 13.1391804101562 12.1201899023438  L 13.1391804101562 9.29785107421875  C 13.1499405291567 9.09096278009011  13.0322534629529 8.8987902330742  12.8430784570312 8.81434283203125  C 12.7452530806582 8.76280914697437  12.6390889620866 8.72897197952619  12.5294852539062 8.7143928125  C 12.2856060920927 8.70619616289996  12.065009899821 8.85833146135407  11.9860069921875 9.089205390625  L 11.9610194921875 9.1891554296875  L 11.9535232421875 9.29785107421875  L 11.9535232421875 11.555472265625  C 11.9535269853565 11.5564115799952  11.9535288569466 11.5573509008917  11.9535288569466 11.5582902227202  C 11.9535288569466 11.9488364095765  11.6369286180217 12.2654366485015  11.2463824311654 12.2654366485015  C 11.2392995624223 12.2654366485015  11.2322170933991 12.2653302341275  11.225137421875 12.2651174414063  C 10.9156891143362 12.2724442657252  10.6369447523446 12.0790401124634  10.535482265625 11.7866066992188  L 10.5067466210937 11.6741629101563  L 10.4967516210937 11.555472265625  L 10.4967516210937 8.36831583984375  C 10.4967516210937 8.11219390625  10.4017991015625 7.9560219921875  10.2068965429687 7.86231884765625  C 10.1070533456788 7.81374697845664  9.99803812573203 7.78691901406886  9.88705646484375 7.783608203125  C 9.64317730303019 7.77541155352496  9.42258111075851 7.92754685197907  9.34357820312499 8.15842078125  L 9.31859070312499 8.2583708203125  L 9.31109445312499 8.36831583984375  L 9.31109445312499 10.8245877148437  C 9.31109819629247 10.8255270290186  9.31110006788179 10.8264663497188  9.31110006788179 10.8274056713518  C 9.31110006788179 11.2179518582082  8.99449982895688 11.5345520971331  8.60395364210054 11.5345520971331  C 8.59687077987197 11.5345520971331  8.58978831736217 11.5344456829549  8.58270865234374 11.534232890625  C 8.27326033768175 11.5415597235374  7.99451596548367 11.3481555686712  7.89305347656249 11.0557221484375  L 7.86431783203124 10.943278359375  L 7.85432283203124 10.8245877148438  L 7.85432283203124 5.0149925  C 7.85462757692123 5.00744030414888  7.85477999584306 4.99988273077725  7.85477999584306 4.99232438892062  C 7.85477999584306 4.68181947171901  7.60306602632592 4.43010550220187  7.29256110912431 4.43010550220187  C 7.2878271131667 4.43010550220187  7.28309330601378 4.43016529399708  7.27836082031249 4.43028486328125  Z M 2.464517734375 4.5364817578125  C 2.464517734375 2.0414792578125  4.42603697265625 0.009995  6.841079453125 0.009995  C 9.25237380859375 0.009995  11.215142421875 2.183908046875  11.215142421875 4.049225390625  C 11.215142421875 4.46651673828125  10.92278859375 4.676411796875  10.5192403710938 4.676411796875  C 10.1156921484375 4.676411796875  9.935782109375 4.26786607421875  9.935782109375 3.84932533203125  C 9.935782109375 2.72863568359375  8.44902548828125 1.52048974609375  6.838580703125 1.52048974609375  C 5.22938529296875 1.52048974609375  3.92253873046875 2.872313828125  3.92253873046875 4.5364817578125  C 3.92253873046875 5.1611694140625  4.10494751953125 5.7608695703125  4.4510244921875 6.2693653125  C 4.68259270078504 6.61107201641334  4.60444101446817 7.07447851285235  4.273613203125 7.3213393359375  C 4.15415843033076 7.41139206126112  4.00841372525574 7.45968096278915  3.8588205859375 7.45877060546875  C 3.61895058815667 7.45797661239516  3.39496067446919 7.33873354569799  3.26036982421875 7.14017990234375  C 2.73851890062303 6.3724295436895  2.46108797734127 5.46479056227259  2.464517734375 4.5364817578125  Z " fill-rule="nonzero" fill="#f76326" stroke="none" transform="matrix(1 0 0 1 101 680 )" />
  </g>
</svg>