<?xml version="1.0" encoding="utf-8"?>
<svg version="1.1" xmlns:xlink="http://www.w3.org/1999/xlink" width="12px" height="12px" viewBox="510 1844  12 12" xmlns="http://www.w3.org/2000/svg">
  <path d="M 516 1844  C 519.36 1844  522 1846.64  522 1850  C 522 1853.36  519.36 1856  516 1856  C 512.64 1856  510 1853.36  510 1850  C 510 1846.64  512.64 1844  516 1844  Z " fill-rule="nonzero" fill="#ffffff" stroke="none" />
  <path d="M 516 1844.5  C 519.08 1844.5  521.5 1846.92  521.5 1850  C 521.5 1853.08  519.08 1855.5  516 1855.5  C 512.92 1855.5  510.5 1853.08  510.5 1850  C 510.5 1846.92  512.92 1844.5  516 1844.5  Z " stroke-width="1" stroke="#797979" fill="none" />
  <path d="M 516 1853  C 514.32 1853  513 1851.68  513 1850  C 513 1848.32  514.32 1847  516 1847  C 517.68 1847  519 1848.32  519 1850  C 519 1851.68  517.68 1853  516 1853  " fill-rule="nonzero" fill="#797979" stroke="none" />
</svg>