<?xml version="1.0" encoding="utf-8"?>
<svg version="1.1" xmlns:xlink="http://www.w3.org/1999/xlink" width="12px" height="12px" viewBox="2058 1593  12 12" xmlns="http://www.w3.org/2000/svg">
  <path d="M 2064 1593  C 2067.36 1593  2070 1595.64  2070 1599  C 2070 1602.36  2067.36 1605  2064 1605  C 2060.64 1605  2058 1602.36  2058 1599  C 2058 1595.64  2060.64 1593  2064 1593  Z " fill-rule="nonzero" fill="#ffffff" stroke="none" />
  <path d="M 2064 1593.5  C 2067.08 1593.5  2069.5 1595.92  2069.5 1599  C 2069.5 1602.08  2067.08 1604.5  2064 1604.5  C 2060.92 1604.5  2058.5 1602.08  2058.5 1599  C 2058.5 1595.92  2060.92 1593.5  2064 1593.5  Z " stroke-width="1" stroke="#797979" fill="none" />
  <path d="M 2064 1602  C 2062.32 1602  2061 1600.68  2061 1599  C 2061 1597.32  2062.32 1596  2064 1596  C 2065.68 1596  2067 1597.32  2067 1599  C 2067 1600.68  2065.68 1602  2064 1602  " fill-rule="nonzero" fill="#797979" stroke="none" />
</svg>