<?xml version="1.0" encoding="utf-8"?>
<svg version="1.1" xmlns:xlink="http://www.w3.org/1999/xlink" width="12px" height="12px" viewBox="709 672  12 12" xmlns="http://www.w3.org/2000/svg">
  <path d="M 715 672  C 718.36 672  721 674.64  721 678  C 721 681.36  718.36 684  715 684  C 711.64 684  709 681.36  709 678  C 709 674.64  711.64 672  715 672  Z " fill-rule="nonzero" fill="#f0f0f0" stroke="none" />
  <path d="M 715 672.5  C 718.08 672.5  720.5 674.92  720.5 678  C 720.5 681.08  718.08 683.5  715 683.5  C 711.92 683.5  709.5 681.08  709.5 678  C 709.5 674.92  711.92 672.5  715 672.5  Z " stroke-width="1" stroke="#797979" fill="none" />
  <path d="M 715 681  C 713.32 681  712 679.68  712 678  C 712 676.32  713.32 675  715 675  C 716.68 675  718 676.32  718 678  C 718 679.68  716.68 681  715 681  " fill-rule="nonzero" fill="#797979" stroke="none" />
</svg>