<?xml version="1.0" encoding="utf-8"?>
<svg version="1.1" xmlns:xlink="http://www.w3.org/1999/xlink" width="12px" height="12px" viewBox="840 672  12 12" xmlns="http://www.w3.org/2000/svg">
  <path d="M 846 672  C 849.36 672  852 674.64  852 678  C 852 681.36  849.36 684  846 684  C 842.64 684  840 681.36  840 678  C 840 674.64  842.64 672  846 672  Z " fill-rule="nonzero" fill="#f0f0f0" stroke="none" />
  <path d="M 846 672.5  C 849.08 672.5  851.5 674.92  851.5 678  C 851.5 681.08  849.08 683.5  846 683.5  C 842.92 683.5  840.5 681.08  840.5 678  C 840.5 674.92  842.92 672.5  846 672.5  Z " stroke-width="1" stroke="#797979" fill="none" />
  <path d="M 846 681  C 844.32 681  843 679.68  843 678  C 843 676.32  844.32 675  846 675  C 847.68 675  849 676.32  849 678  C 849 679.68  847.68 681  846 681  " fill-rule="nonzero" fill="#797979" stroke="none" />
</svg>