<?xml version="1.0" encoding="utf-8"?>
<svg version="1.1" xmlns:xlink="http://www.w3.org/1999/xlink" width="12px" height="12px" viewBox="609 672  12 12" xmlns="http://www.w3.org/2000/svg">
  <path d="M 615 672  C 618.36 672  621 674.64  621 678  C 621 681.36  618.36 684  615 684  C 611.64 684  609 681.36  609 678  C 609 674.64  611.64 672  615 672  Z " fill-rule="nonzero" fill="#f0f0f0" stroke="none" />
  <path d="M 615 672.5  C 618.08 672.5  620.5 674.92  620.5 678  C 620.5 681.08  618.08 683.5  615 683.5  C 611.92 683.5  609.5 681.08  609.5 678  C 609.5 674.92  611.92 672.5  615 672.5  Z " stroke-width="1" stroke="#797979" fill="none" />
  <path d="M 615 681  C 613.32 681  612 679.68  612 678  C 612 676.32  613.32 675  615 675  C 616.68 675  618 676.32  618 678  C 618 679.68  616.68 681  615 681  " fill-rule="nonzero" fill="#797979" stroke="none" />
</svg>