<?xml version="1.0" encoding="utf-8"?>
<svg version="1.1" xmlns:xlink="http://www.w3.org/1999/xlink" width="12px" height="12px" viewBox="978 673  12 12" xmlns="http://www.w3.org/2000/svg">
  <path d="M 984 673  C 987.36 673  990 675.64  990 679  C 990 682.36  987.36 685  984 685  C 980.64 685  978 682.36  978 679  C 978 675.64  980.64 673  984 673  Z " fill-rule="nonzero" fill="#ffffff" stroke="none" />
  <path d="M 984 673.5  C 987.08 673.5  989.5 675.92  989.5 679  C 989.5 682.08  987.08 684.5  984 684.5  C 980.92 684.5  978.5 682.08  978.5 679  C 978.5 675.92  980.92 673.5  984 673.5  Z " stroke-width="1" stroke="#797979" fill="none" />
  <path d="M 984 682  C 982.32 682  981 680.68  981 679  C 981 677.32  982.32 676  984 676  C 985.68 676  987 677.32  987 679  C 987 680.68  985.68 682  984 682  " fill-rule="nonzero" fill="#797979" stroke="none" />
</svg>