<?xml version="1.0" encoding="utf-8"?>
<svg version="1.1" xmlns:xlink="http://www.w3.org/1999/xlink" width="12px" height="12px" viewBox="1087 673  12 12" xmlns="http://www.w3.org/2000/svg">
  <path d="M 1093 673  C 1096.36 673  1099 675.64  1099 679  C 1099 682.36  1096.36 685  1093 685  C 1089.64 685  1087 682.36  1087 679  C 1087 675.64  1089.64 673  1093 673  Z " fill-rule="nonzero" fill="#ffffff" stroke="none" />
  <path d="M 1093 673.5  C 1096.08 673.5  1098.5 675.92  1098.5 679  C 1098.5 682.08  1096.08 684.5  1093 684.5  C 1089.92 684.5  1087.5 682.08  1087.5 679  C 1087.5 675.92  1089.92 673.5  1093 673.5  Z " stroke-width="1" stroke="#797979" fill="none" />
  <path d="M 1093 682  C 1091.32 682  1090 680.68  1090 679  C 1090 677.32  1091.32 676  1093 676  C 1094.68 676  1096 677.32  1096 679  C 1096 680.68  1094.68 682  1093 682  " fill-rule="nonzero" fill="#797979" stroke="none" />
</svg>