<?xml version="1.0" encoding="utf-8"?>
<svg version="1.1" xmlns:xlink="http://www.w3.org/1999/xlink" width="70px" height="70px" xmlns="http://www.w3.org/2000/svg">
  <g transform="matrix(1 0 0 1 -551 -644 )">
    <path d="M 551 644  L 621 644  L 621 714  L 551 714  L 551 644  " fill-rule="nonzero" fill="#cccccc" stroke="none" />
    <path d="M 556 649  L 616 649  L 616 709  L 556 709  L 556 649  " fill-rule="nonzero" fill="#ffffff" stroke="none" />
    <path d="M 592.65 665  C 589.71 665  587.4 662.69  587.4 659.75  C 587.4 656.81  589.71 654.5  592.65 654.5  C 595.59 654.5  597.9 656.81  597.9 659.75  C 597.9 662.69  595.59 665  592.65 665  " fill-rule="nonzero" fill="#cccccc" stroke="none" />
    <path d="M 558 707  L 558 676.2  L 572 662.2  L 591.6 673.4  L 602.8 670.6  L 614 673.4  L 614 707  L 558 707  " fill-rule="nonzero" fill="#169bd5" stroke="none" />
  </g>
</svg>