<?xml version="1.0" encoding="utf-8"?>
<svg version="1.1" xmlns:xlink="http://www.w3.org/1999/xlink" width="12px" height="12px" viewBox="2306 2202  12 12" xmlns="http://www.w3.org/2000/svg">
  <path d="M 2312 2202  C 2315.36 2202  2318 2204.64  2318 2208  C 2318 2211.36  2315.36 2214  2312 2214  C 2308.64 2214  2306 2211.36  2306 2208  C 2306 2204.64  2308.64 2202  2312 2202  Z " fill-rule="nonzero" fill="#ffffff" stroke="none" />
  <path d="M 2312 2202.5  C 2315.08 2202.5  2317.5 2204.92  2317.5 2208  C 2317.5 2211.08  2315.08 2213.5  2312 2213.5  C 2308.92 2213.5  2306.5 2211.08  2306.5 2208  C 2306.5 2204.92  2308.92 2202.5  2312 2202.5  Z " stroke-width="1" stroke="#797979" fill="none" />
  <path d="M 2312 2211  C 2310.32 2211  2309 2209.68  2309 2208  C 2309 2206.32  2310.32 2205  2312 2205  C 2313.68 2205  2315 2206.32  2315 2208  C 2315 2209.68  2313.68 2211  2312 2211  " fill-rule="nonzero" fill="#797979" stroke="none" />
</svg>