<?xml version="1.0" encoding="utf-8"?>
<svg version="1.1" xmlns:xlink="http://www.w3.org/1999/xlink" width="12px" height="12px" viewBox="2141 2234  12 12" xmlns="http://www.w3.org/2000/svg">
  <path d="M 2147 2234  C 2150.36 2234  2153 2236.64  2153 2240  C 2153 2243.36  2150.36 2246  2147 2246  C 2143.64 2246  2141 2243.36  2141 2240  C 2141 2236.64  2143.64 2234  2147 2234  Z " fill-rule="nonzero" fill="#ffffff" stroke="none" />
  <path d="M 2147 2234.5  C 2150.08 2234.5  2152.5 2236.92  2152.5 2240  C 2152.5 2243.08  2150.08 2245.5  2147 2245.5  C 2143.92 2245.5  2141.5 2243.08  2141.5 2240  C 2141.5 2236.92  2143.92 2234.5  2147 2234.5  Z " stroke-width="1" stroke="#797979" fill="none" />
  <path d="M 2147 2243  C 2145.32 2243  2144 2241.68  2144 2240  C 2144 2238.32  2145.32 2237  2147 2237  C 2148.68 2237  2150 2238.32  2150 2240  C 2150 2241.68  2148.68 2243  2147 2243  " fill-rule="nonzero" fill="#797979" stroke="none" />
</svg>