<?xml version="1.0" encoding="utf-8"?>
<svg version="1.1" xmlns:xlink="http://www.w3.org/1999/xlink" width="12px" height="12px" viewBox="2273 2234  12 12" xmlns="http://www.w3.org/2000/svg">
  <path d="M 2279 2234  C 2282.36 2234  2285 2236.64  2285 2240  C 2285 2243.36  2282.36 2246  2279 2246  C 2275.64 2246  2273 2243.36  2273 2240  C 2273 2236.64  2275.64 2234  2279 2234  Z " fill-rule="nonzero" fill="#ffffff" stroke="none" />
  <path d="M 2279 2234.5  C 2282.08 2234.5  2284.5 2236.92  2284.5 2240  C 2284.5 2243.08  2282.08 2245.5  2279 2245.5  C 2275.92 2245.5  2273.5 2243.08  2273.5 2240  C 2273.5 2236.92  2275.92 2234.5  2279 2234.5  Z " stroke-width="1" stroke="#797979" fill="none" />
  <path d="M 2279 2243  C 2277.32 2243  2276 2241.68  2276 2240  C 2276 2238.32  2277.32 2237  2279 2237  C 2280.68 2237  2282 2238.32  2282 2240  C 2282 2241.68  2280.68 2243  2279 2243  " fill-rule="nonzero" fill="#797979" stroke="none" />
</svg>