<?xml version="1.0" encoding="utf-8"?>
<svg version="1.1" xmlns:xlink="http://www.w3.org/1999/xlink" width="12px" height="12px" viewBox="2150 3257  12 12" xmlns="http://www.w3.org/2000/svg">
  <path d="M 2156 3257  C 2159.36 3257  2162 3259.64  2162 3263  C 2162 3266.36  2159.36 3269  2156 3269  C 2152.64 3269  2150 3266.36  2150 3263  C 2150 3259.64  2152.64 3257  2156 3257  Z " fill-rule="nonzero" fill="#ffffff" stroke="none" />
  <path d="M 2156 3257.5  C 2159.08 3257.5  2161.5 3259.92  2161.5 3263  C 2161.5 3266.08  2159.08 3268.5  2156 3268.5  C 2152.92 3268.5  2150.5 3266.08  2150.5 3263  C 2150.5 3259.92  2152.92 3257.5  2156 3257.5  Z " stroke-width="1" stroke="#797979" fill="none" />
  <path d="M 2156 3266  C 2154.32 3266  2153 3264.68  2153 3263  C 2153 3261.32  2154.32 3260  2156 3260  C 2157.68 3260  2159 3261.32  2159 3263  C 2159 3264.68  2157.68 3266  2156 3266  " fill-rule="nonzero" fill="#797979" stroke="none" />
</svg>