<?xml version="1.0" encoding="utf-8"?>
<svg version="1.1" xmlns:xlink="http://www.w3.org/1999/xlink" width="12px" height="12px" viewBox="2197 1360  12 12" xmlns="http://www.w3.org/2000/svg">
  <path d="M 2203 1360  C 2206.36 1360  2209 1362.64  2209 1366  C 2209 1369.36  2206.36 1372  2203 1372  C 2199.64 1372  2197 1369.36  2197 1366  C 2197 1362.64  2199.64 1360  2203 1360  Z " fill-rule="nonzero" fill="#f0f0f0" stroke="none" />
  <path d="M 2203 1360.5  C 2206.08 1360.5  2208.5 1362.92  2208.5 1366  C 2208.5 1369.08  2206.08 1371.5  2203 1371.5  C 2199.92 1371.5  2197.5 1369.08  2197.5 1366  C 2197.5 1362.92  2199.92 1360.5  2203 1360.5  Z " stroke-width="1" stroke="#797979" fill="none" />
  <path d="M 2203 1369  C 2201.32 1369  2200 1367.68  2200 1366  C 2200 1364.32  2201.32 1363  2203 1363  C 2204.68 1363  2206 1364.32  2206 1366  C 2206 1367.68  2204.68 1369  2203 1369  " fill-rule="nonzero" fill="#797979" stroke="none" />
</svg>