<?xml version="1.0" encoding="utf-8"?>
<svg version="1.1" xmlns:xlink="http://www.w3.org/1999/xlink" width="12px" height="12px" viewBox="2101 1360  12 12" xmlns="http://www.w3.org/2000/svg">
  <path d="M 2107 1360  C 2110.36 1360  2113 1362.64  2113 1366  C 2113 1369.36  2110.36 1372  2107 1372  C 2103.64 1372  2101 1369.36  2101 1366  C 2101 1362.64  2103.64 1360  2107 1360  Z " fill-rule="nonzero" fill="#f0f0f0" stroke="none" />
  <path d="M 2107 1360.5  C 2110.08 1360.5  2112.5 1362.92  2112.5 1366  C 2112.5 1369.08  2110.08 1371.5  2107 1371.5  C 2103.92 1371.5  2101.5 1369.08  2101.5 1366  C 2101.5 1362.92  2103.92 1360.5  2107 1360.5  Z " stroke-width="1" stroke="#797979" fill="none" />
  <path d="M 2107 1369  C 2105.32 1369  2104 1367.68  2104 1366  C 2104 1364.32  2105.32 1363  2107 1363  C 2108.68 1363  2110 1364.32  2110 1366  C 2110 1367.68  2108.68 1369  2107 1369  " fill-rule="nonzero" fill="#797979" stroke="none" />
</svg>