<?xml version="1.0" encoding="utf-8"?>
<svg version="1.1" xmlns:xlink="http://www.w3.org/1999/xlink" width="12px" height="12px" viewBox="2585 1357  12 12" xmlns="http://www.w3.org/2000/svg">
  <path d="M 2591 1357  C 2594.36 1357  2597 1359.64  2597 1363  C 2597 1366.36  2594.36 1369  2591 1369  C 2587.64 1369  2585 1366.36  2585 1363  C 2585 1359.64  2587.64 1357  2591 1357  Z " fill-rule="nonzero" fill="#f0f0f0" stroke="none" />
  <path d="M 2591 1357.5  C 2594.08 1357.5  2596.5 1359.92  2596.5 1363  C 2596.5 1366.08  2594.08 1368.5  2591 1368.5  C 2587.92 1368.5  2585.5 1366.08  2585.5 1363  C 2585.5 1359.92  2587.92 1357.5  2591 1357.5  Z " stroke-width="1" stroke="#797979" fill="none" />
  <path d="M 2591 1366  C 2589.32 1366  2588 1364.68  2588 1363  C 2588 1361.32  2589.32 1360  2591 1360  C 2592.68 1360  2594 1361.32  2594 1363  C 2594 1364.68  2592.68 1366  2591 1366  " fill-rule="nonzero" fill="#797979" stroke="none" />
</svg>