<?xml version="1.0" encoding="utf-8"?>
<svg version="1.1" xmlns:xlink="http://www.w3.org/1999/xlink" width="12px" height="12px" viewBox="2681 1357  12 12" xmlns="http://www.w3.org/2000/svg">
  <path d="M 2687 1357  C 2690.36 1357  2693 1359.64  2693 1363  C 2693 1366.36  2690.36 1369  2687 1369  C 2683.64 1369  2681 1366.36  2681 1363  C 2681 1359.64  2683.64 1357  2687 1357  Z " fill-rule="nonzero" fill="#ffffff" stroke="none" />
  <path d="M 2687 1357.5  C 2690.08 1357.5  2692.5 1359.92  2692.5 1363  C 2692.5 1366.08  2690.08 1368.5  2687 1368.5  C 2683.92 1368.5  2681.5 1366.08  2681.5 1363  C 2681.5 1359.92  2683.92 1357.5  2687 1357.5  Z " stroke-width="1" stroke="#797979" fill="none" />
  <path d="M 2687 1366  C 2685.32 1366  2684 1364.68  2684 1363  C 2684 1361.32  2685.32 1360  2687 1360  C 2688.68 1360  2690 1361.32  2690 1363  C 2690 1364.68  2688.68 1366  2687 1366  " fill-rule="nonzero" fill="#797979" stroke="none" />
</svg>