<?xml version="1.0" encoding="utf-8"?>
<svg version="1.1" xmlns:xlink="http://www.w3.org/1999/xlink" width="12px" height="12px" viewBox="219 2  12 12" xmlns="http://www.w3.org/2000/svg">
  <path d="M 225 2  C 228.36 2  231 4.64  231 8  C 231 11.36  228.36 14  225 14  C 221.64 14  219 11.36  219 8  C 219 4.64  221.64 2  225 2  Z " fill-rule="nonzero" fill="#ffffff" stroke="none" />
  <path d="M 225 2.5  C 228.08 2.5  230.5 4.92  230.5 8  C 230.5 11.08  228.08 13.5  225 13.5  C 221.92 13.5  219.5 11.08  219.5 8  C 219.5 4.92  221.92 2.5  225 2.5  Z " stroke-width="1" stroke="#797979" fill="none" />
  <path d="M 225 11  C 223.32 11  222 9.68  222 8  C 222 6.32  223.32 5  225 5  C 226.68 5  228 6.32  228 8  C 228 9.68  226.68 11  225 11  " fill-rule="nonzero" fill="#797979" stroke="none" />
</svg>