<?xml version="1.0" encoding="utf-8"?>
<svg version="1.1" xmlns:xlink="http://www.w3.org/1999/xlink" width="24px" height="24px" xmlns="http://www.w3.org/2000/svg">
  <g transform="matrix(1 0 0 1 -1059 -1462 )">
    <path d="M 1071 1462  C 1077.72 1462  1083 1467.28  1083 1474  C 1083 1480.72  1077.72 1486  1071 1486  C 1064.28 1486  1059 1480.72  1059 1474  C 1059 1467.28  1064.28 1462  1071 1462  Z " fill-rule="nonzero" fill="#ffffff" stroke="none" />
    <path d="M 1071 1462.5  C 1077.44 1462.5  1082.5 1467.56  1082.5 1474  C 1082.5 1480.44  1077.44 1485.5  1071 1485.5  C 1064.56 1485.5  1059.5 1480.44  1059.5 1474  C 1059.5 1467.56  1064.56 1462.5  1071 1462.5  Z " stroke-width="1" stroke="#cccccc" fill="none" />
  </g>
</svg>