<?xml version="1.0" encoding="utf-8"?>
<svg version="1.1" xmlns:xlink="http://www.w3.org/1999/xlink" width="24px" height="24px" xmlns="http://www.w3.org/2000/svg">
  <g transform="matrix(1 0 0 1 -1010 -2830 )">
    <path d="M 1022 2830  C 1028.72 2830  1034 2835.28  1034 2842  C 1034 2848.72  1028.72 2854  1022 2854  C 1015.28 2854  1010 2848.72  1010 2842  C 1010 2835.28  1015.28 2830  1022 2830  Z " fill-rule="nonzero" fill="#199ed8" stroke="none" />
    <path d="M 1022 2830.5  C 1028.44 2830.5  1033.5 2835.56  1033.5 2842  C 1033.5 2848.44  1028.44 2853.5  1022 2853.5  C 1015.56 2853.5  1010.5 2848.44  1010.5 2842  C 1010.5 2835.56  1015.56 2830.5  1022 2830.5  Z " stroke-width="1" stroke="#cccccc" fill="none" />
  </g>
</svg>