<?xml version="1.0" encoding="utf-8"?>
<svg version="1.1" xmlns:xlink="http://www.w3.org/1999/xlink" width="12px" height="12px" viewBox="348 2  12 12" xmlns="http://www.w3.org/2000/svg">
  <path d="M 354 2  C 357.36 2  360 4.64  360 8  C 360 11.36  357.36 14  354 14  C 350.64 14  348 11.36  348 8  C 348 4.64  350.64 2  354 2  Z " fill-rule="nonzero" fill="#f0f0f0" stroke="none" />
  <path d="M 354 2.5  C 357.08 2.5  359.5 4.92  359.5 8  C 359.5 11.08  357.08 13.5  354 13.5  C 350.92 13.5  348.5 11.08  348.5 8  C 348.5 4.92  350.92 2.5  354 2.5  Z " stroke-width="1" stroke="#797979" fill="none" />
  <path d="M 354 11  C 352.32 11  351 9.68  351 8  C 351 6.32  352.32 5  354 5  C 355.68 5  357 6.32  357 8  C 357 9.68  355.68 11  354 11  " fill-rule="nonzero" fill="#797979" stroke="none" />
</svg>