<?xml version="1.0" encoding="utf-8"?>
<svg version="1.1" xmlns:xlink="http://www.w3.org/1999/xlink" width="24px" height="24px" xmlns="http://www.w3.org/2000/svg">
  <g transform="matrix(1 0 0 1 -461 -1461 )">
    <path d="M 473 1461  C 479.72 1461  485 1466.28  485 1473  C 485 1479.72  479.72 1485  473 1485  C 466.28 1485  461 1479.72  461 1473  C 461 1466.28  466.28 1461  473 1461  Z " fill-rule="nonzero" fill="#ffffff" stroke="none" />
    <path d="M 473 1461.5  C 479.44 1461.5  484.5 1466.56  484.5 1473  C 484.5 1479.44  479.44 1484.5  473 1484.5  C 466.56 1484.5  461.5 1479.44  461.5 1473  C 461.5 1466.56  466.56 1461.5  473 1461.5  Z " stroke-width="1" stroke="#1890ff" fill="none" />
  </g>
</svg>