<?xml version="1.0" encoding="utf-8"?>
<svg version="1.1" xmlns:xlink="http://www.w3.org/1999/xlink" width="26px" height="20px" xmlns="http://www.w3.org/2000/svg">
  <g transform="matrix(1 0 0 1 -198 -639 )">
    <path d="M 215.91363785395 639.5  C 215.91363785395 639.5  217.6720433633 640.176309811288  217.6720433633 640.176309811288  C 217.6720433633 640.176309811288  223.407441985963 649  223.407441985963 649  C 223.407441985963 649  217.6720433633 657.823690188712  217.6720433633 657.823690188712  C 217.6720433633 657.823690188712  215.91363785395 658.5  215.91363785395 658.5  C 215.91363785395 658.5  198.5 658.5  198.5 658.5  C 198.5 658.5  198.5 639.5  198.5 639.5  C 198.5 639.5  215.91363785395 639.5  215.91363785395 639.5  Z " fill-rule="nonzero" fill="#66cc66" stroke="none" />
    <path d="M 215.91363785395 639.5  C 215.91363785395 639.5  217.6720433633 640.176309811288  217.6720433633 640.176309811288  C 217.6720433633 640.176309811288  223.407441985963 649  223.407441985963 649  C 223.407441985963 649  217.6720433633 657.823690188712  217.6720433633 657.823690188712  C 217.6720433633 657.823690188712  215.91363785395 658.5  215.91363785395 658.5  C 215.91363785395 658.5  198.5 658.5  198.5 658.5  C 198.5 658.5  198.5 639.5  198.5 639.5  C 198.5 639.5  215.91363785395 639.5  215.91363785395 639.5  Z " stroke-width="1" stroke="#797979" fill="none" />
  </g>
</svg>