<?xml version="1.0" encoding="utf-8"?>
<svg version="1.1" xmlns:xlink="http://www.w3.org/1999/xlink" width="12px" height="12px" viewBox="2147 1069  12 12" xmlns="http://www.w3.org/2000/svg">
  <path d="M 2153 1069  C 2156.36 1069  2159 1071.64  2159 1075  C 2159 1078.36  2156.36 1081  2153 1081  C 2149.64 1081  2147 1078.36  2147 1075  C 2147 1071.64  2149.64 1069  2153 1069  Z " fill-rule="nonzero" fill="#ffffff" stroke="none" />
  <path d="M 2153 1069.5  C 2156.08 1069.5  2158.5 1071.92  2158.5 1075  C 2158.5 1078.08  2156.08 1080.5  2153 1080.5  C 2149.92 1080.5  2147.5 1078.08  2147.5 1075  C 2147.5 1071.92  2149.92 1069.5  2153 1069.5  Z " stroke-width="1" stroke="#797979" fill="none" />
  <path d="M 2153 1078  C 2151.32 1078  2150 1076.68  2150 1075  C 2150 1073.32  2151.32 1072  2153 1072  C 2154.68 1072  2156 1073.32  2156 1075  C 2156 1076.68  2154.68 1078  2153 1078  " fill-rule="nonzero" fill="#797979" stroke="none" />
</svg>