<?xml version="1.0" encoding="utf-8"?>
<svg version="1.1" xmlns:xlink="http://www.w3.org/1999/xlink" width="12px" height="12px" viewBox="2030 1069  12 12" xmlns="http://www.w3.org/2000/svg">
  <path d="M 2036 1069  C 2039.36 1069  2042 1071.64  2042 1075  C 2042 1078.36  2039.36 1081  2036 1081  C 2032.64 1081  2030 1078.36  2030 1075  C 2030 1071.64  2032.64 1069  2036 1069  Z " fill-rule="nonzero" fill="#ffffff" stroke="none" />
  <path d="M 2036 1069.5  C 2039.08 1069.5  2041.5 1071.92  2041.5 1075  C 2041.5 1078.08  2039.08 1080.5  2036 1080.5  C 2032.92 1080.5  2030.5 1078.08  2030.5 1075  C 2030.5 1071.92  2032.92 1069.5  2036 1069.5  Z " stroke-width="1" stroke="#797979" fill="none" />
  <path d="M 2036 1078  C 2034.32 1078  2033 1076.68  2033 1075  C 2033 1073.32  2034.32 1072  2036 1072  C 2037.68 1072  2039 1073.32  2039 1075  C 2039 1076.68  2037.68 1078  2036 1078  " fill-rule="nonzero" fill="#797979" stroke="none" />
</svg>