<?xml version="1.0" encoding="utf-8"?>
<svg version="1.1" xmlns:xlink="http://www.w3.org/1999/xlink" width="1201px" height="159px" xmlns="http://www.w3.org/2000/svg">
  <g transform="matrix(1 0 0 1 -407 -344 )">
    <path d="M 4.13793103448276 158  C -8.04180400397898 148.807848665543  24.765881294274 135.273216027401  68.2758620689655 115  C 100.829542268794 99.8318068767818  113.793103448276 100.333333333333  136.551724137931 93  C 159.310344827586 87.6666666666667  167.337239869253 76.3236769955645  204.827586206897 77  C 241.472176815202 77.6610656352254  234.642405680979 96.1392999381721  268.965517241379 95  C 307.847232537089 93.7093846152475  302.877279765091 67.776756917779  335.172413793103 70  C 377.330406402752 72.9022163322941  356.516318100081 109.690021516335  399.310344827586 113  C 432.251370124115 115.547880938049  425.713420483291 98.8133319030527  467.586206896552 89  C 501.698104703989 81.005514710113  501.436600366322 89.0025360046223  533.793103448276 80  C 579.913030628637 67.1680723989197  557.049773468329 55.385853151163  604.137931034483 47  C 635.01010280793 41.5020253003975  635.920475987545 53.658827454515  668.275862068965 49  C 709.938131297476 43.0010815135772  697.62185063736 24.8636602384961  734.48275862069 25  C 770.61067967833 25.1336286166054  766.688267741162 50.9335675290407  798.620689655172 49  C 840.982894877771 46.4348896961982  816.676003465856 22.1637371859069  864.827586206897 8  C 894.970127521953 -0.866396678959291  896.449669119272 -1.11046642468776  931.034482758621 2  C 973.485193435008 5.81790434495235  977.931034482758 16  1001.37931034483 23  C 1022.75862068966 31  1028.66140604079 46.3691024979688  1065.51724137931 47  C 1102.80220180838 47.6382432573288  1095.19219818803 25.274309869301  1133.79310344828 25  C 1170.52032908489 24.7390050726467  1177.93103448276 38.3333333333333  1200 45  " stroke-width="1" stroke="#999999" fill="none" transform="matrix(1 0 0 1 407 344 )" />
  </g>
</svg>