<?xml version="1.0" encoding="utf-8"?>
<svg version="1.1" xmlns:xlink="http://www.w3.org/1999/xlink" width="1201px" height="154px" xmlns="http://www.w3.org/2000/svg">
  <g transform="matrix(1 0 0 1 -410 -432 )">
    <path d="M 2.07253886010363 153  C -0.827130466581904 149.82854408036  26.6532327599614 135.943686765459  64.2487046632124 133  C 99.914900940154 130.207373530917  102.708860603373 147.520960990985  132.642487046632 142  C 185.801827837986 132.195285981408  148.032654142211 110.02219998024  201.036269430052 91  C 229.202333932163 80.8916232655847  229.262526554217 82.0728912988028  265.284974093264 82  C 302.380411559523 81.9249375097669  295.164333075883 91.9831787744227  331.60621761658 91  C 369.471387586388 89.9784218935591  359.776684940322 79.5733047933106  397.927461139896 78  C 434.108665368335 76.50791863991  428.067500434774 86.49208136009  464.248704663212 85  C 502.399480862787 83.4266952066894  495.089783807618 80.832205017252  530.569948186528 72  C 570.750057765178 61.9978207083725  558.783620991299 61.0021792916275  598.963730569948 51  C 634.443894948859 42.167794982748  627.94739333115 38.2442314808549  665.284974093264 38  C 702.229268338706 37.7583410732958  709.499136442142 46  731.60621761658 50  C 753.713298791019 54.6666666666667  765.024891482429 53.164510140272  797.927461139896 64  C 840.557416516984 78.0389171428822  822.623574804056 93.1077046311143  864.248704663212 96  C 898.82366624166 98.4024189616011  898.772931766103 90.8078785874981  932.642487046632 78  C 975.372511468408 61.841507208996  958.046758567471 60.5498780249213  998.963730569948 43  C 1032.96494953734 28.4163879590041  1043.17789291883 27.6666666666667  1065.28497409326 20  C 1087.3920552677 13.6666666666667  1092.24627180729 3.49873235384834  1131.60621761658 1  C 1166.76313141549 -1.23190647661067  1198.08148187481 5.24099298846212  1197.9274611399 10  " stroke-width="1" stroke="#000000" fill="none" transform="matrix(1 0 0 1 410 432 )" />
  </g>
</svg>