<?xml version="1.0" encoding="utf-8"?>
<svg version="1.1" xmlns:xlink="http://www.w3.org/1999/xlink" width="1201px" height="154px" xmlns="http://www.w3.org/2000/svg">
  <g transform="matrix(1 0 0 1 -410 -394 )">
    <path d="M 2.07253886010363 0  C -0.827130466581904 3.17145591963953  26.6532327599614 17.0563132345414  64.2487046632124 20  C 99.914900940154 22.7926264690828  102.708860603373 5.47903900901537  132.642487046632 11  C 185.801827837986 20.8047140185923  148.032654142211 42.9778000197597  201.036269430052 62  C 229.202333932163 72.1083767344153  229.262526554217 70.9271087011972  265.284974093264 71  C 302.380411559523 71.0750624902331  295.164333075883 61.0168212255773  331.60621761658 62  C 369.471387586388 63.0215781064409  359.776684940322 73.4266952066894  397.927461139896 75  C 434.108665368335 76.49208136009  428.067500434774 66.50791863991  464.248704663212 68  C 502.399480862787 69.5733047933106  495.089783807618 72.167794982748  530.569948186528 81  C 570.750057765178 91.0021792916275  558.783620991299 91.9978207083725  598.963730569948 102  C 634.443894948859 110.832205017252  627.94739333115 114.755768519145  665.284974093264 115  C 702.229268338706 115.241658926704  709.499136442142 107  731.60621761658 103  C 753.713298791019 98.3333333333333  765.024891482429 99.8354898597279  797.927461139896 89  C 840.557416516984 74.9610828571178  822.623574804056 59.8922953688857  864.248704663212 57  C 898.82366624166 54.5975810383989  898.772931766103 62.1921214125019  932.642487046632 75  C 975.372511468408 91.158492791004  958.046758567471 92.4501219750787  998.963730569948 110  C 1032.96494953734 124.583612040996  1043.17789291883 125.333333333333  1065.28497409326 133  C 1087.3920552677 139.333333333333  1092.24627180729 149.501267646152  1131.60621761658 152  C 1166.76313141549 154.231906476611  1198.08148187481 147.759007011538  1197.9274611399 143  " stroke-width="1" stroke="#e4e4e4" fill="none" transform="matrix(1 0 0 1 410 394 )" />
  </g>
</svg>