<?xml version="1.0" encoding="utf-8"?>
<svg version="1.1" xmlns:xlink="http://www.w3.org/1999/xlink" width="12px" height="12px" viewBox="2183 1029  12 12" xmlns="http://www.w3.org/2000/svg">
  <path d="M 2189 1029  C 2192.36 1029  2195 1031.64  2195 1035  C 2195 1038.36  2192.36 1041  2189 1041  C 2185.64 1041  2183 1038.36  2183 1035  C 2183 1031.64  2185.64 1029  2189 1029  Z " fill-rule="nonzero" fill="#ffffff" stroke="none" />
  <path d="M 2189 1029.5  C 2192.08 1029.5  2194.5 1031.92  2194.5 1035  C 2194.5 1038.08  2192.08 1040.5  2189 1040.5  C 2185.92 1040.5  2183.5 1038.08  2183.5 1035  C 2183.5 1031.92  2185.92 1029.5  2189 1029.5  Z " stroke-width="1" stroke="#797979" fill="none" />
  <path d="M 2189 1038  C 2187.32 1038  2186 1036.68  2186 1035  C 2186 1033.32  2187.32 1032  2189 1032  C 2190.68 1032  2192 1033.32  2192 1035  C 2192 1036.68  2190.68 1038  2189 1038  " fill-rule="nonzero" fill="#797979" stroke="none" />
</svg>