<?xml version="1.0" encoding="utf-8"?>
<svg version="1.1" xmlns:xlink="http://www.w3.org/1999/xlink" width="12px" height="12px" viewBox="2259 1029  12 12" xmlns="http://www.w3.org/2000/svg">
  <path d="M 2265 1029  C 2268.36 1029  2271 1031.64  2271 1035  C 2271 1038.36  2268.36 1041  2265 1041  C 2261.64 1041  2259 1038.36  2259 1035  C 2259 1031.64  2261.64 1029  2265 1029  Z " fill-rule="nonzero" fill="#f0f0f0" stroke="none" />
  <path d="M 2265 1029.5  C 2268.08 1029.5  2270.5 1031.92  2270.5 1035  C 2270.5 1038.08  2268.08 1040.5  2265 1040.5  C 2261.92 1040.5  2259.5 1038.08  2259.5 1035  C 2259.5 1031.92  2261.92 1029.5  2265 1029.5  Z " stroke-width="1" stroke="#797979" fill="none" />
  <path d="M 2265 1038  C 2263.32 1038  2262 1036.68  2262 1035  C 2262 1033.32  2263.32 1032  2265 1032  C 2266.68 1032  2268 1033.32  2268 1035  C 2268 1036.68  2266.68 1038  2265 1038  " fill-rule="nonzero" fill="#797979" stroke="none" />
</svg>