<?xml version="1.0" encoding="utf-8"?>
<svg version="1.1" xmlns:xlink="http://www.w3.org/1999/xlink" width="12px" height="12px" viewBox="1267 389  12 12" xmlns="http://www.w3.org/2000/svg">
  <path d="M 1273 389  C 1276.36 389  1279 391.64  1279 395  C 1279 398.36  1276.36 401  1273 401  C 1269.64 401  1267 398.36  1267 395  C 1267 391.64  1269.64 389  1273 389  Z " fill-rule="nonzero" fill="#ffffff" stroke="none" />
  <path d="M 1273 389.5  C 1276.08 389.5  1278.5 391.92  1278.5 395  C 1278.5 398.08  1276.08 400.5  1273 400.5  C 1269.92 400.5  1267.5 398.08  1267.5 395  C 1267.5 391.92  1269.92 389.5  1273 389.5  Z " stroke-width="1" stroke="#797979" fill="none" />
  <path d="M 1273 398  C 1271.32 398  1270 396.68  1270 395  C 1270 393.32  1271.32 392  1273 392  C 1274.68 392  1276 393.32  1276 395  C 1276 396.68  1274.68 398  1273 398  " fill-rule="nonzero" fill="#797979" stroke="none" />
</svg>