<?xml version="1.0" encoding="utf-8"?>
<svg version="1.1" xmlns:xlink="http://www.w3.org/1999/xlink" width="12px" height="12px" viewBox="1170 389  12 12" xmlns="http://www.w3.org/2000/svg">
  <path d="M 1176 389  C 1179.36 389  1182 391.64  1182 395  C 1182 398.36  1179.36 401  1176 401  C 1172.64 401  1170 398.36  1170 395  C 1170 391.64  1172.64 389  1176 389  Z " fill-rule="nonzero" fill="#ffffff" stroke="none" />
  <path d="M 1176 389.5  C 1179.08 389.5  1181.5 391.92  1181.5 395  C 1181.5 398.08  1179.08 400.5  1176 400.5  C 1172.92 400.5  1170.5 398.08  1170.5 395  C 1170.5 391.92  1172.92 389.5  1176 389.5  Z " stroke-width="1" stroke="#797979" fill="none" />
  <path d="M 1176 398  C 1174.32 398  1173 396.68  1173 395  C 1173 393.32  1174.32 392  1176 392  C 1177.68 392  1179 393.32  1179 395  C 1179 396.68  1177.68 398  1176 398  " fill-rule="nonzero" fill="#797979" stroke="none" />
</svg>