<?xml version="1.0" encoding="utf-8"?>
<svg version="1.1" xmlns:xlink="http://www.w3.org/1999/xlink" width="12px" height="12px" viewBox="1382 389  12 12" xmlns="http://www.w3.org/2000/svg">
  <path d="M 1388 389  C 1391.36 389  1394 391.64  1394 395  C 1394 398.36  1391.36 401  1388 401  C 1384.64 401  1382 398.36  1382 395  C 1382 391.64  1384.64 389  1388 389  Z " fill-rule="nonzero" fill="#f0f0f0" stroke="none" />
  <path d="M 1388 389.5  C 1391.08 389.5  1393.5 391.92  1393.5 395  C 1393.5 398.08  1391.08 400.5  1388 400.5  C 1384.92 400.5  1382.5 398.08  1382.5 395  C 1382.5 391.92  1384.92 389.5  1388 389.5  Z " stroke-width="1" stroke="#797979" fill="none" />
  <path d="M 1388 398  C 1386.32 398  1385 396.68  1385 395  C 1385 393.32  1386.32 392  1388 392  C 1389.68 392  1391 393.32  1391 395  C 1391 396.68  1389.68 398  1388 398  " fill-rule="nonzero" fill="#797979" stroke="none" />
</svg>