<?xml version="1.0" encoding="utf-8"?>
<svg version="1.1" xmlns:xlink="http://www.w3.org/1999/xlink" width="12px" height="12px" viewBox="905 394  12 12" xmlns="http://www.w3.org/2000/svg">
  <path d="M 911 394  C 914.36 394  917 396.64  917 400  C 917 403.36  914.36 406  911 406  C 907.64 406  905 403.36  905 400  C 905 396.64  907.64 394  911 394  Z " fill-rule="nonzero" fill="#ffffff" stroke="none" />
  <path d="M 911 394.5  C 914.08 394.5  916.5 396.92  916.5 400  C 916.5 403.08  914.08 405.5  911 405.5  C 907.92 405.5  905.5 403.08  905.5 400  C 905.5 396.92  907.92 394.5  911 394.5  Z " stroke-width="1" stroke="#797979" fill="none" />
  <path d="M 911 403  C 909.32 403  908 401.68  908 400  C 908 398.32  909.32 397  911 397  C 912.68 397  914 398.32  914 400  C 914 401.68  912.68 403  911 403  " fill-rule="nonzero" fill="#797979" stroke="none" />
</svg>