<?xml version="1.0" encoding="utf-8"?>
<svg version="1.1" xmlns:xlink="http://www.w3.org/1999/xlink" width="12px" height="12px" viewBox="425 1133  12 12" xmlns="http://www.w3.org/2000/svg">
  <path d="M 431 1133  C 434.36 1133  437 1135.64  437 1139  C 437 1142.36  434.36 1145  431 1145  C 427.64 1145  425 1142.36  425 1139  C 425 1135.64  427.64 1133  431 1133  Z " fill-rule="nonzero" fill="#f0f0f0" stroke="none" />
  <path d="M 431 1133.5  C 434.08 1133.5  436.5 1135.92  436.5 1139  C 436.5 1142.08  434.08 1144.5  431 1144.5  C 427.92 1144.5  425.5 1142.08  425.5 1139  C 425.5 1135.92  427.92 1133.5  431 1133.5  Z " stroke-width="1" stroke="#797979" fill="none" />
  <path d="M 431 1142  C 429.32 1142  428 1140.68  428 1139  C 428 1137.32  429.32 1136  431 1136  C 432.68 1136  434 1137.32  434 1139  C 434 1140.68  432.68 1142  431 1142  " fill-rule="nonzero" fill="#797979" stroke="none" />
</svg>