<?xml version="1.0" encoding="utf-8"?>
<svg version="1.1" xmlns:xlink="http://www.w3.org/1999/xlink" width="12px" height="12px" viewBox="425 986  12 12" xmlns="http://www.w3.org/2000/svg">
  <path d="M 431 986  C 434.36 986  437 988.64  437 992  C 437 995.36  434.36 998  431 998  C 427.64 998  425 995.36  425 992  C 425 988.64  427.64 986  431 986  Z " fill-rule="nonzero" fill="#f0f0f0" stroke="none" />
  <path d="M 431 986.5  C 434.08 986.5  436.5 988.92  436.5 992  C 436.5 995.08  434.08 997.5  431 997.5  C 427.92 997.5  425.5 995.08  425.5 992  C 425.5 988.92  427.92 986.5  431 986.5  Z " stroke-width="1" stroke="#797979" fill="none" />
  <path d="M 431 995  C 429.32 995  428 993.68  428 992  C 428 990.32  429.32 989  431 989  C 432.68 989  434 990.32  434 992  C 434 993.68  432.68 995  431 995  " fill-rule="nonzero" fill="#797979" stroke="none" />
</svg>