<?xml version="1.0" encoding="utf-8"?>
<svg version="1.1" xmlns:xlink="http://www.w3.org/1999/xlink" width="12px" height="12px" viewBox="515 1133  12 12" xmlns="http://www.w3.org/2000/svg">
  <path d="M 521 1133  C 524.36 1133  527 1135.64  527 1139  C 527 1142.36  524.36 1145  521 1145  C 517.64 1145  515 1142.36  515 1139  C 515 1135.64  517.64 1133  521 1133  Z " fill-rule="nonzero" fill="#f0f0f0" stroke="none" />
  <path d="M 521 1133.5  C 524.08 1133.5  526.5 1135.92  526.5 1139  C 526.5 1142.08  524.08 1144.5  521 1144.5  C 517.92 1144.5  515.5 1142.08  515.5 1139  C 515.5 1135.92  517.92 1133.5  521 1133.5  Z " stroke-width="1" stroke="#797979" fill="none" />
  <path d="M 521 1142  C 519.32 1142  518 1140.68  518 1139  C 518 1137.32  519.32 1136  521 1136  C 522.68 1136  524 1137.32  524 1139  C 524 1140.68  522.68 1142  521 1142  " fill-rule="nonzero" fill="#797979" stroke="none" />
</svg>