<?xml version="1.0" encoding="utf-8"?>
<svg version="1.1" xmlns:xlink="http://www.w3.org/1999/xlink" width="72px" height="72px" xmlns="http://www.w3.org/2000/svg">
  <g transform="matrix(1 0 0 1 -1391 -1141 )">
    <path d="M 1392 1145  A 3 3 0 0 1 1395 1142 L 1459 1142  A 3 3 0 0 1 1462 1145 L 1462 1209  A 3 3 0 0 1 1459 1212 L 1395 1212  A 3 3 0 0 1 1392 1209 L 1392 1145  Z " fill-rule="nonzero" fill="#000000" stroke="none" fill-opacity="0.0196078431372549" />
    <path d="M 1391.5 1145  A 3.5 3.5 0 0 1 1395 1141.5 L 1459 1141.5  A 3.5 3.5 0 0 1 1462.5 1145 L 1462.5 1209  A 3.5 3.5 0 0 1 1459 1212.5 L 1395 1212.5  A 3.5 3.5 0 0 1 1391.5 1209 L 1391.5 1145  Z " stroke-width="1" stroke-dasharray="9,4" stroke="#d9d9d9" fill="none" stroke-dashoffset="0.5" />
  </g>
</svg>