<?xml version="1.0" encoding="utf-8"?>
<svg version="1.1" xmlns:xlink="http://www.w3.org/1999/xlink" width="12px" height="12px" viewBox="410 589  12 12" xmlns="http://www.w3.org/2000/svg">
  <path d="M 416 589  C 419.36 589  422 591.64  422 595  C 422 598.36  419.36 601  416 601  C 412.64 601  410 598.36  410 595  C 410 591.64  412.64 589  416 589  Z " fill-rule="nonzero" fill="#f0f0f0" stroke="none" />
  <path d="M 416 589.5  C 419.08 589.5  421.5 591.92  421.5 595  C 421.5 598.08  419.08 600.5  416 600.5  C 412.92 600.5  410.5 598.08  410.5 595  C 410.5 591.92  412.92 589.5  416 589.5  Z " stroke-width="1" stroke="#797979" fill="none" />
  <path d="M 416 598  C 414.32 598  413 596.68  413 595  C 413 593.32  414.32 592  416 592  C 417.68 592  419 593.32  419 595  C 419 596.68  417.68 598  416 598  " fill-rule="nonzero" fill="#797979" stroke="none" />
</svg>