<?xml version="1.0" encoding="utf-8"?>
<svg version="1.1" xmlns:xlink="http://www.w3.org/1999/xlink" width="12px" height="12px" viewBox="495 589  12 12" xmlns="http://www.w3.org/2000/svg">
  <path d="M 501 589  C 504.36 589  507 591.64  507 595  C 507 598.36  504.36 601  501 601  C 497.64 601  495 598.36  495 595  C 495 591.64  497.64 589  501 589  Z " fill-rule="nonzero" fill="#f0f0f0" stroke="none" />
  <path d="M 501 589.5  C 504.08 589.5  506.5 591.92  506.5 595  C 506.5 598.08  504.08 600.5  501 600.5  C 497.92 600.5  495.5 598.08  495.5 595  C 495.5 591.92  497.92 589.5  501 589.5  Z " stroke-width="1" stroke="#797979" fill="none" />
  <path d="M 501 598  C 499.32 598  498 596.68  498 595  C 498 593.32  499.32 592  501 592  C 502.68 592  504 593.32  504 595  C 504 596.68  502.68 598  501 598  " fill-rule="nonzero" fill="#797979" stroke="none" />
</svg>