<?xml version="1.0" encoding="utf-8"?>
<svg version="1.1" xmlns:xlink="http://www.w3.org/1999/xlink" width="12px" height="12px" viewBox="495 720  12 12" xmlns="http://www.w3.org/2000/svg">
  <path d="M 501 720  C 504.36 720  507 722.64  507 726  C 507 729.36  504.36 732  501 732  C 497.64 732  495 729.36  495 726  C 495 722.64  497.64 720  501 720  Z " fill-rule="nonzero" fill="#ffffff" stroke="none" />
  <path d="M 501 720.5  C 504.08 720.5  506.5 722.92  506.5 726  C 506.5 729.08  504.08 731.5  501 731.5  C 497.92 731.5  495.5 729.08  495.5 726  C 495.5 722.92  497.92 720.5  501 720.5  Z " stroke-width="1" stroke="#797979" fill="none" />
  <path d="M 501 729  C 499.32 729  498 727.68  498 726  C 498 724.32  499.32 723  501 723  C 502.68 723  504 724.32  504 726  C 504 727.68  502.68 729  501 729  " fill-rule="nonzero" fill="#797979" stroke="none" />
</svg>