<?xml version="1.0" encoding="utf-8"?>
<svg version="1.1" xmlns:xlink="http://www.w3.org/1999/xlink" width="12px" height="12px" viewBox="417 331  12 12" xmlns="http://www.w3.org/2000/svg">
  <path d="M 423 331  C 426.36 331  429 333.64  429 337  C 429 340.36  426.36 343  423 343  C 419.64 343  417 340.36  417 337  C 417 333.64  419.64 331  423 331  Z " fill-rule="nonzero" fill="#f0f0f0" stroke="none" />
  <path d="M 423 331.5  C 426.08 331.5  428.5 333.92  428.5 337  C 428.5 340.08  426.08 342.5  423 342.5  C 419.92 342.5  417.5 340.08  417.5 337  C 417.5 333.92  419.92 331.5  423 331.5  Z " stroke-width="1" stroke="#797979" fill="none" />
  <path d="M 423 340  C 421.32 340  420 338.68  420 337  C 420 335.32  421.32 334  423 334  C 424.68 334  426 335.32  426 337  C 426 338.68  424.68 340  423 340  " fill-rule="nonzero" fill="#797979" stroke="none" />
</svg>