<?xml version="1.0" encoding="utf-8"?>
<svg version="1.1" xmlns:xlink="http://www.w3.org/1999/xlink" width="12px" height="12px" viewBox="417 383  12 12" xmlns="http://www.w3.org/2000/svg">
  <path d="M 423 383  C 426.36 383  429 385.64  429 389  C 429 392.36  426.36 395  423 395  C 419.64 395  417 392.36  417 389  C 417 385.64  419.64 383  423 383  Z " fill-rule="nonzero" fill="#f0f0f0" stroke="none" />
  <path d="M 423 383.5  C 426.08 383.5  428.5 385.92  428.5 389  C 428.5 392.08  426.08 394.5  423 394.5  C 419.92 394.5  417.5 392.08  417.5 389  C 417.5 385.92  419.92 383.5  423 383.5  Z " stroke-width="1" stroke="#797979" fill="none" />
  <path d="M 423 392  C 421.32 392  420 390.68  420 389  C 420 387.32  421.32 386  423 386  C 424.68 386  426 387.32  426 389  C 426 390.68  424.68 392  423 392  " fill-rule="nonzero" fill="#797979" stroke="none" />
</svg>