<?xml version="1.0" encoding="utf-8"?>
<svg version="1.1" xmlns:xlink="http://www.w3.org/1999/xlink" width="12px" height="12px" viewBox="1257 302  12 12" xmlns="http://www.w3.org/2000/svg">
  <path d="M 1263 302  C 1266.36 302  1269 304.64  1269 308  C 1269 311.36  1266.36 314  1263 314  C 1259.64 314  1257 311.36  1257 308  C 1257 304.64  1259.64 302  1263 302  Z " fill-rule="nonzero" fill="#ffffff" stroke="none" />
  <path d="M 1263 302.5  C 1266.08 302.5  1268.5 304.92  1268.5 308  C 1268.5 311.08  1266.08 313.5  1263 313.5  C 1259.92 313.5  1257.5 311.08  1257.5 308  C 1257.5 304.92  1259.92 302.5  1263 302.5  Z " stroke-width="1" stroke="#797979" fill="none" />
  <path d="M 1263 311  C 1261.32 311  1260 309.68  1260 308  C 1260 306.32  1261.32 305  1263 305  C 1264.68 305  1266 306.32  1266 308  C 1266 309.68  1264.68 311  1263 311  " fill-rule="nonzero" fill="#797979" stroke="none" />
</svg>