<?xml version="1.0" encoding="utf-8"?>
<svg version="1.1" xmlns:xlink="http://www.w3.org/1999/xlink" width="12px" height="12px" viewBox="1257 339  12 12" xmlns="http://www.w3.org/2000/svg">
  <path d="M 1263 339  C 1266.36 339  1269 341.64  1269 345  C 1269 348.36  1266.36 351  1263 351  C 1259.64 351  1257 348.36  1257 345  C 1257 341.64  1259.64 339  1263 339  Z " fill-rule="nonzero" fill="#f0f0f0" stroke="none" />
  <path d="M 1263 339.5  C 1266.08 339.5  1268.5 341.92  1268.5 345  C 1268.5 348.08  1266.08 350.5  1263 350.5  C 1259.92 350.5  1257.5 348.08  1257.5 345  C 1257.5 341.92  1259.92 339.5  1263 339.5  Z " stroke-width="1" stroke="#797979" fill="none" />
  <path d="M 1263 348  C 1261.32 348  1260 346.68  1260 345  C 1260 343.32  1261.32 342  1263 342  C 1264.68 342  1266 343.32  1266 345  C 1266 346.68  1264.68 348  1263 348  " fill-rule="nonzero" fill="#797979" stroke="none" />
</svg>