<?xml version="1.0" encoding="utf-8"?>
<svg version="1.1" xmlns:xlink="http://www.w3.org/1999/xlink" width="12px" height="12px" viewBox="697 720  12 12" xmlns="http://www.w3.org/2000/svg">
  <path d="M 703 720  C 706.36 720  709 722.64  709 726  C 709 729.36  706.36 732  703 732  C 699.64 732  697 729.36  697 726  C 697 722.64  699.64 720  703 720  Z " fill-rule="nonzero" fill="#ffffff" stroke="none" />
  <path d="M 703 720.5  C 706.08 720.5  708.5 722.92  708.5 726  C 708.5 729.08  706.08 731.5  703 731.5  C 699.92 731.5  697.5 729.08  697.5 726  C 697.5 722.92  699.92 720.5  703 720.5  Z " stroke-width="1" stroke="#797979" fill="none" />
  <path d="M 703 729  C 701.32 729  700 727.68  700 726  C 700 724.32  701.32 723  703 723  C 704.68 723  706 724.32  706 726  C 706 727.68  704.68 729  703 729  " fill-rule="nonzero" fill="#797979" stroke="none" />
</svg>