<?xml version="1.0" encoding="utf-8"?>
<svg version="1.1" xmlns:xlink="http://www.w3.org/1999/xlink" width="12px" height="12px" viewBox="495 434  12 12" xmlns="http://www.w3.org/2000/svg">
  <path d="M 501 434  C 504.36 434  507 436.64  507 440  C 507 443.36  504.36 446  501 446  C 497.64 446  495 443.36  495 440  C 495 436.64  497.64 434  501 434  Z " fill-rule="nonzero" fill="#ffffff" stroke="none" />
  <path d="M 501 434.5  C 504.08 434.5  506.5 436.92  506.5 440  C 506.5 443.08  504.08 445.5  501 445.5  C 497.92 445.5  495.5 443.08  495.5 440  C 495.5 436.92  497.92 434.5  501 434.5  Z " stroke-width="1" stroke="#797979" fill="none" />
  <path d="M 501 443  C 499.32 443  498 441.68  498 440  C 498 438.32  499.32 437  501 437  C 502.68 437  504 438.32  504 440  C 504 441.68  502.68 443  501 443  " fill-rule="nonzero" fill="#797979" stroke="none" />
</svg>