<?xml version="1.0" encoding="utf-8"?>
<svg version="1.1" xmlns:xlink="http://www.w3.org/1999/xlink" width="12px" height="12px" viewBox="410 434  12 12" xmlns="http://www.w3.org/2000/svg">
  <path d="M 416 434  C 419.36 434  422 436.64  422 440  C 422 443.36  419.36 446  416 446  C 412.64 446  410 443.36  410 440  C 410 436.64  412.64 434  416 434  Z " fill-rule="nonzero" fill="#f0f0f0" stroke="none" />
  <path d="M 416 434.5  C 419.08 434.5  421.5 436.92  421.5 440  C 421.5 443.08  419.08 445.5  416 445.5  C 412.92 445.5  410.5 443.08  410.5 440  C 410.5 436.92  412.92 434.5  416 434.5  Z " stroke-width="1" stroke="#797979" fill="none" />
  <path d="M 416 443  C 414.32 443  413 441.68  413 440  C 413 438.32  414.32 437  416 437  C 417.68 437  419 438.32  419 440  C 419 441.68  417.68 443  416 443  " fill-rule="nonzero" fill="#797979" stroke="none" />
</svg>