<?xml version="1.0" encoding="utf-8"?>
<svg version="1.1" xmlns:xlink="http://www.w3.org/1999/xlink" width="12px" height="12px" viewBox="510 466  12 12" xmlns="http://www.w3.org/2000/svg">
  <path d="M 516 466  C 519.36 466  522 468.64  522 472  C 522 475.36  519.36 478  516 478  C 512.64 478  510 475.36  510 472  C 510 468.64  512.64 466  516 466  Z " fill-rule="nonzero" fill="#f0f0f0" stroke="none" />
  <path d="M 516 466.5  C 519.08 466.5  521.5 468.92  521.5 472  C 521.5 475.08  519.08 477.5  516 477.5  C 512.92 477.5  510.5 475.08  510.5 472  C 510.5 468.92  512.92 466.5  516 466.5  Z " stroke-width="1" stroke="#797979" fill="none" />
  <path d="M 516 475  C 514.32 475  513 473.68  513 472  C 513 470.32  514.32 469  516 469  C 517.68 469  519 470.32  519 472  C 519 473.68  517.68 475  516 475  " fill-rule="nonzero" fill="#797979" stroke="none" />
</svg>