<?xml version="1.0" encoding="utf-8"?>
<svg version="1.1" xmlns:xlink="http://www.w3.org/1999/xlink" width="12px" height="12px" viewBox="2189 1134  12 12" xmlns="http://www.w3.org/2000/svg">
  <path d="M 2195 1134  C 2198.36 1134  2201 1136.64  2201 1140  C 2201 1143.36  2198.36 1146  2195 1146  C 2191.64 1146  2189 1143.36  2189 1140  C 2189 1136.64  2191.64 1134  2195 1134  Z " fill-rule="nonzero" fill="#ffffff" stroke="none" />
  <path d="M 2195 1134.5  C 2198.08 1134.5  2200.5 1136.92  2200.5 1140  C 2200.5 1143.08  2198.08 1145.5  2195 1145.5  C 2191.92 1145.5  2189.5 1143.08  2189.5 1140  C 2189.5 1136.92  2191.92 1134.5  2195 1134.5  Z " stroke-width="1" stroke="#797979" fill="none" />
  <path d="M 2195 1143  C 2193.32 1143  2192 1141.68  2192 1140  C 2192 1138.32  2193.32 1137  2195 1137  C 2196.68 1137  2198 1138.32  2198 1140  C 2198 1141.68  2196.68 1143  2195 1143  " fill-rule="nonzero" fill="#797979" stroke="none" />
</svg>