<?xml version="1.0" encoding="utf-8"?>
<svg version="1.1" xmlns:xlink="http://www.w3.org/1999/xlink" width="12px" height="12px" viewBox="2321 1134  12 12" xmlns="http://www.w3.org/2000/svg">
  <path d="M 2327 1134  C 2330.36 1134  2333 1136.64  2333 1140  C 2333 1143.36  2330.36 1146  2327 1146  C 2323.64 1146  2321 1143.36  2321 1140  C 2321 1136.64  2323.64 1134  2327 1134  Z " fill-rule="nonzero" fill="#ffffff" stroke="none" />
  <path d="M 2327 1134.5  C 2330.08 1134.5  2332.5 1136.92  2332.5 1140  C 2332.5 1143.08  2330.08 1145.5  2327 1145.5  C 2323.92 1145.5  2321.5 1143.08  2321.5 1140  C 2321.5 1136.92  2323.92 1134.5  2327 1134.5  Z " stroke-width="1" stroke="#797979" fill="none" />
  <path d="M 2327 1143  C 2325.32 1143  2324 1141.68  2324 1140  C 2324 1138.32  2325.32 1137  2327 1137  C 2328.68 1137  2330 1138.32  2330 1140  C 2330 1141.68  2328.68 1143  2327 1143  " fill-rule="nonzero" fill="#797979" stroke="none" />
</svg>