<?xml version="1.0" encoding="utf-8"?>
<svg version="1.1" xmlns:xlink="http://www.w3.org/1999/xlink" width="12px" height="12px" viewBox="549 2910  12 12" xmlns="http://www.w3.org/2000/svg">
  <path d="M 555 2910  C 558.36 2910  561 2912.64  561 2916  C 561 2919.36  558.36 2922  555 2922  C 551.64 2922  549 2919.36  549 2916  C 549 2912.64  551.64 2910  555 2910  Z " fill-rule="nonzero" fill="#ffffff" stroke="none" />
  <path d="M 555 2910.5  C 558.08 2910.5  560.5 2912.92  560.5 2916  C 560.5 2919.08  558.08 2921.5  555 2921.5  C 551.92 2921.5  549.5 2919.08  549.5 2916  C 549.5 2912.92  551.92 2910.5  555 2910.5  Z " stroke-width="1" stroke="#797979" fill="none" />
  <path d="M 555 2919  C 553.32 2919  552 2917.68  552 2916  C 552 2914.32  553.32 2913  555 2913  C 556.68 2913  558 2914.32  558 2916  C 558 2917.68  556.68 2919  555 2919  " fill-rule="nonzero" fill="#797979" stroke="none" />
</svg>