<?xml version="1.0" encoding="utf-8"?>
<svg version="1.1" xmlns:xlink="http://www.w3.org/1999/xlink" width="12px" height="12px" viewBox="1214 2894  12 12" xmlns="http://www.w3.org/2000/svg">
  <path d="M 1220 2894  C 1223.36 2894  1226 2896.64  1226 2900  C 1226 2903.36  1223.36 2906  1220 2906  C 1216.64 2906  1214 2903.36  1214 2900  C 1214 2896.64  1216.64 2894  1220 2894  Z " fill-rule="nonzero" fill="#ffffff" stroke="none" />
  <path d="M 1220 2894.5  C 1223.08 2894.5  1225.5 2896.92  1225.5 2900  C 1225.5 2903.08  1223.08 2905.5  1220 2905.5  C 1216.92 2905.5  1214.5 2903.08  1214.5 2900  C 1214.5 2896.92  1216.92 2894.5  1220 2894.5  Z " stroke-width="1" stroke="#797979" fill="none" />
  <path d="M 1220 2903  C 1218.32 2903  1217 2901.68  1217 2900  C 1217 2898.32  1218.32 2897  1220 2897  C 1221.68 2897  1223 2898.32  1223 2900  C 1223 2901.68  1221.68 2903  1220 2903  " fill-rule="nonzero" fill="#797979" stroke="none" />
</svg>