<?xml version="1.0" encoding="utf-8"?>
<svg version="1.1" xmlns:xlink="http://www.w3.org/1999/xlink" width="42px" height="24px" xmlns="http://www.w3.org/2000/svg">
  <g transform="matrix(1 0 0 1 -1748 -13 )">
    <path d="M 1769 13  C 1780.76 13  1790 18.28  1790 25  C 1790 31.72  1780.76 37  1769 37  C 1757.24 37  1748 31.72  1748 25  C 1748 18.28  1757.24 13  1769 13  Z " fill-rule="nonzero" fill="#ffffff" stroke="none" />
    <path d="M 1769 13.5  C 1780.48 13.5  1789.5 18.56  1789.5 25  C 1789.5 31.44  1780.48 36.5  1769 36.5  C 1757.52 36.5  1748.5 31.44  1748.5 25  C 1748.5 18.56  1757.52 13.5  1769 13.5  Z " stroke-width="1" stroke="#ff0000" fill="none" />
  </g>
</svg>