<?xml version="1.0" encoding="utf-8"?>
<svg version="1.1" xmlns:xlink="http://www.w3.org/1999/xlink" width="354px" height="46px" xmlns="http://www.w3.org/2000/svg">
  <defs>
    <filter x="1206px" y="2715px" width="354px" height="46px" filterUnits="userSpaceOnUse" id="filter566">
      <feOffset dx="0" dy="0" in="SourceAlpha" result="shadowOffsetInner" />
      <feGaussianBlur stdDeviation="1.5" in="shadowOffsetInner" result="shadowGaussian" />
      <feComposite in2="shadowGaussian" operator="atop" in="SourceAlpha" result="shadowComposite" />
      <feColorMatrix type="matrix" values="0 0 0 0 0  0 0 0 0 0.474509803921569  0 0 0 0 0.996078431372549  0 0 0 0.8 0  " in="shadowComposite" />
    </filter>
    <g id="widget567">
      <path d="M 1209.5 2721  A 2.5 2.5 0 0 1 1212 2718.5 L 1554 2718.5  A 2.5 2.5 0 0 1 1556.5 2721 L 1556.5 2755  A 2.5 2.5 0 0 1 1554 2757.5 L 1212 2757.5  A 2.5 2.5 0 0 1 1209.5 2755 L 1209.5 2721  Z " fill-rule="nonzero" fill="#ffffff" stroke="none" />
      <path d="M 1209.5 2721  A 2.5 2.5 0 0 1 1212 2718.5 L 1554 2718.5  A 2.5 2.5 0 0 1 1556.5 2721 L 1556.5 2755  A 2.5 2.5 0 0 1 1554 2757.5 L 1212 2757.5  A 2.5 2.5 0 0 1 1209.5 2755 L 1209.5 2721  Z " stroke-width="1" stroke="#0079fe" fill="none" />
    </g>
  </defs>
  <g transform="matrix(1 0 0 1 -1206 -2715 )">
    <use xlink:href="#widget567" filter="url(#filter566)" />
    <use xlink:href="#widget567" />
  </g>
</svg>