<?xml version="1.0" encoding="utf-8"?>
<svg version="1.1" xmlns:xlink="http://www.w3.org/1999/xlink" width="181px" height="41px" xmlns="http://www.w3.org/2000/svg">
  <defs>
    <filter x="2487px" y="3157px" width="181px" height="41px" filterUnits="userSpaceOnUse" id="filter578">
      <feOffset dx="0" dy="0" in="SourceAlpha" result="shadowOffsetInner" />
      <feGaussianBlur stdDeviation="1.5" in="shadowOffsetInner" result="shadowGaussian" />
      <feComposite in2="shadowGaussian" operator="atop" in="SourceAlpha" result="shadowComposite" />
      <feColorMatrix type="matrix" values="0 0 0 0 0  0 0 0 0 0.474509803921569  0 0 0 0 0.996078431372549  0 0 0 0.8 0  " in="shadowComposite" />
    </filter>
    <g id="widget579">
      <path d="M 2490.5 3163  A 2.5 2.5 0 0 1 2493 3160.5 L 2662 3160.5  A 2.5 2.5 0 0 1 2664.5 3163 L 2664.5 3192  A 2.5 2.5 0 0 1 2662 3194.5 L 2493 3194.5  A 2.5 2.5 0 0 1 2490.5 3192 L 2490.5 3163  Z " fill-rule="nonzero" fill="#ffffff" stroke="none" />
      <path d="M 2490.5 3163  A 2.5 2.5 0 0 1 2493 3160.5 L 2662 3160.5  A 2.5 2.5 0 0 1 2664.5 3163 L 2664.5 3192  A 2.5 2.5 0 0 1 2662 3194.5 L 2493 3194.5  A 2.5 2.5 0 0 1 2490.5 3192 L 2490.5 3163  Z " stroke-width="1" stroke="#0079fe" fill="none" />
    </g>
  </defs>
  <g transform="matrix(1 0 0 1 -2487 -3157 )">
    <use xlink:href="#widget579" filter="url(#filter578)" />
    <use xlink:href="#widget579" />
  </g>
</svg>