<?xml version="1.0" encoding="utf-8"?>
<svg version="1.1" xmlns:xlink="http://www.w3.org/1999/xlink" width="348px" height="40px" xmlns="http://www.w3.org/2000/svg">
  <g transform="matrix(1 0 0 1 -1209 -2718 )">
    <path d="M 1209.5 2721  A 2.5 2.5 0 0 1 1212 2718.5 L 1554 2718.5  A 2.5 2.5 0 0 1 1556.5 2721 L 1556.5 2755  A 2.5 2.5 0 0 1 1554 2757.5 L 1212 2757.5  A 2.5 2.5 0 0 1 1209.5 2755 L 1209.5 2721  Z " fill-rule="nonzero" fill="#ffffff" stroke="none" />
    <path d="M 1209.5 2721  A 2.5 2.5 0 0 1 1212 2718.5 L 1554 2718.5  A 2.5 2.5 0 0 1 1556.5 2721 L 1556.5 2755  A 2.5 2.5 0 0 1 1554 2757.5 L 1212 2757.5  A 2.5 2.5 0 0 1 1209.5 2755 L 1209.5 2721  Z " stroke-width="1" stroke="#0079fe" fill="none" />
  </g>
</svg>