<?xml version="1.0" encoding="utf-8"?>
<svg version="1.1" xmlns:xlink="http://www.w3.org/1999/xlink" width="175px" height="35px" xmlns="http://www.w3.org/2000/svg">
  <g transform="matrix(1 0 0 1 -2490 -3160 )">
    <path d="M 2490.5 3163  A 2.5 2.5 0 0 1 2493 3160.5 L 2662 3160.5  A 2.5 2.5 0 0 1 2664.5 3163 L 2664.5 3192  A 2.5 2.5 0 0 1 2662 3194.5 L 2493 3194.5  A 2.5 2.5 0 0 1 2490.5 3192 L 2490.5 3163  Z " fill-rule="nonzero" fill="#ffffff" stroke="none" />
    <path d="M 2490.5 3163  A 2.5 2.5 0 0 1 2493 3160.5 L 2662 3160.5  A 2.5 2.5 0 0 1 2664.5 3163 L 2664.5 3192  A 2.5 2.5 0 0 1 2662 3194.5 L 2493 3194.5  A 2.5 2.5 0 0 1 2490.5 3192 L 2490.5 3163  Z " stroke-width="1" stroke="#0079fe" fill="none" />
  </g>
</svg>