<?xml version="1.0" encoding="utf-8"?>
<svg version="1.1" xmlns:xlink="http://www.w3.org/1999/xlink" width="12px" height="12px" viewBox="414 1556  12 12" xmlns="http://www.w3.org/2000/svg">
  <path d="M 420 1556  C 423.36 1556  426 1558.64  426 1562  C 426 1565.36  423.36 1568  420 1568  C 416.64 1568  414 1565.36  414 1562  C 414 1558.64  416.64 1556  420 1556  Z " fill-rule="nonzero" fill="#f0f0f0" stroke="none" />
  <path d="M 420 1556.5  C 423.08 1556.5  425.5 1558.92  425.5 1562  C 425.5 1565.08  423.08 1567.5  420 1567.5  C 416.92 1567.5  414.5 1565.08  414.5 1562  C 414.5 1558.92  416.92 1556.5  420 1556.5  Z " stroke-width="1" stroke="#797979" fill="none" />
  <path d="M 420 1565  C 418.32 1565  417 1563.68  417 1562  C 417 1560.32  418.32 1559  420 1559  C 421.68 1559  423 1560.32  423 1562  C 423 1563.68  421.68 1565  420 1565  " fill-rule="nonzero" fill="#797979" stroke="none" />
</svg>