<?xml version="1.0" encoding="utf-8"?>
<svg version="1.1" xmlns:xlink="http://www.w3.org/1999/xlink" width="12px" height="12px" viewBox="916 569  12 12" xmlns="http://www.w3.org/2000/svg">
  <path d="M 922 569  C 925.36 569  928 571.64  928 575  C 928 578.36  925.36 581  922 581  C 918.64 581  916 578.36  916 575  C 916 571.64  918.64 569  922 569  Z " fill-rule="nonzero" fill="#ffffff" stroke="none" />
  <path d="M 922 569.5  C 925.08 569.5  927.5 571.92  927.5 575  C 927.5 578.08  925.08 580.5  922 580.5  C 918.92 580.5  916.5 578.08  916.5 575  C 916.5 571.92  918.92 569.5  922 569.5  Z " stroke-width="1" stroke="#797979" fill="none" />
  <path d="M 922 578  C 920.32 578  919 576.68  919 575  C 919 573.32  920.32 572  922 572  C 923.68 572  925 573.32  925 575  C 925 576.68  923.68 578  922 578  " fill-rule="nonzero" fill="#797979" stroke="none" />
</svg>