<?xml version="1.0" encoding="utf-8"?>
<svg version="1.1" xmlns:xlink="http://www.w3.org/1999/xlink" width="12px" height="12px" viewBox="1388 572  12 12" xmlns="http://www.w3.org/2000/svg">
  <path d="M 1394 572  C 1397.36 572  1400 574.64  1400 578  C 1400 581.36  1397.36 584  1394 584  C 1390.64 584  1388 581.36  1388 578  C 1388 574.64  1390.64 572  1394 572  Z " fill-rule="nonzero" fill="#ffffff" stroke="none" />
  <path d="M 1394 572.5  C 1397.08 572.5  1399.5 574.92  1399.5 578  C 1399.5 581.08  1397.08 583.5  1394 583.5  C 1390.92 583.5  1388.5 581.08  1388.5 578  C 1388.5 574.92  1390.92 572.5  1394 572.5  Z " stroke-width="1" stroke="#797979" fill="none" />
  <path d="M 1394 581  C 1392.32 581  1391 579.68  1391 578  C 1391 576.32  1392.32 575  1394 575  C 1395.68 575  1397 576.32  1397 578  C 1397 579.68  1395.68 581  1394 581  " fill-rule="nonzero" fill="#797979" stroke="none" />
</svg>