<?xml version="1.0" encoding="utf-8"?>
<svg version="1.1" xmlns:xlink="http://www.w3.org/1999/xlink" width="76px" height="61px" xmlns="http://www.w3.org/2000/svg">
  <g transform="matrix(1 0 0 1 -347 -621 )">
    <path d="M 347 621  L 423 621  L 423 682  L 347 682  L 347 621  " fill-rule="nonzero" fill="#cccccc" stroke="none" />
    <path d="M 351 625  L 419 625  L 419 678  L 351 678  L 351 625  " fill-rule="nonzero" fill="#ffffff" stroke="none" />
    <path d="M 391.095 639.3  C 388.533 639.3  386.52 637.287  386.52 634.725  C 386.52 632.163  388.533 630.15  391.095 630.15  C 393.657 630.15  395.67 632.163  395.67 634.725  C 395.67 637.287  393.657 639.3  391.095 639.3  " fill-rule="nonzero" fill="#cccccc" stroke="none" />
    <path d="M 353 677  L 353 649.5  L 369.25 637  L 392 652.921052631579  L 405 644.5  L 418 652.921052631579  L 418 677  L 353 677  " fill-rule="nonzero" fill="#169bd5" stroke="none" />
  </g>
</svg>