<?xml version="1.0" encoding="utf-8"?>
<svg version="1.1" xmlns:xlink="http://www.w3.org/1999/xlink" width="12px" height="12px" viewBox="405 116  12 12" xmlns="http://www.w3.org/2000/svg">
  <path d="M 411 116  C 414.36 116  417 118.64  417 122  C 417 125.36  414.36 128  411 128  C 407.64 128  405 125.36  405 122  C 405 118.64  407.64 116  411 116  Z " fill-rule="nonzero" fill="#ffffff" stroke="none" />
  <path d="M 411 116.5  C 414.08 116.5  416.5 118.92  416.5 122  C 416.5 125.08  414.08 127.5  411 127.5  C 407.92 127.5  405.5 125.08  405.5 122  C 405.5 118.92  407.92 116.5  411 116.5  Z " stroke-width="1" stroke="#797979" fill="none" />
  <path d="M 411 125  C 409.32 125  408 123.68  408 122  C 408 120.32  409.32 119  411 119  C 412.68 119  414 120.32  414 122  C 414 123.68  412.68 125  411 125  " fill-rule="nonzero" fill="#797979" stroke="none" />
</svg>