<?xml version="1.0" encoding="utf-8"?>
<svg version="1.1" xmlns:xlink="http://www.w3.org/1999/xlink" width="12px" height="12px" viewBox="2147 1110  12 12" xmlns="http://www.w3.org/2000/svg">
  <path d="M 2153 1110  C 2156.36 1110  2159 1112.64  2159 1116  C 2159 1119.36  2156.36 1122  2153 1122  C 2149.64 1122  2147 1119.36  2147 1116  C 2147 1112.64  2149.64 1110  2153 1110  Z " fill-rule="nonzero" fill="#ffffff" stroke="none" />
  <path d="M 2153 1110.5  C 2156.08 1110.5  2158.5 1112.92  2158.5 1116  C 2158.5 1119.08  2156.08 1121.5  2153 1121.5  C 2149.92 1121.5  2147.5 1119.08  2147.5 1116  C 2147.5 1112.92  2149.92 1110.5  2153 1110.5  Z " stroke-width="1" stroke="#797979" fill="none" />
  <path d="M 2153 1119  C 2151.32 1119  2150 1117.68  2150 1116  C 2150 1114.32  2151.32 1113  2153 1113  C 2154.68 1113  2156 1114.32  2156 1116  C 2156 1117.68  2154.68 1119  2153 1119  " fill-rule="nonzero" fill="#797979" stroke="none" />
</svg>