<?xml version="1.0" encoding="utf-8"?>
<svg version="1.1" xmlns:xlink="http://www.w3.org/1999/xlink" width="12px" height="12px" viewBox="2055 1110  12 12" xmlns="http://www.w3.org/2000/svg">
  <path d="M 2061 1110  C 2064.36 1110  2067 1112.64  2067 1116  C 2067 1119.36  2064.36 1122  2061 1122  C 2057.64 1122  2055 1119.36  2055 1116  C 2055 1112.64  2057.64 1110  2061 1110  Z " fill-rule="nonzero" fill="#f0f0f0" stroke="none" />
  <path d="M 2061 1110.5  C 2064.08 1110.5  2066.5 1112.92  2066.5 1116  C 2066.5 1119.08  2064.08 1121.5  2061 1121.5  C 2057.92 1121.5  2055.5 1119.08  2055.5 1116  C 2055.5 1112.92  2057.92 1110.5  2061 1110.5  Z " stroke-width="1" stroke="#797979" fill="none" />
  <path d="M 2061 1119  C 2059.32 1119  2058 1117.68  2058 1116  C 2058 1114.32  2059.32 1113  2061 1113  C 2062.68 1113  2064 1114.32  2064 1116  C 2064 1117.68  2062.68 1119  2061 1119  " fill-rule="nonzero" fill="#797979" stroke="none" />
</svg>