<?xml version="1.0" encoding="utf-8"?>
<svg version="1.1" xmlns:xlink="http://www.w3.org/1999/xlink" width="12px" height="12px" viewBox="2147 1481  12 12" xmlns="http://www.w3.org/2000/svg">
  <path d="M 2153 1481  C 2156.36 1481  2159 1483.64  2159 1487  C 2159 1490.36  2156.36 1493  2153 1493  C 2149.64 1493  2147 1490.36  2147 1487  C 2147 1483.64  2149.64 1481  2153 1481  Z " fill-rule="nonzero" fill="#f0f0f0" stroke="none" />
  <path d="M 2153 1481.5  C 2156.08 1481.5  2158.5 1483.92  2158.5 1487  C 2158.5 1490.08  2156.08 1492.5  2153 1492.5  C 2149.92 1492.5  2147.5 1490.08  2147.5 1487  C 2147.5 1483.92  2149.92 1481.5  2153 1481.5  Z " stroke-width="1" stroke="#797979" fill="none" />
  <path d="M 2153 1490  C 2151.32 1490  2150 1488.68  2150 1487  C 2150 1485.32  2151.32 1484  2153 1484  C 2154.68 1484  2156 1485.32  2156 1487  C 2156 1488.68  2154.68 1490  2153 1490  " fill-rule="nonzero" fill="#797979" stroke="none" />
</svg>