<?xml version="1.0" encoding="utf-8"?>
<svg version="1.1" xmlns:xlink="http://www.w3.org/1999/xlink" width="12px" height="12px" viewBox="390 537  12 12" xmlns="http://www.w3.org/2000/svg">
  <path d="M 396 537  C 399.36 537  402 539.64  402 543  C 402 546.36  399.36 549  396 549  C 392.64 549  390 546.36  390 543  C 390 539.64  392.64 537  396 537  Z " fill-rule="nonzero" fill="#ffffff" stroke="none" />
  <path d="M 396 537.5  C 399.08 537.5  401.5 539.92  401.5 543  C 401.5 546.08  399.08 548.5  396 548.5  C 392.92 548.5  390.5 546.08  390.5 543  C 390.5 539.92  392.92 537.5  396 537.5  Z " stroke-width="1" stroke="#797979" fill="none" />
  <path d="M 396 546  C 394.32 546  393 544.68  393 543  C 393 541.32  394.32 540  396 540  C 397.68 540  399 541.32  399 543  C 399 544.68  397.68 546  396 546  " fill-rule="nonzero" fill="#797979" stroke="none" />
</svg>