<?xml version="1.0" encoding="utf-8"?>
<svg version="1.1" xmlns:xlink="http://www.w3.org/1999/xlink" width="60px" height="60px" xmlns="http://www.w3.org/2000/svg">
  <g transform="matrix(1 0 0 1 -1565 -772 )">
    <path d="M 23.59236328125 23.64328125  C 17.71376953125 30.25951171875  10.988671875 41.73650390625  14.35119140625 44.84390625  C 17.71376953125 47.95130859375  26.74306640625 41.5102734375  33.4850390625 36.43125  C 40.22701171875 31.35234375  45.5441015625 25.7075390625  45 25.7075390625  L 45 47.95130859375  L 33.4850390625 60  L 2 60  L 2 8  L 38.7984375 8  C 38.7984375 7.7342578125  29.47095703125 17.02705078125  23.59236328125 23.64328125  Z M 30.77888671875 33.29373046875  C 30.77888671875 33.29373046875  19.81201171875 42.13125  18.1434375 40.43361328125  C 16.4785546875 38.73615234375  25.1647265625 27.57814453125  25.1647265625 27.57814453125  L 30.77888671875 33.29373046875  Z M 26.6541796875 26.06267578125  L 46.30734375 6.06720703125  L 51.9249609375 11.77916015625  L 32.26833984375 31.7746875  L 26.65412109375 26.06267578125  Z M 51.92490234375 0.3515625  L 57.5390625 6.0671484375  L 53.4144140625 10.26369140625  L 47.80025390625 4.54810546875  L 51.9249609375 0.3515625  Z " fill-rule="nonzero" fill="#6e9ff4" stroke="none" transform="matrix(1 0 0 1 1565 772 )" />
  </g>
</svg>