<?xml version="1.0" encoding="utf-8"?>
<svg version="1.1" xmlns:xlink="http://www.w3.org/1999/xlink" width="136px" height="253px" xmlns="http://www.w3.org/2000/svg">
  <g transform="matrix(1 0 0 1 -1674 -699 )">
    <path d="M 1674 699  L 1810 699  L 1810 952  L 1674 952  L 1674 699  " fill-rule="nonzero" fill="#cccccc" stroke="none" />
    <path d="M 1684 709  L 1800 709  L 1800 942  L 1684 942  L 1684 709  " fill-rule="nonzero" fill="#ffffff" stroke="none" />
    <path d="M 1754.92 757.35  C 1749.208 757.35  1744.72 752.862  1744.72 747.15  C 1744.72 741.438  1749.208 736.95  1754.92 736.95  C 1760.632 736.95  1765.12 741.438  1765.12 747.15  C 1765.12 752.862  1760.632 757.35  1754.92 757.35  " fill-rule="nonzero" fill="#cccccc" stroke="none" />
    <path d="M 1688 939  L 1688 814.7  L 1715.25 758.2  L 1753.4 803.4  L 1775.2 792.1  L 1797 803.4  L 1797 939  L 1688 939  " fill-rule="nonzero" fill="#169bd5" stroke="none" />
  </g>
</svg>