<svg t="1727573814010" class="icon" viewBox="0 0 1024 1024" version="1.1" xmlns="http://www.w3.org/2000/svg" p-id="6941" width="200" height="200"><path d="M724.114286 307.2L394.971429 636.342857l-87.771429-146.285714c-7.314286-21.942857-29.257143-29.257143-51.2-21.942857-14.628571 14.628571-21.942857 36.571429-7.314286 51.2l109.714286 190.171428c0 14.628571 14.628571 21.942857 29.257143 21.942857 7.314286 0 14.628571 0 14.628571-7.314285l7.314286-7.314286 358.4-358.4c14.628571-14.628571 14.628571-36.571429 0-51.2-7.314286-14.628571-29.257143-14.628571-43.885714 0zM512 0C226.742857 0 0 226.742857 0 512s226.742857 512 512 512 512-226.742857 512-512-226.742857-512-512-512z m314.514286 826.514286c-43.885714 43.885714-87.771429 73.142857-138.971429 95.085714-58.514286 21.942857-117.028571 29.257143-175.542857 29.257143s-117.028571-14.628571-168.228571-36.571429c-51.2-21.942857-102.4-51.2-138.971429-95.085714-43.885714-43.885714-73.142857-87.771429-95.085714-138.971429C80.457143 629.028571 73.142857 570.514286 73.142857 512s14.628571-117.028571 36.571429-168.228571c21.942857-51.2 51.2-102.4 95.085714-138.971429 43.885714-43.885714 87.771429-73.142857 138.971429-95.085714C394.971429 80.457143 453.485714 73.142857 512 73.142857s117.028571 14.628571 168.228571 36.571429c51.2 21.942857 102.4 51.2 138.971429 95.085714 43.885714 43.885714 73.142857 87.771429 95.085714 138.971429 29.257143 51.2 36.571429 109.714286 36.571429 168.228571s-14.628571 117.028571-36.571429 168.228571c-21.942857 58.514286-51.2 102.4-87.771428 146.285715z" fill="#52C41A" p-id="6942"></path></svg>