<?xml version="1.0" encoding="utf-8"?>
<svg version="1.1" xmlns:xlink="http://www.w3.org/1999/xlink" width="12px" height="12px" viewBox="2373 2047  12 12" xmlns="http://www.w3.org/2000/svg">
  <path d="M 2379 2047  C 2382.36 2047  2385 2049.64  2385 2053  C 2385 2056.36  2382.36 2059  2379 2059  C 2375.64 2059  2373 2056.36  2373 2053  C 2373 2049.64  2375.64 2047  2379 2047  Z " fill-rule="nonzero" fill="#ffffff" stroke="none" />
  <path d="M 2379 2047.5  C 2382.08 2047.5  2384.5 2049.92  2384.5 2053  C 2384.5 2056.08  2382.08 2058.5  2379 2058.5  C 2375.92 2058.5  2373.5 2056.08  2373.5 2053  C 2373.5 2049.92  2375.92 2047.5  2379 2047.5  Z " stroke-width="1" stroke="#797979" fill="none" />
  <path d="M 2379 2056  C 2377.32 2056  2376 2054.68  2376 2053  C 2376 2051.32  2377.32 2050  2379 2050  C 2380.68 2050  2382 2051.32  2382 2053  C 2382 2054.68  2380.68 2056  2379 2056  " fill-rule="nonzero" fill="#797979" stroke="none" />
</svg>