<?xml version="1.0" encoding="utf-8"?>
<svg version="1.1" xmlns:xlink="http://www.w3.org/1999/xlink" width="12px" height="12px" viewBox="2373 1919  12 12" xmlns="http://www.w3.org/2000/svg">
  <path d="M 2379 1919  C 2382.36 1919  2385 1921.64  2385 1925  C 2385 1928.36  2382.36 1931  2379 1931  C 2375.64 1931  2373 1928.36  2373 1925  C 2373 1921.64  2375.64 1919  2379 1919  Z " fill-rule="nonzero" fill="#f0f0f0" stroke="none" />
  <path d="M 2379 1919.5  C 2382.08 1919.5  2384.5 1921.92  2384.5 1925  C 2384.5 1928.08  2382.08 1930.5  2379 1930.5  C 2375.92 1930.5  2373.5 1928.08  2373.5 1925  C 2373.5 1921.92  2375.92 1919.5  2379 1919.5  Z " stroke-width="1" stroke="#797979" fill="none" />
  <path d="M 2379 1928  C 2377.32 1928  2376 1926.68  2376 1925  C 2376 1923.32  2377.32 1922  2379 1922  C 2380.68 1922  2382 1923.32  2382 1925  C 2382 1926.68  2380.68 1928  2379 1928  " fill-rule="nonzero" fill="#797979" stroke="none" />
</svg>