<?xml version="1.0" encoding="utf-8"?>
<svg version="1.1" xmlns:xlink="http://www.w3.org/1999/xlink" width="12px" height="12px" viewBox="2249 2047  12 12" xmlns="http://www.w3.org/2000/svg">
  <path d="M 2255 2047  C 2258.36 2047  2261 2049.64  2261 2053  C 2261 2056.36  2258.36 2059  2255 2059  C 2251.64 2059  2249 2056.36  2249 2053  C 2249 2049.64  2251.64 2047  2255 2047  Z " fill-rule="nonzero" fill="#ffffff" stroke="none" />
  <path d="M 2255 2047.5  C 2258.08 2047.5  2260.5 2049.92  2260.5 2053  C 2260.5 2056.08  2258.08 2058.5  2255 2058.5  C 2251.92 2058.5  2249.5 2056.08  2249.5 2053  C 2249.5 2049.92  2251.92 2047.5  2255 2047.5  Z " stroke-width="1" stroke="#797979" fill="none" />
  <path d="M 2255 2056  C 2253.32 2056  2252 2054.68  2252 2053  C 2252 2051.32  2253.32 2050  2255 2050  C 2256.68 2050  2258 2051.32  2258 2053  C 2258 2054.68  2256.68 2056  2255 2056  " fill-rule="nonzero" fill="#797979" stroke="none" />
</svg>