<?xml version="1.0" encoding="utf-8"?>
<svg version="1.1" xmlns:xlink="http://www.w3.org/1999/xlink" width="12px" height="12px" viewBox="2373 1115  12 12" xmlns="http://www.w3.org/2000/svg">
  <path d="M 2379 1115  C 2382.36 1115  2385 1117.64  2385 1121  C 2385 1124.36  2382.36 1127  2379 1127  C 2375.64 1127  2373 1124.36  2373 1121  C 2373 1117.64  2375.64 1115  2379 1115  Z " fill-rule="nonzero" fill="#f0f0f0" stroke="none" />
  <path d="M 2379 1115.5  C 2382.08 1115.5  2384.5 1117.92  2384.5 1121  C 2384.5 1124.08  2382.08 1126.5  2379 1126.5  C 2375.92 1126.5  2373.5 1124.08  2373.5 1121  C 2373.5 1117.92  2375.92 1115.5  2379 1115.5  Z " stroke-width="1" stroke="#797979" fill="none" />
  <path d="M 2379 1124  C 2377.32 1124  2376 1122.68  2376 1121  C 2376 1119.32  2377.32 1118  2379 1118  C 2380.68 1118  2382 1119.32  2382 1121  C 2382 1122.68  2380.68 1124  2379 1124  " fill-rule="nonzero" fill="#797979" stroke="none" />
</svg>