<?xml version="1.0" encoding="utf-8"?>
<svg version="1.1" xmlns:xlink="http://www.w3.org/1999/xlink" width="12px" height="12px" viewBox="2249 1243  12 12" xmlns="http://www.w3.org/2000/svg">
  <path d="M 2255 1243  C 2258.36 1243  2261 1245.64  2261 1249  C 2261 1252.36  2258.36 1255  2255 1255  C 2251.64 1255  2249 1252.36  2249 1249  C 2249 1245.64  2251.64 1243  2255 1243  Z " fill-rule="nonzero" fill="#ffffff" stroke="none" />
  <path d="M 2255 1243.5  C 2258.08 1243.5  2260.5 1245.92  2260.5 1249  C 2260.5 1252.08  2258.08 1254.5  2255 1254.5  C 2251.92 1254.5  2249.5 1252.08  2249.5 1249  C 2249.5 1245.92  2251.92 1243.5  2255 1243.5  Z " stroke-width="1" stroke="#797979" fill="none" />
  <path d="M 2255 1252  C 2253.32 1252  2252 1250.68  2252 1249  C 2252 1247.32  2253.32 1246  2255 1246  C 2256.68 1246  2258 1247.32  2258 1249  C 2258 1250.68  2256.68 1252  2255 1252  " fill-rule="nonzero" fill="#797979" stroke="none" />
</svg>