<?xml version="1.0" encoding="utf-8"?>
<svg version="1.1" xmlns:xlink="http://www.w3.org/1999/xlink" width="12px" height="12px" viewBox="2857 2047  12 12" xmlns="http://www.w3.org/2000/svg">
  <path d="M 2863 2047  C 2866.36 2047  2869 2049.64  2869 2053  C 2869 2056.36  2866.36 2059  2863 2059  C 2859.64 2059  2857 2056.36  2857 2053  C 2857 2049.64  2859.64 2047  2863 2047  Z " fill-rule="nonzero" fill="#ffffff" stroke="none" />
  <path d="M 2863 2047.5  C 2866.08 2047.5  2868.5 2049.92  2868.5 2053  C 2868.5 2056.08  2866.08 2058.5  2863 2058.5  C 2859.92 2058.5  2857.5 2056.08  2857.5 2053  C 2857.5 2049.92  2859.92 2047.5  2863 2047.5  Z " stroke-width="1" stroke="#797979" fill="none" />
  <path d="M 2863 2056  C 2861.32 2056  2860 2054.68  2860 2053  C 2860 2051.32  2861.32 2050  2863 2050  C 2864.68 2050  2866 2051.32  2866 2053  C 2866 2054.68  2864.68 2056  2863 2056  " fill-rule="nonzero" fill="#797979" stroke="none" />
</svg>