<?xml version="1.0" encoding="utf-8"?>
<svg version="1.1" xmlns:xlink="http://www.w3.org/1999/xlink" width="170px" height="170px" xmlns="http://www.w3.org/2000/svg">
  <g transform="matrix(1 0 0 1 -2574 -1800 )">
    <path d="M 2659 1800  C 2706.6 1800  2744 1837.4  2744 1885  C 2744 1932.6  2706.6 1970  2659 1970  C 2611.4 1970  2574 1932.6  2574 1885  C 2574 1837.4  2611.4 1800  2659 1800  Z " fill-rule="nonzero" fill="#ffffff" stroke="none" />
    <path d="M 2659 1800.5  C 2706.32 1800.5  2743.5 1837.68  2743.5 1885  C 2743.5 1932.32  2706.32 1969.5  2659 1969.5  C 2611.68 1969.5  2574.5 1932.32  2574.5 1885  C 2574.5 1837.68  2611.68 1800.5  2659 1800.5  Z " stroke-width="1" stroke="#666666" fill="none" />
  </g>
</svg>