<?xml version="1.0" encoding="utf-8"?>
<svg version="1.1" xmlns:xlink="http://www.w3.org/1999/xlink" width="65px" height="59px" xmlns="http://www.w3.org/2000/svg">
  <g transform="matrix(1 0 0 1 -324 -368 )">
    <path d="M 324 368  L 389 368  L 389 427  L 324 427  L 324 368  " fill-rule="nonzero" fill="#cccccc" stroke="none" />
    <path d="M 328 372  L 385 372  L 385 423  L 328 423  L 328 372  " fill-rule="nonzero" fill="#ffffff" stroke="none" />
    <path d="M 362.225 385.7  C 359.747 385.7  357.8 383.753  357.8 381.275  C 357.8 378.797  359.747 376.85  362.225 376.85  C 364.703 376.85  366.65 378.797  366.65 381.275  C 366.65 383.753  364.703 385.7  362.225 385.7  " fill-rule="nonzero" fill="#cccccc" stroke="none" />
    <path d="M 330 422  L 330 395.6  L 343.5 383.6  L 362.4 395.858461538462  L 373.2 390.8  L 384 395.858461538462  L 384 422  L 330 422  " fill-rule="nonzero" fill="#169bd5" stroke="none" />
  </g>
</svg>