<?xml version="1.0" encoding="utf-8"?>
<svg version="1.1" xmlns:xlink="http://www.w3.org/1999/xlink" width="22px" height="22px" xmlns="http://www.w3.org/2000/svg">
  <g transform="matrix(1 0 0 1 -1943 -3920 )">
    <path d="M 1954 3920  C 1960.16 3920  1965 3924.84  1965 3931  C 1965 3937.16  1960.16 3942  1954 3942  C 1947.84 3942  1943 3937.16  1943 3931  C 1943 3924.84  1947.84 3920  1954 3920  Z " fill-rule="nonzero" fill="#ffffff" stroke="none" />
    <path d="M 1954 3920.5  C 1959.88 3920.5  1964.5 3925.12  1964.5 3931  C 1964.5 3936.88  1959.88 3941.5  1954 3941.5  C 1948.12 3941.5  1943.5 3936.88  1943.5 3931  C 1943.5 3925.12  1948.12 3920.5  1954 3920.5  Z " stroke-width="1" stroke="#cccccc" fill="none" />
  </g>
</svg>