<?xml version="1.0" encoding="utf-8"?>
<svg version="1.1" xmlns:xlink="http://www.w3.org/1999/xlink" width="12px" height="12px" viewBox="2882 2556  12 12" xmlns="http://www.w3.org/2000/svg">
  <path d="M 2888 2556  C 2891.36 2556  2894 2558.64  2894 2562  C 2894 2565.36  2891.36 2568  2888 2568  C 2884.64 2568  2882 2565.36  2882 2562  C 2882 2558.64  2884.64 2556  2888 2556  Z " fill-rule="nonzero" fill="#f0f0f0" stroke="none" />
  <path d="M 2888 2556.5  C 2891.08 2556.5  2893.5 2558.92  2893.5 2562  C 2893.5 2565.08  2891.08 2567.5  2888 2567.5  C 2884.92 2567.5  2882.5 2565.08  2882.5 2562  C 2882.5 2558.92  2884.92 2556.5  2888 2556.5  Z " stroke-width="1" stroke="#797979" fill="none" />
  <path d="M 2888 2565  C 2886.32 2565  2885 2563.68  2885 2562  C 2885 2560.32  2886.32 2559  2888 2559  C 2889.68 2559  2891 2560.32  2891 2562  C 2891 2563.68  2889.68 2565  2888 2565  " fill-rule="nonzero" fill="#797979" stroke="none" />
</svg>