<?xml version="1.0" encoding="utf-8"?>
<svg version="1.1" xmlns:xlink="http://www.w3.org/1999/xlink" width="12px" height="12px" viewBox="492 173  12 12" xmlns="http://www.w3.org/2000/svg">
  <path d="M 498 173  C 501.36 173  504 175.64  504 179  C 504 182.36  501.36 185  498 185  C 494.64 185  492 182.36  492 179  C 492 175.64  494.64 173  498 173  Z " fill-rule="nonzero" fill="#ffffff" stroke="none" />
  <path d="M 498 173.5  C 501.08 173.5  503.5 175.92  503.5 179  C 503.5 182.08  501.08 184.5  498 184.5  C 494.92 184.5  492.5 182.08  492.5 179  C 492.5 175.92  494.92 173.5  498 173.5  Z " stroke-width="1" stroke="#797979" fill="none" />
  <path d="M 498 182  C 496.32 182  495 180.68  495 179  C 495 177.32  496.32 176  498 176  C 499.68 176  501 177.32  501 179  C 501 180.68  499.68 182  498 182  " fill-rule="nonzero" fill="#797979" stroke="none" />
</svg>