<?xml version="1.0" encoding="utf-8"?>
<svg version="1.1" xmlns:xlink="http://www.w3.org/1999/xlink" width="12px" height="12px" viewBox="390 857  12 12" xmlns="http://www.w3.org/2000/svg">
  <path d="M 396 857  C 399.36 857  402 859.64  402 863  C 402 866.36  399.36 869  396 869  C 392.64 869  390 866.36  390 863  C 390 859.64  392.64 857  396 857  Z " fill-rule="nonzero" fill="#f0f0f0" stroke="none" />
  <path d="M 396 857.5  C 399.08 857.5  401.5 859.92  401.5 863  C 401.5 866.08  399.08 868.5  396 868.5  C 392.92 868.5  390.5 866.08  390.5 863  C 390.5 859.92  392.92 857.5  396 857.5  Z " stroke-width="1" stroke="#797979" fill="none" />
  <path d="M 396 866  C 394.32 866  393 864.68  393 863  C 393 861.32  394.32 860  396 860  C 397.68 860  399 861.32  399 863  C 399 864.68  397.68 866  396 866  " fill-rule="nonzero" fill="#797979" stroke="none" />
</svg>