<?xml version="1.0" encoding="utf-8"?>
<svg version="1.1" xmlns:xlink="http://www.w3.org/1999/xlink" width="12px" height="12px" viewBox="490 857  12 12" xmlns="http://www.w3.org/2000/svg">
  <path d="M 496 857  C 499.36 857  502 859.64  502 863  C 502 866.36  499.36 869  496 869  C 492.64 869  490 866.36  490 863  C 490 859.64  492.64 857  496 857  Z " fill-rule="nonzero" fill="#ffffff" stroke="none" />
  <path d="M 496 857.5  C 499.08 857.5  501.5 859.92  501.5 863  C 501.5 866.08  499.08 868.5  496 868.5  C 492.92 868.5  490.5 866.08  490.5 863  C 490.5 859.92  492.92 857.5  496 857.5  Z " stroke-width="1" stroke="#797979" fill="none" />
  <path d="M 496 866  C 494.32 866  493 864.68  493 863  C 493 861.32  494.32 860  496 860  C 497.68 860  499 861.32  499 863  C 499 864.68  497.68 866  496 866  " fill-rule="nonzero" fill="#797979" stroke="none" />
</svg>