<?xml version="1.0" encoding="utf-8"?>
<svg version="1.1" xmlns:xlink="http://www.w3.org/1999/xlink" width="12px" height="12px" viewBox="392 173  12 12" xmlns="http://www.w3.org/2000/svg">
  <path d="M 398 173  C 401.36 173  404 175.64  404 179  C 404 182.36  401.36 185  398 185  C 394.64 185  392 182.36  392 179  C 392 175.64  394.64 173  398 173  Z " fill-rule="nonzero" fill="#f0f0f0" stroke="none" />
  <path d="M 398 173.5  C 401.08 173.5  403.5 175.92  403.5 179  C 403.5 182.08  401.08 184.5  398 184.5  C 394.92 184.5  392.5 182.08  392.5 179  C 392.5 175.92  394.92 173.5  398 173.5  Z " stroke-width="1" stroke="#797979" fill="none" />
  <path d="M 398 182  C 396.32 182  395 180.68  395 179  C 395 177.32  396.32 176  398 176  C 399.68 176  401 177.32  401 179  C 401 180.68  399.68 182  398 182  " fill-rule="nonzero" fill="#797979" stroke="none" />
</svg>