<?xml version="1.0" encoding="utf-8"?>
<svg version="1.1" xmlns:xlink="http://www.w3.org/1999/xlink" width="18px" height="18px" xmlns="http://www.w3.org/2000/svg">
  <g transform="matrix(1 0 0 1 -695 -485 )">
    <path d="M 17.46875 15.90625  C 17.484375 16.546875  16.953125 17.078125  16.3125 17  L 1.6875 17  C 1.03125 17.078125  0.515625 16.546875  0.515625 15.90625  C 0.515625 15.25  1.046875 14.734375  1.6875 14.734375  L 16.296875 14.734375  C 16.953125 14.734375  17.46875 15.265625  17.46875 15.90625  Z M 16.296875 15  L 1.6875 15  C 1.21875 15.03125  0.828125 15.421875  0.828125 15.890625  C 0.828125 16.359375  1.21875 16.75  1.6875 16.75  L 16.296875 16.75  C 16.765625 16.75  17.15625 16.359375  17.15625 15.890625  C 17.15625 15.421875  16.765625 15.03125  16.296875 15  Z M 17.40625 13.265625  C 17.421875 13.4375  17.296875 13.578125  17.109375 13.578125  L 15.0625 13.578125  C 14.890625 13.578125  14.75 13.4375  14.75 13.265625  L 14.75 5.1875  C 14.75 4.453125  15.34375 3.859375  16.078125 3.859375  C 16.8125 3.859375  17.40625 4.453125  17.40625 5.1875  L 17.40625 13.265625  Z M 15.40625 12.953125  L 15.390625 12.953125  L 16.8125 12.953125  L 16.8125 5.1875  C 16.8125 4.796875  16.5 4.484375  16.109375 4.484375  C 15.71875 4.484375  15.40625 4.796875  15.40625 5.1875  L 15.40625 12.953125  Z M 13.296875 5.609375  L 13.234375 5.609375  C 13.171875 5.609375  13.109375 5.578125  13.09375 5.515625  C 12.84375 4.890625  12.84375 4.1875  13.125 3.5625  C 13.390625 2.9375  13.890625 2.453125  14.515625 2.203125  C 14.59375 2.171875  14.6875 2.203125  14.71875 2.296875  C 14.75 2.375  14.71875 2.46875  14.625 2.5  C 14.0625 2.71875  13.640625 3.140625  13.40625 3.6875  C 13.171875 4.234375  13.15625 4.84375  13.390625 5.40625  C 13.421875 5.484375  13.390625 5.578125  13.296875 5.609375  Z M 11.828125 6.203125  L 11.765625 6.203125  C 11.703125 6.203125  11.640625 6.171875  11.625 6.109375  C 11.21875 5.078125  11.234375 3.953125  11.671875 2.9375  C 12.109375 1.921875  12.921875 1.140625  13.9375 0.71875  C 14.015625 0.6875  14.109375 0.71875  14.140625 0.8125  C 14.171875 0.890625  14.140625 0.984375  14.046875 1.015625  C 13.09375 1.390625  12.34375 2.125  11.953125 3.0625  C 11.546875 4  11.53125 5.046875  11.921875 6  C 11.953125 6.078125  11.921875 6.171875  11.828125 6.203125  Z " fill-rule="nonzero" fill="#333333" stroke="none" transform="matrix(1 0 0 1 695 485 )" />
  </g>
</svg>