<?xml version="1.0" encoding="utf-8"?>
<svg version="1.1" xmlns:xlink="http://www.w3.org/1999/xlink" width="14px" height="18px" xmlns="http://www.w3.org/2000/svg">
  <g transform="matrix(1 0 0 1 -697 -484 )">
    <path d="M 8.25 7.828125  L 8.203125 7.828125  C 8.140625 7.828125  8.078125 7.796875  8.0625 7.734375  C 7.484375 6.296875  7.5 4.703125  8.125 3.28125  C 8.734375 1.859375  9.875 0.75  11.3125 0.171875  C 11.390625 0.140625  11.484375 0.171875  11.515625 0.265625  C 11.546875 0.34375  11.515625 0.4375  11.421875 0.46875  C 10.0625 1  8.984375 2.046875  8.40625 3.40625  C 7.828125 4.765625  7.8125 6.25  8.34375 7.625  C 8.375 7.703125  8.34375 7.796875  8.25 7.828125  Z M 1.171875 16.90625  C 1.171875 17  1.109375 17.0625  1.015625 17.0625  L 0.578125 17.0625  C 0.484375 17.0625  0.421875 17  0.421875 16.90625  C 0.421875 16.8125  0.484375 16.75  0.578125 16.75  L 1.015625 16.75  C 1.109375 16.75  1.171875 16.8125  1.171875 16.90625  Z M 3.234375 16.90625  C 3.234375 17  3.171875 17.0625  3.078125 17.0625  L 2.640625 17.0625  C 2.546875 17.0625  2.484375 17  2.484375 16.90625  C 2.484375 16.8125  2.546875 16.75  2.640625 16.75  L 3.078125 16.75  C 3.171875 16.75  3.234375 16.8125  3.234375 16.90625  Z M 5.3125 16.90625  C 5.3125 17  5.234375 17.0625  5.15625 17.0625  L 4.71875 17.0625  C 4.625 17.0625  4.5625 17  4.5625 16.90625  C 4.5625 16.8125  4.625 16.75  4.71875 16.75  L 5.15625 16.75  C 5.25 16.75  5.3125 16.8125  5.3125 16.90625  Z M 7.375 16.90625  C 7.375 17  7.3125 17.0625  7.21875 17.0625  L 6.78125 17.0625  C 6.6875 17.0625  6.625 17  6.625 16.90625  C 6.625 16.8125  6.6875 16.75  6.78125 16.75  L 7.21875 16.75  C 7.3125 16.75  7.375 16.8125  7.375 16.90625  Z M 9.4375 16.90625  C 9.4375 17  9.375 17.0625  9.28125 17.0625  L 8.84375 17.0625  C 8.75 17.0625  8.6875 17  8.6875 16.90625  C 8.6875 16.8125  8.75 16.75  8.84375 16.75  L 9.28125 16.75  C 9.375 16.75  9.4375 16.8125  9.4375 16.90625  Z M 11.515625 16.90625  C 11.515625 17  11.4375 17.0625  11.359375 17.0625  L 10.921875 17.0625  C 10.828125 17.0625  10.765625 17  10.765625 16.90625  C 10.765625 16.8125  10.828125 16.75  10.921875 16.75  L 11.359375 16.75  C 11.453125 16.75  11.515625 16.8125  11.515625 16.90625  Z M 13.578125 16.90625  C 13.578125 17  13.5 17.0625  13.421875 17.0625  L 12.984375 17.0625  C 12.890625 17.0625  12.828125 17  12.828125 16.90625  C 12.828125 16.8125  12.890625 16.75  12.984375 16.75  L 13.421875 16.75  C 13.515625 16.75  13.578125 16.8125  13.578125 16.90625  Z " fill-rule="nonzero" fill="#333333" stroke="none" transform="matrix(1 0 0 1 697 484 )" />
  </g>
</svg>