<?xml version="1.0" encoding="utf-8"?>
<svg version="1.1" xmlns:xlink="http://www.w3.org/1999/xlink" width="18px" height="19px" xmlns="http://www.w3.org/2000/svg">
  <g transform="matrix(1 0 0 1 -536 -2414 )">
    <path d="M 8.34875 5.40166666015625  C 8.41333333984375 2.88833333984375  10.47125 0.87083333984375  13 0.87083333984375  C 15.5695833398437 0.87083333984375  17.6529166601563 2.9541666796875  17.6529166601563 5.52375  C 17.6529166699219 5.98411487270532  17.2798206251994 6.3572109174278  16.8195833300781 6.3572109174278  C 16.3593460349569 6.3572109174278  15.9862499902344 5.98411487270532  15.9862499902344 5.52387757758405  C 15.98625 3.87448966581779  14.6492603341822 2.5375  13 2.5375  C 11.3507396658178 2.5375  10.01375 3.87448966581779  10.01375 5.52375  L 10.01375 7.52708333984375  L 10.0595833398438 7.53  L 10.1304166601563 7.535  L 10.20125 7.54041666015625  L 10.47625 7.56375  L 10.61 7.57666666015625  L 10.7420833398438 7.59083333984375  L 10.9983333398438 7.62125  L 11.2458333398438 7.65583333984375  C 13.8716666796875 8.04958333984375  14.9279166796875 9.13375  15.2091666601563 11.55375  L 15.22375 11.6845833398437  L 15.245 11.9166666601562  L 15.2541666601563 12.0358333398437  L 15.2625 12.1566666601562  L 15.275 12.405  L 15.2804166601562 12.5316666601562  L 15.2845833398437 12.6608333398437  L 15.29 12.925  L 15.29125 13.06  L 15.2916666601563 13.1975  L 15.29125 13.335  L 15.29 13.47  L 15.2875 13.6029166601562  L 15.2804166601562 13.8629166601562  L 15.2754166601562 13.99  L 15.2691666601563 14.115  L 15.2541666601563 14.35875  L 15.25 14.41875  L 15.245 14.4779166601562  L 15.22375 14.71  C 14.9695833398438 17.1783333398437  13.955 18.2983333398437  11.3845833398438 18.7170833398437  L 11.2454166601563 18.73875  L 10.9979166601562 18.7733333398437  L 10.7416666601563 18.8041666601562  L 10.5429166601563 18.825  L 10.3391666601562 18.8433333398437  L 10.0591666601562 18.8645833398437  L 9.76958333984375 18.8829166601562  L 9.47041666015625 18.8979166601562  L 9.16125 18.9095833398437  L 8.84208333984375 18.9179166601562  L 8.5125 18.92375  L 8.17291666015625 18.92625  L 7.83208333984375 18.92625  L 7.49625 18.92375  L 7.33208333984375 18.9216666601562  L 7.01125 18.915  L 6.7 18.905  L 6.39875 18.8925  L 6.325 18.8883333398437  L 6.25166666015625 18.8845833398437  L 5.965 18.8670833398437  L 5.89458333984375 18.8620833398437  L 5.825 18.8570833398437  L 5.55208333984375 18.8341666601562  L 5.48541666015625 18.8279166601562  L 5.41875 18.8216666601562  L 5.15958333984375 18.79375  L 5.09625 18.78625  L 5.03333333984375 18.7779166601562  L 4.7875 18.7445833398437  C 2.46125 18.4029166796875  1.35541666015625 17.525  0.929166660156249 15.6641666601562  L 0.90375 15.5466666601562  L 0.864583339843749 15.3454166601562  L 0.855833339843749 15.2941666601562  L 0.847083339843749 15.2425  L 0.814999999999999 15.0304166601562  L 0.7875 14.81125  L 0.77541666015625 14.69875  L 0.76458333984375 14.5841666601562  L 0.74541666015625 14.35  L 0.73041666015625 14.1075  L 0.722083339843749 13.9208333398437  L 0.715416660156249 13.7295833398437  L 0.71 13.4675  L 0.70875 13.3333333398437  L 0.70833333984375 13.1975  L 0.70875 13.06  L 0.7125 12.7920833398437  L 0.71958333984375 12.5316666601562  L 0.73083333984375 12.28  L 0.73416666015625 12.2183333398437  L 0.73791666015625 12.1570833398437  L 0.755 11.9166666601563  L 0.76 11.8583333398437  L 0.765 11.8  L 0.78875 11.57125  C 1.06208333984375 9.1825  2.08458333984375 8.09  4.61458333984375 7.67791666015625  L 4.75375 7.65583333984375  L 5.00125 7.62125  L 5.06458333984375 7.61333333984375  L 5.12875 7.60583333984375  L 5.38958333984375 7.57666666015625  L 5.52375 7.56416666015625  L 5.66041666015625 7.55166666015625  L 5.94 7.53  L 6.22958333984375 7.51208333984375  L 6.52916666015625 7.49708333984375  L 6.83833333984375 7.48541666015625  L 7.1575 7.47708333984375  L 7.23875 7.475  L 7.32083333984375 7.47375  L 7.655 7.46958333984375  L 8 7.46791666015625  L 8.17375 7.46833333984375  L 8.34708333984375 7.46958333984375  L 8.34708333984375 5.52375  L 8.34875 5.40166666015625  Z M 8 11.6345833398438  C 7.15615492958331 11.6345833398438  6.47208333984375 12.3186549295833  6.47208333984375 13.1625  C 6.47208333984375 14.0063450704167  7.1561549295833 14.6904166601563  8 14.6904166601563  C 8.84384507041669 14.6904166601563  9.52791666015625 14.0063450704167  9.52791666015625 13.1625  C 9.52791666015625 12.3186549295833  8.8438450704167 11.6345833398438  8 11.6345833398438  Z " fill-rule="nonzero" fill="#333333" stroke="none" transform="matrix(1 0 0 1 536 2414 )" />
  </g>
</svg>