<?xml version="1.0" encoding="utf-8"?>
<svg version="1.1" xmlns:xlink="http://www.w3.org/1999/xlink" width="12px" height="16px" xmlns="http://www.w3.org/2000/svg">
  <g transform="matrix(1 0 0 1 -539 -2368 )">
    <path d="M 11.615234375 8.681640625  C 11.6171875 7.81640625  10.9140625 7.11328125  10.048828125 7.11328125  L 10.048828125 4.60546875  C 10.048828125 2.2890625  8.1171875 0.423828125  5.775390625 0.533203125  C 3.5859375 0.63671875  1.8984375 2.52734375  1.8984375 4.72265625  L 1.8984375 4.763671875  C 1.8984375 5.1953125  2.25 5.546875  2.681640625 5.546875  C 3.11328125 5.546875  3.46484375 5.1953125  3.46484375 4.763671875  L 3.46484375 4.6953125  C 3.46484375 3.36328125  4.46875 2.193359375  5.80078125 2.10546875  C 7.26171875 2.005859375  8.48046875 3.16796875  8.48046875 4.607421875  L 8.48046875 7.115234375  L 1.8984375 7.115234375  C 1.033203125 7.115234375  0.33203125 7.818359375  0.33203125 8.681640625  L 0.33203125 14.009765625  C 0.33203125 14.875  1.03515625 15.576171875  1.8984375 15.576171875  L 10.048828125 15.576171875  C 10.9140625 15.576171875  11.615234375 14.873046875  11.615234375 14.009765625  L 11.615234375 8.681640625  Z M 7.228515625 11.345703125  C 7.228515625 12.037109375  6.666015625 12.599609375  5.974609375 12.599609375  C 5.28125 12.599609375  4.720703125 12.0390625  4.720703125 11.345703125  C 4.720703125 10.65234375  5.28125 10.091796875  5.974609375 10.091796875  C 6.66796875 10.091796875  7.228515625 10.65234375  7.228515625 11.345703125  Z " fill-rule="nonzero" fill="#009999" stroke="none" transform="matrix(1 0 0 1 539 2368 )" />
  </g>
</svg>