<?xml version="1.0" encoding="utf-8"?>
<svg version="1.1" xmlns:xlink="http://www.w3.org/1999/xlink" width="12px" height="12px" viewBox="1641 608  12 12" xmlns="http://www.w3.org/2000/svg">
  <path d="M 1647 608  C 1650.36 608  1653 610.64  1653 614  C 1653 617.36  1650.36 620  1647 620  C 1643.64 620  1641 617.36  1641 614  C 1641 610.64  1643.64 608  1647 608  Z " fill-rule="nonzero" fill="#ffffff" stroke="none" />
  <path d="M 1647 608.5  C 1650.08 608.5  1652.5 610.92  1652.5 614  C 1652.5 617.08  1650.08 619.5  1647 619.5  C 1643.92 619.5  1641.5 617.08  1641.5 614  C 1641.5 610.92  1643.92 608.5  1647 608.5  Z " stroke-width="1" stroke="#797979" fill="none" />
  <path d="M 1647 617  C 1645.32 617  1644 615.68  1644 614  C 1644 612.32  1645.32 611  1647 611  C 1648.68 611  1650 612.32  1650 614  C 1650 615.68  1648.68 617  1647 617  " fill-rule="nonzero" fill="#797979" stroke="none" />
</svg>