<?xml version="1.0" encoding="utf-8"?>
<svg version="1.1" xmlns:xlink="http://www.w3.org/1999/xlink" width="40px" height="38px" xmlns="http://www.w3.org/2000/svg">
  <g transform="matrix(1 0 0 1 -440 -2738 )">
    <path d="M 440 2738  L 480 2738  L 480 2776  L 440 2776  L 440 2738  " fill-rule="nonzero" fill="#cccccc" stroke="none" />
    <path d="M 443 2741  L 477 2741  L 477 2773  L 443 2773  L 443 2741  " fill-rule="nonzero" fill="#ffffff" stroke="none" />
    <path d="M 463.65 2749.4  C 462.054 2749.4  460.8 2748.146  460.8 2746.55  C 460.8 2744.954  462.054 2743.7  463.65 2743.7  C 465.246 2743.7  466.5 2744.954  466.5 2746.55  C 466.5 2748.146  465.246 2749.4  463.65 2749.4  " fill-rule="nonzero" fill="#cccccc" stroke="none" />
    <path d="M 444 2772  L 444 2755.5  L 452 2748  L 463.2 2754.9  L 469.6 2752.5  L 476 2754.9  L 476 2772  L 444 2772  " fill-rule="nonzero" fill="#169bd5" stroke="none" />
  </g>
</svg>