<?xml version="1.0" encoding="utf-8"?>
<svg version="1.1" xmlns:xlink="http://www.w3.org/1999/xlink" width="12px" height="12px" viewBox="2540 2997  12 12" xmlns="http://www.w3.org/2000/svg">
  <path d="M 2546 2997  C 2549.36 2997  2552 2999.64  2552 3003  C 2552 3006.36  2549.36 3009  2546 3009  C 2542.64 3009  2540 3006.36  2540 3003  C 2540 2999.64  2542.64 2997  2546 2997  Z " fill-rule="nonzero" fill="#f0f0f0" stroke="none" />
  <path d="M 2546 2997.5  C 2549.08 2997.5  2551.5 2999.92  2551.5 3003  C 2551.5 3006.08  2549.08 3008.5  2546 3008.5  C 2542.92 3008.5  2540.5 3006.08  2540.5 3003  C 2540.5 2999.92  2542.92 2997.5  2546 2997.5  Z " stroke-width="1" stroke="#797979" fill="none" />
  <path d="M 2546 3006  C 2544.32 3006  2543 3004.68  2543 3003  C 2543 3001.32  2544.32 3000  2546 3000  C 2547.68 3000  2549 3001.32  2549 3003  C 2549 3004.68  2547.68 3006  2546 3006  " fill-rule="nonzero" fill="#797979" stroke="none" />
</svg>