<?xml version="1.0" encoding="utf-8"?>
<svg version="1.1" xmlns:xlink="http://www.w3.org/1999/xlink" width="12px" height="12px" viewBox="2540 2971  12 12" xmlns="http://www.w3.org/2000/svg">
  <path d="M 2546 2971  C 2549.36 2971  2552 2973.64  2552 2977  C 2552 2980.36  2549.36 2983  2546 2983  C 2542.64 2983  2540 2980.36  2540 2977  C 2540 2973.64  2542.64 2971  2546 2971  Z " fill-rule="nonzero" fill="#f0f0f0" stroke="none" />
  <path d="M 2546 2971.5  C 2549.08 2971.5  2551.5 2973.92  2551.5 2977  C 2551.5 2980.08  2549.08 2982.5  2546 2982.5  C 2542.92 2982.5  2540.5 2980.08  2540.5 2977  C 2540.5 2973.92  2542.92 2971.5  2546 2971.5  Z " stroke-width="1" stroke="#797979" fill="none" />
  <path d="M 2546 2980  C 2544.32 2980  2543 2978.68  2543 2977  C 2543 2975.32  2544.32 2974  2546 2974  C 2547.68 2974  2549 2975.32  2549 2977  C 2549 2978.68  2547.68 2980  2546 2980  " fill-rule="nonzero" fill="#797979" stroke="none" />
</svg>