<?xml version="1.0" encoding="utf-8"?>
<svg version="1.1" xmlns:xlink="http://www.w3.org/1999/xlink" width="12px" height="12px" viewBox="2094 2674  12 12" xmlns="http://www.w3.org/2000/svg">
  <path d="M 2100 2674  C 2103.36 2674  2106 2676.64  2106 2680  C 2106 2683.36  2103.36 2686  2100 2686  C 2096.64 2686  2094 2683.36  2094 2680  C 2094 2676.64  2096.64 2674  2100 2674  Z " fill-rule="nonzero" fill="#ffffff" stroke="none" />
  <path d="M 2100 2674.5  C 2103.08 2674.5  2105.5 2676.92  2105.5 2680  C 2105.5 2683.08  2103.08 2685.5  2100 2685.5  C 2096.92 2685.5  2094.5 2683.08  2094.5 2680  C 2094.5 2676.92  2096.92 2674.5  2100 2674.5  Z " stroke-width="1" stroke="#797979" fill="none" />
  <path d="M 2100 2683  C 2098.32 2683  2097 2681.68  2097 2680  C 2097 2678.32  2098.32 2677  2100 2677  C 2101.68 2677  2103 2678.32  2103 2680  C 2103 2681.68  2101.68 2683  2100 2683  " fill-rule="nonzero" fill="#797979" stroke="none" />
</svg>