<?xml version="1.0" encoding="utf-8"?>
<svg version="1.1" xmlns:xlink="http://www.w3.org/1999/xlink" width="12px" height="12px" viewBox="2019 2674  12 12" xmlns="http://www.w3.org/2000/svg">
  <path d="M 2025 2674  C 2028.36 2674  2031 2676.64  2031 2680  C 2031 2683.36  2028.36 2686  2025 2686  C 2021.64 2686  2019 2683.36  2019 2680  C 2019 2676.64  2021.64 2674  2025 2674  Z " fill-rule="nonzero" fill="#ffffff" stroke="none" />
  <path d="M 2025 2674.5  C 2028.08 2674.5  2030.5 2676.92  2030.5 2680  C 2030.5 2683.08  2028.08 2685.5  2025 2685.5  C 2021.92 2685.5  2019.5 2683.08  2019.5 2680  C 2019.5 2676.92  2021.92 2674.5  2025 2674.5  Z " stroke-width="1" stroke="#797979" fill="none" />
  <path d="M 2025 2683  C 2023.32 2683  2022 2681.68  2022 2680  C 2022 2678.32  2023.32 2677  2025 2677  C 2026.68 2677  2028 2678.32  2028 2680  C 2028 2681.68  2026.68 2683  2025 2683  " fill-rule="nonzero" fill="#797979" stroke="none" />
</svg>