<?xml version="1.0" encoding="utf-8"?>
<svg version="1.1" xmlns:xlink="http://www.w3.org/1999/xlink" width="12px" height="12px" viewBox="390 487  12 12" xmlns="http://www.w3.org/2000/svg">
  <path d="M 396 487  C 399.36 487  402 489.64  402 493  C 402 496.36  399.36 499  396 499  C 392.64 499  390 496.36  390 493  C 390 489.64  392.64 487  396 487  Z " fill-rule="nonzero" fill="#f0f0f0" stroke="none" />
  <path d="M 396 487.5  C 399.08 487.5  401.5 489.92  401.5 493  C 401.5 496.08  399.08 498.5  396 498.5  C 392.92 498.5  390.5 496.08  390.5 493  C 390.5 489.92  392.92 487.5  396 487.5  Z " stroke-width="1" stroke="#797979" fill="none" />
  <path d="M 396 496  C 394.32 496  393 494.68  393 493  C 393 491.32  394.32 490  396 490  C 397.68 490  399 491.32  399 493  C 399 494.68  397.68 496  396 496  " fill-rule="nonzero" fill="#797979" stroke="none" />
</svg>