<?xml version="1.0" encoding="utf-8"?>
<svg version="1.1" xmlns:xlink="http://www.w3.org/1999/xlink" width="12px" height="12px" viewBox="490 487  12 12" xmlns="http://www.w3.org/2000/svg">
  <path d="M 496 487  C 499.36 487  502 489.64  502 493  C 502 496.36  499.36 499  496 499  C 492.64 499  490 496.36  490 493  C 490 489.64  492.64 487  496 487  Z " fill-rule="nonzero" fill="#ffffff" stroke="none" />
  <path d="M 496 487.5  C 499.08 487.5  501.5 489.92  501.5 493  C 501.5 496.08  499.08 498.5  496 498.5  C 492.92 498.5  490.5 496.08  490.5 493  C 490.5 489.92  492.92 487.5  496 487.5  Z " stroke-width="1" stroke="#797979" fill="none" />
  <path d="M 496 496  C 494.32 496  493 494.68  493 493  C 493 491.32  494.32 490  496 490  C 497.68 490  499 491.32  499 493  C 499 494.68  497.68 496  496 496  " fill-rule="nonzero" fill="#797979" stroke="none" />
</svg>