<?xml version="1.0" encoding="utf-8"?>
<svg version="1.1" xmlns:xlink="http://www.w3.org/1999/xlink" width="12px" height="12px" viewBox="666 286  12 12" xmlns="http://www.w3.org/2000/svg">
  <path d="M 672 286  C 675.36 286  678 288.64  678 292  C 678 295.36  675.36 298  672 298  C 668.64 298  666 295.36  666 292  C 666 288.64  668.64 286  672 286  Z " fill-rule="nonzero" fill="#f0f0f0" stroke="none" />
  <path d="M 672 286.5  C 675.08 286.5  677.5 288.92  677.5 292  C 677.5 295.08  675.08 297.5  672 297.5  C 668.92 297.5  666.5 295.08  666.5 292  C 666.5 288.92  668.92 286.5  672 286.5  Z " stroke-width="1" stroke="#797979" fill="none" />
  <path d="M 672 295  C 670.32 295  669 293.68  669 292  C 669 290.32  670.32 289  672 289  C 673.68 289  675 290.32  675 292  C 675 293.68  673.68 295  672 295  " fill-rule="nonzero" fill="#797979" stroke="none" />
</svg>