<?xml version="1.0" encoding="utf-8"?>
<svg version="1.1" xmlns:xlink="http://www.w3.org/1999/xlink" width="12px" height="12px" viewBox="427 286  12 12" xmlns="http://www.w3.org/2000/svg">
  <path d="M 433 286  C 436.36 286  439 288.64  439 292  C 439 295.36  436.36 298  433 298  C 429.64 298  427 295.36  427 292  C 427 288.64  429.64 286  433 286  Z " fill-rule="nonzero" fill="#ffffff" stroke="none" />
  <path d="M 433 286.5  C 436.08 286.5  438.5 288.92  438.5 292  C 438.5 295.08  436.08 297.5  433 297.5  C 429.92 297.5  427.5 295.08  427.5 292  C 427.5 288.92  429.92 286.5  433 286.5  Z " stroke-width="1" stroke="#797979" fill="none" />
  <path d="M 433 295  C 431.32 295  430 293.68  430 292  C 430 290.32  431.32 289  433 289  C 434.68 289  436 290.32  436 292  C 436 293.68  434.68 295  433 295  " fill-rule="nonzero" fill="#797979" stroke="none" />
</svg>