<svg t="1730095901430" class="icon" viewBox="0 0 1024 1024" version="1.1" xmlns="http://www.w3.org/2000/svg" p-id="23139" width="200" height="200"><path d="M512 170.666667a42.666667 42.666667 0 0 1 42.666667 42.666666v597.333334a42.666667 42.666667 0 1 1-85.333334 0V213.333333a42.666667 42.666667 0 0 1 42.666667-42.666666zM341.333333 298.666667a42.666667 42.666667 0 0 1 42.666667 42.666666v341.333334a42.666667 42.666667 0 1 1-85.333333 0V341.333333a42.666667 42.666667 0 0 1 42.666666-42.666666zM682.666667 298.666667a42.666667 42.666667 0 0 1 42.666666 42.666666v341.333334a42.666667 42.666667 0 1 1-85.333333 0V341.333333a42.666667 42.666667 0 0 1 42.666667-42.666666zM170.666667 426.666667a42.666667 42.666667 0 0 1 42.666666 42.666666v85.333334a42.666667 42.666667 0 1 1-85.333333 0v-85.333334a42.666667 42.666667 0 0 1 42.666667-42.666666zM853.333333 426.666667a42.666667 42.666667 0 0 1 42.666667 42.666666v85.333334a42.666667 42.666667 0 1 1-85.333333 0v-85.333334a42.666667 42.666667 0 0 1 42.666666-42.666666z" fill="#000000" p-id="23140"></path></svg>