<?xml version="1.0" encoding="utf-8"?>
<svg version="1.1" xmlns:xlink="http://www.w3.org/1999/xlink" width="16px" height="16px" xmlns="http://www.w3.org/2000/svg">
  <g transform="matrix(1 0 0 1 -374 -438 )">
    <path d="M 382 438  C 386.48 438  390 441.52  390 446  C 390 450.48  386.48 454  382 454  C 377.52 454  374 450.48  374 446  C 374 441.52  377.52 438  382 438  Z " fill-rule="nonzero" fill="#f2f2f2" stroke="none" />
    <path d="M 382 438.5  C 386.2 438.5  389.5 441.8  389.5 446  C 389.5 450.2  386.2 453.5  382 453.5  C 377.8 453.5  374.5 450.2  374.5 446  C 374.5 441.8  377.8 438.5  382 438.5  Z " stroke-width="1" stroke="#d7d7d7" fill="none" />
  </g>
</svg>