<?xml version="1.0" encoding="utf-8"?>
<svg version="1.1" xmlns:xlink="http://www.w3.org/1999/xlink" width="12px" height="12px" viewBox="2019 933  12 12" xmlns="http://www.w3.org/2000/svg">
  <path d="M 2025 933  C 2028.36 933  2031 935.64  2031 939  C 2031 942.36  2028.36 945  2025 945  C 2021.64 945  2019 942.36  2019 939  C 2019 935.64  2021.64 933  2025 933  Z " fill-rule="nonzero" fill="#ffffff" stroke="none" />
  <path d="M 2025 933.5  C 2028.08 933.5  2030.5 935.92  2030.5 939  C 2030.5 942.08  2028.08 944.5  2025 944.5  C 2021.92 944.5  2019.5 942.08  2019.5 939  C 2019.5 935.92  2021.92 933.5  2025 933.5  Z " stroke-width="1" stroke="#797979" fill="none" />
  <path d="M 2025 942  C 2023.32 942  2022 940.68  2022 939  C 2022 937.32  2023.32 936  2025 936  C 2026.68 936  2028 937.32  2028 939  C 2028 940.68  2026.68 942  2025 942  " fill-rule="nonzero" fill="#797979" stroke="none" />
</svg>