<?xml version="1.0" encoding="utf-8"?>
<svg version="1.1" xmlns:xlink="http://www.w3.org/1999/xlink" width="12px" height="12px" viewBox="2136 933  12 12" xmlns="http://www.w3.org/2000/svg">
  <path d="M 2142 933  C 2145.36 933  2148 935.64  2148 939  C 2148 942.36  2145.36 945  2142 945  C 2138.64 945  2136 942.36  2136 939  C 2136 935.64  2138.64 933  2142 933  Z " fill-rule="nonzero" fill="#ffffff" stroke="none" />
  <path d="M 2142 933.5  C 2145.08 933.5  2147.5 935.92  2147.5 939  C 2147.5 942.08  2145.08 944.5  2142 944.5  C 2138.92 944.5  2136.5 942.08  2136.5 939  C 2136.5 935.92  2138.92 933.5  2142 933.5  Z " stroke-width="1" stroke="#797979" fill="none" />
  <path d="M 2142 942  C 2140.32 942  2139 940.68  2139 939  C 2139 937.32  2140.32 936  2142 936  C 2143.68 936  2145 937.32  2145 939  C 2145 940.68  2143.68 942  2142 942  " fill-rule="nonzero" fill="#797979" stroke="none" />
</svg>