<?xml version="1.0" encoding="utf-8"?>
<svg version="1.1" xmlns:xlink="http://www.w3.org/1999/xlink" width="12px" height="12px" viewBox="2019 1297  12 12" xmlns="http://www.w3.org/2000/svg">
  <path d="M 2025 1297  C 2028.36 1297  2031 1299.64  2031 1303  C 2031 1306.36  2028.36 1309  2025 1309  C 2021.64 1309  2019 1306.36  2019 1303  C 2019 1299.64  2021.64 1297  2025 1297  Z " fill-rule="nonzero" fill="#ffffff" stroke="none" />
  <path d="M 2025 1297.5  C 2028.08 1297.5  2030.5 1299.92  2030.5 1303  C 2030.5 1306.08  2028.08 1308.5  2025 1308.5  C 2021.92 1308.5  2019.5 1306.08  2019.5 1303  C 2019.5 1299.92  2021.92 1297.5  2025 1297.5  Z " stroke-width="1" stroke="#797979" fill="none" />
  <path d="M 2025 1306  C 2023.32 1306  2022 1304.68  2022 1303  C 2022 1301.32  2023.32 1300  2025 1300  C 2026.68 1300  2028 1301.32  2028 1303  C 2028 1304.68  2026.68 1306  2025 1306  " fill-rule="nonzero" fill="#797979" stroke="none" />
</svg>