<?xml version="1.0" encoding="utf-8"?>
<svg version="1.1" xmlns:xlink="http://www.w3.org/1999/xlink" width="14px" height="14px" xmlns="http://www.w3.org/2000/svg">
  <g transform="matrix(1 0 0 1 -73 -694 )">
    <path d="M 80 695  C 83.36 695  86 697.64  86 701  C 86 704.36  83.36 707  80 707  C 76.64 707  74 704.36  74 701  C 74 697.64  76.64 695  80 695  Z " fill-rule="nonzero" fill="#ffffff" stroke="none" />
    <path d="M 80 695  C 83.36 695  86 697.64  86 701  C 86 704.36  83.36 707  80 707  C 76.64 707  74 704.36  74 701  C 74 697.64  76.64 695  80 695  Z " stroke-width="2" stroke="#797979" fill="none" />
  </g>
</svg>