<?xml version="1.0" encoding="utf-8"?>
<svg version="1.1" xmlns:xlink="http://www.w3.org/1999/xlink" width="12px" height="12px" xmlns="http://www.w3.org/2000/svg">
  <g transform="matrix(1 0 0 1 -287 -722 )">
    <path d="M 293 723  C 295.8 723  298 725.2  298 728  C 298 730.8  295.8 733  293 733  C 290.2 733  288 730.8  288 728  C 288 725.2  290.2 723  293 723  Z " fill-rule="nonzero" fill="#1890ff" stroke="none" />
    <path d="M 293 723  C 295.8 723  298 725.2  298 728  C 298 730.8  295.8 733  293 733  C 290.2 733  288 730.8  288 728  C 288 725.2  290.2 723  293 723  Z " stroke-width="2" stroke="#ffffff" fill="none" />
  </g>
</svg>