<?xml version="1.0" encoding="utf-8"?>
<svg version="1.1" xmlns:xlink="http://www.w3.org/1999/xlink" width="10px" height="13px" xmlns="http://www.w3.org/2000/svg">
  <g transform="matrix(1 0 0 1 -288 -724 )">
    <path d="M 293 725  C 295.24 725  297 727.42  297 730.5  C 297 733.58  295.24 736  293 736  C 290.76 736  289 733.58  289 730.5  C 289 727.42  290.76 725  293 725  Z " fill-rule="nonzero" fill="#1890ff" stroke="none" />
    <path d="M 293 725  C 295.24 725  297 727.42  297 730.5  C 297 733.58  295.24 736  293 736  C 290.76 736  289 733.58  289 730.5  C 289 727.42  290.76 725  293 725  Z " stroke-width="2" stroke="#ffffff" fill="none" />
  </g>
</svg>