<?xml version="1.0" encoding="utf-8"?>
<svg version="1.1" xmlns:xlink="http://www.w3.org/1999/xlink" width="12px" height="16px" xmlns="http://www.w3.org/2000/svg">
  <g transform="matrix(1 0 0 1 -287 -1203 )">
    <path d="M 293 1204  C 295.8 1204  298 1207.08  298 1211  C 298 1214.92  295.8 1218  293 1218  C 290.2 1218  288 1214.92  288 1211  C 288 1207.08  290.2 1204  293 1204  Z " fill-rule="nonzero" fill="#1890ff" stroke="none" />
    <path d="M 293 1204  C 295.8 1204  298 1207.08  298 1211  C 298 1214.92  295.8 1218  293 1218  C 290.2 1218  288 1214.92  288 1211  C 288 1207.08  290.2 1204  293 1204  Z " stroke-width="2" stroke="#ffffff" fill="none" />
  </g>
</svg>