<?xml version="1.0" encoding="utf-8"?>
<svg version="1.1" xmlns:xlink="http://www.w3.org/1999/xlink" width="12px" height="12px" viewBox="405 634  12 12" xmlns="http://www.w3.org/2000/svg">
  <path d="M 411 634  C 414.36 634  417 636.64  417 640  C 417 643.36  414.36 646  411 646  C 407.64 646  405 643.36  405 640  C 405 636.64  407.64 634  411 634  Z " fill-rule="nonzero" fill="#ffffff" stroke="none" />
  <path d="M 411 634.5  C 414.08 634.5  416.5 636.92  416.5 640  C 416.5 643.08  414.08 645.5  411 645.5  C 407.92 645.5  405.5 643.08  405.5 640  C 405.5 636.92  407.92 634.5  411 634.5  Z " stroke-width="1" stroke="#797979" fill="none" />
  <path d="M 411 643  C 409.32 643  408 641.68  408 640  C 408 638.32  409.32 637  411 637  C 412.68 637  414 638.32  414 640  C 414 641.68  412.68 643  411 643  " fill-rule="nonzero" fill="#797979" stroke="none" />
</svg>