<?xml version="1.0" encoding="utf-8"?>
<svg version="1.1" xmlns:xlink="http://www.w3.org/1999/xlink" width="12px" height="12px" viewBox="405 439  12 12" xmlns="http://www.w3.org/2000/svg">
  <path d="M 411 439  C 414.36 439  417 441.64  417 445  C 417 448.36  414.36 451  411 451  C 407.64 451  405 448.36  405 445  C 405 441.64  407.64 439  411 439  Z " fill-rule="nonzero" fill="#f0f0f0" stroke="none" />
  <path d="M 411 439.5  C 414.08 439.5  416.5 441.92  416.5 445  C 416.5 448.08  414.08 450.5  411 450.5  C 407.92 450.5  405.5 448.08  405.5 445  C 405.5 441.92  407.92 439.5  411 439.5  Z " stroke-width="1" stroke="#797979" fill="none" />
  <path d="M 411 448  C 409.32 448  408 446.68  408 445  C 408 443.32  409.32 442  411 442  C 412.68 442  414 443.32  414 445  C 414 446.68  412.68 448  411 448  " fill-rule="nonzero" fill="#797979" stroke="none" />
</svg>