<?xml version="1.0" encoding="utf-8"?>
<svg version="1.1" xmlns:xlink="http://www.w3.org/1999/xlink" width="12px" height="12px" viewBox="531 439  12 12" xmlns="http://www.w3.org/2000/svg">
  <path d="M 537 439  C 540.36 439  543 441.64  543 445  C 543 448.36  540.36 451  537 451  C 533.64 451  531 448.36  531 445  C 531 441.64  533.64 439  537 439  Z " fill-rule="nonzero" fill="#ffffff" stroke="none" />
  <path d="M 537 439.5  C 540.08 439.5  542.5 441.92  542.5 445  C 542.5 448.08  540.08 450.5  537 450.5  C 533.92 450.5  531.5 448.08  531.5 445  C 531.5 441.92  533.92 439.5  537 439.5  Z " stroke-width="1" stroke="#797979" fill="none" />
  <path d="M 537 448  C 535.32 448  534 446.68  534 445  C 534 443.32  535.32 442  537 442  C 538.68 442  540 443.32  540 445  C 540 446.68  538.68 448  537 448  " fill-rule="nonzero" fill="#797979" stroke="none" />
</svg>