<?xml version="1.0" encoding="utf-8"?>
<svg version="1.1" xmlns:xlink="http://www.w3.org/1999/xlink" width="12px" height="12px" viewBox="405 502  12 12" xmlns="http://www.w3.org/2000/svg">
  <path d="M 411 502  C 414.36 502  417 504.64  417 508  C 417 511.36  414.36 514  411 514  C 407.64 514  405 511.36  405 508  C 405 504.64  407.64 502  411 502  Z " fill-rule="nonzero" fill="#ffffff" stroke="none" />
  <path d="M 411 502.5  C 414.08 502.5  416.5 504.92  416.5 508  C 416.5 511.08  414.08 513.5  411 513.5  C 407.92 513.5  405.5 511.08  405.5 508  C 405.5 504.92  407.92 502.5  411 502.5  Z " stroke-width="1" stroke="#797979" fill="none" />
  <path d="M 411 511  C 409.32 511  408 509.68  408 508  C 408 506.32  409.32 505  411 505  C 412.68 505  414 506.32  414 508  C 414 509.68  412.68 511  411 511  " fill-rule="nonzero" fill="#797979" stroke="none" />
</svg>