<?xml version="1.0" encoding="utf-8"?>
<svg version="1.1" xmlns:xlink="http://www.w3.org/1999/xlink" width="12px" height="12px" viewBox="2228 1890  12 12" xmlns="http://www.w3.org/2000/svg">
  <path d="M 2234 1890  C 2237.36 1890  2240 1892.64  2240 1896  C 2240 1899.36  2237.36 1902  2234 1902  C 2230.64 1902  2228 1899.36  2228 1896  C 2228 1892.64  2230.64 1890  2234 1890  Z " fill-rule="nonzero" fill="#f0f0f0" stroke="none" />
  <path d="M 2234 1890.5  C 2237.08 1890.5  2239.5 1892.92  2239.5 1896  C 2239.5 1899.08  2237.08 1901.5  2234 1901.5  C 2230.92 1901.5  2228.5 1899.08  2228.5 1896  C 2228.5 1892.92  2230.92 1890.5  2234 1890.5  Z " stroke-width="1" stroke="#797979" fill="none" />
  <path d="M 2234 1899  C 2232.32 1899  2231 1897.68  2231 1896  C 2231 1894.32  2232.32 1893  2234 1893  C 2235.68 1893  2237 1894.32  2237 1896  C 2237 1897.68  2235.68 1899  2234 1899  " fill-rule="nonzero" fill="#797979" stroke="none" />
</svg>