<?xml version="1.0" encoding="utf-8"?>
<svg version="1.1" xmlns:xlink="http://www.w3.org/1999/xlink" width="12px" height="12px" viewBox="2046 3563  12 12" xmlns="http://www.w3.org/2000/svg">
  <path d="M 2052 3563  C 2055.36 3563  2058 3565.64  2058 3569  C 2058 3572.36  2055.36 3575  2052 3575  C 2048.64 3575  2046 3572.36  2046 3569  C 2046 3565.64  2048.64 3563  2052 3563  Z " fill-rule="nonzero" fill="#ffffff" stroke="none" />
  <path d="M 2052 3563.5  C 2055.08 3563.5  2057.5 3565.92  2057.5 3569  C 2057.5 3572.08  2055.08 3574.5  2052 3574.5  C 2048.92 3574.5  2046.5 3572.08  2046.5 3569  C 2046.5 3565.92  2048.92 3563.5  2052 3563.5  Z " stroke-width="1" stroke="#797979" fill="none" />
  <path d="M 2052 3572  C 2050.32 3572  2049 3570.68  2049 3569  C 2049 3567.32  2050.32 3566  2052 3566  C 2053.68 3566  2055 3567.32  2055 3569  C 2055 3570.68  2053.68 3572  2052 3572  " fill-rule="nonzero" fill="#797979" stroke="none" />
</svg>