<?xml version="1.0" encoding="utf-8"?>
<svg version="1.1" xmlns:xlink="http://www.w3.org/1999/xlink" width="12px" height="12px" viewBox="2046 3403  12 12" xmlns="http://www.w3.org/2000/svg">
  <path d="M 2052 3403  C 2055.36 3403  2058 3405.64  2058 3409  C 2058 3412.36  2055.36 3415  2052 3415  C 2048.64 3415  2046 3412.36  2046 3409  C 2046 3405.64  2048.64 3403  2052 3403  Z " fill-rule="nonzero" fill="#ffffff" stroke="none" />
  <path d="M 2052 3403.5  C 2055.08 3403.5  2057.5 3405.92  2057.5 3409  C 2057.5 3412.08  2055.08 3414.5  2052 3414.5  C 2048.92 3414.5  2046.5 3412.08  2046.5 3409  C 2046.5 3405.92  2048.92 3403.5  2052 3403.5  Z " stroke-width="1" stroke="#797979" fill="none" />
  <path d="M 2052 3412  C 2050.32 3412  2049 3410.68  2049 3409  C 2049 3407.32  2050.32 3406  2052 3406  C 2053.68 3406  2055 3407.32  2055 3409  C 2055 3410.68  2053.68 3412  2052 3412  " fill-rule="nonzero" fill="#797979" stroke="none" />
</svg>