<?xml version="1.0" encoding="utf-8"?>
<svg version="1.1" xmlns:xlink="http://www.w3.org/1999/xlink" width="12px" height="12px" viewBox="2102 1890  12 12" xmlns="http://www.w3.org/2000/svg">
  <path d="M 2108 1890  C 2111.36 1890  2114 1892.64  2114 1896  C 2114 1899.36  2111.36 1902  2108 1902  C 2104.64 1902  2102 1899.36  2102 1896  C 2102 1892.64  2104.64 1890  2108 1890  Z " fill-rule="nonzero" fill="#f0f0f0" stroke="none" />
  <path d="M 2108 1890.5  C 2111.08 1890.5  2113.5 1892.92  2113.5 1896  C 2113.5 1899.08  2111.08 1901.5  2108 1901.5  C 2104.92 1901.5  2102.5 1899.08  2102.5 1896  C 2102.5 1892.92  2104.92 1890.5  2108 1890.5  Z " stroke-width="1" stroke="#797979" fill="none" />
  <path d="M 2108 1899  C 2106.32 1899  2105 1897.68  2105 1896  C 2105 1894.32  2106.32 1893  2108 1893  C 2109.68 1893  2111 1894.32  2111 1896  C 2111 1897.68  2109.68 1899  2108 1899  " fill-rule="nonzero" fill="#797979" stroke="none" />
</svg>