<?xml version="1.0" encoding="utf-8"?>
<svg version="1.1" xmlns:xlink="http://www.w3.org/1999/xlink" width="12px" height="12px" viewBox="2046 3458  12 12" xmlns="http://www.w3.org/2000/svg">
  <path d="M 2052 3458  C 2055.36 3458  2058 3460.64  2058 3464  C 2058 3467.36  2055.36 3470  2052 3470  C 2048.64 3470  2046 3467.36  2046 3464  C 2046 3460.64  2048.64 3458  2052 3458  Z " fill-rule="nonzero" fill="#ffffff" stroke="none" />
  <path d="M 2052 3458.5  C 2055.08 3458.5  2057.5 3460.92  2057.5 3464  C 2057.5 3467.08  2055.08 3469.5  2052 3469.5  C 2048.92 3469.5  2046.5 3467.08  2046.5 3464  C 2046.5 3460.92  2048.92 3458.5  2052 3458.5  Z " stroke-width="1" stroke="#797979" fill="none" />
  <path d="M 2052 3467  C 2050.32 3467  2049 3465.68  2049 3464  C 2049 3462.32  2050.32 3461  2052 3461  C 2053.68 3461  2055 3462.32  2055 3464  C 2055 3465.68  2053.68 3467  2052 3467  " fill-rule="nonzero" fill="#797979" stroke="none" />
</svg>