<?xml version="1.0" encoding="utf-8"?>
<svg version="1.1" xmlns:xlink="http://www.w3.org/1999/xlink" width="360px" height="740px" xmlns="http://www.w3.org/2000/svg">
  <g>
    <path d="M 0 0  L 360 0  L 360 740  L 0 740  L 0 0  " fill-rule="nonzero" fill="#cccccc" stroke="none" />
    <path d="M 25 25  L 335 25  L 335 715  L 25 715  L 25 25  " fill-rule="nonzero" fill="#ffffff" stroke="none" />
    <path d="M 214.2 165  C 199.08 165  187.2 153.12  187.2 138  C 187.2 122.88  199.08 111  214.2 111  C 229.32 111  241.2 122.88  241.2 138  C 241.2 153.12  229.32 165  214.2 165  " fill-rule="nonzero" fill="#cccccc" stroke="none" />
    <path d="M 34 706  L 34 336.4  L 107 168.4  L 209.2 302.8  L 267.6 269.2  L 326 302.8  L 326 706  L 34 706  " fill-rule="nonzero" fill="#169bd5" stroke="none" />
  </g>
</svg>