<?xml version="1.0" encoding="utf-8"?>
<svg version="1.1" xmlns:xlink="http://www.w3.org/1999/xlink" width="65px" height="64px" xmlns="http://www.w3.org/2000/svg">
  <g transform="matrix(1 0 0 1 -567 -752 )">
    <path d="M 567 752  L 632 752  L 632 816  L 567 816  L 567 752  " fill-rule="nonzero" fill="#cccccc" stroke="none" />
    <path d="M 571 756  L 628 756  L 628 812  L 571 812  L 571 756  " fill-rule="nonzero" fill="#ffffff" stroke="none" />
    <path d="M 605.6 771.2  C 602.912 771.2  600.8 769.088  600.8 766.4  C 600.8 763.712  602.912 761.6  605.6 761.6  C 608.288 761.6  610.4 763.712  610.4 766.4  C 610.4 769.088  608.288 771.2  605.6 771.2  " fill-rule="nonzero" fill="#cccccc" stroke="none" />
    <path d="M 573 811  L 573 781.85  L 586.5 768.6  L 605.4 779.689230769231  L 616.2 776.55  L 627 779.689230769231  L 627 811  L 573 811  " fill-rule="nonzero" fill="#169bd5" stroke="none" />
  </g>
</svg>