<?xml version="1.0" encoding="utf-8"?>
<svg version="1.1" xmlns:xlink="http://www.w3.org/1999/xlink" width="12px" height="12px" viewBox="1630 1440  12 12" xmlns="http://www.w3.org/2000/svg">
  <path d="M 1636 1440  C 1639.36 1440  1642 1442.64  1642 1446  C 1642 1449.36  1639.36 1452  1636 1452  C 1632.64 1452  1630 1449.36  1630 1446  C 1630 1442.64  1632.64 1440  1636 1440  Z " fill-rule="nonzero" fill="#ffffff" stroke="none" />
  <path d="M 1636 1440.5  C 1639.08 1440.5  1641.5 1442.92  1641.5 1446  C 1641.5 1449.08  1639.08 1451.5  1636 1451.5  C 1632.92 1451.5  1630.5 1449.08  1630.5 1446  C 1630.5 1442.92  1632.92 1440.5  1636 1440.5  Z " stroke-width="1" stroke="#797979" fill="none" />
  <path d="M 1636 1449  C 1634.32 1449  1633 1447.68  1633 1446  C 1633 1444.32  1634.32 1443  1636 1443  C 1637.68 1443  1639 1444.32  1639 1446  C 1639 1447.68  1637.68 1449  1636 1449  " fill-rule="nonzero" fill="#797979" stroke="none" />
</svg>