<?xml version="1.0" encoding="utf-8"?>
<svg version="1.1" xmlns:xlink="http://www.w3.org/1999/xlink" width="12px" height="12px" viewBox="871 1456  12 12" xmlns="http://www.w3.org/2000/svg">
  <path d="M 877 1456  C 880.36 1456  883 1458.64  883 1462  C 883 1465.36  880.36 1468  877 1468  C 873.64 1468  871 1465.36  871 1462  C 871 1458.64  873.64 1456  877 1456  Z " fill-rule="nonzero" fill="#ffffff" stroke="none" />
  <path d="M 877 1456.5  C 880.08 1456.5  882.5 1458.92  882.5 1462  C 882.5 1465.08  880.08 1467.5  877 1467.5  C 873.92 1467.5  871.5 1465.08  871.5 1462  C 871.5 1458.92  873.92 1456.5  877 1456.5  Z " stroke-width="1" stroke="#797979" fill="none" />
  <path d="M 877 1465  C 875.32 1465  874 1463.68  874 1462  C 874 1460.32  875.32 1459  877 1459  C 878.68 1459  880 1460.32  880 1462  C 880 1463.68  878.68 1465  877 1465  " fill-rule="nonzero" fill="#797979" stroke="none" />
</svg>