<?xml version="1.0" encoding="utf-8"?>
<svg version="1.1" xmlns:xlink="http://www.w3.org/1999/xlink" width="12px" height="12px" viewBox="971 1456  12 12" xmlns="http://www.w3.org/2000/svg">
  <path d="M 977 1456  C 980.36 1456  983 1458.64  983 1462  C 983 1465.36  980.36 1468  977 1468  C 973.64 1468  971 1465.36  971 1462  C 971 1458.64  973.64 1456  977 1456  Z " fill-rule="nonzero" fill="#f0f0f0" stroke="none" />
  <path d="M 977 1456.5  C 980.08 1456.5  982.5 1458.92  982.5 1462  C 982.5 1465.08  980.08 1467.5  977 1467.5  C 973.92 1467.5  971.5 1465.08  971.5 1462  C 971.5 1458.92  973.92 1456.5  977 1456.5  Z " stroke-width="1" stroke="#797979" fill="none" />
  <path d="M 977 1465  C 975.32 1465  974 1463.68  974 1462  C 974 1460.32  975.32 1459  977 1459  C 978.68 1459  980 1460.32  980 1462  C 980 1463.68  978.68 1465  977 1465  " fill-rule="nonzero" fill="#797979" stroke="none" />
</svg>