<?xml version="1.0" encoding="utf-8"?>
<svg version="1.1" xmlns:xlink="http://www.w3.org/1999/xlink" width="12px" height="12px" viewBox="2055 1063  12 12" xmlns="http://www.w3.org/2000/svg">
  <path d="M 2061 1063  C 2064.36 1063  2067 1065.64  2067 1069  C 2067 1072.36  2064.36 1075  2061 1075  C 2057.64 1075  2055 1072.36  2055 1069  C 2055 1065.64  2057.64 1063  2061 1063  Z " fill-rule="nonzero" fill="#ffffff" stroke="none" />
  <path d="M 2061 1063.5  C 2064.08 1063.5  2066.5 1065.92  2066.5 1069  C 2066.5 1072.08  2064.08 1074.5  2061 1074.5  C 2057.92 1074.5  2055.5 1072.08  2055.5 1069  C 2055.5 1065.92  2057.92 1063.5  2061 1063.5  Z " stroke-width="1" stroke="#797979" fill="none" />
  <path d="M 2061 1072  C 2059.32 1072  2058 1070.68  2058 1069  C 2058 1067.32  2059.32 1066  2061 1066  C 2062.68 1066  2064 1067.32  2064 1069  C 2064 1070.68  2062.68 1072  2061 1072  " fill-rule="nonzero" fill="#797979" stroke="none" />
</svg>