<?xml version="1.0" encoding="utf-8"?>
<svg version="1.1" xmlns:xlink="http://www.w3.org/1999/xlink" width="12px" height="12px" viewBox="2147 1400  12 12" xmlns="http://www.w3.org/2000/svg">
  <path d="M 2153 1400  C 2156.36 1400  2159 1402.64  2159 1406  C 2159 1409.36  2156.36 1412  2153 1412  C 2149.64 1412  2147 1409.36  2147 1406  C 2147 1402.64  2149.64 1400  2153 1400  Z " fill-rule="nonzero" fill="#ffffff" stroke="none" />
  <path d="M 2153 1400.5  C 2156.08 1400.5  2158.5 1402.92  2158.5 1406  C 2158.5 1409.08  2156.08 1411.5  2153 1411.5  C 2149.92 1411.5  2147.5 1409.08  2147.5 1406  C 2147.5 1402.92  2149.92 1400.5  2153 1400.5  Z " stroke-width="1" stroke="#797979" fill="none" />
  <path d="M 2153 1409  C 2151.32 1409  2150 1407.68  2150 1406  C 2150 1404.32  2151.32 1403  2153 1403  C 2154.68 1403  2156 1404.32  2156 1406  C 2156 1407.68  2154.68 1409  2153 1409  " fill-rule="nonzero" fill="#797979" stroke="none" />
</svg>