<?xml version="1.0" encoding="utf-8"?>
<svg version="1.1" xmlns:xlink="http://www.w3.org/1999/xlink" width="12px" height="12px" viewBox="2147 1063  12 12" xmlns="http://www.w3.org/2000/svg">
  <path d="M 2153 1063  C 2156.36 1063  2159 1065.64  2159 1069  C 2159 1072.36  2156.36 1075  2153 1075  C 2149.64 1075  2147 1072.36  2147 1069  C 2147 1065.64  2149.64 1063  2153 1063  Z " fill-rule="nonzero" fill="#f0f0f0" stroke="none" />
  <path d="M 2153 1063.5  C 2156.08 1063.5  2158.5 1065.92  2158.5 1069  C 2158.5 1072.08  2156.08 1074.5  2153 1074.5  C 2149.92 1074.5  2147.5 1072.08  2147.5 1069  C 2147.5 1065.92  2149.92 1063.5  2153 1063.5  Z " stroke-width="1" stroke="#797979" fill="none" />
  <path d="M 2153 1072  C 2151.32 1072  2150 1070.68  2150 1069  C 2150 1067.32  2151.32 1066  2153 1066  C 2154.68 1066  2156 1067.32  2156 1069  C 2156 1070.68  2154.68 1072  2153 1072  " fill-rule="nonzero" fill="#797979" stroke="none" />
</svg>