<?xml version="1.0" encoding="utf-8"?>
<svg version="1.1" xmlns:xlink="http://www.w3.org/1999/xlink" width="12px" height="12px" viewBox="2055 1400  12 12" xmlns="http://www.w3.org/2000/svg">
  <path d="M 2061 1400  C 2064.36 1400  2067 1402.64  2067 1406  C 2067 1409.36  2064.36 1412  2061 1412  C 2057.64 1412  2055 1409.36  2055 1406  C 2055 1402.64  2057.64 1400  2061 1400  Z " fill-rule="nonzero" fill="#f0f0f0" stroke="none" />
  <path d="M 2061 1400.5  C 2064.08 1400.5  2066.5 1402.92  2066.5 1406  C 2066.5 1409.08  2064.08 1411.5  2061 1411.5  C 2057.92 1411.5  2055.5 1409.08  2055.5 1406  C 2055.5 1402.92  2057.92 1400.5  2061 1400.5  Z " stroke-width="1" stroke="#797979" fill="none" />
  <path d="M 2061 1409  C 2059.32 1409  2058 1407.68  2058 1406  C 2058 1404.32  2059.32 1403  2061 1403  C 2062.68 1403  2064 1404.32  2064 1406  C 2064 1407.68  2062.68 1409  2061 1409  " fill-rule="nonzero" fill="#797979" stroke="none" />
</svg>