<?xml version="1.0" encoding="utf-8"?>
<svg version="1.1" xmlns:xlink="http://www.w3.org/1999/xlink" width="12px" height="12px" viewBox="620 1569  12 12" xmlns="http://www.w3.org/2000/svg">
  <path d="M 626 1569  C 629.36 1569  632 1571.64  632 1575  C 632 1578.36  629.36 1581  626 1581  C 622.64 1581  620 1578.36  620 1575  C 620 1571.64  622.64 1569  626 1569  Z " fill-rule="nonzero" fill="#f0f0f0" stroke="none" />
  <path d="M 626 1569.5  C 629.08 1569.5  631.5 1571.92  631.5 1575  C 631.5 1578.08  629.08 1580.5  626 1580.5  C 622.92 1580.5  620.5 1578.08  620.5 1575  C 620.5 1571.92  622.92 1569.5  626 1569.5  Z " stroke-width="1" stroke="#797979" fill="none" />
  <path d="M 626 1578  C 624.32 1578  623 1576.68  623 1575  C 623 1573.32  624.32 1572  626 1572  C 627.68 1572  629 1573.32  629 1575  C 629 1576.68  627.68 1578  626 1578  " fill-rule="nonzero" fill="#797979" stroke="none" />
</svg>