<?xml version="1.0" encoding="utf-8"?>
<svg version="1.1" xmlns:xlink="http://www.w3.org/1999/xlink" width="12px" height="12px" viewBox="720 1569  12 12" xmlns="http://www.w3.org/2000/svg">
  <path d="M 726 1569  C 729.36 1569  732 1571.64  732 1575  C 732 1578.36  729.36 1581  726 1581  C 722.64 1581  720 1578.36  720 1575  C 720 1571.64  722.64 1569  726 1569  Z " fill-rule="nonzero" fill="#f0f0f0" stroke="none" />
  <path d="M 726 1569.5  C 729.08 1569.5  731.5 1571.92  731.5 1575  C 731.5 1578.08  729.08 1580.5  726 1580.5  C 722.92 1580.5  720.5 1578.08  720.5 1575  C 720.5 1571.92  722.92 1569.5  726 1569.5  Z " stroke-width="1" stroke="#797979" fill="none" />
  <path d="M 726 1578  C 724.32 1578  723 1576.68  723 1575  C 723 1573.32  724.32 1572  726 1572  C 727.68 1572  729 1573.32  729 1575  C 729 1576.68  727.68 1578  726 1578  " fill-rule="nonzero" fill="#797979" stroke="none" />
</svg>