<?xml version="1.0" encoding="utf-8"?>
<svg version="1.1" xmlns:xlink="http://www.w3.org/1999/xlink" width="12px" height="12px" viewBox="314 220  12 12" xmlns="http://www.w3.org/2000/svg">
  <path d="M 320 220  C 323.36 220  326 222.64  326 226  C 326 229.36  323.36 232  320 232  C 316.64 232  314 229.36  314 226  C 314 222.64  316.64 220  320 220  Z " fill-rule="nonzero" fill="#f0f0f0" stroke="none" />
  <path d="M 320 220.5  C 323.08 220.5  325.5 222.92  325.5 226  C 325.5 229.08  323.08 231.5  320 231.5  C 316.92 231.5  314.5 229.08  314.5 226  C 314.5 222.92  316.92 220.5  320 220.5  Z " stroke-width="1" stroke="#797979" fill="none" />
  <path d="M 320 229  C 318.32 229  317 227.68  317 226  C 317 224.32  318.32 223  320 223  C 321.68 223  323 224.32  323 226  C 323 227.68  321.68 229  320 229  " fill-rule="nonzero" fill="#797979" stroke="none" />
</svg>