<?xml version="1.0" encoding="utf-8"?>
<svg version="1.1" xmlns:xlink="http://www.w3.org/1999/xlink" width="12px" height="12px" viewBox="104 1304  12 12" xmlns="http://www.w3.org/2000/svg">
  <path d="M 110 1304  C 113.36 1304  116 1306.64  116 1310  C 116 1313.36  113.36 1316  110 1316  C 106.64 1316  104 1313.36  104 1310  C 104 1306.64  106.64 1304  110 1304  Z " fill-rule="nonzero" fill="#f0f0f0" stroke="none" />
  <path d="M 110 1304.5  C 113.08 1304.5  115.5 1306.92  115.5 1310  C 115.5 1313.08  113.08 1315.5  110 1315.5  C 106.92 1315.5  104.5 1313.08  104.5 1310  C 104.5 1306.92  106.92 1304.5  110 1304.5  Z " stroke-width="1" stroke="#797979" fill="none" />
  <path d="M 110 1313  C 108.32 1313  107 1311.68  107 1310  C 107 1308.32  108.32 1307  110 1307  C 111.68 1307  113 1308.32  113 1310  C 113 1311.68  111.68 1313  110 1313  " fill-rule="nonzero" fill="#797979" stroke="none" />
</svg>