<?xml version="1.0" encoding="utf-8"?>
<svg version="1.1" xmlns:xlink="http://www.w3.org/1999/xlink" width="12px" height="12px" viewBox="119 1264  12 12" xmlns="http://www.w3.org/2000/svg">
  <path d="M 125 1264  C 128.36 1264  131 1266.64  131 1270  C 131 1273.36  128.36 1276  125 1276  C 121.64 1276  119 1273.36  119 1270  C 119 1266.64  121.64 1264  125 1264  Z " fill-rule="nonzero" fill="#f0f0f0" stroke="none" />
  <path d="M 125 1264.5  C 128.08 1264.5  130.5 1266.92  130.5 1270  C 130.5 1273.08  128.08 1275.5  125 1275.5  C 121.92 1275.5  119.5 1273.08  119.5 1270  C 119.5 1266.92  121.92 1264.5  125 1264.5  Z " stroke-width="1" stroke="#797979" fill="none" />
  <path d="M 125 1273  C 123.32 1273  122 1271.68  122 1270  C 122 1268.32  123.32 1267  125 1267  C 126.68 1267  128 1268.32  128 1270  C 128 1271.68  126.68 1273  125 1273  " fill-rule="nonzero" fill="#797979" stroke="none" />
</svg>