<?xml version="1.0" encoding="utf-8"?>
<svg version="1.1" xmlns:xlink="http://www.w3.org/1999/xlink" width="12px" height="12px" viewBox="172 1228  12 12" xmlns="http://www.w3.org/2000/svg">
  <path d="M 178 1228  C 181.36 1228  184 1230.64  184 1234  C 184 1237.36  181.36 1240  178 1240  C 174.64 1240  172 1237.36  172 1234  C 172 1230.64  174.64 1228  178 1228  Z " fill-rule="nonzero" fill="#f0f0f0" stroke="none" />
  <path d="M 178 1228.5  C 181.08 1228.5  183.5 1230.92  183.5 1234  C 183.5 1237.08  181.08 1239.5  178 1239.5  C 174.92 1239.5  172.5 1237.08  172.5 1234  C 172.5 1230.92  174.92 1228.5  178 1228.5  Z " stroke-width="1" stroke="#797979" fill="none" />
  <path d="M 178 1237  C 176.32 1237  175 1235.68  175 1234  C 175 1232.32  176.32 1231  178 1231  C 179.68 1231  181 1232.32  181 1234  C 181 1235.68  179.68 1237  178 1237  " fill-rule="nonzero" fill="#797979" stroke="none" />
</svg>