<?xml version="1.0" encoding="utf-8"?>
<svg version="1.1" xmlns:xlink="http://www.w3.org/1999/xlink" width="12px" height="12px" viewBox="187 1264  12 12" xmlns="http://www.w3.org/2000/svg">
  <path d="M 193 1264  C 196.36 1264  199 1266.64  199 1270  C 199 1273.36  196.36 1276  193 1276  C 189.64 1276  187 1273.36  187 1270  C 187 1266.64  189.64 1264  193 1264  Z " fill-rule="nonzero" fill="#ffffff" stroke="none" />
  <path d="M 193 1264.5  C 196.08 1264.5  198.5 1266.92  198.5 1270  C 198.5 1273.08  196.08 1275.5  193 1275.5  C 189.92 1275.5  187.5 1273.08  187.5 1270  C 187.5 1266.92  189.92 1264.5  193 1264.5  Z " stroke-width="1" stroke="#797979" fill="none" />
  <path d="M 193 1273  C 191.32 1273  190 1271.68  190 1270  C 190 1268.32  191.32 1267  193 1267  C 194.68 1267  196 1268.32  196 1270  C 196 1271.68  194.68 1273  193 1273  " fill-rule="nonzero" fill="#797979" stroke="none" />
</svg>