<?xml version="1.0" encoding="utf-8"?>
<svg version="1.1" xmlns:xlink="http://www.w3.org/1999/xlink" width="12px" height="12px" viewBox="104 1228  12 12" xmlns="http://www.w3.org/2000/svg">
  <path d="M 110 1228  C 113.36 1228  116 1230.64  116 1234  C 116 1237.36  113.36 1240  110 1240  C 106.64 1240  104 1237.36  104 1234  C 104 1230.64  106.64 1228  110 1228  Z " fill-rule="nonzero" fill="#f0f0f0" stroke="none" />
  <path d="M 110 1228.5  C 113.08 1228.5  115.5 1230.92  115.5 1234  C 115.5 1237.08  113.08 1239.5  110 1239.5  C 106.92 1239.5  104.5 1237.08  104.5 1234  C 104.5 1230.92  106.92 1228.5  110 1228.5  Z " stroke-width="1" stroke="#797979" fill="none" />
  <path d="M 110 1237  C 108.32 1237  107 1235.68  107 1234  C 107 1232.32  108.32 1231  110 1231  C 111.68 1231  113 1232.32  113 1234  C 113 1235.68  111.68 1237  110 1237  " fill-rule="nonzero" fill="#797979" stroke="none" />
</svg>