<?xml version="1.0" encoding="utf-8"?>
<svg version="1.1" xmlns:xlink="http://www.w3.org/1999/xlink" width="12px" height="12px" viewBox="426 1022  12 12" xmlns="http://www.w3.org/2000/svg">
  <path d="M 432 1022  C 435.36 1022  438 1024.64  438 1028  C 438 1031.36  435.36 1034  432 1034  C 428.64 1034  426 1031.36  426 1028  C 426 1024.64  428.64 1022  432 1022  Z " fill-rule="nonzero" fill="#ffffff" stroke="none" />
  <path d="M 432 1022.5  C 435.08 1022.5  437.5 1024.92  437.5 1028  C 437.5 1031.08  435.08 1033.5  432 1033.5  C 428.92 1033.5  426.5 1031.08  426.5 1028  C 426.5 1024.92  428.92 1022.5  432 1022.5  Z " stroke-width="1" stroke="#797979" fill="none" />
  <path d="M 432 1031  C 430.32 1031  429 1029.68  429 1028  C 429 1026.32  430.32 1025  432 1025  C 433.68 1025  435 1026.32  435 1028  C 435 1029.68  433.68 1031  432 1031  " fill-rule="nonzero" fill="#797979" stroke="none" />
</svg>