<?xml version="1.0" encoding="utf-8"?>
<svg version="1.1" xmlns:xlink="http://www.w3.org/1999/xlink" width="12px" height="12px" viewBox="426 877  12 12" xmlns="http://www.w3.org/2000/svg">
  <path d="M 432 877  C 435.36 877  438 879.64  438 883  C 438 886.36  435.36 889  432 889  C 428.64 889  426 886.36  426 883  C 426 879.64  428.64 877  432 877  Z " fill-rule="nonzero" fill="#f0f0f0" stroke="none" />
  <path d="M 432 877.5  C 435.08 877.5  437.5 879.92  437.5 883  C 437.5 886.08  435.08 888.5  432 888.5  C 428.92 888.5  426.5 886.08  426.5 883  C 426.5 879.92  428.92 877.5  432 877.5  Z " stroke-width="1" stroke="#797979" fill="none" />
  <path d="M 432 886  C 430.32 886  429 884.68  429 883  C 429 881.32  430.32 880  432 880  C 433.68 880  435 881.32  435 883  C 435 884.68  433.68 886  432 886  " fill-rule="nonzero" fill="#797979" stroke="none" />
</svg>