<?xml version="1.0" encoding="utf-8"?>
<svg version="1.1" xmlns:xlink="http://www.w3.org/1999/xlink" width="12px" height="12px" viewBox="426 939  12 12" xmlns="http://www.w3.org/2000/svg">
  <path d="M 432 939  C 435.36 939  438 941.64  438 945  C 438 948.36  435.36 951  432 951  C 428.64 951  426 948.36  426 945  C 426 941.64  428.64 939  432 939  Z " fill-rule="nonzero" fill="#ffffff" stroke="none" />
  <path d="M 432 939.5  C 435.08 939.5  437.5 941.92  437.5 945  C 437.5 948.08  435.08 950.5  432 950.5  C 428.92 950.5  426.5 948.08  426.5 945  C 426.5 941.92  428.92 939.5  432 939.5  Z " stroke-width="1" stroke="#797979" fill="none" />
  <path d="M 432 948  C 430.32 948  429 946.68  429 945  C 429 943.32  430.32 942  432 942  C 433.68 942  435 943.32  435 945  C 435 946.68  433.68 948  432 948  " fill-rule="nonzero" fill="#797979" stroke="none" />
</svg>