<?xml version="1.0" encoding="utf-8"?>
<svg version="1.1" xmlns:xlink="http://www.w3.org/1999/xlink" width="113px" height="64px" xmlns="http://www.w3.org/2000/svg">
  <g transform="matrix(1 0 0 1 -451 -270 )">
    <path d="M 451 270  L 564 270  L 564 334  L 451 334  L 451 270  " fill-rule="nonzero" fill="#cccccc" stroke="none" />
    <path d="M 455 274  L 560 274  L 560 330  L 455 330  L 455 274  " fill-rule="nonzero" fill="#ffffff" stroke="none" />
    <path d="M 514.56 289.2  C 511.872 289.2  509.76 287.088  509.76 284.4  C 509.76 281.712  511.872 279.6  514.56 279.6  C 517.248 279.6  519.36 281.712  519.36 284.4  C 519.36 287.088  517.248 289.2  514.56 289.2  " fill-rule="nonzero" fill="#cccccc" stroke="none" />
    <path d="M 457 329  L 457 299.85  L 482.5 286.6  L 518.2 310.989380530973  L 538.6 294.55  L 559 310.989380530973  L 559 329  L 457 329  " fill-rule="nonzero" fill="#169bd5" stroke="none" />
  </g>
</svg>