<?xml version="1.0" encoding="utf-8"?>
<svg version="1.1" xmlns:xlink="http://www.w3.org/1999/xlink" width="12px" height="12px" viewBox="452 888  12 12" xmlns="http://www.w3.org/2000/svg">
  <path d="M 458 888  C 461.36 888  464 890.64  464 894  C 464 897.36  461.36 900  458 900  C 454.64 900  452 897.36  452 894  C 452 890.64  454.64 888  458 888  Z " fill-rule="nonzero" fill="#f0f0f0" stroke="none" />
  <path d="M 458 888.5  C 461.08 888.5  463.5 890.92  463.5 894  C 463.5 897.08  461.08 899.5  458 899.5  C 454.92 899.5  452.5 897.08  452.5 894  C 452.5 890.92  454.92 888.5  458 888.5  Z " stroke-width="1" stroke="#797979" fill="none" />
  <path d="M 458 897  C 456.32 897  455 895.68  455 894  C 455 892.32  456.32 891  458 891  C 459.68 891  461 892.32  461 894  C 461 895.68  459.68 897  458 897  " fill-rule="nonzero" fill="#797979" stroke="none" />
</svg>