<?xml version="1.0" encoding="utf-8"?>
<svg version="1.1" xmlns:xlink="http://www.w3.org/1999/xlink" width="12px" height="12px" viewBox="569 888  12 12" xmlns="http://www.w3.org/2000/svg">
  <path d="M 575 888  C 578.36 888  581 890.64  581 894  C 581 897.36  578.36 900  575 900  C 571.64 900  569 897.36  569 894  C 569 890.64  571.64 888  575 888  Z " fill-rule="nonzero" fill="#ffffff" stroke="none" />
  <path d="M 575 888.5  C 578.08 888.5  580.5 890.92  580.5 894  C 580.5 897.08  578.08 899.5  575 899.5  C 571.92 899.5  569.5 897.08  569.5 894  C 569.5 890.92  571.92 888.5  575 888.5  Z " stroke-width="1" stroke="#797979" fill="none" />
  <path d="M 575 897  C 573.32 897  572 895.68  572 894  C 572 892.32  573.32 891  575 891  C 576.68 891  578 892.32  578 894  C 578 895.68  576.68 897  575 897  " fill-rule="nonzero" fill="#797979" stroke="none" />
</svg>