<?xml version="1.0" encoding="utf-8"?>
<svg version="1.1" xmlns:xlink="http://www.w3.org/1999/xlink" width="12px" height="12px" xmlns="http://www.w3.org/2000/svg">
  <g transform="matrix(1 0 0 1 -272 -16 )">
    <path d="M 1.23416666015625 0.34166666015625  L 6 5.10833333984375  L 10.7658333398437 0.34166666015625  C 10.8831916365977 0.224308363402251  11.0423636449172 0.158377158806156  11.2083333398437 0.158377158806156  C 11.5539473380436 0.158377158806156  11.8341228411938 0.438552661956376  11.8341228411938 0.78416666015625  C 11.8341228411938 0.95013635508276  11.7681916365977 1.10930836340225  11.6508333398438 1.22666666015625  L 6.88416666015625 5.9925  L 11.65 10.7583333398437  C 11.7674305251025 10.8756532892  11.8334116105353 11.0348396690524  11.8334116105353 11.2008333398437  C 11.8334116105353 11.5462846566409  11.553367986719 11.8263282804572  11.2079166699219 11.8263282804572  C 11.0421271908066 11.8263282804572  10.8831194116329 11.7605089719078  10.7658333398438 11.6433333398437  L 6 6.8775  L 1.23416666015625 11.6433333398437  C 1.11688058836711 11.7605089719078  0.957872809193443 11.8263282804572  0.792083330078125 11.8263282804572  C 0.446632013281025 11.8263282804572  0.166588389464722 11.5462846566409  0.166588389464722 11.2008333398437  C 0.166588389464722 11.0348396690524  0.232569474897516 10.8756532892  0.35 10.7583333398437  L 5.11583333984375 5.9925  L 0.349166660156251 1.22666666015625  C 0.245688730737688 1.11161418437517  0.188437181479322 0.962344767250316  0.188437181479322 0.80760384163557  C 0.188437181479322 0.461505402003877  0.469005402003877 0.180937181479321  0.815103841635572 0.180937181479321  C 0.969844767250317 0.180937181479321  1.11911418437517 0.238188730737688  1.23416666015625 0.34166666015625  Z " fill-rule="nonzero" fill="#333333" stroke="none" transform="matrix(1 0 0 1 272 16 )" />
  </g>
</svg>