<?xml version="1.0" encoding="utf-8"?>
<svg version="1.1" xmlns:xlink="http://www.w3.org/1999/xlink" width="300px" height="170px" xmlns="http://www.w3.org/2000/svg">
  <g transform="matrix(1 0 0 1 -2043 -358 )">
    <path d="M 2043 358  L 2343 358  L 2343 528  L 2043 528  L 2043 358  " fill-rule="nonzero" fill="#cccccc" stroke="none" />
    <path d="M 2055 370  L 2331 370  L 2331 516  L 2055 516  L 2055 370  " fill-rule="nonzero" fill="#ffffff" stroke="none" />
    <path d="M 2211.75 409  C 2204.61 409  2199 403.39  2199 396.25  C 2199 389.11  2204.61 383.5  2211.75 383.5  C 2218.89 383.5  2224.5 389.11  2224.5 396.25  C 2224.5 403.39  2218.89 409  2211.75 409  " fill-rule="nonzero" fill="#cccccc" stroke="none" />
    <path d="M 2060 512  L 2060 436.65  L 2126.75 402.4  L 2220.2 465.42  L 2273.6 422.95  L 2327 465.42  L 2327 512  L 2060 512  " fill-rule="nonzero" fill="#169bd5" stroke="none" />
  </g>
</svg>