<?xml version="1.0" encoding="utf-8"?>
<svg version="1.1" xmlns:xlink="http://www.w3.org/1999/xlink" width="18px" height="18px" xmlns="http://www.w3.org/2000/svg">
  <g transform="matrix(1 0 0 1 -3260 -1302 )">
    <path d="M 17.75 9  C 17.75 4.175010078125  13.824989921875 0.25  9 0.25  C 4.17561484375 0.25  0.25 4.175010078125  0.25 9  C 0.25 13.824989921875  4.175010078125 17.75  9 17.75  C 13.82438515625 17.75  17.75 13.824989921875  17.75 9  Z M 9.88563365234375 9.00248623046875  L 12.5693791210937 11.6950006640625  C 12.8131299609375 11.939994609375  12.8124916015625 12.3350020117187  12.568136015625 12.5787528515625  C 12.4462774023438 12.70000671875  12.2868902148438 12.7612551953125  12.12689828125 12.7612551953125  C 11.9662679882813 12.7612551953125  11.8062760546875 12.7000066992187  11.684383828125 12.5775097265625  L 8.9968754296875 9.881870703125  L 6.300631640625 12.549388515625  C 6.17877302734375 12.6693992578125  6.01999060546875 12.7300093945312  5.86124177734375 12.7300093945312  C 5.70000671875 12.7300093945312  5.5393764453125 12.6681225585937  5.416879453125 12.5443824609375  C 5.17437171875 12.29875015625  5.17625318359375 11.9037427539062  5.4218855078125 11.6606302734375  L 8.11500470703125 8.99687541015625  L 5.43186400390625 6.30499931640625  C 5.1881131640625 6.0606101171875  5.1887515234375 5.66499796875  5.433107109375 5.42124712890625  C 5.67749630859375 5.1768579296875  6.07247009765625 5.1781346484375  6.316859296875 5.422490234375  L 9.0037293359375 8.1174908984375  L 11.699973125 5.4500066796875  C 11.9449670703125 5.20689419921875  12.341217578125 5.20938041015625  12.5837253125 5.455012734375  C 12.8268377929688 5.7006450390625  12.8243515820313 6.0962571875  12.5787192578125 6.338764921875  L 9.88563365234375 9.00248623046875  Z " fill-rule="nonzero" fill="#333333" stroke="none" transform="matrix(1 0 0 1 3260 1302 )" />
  </g>
</svg>