<?xml version="1.0" encoding="utf-8"?>
<svg version="1.1" xmlns:xlink="http://www.w3.org/1999/xlink" width="20px" height="20px" xmlns="http://www.w3.org/2000/svg">
  <g transform="matrix(1 0 0 1 -462 -212 )">
    <path d="M 462 212  L 482 212  L 482 232  L 462 232  L 462 212  " fill-rule="nonzero" fill="#cccccc" stroke="none" />
    <path d="M 463 213  L 481 213  L 481 231  L 463 231  L 463 213  " fill-rule="nonzero" fill="#ffffff" stroke="none" />
    <path d="M 473.9 218  C 473.06 218  472.4 217.34  472.4 216.5  C 472.4 215.66  473.06 215  473.9 215  C 474.74 215  475.4 215.66  475.4 216.5  C 475.4 217.34  474.74 218  473.9 218  " fill-rule="nonzero" fill="#cccccc" stroke="none" />
    <path d="M 464 231  L 464 221.65  L 468.25 217.4  L 474.2 220.8  L 477.6 219.95  L 481 220.8  L 481 231  L 464 231  " fill-rule="nonzero" fill="#169bd5" stroke="none" />
  </g>
</svg>