<?xml version="1.0" encoding="utf-8"?>
<svg version="1.1" xmlns:xlink="http://www.w3.org/1999/xlink" width="22px" height="22px" xmlns="http://www.w3.org/2000/svg">
  <defs>
    <filter x="3099px" y="1369px" width="22px" height="22px" filterUnits="userSpaceOnUse" id="filter7">
      <feOffset dx="0" dy="0" in="SourceAlpha" result="shadowOffsetInner" />
      <feGaussianBlur stdDeviation="0.5" in="shadowOffsetInner" result="shadowGaussian" />
      <feComposite in2="shadowGaussian" operator="atop" in="SourceAlpha" result="shadowComposite" />
      <feColorMatrix type="matrix" values="0 0 0 0 0  0 0 0 0 0  0 0 0 0 0  0 0 0 0.349019607843137 0  " in="shadowComposite" />
    </filter>
    <g id="widget8">
      <path d="M 3110 1370  C 3115.6 1370  3120 1374.4  3120 1380  C 3120 1385.6  3115.6 1390  3110 1390  C 3104.4 1390  3100 1385.6  3100 1380  C 3100 1374.4  3104.4 1370  3110 1370  Z " fill-rule="nonzero" fill="#009999" stroke="none" />
      <path d="M 3110 1370.5  C 3115.32 1370.5  3119.5 1374.68  3119.5 1380  C 3119.5 1385.32  3115.32 1389.5  3110 1389.5  C 3104.68 1389.5  3100.5 1385.32  3100.5 1380  C 3100.5 1374.68  3104.68 1370.5  3110 1370.5  Z " stroke-width="1" stroke="#009999" fill="none" />
    </g>
  </defs>
  <g transform="matrix(1 0 0 1 -3099 -1369 )">
    <use xlink:href="#widget8" filter="url(#filter7)" />
    <use xlink:href="#widget8" />
  </g>
</svg>