<?xml version="1.0" encoding="utf-8"?>
<svg version="1.1" xmlns:xlink="http://www.w3.org/1999/xlink" width="12px" height="12px" viewBox="524 353  12 12" xmlns="http://www.w3.org/2000/svg">
  <path d="M 530 353  C 533.36 353  536 355.64  536 359  C 536 362.36  533.36 365  530 365  C 526.64 365  524 362.36  524 359  C 524 355.64  526.64 353  530 353  Z " fill-rule="nonzero" fill="#ffffff" stroke="none" />
  <path d="M 530 353.5  C 533.08 353.5  535.5 355.92  535.5 359  C 535.5 362.08  533.08 364.5  530 364.5  C 526.92 364.5  524.5 362.08  524.5 359  C 524.5 355.92  526.92 353.5  530 353.5  Z " stroke-width="1" stroke="#797979" fill="none" />
  <path d="M 530 362  C 528.32 362  527 360.68  527 359  C 527 357.32  528.32 356  530 356  C 531.68 356  533 357.32  533 359  C 533 360.68  531.68 362  530 362  " fill-rule="nonzero" fill="#797979" stroke="none" />
</svg>