<?xml version="1.0" encoding="utf-8"?>
<svg version="1.1" xmlns:xlink="http://www.w3.org/1999/xlink" width="12px" height="12px" viewBox="419 1467  12 12" xmlns="http://www.w3.org/2000/svg">
  <path d="M 425 1467  C 428.36 1467  431 1469.64  431 1473  C 431 1476.36  428.36 1479  425 1479  C 421.64 1479  419 1476.36  419 1473  C 419 1469.64  421.64 1467  425 1467  Z " fill-rule="nonzero" fill="#f0f0f0" stroke="none" />
  <path d="M 425 1467.5  C 428.08 1467.5  430.5 1469.92  430.5 1473  C 430.5 1476.08  428.08 1478.5  425 1478.5  C 421.92 1478.5  419.5 1476.08  419.5 1473  C 419.5 1469.92  421.92 1467.5  425 1467.5  Z " stroke-width="1" stroke="#797979" fill="none" />
  <path d="M 425 1476  C 423.32 1476  422 1474.68  422 1473  C 422 1471.32  423.32 1470  425 1470  C 426.68 1470  428 1471.32  428 1473  C 428 1474.68  426.68 1476  425 1476  " fill-rule="nonzero" fill="#797979" stroke="none" />
</svg>