<?xml version="1.0" encoding="utf-8"?>
<svg version="1.1" xmlns:xlink="http://www.w3.org/1999/xlink" width="12px" height="12px" viewBox="709 338  12 12" xmlns="http://www.w3.org/2000/svg">
  <path d="M 715 338  C 718.36 338  721 340.64  721 344  C 721 347.36  718.36 350  715 350  C 711.64 350  709 347.36  709 344  C 709 340.64  711.64 338  715 338  Z " fill-rule="nonzero" fill="#f0f0f0" stroke="none" />
  <path d="M 715 338.5  C 718.08 338.5  720.5 340.92  720.5 344  C 720.5 347.08  718.08 349.5  715 349.5  C 711.92 349.5  709.5 347.08  709.5 344  C 709.5 340.92  711.92 338.5  715 338.5  Z " stroke-width="1" stroke="#797979" fill="none" />
  <path d="M 715 347  C 713.32 347  712 345.68  712 344  C 712 342.32  713.32 341  715 341  C 716.68 341  718 342.32  718 344  C 718 345.68  716.68 347  715 347  " fill-rule="nonzero" fill="#797979" stroke="none" />
</svg>