<?xml version="1.0" encoding="utf-8"?>
<svg version="1.1" xmlns:xlink="http://www.w3.org/1999/xlink" width="12px" height="12px" viewBox="2037 1509  12 12" xmlns="http://www.w3.org/2000/svg">
  <path d="M 2043 1509  C 2046.36 1509  2049 1511.64  2049 1515  C 2049 1518.36  2046.36 1521  2043 1521  C 2039.64 1521  2037 1518.36  2037 1515  C 2037 1511.64  2039.64 1509  2043 1509  Z " fill-rule="nonzero" fill="#ffffff" stroke="none" />
  <path d="M 2043 1509.5  C 2046.08 1509.5  2048.5 1511.92  2048.5 1515  C 2048.5 1518.08  2046.08 1520.5  2043 1520.5  C 2039.92 1520.5  2037.5 1518.08  2037.5 1515  C 2037.5 1511.92  2039.92 1509.5  2043 1509.5  Z " stroke-width="1" stroke="#797979" fill="none" />
  <path d="M 2043 1518  C 2041.32 1518  2040 1516.68  2040 1515  C 2040 1513.32  2041.32 1512  2043 1512  C 2044.68 1512  2046 1513.32  2046 1515  C 2046 1516.68  2044.68 1518  2043 1518  " fill-rule="nonzero" fill="#797979" stroke="none" />
</svg>