<?xml version="1.0" encoding="utf-8"?>
<svg version="1.1" xmlns:xlink="http://www.w3.org/1999/xlink" width="12px" height="12px" viewBox="2117 1509  12 12" xmlns="http://www.w3.org/2000/svg">
  <path d="M 2123 1509  C 2126.36 1509  2129 1511.64  2129 1515  C 2129 1518.36  2126.36 1521  2123 1521  C 2119.64 1521  2117 1518.36  2117 1515  C 2117 1511.64  2119.64 1509  2123 1509  Z " fill-rule="nonzero" fill="#ffffff" stroke="none" />
  <path d="M 2123 1509.5  C 2126.08 1509.5  2128.5 1511.92  2128.5 1515  C 2128.5 1518.08  2126.08 1520.5  2123 1520.5  C 2119.92 1520.5  2117.5 1518.08  2117.5 1515  C 2117.5 1511.92  2119.92 1509.5  2123 1509.5  Z " stroke-width="1" stroke="#797979" fill="none" />
  <path d="M 2123 1518  C 2121.32 1518  2120 1516.68  2120 1515  C 2120 1513.32  2121.32 1512  2123 1512  C 2124.68 1512  2126 1513.32  2126 1515  C 2126 1516.68  2124.68 1518  2123 1518  " fill-rule="nonzero" fill="#797979" stroke="none" />
</svg>