<?xml version="1.0" encoding="utf-8"?>
<svg version="1.1" xmlns:xlink="http://www.w3.org/1999/xlink" width="12px" height="12px" viewBox="2070 2635  12 12" xmlns="http://www.w3.org/2000/svg">
  <path d="M 2076 2635  C 2079.36 2635  2082 2637.64  2082 2641  C 2082 2644.36  2079.36 2647  2076 2647  C 2072.64 2647  2070 2644.36  2070 2641  C 2070 2637.64  2072.64 2635  2076 2635  Z " fill-rule="nonzero" fill="#ffffff" stroke="none" />
  <path d="M 2076 2635.5  C 2079.08 2635.5  2081.5 2637.92  2081.5 2641  C 2081.5 2644.08  2079.08 2646.5  2076 2646.5  C 2072.92 2646.5  2070.5 2644.08  2070.5 2641  C 2070.5 2637.92  2072.92 2635.5  2076 2635.5  Z " stroke-width="1" stroke="#797979" fill="none" />
  <path d="M 2076 2644  C 2074.32 2644  2073 2642.68  2073 2641  C 2073 2639.32  2074.32 2638  2076 2638  C 2077.68 2638  2079 2639.32  2079 2641  C 2079 2642.68  2077.68 2644  2076 2644  " fill-rule="nonzero" fill="#797979" stroke="none" />
</svg>