<?xml version="1.0" encoding="utf-8"?>
<svg version="1.1" xmlns:xlink="http://www.w3.org/1999/xlink" width="12px" height="12px" viewBox="2150 2635  12 12" xmlns="http://www.w3.org/2000/svg">
  <path d="M 2156 2635  C 2159.36 2635  2162 2637.64  2162 2641  C 2162 2644.36  2159.36 2647  2156 2647  C 2152.64 2647  2150 2644.36  2150 2641  C 2150 2637.64  2152.64 2635  2156 2635  Z " fill-rule="nonzero" fill="#ffffff" stroke="none" />
  <path d="M 2156 2635.5  C 2159.08 2635.5  2161.5 2637.92  2161.5 2641  C 2161.5 2644.08  2159.08 2646.5  2156 2646.5  C 2152.92 2646.5  2150.5 2644.08  2150.5 2641  C 2150.5 2637.92  2152.92 2635.5  2156 2635.5  Z " stroke-width="1" stroke="#797979" fill="none" />
  <path d="M 2156 2644  C 2154.32 2644  2153 2642.68  2153 2641  C 2153 2639.32  2154.32 2638  2156 2638  C 2157.68 2638  2159 2639.32  2159 2641  C 2159 2642.68  2157.68 2644  2156 2644  " fill-rule="nonzero" fill="#797979" stroke="none" />
</svg>