<?xml version="1.0" encoding="utf-8"?>
<svg version="1.1" xmlns:xlink="http://www.w3.org/1999/xlink" width="12px" height="12px" xmlns="http://www.w3.org/2000/svg">
  <g transform="matrix(1 0 0 1 -223 -209 )">
    <path d="M 6.00000650390625 4.60045543359375  C 6.21471046875 4.60045543359375  6.39037735546875 4.7761223203125  6.39037735546875 4.99082628515625  L 6.39037735546875 7.00917371484375  C 6.39037735546875 7.2238776796875  6.21471046875 7.39954456640625  6.00000650390625 7.39954456640625  C 5.7853025390625 7.39954456640625  5.60963565234375 7.2238776796875  5.60963565234375 7.00917371484375  L 5.60963565234375 4.99082628515625  C 5.60963565234375 4.7761223203125  5.7853025390625 4.60045543359375  6.00000650390625 4.60045543359375  Z M 2.7995771015625 6  C 2.799590109375 6.21470396484375  2.623923234375 6.3903708515625  2.4092192578125 6.3903708515625  L 0.390871828125 6.3903708515625  C 0.17616786328125 6.3903708515625  0.000500976562499977 6.21470396484375  0.000500976562499977 6  C 0.000500976562499977 5.78529603515625  0.17616786328125 5.6096291484375  0.390871828125 5.6096291484375  L 2.40920625 5.6096291484375  C 2.62391021484375 5.6096291484375  2.7995771015625 5.78529603515625  2.7995771015625 6  Z M 11.99951203125 6  C 11.99951203125 6.21470396484375  11.8238451445312 6.3903708515625  11.6091411796875 6.3903708515625  L 9.59079375 6.3903708515625  C 9.37608978515625 6.3903708515625  9.2004228984375 6.21470396484375  9.2004228984375 6  C 9.2004228984375 5.78529603515625  9.37608978515625 5.6096291484375  9.59079375 5.6096291484375  L 11.6091411796875 5.6096291484375  C 11.8238451445312 5.6096291484375  11.99951203125 5.78529603515625  11.99951203125 6  Z M 6.018015609375 0  C 6.23271957421875 0  6.4083864609375 0.17566688671875  6.40838647265625 0.3903708515625  L 6.40838647265625 2.4087312890625  C 6.40838647265625 2.62343525390625  6.2327195859375 2.799102140625  6.018015609375 2.79910215234375  C 5.8033116328125 2.7991021640625  5.6276447578125 2.623435265625  5.6276447578125 2.4087312890625  L 5.6276447578125 0.3903708515625  C 5.6276447578125 0.17566688671875  5.80331164453125 0  6.018015609375 0  Z M 6.018015609375 9.2009108671875  C 6.23271957421875 9.2009108671875  6.4083864609375 9.37657775390625  6.40838647265625 9.59128171875  L 6.40838647265625 11.6096291484375  C 6.40838647265625 11.8243331132813  6.2327195859375 12  6.018015609375 12  C 5.8033116328125 12  5.6276447578125 11.8243331132813  5.6276447578125 11.6096291484375  L 5.6276447578125 9.59128171875  C 5.6276447578125 9.37657775390625  5.80331164453125 9.2009108671875  6.018015609375 9.2009108671875  Z " fill-rule="nonzero" fill="#000000" stroke="none" transform="matrix(1 0 0 1 223 209 )" />
  </g>
</svg>