<?xml version="1.0" encoding="utf-8"?>
<svg version="1.1" xmlns:xlink="http://www.w3.org/1999/xlink" width="10px" height="10px" xmlns="http://www.w3.org/2000/svg">
  <g transform="matrix(1 0 0 1 -224 -210 )">
    <path d="M 6.90221334885817 9.4974475773738  C 6.30500850736178 9.75005004507212  5.67084355093149 9.87812171724759  5.01733522010216 9.87812171724759  C 4.36382688927284 9.87812171724759  3.72966193284255 9.75005004507212  3.13245708007813 9.4974475773738  C 2.55582177734375 9.25355338040865  2.03802987905649 8.90447175105168  1.59345753079928 8.45989940279447  C 1.14888518254207 8.01533957331731  0.799803564453125 7.49753515625  0.555909367487981 6.92089985351562  C 0.303319407301683 6.32369501201923  0.175235227614183 5.68953005558894  0.175235227614183 5.03602172475962  C 0.175235227614183 4.38251339393029  0.303306899789664 3.74833591871995  0.555909367487981 3.15114358473558  C 0.799803564453125 2.5745082820012  1.14889770132212 2.05670386493389  1.59345753079928 1.61214403545673  C 2.03801736027644 1.16758420597957  2.55582177734375 0.818490069110577  3.13245708007813 0.574595860877404  C 3.72966192157452 0.322005900691106  4.36382687800481 0.193921721003606  5.01733522010216 0.193921721003606  C 5.67084356219952 0.193921721003606  6.30500850736178 0.321993393179087  6.90221334885817 0.574595860877404  C 7.47884865159255 0.818490057842548  7.99665306865986 1.16757168719952  8.44121289813702 1.61214403545673  C 8.88578524639423 2.05671638371394  9.23486686448317 2.5745082820012  9.47876107271635 3.15114358473558  C 9.73135103290264 3.74833591871995  9.85943521259014 4.38251338266226  9.85943521259014 5.03602172475962  C 9.85943521259014 5.68953006685697  9.73136354041466 6.32369501201923  9.47876107271635 6.92089985351562  C 9.2348668757512 7.49753515625  8.88578524639423 8.01533957331731  8.44121289813702 8.45989940279447  C 7.99665306865985 8.90447175105168  7.47884865159255 9.25355336914063  6.90221334885817 9.4974475773738  Z M 9.10872203650841 5.03602172475962  C 9.10872203650841 2.78002853064904  7.27332841421274 0.944634908353366  5.01733522010216 0.944634908353366  C 2.76134202599159 0.944634908353366  0.925948403695913 2.78002853064904  0.925948403695913 5.03602172475962  C 0.925948403695913 7.29202742638221  2.76134202599159 9.12740854116586  5.01733522010216 9.12740854116586  C 7.27334092172476 9.12740854116586  9.10872203650841 7.29202742638221  9.10872203650841 5.03602172475962  Z " fill-rule="nonzero" fill="#000000" stroke="none" transform="matrix(1 0 0 1 224 210 )" />
  </g>
</svg>