<?xml version="1.0" encoding="utf-8"?>
<svg version="1.1" xmlns:xlink="http://www.w3.org/1999/xlink" width="12px" height="12px" viewBox="473 129  12 12" xmlns="http://www.w3.org/2000/svg">
  <path d="M 479 129  C 482.36 129  485 131.64  485 135  C 485 138.36  482.36 141  479 141  C 475.64 141  473 138.36  473 135  C 473 131.64  475.64 129  479 129  Z " fill-rule="nonzero" fill="#f0f0f0" stroke="none" />
  <path d="M 479 129.5  C 482.08 129.5  484.5 131.92  484.5 135  C 484.5 138.08  482.08 140.5  479 140.5  C 475.92 140.5  473.5 138.08  473.5 135  C 473.5 131.92  475.92 129.5  479 129.5  Z " stroke-width="1" stroke="#797979" fill="none" />
  <path d="M 479 138  C 477.32 138  476 136.68  476 135  C 476 133.32  477.32 132  479 132  C 480.68 132  482 133.32  482 135  C 482 136.68  480.68 138  479 138  " fill-rule="nonzero" fill="#797979" stroke="none" />
</svg>