<?xml version="1.0" encoding="utf-8"?>
<svg version="1.1" xmlns:xlink="http://www.w3.org/1999/xlink" width="12px" height="12px" viewBox="389 1149  12 12" xmlns="http://www.w3.org/2000/svg">
  <path d="M 395 1149  C 398.36 1149  401 1151.64  401 1155  C 401 1158.36  398.36 1161  395 1161  C 391.64 1161  389 1158.36  389 1155  C 389 1151.64  391.64 1149  395 1149  Z " fill-rule="nonzero" fill="#f0f0f0" stroke="none" />
  <path d="M 395 1149.5  C 398.08 1149.5  400.5 1151.92  400.5 1155  C 400.5 1158.08  398.08 1160.5  395 1160.5  C 391.92 1160.5  389.5 1158.08  389.5 1155  C 389.5 1151.92  391.92 1149.5  395 1149.5  Z " stroke-width="1" stroke="#797979" fill="none" />
  <path d="M 395 1158  C 393.32 1158  392 1156.68  392 1155  C 392 1153.32  393.32 1152  395 1152  C 396.68 1152  398 1153.32  398 1155  C 398 1156.68  396.68 1158  395 1158  " fill-rule="nonzero" fill="#797979" stroke="none" />
</svg>