<?xml version="1.0" encoding="utf-8"?>
<svg version="1.1" xmlns:xlink="http://www.w3.org/1999/xlink" width="12px" height="12px" viewBox="1014 129  12 12" xmlns="http://www.w3.org/2000/svg">
  <path d="M 1020 129  C 1023.36 129  1026 131.64  1026 135  C 1026 138.36  1023.36 141  1020 141  C 1016.64 141  1014 138.36  1014 135  C 1014 131.64  1016.64 129  1020 129  Z " fill-rule="nonzero" fill="#ffffff" stroke="none" />
  <path d="M 1020 129.5  C 1023.08 129.5  1025.5 131.92  1025.5 135  C 1025.5 138.08  1023.08 140.5  1020 140.5  C 1016.92 140.5  1014.5 138.08  1014.5 135  C 1014.5 131.92  1016.92 129.5  1020 129.5  Z " stroke-width="1" stroke="#797979" fill="none" />
  <path d="M 1020 138  C 1018.32 138  1017 136.68  1017 135  C 1017 133.32  1018.32 132  1020 132  C 1021.68 132  1023 133.32  1023 135  C 1023 136.68  1021.68 138  1020 138  " fill-rule="nonzero" fill="#797979" stroke="none" />
</svg>