<?xml version="1.0" encoding="utf-8"?>
<svg version="1.1" xmlns:xlink="http://www.w3.org/1999/xlink" width="12px" height="12px" viewBox="1108 129  12 12" xmlns="http://www.w3.org/2000/svg">
  <path d="M 1114 129  C 1117.36 129  1120 131.64  1120 135  C 1120 138.36  1117.36 141  1114 141  C 1110.64 141  1108 138.36  1108 135  C 1108 131.64  1110.64 129  1114 129  Z " fill-rule="nonzero" fill="#ffffff" stroke="none" />
  <path d="M 1114 129.5  C 1117.08 129.5  1119.5 131.92  1119.5 135  C 1119.5 138.08  1117.08 140.5  1114 140.5  C 1110.92 140.5  1108.5 138.08  1108.5 135  C 1108.5 131.92  1110.92 129.5  1114 129.5  Z " stroke-width="1" stroke="#797979" fill="none" />
  <path d="M 1114 138  C 1112.32 138  1111 136.68  1111 135  C 1111 133.32  1112.32 132  1114 132  C 1115.68 132  1117 133.32  1117 135  C 1117 136.68  1115.68 138  1114 138  " fill-rule="nonzero" fill="#797979" stroke="none" />
</svg>