<?xml version="1.0" encoding="utf-8"?>
<svg version="1.1" xmlns:xlink="http://www.w3.org/1999/xlink" width="12px" height="12px" viewBox="920 129  12 12" xmlns="http://www.w3.org/2000/svg">
  <path d="M 926 129  C 929.36 129  932 131.64  932 135  C 932 138.36  929.36 141  926 141  C 922.64 141  920 138.36  920 135  C 920 131.64  922.64 129  926 129  Z " fill-rule="nonzero" fill="#f0f0f0" stroke="none" />
  <path d="M 926 129.5  C 929.08 129.5  931.5 131.92  931.5 135  C 931.5 138.08  929.08 140.5  926 140.5  C 922.92 140.5  920.5 138.08  920.5 135  C 920.5 131.92  922.92 129.5  926 129.5  Z " stroke-width="1" stroke="#797979" fill="none" />
  <path d="M 926 138  C 924.32 138  923 136.68  923 135  C 923 133.32  924.32 132  926 132  C 927.68 132  929 133.32  929 135  C 929 136.68  927.68 138  926 138  " fill-rule="nonzero" fill="#797979" stroke="none" />
</svg>