<?xml version="1.0" encoding="utf-8"?>
<svg version="1.1" xmlns:xlink="http://www.w3.org/1999/xlink" width="12px" height="12px" viewBox="412 617  12 12" xmlns="http://www.w3.org/2000/svg">
  <path d="M 418 617  C 421.36 617  424 619.64  424 623  C 424 626.36  421.36 629  418 629  C 414.64 629  412 626.36  412 623  C 412 619.64  414.64 617  418 617  Z " fill-rule="nonzero" fill="#f0f0f0" stroke="none" />
  <path d="M 418 617.5  C 421.08 617.5  423.5 619.92  423.5 623  C 423.5 626.08  421.08 628.5  418 628.5  C 414.92 628.5  412.5 626.08  412.5 623  C 412.5 619.92  414.92 617.5  418 617.5  Z " stroke-width="1" stroke="#797979" fill="none" />
  <path d="M 418 626  C 416.32 626  415 624.68  415 623  C 415 621.32  416.32 620  418 620  C 419.68 620  421 621.32  421 623  C 421 624.68  419.68 626  418 626  " fill-rule="nonzero" fill="#797979" stroke="none" />
</svg>