<?xml version="1.0" encoding="utf-8"?>
<svg version="1.1" xmlns:xlink="http://www.w3.org/1999/xlink" width="12px" height="12px" viewBox="392 129  12 12" xmlns="http://www.w3.org/2000/svg">
  <path d="M 398 129  C 401.36 129  404 131.64  404 135  C 404 138.36  401.36 141  398 141  C 394.64 141  392 138.36  392 135  C 392 131.64  394.64 129  398 129  Z " fill-rule="nonzero" fill="#ffffff" stroke="none" />
  <path d="M 398 129.5  C 401.08 129.5  403.5 131.92  403.5 135  C 403.5 138.08  401.08 140.5  398 140.5  C 394.92 140.5  392.5 138.08  392.5 135  C 392.5 131.92  394.92 129.5  398 129.5  Z " stroke-width="1" stroke="#797979" fill="none" />
  <path d="M 398 138  C 396.32 138  395 136.68  395 135  C 395 133.32  396.32 132  398 132  C 399.68 132  401 133.32  401 135  C 401 136.68  399.68 138  398 138  " fill-rule="nonzero" fill="#797979" stroke="none" />
</svg>