<?xml version="1.0" encoding="utf-8"?>
<svg version="1.1" xmlns:xlink="http://www.w3.org/1999/xlink" width="12px" height="12px" viewBox="412 579  12 12" xmlns="http://www.w3.org/2000/svg">
  <path d="M 418 579  C 421.36 579  424 581.64  424 585  C 424 588.36  421.36 591  418 591  C 414.64 591  412 588.36  412 585  C 412 581.64  414.64 579  418 579  Z " fill-rule="nonzero" fill="#ffffff" stroke="none" />
  <path d="M 418 579.5  C 421.08 579.5  423.5 581.92  423.5 585  C 423.5 588.08  421.08 590.5  418 590.5  C 414.92 590.5  412.5 588.08  412.5 585  C 412.5 581.92  414.92 579.5  418 579.5  Z " stroke-width="1" stroke="#797979" fill="none" />
  <path d="M 418 588  C 416.32 588  415 586.68  415 585  C 415 583.32  416.32 582  418 582  C 419.68 582  421 583.32  421 585  C 421 586.68  419.68 588  418 588  " fill-rule="nonzero" fill="#797979" stroke="none" />
</svg>