<?xml version="1.0" encoding="utf-8"?>
<svg version="1.1" xmlns:xlink="http://www.w3.org/1999/xlink" width="12px" height="12px" viewBox="731 129  12 12" xmlns="http://www.w3.org/2000/svg">
  <path d="M 737 129  C 740.36 129  743 131.64  743 135  C 743 138.36  740.36 141  737 141  C 733.64 141  731 138.36  731 135  C 731 131.64  733.64 129  737 129  Z " fill-rule="nonzero" fill="#f0f0f0" stroke="none" />
  <path d="M 737 129.5  C 740.08 129.5  742.5 131.92  742.5 135  C 742.5 138.08  740.08 140.5  737 140.5  C 733.92 140.5  731.5 138.08  731.5 135  C 731.5 131.92  733.92 129.5  737 129.5  Z " stroke-width="1" stroke="#797979" fill="none" />
  <path d="M 737 138  C 735.32 138  734 136.68  734 135  C 734 133.32  735.32 132  737 132  C 738.68 132  740 133.32  740 135  C 740 136.68  738.68 138  737 138  " fill-rule="nonzero" fill="#797979" stroke="none" />
</svg>