<?xml version="1.0" encoding="utf-8"?>
<svg version="1.1" xmlns:xlink="http://www.w3.org/1999/xlink" width="12px" height="12px" viewBox="530 1149  12 12" xmlns="http://www.w3.org/2000/svg">
  <path d="M 536 1149  C 539.36 1149  542 1151.64  542 1155  C 542 1158.36  539.36 1161  536 1161  C 532.64 1161  530 1158.36  530 1155  C 530 1151.64  532.64 1149  536 1149  Z " fill-rule="nonzero" fill="#ffffff" stroke="none" />
  <path d="M 536 1149.5  C 539.08 1149.5  541.5 1151.92  541.5 1155  C 541.5 1158.08  539.08 1160.5  536 1160.5  C 532.92 1160.5  530.5 1158.08  530.5 1155  C 530.5 1151.92  532.92 1149.5  536 1149.5  Z " stroke-width="1" stroke="#797979" fill="none" />
  <path d="M 536 1158  C 534.32 1158  533 1156.68  533 1155  C 533 1153.32  534.32 1152  536 1152  C 537.68 1152  539 1153.32  539 1155  C 539 1156.68  537.68 1158  536 1158  " fill-rule="nonzero" fill="#797979" stroke="none" />
</svg>