<?xml version="1.0" encoding="utf-8"?>
<svg version="1.1" xmlns:xlink="http://www.w3.org/1999/xlink" width="12px" height="12px" viewBox="637 129  12 12" xmlns="http://www.w3.org/2000/svg">
  <path d="M 643 129  C 646.36 129  649 131.64  649 135  C 649 138.36  646.36 141  643 141  C 639.64 141  637 138.36  637 135  C 637 131.64  639.64 129  643 129  Z " fill-rule="nonzero" fill="#ffffff" stroke="none" />
  <path d="M 643 129.5  C 646.08 129.5  648.5 131.92  648.5 135  C 648.5 138.08  646.08 140.5  643 140.5  C 639.92 140.5  637.5 138.08  637.5 135  C 637.5 131.92  639.92 129.5  643 129.5  Z " stroke-width="1" stroke="#797979" fill="none" />
  <path d="M 643 138  C 641.32 138  640 136.68  640 135  C 640 133.32  641.32 132  643 132  C 644.68 132  646 133.32  646 135  C 646 136.68  644.68 138  643 138  " fill-rule="nonzero" fill="#797979" stroke="none" />
</svg>