<?xml version="1.0" encoding="utf-8"?>
<svg version="1.1" xmlns:xlink="http://www.w3.org/1999/xlink" width="12px" height="12px" viewBox="832 129  12 12" xmlns="http://www.w3.org/2000/svg">
  <path d="M 838 129  C 841.36 129  844 131.64  844 135  C 844 138.36  841.36 141  838 141  C 834.64 141  832 138.36  832 135  C 832 131.64  834.64 129  838 129  Z " fill-rule="nonzero" fill="#ffffff" stroke="none" />
  <path d="M 838 129.5  C 841.08 129.5  843.5 131.92  843.5 135  C 843.5 138.08  841.08 140.5  838 140.5  C 834.92 140.5  832.5 138.08  832.5 135  C 832.5 131.92  834.92 129.5  838 129.5  Z " stroke-width="1" stroke="#797979" fill="none" />
  <path d="M 838 138  C 836.32 138  835 136.68  835 135  C 835 133.32  836.32 132  838 132  C 839.68 132  841 133.32  841 135  C 841 136.68  839.68 138  838 138  " fill-rule="nonzero" fill="#797979" stroke="none" />
</svg>