<?xml version="1.0" encoding="utf-8"?>
<svg version="1.1" xmlns:xlink="http://www.w3.org/1999/xlink" width="12px" height="12px" viewBox="547 948  12 12" xmlns="http://www.w3.org/2000/svg">
  <path d="M 553 948  C 556.36 948  559 950.64  559 954  C 559 957.36  556.36 960  553 960  C 549.64 960  547 957.36  547 954  C 547 950.64  549.64 948  553 948  Z " fill-rule="nonzero" fill="#f0f0f0" stroke="none" />
  <path d="M 553 948.5  C 556.08 948.5  558.5 950.92  558.5 954  C 558.5 957.08  556.08 959.5  553 959.5  C 549.92 959.5  547.5 957.08  547.5 954  C 547.5 950.92  549.92 948.5  553 948.5  Z " stroke-width="1" stroke="#797979" fill="none" />
  <path d="M 553 957  C 551.32 957  550 955.68  550 954  C 550 952.32  551.32 951  553 951  C 554.68 951  556 952.32  556 954  C 556 955.68  554.68 957  553 957  " fill-rule="nonzero" fill="#797979" stroke="none" />
</svg>