<?xml version="1.0" encoding="utf-8"?>
<svg version="1.1" xmlns:xlink="http://www.w3.org/1999/xlink" width="12px" height="12px" viewBox="668 948  12 12" xmlns="http://www.w3.org/2000/svg">
  <path d="M 674 948  C 677.36 948  680 950.64  680 954  C 680 957.36  677.36 960  674 960  C 670.64 960  668 957.36  668 954  C 668 950.64  670.64 948  674 948  Z " fill-rule="nonzero" fill="#ffffff" stroke="none" />
  <path d="M 674 948.5  C 677.08 948.5  679.5 950.92  679.5 954  C 679.5 957.08  677.08 959.5  674 959.5  C 670.92 959.5  668.5 957.08  668.5 954  C 668.5 950.92  670.92 948.5  674 948.5  Z " stroke-width="1" stroke="#797979" fill="none" />
  <path d="M 674 957  C 672.32 957  671 955.68  671 954  C 671 952.32  672.32 951  674 951  C 675.68 951  677 952.32  677 954  C 677 955.68  675.68 957  674 957  " fill-rule="nonzero" fill="#797979" stroke="none" />
</svg>