<?xml version="1.0" encoding="utf-8"?>
<svg version="1.1" xmlns:xlink="http://www.w3.org/1999/xlink" width="180px" height="93px" xmlns="http://www.w3.org/2000/svg">
  <defs>
    <linearGradient gradientUnits="userSpaceOnUse" x1="240" y1="52" x2="240" y2="145" id="LinearGradient708">
      <stop id="Stop709" stop-color="#ffffff" offset="0" />
      <stop id="Stop710" stop-color="#f2f2f2" offset="0" />
      <stop id="Stop711" stop-color="#e4e4e4" offset="1" />
      <stop id="Stop712" stop-color="#ffffff" offset="1" />
    </linearGradient>
  </defs>
  <g transform="matrix(1 0 0 1 -150 -52 )">
    <path d="M 240 52  C 290.4 52  330 72.46  330 98.5  C 330 124.54  290.4 145  240 145  C 189.6 145  150 124.54  150 98.5  C 150 72.46  189.6 52  240 52  Z " fill-rule="nonzero" fill="url(#LinearGradient708)" stroke="none" />
    <path d="M 240 52.5  C 290.12 52.5  329.5 72.74  329.5 98.5  C 329.5 124.26  290.12 144.5  240 144.5  C 189.88 144.5  150.5 124.26  150.5 98.5  C 150.5 72.74  189.88 52.5  240 52.5  Z " stroke-width="1" stroke="#797979" fill="none" />
  </g>
</svg>