<?xml version="1.0" encoding="utf-8"?>
<svg version="1.1" xmlns:xlink="http://www.w3.org/1999/xlink" width="12px" height="12px" viewBox="488 407  12 12" xmlns="http://www.w3.org/2000/svg">
  <path d="M 494 407  C 497.36 407  500 409.64  500 413  C 500 416.36  497.36 419  494 419  C 490.64 419  488 416.36  488 413  C 488 409.64  490.64 407  494 407  Z " fill-rule="nonzero" fill="#ffffff" stroke="none" />
  <path d="M 494 407.5  C 497.08 407.5  499.5 409.92  499.5 413  C 499.5 416.08  497.08 418.5  494 418.5  C 490.92 418.5  488.5 416.08  488.5 413  C 488.5 409.92  490.92 407.5  494 407.5  Z " stroke-width="1" stroke="#797979" fill="none" />
  <path d="M 494 416  C 492.32 416  491 414.68  491 413  C 491 411.32  492.32 410  494 410  C 495.68 410  497 411.32  497 413  C 497 414.68  495.68 416  494 416  " fill-rule="nonzero" fill="#797979" stroke="none" />
</svg>