<?xml version="1.0" encoding="utf-8"?>
<svg version="1.1" xmlns:xlink="http://www.w3.org/1999/xlink" width="12px" height="12px" viewBox="388 407  12 12" xmlns="http://www.w3.org/2000/svg">
  <path d="M 394 407  C 397.36 407  400 409.64  400 413  C 400 416.36  397.36 419  394 419  C 390.64 419  388 416.36  388 413  C 388 409.64  390.64 407  394 407  Z " fill-rule="nonzero" fill="#ffffff" stroke="none" />
  <path d="M 394 407.5  C 397.08 407.5  399.5 409.92  399.5 413  C 399.5 416.08  397.08 418.5  394 418.5  C 390.92 418.5  388.5 416.08  388.5 413  C 388.5 409.92  390.92 407.5  394 407.5  Z " stroke-width="1" stroke="#797979" fill="none" />
  <path d="M 394 416  C 392.32 416  391 414.68  391 413  C 391 411.32  392.32 410  394 410  C 395.68 410  397 411.32  397 413  C 397 414.68  395.68 416  394 416  " fill-rule="nonzero" fill="#797979" stroke="none" />
</svg>