<?xml version="1.0" encoding="utf-8"?>
<svg version="1.1" xmlns:xlink="http://www.w3.org/1999/xlink" width="27px" height="27px" xmlns="http://www.w3.org/2000/svg">
  <g transform="matrix(1 0 0 1 -539 -617 )">
    <path d="M 552.5 617  C 560.06 617  566 622.94  566 630.5  C 566 638.06  560.06 644  552.5 644  C 544.94 644  539 638.06  539 630.5  C 539 622.94  544.94 617  552.5 617  Z " fill-rule="nonzero" fill="#ffffff" stroke="none" />
    <path d="M 552.5 617.5  C 559.78 617.5  565.5 623.22  565.5 630.5  C 565.5 637.78  559.78 643.5  552.5 643.5  C 545.22 643.5  539.5 637.78  539.5 630.5  C 539.5 623.22  545.22 617.5  552.5 617.5  Z " stroke-width="1" stroke="#797979" fill="none" />
  </g>
</svg>