<?xml version="1.0" encoding="utf-8"?>
<svg version="1.1" xmlns:xlink="http://www.w3.org/1999/xlink" width="12px" height="12px" viewBox="390 484  12 12" xmlns="http://www.w3.org/2000/svg">
  <path d="M 396 484  C 399.36 484  402 486.64  402 490  C 402 493.36  399.36 496  396 496  C 392.64 496  390 493.36  390 490  C 390 486.64  392.64 484  396 484  Z " fill-rule="nonzero" fill="#f0f0f0" stroke="none" />
  <path d="M 396 484.5  C 399.08 484.5  401.5 486.92  401.5 490  C 401.5 493.08  399.08 495.5  396 495.5  C 392.92 495.5  390.5 493.08  390.5 490  C 390.5 486.92  392.92 484.5  396 484.5  Z " stroke-width="1" stroke="#797979" fill="none" />
  <path d="M 396 493  C 394.32 493  393 491.68  393 490  C 393 488.32  394.32 487  396 487  C 397.68 487  399 488.32  399 490  C 399 491.68  397.68 493  396 493  " fill-rule="nonzero" fill="#797979" stroke="none" />
</svg>