<?xml version="1.0" encoding="utf-8"?>
<svg version="1.1" xmlns:xlink="http://www.w3.org/1999/xlink" width="12px" height="12px" viewBox="490 484  12 12" xmlns="http://www.w3.org/2000/svg">
  <path d="M 496 484  C 499.36 484  502 486.64  502 490  C 502 493.36  499.36 496  496 496  C 492.64 496  490 493.36  490 490  C 490 486.64  492.64 484  496 484  Z " fill-rule="nonzero" fill="#ffffff" stroke="none" />
  <path d="M 496 484.5  C 499.08 484.5  501.5 486.92  501.5 490  C 501.5 493.08  499.08 495.5  496 495.5  C 492.92 495.5  490.5 493.08  490.5 490  C 490.5 486.92  492.92 484.5  496 484.5  Z " stroke-width="1" stroke="#797979" fill="none" />
  <path d="M 496 493  C 494.32 493  493 491.68  493 490  C 493 488.32  494.32 487  496 487  C 497.68 487  499 488.32  499 490  C 499 491.68  497.68 493  496 493  " fill-rule="nonzero" fill="#797979" stroke="none" />
</svg>