<?xml version="1.0" encoding="utf-8"?>
<svg version="1.1" xmlns:xlink="http://www.w3.org/1999/xlink" width="12px" height="12px" viewBox="388 506  12 12" xmlns="http://www.w3.org/2000/svg">
  <path d="M 394 506  C 397.36 506  400 508.64  400 512  C 400 515.36  397.36 518  394 518  C 390.64 518  388 515.36  388 512  C 388 508.64  390.64 506  394 506  Z " fill-rule="nonzero" fill="#ffffff" stroke="none" />
  <path d="M 394 506.5  C 397.08 506.5  399.5 508.92  399.5 512  C 399.5 515.08  397.08 517.5  394 517.5  C 390.92 517.5  388.5 515.08  388.5 512  C 388.5 508.92  390.92 506.5  394 506.5  Z " stroke-width="1" stroke="#797979" fill="none" />
  <path d="M 394 515  C 392.32 515  391 513.68  391 512  C 391 510.32  392.32 509  394 509  C 395.68 509  397 510.32  397 512  C 397 513.68  395.68 515  394 515  " fill-rule="nonzero" fill="#797979" stroke="none" />
</svg>