<?xml version="1.0" encoding="utf-8"?>
<svg version="1.1" xmlns:xlink="http://www.w3.org/1999/xlink" width="8px" height="8px" xmlns="http://www.w3.org/2000/svg">
  <g transform="matrix(1 0 0 1 -812 -154 )">
    <path d="M 816 154  C 818.24 154  820 155.76  820 158  C 820 160.24  818.24 162  816 162  C 813.76 162  812 160.24  812 158  C 812 155.76  813.76 154  816 154  Z " fill-rule="nonzero" fill="#e9e9e9" stroke="none" />
    <path d="M 816 154.5  C 817.96 154.5  819.5 156.04  819.5 158  C 819.5 159.96  817.96 161.5  816 161.5  C 814.04 161.5  812.5 159.96  812.5 158  C 812.5 156.04  814.04 154.5  816 154.5  Z " stroke-width="1" stroke="#ffffff" fill="none" />
  </g>
</svg>