<?xml version="1.0" encoding="utf-8"?>
<svg version="1.1" xmlns:xlink="http://www.w3.org/1999/xlink" width="12px" height="12px" viewBox="282 136  12 12" xmlns="http://www.w3.org/2000/svg">
  <path d="M 288 136  C 291.36 136  294 138.64  294 142  C 294 145.36  291.36 148  288 148  C 284.64 148  282 145.36  282 142  C 282 138.64  284.64 136  288 136  Z " fill-rule="nonzero" fill="#ffffff" stroke="none" />
  <path d="M 288 136.5  C 291.08 136.5  293.5 138.92  293.5 142  C 293.5 145.08  291.08 147.5  288 147.5  C 284.92 147.5  282.5 145.08  282.5 142  C 282.5 138.92  284.92 136.5  288 136.5  Z " stroke-width="1" stroke="#797979" fill="none" />
  <path d="M 288 145  C 286.32 145  285 143.68  285 142  C 285 140.32  286.32 139  288 139  C 289.68 139  291 140.32  291 142  C 291 143.68  289.68 145  288 145  " fill-rule="nonzero" fill="#797979" stroke="none" />
</svg>