<?xml version="1.0" encoding="utf-8"?>
<svg version="1.1" xmlns:xlink="http://www.w3.org/1999/xlink" width="10px" height="10px" xmlns="http://www.w3.org/2000/svg">
  <g transform="matrix(1 0 0 1 -402 -154 )">
    <path d="M 407 155  C 409.24 155  411 156.76  411 159  C 411 161.24  409.24 163  407 163  C 404.76 163  403 161.24  403 159  C 403 156.76  404.76 155  407 155  Z " fill-rule="nonzero" fill="#1890ff" stroke="none" />
    <path d="M 407 155  C 409.24 155  411 156.76  411 159  C 411 161.24  409.24 163  407 163  C 404.76 163  403 161.24  403 159  C 403 156.76  404.76 155  407 155  Z " stroke-width="2" stroke="#ffffff" fill="none" />
  </g>
</svg>