<?xml version="1.0" encoding="utf-8"?>
<svg version="1.1" xmlns:xlink="http://www.w3.org/1999/xlink" width="12px" height="12px" viewBox="172 136  12 12" xmlns="http://www.w3.org/2000/svg">
  <path d="M 178 136  C 181.36 136  184 138.64  184 142  C 184 145.36  181.36 148  178 148  C 174.64 148  172 145.36  172 142  C 172 138.64  174.64 136  178 136  Z " fill-rule="nonzero" fill="#f0f0f0" stroke="none" />
  <path d="M 178 136.5  C 181.08 136.5  183.5 138.92  183.5 142  C 183.5 145.08  181.08 147.5  178 147.5  C 174.92 147.5  172.5 145.08  172.5 142  C 172.5 138.92  174.92 136.5  178 136.5  Z " stroke-width="1" stroke="#797979" fill="none" />
  <path d="M 178 145  C 176.32 145  175 143.68  175 142  C 175 140.32  176.32 139  178 139  C 179.68 139  181 140.32  181 142  C 181 143.68  179.68 145  178 145  " fill-rule="nonzero" fill="#797979" stroke="none" />
</svg>