<?xml version="1.0" encoding="utf-8"?>
<svg version="1.1" xmlns:xlink="http://www.w3.org/1999/xlink" width="12px" height="12px" viewBox="551 869  12 12" xmlns="http://www.w3.org/2000/svg">
  <path d="M 557 869  C 560.36 869  563 871.64  563 875  C 563 878.36  560.36 881  557 881  C 553.64 881  551 878.36  551 875  C 551 871.64  553.64 869  557 869  Z " fill-rule="nonzero" fill="#f0f0f0" stroke="none" />
  <path d="M 557 869.5  C 560.08 869.5  562.5 871.92  562.5 875  C 562.5 878.08  560.08 880.5  557 880.5  C 553.92 880.5  551.5 878.08  551.5 875  C 551.5 871.92  553.92 869.5  557 869.5  Z " stroke-width="1" stroke="#797979" fill="none" />
  <path d="M 557 878  C 555.32 878  554 876.68  554 875  C 554 873.32  555.32 872  557 872  C 558.68 872  560 873.32  560 875  C 560 876.68  558.68 878  557 878  " fill-rule="nonzero" fill="#797979" stroke="none" />
</svg>