<?xml version="1.0" encoding="utf-8"?>
<svg version="1.1" xmlns:xlink="http://www.w3.org/1999/xlink" width="12px" height="12px" viewBox="2056 2552  12 12" xmlns="http://www.w3.org/2000/svg">
  <path d="M 2062 2552  C 2065.36 2552  2068 2554.64  2068 2558  C 2068 2561.36  2065.36 2564  2062 2564  C 2058.64 2564  2056 2561.36  2056 2558  C 2056 2554.64  2058.64 2552  2062 2552  Z " fill-rule="nonzero" fill="#ffffff" stroke="none" />
  <path d="M 2062 2552.5  C 2065.08 2552.5  2067.5 2554.92  2067.5 2558  C 2067.5 2561.08  2065.08 2563.5  2062 2563.5  C 2058.92 2563.5  2056.5 2561.08  2056.5 2558  C 2056.5 2554.92  2058.92 2552.5  2062 2552.5  Z " stroke-width="1" stroke="#797979" fill="none" />
  <path d="M 2062 2561  C 2060.32 2561  2059 2559.68  2059 2558  C 2059 2556.32  2060.32 2555  2062 2555  C 2063.68 2555  2065 2556.32  2065 2558  C 2065 2559.68  2063.68 2561  2062 2561  " fill-rule="nonzero" fill="#797979" stroke="none" />
</svg>