<?xml version="1.0" encoding="utf-8"?>
<svg version="1.1" xmlns:xlink="http://www.w3.org/1999/xlink" width="12px" height="12px" viewBox="2056 3134  12 12" xmlns="http://www.w3.org/2000/svg">
  <path d="M 2062 3134  C 2065.36 3134  2068 3136.64  2068 3140  C 2068 3143.36  2065.36 3146  2062 3146  C 2058.64 3146  2056 3143.36  2056 3140  C 2056 3136.64  2058.64 3134  2062 3134  Z " fill-rule="nonzero" fill="#ffffff" stroke="none" />
  <path d="M 2062 3134.5  C 2065.08 3134.5  2067.5 3136.92  2067.5 3140  C 2067.5 3143.08  2065.08 3145.5  2062 3145.5  C 2058.92 3145.5  2056.5 3143.08  2056.5 3140  C 2056.5 3136.92  2058.92 3134.5  2062 3134.5  Z " stroke-width="1" stroke="#797979" fill="none" />
  <path d="M 2062 3143  C 2060.32 3143  2059 3141.68  2059 3140  C 2059 3138.32  2060.32 3137  2062 3137  C 2063.68 3137  2065 3138.32  2065 3140  C 2065 3141.68  2063.68 3143  2062 3143  " fill-rule="nonzero" fill="#797979" stroke="none" />
</svg>