<?xml version="1.0" encoding="utf-8"?>
<svg version="1.1" xmlns:xlink="http://www.w3.org/1999/xlink" width="12px" height="12px" viewBox="2599 3134  12 12" xmlns="http://www.w3.org/2000/svg">
  <path d="M 2605 3134  C 2608.36 3134  2611 3136.64  2611 3140  C 2611 3143.36  2608.36 3146  2605 3146  C 2601.64 3146  2599 3143.36  2599 3140  C 2599 3136.64  2601.64 3134  2605 3134  Z " fill-rule="nonzero" fill="#ffffff" stroke="none" />
  <path d="M 2605 3134.5  C 2608.08 3134.5  2610.5 3136.92  2610.5 3140  C 2610.5 3143.08  2608.08 3145.5  2605 3145.5  C 2601.92 3145.5  2599.5 3143.08  2599.5 3140  C 2599.5 3136.92  2601.92 3134.5  2605 3134.5  Z " stroke-width="1" stroke="#797979" fill="none" />
  <path d="M 2605 3143  C 2603.32 3143  2602 3141.68  2602 3140  C 2602 3138.32  2603.32 3137  2605 3137  C 2606.68 3137  2608 3138.32  2608 3140  C 2608 3141.68  2606.68 3143  2605 3143  " fill-rule="nonzero" fill="#797979" stroke="none" />
</svg>