<?xml version="1.0" encoding="utf-8"?>
<svg version="1.1" xmlns:xlink="http://www.w3.org/1999/xlink" width="136px" height="253px" xmlns="http://www.w3.org/2000/svg">
  <g transform="matrix(1 0 0 1 -163 -548 )">
    <path d="M 163 548  L 299 548  L 299 801  L 163 801  L 163 548  " fill-rule="nonzero" fill="#cccccc" stroke="none" />
    <path d="M 173 558  L 289 558  L 289 791  L 173 791  L 173 558  " fill-rule="nonzero" fill="#ffffff" stroke="none" />
    <path d="M 243.92 606.35  C 238.208 606.35  233.72 601.862  233.72 596.15  C 233.72 590.438  238.208 585.95  243.92 585.95  C 249.632 585.95  254.12 590.438  254.12 596.15  C 254.12 601.862  249.632 606.35  243.92 606.35  " fill-rule="nonzero" fill="#cccccc" stroke="none" />
    <path d="M 177 788  L 177 663.7  L 204.25 607.2  L 242.4 652.4  L 264.2 641.1  L 286 652.4  L 286 788  L 177 788  " fill-rule="nonzero" fill="#169bd5" stroke="none" />
  </g>
</svg>