<?xml version="1.0" encoding="utf-8"?>
<svg version="1.1" xmlns:xlink="http://www.w3.org/1999/xlink" width="30px" height="30px" xmlns="http://www.w3.org/2000/svg">
  <g transform="matrix(1 0 0 1 -263 -761 )">
    <path d="M 11.796181640625 11.821640625  C 8.856884765625 15.129755859375  5.4943359375 20.868251953125  7.175595703125 22.421953125  C 8.856884765625 23.975654296875  13.371533203125 20.75513671875  16.74251953125 18.215625  C 20.113505859375 15.676171875  22.77205078125 12.85376953125  22.77205078125 12.85376953125  L 22.77205078125 23.975654296875  L 16.74251953125 30  L 1 30  L 1 4  L 19.39921875 4  C 19.39921875 3.86712890625  14.735478515625 8.513525390625  11.796181640625 11.821640625  Z M 15.389443359375 16.646865234375  C 15.389443359375 16.646865234375  9.906005859375 21.065625  9.07171875 20.216806640625  C 8.23927734375 19.368076171875  12.58236328125 13.789072265625  12.58236328125 13.789072265625  L 15.389443359375 16.646865234375  Z M 13.32708984375 13.031337890625  L 23.153671875 3.033603515625  L 25.96248046875 5.889580078125  L 16.134169921875 15.88734375  L 13.327060546875 13.031337890625  Z M 25.962451171875 0.17578125  L 28.76953125 3.03357421875  L 26.70720703125 5.131845703125  L 23.900126953125 2.274052734375  L 25.96248046875 0.17578125  Z " fill-rule="nonzero" fill="#6e9ff4" stroke="none" transform="matrix(1 0 0 1 263 761 )" />
  </g>
</svg>