<?xml version="1.0" encoding="utf-8"?>
<svg version="1.1" xmlns:xlink="http://www.w3.org/1999/xlink" width="12px" height="12px" viewBox="547 679  12 12" xmlns="http://www.w3.org/2000/svg">
  <path d="M 553 679  C 556.36 679  559 681.64  559 685  C 559 688.36  556.36 691  553 691  C 549.64 691  547 688.36  547 685  C 547 681.64  549.64 679  553 679  Z " fill-rule="nonzero" fill="#ffffff" stroke="none" />
  <path d="M 553 679.5  C 556.08 679.5  558.5 681.92  558.5 685  C 558.5 688.08  556.08 690.5  553 690.5  C 549.92 690.5  547.5 688.08  547.5 685  C 547.5 681.92  549.92 679.5  553 679.5  Z " stroke-width="1" stroke="#797979" fill="none" />
  <path d="M 553 688  C 551.32 688  550 686.68  550 685  C 550 683.32  551.32 682  553 682  C 554.68 682  556 683.32  556 685  C 556 686.68  554.68 688  553 688  " fill-rule="nonzero" fill="#797979" stroke="none" />
</svg>