<?xml version="1.0" encoding="utf-8"?>
<svg version="1.1" xmlns:xlink="http://www.w3.org/1999/xlink" width="12px" height="12px" viewBox="2321 1047  12 12" xmlns="http://www.w3.org/2000/svg">
  <path d="M 2327 1047  C 2330.36 1047  2333 1049.64  2333 1053  C 2333 1056.36  2330.36 1059  2327 1059  C 2323.64 1059  2321 1056.36  2321 1053  C 2321 1049.64  2323.64 1047  2327 1047  Z " fill-rule="nonzero" fill="#f0f0f0" stroke="none" />
  <path d="M 2327 1047.5  C 2330.08 1047.5  2332.5 1049.92  2332.5 1053  C 2332.5 1056.08  2330.08 1058.5  2327 1058.5  C 2323.92 1058.5  2321.5 1056.08  2321.5 1053  C 2321.5 1049.92  2323.92 1047.5  2327 1047.5  Z " stroke-width="1" stroke="#797979" fill="none" />
  <path d="M 2327 1056  C 2325.32 1056  2324 1054.68  2324 1053  C 2324 1051.32  2325.32 1050  2327 1050  C 2328.68 1050  2330 1051.32  2330 1053  C 2330 1054.68  2328.68 1056  2327 1056  " fill-rule="nonzero" fill="#797979" stroke="none" />
</svg>