<?xml version="1.0" encoding="utf-8"?>
<svg version="1.1" xmlns:xlink="http://www.w3.org/1999/xlink" width="12px" height="12px" viewBox="2321 1618  12 12" xmlns="http://www.w3.org/2000/svg">
  <path d="M 2327 1618  C 2330.36 1618  2333 1620.64  2333 1624  C 2333 1627.36  2330.36 1630  2327 1630  C 2323.64 1630  2321 1627.36  2321 1624  C 2321 1620.64  2323.64 1618  2327 1618  Z " fill-rule="nonzero" fill="#ffffff" stroke="none" />
  <path d="M 2327 1618.5  C 2330.08 1618.5  2332.5 1620.92  2332.5 1624  C 2332.5 1627.08  2330.08 1629.5  2327 1629.5  C 2323.92 1629.5  2321.5 1627.08  2321.5 1624  C 2321.5 1620.92  2323.92 1618.5  2327 1618.5  Z " stroke-width="1" stroke="#797979" fill="none" />
  <path d="M 2327 1627  C 2325.32 1627  2324 1625.68  2324 1624  C 2324 1622.32  2325.32 1621  2327 1621  C 2328.68 1621  2330 1622.32  2330 1624  C 2330 1625.68  2328.68 1627  2327 1627  " fill-rule="nonzero" fill="#797979" stroke="none" />
</svg>