<?xml version="1.0" encoding="utf-8"?>
<svg version="1.1" xmlns:xlink="http://www.w3.org/1999/xlink" width="12px" height="12px" viewBox="2189 1618  12 12" xmlns="http://www.w3.org/2000/svg">
  <path d="M 2195 1618  C 2198.36 1618  2201 1620.64  2201 1624  C 2201 1627.36  2198.36 1630  2195 1630  C 2191.64 1630  2189 1627.36  2189 1624  C 2189 1620.64  2191.64 1618  2195 1618  Z " fill-rule="nonzero" fill="#ffffff" stroke="none" />
  <path d="M 2195 1618.5  C 2198.08 1618.5  2200.5 1620.92  2200.5 1624  C 2200.5 1627.08  2198.08 1629.5  2195 1629.5  C 2191.92 1629.5  2189.5 1627.08  2189.5 1624  C 2189.5 1620.92  2191.92 1618.5  2195 1618.5  Z " stroke-width="1" stroke="#797979" fill="none" />
  <path d="M 2195 1627  C 2193.32 1627  2192 1625.68  2192 1624  C 2192 1622.32  2193.32 1621  2195 1621  C 2196.68 1621  2198 1622.32  2198 1624  C 2198 1625.68  2196.68 1627  2195 1627  " fill-rule="nonzero" fill="#797979" stroke="none" />
</svg>