<?xml version="1.0" encoding="utf-8"?>
<svg version="1.1" xmlns:xlink="http://www.w3.org/1999/xlink" width="10px" height="10px" xmlns="http://www.w3.org/2000/svg">
  <g transform="matrix(1 0 0 1 -2006 -2525 )">
    <path d="M 2011 2526  C 2013.24 2526  2015 2527.76  2015 2530  C 2015 2532.24  2013.24 2534  2011 2534  C 2008.76 2534  2007 2532.24  2007 2530  C 2007 2527.76  2008.76 2526  2011 2526  Z " fill-rule="nonzero" fill="#ffffff" stroke="none" />
    <path d="M 2011 2526  C 2013.24 2526  2015 2527.76  2015 2530  C 2015 2532.24  2013.24 2534  2011 2534  C 2008.76 2534  2007 2532.24  2007 2530  C 2007 2527.76  2008.76 2526  2011 2526  Z " stroke-width="2" stroke="#108ee9" fill="none" />
  </g>
</svg>