<?xml version="1.0" encoding="utf-8"?>
<svg version="1.1" xmlns:xlink="http://www.w3.org/1999/xlink" width="10px" height="10px" xmlns="http://www.w3.org/2000/svg">
  <g transform="matrix(1 0 0 1 -2006 -2650 )">
    <path d="M 2011 2651  C 2013.24 2651  2015 2652.76  2015 2655  C 2015 2657.24  2013.24 2659  2011 2659  C 2008.76 2659  2007 2657.24  2007 2655  C 2007 2652.76  2008.76 2651  2011 2651  Z " fill-rule="nonzero" fill="#ffffff" stroke="none" />
    <path d="M 2011 2651  C 2013.24 2651  2015 2652.76  2015 2655  C 2015 2657.24  2013.24 2659  2011 2659  C 2008.76 2659  2007 2657.24  2007 2655  C 2007 2652.76  2008.76 2651  2011 2651  Z " stroke-width="2" stroke="#d9d9d9" fill="none" />
  </g>
</svg>