<?xml version="1.0" encoding="utf-8"?>
<svg version="1.1" xmlns:xlink="http://www.w3.org/1999/xlink" width="12px" height="12px" viewBox="2037 1724  12 12" xmlns="http://www.w3.org/2000/svg">
  <path d="M 2043 1724  C 2046.36 1724  2049 1726.64  2049 1730  C 2049 1733.36  2046.36 1736  2043 1736  C 2039.64 1736  2037 1733.36  2037 1730  C 2037 1726.64  2039.64 1724  2043 1724  Z " fill-rule="nonzero" fill="#ffffff" stroke="none" />
  <path d="M 2043 1724.5  C 2046.08 1724.5  2048.5 1726.92  2048.5 1730  C 2048.5 1733.08  2046.08 1735.5  2043 1735.5  C 2039.92 1735.5  2037.5 1733.08  2037.5 1730  C 2037.5 1726.92  2039.92 1724.5  2043 1724.5  Z " stroke-width="1" stroke="#797979" fill="none" />
  <path d="M 2043 1733  C 2041.32 1733  2040 1731.68  2040 1730  C 2040 1728.32  2041.32 1727  2043 1727  C 2044.68 1727  2046 1728.32  2046 1730  C 2046 1731.68  2044.68 1733  2043 1733  " fill-rule="nonzero" fill="#797979" stroke="none" />
</svg>