<?xml version="1.0" encoding="utf-8"?>
<svg version="1.1" xmlns:xlink="http://www.w3.org/1999/xlink" width="92px" height="92px" xmlns="http://www.w3.org/2000/svg">
  <g transform="matrix(1 0 0 1 -630 -76 )">
    <path d="M 676 76  C 701.76 76  722 96.24  722 122  C 722 147.76  701.76 168  676 168  C 650.24 168  630 147.76  630 122  C 630 96.24  650.24 76  676 76  Z " fill-rule="nonzero" fill="#ffffff" stroke="none" />
    <path d="M 676 76.5  C 701.48 76.5  721.5 96.52  721.5 122  C 721.5 147.48  701.48 167.5  676 167.5  C 650.52 167.5  630.5 147.48  630.5 122  C 630.5 96.52  650.52 76.5  676 76.5  Z " stroke-width="1" stroke="#666666" fill="none" />
  </g>
</svg>