<?xml version="1.0" encoding="utf-8"?>
<svg version="1.1" xmlns:xlink="http://www.w3.org/1999/xlink" width="9px" height="15px" xmlns="http://www.w3.org/2000/svg">
  <g transform="matrix(1 0 0 1 -29 -53 )">
    <path d="M 8.84536082474227 0.901803607214447  C 8.94845360824743 1.00200400801606  9 1.11723446893788  9 1.24749498997997  C 9 1.37775551102206  8.94845360824743 1.49298597194388  8.84536082474227 1.59318637274549  L 2.7680412371134 7.5  L 8.84536082474227 13.4068136272545  C 8.94845360824743 13.5070140280561  9 13.6222444889779  9 13.75250501002  C 9 13.8827655310621  8.94845360824743 13.9979959919839  8.84536082474227 14.0981963927856  L 8.07216494845361 14.8496993987976  C 7.96907216494846 14.9498997995992  7.85051546391753 15  7.71649484536082 15  C 7.58247422680412 15  7.4639175257732 14.9498997995992  7.36082474226804 14.8496993987976  L 0.154639175257735 7.84569138276552  C 0.0515463917525807 7.74549098196391  0 7.63026052104209  0 7.5  C 0 7.36973947895791  0.0515463917525807 7.25450901803609  0.154639175257735 7.15430861723448  L 7.36082474226804 0.150300601202389  C 7.4639175257732 0.0501002004007773  7.58247422680412 0  7.71649484536082 0  C 7.85051546391753 0  7.96907216494846 0.0501002004007773  8.07216494845361 0.150300601202389  L 8.84536082474227 0.901803607214447  Z " fill-rule="nonzero" fill="#333333" stroke="none" transform="matrix(1 0 0 1 29 53 )" />
  </g>
</svg>