<?xml version="1.0" encoding="utf-8"?>
<svg version="1.1" xmlns:xlink="http://www.w3.org/1999/xlink" width="12px" height="12px" viewBox="410 529  12 12" xmlns="http://www.w3.org/2000/svg">
  <path d="M 416 529  C 419.36 529  422 531.64  422 535  C 422 538.36  419.36 541  416 541  C 412.64 541  410 538.36  410 535  C 410 531.64  412.64 529  416 529  Z " fill-rule="nonzero" fill="#ffffff" stroke="none" />
  <path d="M 416 529.5  C 419.08 529.5  421.5 531.92  421.5 535  C 421.5 538.08  419.08 540.5  416 540.5  C 412.92 540.5  410.5 538.08  410.5 535  C 410.5 531.92  412.92 529.5  416 529.5  Z " stroke-width="1" stroke="#797979" fill="none" />
  <path d="M 416 538  C 414.32 538  413 536.68  413 535  C 413 533.32  414.32 532  416 532  C 417.68 532  419 533.32  419 535  C 419 536.68  417.68 538  416 538  " fill-rule="nonzero" fill="#797979" stroke="none" />
</svg>