<?xml version="1.0" encoding="utf-8"?>
<svg version="1.1" xmlns:xlink="http://www.w3.org/1999/xlink" width="12px" height="12px" viewBox="410 652  12 12" xmlns="http://www.w3.org/2000/svg">
  <path d="M 416 652  C 419.36 652  422 654.64  422 658  C 422 661.36  419.36 664  416 664  C 412.64 664  410 661.36  410 658  C 410 654.64  412.64 652  416 652  Z " fill-rule="nonzero" fill="#ffffff" stroke="none" />
  <path d="M 416 652.5  C 419.08 652.5  421.5 654.92  421.5 658  C 421.5 661.08  419.08 663.5  416 663.5  C 412.92 663.5  410.5 661.08  410.5 658  C 410.5 654.92  412.92 652.5  416 652.5  Z " stroke-width="1" stroke="#797979" fill="none" />
  <path d="M 416 661  C 414.32 661  413 659.68  413 658  C 413 656.32  414.32 655  416 655  C 417.68 655  419 656.32  419 658  C 419 659.68  417.68 661  416 661  " fill-rule="nonzero" fill="#797979" stroke="none" />
</svg>