<?xml version="1.0" encoding="utf-8"?>
<svg version="1.1" xmlns:xlink="http://www.w3.org/1999/xlink" width="12px" height="12px" viewBox="495 652  12 12" xmlns="http://www.w3.org/2000/svg">
  <path d="M 501 652  C 504.36 652  507 654.64  507 658  C 507 661.36  504.36 664  501 664  C 497.64 664  495 661.36  495 658  C 495 654.64  497.64 652  501 652  Z " fill-rule="nonzero" fill="#f0f0f0" stroke="none" />
  <path d="M 501 652.5  C 504.08 652.5  506.5 654.92  506.5 658  C 506.5 661.08  504.08 663.5  501 663.5  C 497.92 663.5  495.5 661.08  495.5 658  C 495.5 654.92  497.92 652.5  501 652.5  Z " stroke-width="1" stroke="#797979" fill="none" />
  <path d="M 501 661  C 499.32 661  498 659.68  498 658  C 498 656.32  499.32 655  501 655  C 502.68 655  504 656.32  504 658  C 504 659.68  502.68 661  501 661  " fill-rule="nonzero" fill="#797979" stroke="none" />
</svg>