<?xml version="1.0" encoding="utf-8"?>
<svg version="1.1" xmlns:xlink="http://www.w3.org/1999/xlink" width="12px" height="12px" viewBox="415 339  12 12" xmlns="http://www.w3.org/2000/svg">
  <path d="M 421 339  C 424.36 339  427 341.64  427 345  C 427 348.36  424.36 351  421 351  C 417.64 351  415 348.36  415 345  C 415 341.64  417.64 339  421 339  Z " fill-rule="nonzero" fill="#f0f0f0" stroke="none" />
  <path d="M 421 339.5  C 424.08 339.5  426.5 341.92  426.5 345  C 426.5 348.08  424.08 350.5  421 350.5  C 417.92 350.5  415.5 348.08  415.5 345  C 415.5 341.92  417.92 339.5  421 339.5  Z " stroke-width="1" stroke="#797979" fill="none" />
  <path d="M 421 348  C 419.32 348  418 346.68  418 345  C 418 343.32  419.32 342  421 342  C 422.68 342  424 343.32  424 345  C 424 346.68  422.68 348  421 348  " fill-rule="nonzero" fill="#797979" stroke="none" />
</svg>