<?xml version="1.0" encoding="utf-8"?>
<svg version="1.1" xmlns:xlink="http://www.w3.org/1999/xlink" width="12px" height="12px" viewBox="1031 553  12 12" xmlns="http://www.w3.org/2000/svg">
  <path d="M 1037 553  C 1040.36 553  1043 555.64  1043 559  C 1043 562.36  1040.36 565  1037 565  C 1033.64 565  1031 562.36  1031 559  C 1031 555.64  1033.64 553  1037 553  Z " fill-rule="nonzero" fill="#f0f0f0" stroke="none" />
  <path d="M 1037 553.5  C 1040.08 553.5  1042.5 555.92  1042.5 559  C 1042.5 562.08  1040.08 564.5  1037 564.5  C 1033.92 564.5  1031.5 562.08  1031.5 559  C 1031.5 555.92  1033.92 553.5  1037 553.5  Z " stroke-width="1" stroke="#797979" fill="none" />
  <path d="M 1037 562  C 1035.32 562  1034 560.68  1034 559  C 1034 557.32  1035.32 556  1037 556  C 1038.68 556  1040 557.32  1040 559  C 1040 560.68  1038.68 562  1037 562  " fill-rule="nonzero" fill="#797979" stroke="none" />
</svg>