<?xml version="1.0" encoding="utf-8"?>
<svg version="1.1" xmlns:xlink="http://www.w3.org/1999/xlink" width="12px" height="12px" viewBox="1152 553  12 12" xmlns="http://www.w3.org/2000/svg">
  <path d="M 1158 553  C 1161.36 553  1164 555.64  1164 559  C 1164 562.36  1161.36 565  1158 565  C 1154.64 565  1152 562.36  1152 559  C 1152 555.64  1154.64 553  1158 553  Z " fill-rule="nonzero" fill="#f0f0f0" stroke="none" />
  <path d="M 1158 553.5  C 1161.08 553.5  1163.5 555.92  1163.5 559  C 1163.5 562.08  1161.08 564.5  1158 564.5  C 1154.92 564.5  1152.5 562.08  1152.5 559  C 1152.5 555.92  1154.92 553.5  1158 553.5  Z " stroke-width="1" stroke="#797979" fill="none" />
  <path d="M 1158 562  C 1156.32 562  1155 560.68  1155 559  C 1155 557.32  1156.32 556  1158 556  C 1159.68 556  1161 557.32  1161 559  C 1161 560.68  1159.68 562  1158 562  " fill-rule="nonzero" fill="#797979" stroke="none" />
</svg>