<?xml version="1.0" encoding="utf-8"?>
<svg version="1.1" xmlns:xlink="http://www.w3.org/1999/xlink" width="26px" height="41px" xmlns="http://www.w3.org/2000/svg">
  <defs>
    <linearGradient gradientUnits="userSpaceOnUse" x1="303.5" y1="39" x2="303.5" y2="79" id="LinearGradient6">
      <stop id="Stop7" stop-color="#ffffff" offset="0" />
      <stop id="Stop8" stop-color="#f2f2f2" offset="0" />
      <stop id="Stop9" stop-color="#e4e4e4" offset="1" />
      <stop id="Stop10" stop-color="#ffffff" offset="1" />
    </linearGradient>
  </defs>
  <g transform="matrix(1 0 0 1 -291 -39 )">
    <path d="M 303.5 39.5  C 306.02 39.5  308 41.48  308 44  C 308 46.52  306.02 48.5  303.5 48.5  C 300.98 48.5  299 46.52  299 44  C 299 41.48  300.98 39.5  303.5 39.5  Z " fill-rule="nonzero" fill="url(#LinearGradient6)" stroke="none" />
    <path d="M 303.5 39.5  C 306.02 39.5  308 41.48  308 44  C 308 46.52  306.02 48.5  303.5 48.5  C 300.98 48.5  299 46.52  299 44  C 299 41.48  300.98 39.5  303.5 39.5  Z " stroke-width="1" stroke="#797979" fill="none" />
    <path d="M 291 54  L 316 54  M 303.5 49  L 303.5 66.5  M 293.5 79  L 303.5 66.5  M 303.5 66.5  L 313.5 79  " stroke-width="1" stroke="#797979" fill="none" />
  </g>
</svg>