<?xml version="1.0" encoding="utf-8"?>
<svg version="1.1" xmlns:xlink="http://www.w3.org/1999/xlink" width="110px" height="70px" xmlns="http://www.w3.org/2000/svg">
  <defs>
    <linearGradient gradientUnits="userSpaceOnUse" x1="1702" y1="540" x2="1702" y2="610" id="LinearGradient457">
      <stop id="Stop458" stop-color="#ffffff" offset="0" />
      <stop id="Stop459" stop-color="#f2f2f2" offset="0" />
      <stop id="Stop460" stop-color="#e4e4e4" offset="1" />
      <stop id="Stop461" stop-color="#ffffff" offset="1" />
    </linearGradient>
  </defs>
  <g transform="matrix(1 0 0 1 -1647 -540 )">
    <path d="M 1667 609.5  L 1747 609.5  C 1752.32 609.5  1756.5 605.32  1756.5 600  L 1756.5 560  C 1756.5 556.019603773678  1754.16005511139 552.677374335159  1750.75342682486 551.246573175137  C 1749.80416230702 548.986446856925  1748.01355314308 547.195837692984  1745.75342682486 546.246573175137  C 1744.32262566484 542.83994488861  1740.98039622632 540.5  1737 540.5  L 1657 540.5  C 1651.68 540.5  1647.5 544.68  1647.5 550  L 1647.5 590  C 1647.5 593.980396226322  1649.83994488861 597.322625664841  1653.24657317514 598.753426824863  C 1654.19583769298 601.013553143075  1655.98644685692 602.804162307016  1658.24657317514 603.753426824863  C 1659.67737433516 607.16005511139  1663.01960377368 609.5  1667 609.5  Z " fill-rule="nonzero" fill="url(#LinearGradient457)" stroke="none" />
    <path d="M 1667.5 609.5  L 1746.5 609.5  C 1752.1 609.5  1756.5 605.1  1756.5 599.5  L 1756.5 560.5  C 1756.5 556.382075431273  1754.12078660343 552.913027243428  1750.63475218691 551.365247813086  C 1749.64403149537 549.13386628665  1747.86613371335 547.355968504625  1745.63475218691 546.365247813086  C 1744.08697275657 542.879213396569  1740.61792456873 540.5  1736.5 540.5  L 1657.5 540.5  C 1651.9 540.5  1647.5 544.9  1647.5 550.5  L 1647.5 589.5  C 1647.5 593.617924568727  1649.87921339657 597.086972756572  1653.36524781309 598.634752186914  C 1654.35596850463 600.86613371335  1656.13386628665 602.644031495375  1658.36524781309 603.634752186914  C 1659.91302724343 607.120786603431  1663.38207543127 609.5  1667.5 609.5  Z " stroke-width="1" stroke="#797979" fill="none" />
    <path d="M 1750.67801457757 551.071985422432  C 1751.20722037943 552.263905668009  1751.5 553.592028340291  1751.5 555  L 1751.5 594.5  C 1751.5 600.1  1747.1 604.5  1741.5 604.5  L 1662 604.5  C 1658.08797165971 604.5  1654.79237588126 602.23974727326  1653.32198542243 598.928014577568  M 1745.67801457757 546.071985422432  C 1746.20722037943 547.263905668009  1746.5 548.592028340291  1746.5 550  L 1746.5 589.499  C 1746.5 595.099  1742.1 599.499  1736.5 599.499  L 1657 599.5  C 1655.59202834029 599.5  1654.26390566801 599.207220379431  1653.07198542243 598.678014577568  " stroke-width="1" stroke="#797979" fill="none" />
  </g>
</svg>