<?xml version="1.0" encoding="utf-8"?>
<svg version="1.1" xmlns:xlink="http://www.w3.org/1999/xlink" width="12px" height="12px" viewBox="2398 2008  12 12" xmlns="http://www.w3.org/2000/svg">
  <path d="M 2404 2008  C 2407.36 2008  2410 2010.64  2410 2014  C 2410 2017.36  2407.36 2020  2404 2020  C 2400.64 2020  2398 2017.36  2398 2014  C 2398 2010.64  2400.64 2008  2404 2008  Z " fill-rule="nonzero" fill="#ffffff" stroke="none" />
  <path d="M 2404 2008.5  C 2407.08 2008.5  2409.5 2010.92  2409.5 2014  C 2409.5 2017.08  2407.08 2019.5  2404 2019.5  C 2400.92 2019.5  2398.5 2017.08  2398.5 2014  C 2398.5 2010.92  2400.92 2008.5  2404 2008.5  Z " stroke-width="1" stroke="#797979" fill="none" />
  <path d="M 2404 2017  C 2402.32 2017  2401 2015.68  2401 2014  C 2401 2012.32  2402.32 2011  2404 2011  C 2405.68 2011  2407 2012.32  2407 2014  C 2407 2015.68  2405.68 2017  2404 2017  " fill-rule="nonzero" fill="#797979" stroke="none" />
</svg>