<?xml version="1.0" encoding="utf-8"?>
<svg version="1.1" xmlns:xlink="http://www.w3.org/1999/xlink" width="12px" height="12px" viewBox="2493 2008  12 12" xmlns="http://www.w3.org/2000/svg">
  <path d="M 2499 2008  C 2502.36 2008  2505 2010.64  2505 2014  C 2505 2017.36  2502.36 2020  2499 2020  C 2495.64 2020  2493 2017.36  2493 2014  C 2493 2010.64  2495.64 2008  2499 2008  Z " fill-rule="nonzero" fill="#ffffff" stroke="none" />
  <path d="M 2499 2008.5  C 2502.08 2008.5  2504.5 2010.92  2504.5 2014  C 2504.5 2017.08  2502.08 2019.5  2499 2019.5  C 2495.92 2019.5  2493.5 2017.08  2493.5 2014  C 2493.5 2010.92  2495.92 2008.5  2499 2008.5  Z " stroke-width="1" stroke="#797979" fill="none" />
  <path d="M 2499 2017  C 2497.32 2017  2496 2015.68  2496 2014  C 2496 2012.32  2497.32 2011  2499 2011  C 2500.68 2011  2502 2012.32  2502 2014  C 2502 2015.68  2500.68 2017  2499 2017  " fill-rule="nonzero" fill="#797979" stroke="none" />
</svg>