<?xml version="1.0" encoding="utf-8"?>
<svg version="1.1" xmlns:xlink="http://www.w3.org/1999/xlink" width="52px" height="42px" xmlns="http://www.w3.org/2000/svg">
  <g transform="matrix(1 0 0 1 -2076 -2922 )">
    <path d="M 2076 2922  L 2128 2922  L 2128 2964  L 2076 2964  L 2076 2922  " fill-rule="nonzero" fill="#cccccc" stroke="none" />
    <path d="M 2079 2925  L 2125 2925  L 2125 2961  L 2079 2961  L 2079 2925  " fill-rule="nonzero" fill="#ffffff" stroke="none" />
    <path d="M 2106.19 2934.6  C 2104.426 2934.6  2103.04 2933.214  2103.04 2931.45  C 2103.04 2929.686  2104.426 2928.3  2106.19 2928.3  C 2107.954 2928.3  2109.34 2929.686  2109.34 2931.45  C 2109.34 2933.214  2107.954 2934.6  2106.19 2934.6  " fill-rule="nonzero" fill="#cccccc" stroke="none" />
    <path d="M 2080 2960  L 2080 2941.3  L 2091 2932.8  L 2106.4 2943.52307692308  L 2115.2 2937.9  L 2124 2943.52307692308  L 2124 2960  L 2080 2960  " fill-rule="nonzero" fill="#169bd5" stroke="none" />
  </g>
</svg>