<?xml version="1.0" encoding="utf-8"?>
<svg version="1.1" xmlns:xlink="http://www.w3.org/1999/xlink" width="300px" height="170px" xmlns="http://www.w3.org/2000/svg">
  <g transform="matrix(1 0 0 1 -2076 -2733 )">
    <path d="M 2076 2733  L 2376 2733  L 2376 2903  L 2076 2903  L 2076 2733  " fill-rule="nonzero" fill="#cccccc" stroke="none" />
    <path d="M 2088 2745  L 2364 2745  L 2364 2891  L 2088 2891  L 2088 2745  " fill-rule="nonzero" fill="#ffffff" stroke="none" />
    <path d="M 2244.75 2784  C 2237.61 2784  2232 2778.39  2232 2771.25  C 2232 2764.11  2237.61 2758.5  2244.75 2758.5  C 2251.89 2758.5  2257.5 2764.11  2257.5 2771.25  C 2257.5 2778.39  2251.89 2784  2244.75 2784  " fill-rule="nonzero" fill="#cccccc" stroke="none" />
    <path d="M 2093 2887  L 2093 2811.65  L 2159.75 2777.4  L 2253.2 2840.42  L 2306.6 2797.95  L 2360 2840.42  L 2360 2887  L 2093 2887  " fill-rule="nonzero" fill="#169bd5" stroke="none" />
  </g>
</svg>