<?xml version="1.0" encoding="utf-8"?>
<svg version="1.1" xmlns:xlink="http://www.w3.org/1999/xlink" width="12px" height="12px" viewBox="419 1361  12 12" xmlns="http://www.w3.org/2000/svg">
  <path d="M 425 1361  C 428.36 1361  431 1363.64  431 1367  C 431 1370.36  428.36 1373  425 1373  C 421.64 1373  419 1370.36  419 1367  C 419 1363.64  421.64 1361  425 1361  Z " fill-rule="nonzero" fill="#ffffff" stroke="none" />
  <path d="M 425 1361.5  C 428.08 1361.5  430.5 1363.92  430.5 1367  C 430.5 1370.08  428.08 1372.5  425 1372.5  C 421.92 1372.5  419.5 1370.08  419.5 1367  C 419.5 1363.92  421.92 1361.5  425 1361.5  Z " stroke-width="1" stroke="#797979" fill="none" />
  <path d="M 425 1370  C 423.32 1370  422 1368.68  422 1367  C 422 1365.32  423.32 1364  425 1364  C 426.68 1364  428 1365.32  428 1367  C 428 1368.68  426.68 1370  425 1370  " fill-rule="nonzero" fill="#797979" stroke="none" />
</svg>