<?xml version="1.0" encoding="utf-8"?>
<svg version="1.1" xmlns:xlink="http://www.w3.org/1999/xlink" width="12px" height="12px" viewBox="319 1361  12 12" xmlns="http://www.w3.org/2000/svg">
  <path d="M 325 1361  C 328.36 1361  331 1363.64  331 1367  C 331 1370.36  328.36 1373  325 1373  C 321.64 1373  319 1370.36  319 1367  C 319 1363.64  321.64 1361  325 1361  Z " fill-rule="nonzero" fill="#ffffff" stroke="none" />
  <path d="M 325 1361.5  C 328.08 1361.5  330.5 1363.92  330.5 1367  C 330.5 1370.08  328.08 1372.5  325 1372.5  C 321.92 1372.5  319.5 1370.08  319.5 1367  C 319.5 1363.92  321.92 1361.5  325 1361.5  Z " stroke-width="1" stroke="#797979" fill="none" />
  <path d="M 325 1370  C 323.32 1370  322 1368.68  322 1367  C 322 1365.32  323.32 1364  325 1364  C 326.68 1364  328 1365.32  328 1367  C 328 1368.68  326.68 1370  325 1370  " fill-rule="nonzero" fill="#797979" stroke="none" />
</svg>