<?xml version="1.0" encoding="utf-8"?>
<svg version="1.1" xmlns:xlink="http://www.w3.org/1999/xlink" width="65px" height="64px" xmlns="http://www.w3.org/2000/svg">
  <g transform="matrix(1 0 0 1 -1031 -921 )">
    <path d="M 1031 921  L 1096 921  L 1096 985  L 1031 985  L 1031 921  " fill-rule="nonzero" fill="#cccccc" stroke="none" />
    <path d="M 1035 925  L 1092 925  L 1092 981  L 1035 981  L 1035 925  " fill-rule="nonzero" fill="#ffffff" stroke="none" />
    <path d="M 1069.6 940.2  C 1066.912 940.2  1064.8 938.088  1064.8 935.4  C 1064.8 932.712  1066.912 930.6  1069.6 930.6  C 1072.288 930.6  1074.4 932.712  1074.4 935.4  C 1074.4 938.088  1072.288 940.2  1069.6 940.2  " fill-rule="nonzero" fill="#cccccc" stroke="none" />
    <path d="M 1037 980  L 1037 950.85  L 1050.5 937.6  L 1069.4 948.689230769231  L 1080.2 945.55  L 1091 948.689230769231  L 1091 980  L 1037 980  " fill-rule="nonzero" fill="#169bd5" stroke="none" />
    <path d="M 1032 984  L 1032 922  L 1095 922  L 1095 984  L 1032 984  Z " stroke-width="2" stroke="#d9001b" fill="none" />
  </g>
</svg>