<?xml version="1.0" encoding="utf-8"?>
<svg version="1.1" xmlns:xlink="http://www.w3.org/1999/xlink" width="328px" height="170px" xmlns="http://www.w3.org/2000/svg">
  <g transform="matrix(1 0 0 1 -16 -49 )">
    <path d="M 16 49  L 344 49  L 344 219  L 16 219  L 16 49  " fill-rule="nonzero" fill="#cccccc" stroke="none" />
    <path d="M 28 61  L 332 61  L 332 207  L 28 207  L 28 61  " fill-rule="nonzero" fill="#ffffff" stroke="none" />
    <path d="M 199.31 100  C 192.17 100  186.56 94.39  186.56 87.25  C 186.56 80.11  192.17 74.5  199.31 74.5  C 206.45 74.5  212.06 80.11  212.06 87.25  C 212.06 94.39  206.45 100  199.31 100  " fill-rule="nonzero" fill="#cccccc" stroke="none" />
    <path d="M 33 203  L 33 127.65  L 106.75 93.4  L 210 160.396341463415  L 269 113.95  L 328 160.396341463415  L 328 203  L 33 203  " fill-rule="nonzero" fill="#169bd5" stroke="none" />
  </g>
</svg>