<?xml version="1.0" encoding="utf-8"?>
<svg version="1.1" xmlns:xlink="http://www.w3.org/1999/xlink" width="328px" height="194px" xmlns="http://www.w3.org/2000/svg">
  <g transform="matrix(1 0 0 1 -16 -49 )">
    <path d="M 16 49  L 344 49  L 344 243  L 16 243  L 16 49  " fill-rule="nonzero" fill="#cccccc" stroke="none" />
    <path d="M 30 63  L 330 63  L 330 229  L 30 229  L 30 63  " fill-rule="nonzero" fill="#ffffff" stroke="none" />
    <path d="M 201.11 107.2  C 192.962 107.2  186.56 100.798  186.56 92.65  C 186.56 84.502  192.962 78.1  201.11 78.1  C 209.258 78.1  215.66 84.502  215.66 92.65  C 215.66 100.798  209.258 107.2  201.11 107.2  " fill-rule="nonzero" fill="#cccccc" stroke="none" />
    <path d="M 35 224  L 35 138.2  L 107.5 99.2  L 209 168.639024390244  L 267 122.6  L 325 168.639024390244  L 325 224  L 35 224  " fill-rule="nonzero" fill="#169bd5" stroke="none" />
  </g>
</svg>