<?xml version="1.0" encoding="utf-8"?>
<svg version="1.1" xmlns:xlink="http://www.w3.org/1999/xlink" width="12px" height="12px" viewBox="377 267  12 12" xmlns="http://www.w3.org/2000/svg">
  <path d="M 383 267  C 386.36 267  389 269.64  389 273  C 389 276.36  386.36 279  383 279  C 379.64 279  377 276.36  377 273  C 377 269.64  379.64 267  383 267  Z " fill-rule="nonzero" fill="#f0f0f0" stroke="none" />
  <path d="M 383 267.5  C 386.08 267.5  388.5 269.92  388.5 273  C 388.5 276.08  386.08 278.5  383 278.5  C 379.92 278.5  377.5 276.08  377.5 273  C 377.5 269.92  379.92 267.5  383 267.5  Z " stroke-width="1" stroke="#797979" fill="none" />
  <path d="M 383 276  C 381.32 276  380 274.68  380 273  C 380 271.32  381.32 270  383 270  C 384.68 270  386 271.32  386 273  C 386 274.68  384.68 276  383 276  " fill-rule="nonzero" fill="#797979" stroke="none" />
</svg>