<?xml version="1.0" encoding="utf-8"?>
<svg version="1.1" xmlns:xlink="http://www.w3.org/1999/xlink" width="12px" height="12px" viewBox="544 267  12 12" xmlns="http://www.w3.org/2000/svg">
  <path d="M 550 267  C 553.36 267  556 269.64  556 273  C 556 276.36  553.36 279  550 279  C 546.64 279  544 276.36  544 273  C 544 269.64  546.64 267  550 267  Z " fill-rule="nonzero" fill="#ffffff" stroke="none" />
  <path d="M 550 267.5  C 553.08 267.5  555.5 269.92  555.5 273  C 555.5 276.08  553.08 278.5  550 278.5  C 546.92 278.5  544.5 276.08  544.5 273  C 544.5 269.92  546.92 267.5  550 267.5  Z " stroke-width="1" stroke="#797979" fill="none" />
  <path d="M 550 276  C 548.32 276  547 274.68  547 273  C 547 271.32  548.32 270  550 270  C 551.68 270  553 271.32  553 273  C 553 274.68  551.68 276  550 276  " fill-rule="nonzero" fill="#797979" stroke="none" />
</svg>