<?xml version="1.0" encoding="utf-8"?>
<svg version="1.1" xmlns:xlink="http://www.w3.org/1999/xlink" width="12px" height="12px" viewBox="404 342  12 12" xmlns="http://www.w3.org/2000/svg">
  <path d="M 410 342  C 413.36 342  416 344.64  416 348  C 416 351.36  413.36 354  410 354  C 406.64 354  404 351.36  404 348  C 404 344.64  406.64 342  410 342  Z " fill-rule="nonzero" fill="#ffffff" stroke="none" />
  <path d="M 410 342.5  C 413.08 342.5  415.5 344.92  415.5 348  C 415.5 351.08  413.08 353.5  410 353.5  C 406.92 353.5  404.5 351.08  404.5 348  C 404.5 344.92  406.92 342.5  410 342.5  Z " stroke-width="1" stroke="#797979" fill="none" />
  <path d="M 410 351  C 408.32 351  407 349.68  407 348  C 407 346.32  408.32 345  410 345  C 411.68 345  413 346.32  413 348  C 413 349.68  411.68 351  410 351  " fill-rule="nonzero" fill="#797979" stroke="none" />
</svg>