<?xml version="1.0" encoding="utf-8"?>
<svg version="1.1" xmlns:xlink="http://www.w3.org/1999/xlink" width="12px" height="12px" viewBox="2092 1573  12 12" xmlns="http://www.w3.org/2000/svg">
  <path d="M 2098 1573  C 2101.36 1573  2104 1575.64  2104 1579  C 2104 1582.36  2101.36 1585  2098 1585  C 2094.64 1585  2092 1582.36  2092 1579  C 2092 1575.64  2094.64 1573  2098 1573  Z " fill-rule="nonzero" fill="#f0f0f0" stroke="none" />
  <path d="M 2098 1573.5  C 2101.08 1573.5  2103.5 1575.92  2103.5 1579  C 2103.5 1582.08  2101.08 1584.5  2098 1584.5  C 2094.92 1584.5  2092.5 1582.08  2092.5 1579  C 2092.5 1575.92  2094.92 1573.5  2098 1573.5  Z " stroke-width="1" stroke="#797979" fill="none" />
  <path d="M 2098 1582  C 2096.32 1582  2095 1580.68  2095 1579  C 2095 1577.32  2096.32 1576  2098 1576  C 2099.68 1576  2101 1577.32  2101 1579  C 2101 1580.68  2099.68 1582  2098 1582  " fill-rule="nonzero" fill="#797979" stroke="none" />
</svg>