<?xml version="1.0" encoding="utf-8"?>
<svg version="1.1" xmlns:xlink="http://www.w3.org/1999/xlink" width="64px" height="64px" xmlns="http://www.w3.org/2000/svg">
  <g transform="matrix(1 0 0 1 -440 -553 )">
    <path d="M 440 553  L 504 553  L 504 617  L 440 617  L 440 553  " fill-rule="nonzero" fill="#cccccc" stroke="none" />
    <path d="M 444 557  L 500 557  L 500 613  L 444 613  L 444 557  " fill-rule="nonzero" fill="#ffffff" stroke="none" />
    <path d="M 478.08 572.2  C 475.392 572.2  473.28 570.088  473.28 567.4  C 473.28 564.712  475.392 562.6  478.08 562.6  C 480.768 562.6  482.88 564.712  482.88 567.4  C 482.88 570.088  480.768 572.2  478.08 572.2  " fill-rule="nonzero" fill="#cccccc" stroke="none" />
    <path d="M 446 612  L 446 582.85  L 459.25 569.6  L 477.8 580.2  L 488.4 577.55  L 499 580.2  L 499 612  L 446 612  " fill-rule="nonzero" fill="#169bd5" stroke="none" />
  </g>
</svg>