<?xml version="1.0" encoding="utf-8"?>
<svg version="1.1" xmlns:xlink="http://www.w3.org/1999/xlink" width="14px" height="16px" xmlns="http://www.w3.org/2000/svg">
  <g transform="matrix(1 0 0 1 -498 -486 )">
    <path d="M 9.164 14.035  C 8.7995 14.657  7.96 15.0825  6.9575 15.0825  C 5.9545 15.0825  5.115 14.6575  4.7505 14.035  L 9.164 14.035  Z M 4.765 2.348  C 4.9935 1.441  5.8725 0.782499999999995  6.914 0.7825  C 7.955 0.7825  8.8345 1.441  9.063 2.3475  C 10.964 3.2745  12.053 5.14  12.053 7.5025  L 12.0515 7.9385  C 12.0455 8.611  12.013 9.3525  11.8355 9.975  C 12.1 10.145  12.356 10.3815  12.569 10.6575  C 12.9125 11.095  13.1015 11.5645  13.1015 11.9785  L 13.1015 12.018  C 13.1015 13.205  11.8 13.7455  10.5895 13.7455  L 3.2385 13.7455  C 2.635 13.7455  2.071 13.6115  1.649 13.367  C 1.109 13.0515  0.813 12.566  0.813 11.9985  L 0.813 11.9585  C 0.813 11.249  1.3335 10.4085  1.996 9.975  C 1.775 9.1865  1.775 8.161  1.775 7.384  C 1.775 5.0615  2.836 3.2825  4.765 2.348  Z M 7.85100000000001 2.6535  C 7.76400000000001 2.3085  7.38800000000001 2.0325  6.914 2.0325  C 6.4695 2.0325  6.111 2.275  5.9965 2.59  L 5.9765 2.6535  L 5.834 3.2185  L 5.3095 3.473  C 3.8205 4.1945  3.025 5.5325  3.025 7.384  L 3.027 7.864  C 3.0295 8.139  3.0355 8.339  3.0475 8.549  L 3.0525 8.6285  C 3.0755 8.9905  3.116 9.295  3.174 9.538  L 3.1995 9.638  L 3.4465 10.5195  L 2.681 11.021  C 2.367 11.226  2.103 11.641  2.067 11.9015  L 2.063 11.959  L 2.063 11.9985  C 2.063 12.1085  2.113 12.19  2.2755 12.285  C 2.4705 12.3985  2.768 12.4765  3.1085 12.4925  L 3.2385 12.4955  L 10.5895 12.4955  C 11.012 12.4955  11.411 12.4005  11.6605 12.2525  C 11.797 12.1715  11.8405 12.1195  11.85 12.0495  L 11.8515 12.018  L 11.8515 11.9785  C 11.8515 11.8695  11.7675 11.661  11.5795 11.421  C 11.4795 11.291  11.3635 11.176  11.2475 11.088  L 11.1605 11.027  L 10.379 10.5255  L 10.634 9.6325  C 10.699 9.404  10.7435 9.12  10.77 8.776  L 10.78 8.625  C 10.7985 8.317  10.8025 8.057  10.8025 7.5025  C 10.8025 5.665  10.0245 4.27  8.64650000000001 3.538  L 8.51550000000001 3.4715  L 7.99300000000001 3.2165  L 7.85100000000001 2.6535  Z " fill-rule="nonzero" fill="#ffffff" stroke="none" transform="matrix(1 0 0 1 498 486 )" />
  </g>
</svg>