<?xml version="1.0" encoding="utf-8"?>
<svg version="1.1" xmlns:xlink="http://www.w3.org/1999/xlink" width="18px" height="16px" xmlns="http://www.w3.org/2000/svg">
  <g transform="matrix(1 0 0 1 -765 -993 )">
    <path d="M 13.8156949609375 12.922462578125  C 17.5523415039062 9.63862900390625  18.9408401171875 6.01044890625  16.43248078125 2.3779317578125  C 16.2511437304688 2.14522953125  16.0847365429687 1.951860625  15.91579109375 1.77382134765625  C 13.8327633789063 -0.42133033203125  11.5523894726562 -0.2030583203125  9.46940173828125 1.4531187890625  C 9.28398744140625 1.60053884765625  9.10898609375 1.753575078125  8.94425779296875 1.90910962890625  C 8.77952947265625 1.753575078125  8.60450814453125 1.60053884765625  8.41909384765625 1.4531187890625  C 6.33610611328125 -0.2030583203125  4.05573220703125 -0.42133033203125  1.97270451171875 1.7738013671875  C 1.8037590625 1.9518406640625  1.637351875 2.14520955078125  1.47350296875 2.35416787109375  C -1.05234451171875 6.01044890625  0.33615408203125 9.63862900390625  4.072820625 12.922462578125  C 4.8994001953125 13.648870078125  5.7829811328125 14.30232703125  6.6665620703125 14.873739609375  C 6.97597228515625 15.0738439453125  7.26363724609375 15.249604765625  7.5223618359375 15.39976296875  C 7.67909556640625 15.4907213085938  7.79243873046875 15.5535187304688  7.8552561328125 15.5868361328125  C 7.950371640625 15.6437975195313  8.0452673046875 15.687268046875  8.1390637109375 15.7190864648437  C 8.20683775390625 15.7507250195313  8.2858641796875 15.7794655273437  8.3777019140625 15.804788359375  C 8.873365859375 15.9414756835937  9.6077679296875 15.8420630859375  10.0542452148437 15.5750041601562  C 10.0960768554688 15.55349875  10.20942 15.4907213085937  10.36615375 15.39976296875  C 10.6248783398438 15.2496047851563  10.9125233203125 15.0738439453125  11.221953515625 14.873739609375  C 12.105534453125 14.30232703125  12.9891153710937 13.648870078125  13.8156949609375 12.922462578125  Z " fill-rule="nonzero" fill="#009999" stroke="none" transform="matrix(1 0 0 1 765 993 )" />
  </g>
</svg>