<?xml version="1.0" encoding="utf-8"?>
<svg version="1.1" xmlns:xlink="http://www.w3.org/1999/xlink" width="18px" height="18px" xmlns="http://www.w3.org/2000/svg">
  <g transform="matrix(1 0 0 1 -765 -940 )">
    <path d="M 6.072265625 1.796875  C 7.005859375 1.41796875  7.990234375 1.2265625  9 1.2265625  C 10.009765625 1.2265625  10.994140625 1.41796875  11.92578125 1.794921875  C 12.888671875 2.185546875  13.75390625 2.759765625  14.49609375 3.501953125  C 15.23828125 4.244140625  15.8125 5.109375  16.203125 6.072265625  C 16.58203125 7.005859375  16.7734375 7.990234375  16.7734375 9  C 16.7734375 10.009765625  16.58203125 10.994140625  16.205078125 11.92578125  C 15.814453125 12.888671875  15.240234375 13.75390625  14.498046875 14.49609375  C 13.755859375 15.23828125  12.890625 15.8125  11.927734375 16.203125  C 10.994140625 16.58203125  10.009765625 16.7734375  9 16.7734375  C 7.990234375 16.7734375  7.005859375 16.58203125  6.07421875 16.205078125  C 5.111328125 15.814453125  4.24609375 15.240234375  3.50390625 14.498046875  C 2.76171875 13.755859375  2.1875 12.890625  1.796875 11.927734375  C 1.41796875 10.994140625  1.2265625 10.009765625  1.2265625 9  C 1.2265625 7.990234375  1.41796875 7.005859375  1.794921875 6.07421875  C 2.185546875 5.111328125  2.759765625 4.24609375  3.501953125 3.50390625  C 4.244140625 2.76171875  5.109375 2.1875  6.072265625 1.796875  Z M 15.1875 2.8125  C 13.478515625 1.103515625  11.240234375 0.25  9 0.25  C 6.759765625 0.25  4.521484375 1.103515625  2.8125 2.8125  C -0.60546875 6.23046875  -0.60546875 11.76953125  2.8125 15.1875  C 4.521484375 16.896484375  6.759765625 17.75  9 17.75  C 11.240234375 17.75  13.478515625 16.896484375  15.1875 15.1875  C 18.60546875 11.76953125  18.60546875 6.23046875  15.1875 2.8125  Z " fill-rule="nonzero" fill="#009999" stroke="none" transform="matrix(1 0 0 1 765 940 )" />
  </g>
</svg>