<?xml version="1.0" encoding="utf-8"?>
<svg version="1.1" xmlns:xlink="http://www.w3.org/1999/xlink" width="20px" height="18px" xmlns="http://www.w3.org/2000/svg">
  <g transform="matrix(1 0 0 1 -147 -187 )">
    <path d="M 15 14.125  C 18.9375 10.6875  20.375 6.9375  17.75 3.1875  C 17.5625 2.9375  17.375 2.75  17.1875 2.5625  C 15 0.3125  12.6875 0.5  10.5 2.25  C 10.3125 2.375  10.125 2.5625  9.9375 2.75  C 9.75 2.5625  9.5625 2.4375  9.375 2.25  C 7.1875 0.5625  4.875 0.3125  2.6875 2.5625  C 2.5 2.75  2.3125 2.9375  2.1875 3.1875  C -0.4375 7  1 10.75  4.875 14.125  C 5.75 14.875  6.625 15.5625  7.5625 16.125  C 7.875 16.3125  8.1875 16.5  8.4375 16.6875  C 8.625 16.8125  8.6875 16.875  8.8125 16.875  C 8.875 16.9375  8.9375 16.9375  9.0625 17  C 9.125 17.0625  9.25 17.0625  9.375 17.125  C 9.875 17.25  10.625 17.1875  11.125 16.875  C 11.1875 16.875  11.3125 16.8125  11.4375 16.6875  C 11.6875 16.5625  12 16.375  12.3125 16.125  C 13.25 15.5625  14.125 14.875  15 14.125  Z M 16.875 3.875  C 19.1875 6.9375  17.9375 10.1875  14.375 13.3125  C 13.5625 14  12.6875 14.6875  11.8125 15.25  C 11.5 15.4375  11.25 15.625  10.9375 15.75  C 10.8125 15.8125  10.6875 15.875  10.625 15.9375  C 10.5 16  10.3125 16.0625  10.125 16.125  C 10.0625 16.125  10 16.125  9.9375 16.125  C 9.8125 16.125  9.6875 16.125  9.625 16.125  C 9.5625 16.125  9.5625 16.125  9.5625 16.125  C 9.5625 16.125  9.5 16.125  9.5 16.0625  C 9.4375 16.0625  9.375 16  9.3125 16  C 9.25 15.9375  9.125 15.875  9 15.8125  C 8.75 15.6875  8.4375 15.5  8.125 15.3125  C 7.25 14.75  6.375 14.125  5.5625 13.375  C 2.0625 10.25  0.812499999999999 7.0625  3 3.8125  C 3.125 3.625  3.3125 3.5  3.4375 3.3125  C 5.1875 1.4375  7 1.625  8.8125 3.0625  C 9 3.1875  9.125 3.3125  9.25 3.4375  L 9.8125 4.0625  C 9.875 4.125  9.875 4.125  9.9375 4.1875  C 10 4.125  10.125 4  10.25 3.875  C 10.5 3.625  10.75 3.375  11.0625 3.125  C 12.875 1.6875  14.6875 1.5  16.4375 3.375  C 16.5625 3.5625  16.75 3.6875  16.875 3.875  Z " fill-rule="nonzero" fill="#000000" stroke="none" transform="matrix(1 0 0 1 147 187 )" />
  </g>
</svg>