<?xml version="1.0" encoding="utf-8"?>
<svg version="1.1" xmlns:xlink="http://www.w3.org/1999/xlink" width="28px" height="28px" xmlns="http://www.w3.org/2000/svg">
  <defs>
    <filter x="606px" y="551px" width="28px" height="28px" filterUnits="userSpaceOnUse" id="filter1">
      <feOffset dx="0" dy="2" in="SourceAlpha" result="shadowOffsetInner" />
      <feGaussianBlur stdDeviation="1" in="shadowOffsetInner" result="shadowGaussian" />
      <feComposite in2="shadowGaussian" operator="atop" in="SourceAlpha" result="shadowComposite" />
      <feColorMatrix type="matrix" values="0 0 0 0 0  0 0 0 0 0  0 0 0 0 0  0 0 0 0.349019607843137 0  " in="shadowComposite" />
    </filter>
    <g id="widget2">
      <path d="M 0 12  L 2 12  C 2 17.6  6.40000000000001 22  12 22  C 17.6 22  22 17.6  22 12  C 22 6.4  17.6 2  12 1.99986715082463  L 12 0  C 18.72 0  24 5.28  24 12  C 24 18.72  18.72 24  12 24  C 5.28 24  0 18.72  0 12  Z " fill-rule="nonzero" fill="#02a7f0" stroke="none" transform="matrix(1 0 0 1 608 551 )" />
    </g>
  </defs>
  <g transform="matrix(1 0 0 1 -606 -551 )">
    <use xlink:href="#widget2" filter="url(#filter1)" />
    <use xlink:href="#widget2" />
  </g>
</svg>