<?xml version="1.0" encoding="utf-8"?>
<svg version="1.1" xmlns:xlink="http://www.w3.org/1999/xlink" width="18px" height="15px" xmlns="http://www.w3.org/2000/svg">
  <g transform="matrix(1 0 0 1 -19 -20 )">
    <path d="M 8.30148627084927 13.2509401132364  L 3.70066255547054 8.75013429992349  L 16.5029546258607 8.75013429992349  C 17.0030441637337 8.75013429992349  17.5031336878347 8.35006267788829  17.5031337016067 7.7499552379495  C 17.5031337016067 7.24986570007651  17.1030620795715 6.74977617597552  16.5029546258607 7  L 4.20075209334353 7  L 8.30148627084927 2.64904198469778  C 8.70155789288447 2.24897036266259  8.70155789288447 1.64886292272379  8.30148627084927 1.2487912869166  C 7.90141464881408 0.848719664881408  7.30130720887529 0.848719664881408  6.90123557306809 1.2487912869166  L 1.00017906197399 7.14984779801071  C 0.80014324407039 7.34988361591431  0.700125342004591 7.6499373358837  0.700125342004591 7.9499910420811  C 0.700125342004591 8.2500447620505  0.700125342004591 8.55009848201989  1.00017906197399 8.75013429992349  L 6.90123557306809 14.6511908110176  C 7.30130719510329 15.0512624330528  7.90141463504208 15.0512624330528  8.30148627084927 14.6511908110176  C 8.70155789288447 14.2511191889824  8.70155789288447 13.6510117490436  8.30148627084927 13.2509401132364  Z " fill-rule="nonzero" fill="#000000" stroke="none" transform="matrix(1 0 0 1 19 20 )" />
  </g>
</svg>