<?xml version="1.0" encoding="utf-8"?>
<svg version="1.1" xmlns:xlink="http://www.w3.org/1999/xlink" width="60px" height="60px" xmlns="http://www.w3.org/2000/svg">
  <g transform="matrix(1 0 0 1 -704 -422 )">
    <path d="M 704 422  L 764 422  L 764 482  L 704 482  L 704 422  " fill-rule="nonzero" fill="#cccccc" stroke="none" />
    <path d="M 708 426  L 760 426  L 760 478  L 708 478  L 708 426  " fill-rule="nonzero" fill="#ffffff" stroke="none" />
    <path d="M 739.7 440  C 737.18 440  735.2 438.02  735.2 435.5  C 735.2 432.98  737.18 431  739.7 431  C 742.22 431  744.2 432.98  744.2 435.5  C 744.2 438.02  742.22 440  739.7 440  " fill-rule="nonzero" fill="#cccccc" stroke="none" />
    <path d="M 710 477  L 710 450.05  L 722.25 437.8  L 739.4 447.6  L 749.2 445.15  L 759 447.6  L 759 477  L 710 477  " fill-rule="nonzero" fill="#169bd5" stroke="none" />
  </g>
</svg>