<?xml version="1.0" encoding="utf-8"?>
<svg version="1.1" xmlns:xlink="http://www.w3.org/1999/xlink" width="12px" height="12px" viewBox="2191 2288  12 12" xmlns="http://www.w3.org/2000/svg">
  <path d="M 2197 2288  C 2200.36 2288  2203 2290.64  2203 2294  C 2203 2297.36  2200.36 2300  2197 2300  C 2193.64 2300  2191 2297.36  2191 2294  C 2191 2290.64  2193.64 2288  2197 2288  Z " fill-rule="nonzero" fill="#ffffff" stroke="none" />
  <path d="M 2197 2288.5  C 2200.08 2288.5  2202.5 2290.92  2202.5 2294  C 2202.5 2297.08  2200.08 2299.5  2197 2299.5  C 2193.92 2299.5  2191.5 2297.08  2191.5 2294  C 2191.5 2290.92  2193.92 2288.5  2197 2288.5  Z " stroke-width="1" stroke="#797979" fill="none" />
  <path d="M 2197 2297  C 2195.32 2297  2194 2295.68  2194 2294  C 2194 2292.32  2195.32 2291  2197 2291  C 2198.68 2291  2200 2292.32  2200 2294  C 2200 2295.68  2198.68 2297  2197 2297  " fill-rule="nonzero" fill="#797979" stroke="none" />
</svg>