<?xml version="1.0" encoding="utf-8"?>
<svg version="1.1" xmlns:xlink="http://www.w3.org/1999/xlink" width="12px" height="12px" viewBox="2171 2798  12 12" xmlns="http://www.w3.org/2000/svg">
  <path d="M 2177 2798  C 2180.36 2798  2183 2800.64  2183 2804  C 2183 2807.36  2180.36 2810  2177 2810  C 2173.64 2810  2171 2807.36  2171 2804  C 2171 2800.64  2173.64 2798  2177 2798  Z " fill-rule="nonzero" fill="#ffffff" stroke="none" />
  <path d="M 2177 2798.5  C 2180.08 2798.5  2182.5 2800.92  2182.5 2804  C 2182.5 2807.08  2180.08 2809.5  2177 2809.5  C 2173.92 2809.5  2171.5 2807.08  2171.5 2804  C 2171.5 2800.92  2173.92 2798.5  2177 2798.5  Z " stroke-width="1" stroke="#797979" fill="none" />
  <path d="M 2177 2807  C 2175.32 2807  2174 2805.68  2174 2804  C 2174 2802.32  2175.32 2801  2177 2801  C 2178.68 2801  2180 2802.32  2180 2804  C 2180 2805.68  2178.68 2807  2177 2807  " fill-rule="nonzero" fill="#797979" stroke="none" />
</svg>