<?xml version="1.0" encoding="utf-8"?>
<svg version="1.1" xmlns:xlink="http://www.w3.org/1999/xlink" width="12px" height="12px" viewBox="2094 2281  12 12" xmlns="http://www.w3.org/2000/svg">
  <path d="M 2100 2281  C 2103.36 2281  2106 2283.64  2106 2287  C 2106 2290.36  2103.36 2293  2100 2293  C 2096.64 2293  2094 2290.36  2094 2287  C 2094 2283.64  2096.64 2281  2100 2281  Z " fill-rule="nonzero" fill="#f0f0f0" stroke="none" />
  <path d="M 2100 2281.5  C 2103.08 2281.5  2105.5 2283.92  2105.5 2287  C 2105.5 2290.08  2103.08 2292.5  2100 2292.5  C 2096.92 2292.5  2094.5 2290.08  2094.5 2287  C 2094.5 2283.92  2096.92 2281.5  2100 2281.5  Z " stroke-width="1" stroke="#797979" fill="none" />
  <path d="M 2100 2290  C 2098.32 2290  2097 2288.68  2097 2287  C 2097 2285.32  2098.32 2284  2100 2284  C 2101.68 2284  2103 2285.32  2103 2287  C 2103 2288.68  2101.68 2290  2100 2290  " fill-rule="nonzero" fill="#797979" stroke="none" />
</svg>