<?xml version="1.0" encoding="utf-8"?>
<svg version="1.1" xmlns:xlink="http://www.w3.org/1999/xlink" width="12px" height="12px" viewBox="2594 2865  12 12" xmlns="http://www.w3.org/2000/svg">
  <path d="M 2600 2865  C 2603.36 2865  2606 2867.64  2606 2871  C 2606 2874.36  2603.36 2877  2600 2877  C 2596.64 2877  2594 2874.36  2594 2871  C 2594 2867.64  2596.64 2865  2600 2865  Z " fill-rule="nonzero" fill="#f0f0f0" stroke="none" />
  <path d="M 2600 2865.5  C 2603.08 2865.5  2605.5 2867.92  2605.5 2871  C 2605.5 2874.08  2603.08 2876.5  2600 2876.5  C 2596.92 2876.5  2594.5 2874.08  2594.5 2871  C 2594.5 2867.92  2596.92 2865.5  2600 2865.5  Z " stroke-width="1" stroke="#797979" fill="none" />
  <path d="M 2600 2874  C 2598.32 2874  2597 2872.68  2597 2871  C 2597 2869.32  2598.32 2868  2600 2868  C 2601.68 2868  2603 2869.32  2603 2871  C 2603 2872.68  2601.68 2874  2600 2874  " fill-rule="nonzero" fill="#797979" stroke="none" />
</svg>