<?xml version="1.0" encoding="utf-8"?>
<svg version="1.1" xmlns:xlink="http://www.w3.org/1999/xlink" width="12px" height="12px" viewBox="2194 2310  12 12" xmlns="http://www.w3.org/2000/svg">
  <path d="M 2200 2310  C 2203.36 2310  2206 2312.64  2206 2316  C 2206 2319.36  2203.36 2322  2200 2322  C 2196.64 2322  2194 2319.36  2194 2316  C 2194 2312.64  2196.64 2310  2200 2310  Z " fill-rule="nonzero" fill="#ffffff" stroke="none" />
  <path d="M 2200 2310.5  C 2203.08 2310.5  2205.5 2312.92  2205.5 2316  C 2205.5 2319.08  2203.08 2321.5  2200 2321.5  C 2196.92 2321.5  2194.5 2319.08  2194.5 2316  C 2194.5 2312.92  2196.92 2310.5  2200 2310.5  Z " stroke-width="1" stroke="#797979" fill="none" />
  <path d="M 2200 2319  C 2198.32 2319  2197 2317.68  2197 2316  C 2197 2314.32  2198.32 2313  2200 2313  C 2201.68 2313  2203 2314.32  2203 2316  C 2203 2317.68  2201.68 2319  2200 2319  " fill-rule="nonzero" fill="#797979" stroke="none" />
</svg>