<?xml version="1.0" encoding="utf-8"?>
<svg version="1.1" xmlns:xlink="http://www.w3.org/1999/xlink" width="193px" height="10px" preserveAspectRatio="xMinYMid meet" viewBox="2744 5553.33333333333  193 8" xmlns="http://www.w3.org/2000/svg">
  <defs>
    <mask fill="white" id="clip642">
      <path d="M 2818 5543  L 2852 5543  L 2852 5571  L 2818 5571  Z M 2686 5543  L 2935 5543  L 2935 5600  L 2686 5600  Z " fill-rule="evenodd" />
    </mask>
  </defs>
  <path d="M 2932 5600  L 2932 5562.33333333333  A 5 5 0 0 0 2927 5557.33333333333 L 2789 5557.33333333333  A 3 3 0 0 0 2786 5554.33333333333 A 3 3 0 0 0 2783 5557.33333333333 L 2749.16666666667 5557.33333333333  A 0.166666666666515 0.166666666666515 0 0 1 2749 5557.16666666667 A 0.16666666666606 0.16666666666606 0 0 0 2748.83333333333 5557 L 2698 5557  " stroke-width="2" stroke="#999999" fill="none" mask="url(#clip642)" />
  <path d="M 2703.10710678119 5561.29289321881  L 2698.81421356237 5557  L 2703.10710678119 5552.70710678119  L 2701.69289321881 5551.29289321881  L 2696.69289321881 5556.29289321881  L 2695.98578643763 5557  L 2696.69289321881 5557.70710678119  L 2701.69289321881 5562.70710678119  L 2703.10710678119 5561.29289321881  Z " fill-rule="nonzero" fill="#999999" stroke="none" mask="url(#clip642)" />
</svg>