<?xml version="1.0" encoding="utf-8"?>
<svg version="1.1" xmlns:xlink="http://www.w3.org/1999/xlink" width="12px" height="12px" viewBox="2596 2907  12 12" xmlns="http://www.w3.org/2000/svg">
  <path d="M 2602 2907  C 2605.36 2907  2608 2909.64  2608 2913  C 2608 2916.36  2605.36 2919  2602 2919  C 2598.64 2919  2596 2916.36  2596 2913  C 2596 2909.64  2598.64 2907  2602 2907  Z " fill-rule="nonzero" fill="#ffffff" stroke="none" />
  <path d="M 2602 2907.5  C 2605.08 2907.5  2607.5 2909.92  2607.5 2913  C 2607.5 2916.08  2605.08 2918.5  2602 2918.5  C 2598.92 2918.5  2596.5 2916.08  2596.5 2913  C 2596.5 2909.92  2598.92 2907.5  2602 2907.5  Z " stroke-width="1" stroke="#797979" fill="none" />
  <path d="M 2602 2916  C 2600.32 2916  2599 2914.68  2599 2913  C 2599 2911.32  2600.32 2910  2602 2910  C 2603.68 2910  2605 2911.32  2605 2913  C 2605 2914.68  2603.68 2916  2602 2916  " fill-rule="nonzero" fill="#797979" stroke="none" />
</svg>