<?xml version="1.0" encoding="utf-8"?>
<svg version="1.1" xmlns:xlink="http://www.w3.org/1999/xlink" width="12px" height="12px" viewBox="2696 2907  12 12" xmlns="http://www.w3.org/2000/svg">
  <path d="M 2702 2907  C 2705.36 2907  2708 2909.64  2708 2913  C 2708 2916.36  2705.36 2919  2702 2919  C 2698.64 2919  2696 2916.36  2696 2913  C 2696 2909.64  2698.64 2907  2702 2907  Z " fill-rule="nonzero" fill="#f0f0f0" stroke="none" />
  <path d="M 2702 2907.5  C 2705.08 2907.5  2707.5 2909.92  2707.5 2913  C 2707.5 2916.08  2705.08 2918.5  2702 2918.5  C 2698.92 2918.5  2696.5 2916.08  2696.5 2913  C 2696.5 2909.92  2698.92 2907.5  2702 2907.5  Z " stroke-width="1" stroke="#797979" fill="none" />
  <path d="M 2702 2916  C 2700.32 2916  2699 2914.68  2699 2913  C 2699 2911.32  2700.32 2910  2702 2910  C 2703.68 2910  2705 2911.32  2705 2913  C 2705 2914.68  2703.68 2916  2702 2916  " fill-rule="nonzero" fill="#797979" stroke="none" />
</svg>