<?xml version="1.0" encoding="utf-8"?>
<svg version="1.1" xmlns:xlink="http://www.w3.org/1999/xlink" width="12px" height="12px" viewBox="2075 2830  12 12" xmlns="http://www.w3.org/2000/svg">
  <path d="M 2081 2830  C 2084.36 2830  2087 2832.64  2087 2836  C 2087 2839.36  2084.36 2842  2081 2842  C 2077.64 2842  2075 2839.36  2075 2836  C 2075 2832.64  2077.64 2830  2081 2830  Z " fill-rule="nonzero" fill="#f0f0f0" stroke="none" />
  <path d="M 2081 2830.5  C 2084.08 2830.5  2086.5 2832.92  2086.5 2836  C 2086.5 2839.08  2084.08 2841.5  2081 2841.5  C 2077.92 2841.5  2075.5 2839.08  2075.5 2836  C 2075.5 2832.92  2077.92 2830.5  2081 2830.5  Z " stroke-width="1" stroke="#797979" fill="none" />
  <path d="M 2081 2839  C 2079.32 2839  2078 2837.68  2078 2836  C 2078 2834.32  2079.32 2833  2081 2833  C 2082.68 2833  2084 2834.32  2084 2836  C 2084 2837.68  2082.68 2839  2081 2839  " fill-rule="nonzero" fill="#797979" stroke="none" />
</svg>