<?xml version="1.0" encoding="utf-8"?>
<svg version="1.1" xmlns:xlink="http://www.w3.org/1999/xlink" width="12px" height="12px" viewBox="2175 2830  12 12" xmlns="http://www.w3.org/2000/svg">
  <path d="M 2181 2830  C 2184.36 2830  2187 2832.64  2187 2836  C 2187 2839.36  2184.36 2842  2181 2842  C 2177.64 2842  2175 2839.36  2175 2836  C 2175 2832.64  2177.64 2830  2181 2830  Z " fill-rule="nonzero" fill="#f0f0f0" stroke="none" />
  <path d="M 2181 2830.5  C 2184.08 2830.5  2186.5 2832.92  2186.5 2836  C 2186.5 2839.08  2184.08 2841.5  2181 2841.5  C 2177.92 2841.5  2175.5 2839.08  2175.5 2836  C 2175.5 2832.92  2177.92 2830.5  2181 2830.5  Z " stroke-width="1" stroke="#797979" fill="none" />
  <path d="M 2181 2839  C 2179.32 2839  2178 2837.68  2178 2836  C 2178 2834.32  2179.32 2833  2181 2833  C 2182.68 2833  2184 2834.32  2184 2836  C 2184 2837.68  2182.68 2839  2181 2839  " fill-rule="nonzero" fill="#797979" stroke="none" />
</svg>