<?xml version="1.0" encoding="utf-8"?>
<svg version="1.1" xmlns:xlink="http://www.w3.org/1999/xlink" width="12px" height="12px" viewBox="486 356  12 12" xmlns="http://www.w3.org/2000/svg">
  <path d="M 492 356  C 495.36 356  498 358.64  498 362  C 498 365.36  495.36 368  492 368  C 488.64 368  486 365.36  486 362  C 486 358.64  488.64 356  492 356  Z " fill-rule="nonzero" fill="#f0f0f0" stroke="none" />
  <path d="M 492 356.5  C 495.08 356.5  497.5 358.92  497.5 362  C 497.5 365.08  495.08 367.5  492 367.5  C 488.92 367.5  486.5 365.08  486.5 362  C 486.5 358.92  488.92 356.5  492 356.5  Z " stroke-width="1" stroke="#797979" fill="none" />
  <path d="M 492 365  C 490.32 365  489 363.68  489 362  C 489 360.32  490.32 359  492 359  C 493.68 359  495 360.32  495 362  C 495 363.68  493.68 365  492 365  " fill-rule="nonzero" fill="#797979" stroke="none" />
</svg>