<?xml version="1.0" encoding="utf-8"?>
<svg version="1.1" xmlns:xlink="http://www.w3.org/1999/xlink" width="12px" height="12px" viewBox="371 314  12 12" xmlns="http://www.w3.org/2000/svg">
  <path d="M 377 314  C 380.36 314  383 316.64  383 320  C 383 323.36  380.36 326  377 326  C 373.64 326  371 323.36  371 320  C 371 316.64  373.64 314  377 314  Z " fill-rule="nonzero" fill="#f0f0f0" stroke="none" />
  <path d="M 377 314.5  C 380.08 314.5  382.5 316.92  382.5 320  C 382.5 323.08  380.08 325.5  377 325.5  C 373.92 325.5  371.5 323.08  371.5 320  C 371.5 316.92  373.92 314.5  377 314.5  Z " stroke-width="1" stroke="#797979" fill="none" />
  <path d="M 377 323  C 375.32 323  374 321.68  374 320  C 374 318.32  375.32 317  377 317  C 378.68 317  380 318.32  380 320  C 380 321.68  378.68 323  377 323  " fill-rule="nonzero" fill="#797979" stroke="none" />
</svg>