<?xml version="1.0" encoding="utf-8"?>
<svg version="1.1" xmlns:xlink="http://www.w3.org/1999/xlink" width="12px" height="12px" viewBox="39 332  12 12" xmlns="http://www.w3.org/2000/svg">
  <path d="M 45 332  C 48.36 332  51 334.64  51 338  C 51 341.36  48.36 344  45 344  C 41.64 344  39 341.36  39 338  C 39 334.64  41.64 332  45 332  Z " fill-rule="nonzero" fill="#ffffff" stroke="none" />
  <path d="M 45 332.5  C 48.08 332.5  50.5 334.92  50.5 338  C 50.5 341.08  48.08 343.5  45 343.5  C 41.92 343.5  39.5 341.08  39.5 338  C 39.5 334.92  41.92 332.5  45 332.5  Z " stroke-width="1" stroke="#797979" fill="none" />
  <path d="M 45 341  C 43.32 341  42 339.68  42 338  C 42 336.32  43.32 335  45 335  C 46.68 335  48 336.32  48 338  C 48 339.68  46.68 341  45 341  " fill-rule="nonzero" fill="#797979" stroke="none" />
</svg>