<?xml version="1.0" encoding="utf-8"?>
<svg version="1.1" xmlns:xlink="http://www.w3.org/1999/xlink" width="12px" height="12px" viewBox="151 171  12 12" xmlns="http://www.w3.org/2000/svg">
  <path d="M 157 171  C 160.36 171  163 173.64  163 177  C 163 180.36  160.36 183  157 183  C 153.64 183  151 180.36  151 177  C 151 173.64  153.64 171  157 171  Z " fill-rule="nonzero" fill="#ffffff" stroke="none" />
  <path d="M 157 171.5  C 160.08 171.5  162.5 173.92  162.5 177  C 162.5 180.08  160.08 182.5  157 182.5  C 153.92 182.5  151.5 180.08  151.5 177  C 151.5 173.92  153.92 171.5  157 171.5  Z " stroke-width="1" stroke="#797979" fill="none" />
  <path d="M 157 180  C 155.32 180  154 178.68  154 177  C 154 175.32  155.32 174  157 174  C 158.68 174  160 175.32  160 177  C 160 178.68  158.68 180  157 180  " fill-rule="nonzero" fill="#797979" stroke="none" />
</svg>