<?xml version="1.0" encoding="utf-8"?>
<svg version="1.1" xmlns:xlink="http://www.w3.org/1999/xlink" width="12px" height="12px" viewBox="517 666  12 12" xmlns="http://www.w3.org/2000/svg">
  <path d="M 523 666  C 526.36 666  529 668.64  529 672  C 529 675.36  526.36 678  523 678  C 519.64 678  517 675.36  517 672  C 517 668.64  519.64 666  523 666  Z " fill-rule="nonzero" fill="#f0f0f0" stroke="none" />
  <path d="M 523 666.5  C 526.08 666.5  528.5 668.92  528.5 672  C 528.5 675.08  526.08 677.5  523 677.5  C 519.92 677.5  517.5 675.08  517.5 672  C 517.5 668.92  519.92 666.5  523 666.5  Z " stroke-width="1" stroke="#797979" fill="none" />
  <path d="M 523 675  C 521.32 675  520 673.68  520 672  C 520 670.32  521.32 669  523 669  C 524.68 669  526 670.32  526 672  C 526 673.68  524.68 675  523 675  " fill-rule="nonzero" fill="#797979" stroke="none" />
</svg>