<?xml version="1.0" encoding="utf-8"?>
<svg version="1.1" xmlns:xlink="http://www.w3.org/1999/xlink" width="12px" height="12px" viewBox="2121 7442  12 12" xmlns="http://www.w3.org/2000/svg">
  <path d="M 2127 7442  C 2130.36 7442  2133 7444.64  2133 7448  C 2133 7451.36  2130.36 7454  2127 7454  C 2123.64 7454  2121 7451.36  2121 7448  C 2121 7444.64  2123.64 7442  2127 7442  Z " fill-rule="nonzero" fill="#f0f0f0" stroke="none" />
  <path d="M 2127 7442.5  C 2130.08 7442.5  2132.5 7444.92  2132.5 7448  C 2132.5 7451.08  2130.08 7453.5  2127 7453.5  C 2123.92 7453.5  2121.5 7451.08  2121.5 7448  C 2121.5 7444.92  2123.92 7442.5  2127 7442.5  Z " stroke-width="1" stroke="#777777" fill="none" />
  <path d="M 2127 7451  C 2125.32 7451  2124 7449.68  2124 7448  C 2124 7446.32  2125.32 7445  2127 7445  C 2128.68 7445  2130 7446.32  2130 7448  C 2130 7449.68  2128.68 7451  2127 7451  " fill-rule="nonzero" fill="#777777" stroke="none" />
</svg>