<?xml version="1.0" encoding="utf-8"?>
<svg version="1.1" xmlns:xlink="http://www.w3.org/1999/xlink" width="40px" height="40px" xmlns="http://www.w3.org/2000/svg">
  <g transform="matrix(1 0 0 1 -332 -3269 )">
    <path d="M 352 3269  C 363.2 3269  372 3277.8  372 3289  C 372 3300.2  363.2 3309  352 3309  C 340.8 3309  332 3300.2  332 3289  C 332 3277.8  340.8 3269  352 3269  Z " fill-rule="nonzero" fill="#cccccc" stroke="none" />
    <path d="M 352 3269.5  C 362.92 3269.5  371.5 3278.08  371.5 3289  C 371.5 3299.92  362.92 3308.5  352 3308.5  C 341.08 3308.5  332.5 3299.92  332.5 3289  C 332.5 3278.08  341.08 3269.5  352 3269.5  Z " stroke-width="1" stroke="#777777" fill="none" />
  </g>
</svg>