<?xml version="1.0" encoding="utf-8"?>
<svg version="1.1" xmlns:xlink="http://www.w3.org/1999/xlink" width="100px" height="60px" xmlns="http://www.w3.org/2000/svg">
  <defs>
    <linearGradient gradientUnits="userSpaceOnUse" x1="1313" y1="452" x2="1313" y2="512" id="LinearGradient191">
      <stop id="Stop192" stop-color="#ffffff" offset="0" />
      <stop id="Stop193" stop-color="#f2f2f2" offset="0" />
      <stop id="Stop194" stop-color="#e4e4e4" offset="1" />
      <stop id="Stop195" stop-color="#ffffff" offset="1" />
    </linearGradient>
  </defs>
  <g transform="matrix(1 0 0 1 -1263 -452 )">
    <path d="M 1313 452  C 1341 452  1363 465.2  1363 482  C 1363 498.8  1341 512  1313 512  C 1285 512  1263 498.8  1263 482  C 1263 465.2  1285 452  1313 452  Z " fill-rule="nonzero" fill="url(#LinearGradient191)" stroke="none" />
    <path d="M 1313 452.5  C 1340.72 452.5  1362.5 465.48  1362.5 482  C 1362.5 498.52  1340.72 511.5  1313 511.5  C 1285.28 511.5  1263.5 498.52  1263.5 482  C 1263.5 465.48  1285.28 452.5  1313 452.5  Z " stroke-width="1" stroke="#797979" fill="none" />
  </g>
</svg>