<?xml version="1.0" encoding="utf-8"?>
<svg version="1.1" xmlns:xlink="http://www.w3.org/1999/xlink" width="12px" height="12px" viewBox="2121 1255  12 12" xmlns="http://www.w3.org/2000/svg">
  <path d="M 2127 1255  C 2130.36 1255  2133 1257.64  2133 1261  C 2133 1264.36  2130.36 1267  2127 1267  C 2123.64 1267  2121 1264.36  2121 1261  C 2121 1257.64  2123.64 1255  2127 1255  Z " fill-rule="nonzero" fill="#f0f0f0" stroke="none" />
  <path d="M 2127 1255.5  C 2130.08 1255.5  2132.5 1257.92  2132.5 1261  C 2132.5 1264.08  2130.08 1266.5  2127 1266.5  C 2123.92 1266.5  2121.5 1264.08  2121.5 1261  C 2121.5 1257.92  2123.92 1255.5  2127 1255.5  Z " stroke-width="1" stroke="#797979" fill="none" />
  <path d="M 2127 1264  C 2125.32 1264  2124 1262.68  2124 1261  C 2124 1259.32  2125.32 1258  2127 1258  C 2128.68 1258  2130 1259.32  2130 1261  C 2130 1262.68  2128.68 1264  2127 1264  " fill-rule="nonzero" fill="#797979" stroke="none" />
</svg>