<?xml version="1.0" encoding="utf-8"?>
<svg version="1.1" xmlns:xlink="http://www.w3.org/1999/xlink" width="12px" height="12px" viewBox="2207 1255  12 12" xmlns="http://www.w3.org/2000/svg">
  <path d="M 2213 1255  C 2216.36 1255  2219 1257.64  2219 1261  C 2219 1264.36  2216.36 1267  2213 1267  C 2209.64 1267  2207 1264.36  2207 1261  C 2207 1257.64  2209.64 1255  2213 1255  Z " fill-rule="nonzero" fill="#ffffff" stroke="none" />
  <path d="M 2213 1255.5  C 2216.08 1255.5  2218.5 1257.92  2218.5 1261  C 2218.5 1264.08  2216.08 1266.5  2213 1266.5  C 2209.92 1266.5  2207.5 1264.08  2207.5 1261  C 2207.5 1257.92  2209.92 1255.5  2213 1255.5  Z " stroke-width="1" stroke="#797979" fill="none" />
  <path d="M 2213 1264  C 2211.32 1264  2210 1262.68  2210 1261  C 2210 1259.32  2211.32 1258  2213 1258  C 2214.68 1258  2216 1259.32  2216 1261  C 2216 1262.68  2214.68 1264  2213 1264  " fill-rule="nonzero" fill="#797979" stroke="none" />
</svg>