<?xml version="1.0" encoding="utf-8"?>
<svg version="1.1" xmlns:xlink="http://www.w3.org/1999/xlink" width="12px" height="12px" viewBox="2292 1255  12 12" xmlns="http://www.w3.org/2000/svg">
  <path d="M 2298 1255  C 2301.36 1255  2304 1257.64  2304 1261  C 2304 1264.36  2301.36 1267  2298 1267  C 2294.64 1267  2292 1264.36  2292 1261  C 2292 1257.64  2294.64 1255  2298 1255  Z " fill-rule="nonzero" fill="#f0f0f0" stroke="none" />
  <path d="M 2298 1255.5  C 2301.08 1255.5  2303.5 1257.92  2303.5 1261  C 2303.5 1264.08  2301.08 1266.5  2298 1266.5  C 2294.92 1266.5  2292.5 1264.08  2292.5 1261  C 2292.5 1257.92  2294.92 1255.5  2298 1255.5  Z " stroke-width="1" stroke="#797979" fill="none" />
  <path d="M 2298 1264  C 2296.32 1264  2295 1262.68  2295 1261  C 2295 1259.32  2296.32 1258  2298 1258  C 2299.68 1258  2301 1259.32  2301 1261  C 2301 1262.68  2299.68 1264  2298 1264  " fill-rule="nonzero" fill="#797979" stroke="none" />
</svg>