<?xml version="1.0" encoding="utf-8"?>
<svg version="1.1" xmlns:xlink="http://www.w3.org/1999/xlink" width="12px" height="12px" viewBox="2359 1468  12 12" xmlns="http://www.w3.org/2000/svg">
  <path d="M 2365 1468  C 2368.36 1468  2371 1470.64  2371 1474  C 2371 1477.36  2368.36 1480  2365 1480  C 2361.64 1480  2359 1477.36  2359 1474  C 2359 1470.64  2361.64 1468  2365 1468  Z " fill-rule="nonzero" fill="#f0f0f0" stroke="none" />
  <path d="M 2365 1468.5  C 2368.08 1468.5  2370.5 1470.92  2370.5 1474  C 2370.5 1477.08  2368.08 1479.5  2365 1479.5  C 2361.92 1479.5  2359.5 1477.08  2359.5 1474  C 2359.5 1470.92  2361.92 1468.5  2365 1468.5  Z " stroke-width="1" stroke="#797979" fill="none" />
  <path d="M 2365 1477  C 2363.32 1477  2362 1475.68  2362 1474  C 2362 1472.32  2363.32 1471  2365 1471  C 2366.68 1471  2368 1472.32  2368 1474  C 2368 1475.68  2366.68 1477  2365 1477  " fill-rule="nonzero" fill="#797979" stroke="none" />
</svg>