<?xml version="1.0" encoding="utf-8"?>
<svg version="1.1" xmlns:xlink="http://www.w3.org/1999/xlink" width="36px" height="29px" xmlns="http://www.w3.org/2000/svg">
  <g transform="matrix(1 0 0 1 -648 -1703 )">
    <path d="M 10.95 5.890625  C 11.6500000000001 6.59548611111109  12 7.45138888888886  12 8.45833333333331  C 12 9.46527777777777  11.6500000000001 10.3211805555555  10.95 11.0260416666667  C 10.25 11.7309027777778  9.40000000000009 12.0833333333333  8.40000000000009 12.0833333333333  C 7.40000000000009 12.0833333333333  6.54999999999995 11.7309027777778  5.84999999999991 11.0260416666667  C 5.15000000000009 10.3211805555555  4.79999999999995 9.46527777777777  4.79999999999995 8.45833333333331  C 4.79999999999995 7.45138888888886  5.15000000000009 6.59548611111109  5.84999999999991 5.890625  C 6.54999999999995 5.18576388888886  7.40000000000009 4.83333333333331  8.40000000000009 4.83333333333331  C 9.40000000000009 4.83333333333331  10.25 5.18576388888886  10.95 5.890625  Z M 23.4000000000001 7.85416666666669  L 31.2 15.7083333333333  L 31.2 24  L 4.79999999999995 24  L 4.79999999999995 20.5416666666667  L 10.8 14.5  L 13.8 17.5208333333333  L 23.4000000000001 7.85416666666669  Z M 33.421875 2.59602864583331  C 33.3031249999999 2.47645399305554  33.1624999999999 2.41666666666669  33 2.41666666666669  L 3 2.41666666666669  C 2.83750000000009 2.41666666666669  2.69687500000009 2.47645399305554  2.578125 2.59602864583331  C 2.45937499999991 2.71560329861109  2.40000000000009 2.85720486111109  3 3.02083333333331  L 3 25.9791666666667  C 2.40000000000009 26.1427951388889  2.45937499999991 26.2843967013889  2.578125 26.4039713541667  C 2.69687500000009 26.5235460069445  2.83750000000009 26.5833333333333  3 26.5833333333333  L 33 26.5833333333333  C 33.1624999999999 26.5833333333333  33.3031249999999 26.5235460069445  33.421875 26.4039713541667  C 33.5406250000001 26.2843967013889  33.5999999999999 26.1427951388889  33 25.9791666666667  L 33 3.02083333333331  C 33.5999999999999 2.85720486111109  33.5406250000001 2.71560329861109  33.421875 2.59602864583331  Z M 35.1187500000001 0.887369791666686  C 35.70625 1.47894965277777  36 2.19010416666669  36 3.02083333333331  L 36 25.9791666666667  C 36 26.8098958333333  35.70625 27.5210503472222  35.1187500000001 28.1126302083333  C 34.53125 28.7042100694445  33.825 29  33 29  L 3 29  C 2.17499999999995 29  1.46875 28.7042100694445  0.881249999999909 28.1126302083333  C 0.293750000000045 27.5210503472222  0 26.8098958333333  0 25.9791666666667  L 0 3.02083333333331  C 0 2.19010416666669  0.293750000000045 1.47894965277777  0.881249999999909 0.887369791666686  C 1.46875 0.295789930555543  2.17499999999995 0  3 0  L 33 0  C 33.825 0  34.53125 0.295789930555543  35.1187500000001 0.887369791666686  Z " fill-rule="nonzero" fill="#cccccc" stroke="none" transform="matrix(1 0 0 1 648 1703 )" />
  </g>
</svg>