<?xml version="1.0" encoding="utf-8"?>
<svg version="1.1" xmlns:xlink="http://www.w3.org/1999/xlink" width="20px" height="16px" xmlns="http://www.w3.org/2000/svg">
  <g transform="matrix(1 0 0 1 -973 -1494 )">
    <path d="M 9.32735426008958 11.3999999999996  L 9.95515695067252 11.3999999999996  L 11.2556053811659 10.147727272727  L 9.55156950672654 8.50681818181783  L 8.25112107623318 9.7590909090909  L 8.25112107623318 10.3636363636365  L 9.32735426008958 10.3636363636365  L 9.32735426008958 11.3999999999996  Z M 14.8766816143498 3.98352272727288  C 15.0037369207773 3.86117424242411  15.0074738415547 3.74242424242448  14.8878923766817 3.62727272727261  C 14.7683109118086 3.5121212121212  14.6449925261584 3.51571969696943  14.517937219731 3.6380681818182  L 10.5941704035874 7.41647727272721  C 10.4671150971599 7.53882575757552  10.4633781763828 7.65757575757561  10.5829596412555 7.77272727272702  C 10.7025411061286 7.88787878787889  10.8258594917788 7.88428030303021  10.9529147982062 7.76193181818189  L 14.8766816143498 3.98352272727288  Z M 15.5605381165919 9.72670454545414  C 15.7100149476832 9.7842803030303  15.7847533632287 9.88863636363612  15.7847533632287 10.0397727272725  L 15.7847533632287 12.090909090909  C 15.7847533632287 12.9473484848481  15.4689835575487 13.6796401515148  14.8374439461884 14.2877840909091  C 14.2059043348281 14.8959280303029  13.4454409566517 15.1999999999998  12.5560538116592 15.1999999999998  L 3.22869955156943 15.1999999999998  C 2.33931240657694 15.1999999999998  1.57884902840055 14.8959280303029  0.947309417040287 14.2877840909091  C 0.31576980568002 13.6796401515148  0 12.9473484848481  0 12.090909090909  L 0 3.10909090909081  C 0 2.25265151515168  0.31576980568002 1.52035984848499  0.947309417040287 0.912215909090719  C 1.57884902840055 0.304071969696906  2.33931240657694 0  3.22869955156943 0  L 12.5560538116592 0  C 13.0269058295964 0  13.4641255605382 0.089962121212011  13.8677130044844 0.269886363636488  C 13.9798206278026 0.320265151515287  14.0470852017938 0.403030303030391  14.0695067264573 0.518181818181802  C 14.0919282511211 0.640530303030573  14.0582959641256 0.744886363636397  13.9686098654709 0.831250000000182  L 13.4192825112109 1.36022727272712  C 13.3146487294468 1.46098484848471  13.1950672645739 1.48977272727279  13.0605381165919 1.4465909090909  C 12.8886397608371 1.40340909090901  12.7204783258594 1.38181818181783  12.5560538116592 1.38181818181783  L 3.22869955156943 1.38181818181783  C 2.73542600896849 1.38181818181783  2.31315396113609 1.55094696969672  1.96188340807157 1.8892045454545  C 1.6106128550075 2.22746212121183  1.43497757847535 2.6340909090909  1.43497757847535 3.10909090909081  L 1.43497757847535 12.090909090909  C 1.43497757847535 12.5659090909089  1.6106128550075 12.972537878788  1.96188340807157 13.3107954545453  C 2.31315396113609 13.6490530303031  2.73542600896849 13.818181818182  3.22869955156943 13.818181818182  L 12.5560538116592 13.818181818182  C 13.0493273542602 13.818181818182  13.4715994020928 13.6490530303031  13.8228699551569 13.3107954545453  C 14.1741405082212 12.972537878788  14.3497757847533 12.5659090909089  14.3497757847533 12.090909090909  L 14.3497757847533 10.7306818181819  C 14.3497757847533 10.6371212121212  14.3834080717488 10.5579545454543  14.4506726457398 10.4931818181817  L 15.1681614349777 9.80227272727279  C 15.280269058296 9.69431818181783  15.4110612855006 9.66912878787889  15.5605381165919 9.72670454545414  Z M 7.17488789237677 9.32727272727288  L 14.708520179372 2.07272727272721  L 17.9372197309417 5.18181818181802  L 10.4035874439462 12.4363636363632  L 7.17488789237677 12.4363636363632  L 7.17488789237677 9.32727272727288  Z M 20 2.76363636363658  C 20 3.0515151515151  19.8953662182362 3.29621212121219  19.6860986547085 3.49772727272739  L 18.6547085201794 4.4909090909091  L 15.4260089686099 1.38181818181783  L 16.4573991031389 0.388636363636579  C 16.6666666666665 0.187121212121383  16.9207772795216 0.0863636363637852  17.219730941704 0.0863636363637852  C 17.5186846038864 0.0863636363637852  17.7727952167413 0.187121212121383  17.982062780269 0.388636363636579  L 19.6860986547085 2.02954545454577  C 19.8953662182362 2.23106060606096  20 2.4757575757576  20 2.76363636363658  Z " fill-rule="nonzero" fill="#006699" stroke="none" transform="matrix(1 0 0 1 973 1494 )" />
  </g>
</svg>