<?xml version="1.0" encoding="utf-8"?>
<svg version="1.1" xmlns:xlink="http://www.w3.org/1999/xlink" width="12px" height="12px" viewBox="7257 449  12 12" xmlns="http://www.w3.org/2000/svg">
  <path d="M 7263 449  C 7266.36 449  7269 451.64  7269 455  C 7269 458.36  7266.36 461  7263 461  C 7259.64 461  7257 458.36  7257 455  C 7257 451.64  7259.64 449  7263 449  Z " fill-rule="nonzero" fill="#ffffff" stroke="none" />
  <path d="M 7263 449.5  C 7266.08 449.5  7268.5 451.92  7268.5 455  C 7268.5 458.08  7266.08 460.5  7263 460.5  C 7259.92 460.5  7257.5 458.08  7257.5 455  C 7257.5 451.92  7259.92 449.5  7263 449.5  Z " stroke-width="1" stroke="#797979" fill="none" />
  <path d="M 7263 458  C 7261.32 458  7260 456.68  7260 455  C 7260 453.32  7261.32 452  7263 452  C 7264.68 452  7266 453.32  7266 455  C 7266 456.68  7264.68 458  7263 458  " fill-rule="nonzero" fill="#797979" stroke="none" />
</svg>