<?xml version="1.0" encoding="utf-8"?>
<svg version="1.1" xmlns:xlink="http://www.w3.org/1999/xlink" width="12px" height="12px" viewBox="8140 449  12 12" xmlns="http://www.w3.org/2000/svg">
  <path d="M 8146 449  C 8149.36 449  8152 451.64  8152 455  C 8152 458.36  8149.36 461  8146 461  C 8142.64 461  8140 458.36  8140 455  C 8140 451.64  8142.64 449  8146 449  Z " fill-rule="nonzero" fill="#f0f0f0" stroke="none" />
  <path d="M 8146 449.5  C 8149.08 449.5  8151.5 451.92  8151.5 455  C 8151.5 458.08  8149.08 460.5  8146 460.5  C 8142.92 460.5  8140.5 458.08  8140.5 455  C 8140.5 451.92  8142.92 449.5  8146 449.5  Z " stroke-width="1" stroke="#797979" fill="none" />
  <path d="M 8146 458  C 8144.32 458  8143 456.68  8143 455  C 8143 453.32  8144.32 452  8146 452  C 8147.68 452  8149 453.32  8149 455  C 8149 456.68  8147.68 458  8146 458  " fill-rule="nonzero" fill="#797979" stroke="none" />
</svg>