<?xml version="1.0" encoding="utf-8"?>
<svg version="1.1" xmlns:xlink="http://www.w3.org/1999/xlink" width="12px" height="12px" viewBox="6813 451  12 12" xmlns="http://www.w3.org/2000/svg">
  <path d="M 6819 451  C 6822.36 451  6825 453.64  6825 457  C 6825 460.36  6822.36 463  6819 463  C 6815.64 463  6813 460.36  6813 457  C 6813 453.64  6815.64 451  6819 451  Z " fill-rule="nonzero" fill="#f0f0f0" stroke="none" />
  <path d="M 6819 451.5  C 6822.08 451.5  6824.5 453.92  6824.5 457  C 6824.5 460.08  6822.08 462.5  6819 462.5  C 6815.92 462.5  6813.5 460.08  6813.5 457  C 6813.5 453.92  6815.92 451.5  6819 451.5  Z " stroke-width="1" stroke="#797979" fill="none" />
  <path d="M 6819 460  C 6817.32 460  6816 458.68  6816 457  C 6816 455.32  6817.32 454  6819 454  C 6820.68 454  6822 455.32  6822 457  C 6822 458.68  6820.68 460  6819 460  " fill-rule="nonzero" fill="#797979" stroke="none" />
</svg>