<?xml version="1.0" encoding="utf-8"?>
<svg version="1.1" xmlns:xlink="http://www.w3.org/1999/xlink" width="12px" height="12px" viewBox="7477 449  12 12" xmlns="http://www.w3.org/2000/svg">
  <path d="M 7483 449  C 7486.36 449  7489 451.64  7489 455  C 7489 458.36  7486.36 461  7483 461  C 7479.64 461  7477 458.36  7477 455  C 7477 451.64  7479.64 449  7483 449  Z " fill-rule="nonzero" fill="#f0f0f0" stroke="none" />
  <path d="M 7483 449.5  C 7486.08 449.5  7488.5 451.92  7488.5 455  C 7488.5 458.08  7486.08 460.5  7483 460.5  C 7479.92 460.5  7477.5 458.08  7477.5 455  C 7477.5 451.92  7479.92 449.5  7483 449.5  Z " stroke-width="1" stroke="#797979" fill="none" />
  <path d="M 7483 458  C 7481.32 458  7480 456.68  7480 455  C 7480 453.32  7481.32 452  7483 452  C 7484.68 452  7486 453.32  7486 455  C 7486 456.68  7484.68 458  7483 458  " fill-rule="nonzero" fill="#797979" stroke="none" />
</svg>