<?xml version="1.0" encoding="utf-8"?>
<svg version="1.1" xmlns:xlink="http://www.w3.org/1999/xlink" width="12px" height="12px" viewBox="9976 432  12 12" xmlns="http://www.w3.org/2000/svg">
  <path d="M 9982 432  C 9985.36 432  9988 434.64  9988 438  C 9988 441.36  9985.36 444  9982 444  C 9978.64 444  9976 441.36  9976 438  C 9976 434.64  9978.64 432  9982 432  Z " fill-rule="nonzero" fill="#ffffff" stroke="none" />
  <path d="M 9982 432.5  C 9985.08 432.5  9987.5 434.92  9987.5 438  C 9987.5 441.08  9985.08 443.5  9982 443.5  C 9978.92 443.5  9976.5 441.08  9976.5 438  C 9976.5 434.92  9978.92 432.5  9982 432.5  Z " stroke-width="1" stroke="#797979" fill="none" />
  <path d="M 9982 441  C 9980.32 441  9979 439.68  9979 438  C 9979 436.32  9980.32 435  9982 435  C 9983.68 435  9985 436.32  9985 438  C 9985 439.68  9983.68 441  9982 441  " fill-rule="nonzero" fill="#797979" stroke="none" />
</svg>