<?xml version="1.0" encoding="utf-8"?>
<svg version="1.1" xmlns:xlink="http://www.w3.org/1999/xlink" width="12px" height="12px" viewBox="6703 451  12 12" xmlns="http://www.w3.org/2000/svg">
  <path d="M 6709 451  C 6712.36 451  6715 453.64  6715 457  C 6715 460.36  6712.36 463  6709 463  C 6705.64 463  6703 460.36  6703 457  C 6703 453.64  6705.64 451  6709 451  Z " fill-rule="nonzero" fill="#f0f0f0" stroke="none" />
  <path d="M 6709 451.5  C 6712.08 451.5  6714.5 453.92  6714.5 457  C 6714.5 460.08  6712.08 462.5  6709 462.5  C 6705.92 462.5  6703.5 460.08  6703.5 457  C 6703.5 453.92  6705.92 451.5  6709 451.5  Z " stroke-width="1" stroke="#797979" fill="none" />
  <path d="M 6709 460  C 6707.32 460  6706 458.68  6706 457  C 6706 455.32  6707.32 454  6709 454  C 6710.68 454  6712 455.32  6712 457  C 6712 458.68  6710.68 460  6709 460  " fill-rule="nonzero" fill="#797979" stroke="none" />
</svg>