<?xml version="1.0" encoding="utf-8"?>
<svg version="1.1" xmlns:xlink="http://www.w3.org/1999/xlink" width="12px" height="12px" viewBox="7367 449  12 12" xmlns="http://www.w3.org/2000/svg">
  <path d="M 7373 449  C 7376.36 449  7379 451.64  7379 455  C 7379 458.36  7376.36 461  7373 461  C 7369.64 461  7367 458.36  7367 455  C 7367 451.64  7369.64 449  7373 449  Z " fill-rule="nonzero" fill="#ffffff" stroke="none" />
  <path d="M 7373 449.5  C 7376.08 449.5  7378.5 451.92  7378.5 455  C 7378.5 458.08  7376.08 460.5  7373 460.5  C 7369.92 460.5  7367.5 458.08  7367.5 455  C 7367.5 451.92  7369.92 449.5  7373 449.5  Z " stroke-width="1" stroke="#797979" fill="none" />
  <path d="M 7373 458  C 7371.32 458  7370 456.68  7370 455  C 7370 453.32  7371.32 452  7373 452  C 7374.68 452  7376 453.32  7376 455  C 7376 456.68  7374.68 458  7373 458  " fill-rule="nonzero" fill="#797979" stroke="none" />
</svg>