<?xml version="1.0" encoding="utf-8"?>
<svg version="1.1" xmlns:xlink="http://www.w3.org/1999/xlink" width="12px" height="12px" viewBox="8030 449  12 12" xmlns="http://www.w3.org/2000/svg">
  <path d="M 8036 449  C 8039.36 449  8042 451.64  8042 455  C 8042 458.36  8039.36 461  8036 461  C 8032.64 461  8030 458.36  8030 455  C 8030 451.64  8032.64 449  8036 449  Z " fill-rule="nonzero" fill="#ffffff" stroke="none" />
  <path d="M 8036 449.5  C 8039.08 449.5  8041.5 451.92  8041.5 455  C 8041.5 458.08  8039.08 460.5  8036 460.5  C 8032.92 460.5  8030.5 458.08  8030.5 455  C 8030.5 451.92  8032.92 449.5  8036 449.5  Z " stroke-width="1" stroke="#797979" fill="none" />
  <path d="M 8036 458  C 8034.32 458  8033 456.68  8033 455  C 8033 453.32  8034.32 452  8036 452  C 8037.68 452  8039 453.32  8039 455  C 8039 456.68  8037.68 458  8036 458  " fill-rule="nonzero" fill="#797979" stroke="none" />
</svg>