<?xml version="1.0" encoding="utf-8"?>
<svg version="1.1" xmlns:xlink="http://www.w3.org/1999/xlink" width="12px" height="12px" viewBox="7920 449  12 12" xmlns="http://www.w3.org/2000/svg">
  <path d="M 7926 449  C 7929.36 449  7932 451.64  7932 455  C 7932 458.36  7929.36 461  7926 461  C 7922.64 461  7920 458.36  7920 455  C 7920 451.64  7922.64 449  7926 449  Z " fill-rule="nonzero" fill="#f0f0f0" stroke="none" />
  <path d="M 7926 449.5  C 7929.08 449.5  7931.5 451.92  7931.5 455  C 7931.5 458.08  7929.08 460.5  7926 460.5  C 7922.92 460.5  7920.5 458.08  7920.5 455  C 7920.5 451.92  7922.92 449.5  7926 449.5  Z " stroke-width="1" stroke="#797979" fill="none" />
  <path d="M 7926 458  C 7924.32 458  7923 456.68  7923 455  C 7923 453.32  7924.32 452  7926 452  C 7927.68 452  7929 453.32  7929 455  C 7929 456.68  7927.68 458  7926 458  " fill-rule="nonzero" fill="#797979" stroke="none" />
</svg>