<?xml version="1.0" encoding="utf-8"?>
<svg version="1.1" xmlns:xlink="http://www.w3.org/1999/xlink" width="12px" height="12px" viewBox="6593 451  12 12" xmlns="http://www.w3.org/2000/svg">
  <path d="M 6599 451  C 6602.36 451  6605 453.64  6605 457  C 6605 460.36  6602.36 463  6599 463  C 6595.64 463  6593 460.36  6593 457  C 6593 453.64  6595.64 451  6599 451  Z " fill-rule="nonzero" fill="#f0f0f0" stroke="none" />
  <path d="M 6599 451.5  C 6602.08 451.5  6604.5 453.92  6604.5 457  C 6604.5 460.08  6602.08 462.5  6599 462.5  C 6595.92 462.5  6593.5 460.08  6593.5 457  C 6593.5 453.92  6595.92 451.5  6599 451.5  Z " stroke-width="1" stroke="#797979" fill="none" />
  <path d="M 6599 460  C 6597.32 460  6596 458.68  6596 457  C 6596 455.32  6597.32 454  6599 454  C 6600.68 454  6602 455.32  6602 457  C 6602 458.68  6600.68 460  6599 460  " fill-rule="nonzero" fill="#797979" stroke="none" />
</svg>