<?xml version="1.0" encoding="utf-8"?>
<svg version="1.1" xmlns:xlink="http://www.w3.org/1999/xlink" width="12px" height="12px" viewBox="8734 589  12 12" xmlns="http://www.w3.org/2000/svg">
  <path d="M 8740 589  C 8743.36 589  8746 591.64  8746 595  C 8746 598.36  8743.36 601  8740 601  C 8736.64 601  8734 598.36  8734 595  C 8734 591.64  8736.64 589  8740 589  Z " fill-rule="nonzero" fill="#ffffff" stroke="none" />
  <path d="M 8740 589.5  C 8743.08 589.5  8745.5 591.92  8745.5 595  C 8745.5 598.08  8743.08 600.5  8740 600.5  C 8736.92 600.5  8734.5 598.08  8734.5 595  C 8734.5 591.92  8736.92 589.5  8740 589.5  Z " stroke-width="1" stroke="#797979" fill="none" />
  <path d="M 8740 598  C 8738.32 598  8737 596.68  8737 595  C 8737 593.32  8738.32 592  8740 592  C 8741.68 592  8743 593.32  8743 595  C 8743 596.68  8741.68 598  8740 598  " fill-rule="nonzero" fill="#797979" stroke="none" />
</svg>