<?xml version="1.0" encoding="utf-8"?>
<svg version="1.1" xmlns:xlink="http://www.w3.org/1999/xlink" width="12px" height="12px" viewBox="8844 589  12 12" xmlns="http://www.w3.org/2000/svg">
  <path d="M 8850 589  C 8853.36 589  8856 591.64  8856 595  C 8856 598.36  8853.36 601  8850 601  C 8846.64 601  8844 598.36  8844 595  C 8844 591.64  8846.64 589  8850 589  Z " fill-rule="nonzero" fill="#ffffff" stroke="none" />
  <path d="M 8850 589.5  C 8853.08 589.5  8855.5 591.92  8855.5 595  C 8855.5 598.08  8853.08 600.5  8850 600.5  C 8846.92 600.5  8844.5 598.08  8844.5 595  C 8844.5 591.92  8846.92 589.5  8850 589.5  Z " stroke-width="1" stroke="#797979" fill="none" />
  <path d="M 8850 598  C 8848.32 598  8847 596.68  8847 595  C 8847 593.32  8848.32 592  8850 592  C 8851.68 592  8853 593.32  8853 595  C 8853 596.68  8851.68 598  8850 598  " fill-rule="nonzero" fill="#797979" stroke="none" />
</svg>