<?xml version="1.0" encoding="utf-8"?>
<svg version="1.1" xmlns:xlink="http://www.w3.org/1999/xlink" width="12px" height="12px" viewBox="8745 1676  12 12" xmlns="http://www.w3.org/2000/svg">
  <path d="M 8751 1676  C 8754.36 1676  8757 1678.64  8757 1682  C 8757 1685.36  8754.36 1688  8751 1688  C 8747.64 1688  8745 1685.36  8745 1682  C 8745 1678.64  8747.64 1676  8751 1676  Z " fill-rule="nonzero" fill="#ffffff" stroke="none" />
  <path d="M 8751 1676.5  C 8754.08 1676.5  8756.5 1678.92  8756.5 1682  C 8756.5 1685.08  8754.08 1687.5  8751 1687.5  C 8747.92 1687.5  8745.5 1685.08  8745.5 1682  C 8745.5 1678.92  8747.92 1676.5  8751 1676.5  Z " stroke-width="1" stroke="#797979" fill="none" />
  <path d="M 8751 1685  C 8749.32 1685  8748 1683.68  8748 1682  C 8748 1680.32  8749.32 1679  8751 1679  C 8752.68 1679  8754 1680.32  8754 1682  C 8754 1683.68  8752.68 1685  8751 1685  " fill-rule="nonzero" fill="#797979" stroke="none" />
</svg>