<?xml version="1.0" encoding="utf-8"?>
<svg version="1.1" xmlns:xlink="http://www.w3.org/1999/xlink" width="12px" height="12px" viewBox="8745 1716  12 12" xmlns="http://www.w3.org/2000/svg">
  <path d="M 8751 1716  C 8754.36 1716  8757 1718.64  8757 1722  C 8757 1725.36  8754.36 1728  8751 1728  C 8747.64 1728  8745 1725.36  8745 1722  C 8745 1718.64  8747.64 1716  8751 1716  Z " fill-rule="nonzero" fill="#f0f0f0" stroke="none" />
  <path d="M 8751 1716.5  C 8754.08 1716.5  8756.5 1718.92  8756.5 1722  C 8756.5 1725.08  8754.08 1727.5  8751 1727.5  C 8747.92 1727.5  8745.5 1725.08  8745.5 1722  C 8745.5 1718.92  8747.92 1716.5  8751 1716.5  Z " stroke-width="1" stroke="#797979" fill="none" />
  <path d="M 8751 1725  C 8749.32 1725  8748 1723.68  8748 1722  C 8748 1720.32  8749.32 1719  8751 1719  C 8752.68 1719  8754 1720.32  8754 1722  C 8754 1723.68  8752.68 1725  8751 1725  " fill-rule="nonzero" fill="#797979" stroke="none" />
</svg>