<?xml version="1.0" encoding="utf-8"?>
<svg version="1.1" xmlns:xlink="http://www.w3.org/1999/xlink" width="12px" height="12px" viewBox="8852 1247  12 12" xmlns="http://www.w3.org/2000/svg">
  <path d="M 8858 1247  C 8861.36 1247  8864 1249.64  8864 1253  C 8864 1256.36  8861.36 1259  8858 1259  C 8854.64 1259  8852 1256.36  8852 1253  C 8852 1249.64  8854.64 1247  8858 1247  Z " fill-rule="nonzero" fill="#ffffff" stroke="none" />
  <path d="M 8858 1247.5  C 8861.08 1247.5  8863.5 1249.92  8863.5 1253  C 8863.5 1256.08  8861.08 1258.5  8858 1258.5  C 8854.92 1258.5  8852.5 1256.08  8852.5 1253  C 8852.5 1249.92  8854.92 1247.5  8858 1247.5  Z " stroke-width="1" stroke="#797979" fill="none" />
  <path d="M 8858 1256  C 8856.32 1256  8855 1254.68  8855 1253  C 8855 1251.32  8856.32 1250  8858 1250  C 8859.68 1250  8861 1251.32  8861 1253  C 8861 1254.68  8859.68 1256  8858 1256  " fill-rule="nonzero" fill="#797979" stroke="none" />
</svg>