<?xml version="1.0" encoding="utf-8"?>
<svg version="1.1" xmlns:xlink="http://www.w3.org/1999/xlink" width="12px" height="12px" viewBox="10746 432  12 12" xmlns="http://www.w3.org/2000/svg">
  <path d="M 10752 432  C 10755.36 432  10758 434.64  10758 438  C 10758 441.36  10755.36 444  10752 444  C 10748.64 444  10746 441.36  10746 438  C 10746 434.64  10748.64 432  10752 432  Z " fill-rule="nonzero" fill="#ffffff" stroke="none" />
  <path d="M 10752 432.5  C 10755.08 432.5  10757.5 434.92  10757.5 438  C 10757.5 441.08  10755.08 443.5  10752 443.5  C 10748.92 443.5  10746.5 441.08  10746.5 438  C 10746.5 434.92  10748.92 432.5  10752 432.5  Z " stroke-width="1" stroke="#797979" fill="none" />
  <path d="M 10752 441  C 10750.32 441  10749 439.68  10749 438  C 10749 436.32  10750.32 435  10752 435  C 10753.68 435  10755 436.32  10755 438  C 10755 439.68  10753.68 441  10752 441  " fill-rule="nonzero" fill="#797979" stroke="none" />
</svg>