<?xml version="1.0" encoding="utf-8"?>
<svg version="1.1" xmlns:xlink="http://www.w3.org/1999/xlink" width="12px" height="12px" viewBox="8906 440  12 12" xmlns="http://www.w3.org/2000/svg">
  <path d="M 8912 440  C 8915.36 440  8918 442.64  8918 446  C 8918 449.36  8915.36 452  8912 452  C 8908.64 452  8906 449.36  8906 446  C 8906 442.64  8908.64 440  8912 440  Z " fill-rule="nonzero" fill="#f0f0f0" stroke="none" />
  <path d="M 8912 440.5  C 8915.08 440.5  8917.5 442.92  8917.5 446  C 8917.5 449.08  8915.08 451.5  8912 451.5  C 8908.92 451.5  8906.5 449.08  8906.5 446  C 8906.5 442.92  8908.92 440.5  8912 440.5  Z " stroke-width="1" stroke="#797979" fill="none" />
  <path d="M 8912 449  C 8910.32 449  8909 447.68  8909 446  C 8909 444.32  8910.32 443  8912 443  C 8913.68 443  8915 444.32  8915 446  C 8915 447.68  8913.68 449  8912 449  " fill-rule="nonzero" fill="#797979" stroke="none" />
</svg>