<?xml version="1.0" encoding="utf-8"?>
<svg version="1.1" xmlns:xlink="http://www.w3.org/1999/xlink" width="12px" height="12px" viewBox="9047 1716  12 12" xmlns="http://www.w3.org/2000/svg">
  <path d="M 9053 1716  C 9056.36 1716  9059 1718.64  9059 1722  C 9059 1725.36  9056.36 1728  9053 1728  C 9049.64 1728  9047 1725.36  9047 1722  C 9047 1718.64  9049.64 1716  9053 1716  Z " fill-rule="nonzero" fill="#f0f0f0" stroke="none" />
  <path d="M 9053 1716.5  C 9056.08 1716.5  9058.5 1718.92  9058.5 1722  C 9058.5 1725.08  9056.08 1727.5  9053 1727.5  C 9049.92 1727.5  9047.5 1725.08  9047.5 1722  C 9047.5 1718.92  9049.92 1716.5  9053 1716.5  Z " stroke-width="1" stroke="#797979" fill="none" />
  <path d="M 9053 1725  C 9051.32 1725  9050 1723.68  9050 1722  C 9050 1720.32  9051.32 1719  9053 1719  C 9054.68 1719  9056 1720.32  9056 1722  C 9056 1723.68  9054.68 1725  9053 1725  " fill-rule="nonzero" fill="#797979" stroke="none" />
</svg>