<?xml version="1.0" encoding="utf-8"?>
<svg version="1.1" xmlns:xlink="http://www.w3.org/1999/xlink" width="12px" height="12px" viewBox="8957 1676  12 12" xmlns="http://www.w3.org/2000/svg">
  <path d="M 8963 1676  C 8966.36 1676  8969 1678.64  8969 1682  C 8969 1685.36  8966.36 1688  8963 1688  C 8959.64 1688  8957 1685.36  8957 1682  C 8957 1678.64  8959.64 1676  8963 1676  Z " fill-rule="nonzero" fill="#f0f0f0" stroke="none" />
  <path d="M 8963 1676.5  C 8966.08 1676.5  8968.5 1678.92  8968.5 1682  C 8968.5 1685.08  8966.08 1687.5  8963 1687.5  C 8959.92 1687.5  8957.5 1685.08  8957.5 1682  C 8957.5 1678.92  8959.92 1676.5  8963 1676.5  Z " stroke-width="1" stroke="#797979" fill="none" />
  <path d="M 8963 1685  C 8961.32 1685  8960 1683.68  8960 1682  C 8960 1680.32  8961.32 1679  8963 1679  C 8964.68 1679  8966 1680.32  8966 1682  C 8966 1683.68  8964.68 1685  8963 1685  " fill-rule="nonzero" fill="#797979" stroke="none" />
</svg>