<?xml version="1.0" encoding="utf-8"?>
<svg version="1.1" xmlns:xlink="http://www.w3.org/1999/xlink" width="12px" height="12px" viewBox="8742 1247  12 12" xmlns="http://www.w3.org/2000/svg">
  <path d="M 8748 1247  C 8751.36 1247  8754 1249.64  8754 1253  C 8754 1256.36  8751.36 1259  8748 1259  C 8744.64 1259  8742 1256.36  8742 1253  C 8742 1249.64  8744.64 1247  8748 1247  Z " fill-rule="nonzero" fill="#ffffff" stroke="none" />
  <path d="M 8748 1247.5  C 8751.08 1247.5  8753.5 1249.92  8753.5 1253  C 8753.5 1256.08  8751.08 1258.5  8748 1258.5  C 8744.92 1258.5  8742.5 1256.08  8742.5 1253  C 8742.5 1249.92  8744.92 1247.5  8748 1247.5  Z " stroke-width="1" stroke="#797979" fill="none" />
  <path d="M 8748 1256  C 8746.32 1256  8745 1254.68  8745 1253  C 8745 1251.32  8746.32 1250  8748 1250  C 8749.68 1250  8751 1251.32  8751 1253  C 8751 1254.68  8749.68 1256  8748 1256  " fill-rule="nonzero" fill="#797979" stroke="none" />
</svg>