<?xml version="1.0" encoding="utf-8"?>
<svg version="1.1" xmlns:xlink="http://www.w3.org/1999/xlink" width="12px" height="12px" viewBox="10856 432  12 12" xmlns="http://www.w3.org/2000/svg">
  <path d="M 10862 432  C 10865.36 432  10868 434.64  10868 438  C 10868 441.36  10865.36 444  10862 444  C 10858.64 444  10856 441.36  10856 438  C 10856 434.64  10858.64 432  10862 432  Z " fill-rule="nonzero" fill="#ffffff" stroke="none" />
  <path d="M 10862 432.5  C 10865.08 432.5  10867.5 434.92  10867.5 438  C 10867.5 441.08  10865.08 443.5  10862 443.5  C 10858.92 443.5  10856.5 441.08  10856.5 438  C 10856.5 434.92  10858.92 432.5  10862 432.5  Z " stroke-width="1" stroke="#797979" fill="none" />
  <path d="M 10862 441  C 10860.32 441  10859 439.68  10859 438  C 10859 436.32  10860.32 435  10862 435  C 10863.68 435  10865 436.32  10865 438  C 10865 439.68  10863.68 441  10862 441  " fill-rule="nonzero" fill="#797979" stroke="none" />
</svg>