<?xml version="1.0" encoding="utf-8"?>
<svg version="1.1" xmlns:xlink="http://www.w3.org/1999/xlink" width="12px" height="12px" viewBox="6297 3603  12 12" xmlns="http://www.w3.org/2000/svg">
  <path d="M 6303 3603  C 6306.36 3603  6309 3605.64  6309 3609  C 6309 3612.36  6306.36 3615  6303 3615  C 6299.64 3615  6297 3612.36  6297 3609  C 6297 3605.64  6299.64 3603  6303 3603  Z " fill-rule="nonzero" fill="#f0f0f0" stroke="none" />
  <path d="M 6303 3603.5  C 6306.08 3603.5  6308.5 3605.92  6308.5 3609  C 6308.5 3612.08  6306.08 3614.5  6303 3614.5  C 6299.92 3614.5  6297.5 3612.08  6297.5 3609  C 6297.5 3605.92  6299.92 3603.5  6303 3603.5  Z " stroke-width="1" stroke="#797979" fill="none" />
  <path d="M 6303 3612  C 6301.32 3612  6300 3610.68  6300 3609  C 6300 3607.32  6301.32 3606  6303 3606  C 6304.68 3606  6306 3607.32  6306 3609  C 6306 3610.68  6304.68 3612  6303 3612  " fill-rule="nonzero" fill="#797979" stroke="none" />
</svg>