<?xml version="1.0" encoding="utf-8"?>
<svg version="1.1" xmlns:xlink="http://www.w3.org/1999/xlink" width="12px" height="12px" viewBox="8855 1676  12 12" xmlns="http://www.w3.org/2000/svg">
  <path d="M 8861 1676  C 8864.36 1676  8867 1678.64  8867 1682  C 8867 1685.36  8864.36 1688  8861 1688  C 8857.64 1688  8855 1685.36  8855 1682  C 8855 1678.64  8857.64 1676  8861 1676  Z " fill-rule="nonzero" fill="#f0f0f0" stroke="none" />
  <path d="M 8861 1676.5  C 8864.08 1676.5  8866.5 1678.92  8866.5 1682  C 8866.5 1685.08  8864.08 1687.5  8861 1687.5  C 8857.92 1687.5  8855.5 1685.08  8855.5 1682  C 8855.5 1678.92  8857.92 1676.5  8861 1676.5  Z " stroke-width="1" stroke="#797979" fill="none" />
  <path d="M 8861 1685  C 8859.32 1685  8858 1683.68  8858 1682  C 8858 1680.32  8859.32 1679  8861 1679  C 8862.68 1679  8864 1680.32  8864 1682  C 8864 1683.68  8862.68 1685  8861 1685  " fill-rule="nonzero" fill="#797979" stroke="none" />
</svg>