<?xml version="1.0" encoding="utf-8"?>
<svg version="1.1" xmlns:xlink="http://www.w3.org/1999/xlink" width="12px" height="12px" viewBox="8745 1750  12 12" xmlns="http://www.w3.org/2000/svg">
  <path d="M 8751 1750  C 8754.36 1750  8757 1752.64  8757 1756  C 8757 1759.36  8754.36 1762  8751 1762  C 8747.64 1762  8745 1759.36  8745 1756  C 8745 1752.64  8747.64 1750  8751 1750  Z " fill-rule="nonzero" fill="#ffffff" stroke="none" />
  <path d="M 8751 1750.5  C 8754.08 1750.5  8756.5 1752.92  8756.5 1756  C 8756.5 1759.08  8754.08 1761.5  8751 1761.5  C 8747.92 1761.5  8745.5 1759.08  8745.5 1756  C 8745.5 1752.92  8747.92 1750.5  8751 1750.5  Z " stroke-width="1" stroke="#797979" fill="none" />
  <path d="M 8751 1759  C 8749.32 1759  8748 1757.68  8748 1756  C 8748 1754.32  8749.32 1753  8751 1753  C 8752.68 1753  8754 1754.32  8754 1756  C 8754 1757.68  8752.68 1759  8751 1759  " fill-rule="nonzero" fill="#797979" stroke="none" />
</svg>