<?xml version="1.0" encoding="utf-8"?>
<svg version="1.1" xmlns:xlink="http://www.w3.org/1999/xlink" width="12px" height="12px" viewBox="8957 1716  12 12" xmlns="http://www.w3.org/2000/svg">
  <path d="M 8963 1716  C 8966.36 1716  8969 1718.64  8969 1722  C 8969 1725.36  8966.36 1728  8963 1728  C 8959.64 1728  8957 1725.36  8957 1722  C 8957 1718.64  8959.64 1716  8963 1716  Z " fill-rule="nonzero" fill="#ffffff" stroke="none" />
  <path d="M 8963 1716.5  C 8966.08 1716.5  8968.5 1718.92  8968.5 1722  C 8968.5 1725.08  8966.08 1727.5  8963 1727.5  C 8959.92 1727.5  8957.5 1725.08  8957.5 1722  C 8957.5 1718.92  8959.92 1716.5  8963 1716.5  Z " stroke-width="1" stroke="#797979" fill="none" />
  <path d="M 8963 1725  C 8961.32 1725  8960 1723.68  8960 1722  C 8960 1720.32  8961.32 1719  8963 1719  C 8964.68 1719  8966 1720.32  8966 1722  C 8966 1723.68  8964.68 1725  8963 1725  " fill-rule="nonzero" fill="#797979" stroke="none" />
</svg>