<?xml version="1.0" encoding="utf-8"?>
<svg version="1.1" xmlns:xlink="http://www.w3.org/1999/xlink" width="12px" height="12px" viewBox="9047 1676  12 12" xmlns="http://www.w3.org/2000/svg">
  <path d="M 9053 1676  C 9056.36 1676  9059 1678.64  9059 1682  C 9059 1685.36  9056.36 1688  9053 1688  C 9049.64 1688  9047 1685.36  9047 1682  C 9047 1678.64  9049.64 1676  9053 1676  Z " fill-rule="nonzero" fill="#f0f0f0" stroke="none" />
  <path d="M 9053 1676.5  C 9056.08 1676.5  9058.5 1678.92  9058.5 1682  C 9058.5 1685.08  9056.08 1687.5  9053 1687.5  C 9049.92 1687.5  9047.5 1685.08  9047.5 1682  C 9047.5 1678.92  9049.92 1676.5  9053 1676.5  Z " stroke-width="1" stroke="#797979" fill="none" />
  <path d="M 9053 1685  C 9051.32 1685  9050 1683.68  9050 1682  C 9050 1680.32  9051.32 1679  9053 1679  C 9054.68 1679  9056 1680.32  9056 1682  C 9056 1683.68  9054.68 1685  9053 1685  " fill-rule="nonzero" fill="#797979" stroke="none" />
</svg>