<?xml version="1.0" encoding="utf-8"?>
<svg version="1.1" xmlns:xlink="http://www.w3.org/1999/xlink" width="12px" height="12px" viewBox="8796 440  12 12" xmlns="http://www.w3.org/2000/svg">
  <path d="M 8802 440  C 8805.36 440  8808 442.64  8808 446  C 8808 449.36  8805.36 452  8802 452  C 8798.64 452  8796 449.36  8796 446  C 8796 442.64  8798.64 440  8802 440  Z " fill-rule="nonzero" fill="#f0f0f0" stroke="none" />
  <path d="M 8802 440.5  C 8805.08 440.5  8807.5 442.92  8807.5 446  C 8807.5 449.08  8805.08 451.5  8802 451.5  C 8798.92 451.5  8796.5 449.08  8796.5 446  C 8796.5 442.92  8798.92 440.5  8802 440.5  Z " stroke-width="1" stroke="#797979" fill="none" />
  <path d="M 8802 449  C 8800.32 449  8799 447.68  8799 446  C 8799 444.32  8800.32 443  8802 443  C 8803.68 443  8805 444.32  8805 446  C 8805 447.68  8803.68 449  8802 449  " fill-rule="nonzero" fill="#797979" stroke="none" />
</svg>