<?xml version="1.0" encoding="utf-8"?>
<svg version="1.1" xmlns:xlink="http://www.w3.org/1999/xlink" width="12px" height="12px" viewBox="10636 432  12 12" xmlns="http://www.w3.org/2000/svg">
  <path d="M 10642 432  C 10645.36 432  10648 434.64  10648 438  C 10648 441.36  10645.36 444  10642 444  C 10638.64 444  10636 441.36  10636 438  C 10636 434.64  10638.64 432  10642 432  Z " fill-rule="nonzero" fill="#f0f0f0" stroke="none" />
  <path d="M 10642 432.5  C 10645.08 432.5  10647.5 434.92  10647.5 438  C 10647.5 441.08  10645.08 443.5  10642 443.5  C 10638.92 443.5  10636.5 441.08  10636.5 438  C 10636.5 434.92  10638.92 432.5  10642 432.5  Z " stroke-width="1" stroke="#797979" fill="none" />
  <path d="M 10642 441  C 10640.32 441  10639 439.68  10639 438  C 10639 436.32  10640.32 435  10642 435  C 10643.68 435  10645 436.32  10645 438  C 10645 439.68  10643.68 441  10642 441  " fill-rule="nonzero" fill="#797979" stroke="none" />
</svg>