<?xml version="1.0" encoding="utf-8"?>
<svg version="1.1" xmlns:xlink="http://www.w3.org/1999/xlink" width="12px" height="12px" viewBox="9383 601  12 12" xmlns="http://www.w3.org/2000/svg">
  <path d="M 9389 601  C 9392.36 601  9395 603.64  9395 607  C 9395 610.36  9392.36 613  9389 613  C 9385.64 613  9383 610.36  9383 607  C 9383 603.64  9385.64 601  9389 601  Z " fill-rule="nonzero" fill="#ffffff" stroke="none" />
  <path d="M 9389 601.5  C 9392.08 601.5  9394.5 603.92  9394.5 607  C 9394.5 610.08  9392.08 612.5  9389 612.5  C 9385.92 612.5  9383.5 610.08  9383.5 607  C 9383.5 603.92  9385.92 601.5  9389 601.5  Z " stroke-width="1" stroke="#797979" fill="none" />
  <path d="M 9389 610  C 9387.32 610  9386 608.68  9386 607  C 9386 605.32  9387.32 604  9389 604  C 9390.68 604  9392 605.32  9392 607  C 9392 608.68  9390.68 610  9389 610  " fill-rule="nonzero" fill="#797979" stroke="none" />
</svg>