<?xml version="1.0" encoding="utf-8"?>
<svg version="1.1" xmlns:xlink="http://www.w3.org/1999/xlink" width="12px" height="12px" viewBox="8755 1686  12 12" xmlns="http://www.w3.org/2000/svg">
  <path d="M 8761 1686  C 8764.36 1686  8767 1688.64  8767 1692  C 8767 1695.36  8764.36 1698  8761 1698  C 8757.64 1698  8755 1695.36  8755 1692  C 8755 1688.64  8757.64 1686  8761 1686  Z " fill-rule="nonzero" fill="#f0f0f0" stroke="none" />
  <path d="M 8761 1686.5  C 8764.08 1686.5  8766.5 1688.92  8766.5 1692  C 8766.5 1695.08  8764.08 1697.5  8761 1697.5  C 8757.92 1697.5  8755.5 1695.08  8755.5 1692  C 8755.5 1688.92  8757.92 1686.5  8761 1686.5  Z " stroke-width="1" stroke="#797979" fill="none" />
  <path d="M 8761 1695  C 8759.32 1695  8758 1693.68  8758 1692  C 8758 1690.32  8759.32 1689  8761 1689  C 8762.68 1689  8764 1690.32  8764 1692  C 8764 1693.68  8762.68 1695  8761 1695  " fill-rule="nonzero" fill="#797979" stroke="none" />
</svg>