<?xml version="1.0" encoding="utf-8"?>
<svg version="1.1" xmlns:xlink="http://www.w3.org/1999/xlink" width="12px" height="12px" viewBox="8755 1760  12 12" xmlns="http://www.w3.org/2000/svg">
  <path d="M 8761 1760  C 8764.36 1760  8767 1762.64  8767 1766  C 8767 1769.36  8764.36 1772  8761 1772  C 8757.64 1772  8755 1769.36  8755 1766  C 8755 1762.64  8757.64 1760  8761 1760  Z " fill-rule="nonzero" fill="#ffffff" stroke="none" />
  <path d="M 8761 1760.5  C 8764.08 1760.5  8766.5 1762.92  8766.5 1766  C 8766.5 1769.08  8764.08 1771.5  8761 1771.5  C 8757.92 1771.5  8755.5 1769.08  8755.5 1766  C 8755.5 1762.92  8757.92 1760.5  8761 1760.5  Z " stroke-width="1" stroke="#797979" fill="none" />
  <path d="M 8761 1769  C 8759.32 1769  8758 1767.68  8758 1766  C 8758 1764.32  8759.32 1763  8761 1763  C 8762.68 1763  8764 1764.32  8764 1766  C 8764 1767.68  8762.68 1769  8761 1769  " fill-rule="nonzero" fill="#797979" stroke="none" />
</svg>