<?xml version="1.0" encoding="utf-8"?>
<svg version="1.1" xmlns:xlink="http://www.w3.org/1999/xlink" width="12px" height="12px" viewBox="7374 1558  12 12" xmlns="http://www.w3.org/2000/svg">
  <path d="M 7380 1558  C 7383.36 1558  7386 1560.64  7386 1564  C 7386 1567.36  7383.36 1570  7380 1570  C 7376.64 1570  7374 1567.36  7374 1564  C 7374 1560.64  7376.64 1558  7380 1558  Z " fill-rule="nonzero" fill="#f0f0f0" stroke="none" />
  <path d="M 7380 1558.5  C 7383.08 1558.5  7385.5 1560.92  7385.5 1564  C 7385.5 1567.08  7383.08 1569.5  7380 1569.5  C 7376.92 1569.5  7374.5 1567.08  7374.5 1564  C 7374.5 1560.92  7376.92 1558.5  7380 1558.5  Z " stroke-width="1" stroke="#797979" fill="none" />
  <path d="M 7380 1567  C 7378.32 1567  7377 1565.68  7377 1564  C 7377 1562.32  7378.32 1561  7380 1561  C 7381.68 1561  7383 1562.32  7383 1564  C 7383 1565.68  7381.68 1567  7380 1567  " fill-rule="nonzero" fill="#797979" stroke="none" />
</svg>