<?xml version="1.0" encoding="utf-8"?>
<svg version="1.1" xmlns:xlink="http://www.w3.org/1999/xlink" width="12px" height="12px" viewBox="8865 1726  12 12" xmlns="http://www.w3.org/2000/svg">
  <path d="M 8871 1726  C 8874.36 1726  8877 1728.64  8877 1732  C 8877 1735.36  8874.36 1738  8871 1738  C 8867.64 1738  8865 1735.36  8865 1732  C 8865 1728.64  8867.64 1726  8871 1726  Z " fill-rule="nonzero" fill="#f0f0f0" stroke="none" />
  <path d="M 8871 1726.5  C 8874.08 1726.5  8876.5 1728.92  8876.5 1732  C 8876.5 1735.08  8874.08 1737.5  8871 1737.5  C 8867.92 1737.5  8865.5 1735.08  8865.5 1732  C 8865.5 1728.92  8867.92 1726.5  8871 1726.5  Z " stroke-width="1" stroke="#797979" fill="none" />
  <path d="M 8871 1735  C 8869.32 1735  8868 1733.68  8868 1732  C 8868 1730.32  8869.32 1729  8871 1729  C 8872.68 1729  8874 1730.32  8874 1732  C 8874 1733.68  8872.68 1735  8871 1735  " fill-rule="nonzero" fill="#797979" stroke="none" />
</svg>