<?xml version="1.0" encoding="utf-8"?>
<svg version="1.1" xmlns:xlink="http://www.w3.org/1999/xlink" width="12px" height="12px" viewBox="8967 1726  12 12" xmlns="http://www.w3.org/2000/svg">
  <path d="M 8973 1726  C 8976.36 1726  8979 1728.64  8979 1732  C 8979 1735.36  8976.36 1738  8973 1738  C 8969.64 1738  8967 1735.36  8967 1732  C 8967 1728.64  8969.64 1726  8973 1726  Z " fill-rule="nonzero" fill="#ffffff" stroke="none" />
  <path d="M 8973 1726.5  C 8976.08 1726.5  8978.5 1728.92  8978.5 1732  C 8978.5 1735.08  8976.08 1737.5  8973 1737.5  C 8969.92 1737.5  8967.5 1735.08  8967.5 1732  C 8967.5 1728.92  8969.92 1726.5  8973 1726.5  Z " stroke-width="1" stroke="#797979" fill="none" />
  <path d="M 8973 1735  C 8971.32 1735  8970 1733.68  8970 1732  C 8970 1730.32  8971.32 1729  8973 1729  C 8974.68 1729  8976 1730.32  8976 1732  C 8976 1733.68  8974.68 1735  8973 1735  " fill-rule="nonzero" fill="#797979" stroke="none" />
</svg>