<?xml version="1.0" encoding="utf-8"?>
<svg version="1.1" xmlns:xlink="http://www.w3.org/1999/xlink" width="12px" height="12px" viewBox="9606 1688  12 12" xmlns="http://www.w3.org/2000/svg">
  <path d="M 9612 1688  C 9615.36 1688  9618 1690.64  9618 1694  C 9618 1697.36  9615.36 1700  9612 1700  C 9608.64 1700  9606 1697.36  9606 1694  C 9606 1690.64  9608.64 1688  9612 1688  Z " fill-rule="nonzero" fill="#f0f0f0" stroke="none" />
  <path d="M 9612 1688.5  C 9615.08 1688.5  9617.5 1690.92  9617.5 1694  C 9617.5 1697.08  9615.08 1699.5  9612 1699.5  C 9608.92 1699.5  9606.5 1697.08  9606.5 1694  C 9606.5 1690.92  9608.92 1688.5  9612 1688.5  Z " stroke-width="1" stroke="#797979" fill="none" />
  <path d="M 9612 1697  C 9610.32 1697  9609 1695.68  9609 1694  C 9609 1692.32  9610.32 1691  9612 1691  C 9613.68 1691  9615 1692.32  9615 1694  C 9615 1695.68  9613.68 1697  9612 1697  " fill-rule="nonzero" fill="#797979" stroke="none" />
</svg>