<?xml version="1.0" encoding="utf-8"?>
<svg version="1.1" xmlns:xlink="http://www.w3.org/1999/xlink" width="12px" height="12px" viewBox="9057 1726  12 12" xmlns="http://www.w3.org/2000/svg">
  <path d="M 9063 1726  C 9066.36 1726  9069 1728.64  9069 1732  C 9069 1735.36  9066.36 1738  9063 1738  C 9059.64 1738  9057 1735.36  9057 1732  C 9057 1728.64  9059.64 1726  9063 1726  Z " fill-rule="nonzero" fill="#ffffff" stroke="none" />
  <path d="M 9063 1726.5  C 9066.08 1726.5  9068.5 1728.92  9068.5 1732  C 9068.5 1735.08  9066.08 1737.5  9063 1737.5  C 9059.92 1737.5  9057.5 1735.08  9057.5 1732  C 9057.5 1728.92  9059.92 1726.5  9063 1726.5  Z " stroke-width="1" stroke="#797979" fill="none" />
  <path d="M 9063 1735  C 9061.32 1735  9060 1733.68  9060 1732  C 9060 1730.32  9061.32 1729  9063 1729  C 9064.68 1729  9066 1730.32  9066 1732  C 9066 1733.68  9064.68 1735  9063 1735  " fill-rule="nonzero" fill="#797979" stroke="none" />
</svg>