<?xml version="1.0" encoding="utf-8"?>
<svg version="1.1" xmlns:xlink="http://www.w3.org/1999/xlink" width="12px" height="12px" viewBox="9696 1728  12 12" xmlns="http://www.w3.org/2000/svg">
  <path d="M 9702 1728  C 9705.36 1728  9708 1730.64  9708 1734  C 9708 1737.36  9705.36 1740  9702 1740  C 9698.64 1740  9696 1737.36  9696 1734  C 9696 1730.64  9698.64 1728  9702 1728  Z " fill-rule="nonzero" fill="#ffffff" stroke="none" />
  <path d="M 9702 1728.5  C 9705.08 1728.5  9707.5 1730.92  9707.5 1734  C 9707.5 1737.08  9705.08 1739.5  9702 1739.5  C 9698.92 1739.5  9696.5 1737.08  9696.5 1734  C 9696.5 1730.92  9698.92 1728.5  9702 1728.5  Z " stroke-width="1" stroke="#797979" fill="none" />
  <path d="M 9702 1737  C 9700.32 1737  9699 1735.68  9699 1734  C 9699 1732.32  9700.32 1731  9702 1731  C 9703.68 1731  9705 1732.32  9705 1734  C 9705 1735.68  9703.68 1737  9702 1737  " fill-rule="nonzero" fill="#797979" stroke="none" />
</svg>