<?xml version="1.0" encoding="utf-8"?>
<svg version="1.1" xmlns:xlink="http://www.w3.org/1999/xlink" width="12px" height="12px" viewBox="9504 1728  12 12" xmlns="http://www.w3.org/2000/svg">
  <path d="M 9510 1728  C 9513.36 1728  9516 1730.64  9516 1734  C 9516 1737.36  9513.36 1740  9510 1740  C 9506.64 1740  9504 1737.36  9504 1734  C 9504 1730.64  9506.64 1728  9510 1728  Z " fill-rule="nonzero" fill="#ffffff" stroke="none" />
  <path d="M 9510 1728.5  C 9513.08 1728.5  9515.5 1730.92  9515.5 1734  C 9515.5 1737.08  9513.08 1739.5  9510 1739.5  C 9506.92 1739.5  9504.5 1737.08  9504.5 1734  C 9504.5 1730.92  9506.92 1728.5  9510 1728.5  Z " stroke-width="1" stroke="#797979" fill="none" />
  <path d="M 9510 1737  C 9508.32 1737  9507 1735.68  9507 1734  C 9507 1732.32  9508.32 1731  9510 1731  C 9511.68 1731  9513 1732.32  9513 1734  C 9513 1735.68  9511.68 1737  9510 1737  " fill-rule="nonzero" fill="#797979" stroke="none" />
</svg>