<?xml version="1.0" encoding="utf-8"?>
<svg version="1.1" xmlns:xlink="http://www.w3.org/1999/xlink" width="12px" height="12px" viewBox="9493 601  12 12" xmlns="http://www.w3.org/2000/svg">
  <path d="M 9499 601  C 9502.36 601  9505 603.64  9505 607  C 9505 610.36  9502.36 613  9499 613  C 9495.64 613  9493 610.36  9493 607  C 9493 603.64  9495.64 601  9499 601  Z " fill-rule="nonzero" fill="#f0f0f0" stroke="none" />
  <path d="M 9499 601.5  C 9502.08 601.5  9504.5 603.92  9504.5 607  C 9504.5 610.08  9502.08 612.5  9499 612.5  C 9495.92 612.5  9493.5 610.08  9493.5 607  C 9493.5 603.92  9495.92 601.5  9499 601.5  Z " stroke-width="1" stroke="#797979" fill="none" />
  <path d="M 9499 610  C 9497.32 610  9496 608.68  9496 607  C 9496 605.32  9497.32 604  9499 604  C 9500.68 604  9502 605.32  9502 607  C 9502 608.68  9500.68 610  9499 610  " fill-rule="nonzero" fill="#797979" stroke="none" />
</svg>