<?xml version="1.0" encoding="utf-8"?>
<svg version="1.1" xmlns:xlink="http://www.w3.org/1999/xlink" width="12px" height="12px" viewBox="7272 1558  12 12" xmlns="http://www.w3.org/2000/svg">
  <path d="M 7278 1558  C 7281.36 1558  7284 1560.64  7284 1564  C 7284 1567.36  7281.36 1570  7278 1570  C 7274.64 1570  7272 1567.36  7272 1564  C 7272 1560.64  7274.64 1558  7278 1558  Z " fill-rule="nonzero" fill="#f0f0f0" stroke="none" />
  <path d="M 7278 1558.5  C 7281.08 1558.5  7283.5 1560.92  7283.5 1564  C 7283.5 1567.08  7281.08 1569.5  7278 1569.5  C 7274.92 1569.5  7272.5 1567.08  7272.5 1564  C 7272.5 1560.92  7274.92 1558.5  7278 1558.5  Z " stroke-width="1" stroke="#797979" fill="none" />
  <path d="M 7278 1567  C 7276.32 1567  7275 1565.68  7275 1564  C 7275 1562.32  7276.32 1561  7278 1561  C 7279.68 1561  7281 1562.32  7281 1564  C 7281 1565.68  7279.68 1567  7278 1567  " fill-rule="nonzero" fill="#797979" stroke="none" />
</svg>