<?xml version="1.0" encoding="utf-8"?>
<svg version="1.1" xmlns:xlink="http://www.w3.org/1999/xlink" width="12px" height="12px" viewBox="9696 1688  12 12" xmlns="http://www.w3.org/2000/svg">
  <path d="M 9702 1688  C 9705.36 1688  9708 1690.64  9708 1694  C 9708 1697.36  9705.36 1700  9702 1700  C 9698.64 1700  9696 1697.36  9696 1694  C 9696 1690.64  9698.64 1688  9702 1688  Z " fill-rule="nonzero" fill="#f0f0f0" stroke="none" />
  <path d="M 9702 1688.5  C 9705.08 1688.5  9707.5 1690.92  9707.5 1694  C 9707.5 1697.08  9705.08 1699.5  9702 1699.5  C 9698.92 1699.5  9696.5 1697.08  9696.5 1694  C 9696.5 1690.92  9698.92 1688.5  9702 1688.5  Z " stroke-width="1" stroke="#797979" fill="none" />
  <path d="M 9702 1697  C 9700.32 1697  9699 1695.68  9699 1694  C 9699 1692.32  9700.32 1691  9702 1691  C 9703.68 1691  9705 1692.32  9705 1694  C 9705 1695.68  9703.68 1697  9702 1697  " fill-rule="nonzero" fill="#797979" stroke="none" />
</svg>