<?xml version="1.0" encoding="utf-8"?>
<svg version="1.1" xmlns:xlink="http://www.w3.org/1999/xlink" width="12px" height="12px" viewBox="8865 1686  12 12" xmlns="http://www.w3.org/2000/svg">
  <path d="M 8871 1686  C 8874.36 1686  8877 1688.64  8877 1692  C 8877 1695.36  8874.36 1698  8871 1698  C 8867.64 1698  8865 1695.36  8865 1692  C 8865 1688.64  8867.64 1686  8871 1686  Z " fill-rule="nonzero" fill="#ffffff" stroke="none" />
  <path d="M 8871 1686.5  C 8874.08 1686.5  8876.5 1688.92  8876.5 1692  C 8876.5 1695.08  8874.08 1697.5  8871 1697.5  C 8867.92 1697.5  8865.5 1695.08  8865.5 1692  C 8865.5 1688.92  8867.92 1686.5  8871 1686.5  Z " stroke-width="1" stroke="#797979" fill="none" />
  <path d="M 8871 1695  C 8869.32 1695  8868 1693.68  8868 1692  C 8868 1690.32  8869.32 1689  8871 1689  C 8872.68 1689  8874 1690.32  8874 1692  C 8874 1693.68  8872.68 1695  8871 1695  " fill-rule="nonzero" fill="#797979" stroke="none" />
</svg>