<?xml version="1.0" encoding="utf-8"?>
<svg version="1.1" xmlns:xlink="http://www.w3.org/1999/xlink" width="12px" height="12px" viewBox="9606 1728  12 12" xmlns="http://www.w3.org/2000/svg">
  <path d="M 9612 1728  C 9615.36 1728  9618 1730.64  9618 1734  C 9618 1737.36  9615.36 1740  9612 1740  C 9608.64 1740  9606 1737.36  9606 1734  C 9606 1730.64  9608.64 1728  9612 1728  Z " fill-rule="nonzero" fill="#ffffff" stroke="none" />
  <path d="M 9612 1728.5  C 9615.08 1728.5  9617.5 1730.92  9617.5 1734  C 9617.5 1737.08  9615.08 1739.5  9612 1739.5  C 9608.92 1739.5  9606.5 1737.08  9606.5 1734  C 9606.5 1730.92  9608.92 1728.5  9612 1728.5  Z " stroke-width="1" stroke="#797979" fill="none" />
  <path d="M 9612 1737  C 9610.32 1737  9609 1735.68  9609 1734  C 9609 1732.32  9610.32 1731  9612 1731  C 9613.68 1731  9615 1732.32  9615 1734  C 9615 1735.68  9613.68 1737  9612 1737  " fill-rule="nonzero" fill="#797979" stroke="none" />
</svg>