<?xml version="1.0" encoding="utf-8"?>
<svg version="1.1" xmlns:xlink="http://www.w3.org/1999/xlink" width="12px" height="12px" viewBox="7162 1558  12 12" xmlns="http://www.w3.org/2000/svg">
  <path d="M 7168 1558  C 7171.36 1558  7174 1560.64  7174 1564  C 7174 1567.36  7171.36 1570  7168 1570  C 7164.64 1570  7162 1567.36  7162 1564  C 7162 1560.64  7164.64 1558  7168 1558  Z " fill-rule="nonzero" fill="#ffffff" stroke="none" />
  <path d="M 7168 1558.5  C 7171.08 1558.5  7173.5 1560.92  7173.5 1564  C 7173.5 1567.08  7171.08 1569.5  7168 1569.5  C 7164.92 1569.5  7162.5 1567.08  7162.5 1564  C 7162.5 1560.92  7164.92 1558.5  7168 1558.5  Z " stroke-width="1" stroke="#797979" fill="none" />
  <path d="M 7168 1567  C 7166.32 1567  7165 1565.68  7165 1564  C 7165 1562.32  7166.32 1561  7168 1561  C 7169.68 1561  7171 1562.32  7171 1564  C 7171 1565.68  7169.68 1567  7168 1567  " fill-rule="nonzero" fill="#797979" stroke="none" />
</svg>