<?xml version="1.0" encoding="utf-8"?>
<svg version="1.1" xmlns:xlink="http://www.w3.org/1999/xlink" width="12px" height="12px" viewBox="9391 1259  12 12" xmlns="http://www.w3.org/2000/svg">
  <path d="M 9397 1259  C 9400.36 1259  9403 1261.64  9403 1265  C 9403 1268.36  9400.36 1271  9397 1271  C 9393.64 1271  9391 1268.36  9391 1265  C 9391 1261.64  9393.64 1259  9397 1259  Z " fill-rule="nonzero" fill="#f0f0f0" stroke="none" />
  <path d="M 9397 1259.5  C 9400.08 1259.5  9402.5 1261.92  9402.5 1265  C 9402.5 1268.08  9400.08 1270.5  9397 1270.5  C 9393.92 1270.5  9391.5 1268.08  9391.5 1265  C 9391.5 1261.92  9393.92 1259.5  9397 1259.5  Z " stroke-width="1" stroke="#797979" fill="none" />
  <path d="M 9397 1268  C 9395.32 1268  9394 1266.68  9394 1265  C 9394 1263.32  9395.32 1262  9397 1262  C 9398.68 1262  9400 1263.32  9400 1265  C 9400 1266.68  9398.68 1268  9397 1268  " fill-rule="nonzero" fill="#797979" stroke="none" />
</svg>