<?xml version="1.0" encoding="utf-8"?>
<svg version="1.1" xmlns:xlink="http://www.w3.org/1999/xlink" width="12px" height="12px" viewBox="9501 1259  12 12" xmlns="http://www.w3.org/2000/svg">
  <path d="M 9507 1259  C 9510.36 1259  9513 1261.64  9513 1265  C 9513 1268.36  9510.36 1271  9507 1271  C 9503.64 1271  9501 1268.36  9501 1265  C 9501 1261.64  9503.64 1259  9507 1259  Z " fill-rule="nonzero" fill="#ffffff" stroke="none" />
  <path d="M 9507 1259.5  C 9510.08 1259.5  9512.5 1261.92  9512.5 1265  C 9512.5 1268.08  9510.08 1270.5  9507 1270.5  C 9503.92 1270.5  9501.5 1268.08  9501.5 1265  C 9501.5 1261.92  9503.92 1259.5  9507 1259.5  Z " stroke-width="1" stroke="#797979" fill="none" />
  <path d="M 9507 1268  C 9505.32 1268  9504 1266.68  9504 1265  C 9504 1263.32  9505.32 1262  9507 1262  C 9508.68 1262  9510 1263.32  9510 1265  C 9510 1266.68  9508.68 1268  9507 1268  " fill-rule="nonzero" fill="#797979" stroke="none" />
</svg>