<?xml version="1.0" encoding="utf-8"?>
<svg version="1.1" xmlns:xlink="http://www.w3.org/1999/xlink" width="12px" height="12px" viewBox="8967 1686  12 12" xmlns="http://www.w3.org/2000/svg">
  <path d="M 8973 1686  C 8976.36 1686  8979 1688.64  8979 1692  C 8979 1695.36  8976.36 1698  8973 1698  C 8969.64 1698  8967 1695.36  8967 1692  C 8967 1688.64  8969.64 1686  8973 1686  Z " fill-rule="nonzero" fill="#ffffff" stroke="none" />
  <path d="M 8973 1686.5  C 8976.08 1686.5  8978.5 1688.92  8978.5 1692  C 8978.5 1695.08  8976.08 1697.5  8973 1697.5  C 8969.92 1697.5  8967.5 1695.08  8967.5 1692  C 8967.5 1688.92  8969.92 1686.5  8973 1686.5  Z " stroke-width="1" stroke="#797979" fill="none" />
  <path d="M 8973 1695  C 8971.32 1695  8970 1693.68  8970 1692  C 8970 1690.32  8971.32 1689  8973 1689  C 8974.68 1689  8976 1690.32  8976 1692  C 8976 1693.68  8974.68 1695  8973 1695  " fill-rule="nonzero" fill="#797979" stroke="none" />
</svg>