<?xml version="1.0" encoding="utf-8"?>
<svg version="1.1" xmlns:xlink="http://www.w3.org/1999/xlink" width="12px" height="12px" viewBox="8755 1726  12 12" xmlns="http://www.w3.org/2000/svg">
  <path d="M 8761 1726  C 8764.36 1726  8767 1728.64  8767 1732  C 8767 1735.36  8764.36 1738  8761 1738  C 8757.64 1738  8755 1735.36  8755 1732  C 8755 1728.64  8757.64 1726  8761 1726  Z " fill-rule="nonzero" fill="#f0f0f0" stroke="none" />
  <path d="M 8761 1726.5  C 8764.08 1726.5  8766.5 1728.92  8766.5 1732  C 8766.5 1735.08  8764.08 1737.5  8761 1737.5  C 8757.92 1737.5  8755.5 1735.08  8755.5 1732  C 8755.5 1728.92  8757.92 1726.5  8761 1726.5  Z " stroke-width="1" stroke="#797979" fill="none" />
  <path d="M 8761 1735  C 8759.32 1735  8758 1733.68  8758 1732  C 8758 1730.32  8759.32 1729  8761 1729  C 8762.68 1729  8764 1730.32  8764 1732  C 8764 1733.68  8762.68 1735  8761 1735  " fill-rule="nonzero" fill="#797979" stroke="none" />
</svg>