<?xml version="1.0" encoding="utf-8"?>
<svg version="1.1" xmlns:xlink="http://www.w3.org/1999/xlink" width="12px" height="12px" viewBox="9504 1688  12 12" xmlns="http://www.w3.org/2000/svg">
  <path d="M 9510 1688  C 9513.36 1688  9516 1690.64  9516 1694  C 9516 1697.36  9513.36 1700  9510 1700  C 9506.64 1700  9504 1697.36  9504 1694  C 9504 1690.64  9506.64 1688  9510 1688  Z " fill-rule="nonzero" fill="#f0f0f0" stroke="none" />
  <path d="M 9510 1688.5  C 9513.08 1688.5  9515.5 1690.92  9515.5 1694  C 9515.5 1697.08  9513.08 1699.5  9510 1699.5  C 9506.92 1699.5  9504.5 1697.08  9504.5 1694  C 9504.5 1690.92  9506.92 1688.5  9510 1688.5  Z " stroke-width="1" stroke="#797979" fill="none" />
  <path d="M 9510 1697  C 9508.32 1697  9507 1695.68  9507 1694  C 9507 1692.32  9508.32 1691  9510 1691  C 9511.68 1691  9513 1692.32  9513 1694  C 9513 1695.68  9511.68 1697  9510 1697  " fill-rule="nonzero" fill="#797979" stroke="none" />
</svg>