<?xml version="1.0" encoding="utf-8"?>
<svg version="1.1" xmlns:xlink="http://www.w3.org/1999/xlink" width="12px" height="12px" viewBox="9057 1686  12 12" xmlns="http://www.w3.org/2000/svg">
  <path d="M 9063 1686  C 9066.36 1686  9069 1688.64  9069 1692  C 9069 1695.36  9066.36 1698  9063 1698  C 9059.64 1698  9057 1695.36  9057 1692  C 9057 1688.64  9059.64 1686  9063 1686  Z " fill-rule="nonzero" fill="#f0f0f0" stroke="none" />
  <path d="M 9063 1686.5  C 9066.08 1686.5  9068.5 1688.92  9068.5 1692  C 9068.5 1695.08  9066.08 1697.5  9063 1697.5  C 9059.92 1697.5  9057.5 1695.08  9057.5 1692  C 9057.5 1688.92  9059.92 1686.5  9063 1686.5  Z " stroke-width="1" stroke="#797979" fill="none" />
  <path d="M 9063 1695  C 9061.32 1695  9060 1693.68  9060 1692  C 9060 1690.32  9061.32 1689  9063 1689  C 9064.68 1689  9066 1690.32  9066 1692  C 9066 1693.68  9064.68 1695  9063 1695  " fill-rule="nonzero" fill="#797979" stroke="none" />
</svg>