<?xml version="1.0" encoding="utf-8"?>
<svg version="1.1" xmlns:xlink="http://www.w3.org/1999/xlink" width="12px" height="12px" viewBox="6413 1283  12 12" xmlns="http://www.w3.org/2000/svg">
  <path d="M 6419 1283  C 6422.36 1283  6425 1285.64  6425 1289  C 6425 1292.36  6422.36 1295  6419 1295  C 6415.64 1295  6413 1292.36  6413 1289  C 6413 1285.64  6415.64 1283  6419 1283  Z " fill-rule="nonzero" fill="#ffffff" stroke="none" />
  <path d="M 6419 1283.5  C 6422.08 1283.5  6424.5 1285.92  6424.5 1289  C 6424.5 1292.08  6422.08 1294.5  6419 1294.5  C 6415.92 1294.5  6413.5 1292.08  6413.5 1289  C 6413.5 1285.92  6415.92 1283.5  6419 1283.5  Z " stroke-width="1" stroke="#797979" fill="none" />
  <path d="M 6419 1292  C 6417.32 1292  6416 1290.68  6416 1289  C 6416 1287.32  6417.32 1286  6419 1286  C 6420.68 1286  6422 1287.32  6422 1289  C 6422 1290.68  6420.68 1292  6419 1292  " fill-rule="nonzero" fill="#797979" stroke="none" />
</svg>