<?xml version="1.0" encoding="utf-8"?>
<svg version="1.1" xmlns:xlink="http://www.w3.org/1999/xlink" width="12px" height="12px" viewBox="7162 1632  12 12" xmlns="http://www.w3.org/2000/svg">
  <path d="M 7168 1632  C 7171.36 1632  7174 1634.64  7174 1638  C 7174 1641.36  7171.36 1644  7168 1644  C 7164.64 1644  7162 1641.36  7162 1638  C 7162 1634.64  7164.64 1632  7168 1632  Z " fill-rule="nonzero" fill="#ffffff" stroke="none" />
  <path d="M 7168 1632.5  C 7171.08 1632.5  7173.5 1634.92  7173.5 1638  C 7173.5 1641.08  7171.08 1643.5  7168 1643.5  C 7164.92 1643.5  7162.5 1641.08  7162.5 1638  C 7162.5 1634.92  7164.92 1632.5  7168 1632.5  Z " stroke-width="1" stroke="#797979" fill="none" />
  <path d="M 7168 1641  C 7166.32 1641  7165 1639.68  7165 1638  C 7165 1636.32  7166.32 1635  7168 1635  C 7169.68 1635  7171 1636.32  7171 1638  C 7171 1639.68  7169.68 1641  7168 1641  " fill-rule="nonzero" fill="#797979" stroke="none" />
</svg>