<?xml version="1.0" encoding="utf-8"?>
<svg version="1.1" xmlns:xlink="http://www.w3.org/1999/xlink" width="12px" height="12px" viewBox="7162 1598  12 12" xmlns="http://www.w3.org/2000/svg">
  <path d="M 7168 1598  C 7171.36 1598  7174 1600.64  7174 1604  C 7174 1607.36  7171.36 1610  7168 1610  C 7164.64 1610  7162 1607.36  7162 1604  C 7162 1600.64  7164.64 1598  7168 1598  Z " fill-rule="nonzero" fill="#ffffff" stroke="none" />
  <path d="M 7168 1598.5  C 7171.08 1598.5  7173.5 1600.92  7173.5 1604  C 7173.5 1607.08  7171.08 1609.5  7168 1609.5  C 7164.92 1609.5  7162.5 1607.08  7162.5 1604  C 7162.5 1600.92  7164.92 1598.5  7168 1598.5  Z " stroke-width="1" stroke="#797979" fill="none" />
  <path d="M 7168 1607  C 7166.32 1607  7165 1605.68  7165 1604  C 7165 1602.32  7166.32 1601  7168 1601  C 7169.68 1601  7171 1602.32  7171 1604  C 7171 1605.68  7169.68 1607  7168 1607  " fill-rule="nonzero" fill="#797979" stroke="none" />
</svg>