<?xml version="1.0" encoding="utf-8"?>
<svg version="1.1" xmlns:xlink="http://www.w3.org/1999/xlink" width="12px" height="12px" viewBox="6526 2370  12 12" xmlns="http://www.w3.org/2000/svg">
  <path d="M 6532 2370  C 6535.36 2370  6538 2372.64  6538 2376  C 6538 2379.36  6535.36 2382  6532 2382  C 6528.64 2382  6526 2379.36  6526 2376  C 6526 2372.64  6528.64 2370  6532 2370  Z " fill-rule="nonzero" fill="#f0f0f0" stroke="none" />
  <path d="M 6532 2370.5  C 6535.08 2370.5  6537.5 2372.92  6537.5 2376  C 6537.5 2379.08  6535.08 2381.5  6532 2381.5  C 6528.92 2381.5  6526.5 2379.08  6526.5 2376  C 6526.5 2372.92  6528.92 2370.5  6532 2370.5  Z " stroke-width="1" stroke="#797979" fill="none" />
  <path d="M 6532 2379  C 6530.32 2379  6529 2377.68  6529 2376  C 6529 2374.32  6530.32 2373  6532 2373  C 6533.68 2373  6535 2374.32  6535 2376  C 6535 2377.68  6533.68 2379  6532 2379  " fill-rule="nonzero" fill="#797979" stroke="none" />
</svg>