<?xml version="1.0" encoding="utf-8"?>
<svg version="1.1" xmlns:xlink="http://www.w3.org/1999/xlink" width="12px" height="12px" viewBox="6311 1941  12 12" xmlns="http://www.w3.org/2000/svg">
  <path d="M 6317 1941  C 6320.36 1941  6323 1943.64  6323 1947  C 6323 1950.36  6320.36 1953  6317 1953  C 6313.64 1953  6311 1950.36  6311 1947  C 6311 1943.64  6313.64 1941  6317 1941  Z " fill-rule="nonzero" fill="#ffffff" stroke="none" />
  <path d="M 6317 1941.5  C 6320.08 1941.5  6322.5 1943.92  6322.5 1947  C 6322.5 1950.08  6320.08 1952.5  6317 1952.5  C 6313.92 1952.5  6311.5 1950.08  6311.5 1947  C 6311.5 1943.92  6313.92 1941.5  6317 1941.5  Z " stroke-width="1" stroke="#797979" fill="none" />
  <path d="M 6317 1950  C 6315.32 1950  6314 1948.68  6314 1947  C 6314 1945.32  6315.32 1944  6317 1944  C 6318.68 1944  6320 1945.32  6320 1947  C 6320 1948.68  6318.68 1950  6317 1950  " fill-rule="nonzero" fill="#797979" stroke="none" />
</svg>