<?xml version="1.0" encoding="utf-8"?>
<svg version="1.1" xmlns:xlink="http://www.w3.org/1999/xlink" width="12px" height="12px" viewBox="6592 2137  12 12" xmlns="http://www.w3.org/2000/svg">
  <path d="M 6598 2137  C 6601.36 2137  6604 2139.64  6604 2143  C 6604 2146.36  6601.36 2149  6598 2149  C 6594.64 2149  6592 2146.36  6592 2143  C 6592 2139.64  6594.64 2137  6598 2137  Z " fill-rule="nonzero" fill="#f0f0f0" stroke="none" />
  <path d="M 6598 2137.5  C 6601.08 2137.5  6603.5 2139.92  6603.5 2143  C 6603.5 2146.08  6601.08 2148.5  6598 2148.5  C 6594.92 2148.5  6592.5 2146.08  6592.5 2143  C 6592.5 2139.92  6594.92 2137.5  6598 2137.5  Z " stroke-width="1" stroke="#797979" fill="none" />
  <path d="M 6598 2146  C 6596.32 2146  6595 2144.68  6595 2143  C 6595 2141.32  6596.32 2140  6598 2140  C 6599.68 2140  6601 2141.32  6601 2143  C 6601 2144.68  6599.68 2146  6598 2146  " fill-rule="nonzero" fill="#797979" stroke="none" />
</svg>