<?xml version="1.0" encoding="utf-8"?>
<svg version="1.1" xmlns:xlink="http://www.w3.org/1999/xlink" width="12px" height="12px" viewBox="6407 3028  12 12" xmlns="http://www.w3.org/2000/svg">
  <path d="M 6413 3028  C 6416.36 3028  6419 3030.64  6419 3034  C 6419 3037.36  6416.36 3040  6413 3040  C 6409.64 3040  6407 3037.36  6407 3034  C 6407 3030.64  6409.64 3028  6413 3028  Z " fill-rule="nonzero" fill="#ffffff" stroke="none" />
  <path d="M 6413 3028.5  C 6416.08 3028.5  6418.5 3030.92  6418.5 3034  C 6418.5 3037.08  6416.08 3039.5  6413 3039.5  C 6409.92 3039.5  6407.5 3037.08  6407.5 3034  C 6407.5 3030.92  6409.92 3028.5  6413 3028.5  Z " stroke-width="1" stroke="#797979" fill="none" />
  <path d="M 6413 3037  C 6411.32 3037  6410 3035.68  6410 3034  C 6410 3032.32  6411.32 3031  6413 3031  C 6414.68 3031  6416 3032.32  6416 3034  C 6416 3035.68  6414.68 3037  6413 3037  " fill-rule="nonzero" fill="#797979" stroke="none" />
</svg>