<?xml version="1.0" encoding="utf-8"?>
<svg version="1.1" xmlns:xlink="http://www.w3.org/1999/xlink" width="12px" height="12px" viewBox="6303 1283  12 12" xmlns="http://www.w3.org/2000/svg">
  <path d="M 6309 1283  C 6312.36 1283  6315 1285.64  6315 1289  C 6315 1292.36  6312.36 1295  6309 1295  C 6305.64 1295  6303 1292.36  6303 1289  C 6303 1285.64  6305.64 1283  6309 1283  Z " fill-rule="nonzero" fill="#f0f0f0" stroke="none" />
  <path d="M 6309 1283.5  C 6312.08 1283.5  6314.5 1285.92  6314.5 1289  C 6314.5 1292.08  6312.08 1294.5  6309 1294.5  C 6305.92 1294.5  6303.5 1292.08  6303.5 1289  C 6303.5 1285.92  6305.92 1283.5  6309 1283.5  Z " stroke-width="1" stroke="#797979" fill="none" />
  <path d="M 6309 1292  C 6307.32 1292  6306 1290.68  6306 1289  C 6306 1287.32  6307.32 1286  6309 1286  C 6310.68 1286  6312 1287.32  6312 1289  C 6312 1290.68  6310.68 1292  6309 1292  " fill-rule="nonzero" fill="#797979" stroke="none" />
</svg>