<?xml version="1.0" encoding="utf-8"?>
<svg version="1.1" xmlns:xlink="http://www.w3.org/1999/xlink" width="12px" height="12px" viewBox="6424 2410  12 12" xmlns="http://www.w3.org/2000/svg">
  <path d="M 6430 2410  C 6433.36 2410  6436 2412.64  6436 2416  C 6436 2419.36  6433.36 2422  6430 2422  C 6426.64 2422  6424 2419.36  6424 2416  C 6424 2412.64  6426.64 2410  6430 2410  Z " fill-rule="nonzero" fill="#f0f0f0" stroke="none" />
  <path d="M 6430 2410.5  C 6433.08 2410.5  6435.5 2412.92  6435.5 2416  C 6435.5 2419.08  6433.08 2421.5  6430 2421.5  C 6426.92 2421.5  6424.5 2419.08  6424.5 2416  C 6424.5 2412.92  6426.92 2410.5  6430 2410.5  Z " stroke-width="1" stroke="#797979" fill="none" />
  <path d="M 6430 2419  C 6428.32 2419  6427 2417.68  6427 2416  C 6427 2414.32  6428.32 2413  6430 2413  C 6431.68 2413  6433 2414.32  6433 2416  C 6433 2417.68  6431.68 2419  6430 2419  " fill-rule="nonzero" fill="#797979" stroke="none" />
</svg>