<?xml version="1.0" encoding="utf-8"?>
<svg version="1.1" xmlns:xlink="http://www.w3.org/1999/xlink" width="12px" height="12px" viewBox="7374 1598  12 12" xmlns="http://www.w3.org/2000/svg">
  <path d="M 7380 1598  C 7383.36 1598  7386 1600.64  7386 1604  C 7386 1607.36  7383.36 1610  7380 1610  C 7376.64 1610  7374 1607.36  7374 1604  C 7374 1600.64  7376.64 1598  7380 1598  Z " fill-rule="nonzero" fill="#ffffff" stroke="none" />
  <path d="M 7380 1598.5  C 7383.08 1598.5  7385.5 1600.92  7385.5 1604  C 7385.5 1607.08  7383.08 1609.5  7380 1609.5  C 7376.92 1609.5  7374.5 1607.08  7374.5 1604  C 7374.5 1600.92  7376.92 1598.5  7380 1598.5  Z " stroke-width="1" stroke="#797979" fill="none" />
  <path d="M 7380 1607  C 7378.32 1607  7377 1605.68  7377 1604  C 7377 1602.32  7378.32 1601  7380 1601  C 7381.68 1601  7383 1602.32  7383 1604  C 7383 1605.68  7381.68 1607  7380 1607  " fill-rule="nonzero" fill="#797979" stroke="none" />
</svg>