<?xml version="1.0" encoding="utf-8"?>
<svg version="1.1" xmlns:xlink="http://www.w3.org/1999/xlink" width="12px" height="12px" viewBox="6314 2370  12 12" xmlns="http://www.w3.org/2000/svg">
  <path d="M 6320 2370  C 6323.36 2370  6326 2372.64  6326 2376  C 6326 2379.36  6323.36 2382  6320 2382  C 6316.64 2382  6314 2379.36  6314 2376  C 6314 2372.64  6316.64 2370  6320 2370  Z " fill-rule="nonzero" fill="#ffffff" stroke="none" />
  <path d="M 6320 2370.5  C 6323.08 2370.5  6325.5 2372.92  6325.5 2376  C 6325.5 2379.08  6323.08 2381.5  6320 2381.5  C 6316.92 2381.5  6314.5 2379.08  6314.5 2376  C 6314.5 2372.92  6316.92 2370.5  6320 2370.5  Z " stroke-width="1" stroke="#797979" fill="none" />
  <path d="M 6320 2379  C 6318.32 2379  6317 2377.68  6317 2376  C 6317 2374.32  6318.32 2373  6320 2373  C 6321.68 2373  6323 2374.32  6323 2376  C 6323 2377.68  6321.68 2379  6320 2379  " fill-rule="nonzero" fill="#797979" stroke="none" />
</svg>