<?xml version="1.0" encoding="utf-8"?>
<svg version="1.1" xmlns:xlink="http://www.w3.org/1999/xlink" width="12px" height="12px" viewBox="6592 2177  12 12" xmlns="http://www.w3.org/2000/svg">
  <path d="M 6598 2177  C 6601.36 2177  6604 2179.64  6604 2183  C 6604 2186.36  6601.36 2189  6598 2189  C 6594.64 2189  6592 2186.36  6592 2183  C 6592 2179.64  6594.64 2177  6598 2177  Z " fill-rule="nonzero" fill="#ffffff" stroke="none" />
  <path d="M 6598 2177.5  C 6601.08 2177.5  6603.5 2179.92  6603.5 2183  C 6603.5 2186.08  6601.08 2188.5  6598 2188.5  C 6594.92 2188.5  6592.5 2186.08  6592.5 2183  C 6592.5 2179.92  6594.92 2177.5  6598 2177.5  Z " stroke-width="1" stroke="#797979" fill="none" />
  <path d="M 6598 2186  C 6596.32 2186  6595 2184.68  6595 2183  C 6595 2181.32  6596.32 2180  6598 2180  C 6599.68 2180  6601 2181.32  6601 2183  C 6601 2184.68  6599.68 2186  6598 2186  " fill-rule="nonzero" fill="#797979" stroke="none" />
</svg>