<?xml version="1.0" encoding="utf-8"?>
<svg version="1.1" xmlns:xlink="http://www.w3.org/1999/xlink" width="12px" height="12px" viewBox="6314 2444  12 12" xmlns="http://www.w3.org/2000/svg">
  <path d="M 6320 2444  C 6323.36 2444  6326 2446.64  6326 2450  C 6326 2453.36  6323.36 2456  6320 2456  C 6316.64 2456  6314 2453.36  6314 2450  C 6314 2446.64  6316.64 2444  6320 2444  Z " fill-rule="nonzero" fill="#ffffff" stroke="none" />
  <path d="M 6320 2444.5  C 6323.08 2444.5  6325.5 2446.92  6325.5 2450  C 6325.5 2453.08  6323.08 2455.5  6320 2455.5  C 6316.92 2455.5  6314.5 2453.08  6314.5 2450  C 6314.5 2446.92  6316.92 2444.5  6320 2444.5  Z " stroke-width="1" stroke="#797979" fill="none" />
  <path d="M 6320 2453  C 6318.32 2453  6317 2451.68  6317 2450  C 6317 2448.32  6318.32 2447  6320 2447  C 6321.68 2447  6323 2448.32  6323 2450  C 6323 2451.68  6321.68 2453  6320 2453  " fill-rule="nonzero" fill="#797979" stroke="none" />
</svg>