<?xml version="1.0" encoding="utf-8"?>
<svg version="1.1" xmlns:xlink="http://www.w3.org/1999/xlink" width="12px" height="12px" viewBox="6314 2410  12 12" xmlns="http://www.w3.org/2000/svg">
  <path d="M 6320 2410  C 6323.36 2410  6326 2412.64  6326 2416  C 6326 2419.36  6323.36 2422  6320 2422  C 6316.64 2422  6314 2419.36  6314 2416  C 6314 2412.64  6316.64 2410  6320 2410  Z " fill-rule="nonzero" fill="#ffffff" stroke="none" />
  <path d="M 6320 2410.5  C 6323.08 2410.5  6325.5 2412.92  6325.5 2416  C 6325.5 2419.08  6323.08 2421.5  6320 2421.5  C 6316.92 2421.5  6314.5 2419.08  6314.5 2416  C 6314.5 2412.92  6316.92 2410.5  6320 2410.5  Z " stroke-width="1" stroke="#797979" fill="none" />
  <path d="M 6320 2419  C 6318.32 2419  6317 2417.68  6317 2416  C 6317 2414.32  6318.32 2413  6320 2413  C 6321.68 2413  6323 2414.32  6323 2416  C 6323 2417.68  6321.68 2419  6320 2419  " fill-rule="nonzero" fill="#797979" stroke="none" />
</svg>