<?xml version="1.0" encoding="utf-8"?>
<svg version="1.1" xmlns:xlink="http://www.w3.org/1999/xlink" width="12px" height="12px" viewBox="7464 1558  12 12" xmlns="http://www.w3.org/2000/svg">
  <path d="M 7470 1558  C 7473.36 1558  7476 1560.64  7476 1564  C 7476 1567.36  7473.36 1570  7470 1570  C 7466.64 1570  7464 1567.36  7464 1564  C 7464 1560.64  7466.64 1558  7470 1558  Z " fill-rule="nonzero" fill="#f0f0f0" stroke="none" />
  <path d="M 7470 1558.5  C 7473.08 1558.5  7475.5 1560.92  7475.5 1564  C 7475.5 1567.08  7473.08 1569.5  7470 1569.5  C 7466.92 1569.5  7464.5 1567.08  7464.5 1564  C 7464.5 1560.92  7466.92 1558.5  7470 1558.5  Z " stroke-width="1" stroke="#797979" fill="none" />
  <path d="M 7470 1567  C 7468.32 1567  7467 1565.68  7467 1564  C 7467 1562.32  7468.32 1561  7470 1561  C 7471.68 1561  7473 1562.32  7473 1564  C 7473 1565.68  7471.68 1567  7470 1567  " fill-rule="nonzero" fill="#797979" stroke="none" />
</svg>