<?xml version="1.0" encoding="utf-8"?>
<svg version="1.1" xmlns:xlink="http://www.w3.org/1999/xlink" width="12px" height="12px" viewBox="6526 2410  12 12" xmlns="http://www.w3.org/2000/svg">
  <path d="M 6532 2410  C 6535.36 2410  6538 2412.64  6538 2416  C 6538 2419.36  6535.36 2422  6532 2422  C 6528.64 2422  6526 2419.36  6526 2416  C 6526 2412.64  6528.64 2410  6532 2410  Z " fill-rule="nonzero" fill="#f0f0f0" stroke="none" />
  <path d="M 6532 2410.5  C 6535.08 2410.5  6537.5 2412.92  6537.5 2416  C 6537.5 2419.08  6535.08 2421.5  6532 2421.5  C 6528.92 2421.5  6526.5 2419.08  6526.5 2416  C 6526.5 2412.92  6528.92 2410.5  6532 2410.5  Z " stroke-width="1" stroke="#797979" fill="none" />
  <path d="M 6532 2419  C 6530.32 2419  6529 2417.68  6529 2416  C 6529 2414.32  6530.32 2413  6532 2413  C 6533.68 2413  6535 2414.32  6535 2416  C 6535 2417.68  6533.68 2419  6532 2419  " fill-rule="nonzero" fill="#797979" stroke="none" />
</svg>