<?xml version="1.0" encoding="utf-8"?>
<svg version="1.1" xmlns:xlink="http://www.w3.org/1999/xlink" width="12px" height="12px" viewBox="6424 2370  12 12" xmlns="http://www.w3.org/2000/svg">
  <path d="M 6430 2370  C 6433.36 2370  6436 2372.64  6436 2376  C 6436 2379.36  6433.36 2382  6430 2382  C 6426.64 2382  6424 2379.36  6424 2376  C 6424 2372.64  6426.64 2370  6430 2370  Z " fill-rule="nonzero" fill="#f0f0f0" stroke="none" />
  <path d="M 6430 2370.5  C 6433.08 2370.5  6435.5 2372.92  6435.5 2376  C 6435.5 2379.08  6433.08 2381.5  6430 2381.5  C 6426.92 2381.5  6424.5 2379.08  6424.5 2376  C 6424.5 2372.92  6426.92 2370.5  6430 2370.5  Z " stroke-width="1" stroke="#797979" fill="none" />
  <path d="M 6430 2379  C 6428.32 2379  6427 2377.68  6427 2376  C 6427 2374.32  6428.32 2373  6430 2373  C 6431.68 2373  6433 2374.32  6433 2376  C 6433 2377.68  6431.68 2379  6430 2379  " fill-rule="nonzero" fill="#797979" stroke="none" />
</svg>