<?xml version="1.0" encoding="utf-8"?>
<svg version="1.1" xmlns:xlink="http://www.w3.org/1999/xlink" width="12px" height="12px" viewBox="5643 1283  12 12" xmlns="http://www.w3.org/2000/svg">
  <path d="M 5649 1283  C 5652.36 1283  5655 1285.64  5655 1289  C 5655 1292.36  5652.36 1295  5649 1295  C 5645.64 1295  5643 1292.36  5643 1289  C 5643 1285.64  5645.64 1283  5649 1283  Z " fill-rule="nonzero" fill="#ffffff" stroke="none" />
  <path d="M 5649 1283.5  C 5652.08 1283.5  5654.5 1285.92  5654.5 1289  C 5654.5 1292.08  5652.08 1294.5  5649 1294.5  C 5645.92 1294.5  5643.5 1292.08  5643.5 1289  C 5643.5 1285.92  5645.92 1283.5  5649 1283.5  Z " stroke-width="1" stroke="#797979" fill="none" />
  <path d="M 5649 1292  C 5647.32 1292  5646 1290.68  5646 1289  C 5646 1287.32  5647.32 1286  5649 1286  C 5650.68 1286  5652 1287.32  5652 1289  C 5652 1290.68  5650.68 1292  5649 1292  " fill-rule="nonzero" fill="#797979" stroke="none" />
</svg>