<?xml version="1.0" encoding="utf-8"?>
<svg version="1.1" xmlns:xlink="http://www.w3.org/1999/xlink" width="12px" height="12px" viewBox="5753 1283  12 12" xmlns="http://www.w3.org/2000/svg">
  <path d="M 5759 1283  C 5762.36 1283  5765 1285.64  5765 1289  C 5765 1292.36  5762.36 1295  5759 1295  C 5755.64 1295  5753 1292.36  5753 1289  C 5753 1285.64  5755.64 1283  5759 1283  Z " fill-rule="nonzero" fill="#ffffff" stroke="none" />
  <path d="M 5759 1283.5  C 5762.08 1283.5  5764.5 1285.92  5764.5 1289  C 5764.5 1292.08  5762.08 1294.5  5759 1294.5  C 5755.92 1294.5  5753.5 1292.08  5753.5 1289  C 5753.5 1285.92  5755.92 1283.5  5759 1283.5  Z " stroke-width="1" stroke="#797979" fill="none" />
  <path d="M 5759 1292  C 5757.32 1292  5756 1290.68  5756 1289  C 5756 1287.32  5757.32 1286  5759 1286  C 5760.68 1286  5762 1287.32  5762 1289  C 5762 1290.68  5760.68 1292  5759 1292  " fill-rule="nonzero" fill="#797979" stroke="none" />
</svg>