<?xml version="1.0" encoding="utf-8"?>
<svg version="1.1" xmlns:xlink="http://www.w3.org/1999/xlink" width="12px" height="12px" viewBox="5651 1941  12 12" xmlns="http://www.w3.org/2000/svg">
  <path d="M 5657 1941  C 5660.36 1941  5663 1943.64  5663 1947  C 5663 1950.36  5660.36 1953  5657 1953  C 5653.64 1953  5651 1950.36  5651 1947  C 5651 1943.64  5653.64 1941  5657 1941  Z " fill-rule="nonzero" fill="#f0f0f0" stroke="none" />
  <path d="M 5657 1941.5  C 5660.08 1941.5  5662.5 1943.92  5662.5 1947  C 5662.5 1950.08  5660.08 1952.5  5657 1952.5  C 5653.92 1952.5  5651.5 1950.08  5651.5 1947  C 5651.5 1943.92  5653.92 1941.5  5657 1941.5  Z " stroke-width="1" stroke="#797979" fill="none" />
  <path d="M 5657 1950  C 5655.32 1950  5654 1948.68  5654 1947  C 5654 1945.32  5655.32 1944  5657 1944  C 5658.68 1944  5660 1945.32  5660 1947  C 5660 1948.68  5658.68 1950  5657 1950  " fill-rule="nonzero" fill="#797979" stroke="none" />
</svg>