<?xml version="1.0" encoding="utf-8"?>
<svg version="1.1" xmlns:xlink="http://www.w3.org/1999/xlink" width="12px" height="12px" viewBox="5761 1941  12 12" xmlns="http://www.w3.org/2000/svg">
  <path d="M 5767 1941  C 5770.36 1941  5773 1943.64  5773 1947  C 5773 1950.36  5770.36 1953  5767 1953  C 5763.64 1953  5761 1950.36  5761 1947  C 5761 1943.64  5763.64 1941  5767 1941  Z " fill-rule="nonzero" fill="#ffffff" stroke="none" />
  <path d="M 5767 1941.5  C 5770.08 1941.5  5772.5 1943.92  5772.5 1947  C 5772.5 1950.08  5770.08 1952.5  5767 1952.5  C 5763.92 1952.5  5761.5 1950.08  5761.5 1947  C 5761.5 1943.92  5763.92 1941.5  5767 1941.5  Z " stroke-width="1" stroke="#797979" fill="none" />
  <path d="M 5767 1950  C 5765.32 1950  5764 1948.68  5764 1947  C 5764 1945.32  5765.32 1944  5767 1944  C 5768.68 1944  5770 1945.32  5770 1947  C 5770 1948.68  5768.68 1950  5767 1950  " fill-rule="nonzero" fill="#797979" stroke="none" />
</svg>