<?xml version="1.0" encoding="utf-8"?>
<svg version="1.1" xmlns:xlink="http://www.w3.org/1999/xlink" width="12px" height="12px" viewBox="5654 2378  12 12" xmlns="http://www.w3.org/2000/svg">
  <path d="M 5660 2378  C 5663.36 2378  5666 2380.64  5666 2384  C 5666 2387.36  5663.36 2390  5660 2390  C 5656.64 2390  5654 2387.36  5654 2384  C 5654 2380.64  5656.64 2378  5660 2378  Z " fill-rule="nonzero" fill="#f0f0f0" stroke="none" />
  <path d="M 5660 2378.5  C 5663.08 2378.5  5665.5 2380.92  5665.5 2384  C 5665.5 2387.08  5663.08 2389.5  5660 2389.5  C 5656.92 2389.5  5654.5 2387.08  5654.5 2384  C 5654.5 2380.92  5656.92 2378.5  5660 2378.5  Z " stroke-width="1" stroke="#797979" fill="none" />
  <path d="M 5660 2387  C 5658.32 2387  5657 2385.68  5657 2384  C 5657 2382.32  5658.32 2381  5660 2381  C 5661.68 2381  5663 2382.32  5663 2384  C 5663 2385.68  5661.68 2387  5660 2387  " fill-rule="nonzero" fill="#797979" stroke="none" />
</svg>