<?xml version="1.0" encoding="utf-8"?>
<svg version="1.1" xmlns:xlink="http://www.w3.org/1999/xlink" width="12px" height="12px" viewBox="5654 2452  12 12" xmlns="http://www.w3.org/2000/svg">
  <path d="M 5660 2452  C 5663.36 2452  5666 2454.64  5666 2458  C 5666 2461.36  5663.36 2464  5660 2464  C 5656.64 2464  5654 2461.36  5654 2458  C 5654 2454.64  5656.64 2452  5660 2452  Z " fill-rule="nonzero" fill="#f0f0f0" stroke="none" />
  <path d="M 5660 2452.5  C 5663.08 2452.5  5665.5 2454.92  5665.5 2458  C 5665.5 2461.08  5663.08 2463.5  5660 2463.5  C 5656.92 2463.5  5654.5 2461.08  5654.5 2458  C 5654.5 2454.92  5656.92 2452.5  5660 2452.5  Z " stroke-width="1" stroke="#797979" fill="none" />
  <path d="M 5660 2461  C 5658.32 2461  5657 2459.68  5657 2458  C 5657 2456.32  5658.32 2455  5660 2455  C 5661.68 2455  5663 2456.32  5663 2458  C 5663 2459.68  5661.68 2461  5660 2461  " fill-rule="nonzero" fill="#797979" stroke="none" />
</svg>