<?xml version="1.0" encoding="utf-8"?>
<svg version="1.1" xmlns:xlink="http://www.w3.org/1999/xlink" width="12px" height="12px" viewBox="5764 2378  12 12" xmlns="http://www.w3.org/2000/svg">
  <path d="M 5770 2378  C 5773.36 2378  5776 2380.64  5776 2384  C 5776 2387.36  5773.36 2390  5770 2390  C 5766.64 2390  5764 2387.36  5764 2384  C 5764 2380.64  5766.64 2378  5770 2378  Z " fill-rule="nonzero" fill="#ffffff" stroke="none" />
  <path d="M 5770 2378.5  C 5773.08 2378.5  5775.5 2380.92  5775.5 2384  C 5775.5 2387.08  5773.08 2389.5  5770 2389.5  C 5766.92 2389.5  5764.5 2387.08  5764.5 2384  C 5764.5 2380.92  5766.92 2378.5  5770 2378.5  Z " stroke-width="1" stroke="#797979" fill="none" />
  <path d="M 5770 2387  C 5768.32 2387  5767 2385.68  5767 2384  C 5767 2382.32  5768.32 2381  5770 2381  C 5771.68 2381  5773 2382.32  5773 2384  C 5773 2385.68  5771.68 2387  5770 2387  " fill-rule="nonzero" fill="#797979" stroke="none" />
</svg>