<?xml version="1.0" encoding="utf-8"?>
<svg version="1.1" xmlns:xlink="http://www.w3.org/1999/xlink" width="12px" height="12px" viewBox="6898 2118  12 12" xmlns="http://www.w3.org/2000/svg">
  <path d="M 6904 2118  C 6907.36 2118  6910 2120.64  6910 2124  C 6910 2127.36  6907.36 2130  6904 2130  C 6900.64 2130  6898 2127.36  6898 2124  C 6898 2120.64  6900.64 2118  6904 2118  Z " fill-rule="nonzero" fill="#ffffff" stroke="none" />
  <path d="M 6904 2118.5  C 6907.08 2118.5  6909.5 2120.92  6909.5 2124  C 6909.5 2127.08  6907.08 2129.5  6904 2129.5  C 6900.92 2129.5  6898.5 2127.08  6898.5 2124  C 6898.5 2120.92  6900.92 2118.5  6904 2118.5  Z " stroke-width="1" stroke="#797979" fill="none" />
  <path d="M 6904 2127  C 6902.32 2127  6901 2125.68  6901 2124  C 6901 2122.32  6902.32 2121  6904 2121  C 6905.68 2121  6907 2122.32  6907 2124  C 6907 2125.68  6905.68 2127  6904 2127  " fill-rule="nonzero" fill="#797979" stroke="none" />
</svg>