<?xml version="1.0" encoding="utf-8"?>
<svg version="1.1" xmlns:xlink="http://www.w3.org/1999/xlink" width="12px" height="12px" viewBox="7118 2118  12 12" xmlns="http://www.w3.org/2000/svg">
  <path d="M 7124 2118  C 7127.36 2118  7130 2120.64  7130 2124  C 7130 2127.36  7127.36 2130  7124 2130  C 7120.64 2130  7118 2127.36  7118 2124  C 7118 2120.64  7120.64 2118  7124 2118  Z " fill-rule="nonzero" fill="#f0f0f0" stroke="none" />
  <path d="M 7124 2118.5  C 7127.08 2118.5  7129.5 2120.92  7129.5 2124  C 7129.5 2127.08  7127.08 2129.5  7124 2129.5  C 7120.92 2129.5  7118.5 2127.08  7118.5 2124  C 7118.5 2120.92  7120.92 2118.5  7124 2118.5  Z " stroke-width="1" stroke="#797979" fill="none" />
  <path d="M 7124 2127  C 7122.32 2127  7121 2125.68  7121 2124  C 7121 2122.32  7122.32 2121  7124 2121  C 7125.68 2121  7127 2122.32  7127 2124  C 7127 2125.68  7125.68 2127  7124 2127  " fill-rule="nonzero" fill="#797979" stroke="none" />
</svg>