<?xml version="1.0" encoding="utf-8"?>
<svg version="1.1" xmlns:xlink="http://www.w3.org/1999/xlink" width="12px" height="12px" viewBox="7008 2118  12 12" xmlns="http://www.w3.org/2000/svg">
  <path d="M 7014 2118  C 7017.36 2118  7020 2120.64  7020 2124  C 7020 2127.36  7017.36 2130  7014 2130  C 7010.64 2130  7008 2127.36  7008 2124  C 7008 2120.64  7010.64 2118  7014 2118  Z " fill-rule="nonzero" fill="#f0f0f0" stroke="none" />
  <path d="M 7014 2118.5  C 7017.08 2118.5  7019.5 2120.92  7019.5 2124  C 7019.5 2127.08  7017.08 2129.5  7014 2129.5  C 7010.92 2129.5  7008.5 2127.08  7008.5 2124  C 7008.5 2120.92  7010.92 2118.5  7014 2118.5  Z " stroke-width="1" stroke="#797979" fill="none" />
  <path d="M 7014 2127  C 7012.32 2127  7011 2125.68  7011 2124  C 7011 2122.32  7012.32 2121  7014 2121  C 7015.68 2121  7017 2122.32  7017 2124  C 7017 2125.68  7015.68 2127  7014 2127  " fill-rule="nonzero" fill="#797979" stroke="none" />
</svg>