<?xml version="1.0" encoding="utf-8"?>
<svg version="1.1" xmlns:xlink="http://www.w3.org/1999/xlink" width="12px" height="12px" viewBox="6365 1134  12 12" xmlns="http://www.w3.org/2000/svg">
  <path d="M 6371 1134  C 6374.36 1134  6377 1136.64  6377 1140  C 6377 1143.36  6374.36 1146  6371 1146  C 6367.64 1146  6365 1143.36  6365 1140  C 6365 1136.64  6367.64 1134  6371 1134  Z " fill-rule="nonzero" fill="#ffffff" stroke="none" />
  <path d="M 6371 1134.5  C 6374.08 1134.5  6376.5 1136.92  6376.5 1140  C 6376.5 1143.08  6374.08 1145.5  6371 1145.5  C 6367.92 1145.5  6365.5 1143.08  6365.5 1140  C 6365.5 1136.92  6367.92 1134.5  6371 1134.5  Z " stroke-width="1" stroke="#797979" fill="none" />
  <path d="M 6371 1143  C 6369.32 1143  6368 1141.68  6368 1140  C 6368 1138.32  6369.32 1137  6371 1137  C 6372.68 1137  6374 1138.32  6374 1140  C 6374 1141.68  6372.68 1143  6371 1143  " fill-rule="nonzero" fill="#797979" stroke="none" />
</svg>