<?xml version="1.0" encoding="utf-8"?>
<svg version="1.1" xmlns:xlink="http://www.w3.org/1999/xlink" width="12px" height="12px" viewBox="4531 4118  12 12" xmlns="http://www.w3.org/2000/svg">
  <path d="M 4537 4118  C 4540.36 4118  4543 4120.64  4543 4124  C 4543 4127.36  4540.36 4130  4537 4130  C 4533.64 4130  4531 4127.36  4531 4124  C 4531 4120.64  4533.64 4118  4537 4118  Z " fill-rule="nonzero" fill="#ffffff" stroke="none" />
  <path d="M 4537 4118.5  C 4540.08 4118.5  4542.5 4120.92  4542.5 4124  C 4542.5 4127.08  4540.08 4129.5  4537 4129.5  C 4533.92 4129.5  4531.5 4127.08  4531.5 4124  C 4531.5 4120.92  4533.92 4118.5  4537 4118.5  Z " stroke-width="1" stroke="#797979" fill="none" />
  <path d="M 4537 4127  C 4535.32 4127  4534 4125.68  4534 4124  C 4534 4122.32  4535.32 4121  4537 4121  C 4538.68 4121  4540 4122.32  4540 4124  C 4540 4125.68  4538.68 4127  4537 4127  " fill-rule="nonzero" fill="#797979" stroke="none" />
</svg>