<?xml version="1.0" encoding="utf-8"?>
<svg version="1.1" xmlns:xlink="http://www.w3.org/1999/xlink" width="12px" height="12px" viewBox="5185 4116  12 12" xmlns="http://www.w3.org/2000/svg">
  <path d="M 5191 4116  C 5194.36 4116  5197 4118.64  5197 4122  C 5197 4125.36  5194.36 4128  5191 4128  C 5187.64 4128  5185 4125.36  5185 4122  C 5185 4118.64  5187.64 4116  5191 4116  Z " fill-rule="nonzero" fill="#ffffff" stroke="none" />
  <path d="M 5191 4116.5  C 5194.08 4116.5  5196.5 4118.92  5196.5 4122  C 5196.5 4125.08  5194.08 4127.5  5191 4127.5  C 5187.92 4127.5  5185.5 4125.08  5185.5 4122  C 5185.5 4118.92  5187.92 4116.5  5191 4116.5  Z " stroke-width="1" stroke="#797979" fill="none" />
  <path d="M 5191 4125  C 5189.32 4125  5188 4123.68  5188 4122  C 5188 4120.32  5189.32 4119  5191 4119  C 5192.68 4119  5194 4120.32  5194 4122  C 5194 4123.68  5192.68 4125  5191 4125  " fill-rule="nonzero" fill="#797979" stroke="none" />
</svg>