<?xml version="1.0" encoding="utf-8"?>
<svg version="1.1" xmlns:xlink="http://www.w3.org/1999/xlink" width="12px" height="12px" viewBox="5295 4116  12 12" xmlns="http://www.w3.org/2000/svg">
  <path d="M 5301 4116  C 5304.36 4116  5307 4118.64  5307 4122  C 5307 4125.36  5304.36 4128  5301 4128  C 5297.64 4128  5295 4125.36  5295 4122  C 5295 4118.64  5297.64 4116  5301 4116  Z " fill-rule="nonzero" fill="#f0f0f0" stroke="none" />
  <path d="M 5301 4116.5  C 5304.08 4116.5  5306.5 4118.92  5306.5 4122  C 5306.5 4125.08  5304.08 4127.5  5301 4127.5  C 5297.92 4127.5  5295.5 4125.08  5295.5 4122  C 5295.5 4118.92  5297.92 4116.5  5301 4116.5  Z " stroke-width="1" stroke="#797979" fill="none" />
  <path d="M 5301 4125  C 5299.32 4125  5298 4123.68  5298 4122  C 5298 4120.32  5299.32 4119  5301 4119  C 5302.68 4119  5304 4120.32  5304 4122  C 5304 4123.68  5302.68 4125  5301 4125  " fill-rule="nonzero" fill="#797979" stroke="none" />
</svg>