<?xml version="1.0" encoding="utf-8"?>
<svg version="1.1" xmlns:xlink="http://www.w3.org/1999/xlink" width="12px" height="12px" viewBox="4641 4118  12 12" xmlns="http://www.w3.org/2000/svg">
  <path d="M 4647 4118  C 4650.36 4118  4653 4120.64  4653 4124  C 4653 4127.36  4650.36 4130  4647 4130  C 4643.64 4130  4641 4127.36  4641 4124  C 4641 4120.64  4643.64 4118  4647 4118  Z " fill-rule="nonzero" fill="#ffffff" stroke="none" />
  <path d="M 4647 4118.5  C 4650.08 4118.5  4652.5 4120.92  4652.5 4124  C 4652.5 4127.08  4650.08 4129.5  4647 4129.5  C 4643.92 4129.5  4641.5 4127.08  4641.5 4124  C 4641.5 4120.92  4643.92 4118.5  4647 4118.5  Z " stroke-width="1" stroke="#797979" fill="none" />
  <path d="M 4647 4127  C 4645.32 4127  4644 4125.68  4644 4124  C 4644 4122.32  4645.32 4121  4647 4121  C 4648.68 4121  4650 4122.32  4650 4124  C 4650 4125.68  4648.68 4127  4647 4127  " fill-rule="nonzero" fill="#797979" stroke="none" />
</svg>