<?xml version="1.0" encoding="utf-8"?>
<svg version="1.1" xmlns:xlink="http://www.w3.org/1999/xlink" width="12px" height="12px" viewBox="4751 4118  12 12" xmlns="http://www.w3.org/2000/svg">
  <path d="M 4757 4118  C 4760.36 4118  4763 4120.64  4763 4124  C 4763 4127.36  4760.36 4130  4757 4130  C 4753.64 4130  4751 4127.36  4751 4124  C 4751 4120.64  4753.64 4118  4757 4118  Z " fill-rule="nonzero" fill="#f0f0f0" stroke="none" />
  <path d="M 4757 4118.5  C 4760.08 4118.5  4762.5 4120.92  4762.5 4124  C 4762.5 4127.08  4760.08 4129.5  4757 4129.5  C 4753.92 4129.5  4751.5 4127.08  4751.5 4124  C 4751.5 4120.92  4753.92 4118.5  4757 4118.5  Z " stroke-width="1" stroke="#797979" fill="none" />
  <path d="M 4757 4127  C 4755.32 4127  4754 4125.68  4754 4124  C 4754 4122.32  4755.32 4121  4757 4121  C 4758.68 4121  4760 4122.32  4760 4124  C 4760 4125.68  4758.68 4127  4757 4127  " fill-rule="nonzero" fill="#797979" stroke="none" />
</svg>