<?xml version="1.0" encoding="utf-8"?>
<svg version="1.1" xmlns:xlink="http://www.w3.org/1999/xlink" width="12px" height="12px" viewBox="4106 4118  12 12" xmlns="http://www.w3.org/2000/svg">
  <path d="M 4112 4118  C 4115.36 4118  4118 4120.64  4118 4124  C 4118 4127.36  4115.36 4130  4112 4130  C 4108.64 4130  4106 4127.36  4106 4124  C 4106 4120.64  4108.64 4118  4112 4118  Z " fill-rule="nonzero" fill="#ffffff" stroke="none" />
  <path d="M 4112 4118.5  C 4115.08 4118.5  4117.5 4120.92  4117.5 4124  C 4117.5 4127.08  4115.08 4129.5  4112 4129.5  C 4108.92 4129.5  4106.5 4127.08  4106.5 4124  C 4106.5 4120.92  4108.92 4118.5  4112 4118.5  Z " stroke-width="1" stroke="#797979" fill="none" />
  <path d="M 4112 4127  C 4110.32 4127  4109 4125.68  4109 4124  C 4109 4122.32  4110.32 4121  4112 4121  C 4113.68 4121  4115 4122.32  4115 4124  C 4115 4125.68  4113.68 4127  4112 4127  " fill-rule="nonzero" fill="#797979" stroke="none" />
</svg>