<?xml version="1.0" encoding="utf-8"?>
<svg version="1.1" xmlns:xlink="http://www.w3.org/1999/xlink" width="12px" height="12px" viewBox="7883 2129  12 12" xmlns="http://www.w3.org/2000/svg">
  <path d="M 7889 2129  C 7892.36 2129  7895 2131.64  7895 2135  C 7895 2138.36  7892.36 2141  7889 2141  C 7885.64 2141  7883 2138.36  7883 2135  C 7883 2131.64  7885.64 2129  7889 2129  Z " fill-rule="nonzero" fill="#f0f0f0" stroke="none" />
  <path d="M 7889 2129.5  C 7892.08 2129.5  7894.5 2131.92  7894.5 2135  C 7894.5 2138.08  7892.08 2140.5  7889 2140.5  C 7885.92 2140.5  7883.5 2138.08  7883.5 2135  C 7883.5 2131.92  7885.92 2129.5  7889 2129.5  Z " stroke-width="1" stroke="#797979" fill="none" />
  <path d="M 7889 2138  C 7887.32 2138  7886 2136.68  7886 2135  C 7886 2133.32  7887.32 2132  7889 2132  C 7890.68 2132  7892 2133.32  7892 2135  C 7892 2136.68  7890.68 2138  7889 2138  " fill-rule="nonzero" fill="#797979" stroke="none" />
</svg>