<?xml version="1.0" encoding="utf-8"?>
<svg version="1.1" xmlns:xlink="http://www.w3.org/1999/xlink" width="12px" height="12px" viewBox="3886 4118  12 12" xmlns="http://www.w3.org/2000/svg">
  <path d="M 3892 4118  C 3895.36 4118  3898 4120.64  3898 4124  C 3898 4127.36  3895.36 4130  3892 4130  C 3888.64 4130  3886 4127.36  3886 4124  C 3886 4120.64  3888.64 4118  3892 4118  Z " fill-rule="nonzero" fill="#ffffff" stroke="none" />
  <path d="M 3892 4118.5  C 3895.08 4118.5  3897.5 4120.92  3897.5 4124  C 3897.5 4127.08  3895.08 4129.5  3892 4129.5  C 3888.92 4129.5  3886.5 4127.08  3886.5 4124  C 3886.5 4120.92  3888.92 4118.5  3892 4118.5  Z " stroke-width="1" stroke="#797979" fill="none" />
  <path d="M 3892 4127  C 3890.32 4127  3889 4125.68  3889 4124  C 3889 4122.32  3890.32 4121  3892 4121  C 3893.68 4121  3895 4122.32  3895 4124  C 3895 4125.68  3893.68 4127  3892 4127  " fill-rule="nonzero" fill="#797979" stroke="none" />
</svg>