<?xml version="1.0" encoding="utf-8"?>
<svg version="1.1" xmlns:xlink="http://www.w3.org/1999/xlink" width="12px" height="12px" viewBox="7663 2129  12 12" xmlns="http://www.w3.org/2000/svg">
  <path d="M 7669 2129  C 7672.36 2129  7675 2131.64  7675 2135  C 7675 2138.36  7672.36 2141  7669 2141  C 7665.64 2141  7663 2138.36  7663 2135  C 7663 2131.64  7665.64 2129  7669 2129  Z " fill-rule="nonzero" fill="#f0f0f0" stroke="none" />
  <path d="M 7669 2129.5  C 7672.08 2129.5  7674.5 2131.92  7674.5 2135  C 7674.5 2138.08  7672.08 2140.5  7669 2140.5  C 7665.92 2140.5  7663.5 2138.08  7663.5 2135  C 7663.5 2131.92  7665.92 2129.5  7669 2129.5  Z " stroke-width="1" stroke="#797979" fill="none" />
  <path d="M 7669 2138  C 7667.32 2138  7666 2136.68  7666 2135  C 7666 2133.32  7667.32 2132  7669 2132  C 7670.68 2132  7672 2133.32  7672 2135  C 7672 2136.68  7670.68 2138  7669 2138  " fill-rule="nonzero" fill="#797979" stroke="none" />
</svg>