<?xml version="1.0" encoding="utf-8"?>
<svg version="1.1" xmlns:xlink="http://www.w3.org/1999/xlink" width="12px" height="12px" viewBox="7225 1131  12 12" xmlns="http://www.w3.org/2000/svg">
  <path d="M 7231 1131  C 7234.36 1131  7237 1133.64  7237 1137  C 7237 1140.36  7234.36 1143  7231 1143  C 7227.64 1143  7225 1140.36  7225 1137  C 7225 1133.64  7227.64 1131  7231 1131  Z " fill-rule="nonzero" fill="#ffffff" stroke="none" />
  <path d="M 7231 1131.5  C 7234.08 1131.5  7236.5 1133.92  7236.5 1137  C 7236.5 1140.08  7234.08 1142.5  7231 1142.5  C 7227.92 1142.5  7225.5 1140.08  7225.5 1137  C 7225.5 1133.92  7227.92 1131.5  7231 1131.5  Z " stroke-width="1" stroke="#797979" fill="none" />
  <path d="M 7231 1140  C 7229.32 1140  7228 1138.68  7228 1137  C 7228 1135.32  7229.32 1134  7231 1134  C 7232.68 1134  7234 1135.32  7234 1137  C 7234 1138.68  7232.68 1140  7231 1140  " fill-rule="nonzero" fill="#797979" stroke="none" />
</svg>