<?xml version="1.0" encoding="utf-8"?>
<svg version="1.1" xmlns:xlink="http://www.w3.org/1999/xlink" width="303px" height="10px" preserveAspectRatio="xMinYMid meet" viewBox="4582.5 6176  303 8" xmlns="http://www.w3.org/2000/svg">
  <path d="M 4583 6180  L 4875.5 6180  A 5 5 0 0 1 4880.5 6185 L 4880.5 6489  A 5 5 0 0 1 4875.5 6494 L 4152.5 6494  A 5 5 0 0 1 4147.5 6489 L 4147.5 6471.75  A 4.75 4.75 0 0 0 4142.75 6467 L 4140 6467  " stroke-width="2" stroke="#999999" fill="none" />
  <path d="M 4145.10710678119 6471.29289321881  L 4140.81421356237 6467  L 4145.10710678119 6462.70710678119  L 4143.69289321881 6461.29289321881  L 4138.69289321881 6466.29289321881  L 4137.98578643763 6467  L 4138.69289321881 6467.70710678119  L 4143.69289321881 6472.70710678119  L 4145.10710678119 6471.29289321881  Z " fill-rule="nonzero" fill="#999999" stroke="none" />
</svg>