<?xml version="1.0" encoding="utf-8"?>
<svg version="1.1" xmlns:xlink="http://www.w3.org/1999/xlink" width="10px" height="389px" preserveAspectRatio="xMidYMin meet" viewBox="4596 5756  8 389" xmlns="http://www.w3.org/2000/svg">
  <defs>
    <mask fill="white" id="clip1154">
      <path d="M 4583 5966  L 4617 5966  L 4617 5994  L 4583 5994  Z M 4523 5758  L 4617 5758  L 4617 6160  L 4523 6160  Z " fill-rule="evenodd" />
    </mask>
  </defs>
  <path d="M 4583 5761  L 4595 5761  A 5 5 0 0 1 4600 5766 L 4600 6135  A 5 5 0 0 1 4595 6140 L 4538 6140  A 5 5 0 0 0 4533 6145 L 4533 6148  " stroke-width="2" stroke="#999999" fill="none" mask="url(#clip1154)" />
  <path d="M 4537.29289321881 6142.89289321881  L 4533 6147.18578643763  L 4528.70710678119 6142.89289321881  L 4527.29289321881 6144.30710678119  L 4532.29289321881 6149.30710678119  L 4533 6150.01421356237  L 4533.70710678119 6149.30710678119  L 4538.70710678119 6144.30710678119  L 4537.29289321881 6142.89289321881  Z " fill-rule="nonzero" fill="#999999" stroke="none" mask="url(#clip1154)" />
</svg>