<?xml version="1.0" encoding="utf-8"?>
<svg version="1.1" xmlns:xlink="http://www.w3.org/1999/xlink" width="303px" height="10px" preserveAspectRatio="xMinYMid meet" viewBox="4582.5 7758  303 8" xmlns="http://www.w3.org/2000/svg">
  <path d="M 4583 7762  L 4875.5 7762  A 5 5 0 0 1 4880.5 7767 L 4880.5 8071  A 5 5 0 0 1 4875.5 8076 L 4152.5 8076  A 5 5 0 0 1 4147.5 8071 L 4147.5 8053.75  A 4.75 4.75 0 0 0 4142.75 8049 L 4140 8049  " stroke-width="2" stroke="#999999" fill="none" />
  <path d="M 4145.10710678119 8053.29289321881  L 4140.81421356237 8049  L 4145.10710678119 8044.70710678119  L 4143.69289321881 8043.29289321881  L 4138.69289321881 8048.29289321881  L 4137.98578643763 8049  L 4138.69289321881 8049.70710678119  L 4143.69289321881 8054.70710678119  L 4145.10710678119 8053.29289321881  Z " fill-rule="nonzero" fill="#999999" stroke="none" />
</svg>