<?xml version="1.0" encoding="utf-8"?>
<svg version="1.1" xmlns:xlink="http://www.w3.org/1999/xlink" width="10px" height="17px" preserveAspectRatio="xMidYMin meet" viewBox="4529 7715  8 17" xmlns="http://www.w3.org/2000/svg">
  <defs>
    <mask fill="white" id="clip1202">
      <path d="M 4583 7548  L 4617 7548  L 4617 7576  L 4583 7576  Z M 4523 7340  L 4617 7340  L 4617 7742  L 4523 7742  Z " fill-rule="evenodd" />
    </mask>
  </defs>
  <path d="M 4583 7343  L 4595 7343  A 5 5 0 0 1 4600 7348 L 4600 7715  A 5 5 0 0 1 4595 7720 L 4538 7720  A 5 5 0 0 0 4533 7725 L 4533 7730  " stroke-width="2" stroke="#999999" fill="none" mask="url(#clip1202)" />
  <path d="M 4537.29289321881 7724.89289321881  L 4533 7729.18578643763  L 4528.70710678119 7724.89289321881  L 4527.29289321881 7726.30710678119  L 4532.29289321881 7731.30710678119  L 4533 7732.01421356237  L 4533.70710678119 7731.30710678119  L 4538.70710678119 7726.30710678119  L 4537.29289321881 7724.89289321881  Z " fill-rule="nonzero" fill="#999999" stroke="none" mask="url(#clip1202)" />
</svg>