<?xml version="1.0" encoding="utf-8"?>
<svg version="1.1" xmlns:xlink="http://www.w3.org/1999/xlink" width="10px" height="324px" preserveAspectRatio="xMidYMin meet" viewBox="6089.5 6068  8 324" xmlns="http://www.w3.org/2000/svg">
  <path d="M 5796 6073  L 6088.5 6073  A 5 5 0 0 1 6093.5 6078 L 6093.5 6382  A 5 5 0 0 1 6088.5 6387 L 5365.5 6387  A 5 5 0 0 1 5360.5 6382 L 5360.5 6364.75  A 4.75 4.75 0 0 0 5355.75 6360 L 5353 6360  " stroke-width="2" stroke="#999999" fill="none" />
  <path d="M 5358.10710678119 6364.29289321881  L 5353.81421356237 6360  L 5358.10710678119 6355.70710678119  L 5356.69289321881 6354.29289321881  L 5351.69289321881 6359.29289321881  L 5350.98578643763 6360  L 5351.69289321881 6360.70710678119  L 5356.69289321881 6365.70710678119  L 5358.10710678119 6364.29289321881  Z " fill-rule="nonzero" fill="#999999" stroke="none" />
</svg>