<?xml version="1.0" encoding="utf-8"?>
<svg version="1.1" xmlns:xlink="http://www.w3.org/1999/xlink" width="20px" height="20px" preserveAspectRatio="xMinYMid meet" viewBox="5736 6032  20 18" xmlns="http://www.w3.org/2000/svg">
  <defs>
    <mask fill="white" id="clip1241">
      <path d="M 5793 5913  L 5827 5913  L 5827 5941  L 5793 5941  Z M 5736 5758  L 5827 5758  L 5827 6053  L 5736 6053  Z " fill-rule="evenodd" />
    </mask>
  </defs>
  <path d="M 5796 5761  L 5805 5761  A 5 5 0 0 1 5810 5766 L 5810 6025  A 5 5 0 0 1 5805 6030 L 5751 6030  A 5 5 0 0 0 5746 6035 L 5746 6041  " stroke-width="2" stroke="#999999" fill="none" mask="url(#clip1241)" />
  <path d="M 5750.29289321881 6035.89289321881  L 5746 6040.18578643763  L 5741.70710678119 6035.89289321881  L 5740.29289321881 6037.30710678119  L 5745.29289321881 6042.30710678119  L 5746 6043.01421356237  L 5746.70710678119 6042.30710678119  L 5751.70710678119 6037.30710678119  L 5750.29289321881 6035.89289321881  Z " fill-rule="nonzero" fill="#999999" stroke="none" mask="url(#clip1241)" />
</svg>