<?xml version="1.0" encoding="utf-8"?>
<svg version="1.1" xmlns:xlink="http://www.w3.org/1999/xlink" width="12px" height="12px" viewBox="410 1238  12 12" xmlns="http://www.w3.org/2000/svg">
  <path d="M 416 1238  C 419.36 1238  422 1240.64  422 1244  C 422 1247.36  419.36 1250  416 1250  C 412.64 1250  410 1247.36  410 1244  C 410 1240.64  412.64 1238  416 1238  Z " fill-rule="nonzero" fill="#f0f0f0" stroke="none" />
  <path d="M 416 1238.5  C 419.08 1238.5  421.5 1240.92  421.5 1244  C 421.5 1247.08  419.08 1249.5  416 1249.5  C 412.92 1249.5  410.5 1247.08  410.5 1244  C 410.5 1240.92  412.92 1238.5  416 1238.5  Z " stroke-width="1" stroke="#797979" fill="none" />
  <path d="M 416 1247  C 414.32 1247  413 1245.68  413 1244  C 413 1242.32  414.32 1241  416 1241  C 417.68 1241  419 1242.32  419 1244  C 419 1245.68  417.68 1247  416 1247  " fill-rule="nonzero" fill="#797979" stroke="none" />
</svg>