<?xml version="1.0" encoding="utf-8"?>
<svg version="1.1" xmlns:xlink="http://www.w3.org/1999/xlink" width="12px" height="12px" viewBox="542 1238  12 12" xmlns="http://www.w3.org/2000/svg">
  <path d="M 548 1238  C 551.36 1238  554 1240.64  554 1244  C 554 1247.36  551.36 1250  548 1250  C 544.64 1250  542 1247.36  542 1244  C 542 1240.64  544.64 1238  548 1238  Z " fill-rule="nonzero" fill="#f0f0f0" stroke="none" />
  <path d="M 548 1238.5  C 551.08 1238.5  553.5 1240.92  553.5 1244  C 553.5 1247.08  551.08 1249.5  548 1249.5  C 544.92 1249.5  542.5 1247.08  542.5 1244  C 542.5 1240.92  544.92 1238.5  548 1238.5  Z " stroke-width="1" stroke="#797979" fill="none" />
  <path d="M 548 1247  C 546.32 1247  545 1245.68  545 1244  C 545 1242.32  546.32 1241  548 1241  C 549.68 1241  551 1242.32  551 1244  C 551 1245.68  549.68 1247  548 1247  " fill-rule="nonzero" fill="#797979" stroke="none" />
</svg>