<?xml version="1.0" encoding="utf-8"?>
<svg version="1.1" xmlns:xlink="http://www.w3.org/1999/xlink" width="12px" height="12px" viewBox="2321 1220  12 12" xmlns="http://www.w3.org/2000/svg">
  <path d="M 2327 1220  C 2330.36 1220  2333 1222.64  2333 1226  C 2333 1229.36  2330.36 1232  2327 1232  C 2323.64 1232  2321 1229.36  2321 1226  C 2321 1222.64  2323.64 1220  2327 1220  Z " fill-rule="nonzero" fill="#ffffff" stroke="none" />
  <path d="M 2327 1220.5  C 2330.08 1220.5  2332.5 1222.92  2332.5 1226  C 2332.5 1229.08  2330.08 1231.5  2327 1231.5  C 2323.92 1231.5  2321.5 1229.08  2321.5 1226  C 2321.5 1222.92  2323.92 1220.5  2327 1220.5  Z " stroke-width="1" stroke="#797979" fill="none" />
  <path d="M 2327 1229  C 2325.32 1229  2324 1227.68  2324 1226  C 2324 1224.32  2325.32 1223  2327 1223  C 2328.68 1223  2330 1224.32  2330 1226  C 2330 1227.68  2328.68 1229  2327 1229  " fill-rule="nonzero" fill="#797979" stroke="none" />
</svg>