<?xml version="1.0" encoding="utf-8"?>
<svg version="1.1" xmlns:xlink="http://www.w3.org/1999/xlink" width="12px" height="12px" viewBox="2122 2627  12 12" xmlns="http://www.w3.org/2000/svg">
  <path d="M 2128 2627  C 2131.36 2627  2134 2629.64  2134 2633  C 2134 2636.36  2131.36 2639  2128 2639  C 2124.64 2639  2122 2636.36  2122 2633  C 2122 2629.64  2124.64 2627  2128 2627  Z " fill-rule="nonzero" fill="#f0f0f0" stroke="none" />
  <path d="M 2128 2627.5  C 2131.08 2627.5  2133.5 2629.92  2133.5 2633  C 2133.5 2636.08  2131.08 2638.5  2128 2638.5  C 2124.92 2638.5  2122.5 2636.08  2122.5 2633  C 2122.5 2629.92  2124.92 2627.5  2128 2627.5  Z " stroke-width="1" stroke="#797979" fill="none" />
  <path d="M 2128 2636  C 2126.32 2636  2125 2634.68  2125 2633  C 2125 2631.32  2126.32 2630  2128 2630  C 2129.68 2630  2131 2631.32  2131 2633  C 2131 2634.68  2129.68 2636  2128 2636  " fill-rule="nonzero" fill="#797979" stroke="none" />
</svg>