<?xml version="1.0" encoding="utf-8"?>
<svg version="1.1" xmlns:xlink="http://www.w3.org/1999/xlink" width="12px" height="12px" viewBox="2189 2067  12 12" xmlns="http://www.w3.org/2000/svg">
  <path d="M 2195 2067  C 2198.36 2067  2201 2069.64  2201 2073  C 2201 2076.36  2198.36 2079  2195 2079  C 2191.64 2079  2189 2076.36  2189 2073  C 2189 2069.64  2191.64 2067  2195 2067  Z " fill-rule="nonzero" fill="#ffffff" stroke="none" />
  <path d="M 2195 2067.5  C 2198.08 2067.5  2200.5 2069.92  2200.5 2073  C 2200.5 2076.08  2198.08 2078.5  2195 2078.5  C 2191.92 2078.5  2189.5 2076.08  2189.5 2073  C 2189.5 2069.92  2191.92 2067.5  2195 2067.5  Z " stroke-width="1" stroke="#797979" fill="none" />
  <path d="M 2195 2076  C 2193.32 2076  2192 2074.68  2192 2073  C 2192 2071.32  2193.32 2070  2195 2070  C 2196.68 2070  2198 2071.32  2198 2073  C 2198 2074.68  2196.68 2076  2195 2076  " fill-rule="nonzero" fill="#797979" stroke="none" />
</svg>