<?xml version="1.0" encoding="utf-8"?>
<svg version="1.1" xmlns:xlink="http://www.w3.org/1999/xlink" width="12px" height="12px" viewBox="2189 3096  12 12" xmlns="http://www.w3.org/2000/svg">
  <path d="M 2195 3096  C 2198.36 3096  2201 3098.64  2201 3102  C 2201 3105.36  2198.36 3108  2195 3108  C 2191.64 3108  2189 3105.36  2189 3102  C 2189 3098.64  2191.64 3096  2195 3096  Z " fill-rule="nonzero" fill="#f0f0f0" stroke="none" />
  <path d="M 2195 3096.5  C 2198.08 3096.5  2200.5 3098.92  2200.5 3102  C 2200.5 3105.08  2198.08 3107.5  2195 3107.5  C 2191.92 3107.5  2189.5 3105.08  2189.5 3102  C 2189.5 3098.92  2191.92 3096.5  2195 3096.5  Z " stroke-width="1" stroke="#797979" fill="none" />
  <path d="M 2195 3105  C 2193.32 3105  2192 3103.68  2192 3102  C 2192 3100.32  2193.32 3099  2195 3099  C 2196.68 3099  2198 3100.32  2198 3102  C 2198 3103.68  2196.68 3105  2195 3105  " fill-rule="nonzero" fill="#797979" stroke="none" />
</svg>