<?xml version="1.0" encoding="utf-8"?>
<svg version="1.1" xmlns:xlink="http://www.w3.org/1999/xlink" width="12px" height="12px" viewBox="2089 2067  12 12" xmlns="http://www.w3.org/2000/svg">
  <path d="M 2095 2067  C 2098.36 2067  2101 2069.64  2101 2073  C 2101 2076.36  2098.36 2079  2095 2079  C 2091.64 2079  2089 2076.36  2089 2073  C 2089 2069.64  2091.64 2067  2095 2067  Z " fill-rule="nonzero" fill="#ffffff" stroke="none" />
  <path d="M 2095 2067.5  C 2098.08 2067.5  2100.5 2069.92  2100.5 2073  C 2100.5 2076.08  2098.08 2078.5  2095 2078.5  C 2091.92 2078.5  2089.5 2076.08  2089.5 2073  C 2089.5 2069.92  2091.92 2067.5  2095 2067.5  Z " stroke-width="1" stroke="#797979" fill="none" />
  <path d="M 2095 2076  C 2093.32 2076  2092 2074.68  2092 2073  C 2092 2071.32  2093.32 2070  2095 2070  C 2096.68 2070  2098 2071.32  2098 2073  C 2098 2074.68  2096.68 2076  2095 2076  " fill-rule="nonzero" fill="#797979" stroke="none" />
</svg>