<?xml version="1.0" encoding="utf-8"?>
<svg version="1.1" xmlns:xlink="http://www.w3.org/1999/xlink" width="12px" height="12px" viewBox="2089 3096  12 12" xmlns="http://www.w3.org/2000/svg">
  <path d="M 2095 3096  C 2098.36 3096  2101 3098.64  2101 3102  C 2101 3105.36  2098.36 3108  2095 3108  C 2091.64 3108  2089 3105.36  2089 3102  C 2089 3098.64  2091.64 3096  2095 3096  Z " fill-rule="nonzero" fill="#ffffff" stroke="none" />
  <path d="M 2095 3096.5  C 2098.08 3096.5  2100.5 3098.92  2100.5 3102  C 2100.5 3105.08  2098.08 3107.5  2095 3107.5  C 2091.92 3107.5  2089.5 3105.08  2089.5 3102  C 2089.5 3098.92  2091.92 3096.5  2095 3096.5  Z " stroke-width="1" stroke="#797979" fill="none" />
  <path d="M 2095 3105  C 2093.32 3105  2092 3103.68  2092 3102  C 2092 3100.32  2093.32 3099  2095 3099  C 2096.68 3099  2098 3100.32  2098 3102  C 2098 3103.68  2096.68 3105  2095 3105  " fill-rule="nonzero" fill="#797979" stroke="none" />
</svg>