<?xml version="1.0" encoding="utf-8"?>
<svg version="1.1" xmlns:xlink="http://www.w3.org/1999/xlink" width="12px" height="12px" viewBox="2839 2626  12 12" xmlns="http://www.w3.org/2000/svg">
  <path d="M 2845 2626  C 2848.36 2626  2851 2628.64  2851 2632  C 2851 2635.36  2848.36 2638  2845 2638  C 2841.64 2638  2839 2635.36  2839 2632  C 2839 2628.64  2841.64 2626  2845 2626  Z " fill-rule="nonzero" fill="#f0f0f0" stroke="none" />
  <path d="M 2845 2626.5  C 2848.08 2626.5  2850.5 2628.92  2850.5 2632  C 2850.5 2635.08  2848.08 2637.5  2845 2637.5  C 2841.92 2637.5  2839.5 2635.08  2839.5 2632  C 2839.5 2628.92  2841.92 2626.5  2845 2626.5  Z " stroke-width="1" stroke="#797979" fill="none" />
  <path d="M 2845 2635  C 2843.32 2635  2842 2633.68  2842 2632  C 2842 2630.32  2843.32 2629  2845 2629  C 2846.68 2629  2848 2630.32  2848 2632  C 2848 2633.68  2846.68 2635  2845 2635  " fill-rule="nonzero" fill="#797979" stroke="none" />
</svg>