<?xml version="1.0" encoding="utf-8"?>
<svg version="1.1" xmlns:xlink="http://www.w3.org/1999/xlink" width="12px" height="12px" viewBox="2814 2027  12 12" xmlns="http://www.w3.org/2000/svg">
  <path d="M 2820 2027  C 2823.36 2027  2826 2029.64  2826 2033  C 2826 2036.36  2823.36 2039  2820 2039  C 2816.64 2039  2814 2036.36  2814 2033  C 2814 2029.64  2816.64 2027  2820 2027  Z " fill-rule="nonzero" fill="#f0f0f0" stroke="none" />
  <path d="M 2820 2027.5  C 2823.08 2027.5  2825.5 2029.92  2825.5 2033  C 2825.5 2036.08  2823.08 2038.5  2820 2038.5  C 2816.92 2038.5  2814.5 2036.08  2814.5 2033  C 2814.5 2029.92  2816.92 2027.5  2820 2027.5  Z " stroke-width="1" stroke="#797979" fill="none" />
  <path d="M 2820 2036  C 2818.32 2036  2817 2034.68  2817 2033  C 2817 2031.32  2818.32 2030  2820 2030  C 2821.68 2030  2823 2031.32  2823 2033  C 2823 2034.68  2821.68 2036  2820 2036  " fill-rule="nonzero" fill="#797979" stroke="none" />
</svg>