<?xml version="1.0" encoding="utf-8"?>
<svg version="1.1" xmlns:xlink="http://www.w3.org/1999/xlink" width="12px" height="12px" viewBox="2842 1568  12 12" xmlns="http://www.w3.org/2000/svg">
  <path d="M 2848 1568  C 2851.36 1568  2854 1570.64  2854 1574  C 2854 1577.36  2851.36 1580  2848 1580  C 2844.64 1580  2842 1577.36  2842 1574  C 2842 1570.64  2844.64 1568  2848 1568  Z " fill-rule="nonzero" fill="#ffffff" stroke="none" />
  <path d="M 2848 1568.5  C 2851.08 1568.5  2853.5 1570.92  2853.5 1574  C 2853.5 1577.08  2851.08 1579.5  2848 1579.5  C 2844.92 1579.5  2842.5 1577.08  2842.5 1574  C 2842.5 1570.92  2844.92 1568.5  2848 1568.5  Z " stroke-width="1" stroke="#797979" fill="none" />
  <path d="M 2848 1577  C 2846.32 1577  2845 1575.68  2845 1574  C 2845 1572.32  2846.32 1571  2848 1571  C 2849.68 1571  2851 1572.32  2851 1574  C 2851 1575.68  2849.68 1577  2848 1577  " fill-rule="nonzero" fill="#797979" stroke="none" />
</svg>