<?xml version="1.0" encoding="utf-8"?>
<svg version="1.1" xmlns:xlink="http://www.w3.org/1999/xlink" width="12px" height="12px" viewBox="2810 3129  12 12" xmlns="http://www.w3.org/2000/svg">
  <path d="M 2816 3129  C 2819.36 3129  2822 3131.64  2822 3135  C 2822 3138.36  2819.36 3141  2816 3141  C 2812.64 3141  2810 3138.36  2810 3135  C 2810 3131.64  2812.64 3129  2816 3129  Z " fill-rule="nonzero" fill="#f0f0f0" stroke="none" />
  <path d="M 2816 3129.5  C 2819.08 3129.5  2821.5 3131.92  2821.5 3135  C 2821.5 3138.08  2819.08 3140.5  2816 3140.5  C 2812.92 3140.5  2810.5 3138.08  2810.5 3135  C 2810.5 3131.92  2812.92 3129.5  2816 3129.5  Z " stroke-width="1" stroke="#797979" fill="none" />
  <path d="M 2816 3138  C 2814.32 3138  2813 3136.68  2813 3135  C 2813 3133.32  2814.32 3132  2816 3132  C 2817.68 3132  2819 3133.32  2819 3135  C 2819 3136.68  2817.68 3138  2816 3138  " fill-rule="nonzero" fill="#797979" stroke="none" />
</svg>