<?xml version="1.0" encoding="utf-8"?>
<svg version="1.1" xmlns:xlink="http://www.w3.org/1999/xlink" width="12px" height="12px" viewBox="2910 3129  12 12" xmlns="http://www.w3.org/2000/svg">
  <path d="M 2916 3129  C 2919.36 3129  2922 3131.64  2922 3135  C 2922 3138.36  2919.36 3141  2916 3141  C 2912.64 3141  2910 3138.36  2910 3135  C 2910 3131.64  2912.64 3129  2916 3129  Z " fill-rule="nonzero" fill="#f0f0f0" stroke="none" />
  <path d="M 2916 3129.5  C 2919.08 3129.5  2921.5 3131.92  2921.5 3135  C 2921.5 3138.08  2919.08 3140.5  2916 3140.5  C 2912.92 3140.5  2910.5 3138.08  2910.5 3135  C 2910.5 3131.92  2912.92 3129.5  2916 3129.5  Z " stroke-width="1" stroke="#797979" fill="none" />
  <path d="M 2916 3138  C 2914.32 3138  2913 3136.68  2913 3135  C 2913 3133.32  2914.32 3132  2916 3132  C 2917.68 3132  2919 3133.32  2919 3135  C 2919 3136.68  2917.68 3138  2916 3138  " fill-rule="nonzero" fill="#797979" stroke="none" />
</svg>