<?xml version="1.0" encoding="utf-8"?>
<svg version="1.1" xmlns:xlink="http://www.w3.org/1999/xlink" width="12px" height="12px" viewBox="406 2092  12 12" xmlns="http://www.w3.org/2000/svg">
  <path d="M 412 2092  C 415.36 2092  418 2094.64  418 2098  C 418 2101.36  415.36 2104  412 2104  C 408.64 2104  406 2101.36  406 2098  C 406 2094.64  408.64 2092  412 2092  Z " fill-rule="nonzero" fill="#ffffff" stroke="none" />
  <path d="M 412 2092.5  C 415.08 2092.5  417.5 2094.92  417.5 2098  C 417.5 2101.08  415.08 2103.5  412 2103.5  C 408.92 2103.5  406.5 2101.08  406.5 2098  C 406.5 2094.92  408.92 2092.5  412 2092.5  Z " stroke-width="1" stroke="#797979" fill="none" />
  <path d="M 412 2101  C 410.32 2101  409 2099.68  409 2098  C 409 2096.32  410.32 2095  412 2095  C 413.68 2095  415 2096.32  415 2098  C 415 2099.68  413.68 2101  412 2101  " fill-rule="nonzero" fill="#797979" stroke="none" />
</svg>