<?xml version="1.0" encoding="utf-8"?>
<svg version="1.1" xmlns:xlink="http://www.w3.org/1999/xlink" width="12px" height="12px" viewBox="2216 4914  12 12" xmlns="http://www.w3.org/2000/svg">
  <path d="M 2222 4914  C 2225.36 4914  2228 4916.64  2228 4920  C 2228 4923.36  2225.36 4926  2222 4926  C 2218.64 4926  2216 4923.36  2216 4920  C 2216 4916.64  2218.64 4914  2222 4914  Z " fill-rule="nonzero" fill="#ffffff" stroke="none" />
  <path d="M 2222 4914.5  C 2225.08 4914.5  2227.5 4916.92  2227.5 4920  C 2227.5 4923.08  2225.08 4925.5  2222 4925.5  C 2218.92 4925.5  2216.5 4923.08  2216.5 4920  C 2216.5 4916.92  2218.92 4914.5  2222 4914.5  Z " stroke-width="1" stroke="#797979" fill="none" />
  <path d="M 2222 4923  C 2220.32 4923  2219 4921.68  2219 4920  C 2219 4918.32  2220.32 4917  2222 4917  C 2223.68 4917  2225 4918.32  2225 4920  C 2225 4921.68  2223.68 4923  2222 4923  " fill-rule="nonzero" fill="#797979" stroke="none" />
</svg>