<?xml version="1.0" encoding="utf-8"?>
<svg version="1.1" xmlns:xlink="http://www.w3.org/1999/xlink" width="12px" height="12px" viewBox="406 2037  12 12" xmlns="http://www.w3.org/2000/svg">
  <path d="M 412 2037  C 415.36 2037  418 2039.64  418 2043  C 418 2046.36  415.36 2049  412 2049  C 408.64 2049  406 2046.36  406 2043  C 406 2039.64  408.64 2037  412 2037  Z " fill-rule="nonzero" fill="#ffffff" stroke="none" />
  <path d="M 412 2037.5  C 415.08 2037.5  417.5 2039.92  417.5 2043  C 417.5 2046.08  415.08 2048.5  412 2048.5  C 408.92 2048.5  406.5 2046.08  406.5 2043  C 406.5 2039.92  408.92 2037.5  412 2037.5  Z " stroke-width="1" stroke="#797979" fill="none" />
  <path d="M 412 2046  C 410.32 2046  409 2044.68  409 2043  C 409 2041.32  410.32 2040  412 2040  C 413.68 2040  415 2041.32  415 2043  C 415 2044.68  413.68 2046  412 2046  " fill-rule="nonzero" fill="#797979" stroke="none" />
</svg>