<?xml version="1.0" encoding="utf-8"?>
<svg version="1.1" xmlns:xlink="http://www.w3.org/1999/xlink" width="12px" height="12px" viewBox="2116 4914  12 12" xmlns="http://www.w3.org/2000/svg">
  <path d="M 2122 4914  C 2125.36 4914  2128 4916.64  2128 4920  C 2128 4923.36  2125.36 4926  2122 4926  C 2118.64 4926  2116 4923.36  2116 4920  C 2116 4916.64  2118.64 4914  2122 4914  Z " fill-rule="nonzero" fill="#f0f0f0" stroke="none" />
  <path d="M 2122 4914.5  C 2125.08 4914.5  2127.5 4916.92  2127.5 4920  C 2127.5 4923.08  2125.08 4925.5  2122 4925.5  C 2118.92 4925.5  2116.5 4923.08  2116.5 4920  C 2116.5 4916.92  2118.92 4914.5  2122 4914.5  Z " stroke-width="1" stroke="#797979" fill="none" />
  <path d="M 2122 4923  C 2120.32 4923  2119 4921.68  2119 4920  C 2119 4918.32  2120.32 4917  2122 4917  C 2123.68 4917  2125 4918.32  2125 4920  C 2125 4921.68  2123.68 4923  2122 4923  " fill-rule="nonzero" fill="#797979" stroke="none" />
</svg>