<?xml version="1.0" encoding="utf-8"?>
<svg version="1.1" xmlns:xlink="http://www.w3.org/1999/xlink" width="12px" height="12px" viewBox="2691 4182  12 12" xmlns="http://www.w3.org/2000/svg">
  <path d="M 2697 4182  C 2700.36 4182  2703 4184.64  2703 4188  C 2703 4191.36  2700.36 4194  2697 4194  C 2693.64 4194  2691 4191.36  2691 4188  C 2691 4184.64  2693.64 4182  2697 4182  Z " fill-rule="nonzero" fill="#f0f0f0" stroke="none" />
  <path d="M 2697 4182.5  C 2700.08 4182.5  2702.5 4184.92  2702.5 4188  C 2702.5 4191.08  2700.08 4193.5  2697 4193.5  C 2693.92 4193.5  2691.5 4191.08  2691.5 4188  C 2691.5 4184.92  2693.92 4182.5  2697 4182.5  Z " stroke-width="1" stroke="#797979" fill="none" />
  <path d="M 2697 4191  C 2695.32 4191  2694 4189.68  2694 4188  C 2694 4186.32  2695.32 4185  2697 4185  C 2698.68 4185  2700 4186.32  2700 4188  C 2700 4189.68  2698.68 4191  2697 4191  " fill-rule="nonzero" fill="#797979" stroke="none" />
</svg>