<?xml version="1.0" encoding="utf-8"?>
<svg version="1.1" xmlns:xlink="http://www.w3.org/1999/xlink" width="12px" height="12px" viewBox="2210 4220  12 12" xmlns="http://www.w3.org/2000/svg">
  <path d="M 2216 4220  C 2219.36 4220  2222 4222.64  2222 4226  C 2222 4229.36  2219.36 4232  2216 4232  C 2212.64 4232  2210 4229.36  2210 4226  C 2210 4222.64  2212.64 4220  2216 4220  Z " fill-rule="nonzero" fill="#ffffff" stroke="none" />
  <path d="M 2216 4220.5  C 2219.08 4220.5  2221.5 4222.92  2221.5 4226  C 2221.5 4229.08  2219.08 4231.5  2216 4231.5  C 2212.92 4231.5  2210.5 4229.08  2210.5 4226  C 2210.5 4222.92  2212.92 4220.5  2216 4220.5  Z " stroke-width="1" stroke="#797979" fill="none" />
  <path d="M 2216 4229  C 2214.32 4229  2213 4227.68  2213 4226  C 2213 4224.32  2214.32 4223  2216 4223  C 2217.68 4223  2219 4224.32  2219 4226  C 2219 4227.68  2217.68 4229  2216 4229  " fill-rule="nonzero" fill="#797979" stroke="none" />
</svg>