<?xml version="1.0" encoding="utf-8"?>
<svg version="1.1" xmlns:xlink="http://www.w3.org/1999/xlink" width="12px" height="12px" viewBox="2791 4882  12 12" xmlns="http://www.w3.org/2000/svg">
  <path d="M 2797 4882  C 2800.36 4882  2803 4884.64  2803 4888  C 2803 4891.36  2800.36 4894  2797 4894  C 2793.64 4894  2791 4891.36  2791 4888  C 2791 4884.64  2793.64 4882  2797 4882  Z " fill-rule="nonzero" fill="#f0f0f0" stroke="none" />
  <path d="M 2797 4882.5  C 2800.08 4882.5  2802.5 4884.92  2802.5 4888  C 2802.5 4891.08  2800.08 4893.5  2797 4893.5  C 2793.92 4893.5  2791.5 4891.08  2791.5 4888  C 2791.5 4884.92  2793.92 4882.5  2797 4882.5  Z " stroke-width="1" stroke="#797979" fill="none" />
  <path d="M 2797 4891  C 2795.32 4891  2794 4889.68  2794 4888  C 2794 4886.32  2795.32 4885  2797 4885  C 2798.68 4885  2800 4886.32  2800 4888  C 2800 4889.68  2798.68 4891  2797 4891  " fill-rule="nonzero" fill="#797979" stroke="none" />
</svg>