<?xml version="1.0" encoding="utf-8"?>
<svg version="1.1" xmlns:xlink="http://www.w3.org/1999/xlink" width="12px" height="12px" viewBox="2791 4182  12 12" xmlns="http://www.w3.org/2000/svg">
  <path d="M 2797 4182  C 2800.36 4182  2803 4184.64  2803 4188  C 2803 4191.36  2800.36 4194  2797 4194  C 2793.64 4194  2791 4191.36  2791 4188  C 2791 4184.64  2793.64 4182  2797 4182  Z " fill-rule="nonzero" fill="#ffffff" stroke="none" />
  <path d="M 2797 4182.5  C 2800.08 4182.5  2802.5 4184.92  2802.5 4188  C 2802.5 4191.08  2800.08 4193.5  2797 4193.5  C 2793.92 4193.5  2791.5 4191.08  2791.5 4188  C 2791.5 4184.92  2793.92 4182.5  2797 4182.5  Z " stroke-width="1" stroke="#797979" fill="none" />
  <path d="M 2797 4191  C 2795.32 4191  2794 4189.68  2794 4188  C 2794 4186.32  2795.32 4185  2797 4185  C 2798.68 4185  2800 4186.32  2800 4188  C 2800 4189.68  2798.68 4191  2797 4191  " fill-rule="nonzero" fill="#797979" stroke="none" />
</svg>