<?xml version="1.0" encoding="utf-8"?>
<svg version="1.1" xmlns:xlink="http://www.w3.org/1999/xlink" width="12px" height="12px" viewBox="2691 4882  12 12" xmlns="http://www.w3.org/2000/svg">
  <path d="M 2697 4882  C 2700.36 4882  2703 4884.64  2703 4888  C 2703 4891.36  2700.36 4894  2697 4894  C 2693.64 4894  2691 4891.36  2691 4888  C 2691 4884.64  2693.64 4882  2697 4882  Z " fill-rule="nonzero" fill="#f0f0f0" stroke="none" />
  <path d="M 2697 4882.5  C 2700.08 4882.5  2702.5 4884.92  2702.5 4888  C 2702.5 4891.08  2700.08 4893.5  2697 4893.5  C 2693.92 4893.5  2691.5 4891.08  2691.5 4888  C 2691.5 4884.92  2693.92 4882.5  2697 4882.5  Z " stroke-width="1" stroke="#797979" fill="none" />
  <path d="M 2697 4891  C 2695.32 4891  2694 4889.68  2694 4888  C 2694 4886.32  2695.32 4885  2697 4885  C 2698.68 4885  2700 4886.32  2700 4888  C 2700 4889.68  2698.68 4891  2697 4891  " fill-rule="nonzero" fill="#797979" stroke="none" />
</svg>