<?xml version="1.0" encoding="utf-8"?>
<svg version="1.1" xmlns:xlink="http://www.w3.org/1999/xlink" width="12px" height="12px" viewBox="3529 2097  12 12" xmlns="http://www.w3.org/2000/svg">
  <path d="M 3535 2097  C 3538.36 2097  3541 2099.64  3541 2103  C 3541 2106.36  3538.36 2109  3535 2109  C 3531.64 2109  3529 2106.36  3529 2103  C 3529 2099.64  3531.64 2097  3535 2097  Z " fill-rule="nonzero" fill="#ffffff" stroke="none" />
  <path d="M 3535 2097.5  C 3538.08 2097.5  3540.5 2099.92  3540.5 2103  C 3540.5 2106.08  3538.08 2108.5  3535 2108.5  C 3531.92 2108.5  3529.5 2106.08  3529.5 2103  C 3529.5 2099.92  3531.92 2097.5  3535 2097.5  Z " stroke-width="1" stroke="#797979" fill="none" />
  <path d="M 3535 2106  C 3533.32 2106  3532 2104.68  3532 2103  C 3532 2101.32  3533.32 2100  3535 2100  C 3536.68 2100  3538 2101.32  3538 2103  C 3538 2104.68  3536.68 2106  3535 2106  " fill-rule="nonzero" fill="#797979" stroke="none" />
</svg>