<?xml version="1.0" encoding="utf-8"?>
<svg version="1.1" xmlns:xlink="http://www.w3.org/1999/xlink" width="12px" height="12px" viewBox="2728 7640  12 12" xmlns="http://www.w3.org/2000/svg">
  <path d="M 2734 7640  C 2737.36 7640  2740 7642.64  2740 7646  C 2740 7649.36  2737.36 7652  2734 7652  C 2730.64 7652  2728 7649.36  2728 7646  C 2728 7642.64  2730.64 7640  2734 7640  Z " fill-rule="nonzero" fill="#ffffff" stroke="none" />
  <path d="M 2734 7640.5  C 2737.08 7640.5  2739.5 7642.92  2739.5 7646  C 2739.5 7649.08  2737.08 7651.5  2734 7651.5  C 2730.92 7651.5  2728.5 7649.08  2728.5 7646  C 2728.5 7642.92  2730.92 7640.5  2734 7640.5  Z " stroke-width="1" stroke="#797979" fill="none" />
  <path d="M 2734 7649  C 2732.32 7649  2731 7647.68  2731 7646  C 2731 7644.32  2732.32 7643  2734 7643  C 2735.68 7643  2737 7644.32  2737 7646  C 2737 7647.68  2735.68 7649  2734 7649  " fill-rule="nonzero" fill="#797979" stroke="none" />
</svg>