<?xml version="1.0" encoding="utf-8"?>
<svg version="1.1" xmlns:xlink="http://www.w3.org/1999/xlink" width="12px" height="12px" viewBox="3629 2097  12 12" xmlns="http://www.w3.org/2000/svg">
  <path d="M 3635 2097  C 3638.36 2097  3641 2099.64  3641 2103  C 3641 2106.36  3638.36 2109  3635 2109  C 3631.64 2109  3629 2106.36  3629 2103  C 3629 2099.64  3631.64 2097  3635 2097  Z " fill-rule="nonzero" fill="#f0f0f0" stroke="none" />
  <path d="M 3635 2097.5  C 3638.08 2097.5  3640.5 2099.92  3640.5 2103  C 3640.5 2106.08  3638.08 2108.5  3635 2108.5  C 3631.92 2108.5  3629.5 2106.08  3629.5 2103  C 3629.5 2099.92  3631.92 2097.5  3635 2097.5  Z " stroke-width="1" stroke="#797979" fill="none" />
  <path d="M 3635 2106  C 3633.32 2106  3632 2104.68  3632 2103  C 3632 2101.32  3633.32 2100  3635 2100  C 3636.68 2100  3638 2101.32  3638 2103  C 3638 2104.68  3636.68 2106  3635 2106  " fill-rule="nonzero" fill="#797979" stroke="none" />
</svg>