<?xml version="1.0" encoding="utf-8"?>
<svg version="1.1" xmlns:xlink="http://www.w3.org/1999/xlink" width="12px" height="12px" viewBox="2226 8533  12 12" xmlns="http://www.w3.org/2000/svg">
  <path d="M 2232 8533  C 2235.36 8533  2238 8535.64  2238 8539  C 2238 8542.36  2235.36 8545  2232 8545  C 2228.64 8545  2226 8542.36  2226 8539  C 2226 8535.64  2228.64 8533  2232 8533  Z " fill-rule="nonzero" fill="#f0f0f0" stroke="none" />
  <path d="M 2232 8533.5  C 2235.08 8533.5  2237.5 8535.92  2237.5 8539  C 2237.5 8542.08  2235.08 8544.5  2232 8544.5  C 2228.92 8544.5  2226.5 8542.08  2226.5 8539  C 2226.5 8535.92  2228.92 8533.5  2232 8533.5  Z " stroke-width="1" stroke="#797979" fill="none" />
  <path d="M 2232 8542  C 2230.32 8542  2229 8540.68  2229 8539  C 2229 8537.32  2230.32 8536  2232 8536  C 2233.68 8536  2235 8537.32  2235 8539  C 2235 8540.68  2233.68 8542  2232 8542  " fill-rule="nonzero" fill="#797979" stroke="none" />
</svg>