<?xml version="1.0" encoding="utf-8"?>
<svg version="1.1" xmlns:xlink="http://www.w3.org/1999/xlink" width="12px" height="12px" viewBox="2828 7640  12 12" xmlns="http://www.w3.org/2000/svg">
  <path d="M 2834 7640  C 2837.36 7640  2840 7642.64  2840 7646  C 2840 7649.36  2837.36 7652  2834 7652  C 2830.64 7652  2828 7649.36  2828 7646  C 2828 7642.64  2830.64 7640  2834 7640  Z " fill-rule="nonzero" fill="#ffffff" stroke="none" />
  <path d="M 2834 7640.5  C 2837.08 7640.5  2839.5 7642.92  2839.5 7646  C 2839.5 7649.08  2837.08 7651.5  2834 7651.5  C 2830.92 7651.5  2828.5 7649.08  2828.5 7646  C 2828.5 7642.92  2830.92 7640.5  2834 7640.5  Z " stroke-width="1" stroke="#797979" fill="none" />
  <path d="M 2834 7649  C 2832.32 7649  2831 7647.68  2831 7646  C 2831 7644.32  2832.32 7643  2834 7643  C 2835.68 7643  2837 7644.32  2837 7646  C 2837 7647.68  2835.68 7649  2834 7649  " fill-rule="nonzero" fill="#797979" stroke="none" />
</svg>