<?xml version="1.0" encoding="utf-8"?>
<svg version="1.1" xmlns:xlink="http://www.w3.org/1999/xlink" width="12px" height="12px" viewBox="2126 8533  12 12" xmlns="http://www.w3.org/2000/svg">
  <path d="M 2132 8533  C 2135.36 8533  2138 8535.64  2138 8539  C 2138 8542.36  2135.36 8545  2132 8545  C 2128.64 8545  2126 8542.36  2126 8539  C 2126 8535.64  2128.64 8533  2132 8533  Z " fill-rule="nonzero" fill="#f0f0f0" stroke="none" />
  <path d="M 2132 8533.5  C 2135.08 8533.5  2137.5 8535.92  2137.5 8539  C 2137.5 8542.08  2135.08 8544.5  2132 8544.5  C 2128.92 8544.5  2126.5 8542.08  2126.5 8539  C 2126.5 8535.92  2128.92 8533.5  2132 8533.5  Z " stroke-width="1" stroke="#797979" fill="none" />
  <path d="M 2132 8542  C 2130.32 8542  2129 8540.68  2129 8539  C 2129 8537.32  2130.32 8536  2132 8536  C 2133.68 8536  2135 8537.32  2135 8539  C 2135 8540.68  2133.68 8542  2132 8542  " fill-rule="nonzero" fill="#797979" stroke="none" />
</svg>