<?xml version="1.0" encoding="utf-8"?>
<svg version="1.1" xmlns:xlink="http://www.w3.org/1999/xlink" width="12px" height="12px" viewBox="2756 7181  12 12" xmlns="http://www.w3.org/2000/svg">
  <path d="M 2762 7181  C 2765.36 7181  2768 7183.64  2768 7187  C 2768 7190.36  2765.36 7193  2762 7193  C 2758.64 7193  2756 7190.36  2756 7187  C 2756 7183.64  2758.64 7181  2762 7181  Z " fill-rule="nonzero" fill="#ffffff" stroke="none" />
  <path d="M 2762 7181.5  C 2765.08 7181.5  2767.5 7183.92  2767.5 7187  C 2767.5 7190.08  2765.08 7192.5  2762 7192.5  C 2758.92 7192.5  2756.5 7190.08  2756.5 7187  C 2756.5 7183.92  2758.92 7181.5  2762 7181.5  Z " stroke-width="1" stroke="#797979" fill="none" />
  <path d="M 2762 7190  C 2760.32 7190  2759 7188.68  2759 7187  C 2759 7185.32  2760.32 7184  2762 7184  C 2763.68 7184  2765 7185.32  2765 7187  C 2765 7188.68  2763.68 7190  2762 7190  " fill-rule="nonzero" fill="#797979" stroke="none" />
</svg>