<?xml version="1.0" encoding="utf-8"?>
<svg version="1.1" xmlns:xlink="http://www.w3.org/1999/xlink" width="12px" height="12px" viewBox="2144 8034  12 12" xmlns="http://www.w3.org/2000/svg">
  <path d="M 2150 8034  C 2153.36 8034  2156 8036.64  2156 8040  C 2156 8043.36  2153.36 8046  2150 8046  C 2146.64 8046  2144 8043.36  2144 8040  C 2144 8036.64  2146.64 8034  2150 8034  Z " fill-rule="nonzero" fill="#f0f0f0" stroke="none" />
  <path d="M 2150 8034.5  C 2153.08 8034.5  2155.5 8036.92  2155.5 8040  C 2155.5 8043.08  2153.08 8045.5  2150 8045.5  C 2146.92 8045.5  2144.5 8043.08  2144.5 8040  C 2144.5 8036.92  2146.92 8034.5  2150 8034.5  Z " stroke-width="1" stroke="#797979" fill="none" />
  <path d="M 2150 8043  C 2148.32 8043  2147 8041.68  2147 8040  C 2147 8038.32  2148.32 8037  2150 8037  C 2151.68 8037  2153 8038.32  2153 8040  C 2153 8041.68  2151.68 8043  2150 8043  " fill-rule="nonzero" fill="#797979" stroke="none" />
</svg>