<?xml version="1.0" encoding="utf-8"?>
<svg version="1.1" xmlns:xlink="http://www.w3.org/1999/xlink" width="12px" height="12px" viewBox="2896 8447  12 12" xmlns="http://www.w3.org/2000/svg">
  <path d="M 2902 8447  C 2905.36 8447  2908 8449.64  2908 8453  C 2908 8456.36  2905.36 8459  2902 8459  C 2898.64 8459  2896 8456.36  2896 8453  C 2896 8449.64  2898.64 8447  2902 8447  Z " fill-rule="nonzero" fill="#f0f0f0" stroke="none" />
  <path d="M 2902 8447.5  C 2905.08 8447.5  2907.5 8449.92  2907.5 8453  C 2907.5 8456.08  2905.08 8458.5  2902 8458.5  C 2898.92 8458.5  2896.5 8456.08  2896.5 8453  C 2896.5 8449.92  2898.92 8447.5  2902 8447.5  Z " stroke-width="1" stroke="#797979" fill="none" />
  <path d="M 2902 8456  C 2900.32 8456  2899 8454.68  2899 8453  C 2899 8451.32  2900.32 8450  2902 8450  C 2903.68 8450  2905 8451.32  2905 8453  C 2905 8454.68  2903.68 8456  2902 8456  " fill-rule="nonzero" fill="#797979" stroke="none" />
</svg>