<?xml version="1.0" encoding="utf-8"?>
<svg version="1.1" xmlns:xlink="http://www.w3.org/1999/xlink" width="12px" height="12px" viewBox="2896 8478  12 12" xmlns="http://www.w3.org/2000/svg">
  <path d="M 2902 8478  C 2905.36 8478  2908 8480.64  2908 8484  C 2908 8487.36  2905.36 8490  2902 8490  C 2898.64 8490  2896 8487.36  2896 8484  C 2896 8480.64  2898.64 8478  2902 8478  Z " fill-rule="nonzero" fill="#f0f0f0" stroke="none" />
  <path d="M 2902 8478.5  C 2905.08 8478.5  2907.5 8480.92  2907.5 8484  C 2907.5 8487.08  2905.08 8489.5  2902 8489.5  C 2898.92 8489.5  2896.5 8487.08  2896.5 8484  C 2896.5 8480.92  2898.92 8478.5  2902 8478.5  Z " stroke-width="1" stroke="#797979" fill="none" />
  <path d="M 2902 8487  C 2900.32 8487  2899 8485.68  2899 8484  C 2899 8482.32  2900.32 8481  2902 8481  C 2903.68 8481  2905 8482.32  2905 8484  C 2905 8485.68  2903.68 8487  2902 8487  " fill-rule="nonzero" fill="#797979" stroke="none" />
</svg>