<?xml version="1.0" encoding="utf-8"?>
<svg version="1.1" xmlns:xlink="http://www.w3.org/1999/xlink" width="12px" height="12px" viewBox="2120 4683  12 12" xmlns="http://www.w3.org/2000/svg">
  <path d="M 2126 4683  C 2129.36 4683  2132 4685.64  2132 4689  C 2132 4692.36  2129.36 4695  2126 4695  C 2122.64 4695  2120 4692.36  2120 4689  C 2120 4685.64  2122.64 4683  2126 4683  Z " fill-rule="nonzero" fill="#f0f0f0" stroke="none" />
  <path d="M 2126 4683.5  C 2129.08 4683.5  2131.5 4685.92  2131.5 4689  C 2131.5 4692.08  2129.08 4694.5  2126 4694.5  C 2122.92 4694.5  2120.5 4692.08  2120.5 4689  C 2120.5 4685.92  2122.92 4683.5  2126 4683.5  Z " stroke-width="1" stroke="#797979" fill="none" />
  <path d="M 2126 4692  C 2124.32 4692  2123 4690.68  2123 4689  C 2123 4687.32  2124.32 4686  2126 4686  C 2127.68 4686  2129 4687.32  2129 4689  C 2129 4690.68  2127.68 4692  2126 4692  " fill-rule="nonzero" fill="#797979" stroke="none" />
</svg>