<?xml version="1.0" encoding="utf-8"?>
<svg version="1.1" xmlns:xlink="http://www.w3.org/1999/xlink" width="12px" height="12px" viewBox="464 639  12 12" xmlns="http://www.w3.org/2000/svg">
  <path d="M 470 639  C 473.36 639  476 641.64  476 645  C 476 648.36  473.36 651  470 651  C 466.64 651  464 648.36  464 645  C 464 641.64  466.64 639  470 639  Z " fill-rule="nonzero" fill="#f0f0f0" stroke="none" />
  <path d="M 470 639.5  C 473.08 639.5  475.5 641.92  475.5 645  C 475.5 648.08  473.08 650.5  470 650.5  C 466.92 650.5  464.5 648.08  464.5 645  C 464.5 641.92  466.92 639.5  470 639.5  Z " stroke-width="1" stroke="#797979" fill="none" />
  <path d="M 470 648  C 468.32 648  467 646.68  467 645  C 467 643.32  468.32 642  470 642  C 471.68 642  473 643.32  473 645  C 473 646.68  471.68 648  470 648  " fill-rule="nonzero" fill="#797979" stroke="none" />
</svg>