<?xml version="1.0" encoding="utf-8"?>
<svg version="1.1" xmlns:xlink="http://www.w3.org/1999/xlink" width="12px" height="12px" viewBox="2247 4683  12 12" xmlns="http://www.w3.org/2000/svg">
  <path d="M 2253 4683  C 2256.36 4683  2259 4685.64  2259 4689  C 2259 4692.36  2256.36 4695  2253 4695  C 2249.64 4695  2247 4692.36  2247 4689  C 2247 4685.64  2249.64 4683  2253 4683  Z " fill-rule="nonzero" fill="#f0f0f0" stroke="none" />
  <path d="M 2253 4683.5  C 2256.08 4683.5  2258.5 4685.92  2258.5 4689  C 2258.5 4692.08  2256.08 4694.5  2253 4694.5  C 2249.92 4694.5  2247.5 4692.08  2247.5 4689  C 2247.5 4685.92  2249.92 4683.5  2253 4683.5  Z " stroke-width="1" stroke="#797979" fill="none" />
  <path d="M 2253 4692  C 2251.32 4692  2250 4690.68  2250 4689  C 2250 4687.32  2251.32 4686  2253 4686  C 2254.68 4686  2256 4687.32  2256 4689  C 2256 4690.68  2254.68 4692  2253 4692  " fill-rule="nonzero" fill="#797979" stroke="none" />
</svg>