<?xml version="1.0" encoding="utf-8"?>
<svg version="1.1" xmlns:xlink="http://www.w3.org/1999/xlink" width="12px" height="12px" viewBox="409 114  12 12" xmlns="http://www.w3.org/2000/svg">
  <path d="M 415 114  C 418.36 114  421 116.64  421 120  C 421 123.36  418.36 126  415 126  C 411.64 126  409 123.36  409 120  C 409 116.64  411.64 114  415 114  Z " fill-rule="nonzero" fill="#ffffff" stroke="none" />
  <path d="M 415 114.5  C 418.08 114.5  420.5 116.92  420.5 120  C 420.5 123.08  418.08 125.5  415 125.5  C 411.92 125.5  409.5 123.08  409.5 120  C 409.5 116.92  411.92 114.5  415 114.5  Z " stroke-width="1" stroke="#797979" fill="none" />
  <path d="M 415 123  C 413.32 123  412 121.68  412 120  C 412 118.32  413.32 117  415 117  C 416.68 117  418 118.32  418 120  C 418 121.68  416.68 123  415 123  " fill-rule="nonzero" fill="#797979" stroke="none" />
</svg>