<?xml version="1.0" encoding="utf-8"?>
<svg version="1.1" xmlns:xlink="http://www.w3.org/1999/xlink" width="12px" height="12px" viewBox="867 153  12 12" xmlns="http://www.w3.org/2000/svg">
  <path d="M 873 153  C 876.36 153  879 155.64  879 159  C 879 162.36  876.36 165  873 165  C 869.64 165  867 162.36  867 159  C 867 155.64  869.64 153  873 153  Z " fill-rule="nonzero" fill="#ffffff" stroke="none" />
  <path d="M 873 153.5  C 876.08 153.5  878.5 155.92  878.5 159  C 878.5 162.08  876.08 164.5  873 164.5  C 869.92 164.5  867.5 162.08  867.5 159  C 867.5 155.92  869.92 153.5  873 153.5  Z " stroke-width="1" stroke="#797979" fill="none" />
  <path d="M 873 162  C 871.32 162  870 160.68  870 159  C 870 157.32  871.32 156  873 156  C 874.68 156  876 157.32  876 159  C 876 160.68  874.68 162  873 162  " fill-rule="nonzero" fill="#797979" stroke="none" />
</svg>