<?xml version="1.0" encoding="utf-8"?>
<svg version="1.1" xmlns:xlink="http://www.w3.org/1999/xlink" width="12px" height="12px" viewBox="2776 9209  12 12" xmlns="http://www.w3.org/2000/svg">
  <path d="M 2782 9209  C 2785.36 9209  2788 9211.64  2788 9215  C 2788 9218.36  2785.36 9221  2782 9221  C 2778.64 9221  2776 9218.36  2776 9215  C 2776 9211.64  2778.64 9209  2782 9209  Z " fill-rule="nonzero" fill="#f0f0f0" stroke="none" />
  <path d="M 2782 9209.5  C 2785.08 9209.5  2787.5 9211.92  2787.5 9215  C 2787.5 9218.08  2785.08 9220.5  2782 9220.5  C 2778.92 9220.5  2776.5 9218.08  2776.5 9215  C 2776.5 9211.92  2778.92 9209.5  2782 9209.5  Z " stroke-width="1" stroke="#797979" fill="none" />
  <path d="M 2782 9218  C 2780.32 9218  2779 9216.68  2779 9215  C 2779 9213.32  2780.32 9212  2782 9212  C 2783.68 9212  2785 9213.32  2785 9215  C 2785 9216.68  2783.68 9218  2782 9218  " fill-rule="nonzero" fill="#797979" stroke="none" />
</svg>