<?xml version="1.0" encoding="utf-8"?>
<svg version="1.1" xmlns:xlink="http://www.w3.org/1999/xlink" width="12px" height="12px" viewBox="1158 153  12 12" xmlns="http://www.w3.org/2000/svg">
  <path d="M 1164 153  C 1167.36 153  1170 155.64  1170 159  C 1170 162.36  1167.36 165  1164 165  C 1160.64 165  1158 162.36  1158 159  C 1158 155.64  1160.64 153  1164 153  Z " fill-rule="nonzero" fill="#ffffff" stroke="none" />
  <path d="M 1164 153.5  C 1167.08 153.5  1169.5 155.92  1169.5 159  C 1169.5 162.08  1167.08 164.5  1164 164.5  C 1160.92 164.5  1158.5 162.08  1158.5 159  C 1158.5 155.92  1160.92 153.5  1164 153.5  Z " stroke-width="1" stroke="#797979" fill="none" />
  <path d="M 1164 162  C 1162.32 162  1161 160.68  1161 159  C 1161 157.32  1162.32 156  1164 156  C 1165.68 156  1167 157.32  1167 159  C 1167 160.68  1165.68 162  1164 162  " fill-rule="nonzero" fill="#797979" stroke="none" />
</svg>