<?xml version="1.0" encoding="utf-8"?>
<svg version="1.1" xmlns:xlink="http://www.w3.org/1999/xlink" width="12px" height="12px" viewBox="1280 115  12 12" xmlns="http://www.w3.org/2000/svg">
  <path d="M 1286 115  C 1289.36 115  1292 117.64  1292 121  C 1292 124.36  1289.36 127  1286 127  C 1282.64 127  1280 124.36  1280 121  C 1280 117.64  1282.64 115  1286 115  Z " fill-rule="nonzero" fill="#f0f0f0" stroke="none" />
  <path d="M 1286 115.5  C 1289.08 115.5  1291.5 117.92  1291.5 121  C 1291.5 124.08  1289.08 126.5  1286 126.5  C 1282.92 126.5  1280.5 124.08  1280.5 121  C 1280.5 117.92  1282.92 115.5  1286 115.5  Z " stroke-width="1" stroke="#797979" fill="none" />
  <path d="M 1286 124  C 1284.32 124  1283 122.68  1283 121  C 1283 119.32  1284.32 118  1286 118  C 1287.68 118  1289 119.32  1289 121  C 1289 122.68  1287.68 124  1286 124  " fill-rule="nonzero" fill="#797979" stroke="none" />
</svg>