<?xml version="1.0" encoding="utf-8"?>
<svg version="1.1" xmlns:xlink="http://www.w3.org/1999/xlink" width="12px" height="12px" viewBox="561 229  12 12" xmlns="http://www.w3.org/2000/svg">
  <path d="M 567 229  C 570.36 229  573 231.64  573 235  C 573 238.36  570.36 241  567 241  C 563.64 241  561 238.36  561 235  C 561 231.64  563.64 229  567 229  Z " fill-rule="nonzero" fill="#ffffff" stroke="none" />
  <path d="M 567 229.5  C 570.08 229.5  572.5 231.92  572.5 235  C 572.5 238.08  570.08 240.5  567 240.5  C 563.92 240.5  561.5 238.08  561.5 235  C 561.5 231.92  563.92 229.5  567 229.5  Z " stroke-width="1" stroke="#797979" fill="none" />
  <path d="M 567 238  C 565.32 238  564 236.68  564 235  C 564 233.32  565.32 232  567 232  C 568.68 232  570 233.32  570 235  C 570 236.68  568.68 238  567 238  " fill-rule="nonzero" fill="#797979" stroke="none" />
</svg>