<?xml version="1.0" encoding="utf-8"?>
<svg version="1.1" xmlns:xlink="http://www.w3.org/1999/xlink" width="12px" height="12px" viewBox="1254 196  12 12" xmlns="http://www.w3.org/2000/svg">
  <path d="M 1260 196  C 1263.36 196  1266 198.64  1266 202  C 1266 205.36  1263.36 208  1260 208  C 1256.64 208  1254 205.36  1254 202  C 1254 198.64  1256.64 196  1260 196  Z " fill-rule="nonzero" fill="#ffffff" stroke="none" />
  <path d="M 1260 196.5  C 1263.08 196.5  1265.5 198.92  1265.5 202  C 1265.5 205.08  1263.08 207.5  1260 207.5  C 1256.92 207.5  1254.5 205.08  1254.5 202  C 1254.5 198.92  1256.92 196.5  1260 196.5  Z " stroke-width="1" stroke="#797979" fill="none" />
  <path d="M 1260 205  C 1258.32 205  1257 203.68  1257 202  C 1257 200.32  1258.32 199  1260 199  C 1261.68 199  1263 200.32  1263 202  C 1263 203.68  1261.68 205  1260 205  " fill-rule="nonzero" fill="#797979" stroke="none" />
</svg>