<?xml version="1.0" encoding="utf-8"?>
<svg version="1.1" xmlns:xlink="http://www.w3.org/1999/xlink" width="12px" height="12px" viewBox="1021 153  12 12" xmlns="http://www.w3.org/2000/svg">
  <path d="M 1027 153  C 1030.36 153  1033 155.64  1033 159  C 1033 162.36  1030.36 165  1027 165  C 1023.64 165  1021 162.36  1021 159  C 1021 155.64  1023.64 153  1027 153  Z " fill-rule="nonzero" fill="#f0f0f0" stroke="none" />
  <path d="M 1027 153.5  C 1030.08 153.5  1032.5 155.92  1032.5 159  C 1032.5 162.08  1030.08 164.5  1027 164.5  C 1023.92 164.5  1021.5 162.08  1021.5 159  C 1021.5 155.92  1023.92 153.5  1027 153.5  Z " stroke-width="1" stroke="#797979" fill="none" />
  <path d="M 1027 162  C 1025.32 162  1024 160.68  1024 159  C 1024 157.32  1025.32 156  1027 156  C 1028.68 156  1030 157.32  1030 159  C 1030 160.68  1028.68 162  1027 162  " fill-rule="nonzero" fill="#797979" stroke="none" />
</svg>