<?xml version="1.0" encoding="utf-8"?>
<svg version="1.1" xmlns:xlink="http://www.w3.org/1999/xlink" width="12px" height="12px" viewBox="1158 115  12 12" xmlns="http://www.w3.org/2000/svg">
  <path d="M 1164 115  C 1167.36 115  1170 117.64  1170 121  C 1170 124.36  1167.36 127  1164 127  C 1160.64 127  1158 124.36  1158 121  C 1158 117.64  1160.64 115  1164 115  Z " fill-rule="nonzero" fill="#ffffff" stroke="none" />
  <path d="M 1164 115.5  C 1167.08 115.5  1169.5 117.92  1169.5 121  C 1169.5 124.08  1167.08 126.5  1164 126.5  C 1160.92 126.5  1158.5 124.08  1158.5 121  C 1158.5 117.92  1160.92 115.5  1164 115.5  Z " stroke-width="1" stroke="#797979" fill="none" />
  <path d="M 1164 124  C 1162.32 124  1161 122.68  1161 121  C 1161 119.32  1162.32 118  1164 118  C 1165.68 118  1167 119.32  1167 121  C 1167 122.68  1165.68 124  1164 124  " fill-rule="nonzero" fill="#797979" stroke="none" />
</svg>