<?xml version="1.0" encoding="utf-8"?>
<svg version="1.1" xmlns:xlink="http://www.w3.org/1999/xlink" width="12px" height="12px" viewBox="1511 194  12 12" xmlns="http://www.w3.org/2000/svg">
  <path d="M 1517 194  C 1520.36 194  1523 196.64  1523 200  C 1523 203.36  1520.36 206  1517 206  C 1513.64 206  1511 203.36  1511 200  C 1511 196.64  1513.64 194  1517 194  Z " fill-rule="nonzero" fill="#ffffff" stroke="none" />
  <path d="M 1517 194.5  C 1520.08 194.5  1522.5 196.92  1522.5 200  C 1522.5 203.08  1520.08 205.5  1517 205.5  C 1513.92 205.5  1511.5 203.08  1511.5 200  C 1511.5 196.92  1513.92 194.5  1517 194.5  Z " stroke-width="1" stroke="#797979" fill="none" />
  <path d="M 1517 203  C 1515.32 203  1514 201.68  1514 200  C 1514 198.32  1515.32 197  1517 197  C 1518.68 197  1520 198.32  1520 200  C 1520 201.68  1518.68 203  1517 203  " fill-rule="nonzero" fill="#797979" stroke="none" />
</svg>