<?xml version="1.0" encoding="utf-8"?>
<svg version="1.1" xmlns:xlink="http://www.w3.org/1999/xlink" width="12px" height="12px" viewBox="730 151  12 12" xmlns="http://www.w3.org/2000/svg">
  <path d="M 736 151  C 739.36 151  742 153.64  742 157  C 742 160.36  739.36 163  736 163  C 732.64 163  730 160.36  730 157  C 730 153.64  732.64 151  736 151  Z " fill-rule="nonzero" fill="#ffffff" stroke="none" />
  <path d="M 736 151.5  C 739.08 151.5  741.5 153.92  741.5 157  C 741.5 160.08  739.08 162.5  736 162.5  C 732.92 162.5  730.5 160.08  730.5 157  C 730.5 153.92  732.92 151.5  736 151.5  Z " stroke-width="1" stroke="#797979" fill="none" />
  <path d="M 736 160  C 734.32 160  733 158.68  733 157  C 733 155.32  734.32 154  736 154  C 737.68 154  739 155.32  739 157  C 739 158.68  737.68 160  736 160  " fill-rule="nonzero" fill="#797979" stroke="none" />
</svg>