<?xml version="1.0" encoding="utf-8"?>
<svg version="1.1" xmlns:xlink="http://www.w3.org/1999/xlink" width="12px" height="12px" viewBox="730 115  12 12" xmlns="http://www.w3.org/2000/svg">
  <path d="M 736 115  C 739.36 115  742 117.64  742 121  C 742 124.36  739.36 127  736 127  C 732.64 127  730 124.36  730 121  C 730 117.64  732.64 115  736 115  Z " fill-rule="nonzero" fill="#f0f0f0" stroke="none" />
  <path d="M 736 115.5  C 739.08 115.5  741.5 117.92  741.5 121  C 741.5 124.08  739.08 126.5  736 126.5  C 732.92 126.5  730.5 124.08  730.5 121  C 730.5 117.92  732.92 115.5  736 115.5  Z " stroke-width="1" stroke="#797979" fill="none" />
  <path d="M 736 124  C 734.32 124  733 122.68  733 121  C 733 119.32  734.32 118  736 118  C 737.68 118  739 119.32  739 121  C 739 122.68  737.68 124  736 124  " fill-rule="nonzero" fill="#797979" stroke="none" />
</svg>