<?xml version="1.0" encoding="utf-8"?>
<svg version="1.1" xmlns:xlink="http://www.w3.org/1999/xlink" width="12px" height="12px" viewBox="730 194  12 12" xmlns="http://www.w3.org/2000/svg">
  <path d="M 736 194  C 739.36 194  742 196.64  742 200  C 742 203.36  739.36 206  736 206  C 732.64 206  730 203.36  730 200  C 730 196.64  732.64 194  736 194  Z " fill-rule="nonzero" fill="#ffffff" stroke="none" />
  <path d="M 736 194.5  C 739.08 194.5  741.5 196.92  741.5 200  C 741.5 203.08  739.08 205.5  736 205.5  C 732.92 205.5  730.5 203.08  730.5 200  C 730.5 196.92  732.92 194.5  736 194.5  Z " stroke-width="1" stroke="#797979" fill="none" />
  <path d="M 736 203  C 734.32 203  733 201.68  733 200  C 733 198.32  734.32 197  736 197  C 737.68 197  739 198.32  739 200  C 739 201.68  737.68 203  736 203  " fill-rule="nonzero" fill="#797979" stroke="none" />
</svg>