<?xml version="1.0" encoding="utf-8"?>
<svg version="1.1" xmlns:xlink="http://www.w3.org/1999/xlink" width="12px" height="12px" viewBox="2676 9209  12 12" xmlns="http://www.w3.org/2000/svg">
  <path d="M 2682 9209  C 2685.36 9209  2688 9211.64  2688 9215  C 2688 9218.36  2685.36 9221  2682 9221  C 2678.64 9221  2676 9218.36  2676 9215  C 2676 9211.64  2678.64 9209  2682 9209  Z " fill-rule="nonzero" fill="#f0f0f0" stroke="none" />
  <path d="M 2682 9209.5  C 2685.08 9209.5  2687.5 9211.92  2687.5 9215  C 2687.5 9218.08  2685.08 9220.5  2682 9220.5  C 2678.92 9220.5  2676.5 9218.08  2676.5 9215  C 2676.5 9211.92  2678.92 9209.5  2682 9209.5  Z " stroke-width="1" stroke="#797979" fill="none" />
  <path d="M 2682 9218  C 2680.32 9218  2679 9216.68  2679 9215  C 2679 9213.32  2680.32 9212  2682 9212  C 2683.68 9212  2685 9213.32  2685 9215  C 2685 9216.68  2683.68 9218  2682 9218  " fill-rule="nonzero" fill="#797979" stroke="none" />
</svg>