<?xml version="1.0" encoding="utf-8"?>
<svg version="1.1" xmlns:xlink="http://www.w3.org/1999/xlink" width="12px" height="12px" viewBox="564 115  12 12" xmlns="http://www.w3.org/2000/svg">
  <path d="M 570 115  C 573.36 115  576 117.64  576 121  C 576 124.36  573.36 127  570 127  C 566.64 127  564 124.36  564 121  C 564 117.64  566.64 115  570 115  Z " fill-rule="nonzero" fill="#f0f0f0" stroke="none" />
  <path d="M 570 115.5  C 573.08 115.5  575.5 117.92  575.5 121  C 575.5 124.08  573.08 126.5  570 126.5  C 566.92 126.5  564.5 124.08  564.5 121  C 564.5 117.92  566.92 115.5  570 115.5  Z " stroke-width="1" stroke="#797979" fill="none" />
  <path d="M 570 124  C 568.32 124  567 122.68  567 121  C 567 119.32  568.32 118  570 118  C 571.68 118  573 119.32  573 121  C 573 122.68  571.68 124  570 124  " fill-rule="nonzero" fill="#797979" stroke="none" />
</svg>