<?xml version="1.0" encoding="utf-8"?>
<svg version="1.1" xmlns:xlink="http://www.w3.org/1999/xlink" width="12px" height="12px" viewBox="2216 9311  12 12" xmlns="http://www.w3.org/2000/svg">
  <path d="M 2222 9311  C 2225.36 9311  2228 9313.64  2228 9317  C 2228 9320.36  2225.36 9323  2222 9323  C 2218.64 9323  2216 9320.36  2216 9317  C 2216 9313.64  2218.64 9311  2222 9311  Z " fill-rule="nonzero" fill="#f0f0f0" stroke="none" />
  <path d="M 2222 9311.5  C 2225.08 9311.5  2227.5 9313.92  2227.5 9317  C 2227.5 9320.08  2225.08 9322.5  2222 9322.5  C 2218.92 9322.5  2216.5 9320.08  2216.5 9317  C 2216.5 9313.92  2218.92 9311.5  2222 9311.5  Z " stroke-width="1" stroke="#797979" fill="none" />
  <path d="M 2222 9320  C 2220.32 9320  2219 9318.68  2219 9317  C 2219 9315.32  2220.32 9314  2222 9314  C 2223.68 9314  2225 9315.32  2225 9317  C 2225 9318.68  2223.68 9320  2222 9320  " fill-rule="nonzero" fill="#797979" stroke="none" />
</svg>