<?xml version="1.0" encoding="utf-8"?>
<svg version="1.1" xmlns:xlink="http://www.w3.org/1999/xlink" width="12px" height="12px" viewBox="867 194  12 12" xmlns="http://www.w3.org/2000/svg">
  <path d="M 873 194  C 876.36 194  879 196.64  879 200  C 879 203.36  876.36 206  873 206  C 869.64 206  867 203.36  867 200  C 867 196.64  869.64 194  873 194  Z " fill-rule="nonzero" fill="#f0f0f0" stroke="none" />
  <path d="M 873 194.5  C 876.08 194.5  878.5 196.92  878.5 200  C 878.5 203.08  876.08 205.5  873 205.5  C 869.92 205.5  867.5 203.08  867.5 200  C 867.5 196.92  869.92 194.5  873 194.5  Z " stroke-width="1" stroke="#797979" fill="none" />
  <path d="M 873 203  C 871.32 203  870 201.68  870 200  C 870 198.32  871.32 197  873 197  C 874.68 197  876 198.32  876 200  C 876 201.68  874.68 203  873 203  " fill-rule="nonzero" fill="#797979" stroke="none" />
</svg>