<?xml version="1.0" encoding="utf-8"?>
<svg version="1.1" xmlns:xlink="http://www.w3.org/1999/xlink" width="12px" height="12px" viewBox="1021 194  12 12" xmlns="http://www.w3.org/2000/svg">
  <path d="M 1027 194  C 1030.36 194  1033 196.64  1033 200  C 1033 203.36  1030.36 206  1027 206  C 1023.64 206  1021 203.36  1021 200  C 1021 196.64  1023.64 194  1027 194  Z " fill-rule="nonzero" fill="#f0f0f0" stroke="none" />
  <path d="M 1027 194.5  C 1030.08 194.5  1032.5 196.92  1032.5 200  C 1032.5 203.08  1030.08 205.5  1027 205.5  C 1023.92 205.5  1021.5 203.08  1021.5 200  C 1021.5 196.92  1023.92 194.5  1027 194.5  Z " stroke-width="1" stroke="#797979" fill="none" />
  <path d="M 1027 203  C 1025.32 203  1024 201.68  1024 200  C 1024 198.32  1025.32 197  1027 197  C 1028.68 197  1030 198.32  1030 200  C 1030 201.68  1028.68 203  1027 203  " fill-rule="nonzero" fill="#797979" stroke="none" />
</svg>