<?xml version="1.0" encoding="utf-8"?>
<svg version="1.1" xmlns:xlink="http://www.w3.org/1999/xlink" width="12px" height="12px" viewBox="1280 153  12 12" xmlns="http://www.w3.org/2000/svg">
  <path d="M 1286 153  C 1289.36 153  1292 155.64  1292 159  C 1292 162.36  1289.36 165  1286 165  C 1282.64 165  1280 162.36  1280 159  C 1280 155.64  1282.64 153  1286 153  Z " fill-rule="nonzero" fill="#ffffff" stroke="none" />
  <path d="M 1286 153.5  C 1289.08 153.5  1291.5 155.92  1291.5 159  C 1291.5 162.08  1289.08 164.5  1286 164.5  C 1282.92 164.5  1280.5 162.08  1280.5 159  C 1280.5 155.92  1282.92 153.5  1286 153.5  Z " stroke-width="1" stroke="#797979" fill="none" />
  <path d="M 1286 162  C 1284.32 162  1283 160.68  1283 159  C 1283 157.32  1284.32 156  1286 156  C 1287.68 156  1289 157.32  1289 159  C 1289 160.68  1287.68 162  1286 162  " fill-rule="nonzero" fill="#797979" stroke="none" />
</svg>