<?xml version="1.0" encoding="utf-8"?>
<svg version="1.1" xmlns:xlink="http://www.w3.org/1999/xlink" width="12px" height="12px" viewBox="1021 115  12 12" xmlns="http://www.w3.org/2000/svg">
  <path d="M 1027 115  C 1030.36 115  1033 117.64  1033 121  C 1033 124.36  1030.36 127  1027 127  C 1023.64 127  1021 124.36  1021 121  C 1021 117.64  1023.64 115  1027 115  Z " fill-rule="nonzero" fill="#f0f0f0" stroke="none" />
  <path d="M 1027 115.5  C 1030.08 115.5  1032.5 117.92  1032.5 121  C 1032.5 124.08  1030.08 126.5  1027 126.5  C 1023.92 126.5  1021.5 124.08  1021.5 121  C 1021.5 117.92  1023.92 115.5  1027 115.5  Z " stroke-width="1" stroke="#797979" fill="none" />
  <path d="M 1027 124  C 1025.32 124  1024 122.68  1024 121  C 1024 119.32  1025.32 118  1027 118  C 1028.68 118  1030 119.32  1030 121  C 1030 122.68  1028.68 124  1027 124  " fill-rule="nonzero" fill="#797979" stroke="none" />
</svg>