<?xml version="1.0" encoding="utf-8"?>
<svg version="1.1" xmlns:xlink="http://www.w3.org/1999/xlink" width="12px" height="12px" viewBox="2116 9311  12 12" xmlns="http://www.w3.org/2000/svg">
  <path d="M 2122 9311  C 2125.36 9311  2128 9313.64  2128 9317  C 2128 9320.36  2125.36 9323  2122 9323  C 2118.64 9323  2116 9320.36  2116 9317  C 2116 9313.64  2118.64 9311  2122 9311  Z " fill-rule="nonzero" fill="#f0f0f0" stroke="none" />
  <path d="M 2122 9311.5  C 2125.08 9311.5  2127.5 9313.92  2127.5 9317  C 2127.5 9320.08  2125.08 9322.5  2122 9322.5  C 2118.92 9322.5  2116.5 9320.08  2116.5 9317  C 2116.5 9313.92  2118.92 9311.5  2122 9311.5  Z " stroke-width="1" stroke="#797979" fill="none" />
  <path d="M 2122 9320  C 2120.32 9320  2119 9318.68  2119 9317  C 2119 9315.32  2120.32 9314  2122 9314  C 2123.68 9314  2125 9315.32  2125 9317  C 2125 9318.68  2123.68 9320  2122 9320  " fill-rule="nonzero" fill="#797979" stroke="none" />
</svg>