<?xml version="1.0" encoding="utf-8"?>
<svg version="1.1" xmlns:xlink="http://www.w3.org/1999/xlink" width="12px" height="12px" viewBox="409 229  12 12" xmlns="http://www.w3.org/2000/svg">
  <path d="M 415 229  C 418.36 229  421 231.64  421 235  C 421 238.36  418.36 241  415 241  C 411.64 241  409 238.36  409 235  C 409 231.64  411.64 229  415 229  Z " fill-rule="nonzero" fill="#f0f0f0" stroke="none" />
  <path d="M 415 229.5  C 418.08 229.5  420.5 231.92  420.5 235  C 420.5 238.08  418.08 240.5  415 240.5  C 411.92 240.5  409.5 238.08  409.5 235  C 409.5 231.92  411.92 229.5  415 229.5  Z " stroke-width="1" stroke="#797979" fill="none" />
  <path d="M 415 238  C 413.32 238  412 236.68  412 235  C 412 233.32  413.32 232  415 232  C 416.68 232  418 233.32  418 235  C 418 236.68  416.68 238  415 238  " fill-rule="nonzero" fill="#797979" stroke="none" />
</svg>