<?xml version="1.0" encoding="utf-8"?>
<svg version="1.1" xmlns:xlink="http://www.w3.org/1999/xlink" width="16px" height="16px" xmlns="http://www.w3.org/2000/svg">
  <g transform="matrix(1 0 0 1 -468 -537 )">
    <path d="M 16 8  C 16 12.411  12.411 16  8 16  C 3.589 16  0 12.411  0 8  C 0 3.589  3.589 0  8 0  C 12.411 0  16 3.589  16 8  Z M 15 8  C 15 4.14  11.859 1  8 1  C 4.14 1  1 4.14  1 8  C 1 11.859  4.14 15  8 15  C 11.859 15  15 11.859  15 8  Z " fill-rule="nonzero" fill="#7f7f7f" stroke="none" transform="matrix(1 0 0 1 468 537 )" />
  </g>
</svg>