<?xml version="1.0" encoding="utf-8"?>
<svg version="1.1" xmlns:xlink="http://www.w3.org/1999/xlink" width="12px" height="12px" viewBox="464 221  12 12" xmlns="http://www.w3.org/2000/svg">
  <path d="M 470 221  C 473.36 221  476 223.64  476 227  C 476 230.36  473.36 233  470 233  C 466.64 233  464 230.36  464 227  C 464 223.64  466.64 221  470 221  Z " fill-rule="nonzero" fill="#ffffff" stroke="none" />
  <path d="M 470 221.5  C 473.08 221.5  475.5 223.92  475.5 227  C 475.5 230.08  473.08 232.5  470 232.5  C 466.92 232.5  464.5 230.08  464.5 227  C 464.5 223.92  466.92 221.5  470 221.5  Z " stroke-width="1" stroke="#797979" fill="none" />
  <path d="M 470 230  C 468.32 230  467 228.68  467 227  C 467 225.32  468.32 224  470 224  C 471.68 224  473 225.32  473 227  C 473 228.68  471.68 230  470 230  " fill-rule="nonzero" fill="#797979" stroke="none" />
</svg>