<?xml version="1.0" encoding="utf-8"?>
<svg version="1.1" xmlns:xlink="http://www.w3.org/1999/xlink" width="12px" height="12px" viewBox="574 222  12 12" xmlns="http://www.w3.org/2000/svg">
  <path d="M 580 222  C 583.36 222  586 224.64  586 228  C 586 231.36  583.36 234  580 234  C 576.64 234  574 231.36  574 228  C 574 224.64  576.64 222  580 222  Z " fill-rule="nonzero" fill="#ffffff" stroke="none" />
  <path d="M 580 222.5  C 583.08 222.5  585.5 224.92  585.5 228  C 585.5 231.08  583.08 233.5  580 233.5  C 576.92 233.5  574.5 231.08  574.5 228  C 574.5 224.92  576.92 222.5  580 222.5  Z " stroke-width="1" stroke="#797979" fill="none" />
  <path d="M 580 231  C 578.32 231  577 229.68  577 228  C 577 226.32  578.32 225  580 225  C 581.68 225  583 226.32  583 228  C 583 229.68  581.68 231  580 231  " fill-rule="nonzero" fill="#797979" stroke="none" />
</svg>