<?xml version="1.0" encoding="utf-8"?>
<svg version="1.1" xmlns:xlink="http://www.w3.org/1999/xlink" width="12px" height="12px" viewBox="515 427  12 12" xmlns="http://www.w3.org/2000/svg">
  <path d="M 521 427  C 524.36 427  527 429.64  527 433  C 527 436.36  524.36 439  521 439  C 517.64 439  515 436.36  515 433  C 515 429.64  517.64 427  521 427  Z " fill-rule="nonzero" fill="#f0f0f0" stroke="none" />
  <path d="M 521 427.5  C 524.08 427.5  526.5 429.92  526.5 433  C 526.5 436.08  524.08 438.5  521 438.5  C 517.92 438.5  515.5 436.08  515.5 433  C 515.5 429.92  517.92 427.5  521 427.5  Z " stroke-width="1" stroke="#797979" fill="none" />
  <path d="M 521 436  C 519.32 436  518 434.68  518 433  C 518 431.32  519.32 430  521 430  C 522.68 430  524 431.32  524 433  C 524 434.68  522.68 436  521 436  " fill-rule="nonzero" fill="#797979" stroke="none" />
</svg>