<?xml version="1.0" encoding="utf-8"?>
<svg version="1.1" xmlns:xlink="http://www.w3.org/1999/xlink" width="12px" height="12px" viewBox="625 427  12 12" xmlns="http://www.w3.org/2000/svg">
  <path d="M 631 427  C 634.36 427  637 429.64  637 433  C 637 436.36  634.36 439  631 439  C 627.64 439  625 436.36  625 433  C 625 429.64  627.64 427  631 427  Z " fill-rule="nonzero" fill="#ffffff" stroke="none" />
  <path d="M 631 427.5  C 634.08 427.5  636.5 429.92  636.5 433  C 636.5 436.08  634.08 438.5  631 438.5  C 627.92 438.5  625.5 436.08  625.5 433  C 625.5 429.92  627.92 427.5  631 427.5  Z " stroke-width="1" stroke="#797979" fill="none" />
  <path d="M 631 436  C 629.32 436  628 434.68  628 433  C 628 431.32  629.32 430  631 430  C 632.68 430  634 431.32  634 433  C 634 434.68  632.68 436  631 436  " fill-rule="nonzero" fill="#797979" stroke="none" />
</svg>