<?xml version="1.0" encoding="utf-8"?>
<svg version="1.1" xmlns:xlink="http://www.w3.org/1999/xlink" width="12px" height="12px" viewBox="1279 705  12 12" xmlns="http://www.w3.org/2000/svg">
  <path d="M 1285 705  C 1288.36 705  1291 707.64  1291 711  C 1291 714.36  1288.36 717  1285 717  C 1281.64 717  1279 714.36  1279 711  C 1279 707.64  1281.64 705  1285 705  Z " fill-rule="nonzero" fill="#f0f0f0" stroke="none" />
  <path d="M 1285 705.5  C 1288.08 705.5  1290.5 707.92  1290.5 711  C 1290.5 714.08  1288.08 716.5  1285 716.5  C 1281.92 716.5  1279.5 714.08  1279.5 711  C 1279.5 707.92  1281.92 705.5  1285 705.5  Z " stroke-width="1" stroke="#797979" fill="none" />
  <path d="M 1285 714  C 1283.32 714  1282 712.68  1282 711  C 1282 709.32  1283.32 708  1285 708  C 1286.68 708  1288 709.32  1288 711  C 1288 712.68  1286.68 714  1285 714  " fill-rule="nonzero" fill="#797979" stroke="none" />
</svg>