<?xml version="1.0" encoding="utf-8"?>
<svg version="1.1" xmlns:xlink="http://www.w3.org/1999/xlink" width="12px" height="12px" viewBox="1371 155  12 12" xmlns="http://www.w3.org/2000/svg">
  <path d="M 1377 155  C 1380.36 155  1383 157.64  1383 161  C 1383 164.36  1380.36 167  1377 167  C 1373.64 167  1371 164.36  1371 161  C 1371 157.64  1373.64 155  1377 155  Z " fill-rule="nonzero" fill="#f0f0f0" stroke="none" />
  <path d="M 1377 155.5  C 1380.08 155.5  1382.5 157.92  1382.5 161  C 1382.5 164.08  1380.08 166.5  1377 166.5  C 1373.92 166.5  1371.5 164.08  1371.5 161  C 1371.5 157.92  1373.92 155.5  1377 155.5  Z " stroke-width="1" stroke="#797979" fill="none" />
  <path d="M 1377 164  C 1375.32 164  1374 162.68  1374 161  C 1374 159.32  1375.32 158  1377 158  C 1378.68 158  1380 159.32  1380 161  C 1380 162.68  1378.68 164  1377 164  " fill-rule="nonzero" fill="#797979" stroke="none" />
</svg>