<?xml version="1.0" encoding="utf-8"?>
<svg version="1.1" xmlns:xlink="http://www.w3.org/1999/xlink" width="12px" height="12px" viewBox="1471 155  12 12" xmlns="http://www.w3.org/2000/svg">
  <path d="M 1477 155  C 1480.36 155  1483 157.64  1483 161  C 1483 164.36  1480.36 167  1477 167  C 1473.64 167  1471 164.36  1471 161  C 1471 157.64  1473.64 155  1477 155  Z " fill-rule="nonzero" fill="#ffffff" stroke="none" />
  <path d="M 1477 155.5  C 1480.08 155.5  1482.5 157.92  1482.5 161  C 1482.5 164.08  1480.08 166.5  1477 166.5  C 1473.92 166.5  1471.5 164.08  1471.5 161  C 1471.5 157.92  1473.92 155.5  1477 155.5  Z " stroke-width="1" stroke="#797979" fill="none" />
  <path d="M 1477 164  C 1475.32 164  1474 162.68  1474 161  C 1474 159.32  1475.32 158  1477 158  C 1478.68 158  1480 159.32  1480 161  C 1480 162.68  1478.68 164  1477 164  " fill-rule="nonzero" fill="#797979" stroke="none" />
</svg>