<?xml version="1.0" encoding="utf-8"?>
<svg version="1.1" xmlns:xlink="http://www.w3.org/1999/xlink" width="12px" height="12px" viewBox="1338 1464  12 12" xmlns="http://www.w3.org/2000/svg">
  <path d="M 1344 1464  C 1347.36 1464  1350 1466.64  1350 1470  C 1350 1473.36  1347.36 1476  1344 1476  C 1340.64 1476  1338 1473.36  1338 1470  C 1338 1466.64  1340.64 1464  1344 1464  Z " fill-rule="nonzero" fill="#ffffff" stroke="none" />
  <path d="M 1344 1464.5  C 1347.08 1464.5  1349.5 1466.92  1349.5 1470  C 1349.5 1473.08  1347.08 1475.5  1344 1475.5  C 1340.92 1475.5  1338.5 1473.08  1338.5 1470  C 1338.5 1466.92  1340.92 1464.5  1344 1464.5  Z " stroke-width="1" stroke="#1890ff" fill="none" />
  <path d="M 1344 1473  C 1342.32 1473  1341 1471.68  1341 1470  C 1341 1468.32  1342.32 1467  1344 1467  C 1345.68 1467  1347 1468.32  1347 1470  C 1347 1471.68  1345.68 1473  1344 1473  " fill-rule="nonzero" fill="#1890ff" stroke="none" />
</svg>