<?xml version="1.0" encoding="utf-8"?>
<svg version="1.1" xmlns:xlink="http://www.w3.org/1999/xlink" width="12px" height="12px" viewBox="1338 1514  12 12" xmlns="http://www.w3.org/2000/svg">
  <path d="M 1344 1514  C 1347.36 1514  1350 1516.64  1350 1520  C 1350 1523.36  1347.36 1526  1344 1526  C 1340.64 1526  1338 1523.36  1338 1520  C 1338 1516.64  1340.64 1514  1344 1514  Z " fill-rule="nonzero" fill="#f0f0f0" stroke="none" />
  <path d="M 1344 1514.5  C 1347.08 1514.5  1349.5 1516.92  1349.5 1520  C 1349.5 1523.08  1347.08 1525.5  1344 1525.5  C 1340.92 1525.5  1338.5 1523.08  1338.5 1520  C 1338.5 1516.92  1340.92 1514.5  1344 1514.5  Z " stroke-width="1" stroke="#1890ff" fill="none" />
  <path d="M 1344 1523  C 1342.32 1523  1341 1521.68  1341 1520  C 1341 1518.32  1342.32 1517  1344 1517  C 1345.68 1517  1347 1518.32  1347 1520  C 1347 1521.68  1345.68 1523  1344 1523  " fill-rule="nonzero" fill="#1890ff" stroke="none" />
</svg>