<?xml version="1.0" encoding="utf-8"?>
<svg version="1.1" xmlns:xlink="http://www.w3.org/1999/xlink" width="12px" height="12px" viewBox="1458 1514  12 12" xmlns="http://www.w3.org/2000/svg">
  <path d="M 1464 1514  C 1467.36 1514  1470 1516.64  1470 1520  C 1470 1523.36  1467.36 1526  1464 1526  C 1460.64 1526  1458 1523.36  1458 1520  C 1458 1516.64  1460.64 1514  1464 1514  Z " fill-rule="nonzero" fill="#ffffff" stroke="none" />
  <path d="M 1464 1514.5  C 1467.08 1514.5  1469.5 1516.92  1469.5 1520  C 1469.5 1523.08  1467.08 1525.5  1464 1525.5  C 1460.92 1525.5  1458.5 1523.08  1458.5 1520  C 1458.5 1516.92  1460.92 1514.5  1464 1514.5  Z " stroke-width="1" stroke="#1890ff" fill="none" />
  <path d="M 1464 1523  C 1462.32 1523  1461 1521.68  1461 1520  C 1461 1518.32  1462.32 1517  1464 1517  C 1465.68 1517  1467 1518.32  1467 1520  C 1467 1521.68  1465.68 1523  1464 1523  " fill-rule="nonzero" fill="#1890ff" stroke="none" />
</svg>