<?xml version="1.0" encoding="utf-8"?>
<svg version="1.1" xmlns:xlink="http://www.w3.org/1999/xlink" width="12px" height="12px" viewBox="1601 155  12 12" xmlns="http://www.w3.org/2000/svg">
  <path d="M 1607 155  C 1610.36 155  1613 157.64  1613 161  C 1613 164.36  1610.36 167  1607 167  C 1603.64 167  1601 164.36  1601 161  C 1601 157.64  1603.64 155  1607 155  Z " fill-rule="nonzero" fill="#f0f0f0" stroke="none" />
  <path d="M 1607 155.5  C 1610.08 155.5  1612.5 157.92  1612.5 161  C 1612.5 164.08  1610.08 166.5  1607 166.5  C 1603.92 166.5  1601.5 164.08  1601.5 161  C 1601.5 157.92  1603.92 155.5  1607 155.5  Z " stroke-width="1" stroke="#797979" fill="none" />
  <path d="M 1607 164  C 1605.32 164  1604 162.68  1604 161  C 1604 159.32  1605.32 158  1607 158  C 1608.68 158  1610 159.32  1610 161  C 1610 162.68  1608.68 164  1607 164  " fill-rule="nonzero" fill="#797979" stroke="none" />
</svg>