<?xml version="1.0" encoding="utf-8"?>
<svg version="1.1" xmlns:xlink="http://www.w3.org/1999/xlink" width="12px" height="12px" viewBox="1701 155  12 12" xmlns="http://www.w3.org/2000/svg">
  <path d="M 1707 155  C 1710.36 155  1713 157.64  1713 161  C 1713 164.36  1710.36 167  1707 167  C 1703.64 167  1701 164.36  1701 161  C 1701 157.64  1703.64 155  1707 155  Z " fill-rule="nonzero" fill="#f0f0f0" stroke="none" />
  <path d="M 1707 155.5  C 1710.08 155.5  1712.5 157.92  1712.5 161  C 1712.5 164.08  1710.08 166.5  1707 166.5  C 1703.92 166.5  1701.5 164.08  1701.5 161  C 1701.5 157.92  1703.92 155.5  1707 155.5  Z " stroke-width="1" stroke="#797979" fill="none" />
  <path d="M 1707 164  C 1705.32 164  1704 162.68  1704 161  C 1704 159.32  1705.32 158  1707 158  C 1708.68 158  1710 159.32  1710 161  C 1710 162.68  1708.68 164  1707 164  " fill-rule="nonzero" fill="#797979" stroke="none" />
</svg>