<?xml version="1.0" encoding="utf-8"?>
<svg version="1.1" xmlns:xlink="http://www.w3.org/1999/xlink" width="16px" height="16px" xmlns="http://www.w3.org/2000/svg">
  <g transform="matrix(1 0 0 1 -2651 -46 )">
    <path d="M 13.6 15.2  L 10.4 15.2  C 9.51634440027073 15.2  8.8 14.4836555997293  8.8 13.6  C 8.8 14.6666666666667  8.8 12.5333333333333  8.8 13.6  L 8.8 10.4  C 8.8 9.51634440027073  9.51634440027073 8.8  10.4 8.8  L 13.6 8.8  C 14.6666666666667 8.79999999999999  12.5333333333333 8.8  13.6 8.8  C 14.4836555997293 8.8  15.2 9.51634440027073  15.2 10.4  L 15.2 13.6  C 15.2 14.4836555997293  14.4836555997293 15.2  13.6 15.2  Z M 10.4 10.4  L 10.4 13.6  L 13.6 13.6  L 13.6 10.4  L 10.4 10.4  Z M 5.6 15.2  L 2.4 15.2  C 1.51634440027073 15.2  0.799999999999999 14.4836555997293  0.799999999999999 13.6  L 0.799999999999999 10.4  C 0.799999999999999 9.51634440027073  1.51634440027073 8.8  2.4 8.8  L 5.6 8.8  C 6.48365559972927 8.8  7.2 9.51634440027073  7.2 10.4  L 7.2 13.6  C 7.2 14.4836555997293  6.48365559972927 15.2  5.6 15.2  Z M 2.4 10.4  L 2.4 13.6  L 5.6 13.6  L 5.6 10.4  L 2.4 10.4  Z M 13.6 7.2  L 10.4 7.2  C 9.51634440027073 7.2  8.8 6.48365559972927  8.8 5.6  L 8.8 2.4  C 8.8 1.51634440027073  9.51634440027073 0.799999999999999  10.4 0.799999999999999  L 13.6 0.799999999999999  C 14.4836555997293 0.799999999999999  15.2 1.51634440027073  15.2 2.4  L 15.2 5.6  C 15.2 6.48365559972927  14.4836555997293 7.2  13.6 7.2  Z M 10.4 2.4  L 10.4 5.6  L 13.6 5.6  L 13.6 2.4  L 10.4 2.4  Z M 5.6 7.2  L 2.4 7.2  C 1.51634440027073 7.2  0.799999999999999 6.48365559972927  0.799999999999999 5.6  L 0.799999999999999 2.4  C 0.799999999999999 1.51634440027073  1.51634440027073 0.799999999999999  2.4 0.799999999999999  L 5.6 0.799999999999999  C 6.48365559972927 0.799999999999999  7.2 1.51634440027073  7.2 2.4  L 7.2 5.6  C 7.2 6.48365559972927  6.48365559972927 7.2  5.6 7.2  Z M 2.4 2.4  L 2.4 5.6  L 5.6 5.6  L 5.6 2.4  L 2.4 2.4  Z " fill-rule="nonzero" fill="#ffffff" stroke="none" transform="matrix(1 0 0 1 2651 46 )" />
  </g>
</svg>