<?xml version="1.0" encoding="utf-8"?>
<svg version="1.1" xmlns:xlink="http://www.w3.org/1999/xlink" width="172px" height="306px" xmlns="http://www.w3.org/2000/svg">
  <defs>
    <mask fill="white" id="clip37">
      <path d="M 931 402  C 928.78 402  927 400.22  927 398  L 927 100  C 927 97.78  928.78 96  931 96  L 1095 96  C 1097.22 96  1099 97.78  1099 100  L 1099 398  C 1099 400.22  1097.22 402  1095 402  " fill-rule="evenodd" />
    </mask>
  </defs>
  <g transform="matrix(1 0 0 1 -927 -96 )">
    <path d="M 927 96  L 1099 96  L 1099 402  L 927 402  L 927 96  " fill-rule="nonzero" fill="#cccccc" stroke="none" mask="url(#clip37)" />
    <path d="M 939 108  L 1087 108  L 1087 390  L 939 390  L 939 108  " fill-rule="nonzero" fill="#ffffff" stroke="none" mask="url(#clip37)" />
    <path d="M 1029.34 167.7  C 1022.116 167.7  1016.44 162.024  1016.44 154.8  C 1016.44 147.576  1022.116 141.9  1029.34 141.9  C 1036.564 141.9  1042.24 147.576  1042.24 154.8  C 1042.24 162.024  1036.564 167.7  1029.34 167.7  " fill-rule="nonzero" fill="#cccccc" stroke="none" mask="url(#clip37)" />
    <path d="M 944 386  L 944 235.85  L 978.75 167.6  L 1027.4 222.2  L 1055.2 208.55  L 1083 222.2  L 1083 386  L 944 386  " fill-rule="nonzero" fill="#169bd5" stroke="none" mask="url(#clip37)" />
  </g>
</svg>