<?xml version="1.0" encoding="utf-8"?>
<svg version="1.1" xmlns:xlink="http://www.w3.org/1999/xlink" width="38px" height="40px" xmlns="http://www.w3.org/2000/svg">
  <g transform="matrix(1 0 0 1 -994 -209 )">
    <path d="M 25.2222222265625 5.2666666796875  C 25.2099862212316 8.12986525038875  22.8854469425791 10.4444705985598  20.0222222265625 10.444444453125  C 17.155555546875 10.444444453125  14.8666666796875 8.1111111328125  14.8666666796875 5.244444453125  C 14.8666666796875 2.3777777734375  17.2 0.08888890625  20.0666666796875 0.08888890625  C 22.9175922373375 0.101124753228546  25.2222484838707 2.41571486485021  25.2222222265625 5.2666666796875  Z M 13.68888890625 9.844444453125  C 13.68888890625 12.444444453125  11.5777778125 14.555555546875  8.955555546875 14.555555546875  C 6.35009023878215 14.5433231783065  4.24441573848124 12.4277162491409  4.244444453125 9.8222222265625  C 4.244444453125 7.2222222265625  6.3777777734375 5.1111111328125  8.9777777734375 5.11111109375  C 11.5777777734375 5.1111110546875  13.6888888671875 7.2222221875  13.68888890625 9.844444453125  Z M 4.27999047815607 25.2444657446565  C 4.27554920349327 25.2444657446565  4.27110793166762 25.2444586474703  4.2666666796875 25.244444453125  C 1.97155726685429 25.2444444535504  0.111051675593119 23.3839388622892  0.111051675593119 21.0888889066754  C 0.111051675593119 21.0814814579611  0.111071481716212 21.0740740224864  0.11111109375 21.0666666796875  C 0.116024603154119 18.7677370302948  1.98105557793994 16.9066879321565  4.27999047815607 16.9066879321565  C 6.58240424481672 16.9066879321565  8.44887938440607 18.7731630717459  8.44887938440607 21.0755768384065  C 8.44887938440607 23.3779906050672  6.58240424481672 25.2444657446565  4.27999047815607 25.2444657446565  Z M 12.51111109375 32.28888890625  C 12.51111109375 34.2666666796875  10.91111109375 35.844444453125  8.955555546875 35.844444453125  C 7.00026656400623 35.8395378196537  5.41778890130145 34.2530840796153  5.41778890130145 32.297788940364  C 5.41778890130145 30.3390190204395  7.00568566106453 28.7511222606765  8.96445558098895 28.7511222606765  C 10.9197507202403 28.7511222606765  12.5062044602787 30.3335999233812  12.51111109375 32.28888890625  Z M 20.0333333398438 39.8889089623496  C 20.0296296263663 39.8889089623496  20.0259259159051 39.8889022769722  20.0222222265625 39.88888890625  C 18.3267500085826 39.8827680667527  16.9555354907754 38.506594379674  16.9555354907754 36.8111111132813  C 16.9555354907754 35.1112902981788  18.3335125247413 33.7333132642129  20.0333333398438 33.7333132642129  C 20.0370370533202 33.7333132642129  20.0407407637834 33.7333199495903  20.044444453125 33.7333333203125  C 21.7399166711049 33.7394541598098  23.1111311889121 35.1156278468885  23.1111311889121 36.8111111132813  C 23.1111311889121 38.5109319283837  21.7331541549462 39.8889089623496  20.0333333398438 39.8889089623496  Z M 33.755555546875 32.1777777734375  C 33.7333333203125 33.555555546875  32.6222222265625 34.6888888671875  31.244444453125 34.6666666796875  C 29.8666666796875 34.6666666796875  28.755555546875 33.533333359375  28.7777777734375 32.155555546875  C 28.7777777734375 30.7777777734375  29.91111109375 29.666666640625  31.28888890625 29.68888890625  C 32.6666666796875 29.68888890625  33.7555555859375 30.8  33.755555546875 32.1777777734375  Z M 37.88888890625 21.11111109375  C 37.88888890625 22.2444444140625  36.9777778125 23.155555546875  35.844444453125 23.155555546875  C 34.7111111328125 23.155555546875  33.8 22.244444453125  33.8 21.11111109375  C 33.8 19.977777734375  34.71111109375 19.066666640625  35.844444453125 19.0666666796875  C 36.9777778125 19.06666671875  37.88888890625 19.9777777734375  37.88888890625 21.11111109375  Z M 31.244444453125 8.4  C 30.355555546875 8.4  29.644444453125 9.11111109375  29.644444453125 9.9777777734375  C 29.6444187348239 9.98146838815623  29.6444058755563 9.98515908128276  29.6444058755563 9.98884978561027  C 29.6444058755563 10.8663688977075  30.3557756697091 11.5777386918603  31.2332947818063 11.5777386918603  C 32.1108138939035 11.5777386918603  32.8221836880563 10.8663688977075  32.8221836880563 9.98884978561027  C 32.8221836880563 9.11568176940285  32.1175909707297 8.406127260596  31.244444453125 8.4  Z " fill-rule="nonzero" fill="#8400ff" stroke="none" transform="matrix(1 0 0 1 994 209 )" />
  </g>
</svg>