<?xml version="1.0" encoding="utf-8"?>
<svg version="1.1" xmlns:xlink="http://www.w3.org/1999/xlink" width="172px" height="172px" xmlns="http://www.w3.org/2000/svg">
  <defs>
    <mask fill="white" id="clip40">
      <path d="M 1682 268  C 1679.78 268  1678 266.22  1678 264  L 1678 100  C 1678 97.78  1679.78 96  1682 96  L 1846 96  C 1848.22 96  1850 97.78  1850 100  L 1850 264  C 1850 266.22  1848.22 268  1846 268  " fill-rule="evenodd" />
    </mask>
  </defs>
  <g transform="matrix(1 0 0 1 -1678 -96 )">
    <path d="M 1678 96  L 1850 96  L 1850 268  L 1678 268  L 1678 96  " fill-rule="nonzero" fill="#cccccc" stroke="none" mask="url(#clip40)" />
    <path d="M 1690 108  L 1838 108  L 1838 256  L 1690 256  L 1690 108  " fill-rule="nonzero" fill="#ffffff" stroke="none" mask="url(#clip40)" />
    <path d="M 1780.34 147.6  C 1773.116 147.6  1767.44 141.924  1767.44 134.7  C 1767.44 127.476  1773.116 121.8  1780.34 121.8  C 1787.564 121.8  1793.24 127.476  1793.24 134.7  C 1793.24 141.924  1787.564 147.6  1780.34 147.6  " fill-rule="nonzero" fill="#cccccc" stroke="none" mask="url(#clip40)" />
    <path d="M 1695 252  L 1695 175.55  L 1729.75 140.8  L 1778.4 168.6  L 1806.2 161.65  L 1834 168.6  L 1834 252  L 1695 252  " fill-rule="nonzero" fill="#169bd5" stroke="none" mask="url(#clip40)" />
  </g>
</svg>