<?xml version="1.0" encoding="utf-8"?>
<svg version="1.1" xmlns:xlink="http://www.w3.org/1999/xlink" width="12px" height="12px" viewBox="515 854  12 12" xmlns="http://www.w3.org/2000/svg">
  <path d="M 521 854  C 524.36 854  527 856.64  527 860  C 527 863.36  524.36 866  521 866  C 517.64 866  515 863.36  515 860  C 515 856.64  517.64 854  521 854  Z " fill-rule="nonzero" fill="#ffffff" stroke="none" />
  <path d="M 521 854.5  C 524.08 854.5  526.5 856.92  526.5 860  C 526.5 863.08  524.08 865.5  521 865.5  C 517.92 865.5  515.5 863.08  515.5 860  C 515.5 856.92  517.92 854.5  521 854.5  Z " stroke-width="1" stroke="#797979" fill="none" />
  <path d="M 521 863  C 519.32 863  518 861.68  518 860  C 518 858.32  519.32 857  521 857  C 522.68 857  524 858.32  524 860  C 524 861.68  522.68 863  521 863  " fill-rule="nonzero" fill="#797979" stroke="none" />
</svg>