<?xml version="1.0" encoding="utf-8"?>
<svg version="1.1" xmlns:xlink="http://www.w3.org/1999/xlink" width="12px" height="12px" viewBox="515 813  12 12" xmlns="http://www.w3.org/2000/svg">
  <path d="M 521 813  C 524.36 813  527 815.64  527 819  C 527 822.36  524.36 825  521 825  C 517.64 825  515 822.36  515 819  C 515 815.64  517.64 813  521 813  Z " fill-rule="nonzero" fill="#f0f0f0" stroke="none" />
  <path d="M 521 813.5  C 524.08 813.5  526.5 815.92  526.5 819  C 526.5 822.08  524.08 824.5  521 824.5  C 517.92 824.5  515.5 822.08  515.5 819  C 515.5 815.92  517.92 813.5  521 813.5  Z " stroke-width="1" stroke="#797979" fill="none" />
  <path d="M 521 822  C 519.32 822  518 820.68  518 819  C 518 817.32  519.32 816  521 816  C 522.68 816  524 817.32  524 819  C 524 820.68  522.68 822  521 822  " fill-rule="nonzero" fill="#797979" stroke="none" />
</svg>