<?xml version="1.0" encoding="utf-8"?>
<svg version="1.1" xmlns:xlink="http://www.w3.org/1999/xlink" width="12px" height="12px" viewBox="1305 350  12 12" xmlns="http://www.w3.org/2000/svg">
  <path d="M 1311 350  C 1314.36 350  1317 352.64  1317 356  C 1317 359.36  1314.36 362  1311 362  C 1307.64 362  1305 359.36  1305 356  C 1305 352.64  1307.64 350  1311 350  Z " fill-rule="nonzero" fill="#ffffff" stroke="none" />
  <path d="M 1311 350.5  C 1314.08 350.5  1316.5 352.92  1316.5 356  C 1316.5 359.08  1314.08 361.5  1311 361.5  C 1307.92 361.5  1305.5 359.08  1305.5 356  C 1305.5 352.92  1307.92 350.5  1311 350.5  Z " stroke-width="1" stroke="#797979" fill="none" />
  <path d="M 1311 359  C 1309.32 359  1308 357.68  1308 356  C 1308 354.32  1309.32 353  1311 353  C 1312.68 353  1314 354.32  1314 356  C 1314 357.68  1312.68 359  1311 359  " fill-rule="nonzero" fill="#797979" stroke="none" />
</svg>