<?xml version="1.0" encoding="utf-8"?>
<svg version="1.1" xmlns:xlink="http://www.w3.org/1999/xlink" width="12px" height="12px" viewBox="515 416  12 12" xmlns="http://www.w3.org/2000/svg">
  <path d="M 521 416  C 524.36 416  527 418.64  527 422  C 527 425.36  524.36 428  521 428  C 517.64 428  515 425.36  515 422  C 515 418.64  517.64 416  521 416  Z " fill-rule="nonzero" fill="#ffffff" stroke="none" />
  <path d="M 521 416.5  C 524.08 416.5  526.5 418.92  526.5 422  C 526.5 425.08  524.08 427.5  521 427.5  C 517.92 427.5  515.5 425.08  515.5 422  C 515.5 418.92  517.92 416.5  521 416.5  Z " stroke-width="1" stroke="#797979" fill="none" />
  <path d="M 521 425  C 519.32 425  518 423.68  518 422  C 518 420.32  519.32 419  521 419  C 522.68 419  524 420.32  524 422  C 524 423.68  522.68 425  521 425  " fill-rule="nonzero" fill="#797979" stroke="none" />
</svg>