<?xml version="1.0" encoding="utf-8"?>
<svg version="1.1" xmlns:xlink="http://www.w3.org/1999/xlink" width="6px" height="6px" xmlns="http://www.w3.org/2000/svg">
  <g transform="matrix(1 0 0 1 -590 -632 )">
    <path d="M 593 632  C 594.68 632  596 633.32  596 635  C 596 636.68  594.68 638  593 638  C 591.32 638  590 636.68  590 635  C 590 633.32  591.32 632  593 632  Z " fill-rule="nonzero" fill="#ffffff" stroke="none" />
    <path d="M 593 632.5  C 594.4 632.5  595.5 633.6  595.5 635  C 595.5 636.4  594.4 637.5  593 637.5  C 591.6 637.5  590.5 636.4  590.5 635  C 590.5 633.6  591.6 632.5  593 632.5  Z " stroke-width="1" stroke="#797979" fill="none" />
  </g>
</svg>