<?xml version="1.0" encoding="utf-8"?>
<svg version="1.1" xmlns:xlink="http://www.w3.org/1999/xlink" width="300px" height="137px" xmlns="http://www.w3.org/2000/svg">
  <g transform="matrix(1 0 0 1 -1354 -239 )">
    <path d="M 1354 239  L 1654 239  L 1654 376  L 1354 376  L 1354 239  " fill-rule="nonzero" fill="#cccccc" stroke="none" />
    <path d="M 1364 249  L 1644 249  L 1644 366  L 1364 366  L 1364 249  " fill-rule="nonzero" fill="#ffffff" stroke="none" />
    <path d="M 1520.275 280.1  C 1514.521 280.1  1510 275.579  1510 269.825  C 1510 264.071  1514.521 259.55  1520.275 259.55  C 1526.029 259.55  1530.55 264.071  1530.55 269.825  C 1530.55 275.579  1526.029 280.1  1520.275 280.1  " fill-rule="nonzero" fill="#cccccc" stroke="none" />
    <path d="M 1368 363  L 1368 302.5  L 1436.25 275  L 1531.8 332.86  L 1586.4 291.5  L 1641 332.86  L 1641 363  L 1368 363  " fill-rule="nonzero" fill="#169bd5" stroke="none" />
  </g>
</svg>