<?xml version="1.0" encoding="utf-8"?>
<svg version="1.1" xmlns:xlink="http://www.w3.org/1999/xlink" width="12px" height="12px" viewBox="2173 1991  12 12" xmlns="http://www.w3.org/2000/svg">
  <path d="M 2179 1991  C 2182.36 1991  2185 1993.64  2185 1997  C 2185 2000.36  2182.36 2003  2179 2003  C 2175.64 2003  2173 2000.36  2173 1997  C 2173 1993.64  2175.64 1991  2179 1991  Z " fill-rule="nonzero" fill="#ffffff" stroke="none" />
  <path d="M 2179 1991.5  C 2182.08 1991.5  2184.5 1993.92  2184.5 1997  C 2184.5 2000.08  2182.08 2002.5  2179 2002.5  C 2175.92 2002.5  2173.5 2000.08  2173.5 1997  C 2173.5 1993.92  2175.92 1991.5  2179 1991.5  Z " stroke-width="1" stroke="#797979" fill="none" />
  <path d="M 2179 2000  C 2177.32 2000  2176 1998.68  2176 1997  C 2176 1995.32  2177.32 1994  2179 1994  C 2180.68 1994  2182 1995.32  2182 1997  C 2182 1998.68  2180.68 2000  2179 2000  " fill-rule="nonzero" fill="#797979" stroke="none" />
</svg>