<?xml version="1.0" encoding="utf-8"?>
<svg version="1.1" xmlns:xlink="http://www.w3.org/1999/xlink" width="12px" height="12px" viewBox="2073 1991  12 12" xmlns="http://www.w3.org/2000/svg">
  <path d="M 2079 1991  C 2082.36 1991  2085 1993.64  2085 1997  C 2085 2000.36  2082.36 2003  2079 2003  C 2075.64 2003  2073 2000.36  2073 1997  C 2073 1993.64  2075.64 1991  2079 1991  Z " fill-rule="nonzero" fill="#ffffff" stroke="none" />
  <path d="M 2079 1991.5  C 2082.08 1991.5  2084.5 1993.92  2084.5 1997  C 2084.5 2000.08  2082.08 2002.5  2079 2002.5  C 2075.92 2002.5  2073.5 2000.08  2073.5 1997  C 2073.5 1993.92  2075.92 1991.5  2079 1991.5  Z " stroke-width="1" stroke="#797979" fill="none" />
  <path d="M 2079 2000  C 2077.32 2000  2076 1998.68  2076 1997  C 2076 1995.32  2077.32 1994  2079 1994  C 2080.68 1994  2082 1995.32  2082 1997  C 2082 1998.68  2080.68 2000  2079 2000  " fill-rule="nonzero" fill="#797979" stroke="none" />
</svg>