<?xml version="1.0" encoding="utf-8"?>
<svg version="1.1" xmlns:xlink="http://www.w3.org/1999/xlink" width="12px" height="12px" viewBox="520 628  12 12" xmlns="http://www.w3.org/2000/svg">
  <path d="M 526 628  C 529.36 628  532 630.64  532 634  C 532 637.36  529.36 640  526 640  C 522.64 640  520 637.36  520 634  C 520 630.64  522.64 628  526 628  Z " fill-rule="nonzero" fill="#ffffff" stroke="none" />
  <path d="M 526 628.5  C 529.08 628.5  531.5 630.92  531.5 634  C 531.5 637.08  529.08 639.5  526 639.5  C 522.92 639.5  520.5 637.08  520.5 634  C 520.5 630.92  522.92 628.5  526 628.5  Z " stroke-width="1" stroke="#797979" fill="none" />
  <path d="M 526 637  C 524.32 637  523 635.68  523 634  C 523 632.32  524.32 631  526 631  C 527.68 631  529 632.32  529 634  C 529 635.68  527.68 637  526 637  " fill-rule="nonzero" fill="#797979" stroke="none" />
</svg>