<?xml version="1.0" encoding="utf-8"?>
<svg version="1.1" xmlns:xlink="http://www.w3.org/1999/xlink" width="12px" height="12px" viewBox="515 262  12 12" xmlns="http://www.w3.org/2000/svg">
  <path d="M 521 262  C 524.36 262  527 264.64  527 268  C 527 271.36  524.36 274  521 274  C 517.64 274  515 271.36  515 268  C 515 264.64  517.64 262  521 262  Z " fill-rule="nonzero" fill="#f0f0f0" stroke="none" />
  <path d="M 521 262.5  C 524.08 262.5  526.5 264.92  526.5 268  C 526.5 271.08  524.08 273.5  521 273.5  C 517.92 273.5  515.5 271.08  515.5 268  C 515.5 264.92  517.92 262.5  521 262.5  Z " stroke-width="1" stroke="#797979" fill="none" />
  <path d="M 521 271  C 519.32 271  518 269.68  518 268  C 518 266.32  519.32 265  521 265  C 522.68 265  524 266.32  524 268  C 524 269.68  522.68 271  521 271  " fill-rule="nonzero" fill="#797979" stroke="none" />
</svg>