<?xml version="1.0" encoding="utf-8"?>
<svg version="1.1" xmlns:xlink="http://www.w3.org/1999/xlink" width="12px" height="12px" viewBox="520 663  12 12" xmlns="http://www.w3.org/2000/svg">
  <path d="M 526 663  C 529.36 663  532 665.64  532 669  C 532 672.36  529.36 675  526 675  C 522.64 675  520 672.36  520 669  C 520 665.64  522.64 663  526 663  Z " fill-rule="nonzero" fill="#ffffff" stroke="none" />
  <path d="M 526 663.5  C 529.08 663.5  531.5 665.92  531.5 669  C 531.5 672.08  529.08 674.5  526 674.5  C 522.92 674.5  520.5 672.08  520.5 669  C 520.5 665.92  522.92 663.5  526 663.5  Z " stroke-width="1" stroke="#797979" fill="none" />
  <path d="M 526 672  C 524.32 672  523 670.68  523 669  C 523 667.32  524.32 666  526 666  C 527.68 666  529 667.32  529 669  C 529 670.68  527.68 672  526 672  " fill-rule="nonzero" fill="#797979" stroke="none" />
</svg>