<?xml version="1.0" encoding="utf-8"?>
<svg version="1.1" xmlns:xlink="http://www.w3.org/1999/xlink" width="12px" height="12px" viewBox="515 295  12 12" xmlns="http://www.w3.org/2000/svg">
  <path d="M 521 295  C 524.36 295  527 297.64  527 301  C 527 304.36  524.36 307  521 307  C 517.64 307  515 304.36  515 301  C 515 297.64  517.64 295  521 295  Z " fill-rule="nonzero" fill="#f0f0f0" stroke="none" />
  <path d="M 521 295.5  C 524.08 295.5  526.5 297.92  526.5 301  C 526.5 304.08  524.08 306.5  521 306.5  C 517.92 306.5  515.5 304.08  515.5 301  C 515.5 297.92  517.92 295.5  521 295.5  Z " stroke-width="1" stroke="#797979" fill="none" />
  <path d="M 521 304  C 519.32 304  518 302.68  518 301  C 518 299.32  519.32 298  521 298  C 522.68 298  524 299.32  524 301  C 524 302.68  522.68 304  521 304  " fill-rule="nonzero" fill="#797979" stroke="none" />
</svg>