<?xml version="1.0" encoding="utf-8"?>
<svg version="1.1" xmlns:xlink="http://www.w3.org/1999/xlink" width="12px" height="12px" viewBox="515 951  12 12" xmlns="http://www.w3.org/2000/svg">
  <path d="M 521 951  C 524.36 951  527 953.64  527 957  C 527 960.36  524.36 963  521 963  C 517.64 963  515 960.36  515 957  C 515 953.64  517.64 951  521 951  Z " fill-rule="nonzero" fill="#f0f0f0" stroke="none" />
  <path d="M 521 951.5  C 524.08 951.5  526.5 953.92  526.5 957  C 526.5 960.08  524.08 962.5  521 962.5  C 517.92 962.5  515.5 960.08  515.5 957  C 515.5 953.92  517.92 951.5  521 951.5  Z " stroke-width="1" stroke="#797979" fill="none" />
  <path d="M 521 960  C 519.32 960  518 958.68  518 957  C 518 955.32  519.32 954  521 954  C 522.68 954  524 955.32  524 957  C 524 958.68  522.68 960  521 960  " fill-rule="nonzero" fill="#797979" stroke="none" />
</svg>