<?xml version="1.0" encoding="utf-8"?>
<svg version="1.1" xmlns:xlink="http://www.w3.org/1999/xlink" width="12px" height="12px" viewBox="1295 488  12 12" xmlns="http://www.w3.org/2000/svg">
  <path d="M 1301 488  C 1304.36 488  1307 490.64  1307 494  C 1307 497.36  1304.36 500  1301 500  C 1297.64 500  1295 497.36  1295 494  C 1295 490.64  1297.64 488  1301 488  Z " fill-rule="nonzero" fill="#ffffff" stroke="none" />
  <path d="M 1301 488.5  C 1304.08 488.5  1306.5 490.92  1306.5 494  C 1306.5 497.08  1304.08 499.5  1301 499.5  C 1297.92 499.5  1295.5 497.08  1295.5 494  C 1295.5 490.92  1297.92 488.5  1301 488.5  Z " stroke-width="1" stroke="#797979" fill="none" />
  <path d="M 1301 497  C 1299.32 497  1298 495.68  1298 494  C 1298 492.32  1299.32 491  1301 491  C 1302.68 491  1304 492.32  1304 494  C 1304 495.68  1302.68 497  1301 497  " fill-rule="nonzero" fill="#797979" stroke="none" />
</svg>