<?xml version="1.0" encoding="utf-8"?>
<svg version="1.1" xmlns:xlink="http://www.w3.org/1999/xlink" width="33px" height="40px" xmlns="http://www.w3.org/2000/svg">
  <defs>
    <filter x="362px" y="267px" width="33px" height="40px" filterUnits="userSpaceOnUse" id="filter1721">
      <feOffset dx="1" dy="1" in="SourceAlpha" result="shadowOffsetInner" />
      <feGaussianBlur stdDeviation="2.5" in="shadowOffsetInner" result="shadowGaussian" />
      <feComposite in2="shadowGaussian" operator="atop" in="SourceAlpha" result="shadowComposite" />
      <feColorMatrix type="matrix" values="0 0 0 0 0  0 0 0 0 0  0 0 0 0 0  0 0 0 0.698039215686274 0  " in="shadowComposite" />
    </filter>
    <g id="widget1722">
      <path d="M 377.5 300.051074642438  C 373.1 292.916045933808  366.5 288.63502870863  366.5 281.5  C 366.5 277.785714285714  368.7 271.5  377.5 271.5  C 386.3 271.5  388.5 277.785714285714  388.5 281.5  C 388.5 288.63502870863  381.9 292.916045933808  377.5 300.051074642438  Z " fill-rule="nonzero" fill="#0033cc" stroke="none" />
      <path d="M 377.5 301  C 372.9 293.5  366 289  366 281.5  C 366 277.6  368.3 271  377.5 271  C 386.7 271  389 277.6  389 281.5  C 389 289  382.1 293.5  377.5 301  Z M 377.5 299.102149284875  C 381.7 292.332091867616  388 288.27005741726  388 281.5  C 388 277.971428571429  385.9 272  377.5 272  C 369.1 272  367 277.971428571429  367 281.5  C 367 288.27005741726  373.3 292.332091867616  377.5 299.102149284875  Z " fill-rule="nonzero" fill="#ffffff" stroke="none" />
    </g>
  </defs>
  <g transform="matrix(1 0 0 1 -362 -267 )">
    <use xlink:href="#widget1722" filter="url(#filter1721)" />
    <use xlink:href="#widget1722" />
  </g>
</svg>