<?xml version="1.0" encoding="utf-8"?>
<svg version="1.1" xmlns:xlink="http://www.w3.org/1999/xlink" width="12px" height="12px" viewBox="515 992  12 12" xmlns="http://www.w3.org/2000/svg">
  <path d="M 521 992  C 524.36 992  527 994.64  527 998  C 527 1001.36  524.36 1004  521 1004  C 517.64 1004  515 1001.36  515 998  C 515 994.64  517.64 992  521 992  Z " fill-rule="nonzero" fill="#ffffff" stroke="none" />
  <path d="M 521 992.5  C 524.08 992.5  526.5 994.92  526.5 998  C 526.5 1001.08  524.08 1003.5  521 1003.5  C 517.92 1003.5  515.5 1001.08  515.5 998  C 515.5 994.92  517.92 992.5  521 992.5  Z " stroke-width="1" stroke="#797979" fill="none" />
  <path d="M 521 1001  C 519.32 1001  518 999.68  518 998  C 518 996.32  519.32 995  521 995  C 522.68 995  524 996.32  524 998  C 524 999.68  522.68 1001  521 1001  " fill-rule="nonzero" fill="#797979" stroke="none" />
</svg>