<?xml version="1.0" encoding="utf-8"?>
<svg version="1.1" xmlns:xlink="http://www.w3.org/1999/xlink" width="12px" height="12px" viewBox="1188 129  12 12" xmlns="http://www.w3.org/2000/svg">
  <path d="M 1194 129  C 1197.36 129  1200 131.64  1200 135  C 1200 138.36  1197.36 141  1194 141  C 1190.64 141  1188 138.36  1188 135  C 1188 131.64  1190.64 129  1194 129  Z " fill-rule="nonzero" fill="#f0f0f0" stroke="none" />
  <path d="M 1194 129.5  C 1197.08 129.5  1199.5 131.92  1199.5 135  C 1199.5 138.08  1197.08 140.5  1194 140.5  C 1190.92 140.5  1188.5 138.08  1188.5 135  C 1188.5 131.92  1190.92 129.5  1194 129.5  Z " stroke-width="1" stroke="#797979" fill="none" />
  <path d="M 1194 138  C 1192.32 138  1191 136.68  1191 135  C 1191 133.32  1192.32 132  1194 132  C 1195.68 132  1197 133.32  1197 135  C 1197 136.68  1195.68 138  1194 138  " fill-rule="nonzero" fill="#797979" stroke="none" />
</svg>