<?xml version="1.0" encoding="utf-8"?>
<svg version="1.1" xmlns:xlink="http://www.w3.org/1999/xlink" width="210px" height="95px" xmlns="http://www.w3.org/2000/svg">
  <defs>
    <linearGradient gradientUnits="userSpaceOnUse" x1="710" y1="184" x2="710" y2="279" id="LinearGradient792">
      <stop id="Stop793" stop-color="#ffffff" offset="0" />
      <stop id="Stop794" stop-color="#f2f2f2" offset="0" />
      <stop id="Stop795" stop-color="#e4e4e4" offset="1" />
      <stop id="Stop796" stop-color="#ffffff" offset="1" />
    </linearGradient>
  </defs>
  <g transform="matrix(1 0 0 1 -605 -184 )">
    <path d="M 615.5 278.5  L 814.5 278.5  L 814.5 194.5  L 809.5 194.5  L 809.5 189.5  L 804.5 189.5  L 804.5 184.5  L 605.5 184.5  L 605.5 268.5  L 610.5 268.5  L 610.5 273.5  L 615.5 273.5  L 615.5 278.5  Z " fill-rule="nonzero" fill="url(#LinearGradient792)" stroke="none" />
    <path d="M 615.5 278.5  L 814.5 278.5  L 814.5 194.5  L 809.5 194.5  L 809.5 189.5  L 804.5 189.5  L 804.5 184.5  L 605.5 184.5  L 605.5 268.5  L 610.5 268.5  L 610.5 273.5  L 615.5 273.5  L 615.5 278.5  Z " stroke-width="1" stroke="#797979" fill="none" />
    <path d="M 809.5 195  L 809.5 273.5  L 616 273.5  M 804.5 190  L 804.5 268.5  L 611 268.5  " stroke-width="1" stroke="#797979" fill="none" />
  </g>
</svg>