<?xml version="1.0" encoding="utf-8"?>
<svg version="1.1" xmlns:xlink="http://www.w3.org/1999/xlink" width="100px" height="60px" xmlns="http://www.w3.org/2000/svg">
  <defs>
    <linearGradient gradientUnits="userSpaceOnUse" x1="621" y1="458" x2="621" y2="518" id="LinearGradient764">
      <stop id="Stop765" stop-color="#ffffff" offset="0" />
      <stop id="Stop766" stop-color="#f2f2f2" offset="0" />
      <stop id="Stop767" stop-color="#e4e4e4" offset="1" />
      <stop id="Stop768" stop-color="#ffffff" offset="1" />
    </linearGradient>
  </defs>
  <g transform="matrix(1 0 0 1 -571 -458 )">
    <path d="M 581.5 517.5  L 670.5 517.5  L 670.5 478.5  L 650.5 458.5  L 571.5 458.5  L 571.5 507.5  L 576.5 507.5  L 576.5 512.5  L 581.5 512.5  L 581.5 517.5  Z " fill-rule="nonzero" fill="url(#LinearGradient764)" stroke="none" />
    <path d="M 581.5 517.5  L 670.5 517.5  L 670.5 478.5  L 650.5 458.5  L 571.5 458.5  L 571.5 507.5  L 576.5 507.5  L 576.5 512.5  L 581.5 512.5  L 581.5 517.5  Z " stroke-width="1" stroke="#797979" fill="none" />
    <path d="M 660.5 473.5  L 665.5 474  L 665.5 512.5  L 582 512.5  M 650.5 459  L 650.5 468.5  L 660.5 468.5  L 660.5 507.5  L 577 507.5  M 670 478.5  L 665.5 478.5  " stroke-width="1" stroke="#797979" fill="none" />
  </g>
</svg>