<?xml version="1.0" encoding="utf-8"?>
<svg version="1.1" xmlns:xlink="http://www.w3.org/1999/xlink" width="140px" height="60px" xmlns="http://www.w3.org/2000/svg">
  <defs>
    <linearGradient gradientUnits="userSpaceOnUse" x1="348" y1="458" x2="348" y2="518" id="LinearGradient775">
      <stop id="Stop776" stop-color="#ffffff" offset="0" />
      <stop id="Stop777" stop-color="#f2f2f2" offset="0" />
      <stop id="Stop778" stop-color="#e4e4e4" offset="1" />
      <stop id="Stop779" stop-color="#ffffff" offset="1" />
    </linearGradient>
  </defs>
  <g transform="matrix(1 0 0 1 -278 -458 )">
    <path d="M 288.5 517.5  L 417.5 517.5  L 417.5 478.5  L 397.5 458.5  L 278.5 458.5  L 278.5 507.5  L 283.5 507.5  L 283.5 512.5  L 288.5 512.5  L 288.5 517.5  Z " fill-rule="nonzero" fill="url(#LinearGradient775)" stroke="none" />
    <path d="M 288.5 517.5  L 417.5 517.5  L 417.5 478.5  L 397.5 458.5  L 278.5 458.5  L 278.5 507.5  L 283.5 507.5  L 283.5 512.5  L 288.5 512.5  L 288.5 517.5  Z " stroke-width="1" stroke="#797979" fill="none" />
    <path d="M 407.5 473.5  L 412.5 474  L 412.5 512.5  L 289 512.5  M 397.5 459  L 397.5 468.5  L 407.5 468.5  L 407.5 507.5  L 284 507.5  M 417 478.5  L 412.5 478.5  " stroke-width="1" stroke="#797979" fill="none" />
  </g>
</svg>