<?xml version="1.0" encoding="utf-8"?>
<svg version="1.1" xmlns:xlink="http://www.w3.org/1999/xlink" width="204px" height="95px" xmlns="http://www.w3.org/2000/svg">
  <defs>
    <linearGradient gradientUnits="userSpaceOnUse" x1="409" y1="184" x2="409" y2="279" id="LinearGradient787">
      <stop id="Stop788" stop-color="#ffffff" offset="0" />
      <stop id="Stop789" stop-color="#f2f2f2" offset="0" />
      <stop id="Stop790" stop-color="#e4e4e4" offset="1" />
      <stop id="Stop791" stop-color="#ffffff" offset="1" />
    </linearGradient>
  </defs>
  <g transform="matrix(1 0 0 1 -307 -184 )">
    <path d="M 317.5 278.5  L 510.5 278.5  L 510.5 194.5  L 505.5 194.5  L 505.5 189.5  L 500.5 189.5  L 500.5 184.5  L 307.5 184.5  L 307.5 268.5  L 312.5 268.5  L 312.5 273.5  L 317.5 273.5  L 317.5 278.5  Z " fill-rule="nonzero" fill="url(#LinearGradient787)" stroke="none" />
    <path d="M 317.5 278.5  L 510.5 278.5  L 510.5 194.5  L 505.5 194.5  L 505.5 189.5  L 500.5 189.5  L 500.5 184.5  L 307.5 184.5  L 307.5 268.5  L 312.5 268.5  L 312.5 273.5  L 317.5 273.5  L 317.5 278.5  Z " stroke-width="1" stroke="#797979" fill="none" />
    <path d="M 505.5 195  L 505.5 273.5  L 318 273.5  M 500.5 190  L 500.5 268.5  L 313 268.5  " stroke-width="1" stroke="#797979" fill="none" />
  </g>
</svg>