<?xml version="1.0" encoding="utf-8"?>
<svg version="1.1" xmlns:xlink="http://www.w3.org/1999/xlink" width="110px" height="60px" xmlns="http://www.w3.org/2000/svg">
  <defs>
    <linearGradient gradientUnits="userSpaceOnUse" x1="1697" y1="1140" x2="1697" y2="1200" id="LinearGradient757">
      <stop id="Stop758" stop-color="#ffffff" offset="0" />
      <stop id="Stop759" stop-color="#f2f2f2" offset="0" />
      <stop id="Stop760" stop-color="#e4e4e4" offset="1" />
      <stop id="Stop761" stop-color="#ffffff" offset="1" />
    </linearGradient>
  </defs>
  <g transform="matrix(1 0 0 1 -1642 -1140 )">
    <path d="M 1697 1140  C 1727.8 1140  1752 1153.2  1752 1170  C 1752 1186.8  1727.8 1200  1697 1200  C 1666.2 1200  1642 1186.8  1642 1170  C 1642 1153.2  1666.2 1140  1697 1140  Z " fill-rule="nonzero" fill="url(#LinearGradient757)" stroke="none" />
    <path d="M 1697 1140.5  C 1727.52 1140.5  1751.5 1153.48  1751.5 1170  C 1751.5 1186.52  1727.52 1199.5  1697 1199.5  C 1666.48 1199.5  1642.5 1186.52  1642.5 1170  C 1642.5 1153.48  1666.48 1140.5  1697 1140.5  Z " stroke-width="1" stroke="#797979" fill="none" />
  </g>
</svg>