<?xml version="1.0" encoding="utf-8"?>
<svg version="1.1" xmlns:xlink="http://www.w3.org/1999/xlink" width="12px" height="12px" viewBox="867 1149  12 12" xmlns="http://www.w3.org/2000/svg">
  <path d="M 873 1149  C 876.36 1149  879 1151.64  879 1155  C 879 1158.36  876.36 1161  873 1161  C 869.64 1161  867 1158.36  867 1155  C 867 1151.64  869.64 1149  873 1149  Z " fill-rule="nonzero" fill="#ffffff" stroke="none" />
  <path d="M 873 1149.5  C 876.08 1149.5  878.5 1151.92  878.5 1155  C 878.5 1158.08  876.08 1160.5  873 1160.5  C 869.92 1160.5  867.5 1158.08  867.5 1155  C 867.5 1151.92  869.92 1149.5  873 1149.5  Z " stroke-width="1" stroke="#797979" fill="none" />
  <path d="M 873 1158  C 871.32 1158  870 1156.68  870 1155  C 870 1153.32  871.32 1152  873 1152  C 874.68 1152  876 1153.32  876 1155  C 876 1156.68  874.68 1158  873 1158  " fill-rule="nonzero" fill="#797979" stroke="none" />
</svg>