<?xml version="1.0" encoding="utf-8"?>
<svg version="1.1" xmlns:xlink="http://www.w3.org/1999/xlink" width="12px" height="12px" viewBox="442 441  12 12" xmlns="http://www.w3.org/2000/svg">
  <path d="M 448 441  C 451.36 441  454 443.64  454 447  C 454 450.36  451.36 453  448 453  C 444.64 453  442 450.36  442 447  C 442 443.64  444.64 441  448 441  Z " fill-rule="nonzero" fill="#f0f0f0" stroke="none" />
  <path d="M 448 441.5  C 451.08 441.5  453.5 443.92  453.5 447  C 453.5 450.08  451.08 452.5  448 452.5  C 444.92 452.5  442.5 450.08  442.5 447  C 442.5 443.92  444.92 441.5  448 441.5  Z " stroke-width="1" stroke="#797979" fill="none" />
  <path d="M 448 450  C 446.32 450  445 448.68  445 447  C 445 445.32  446.32 444  448 444  C 449.68 444  451 445.32  451 447  C 451 448.68  449.68 450  448 450  " fill-rule="nonzero" fill="#797979" stroke="none" />
</svg>