<?xml version="1.0" encoding="utf-8"?>
<svg version="1.1" xmlns:xlink="http://www.w3.org/1999/xlink" width="12px" height="12px" viewBox="597 407  12 12" xmlns="http://www.w3.org/2000/svg">
  <path d="M 603 407  C 606.36 407  609 409.64  609 413  C 609 416.36  606.36 419  603 419  C 599.64 419  597 416.36  597 413  C 597 409.64  599.64 407  603 407  Z " fill-rule="nonzero" fill="#f0f0f0" stroke="none" />
  <path d="M 603 407.5  C 606.08 407.5  608.5 409.92  608.5 413  C 608.5 416.08  606.08 418.5  603 418.5  C 599.92 418.5  597.5 416.08  597.5 413  C 597.5 409.92  599.92 407.5  603 407.5  Z " stroke-width="1" stroke="#797979" fill="none" />
  <path d="M 603 416  C 601.32 416  600 414.68  600 413  C 600 411.32  601.32 410  603 410  C 604.68 410  606 411.32  606 413  C 606 414.68  604.68 416  603 416  " fill-rule="nonzero" fill="#797979" stroke="none" />
</svg>