<?xml version="1.0" encoding="utf-8"?>
<svg version="1.1" xmlns:xlink="http://www.w3.org/1999/xlink" width="12px" height="12px" viewBox="483 407  12 12" xmlns="http://www.w3.org/2000/svg">
  <path d="M 489 407  C 492.36 407  495 409.64  495 413  C 495 416.36  492.36 419  489 419  C 485.64 419  483 416.36  483 413  C 483 409.64  485.64 407  489 407  Z " fill-rule="nonzero" fill="#ffffff" stroke="none" />
  <path d="M 489 407.5  C 492.08 407.5  494.5 409.92  494.5 413  C 494.5 416.08  492.08 418.5  489 418.5  C 485.92 418.5  483.5 416.08  483.5 413  C 483.5 409.92  485.92 407.5  489 407.5  Z " stroke-width="1" stroke="#797979" fill="none" />
  <path d="M 489 416  C 487.32 416  486 414.68  486 413  C 486 411.32  487.32 410  489 410  C 490.68 410  492 411.32  492 413  C 492 414.68  490.68 416  489 416  " fill-rule="nonzero" fill="#797979" stroke="none" />
</svg>