<?xml version="1.0" encoding="utf-8"?>
<svg version="1.1" xmlns:xlink="http://www.w3.org/1999/xlink" width="12px" height="12px" viewBox="1995 2411  12 12" xmlns="http://www.w3.org/2000/svg">
  <path d="M 2001 2411  C 2004.36 2411  2007 2413.64  2007 2417  C 2007 2420.36  2004.36 2423  2001 2423  C 1997.64 2423  1995 2420.36  1995 2417  C 1995 2413.64  1997.64 2411  2001 2411  Z " fill-rule="nonzero" fill="#ffffff" stroke="none" />
  <path d="M 2001 2411.5  C 2004.08 2411.5  2006.5 2413.92  2006.5 2417  C 2006.5 2420.08  2004.08 2422.5  2001 2422.5  C 1997.92 2422.5  1995.5 2420.08  1995.5 2417  C 1995.5 2413.92  1997.92 2411.5  2001 2411.5  Z " stroke-width="1" stroke="#797979" fill="none" />
  <path d="M 2001 2420  C 1999.32 2420  1998 2418.68  1998 2417  C 1998 2415.32  1999.32 2414  2001 2414  C 2002.68 2414  2004 2415.32  2004 2417  C 2004 2418.68  2002.68 2420  2001 2420  " fill-rule="nonzero" fill="#797979" stroke="none" />
</svg>