<?xml version="1.0" encoding="utf-8"?>
<svg version="1.1" xmlns:xlink="http://www.w3.org/1999/xlink" width="12px" height="12px" viewBox="388 3546  12 12" xmlns="http://www.w3.org/2000/svg">
  <path d="M 394 3546  C 397.36 3546  400 3548.64  400 3552  C 400 3555.36  397.36 3558  394 3558  C 390.64 3558  388 3555.36  388 3552  C 388 3548.64  390.64 3546  394 3546  Z " fill-rule="nonzero" fill="#f0f0f0" stroke="none" />
  <path d="M 394 3546.5  C 397.08 3546.5  399.5 3548.92  399.5 3552  C 399.5 3555.08  397.08 3557.5  394 3557.5  C 390.92 3557.5  388.5 3555.08  388.5 3552  C 388.5 3548.92  390.92 3546.5  394 3546.5  Z " stroke-width="1" stroke="#797979" fill="none" />
  <path d="M 394 3555  C 392.32 3555  391 3553.68  391 3552  C 391 3550.32  392.32 3549  394 3549  C 395.68 3549  397 3550.32  397 3552  C 397 3553.68  395.68 3555  394 3555  " fill-rule="nonzero" fill="#797979" stroke="none" />
</svg>