<?xml version="1.0" encoding="utf-8"?>
<svg version="1.1" xmlns:xlink="http://www.w3.org/1999/xlink" width="12px" height="12px" viewBox="388 3577  12 12" xmlns="http://www.w3.org/2000/svg">
  <path d="M 394 3577  C 397.36 3577  400 3579.64  400 3583  C 400 3586.36  397.36 3589  394 3589  C 390.64 3589  388 3586.36  388 3583  C 388 3579.64  390.64 3577  394 3577  Z " fill-rule="nonzero" fill="#ffffff" stroke="none" />
  <path d="M 394 3577.5  C 397.08 3577.5  399.5 3579.92  399.5 3583  C 399.5 3586.08  397.08 3588.5  394 3588.5  C 390.92 3588.5  388.5 3586.08  388.5 3583  C 388.5 3579.92  390.92 3577.5  394 3577.5  Z " stroke-width="1" stroke="#797979" fill="none" />
  <path d="M 394 3586  C 392.32 3586  391 3584.68  391 3583  C 391 3581.32  392.32 3580  394 3580  C 395.68 3580  397 3581.32  397 3583  C 397 3584.68  395.68 3586  394 3586  " fill-rule="nonzero" fill="#797979" stroke="none" />
</svg>