<?xml version="1.0" encoding="utf-8"?>
<svg version="1.1" xmlns:xlink="http://www.w3.org/1999/xlink" width="12px" height="12px" viewBox="388 3090  12 12" xmlns="http://www.w3.org/2000/svg">
  <path d="M 394 3090  C 397.36 3090  400 3092.64  400 3096  C 400 3099.36  397.36 3102  394 3102  C 390.64 3102  388 3099.36  388 3096  C 388 3092.64  390.64 3090  394 3090  Z " fill-rule="nonzero" fill="#ffffff" stroke="none" />
  <path d="M 394 3090.5  C 397.08 3090.5  399.5 3092.92  399.5 3096  C 399.5 3099.08  397.08 3101.5  394 3101.5  C 390.92 3101.5  388.5 3099.08  388.5 3096  C 388.5 3092.92  390.92 3090.5  394 3090.5  Z " stroke-width="1" stroke="#797979" fill="none" />
  <path d="M 394 3099  C 392.32 3099  391 3097.68  391 3096  C 391 3094.32  392.32 3093  394 3093  C 395.68 3093  397 3094.32  397 3096  C 397 3097.68  395.68 3099  394 3099  " fill-rule="nonzero" fill="#797979" stroke="none" />
</svg>