<?xml version="1.0" encoding="utf-8"?>
<svg version="1.1" xmlns:xlink="http://www.w3.org/1999/xlink" width="12px" height="12px" viewBox="774 1890  12 12" xmlns="http://www.w3.org/2000/svg">
  <path d="M 780 1890  C 783.36 1890  786 1892.64  786 1896  C 786 1899.36  783.36 1902  780 1902  C 776.64 1902  774 1899.36  774 1896  C 774 1892.64  776.64 1890  780 1890  Z " fill-rule="nonzero" fill="#ffffff" stroke="none" />
  <path d="M 780 1890.5  C 783.08 1890.5  785.5 1892.92  785.5 1896  C 785.5 1899.08  783.08 1901.5  780 1901.5  C 776.92 1901.5  774.5 1899.08  774.5 1896  C 774.5 1892.92  776.92 1890.5  780 1890.5  Z " stroke-width="1" stroke="#797979" fill="none" />
  <path d="M 780 1899  C 778.32 1899  777 1897.68  777 1896  C 777 1894.32  778.32 1893  780 1893  C 781.68 1893  783 1894.32  783 1896  C 783 1897.68  781.68 1899  780 1899  " fill-rule="nonzero" fill="#797979" stroke="none" />
</svg>