<?xml version="1.0" encoding="utf-8"?>
<svg version="1.1" xmlns:xlink="http://www.w3.org/1999/xlink" width="12px" height="12px" viewBox="908 1921  12 12" xmlns="http://www.w3.org/2000/svg">
  <path d="M 914 1921  C 917.36 1921  920 1923.64  920 1927  C 920 1930.36  917.36 1933  914 1933  C 910.64 1933  908 1930.36  908 1927  C 908 1923.64  910.64 1921  914 1921  Z " fill-rule="nonzero" fill="#ffffff" stroke="none" />
  <path d="M 914 1921.5  C 917.08 1921.5  919.5 1923.92  919.5 1927  C 919.5 1930.08  917.08 1932.5  914 1932.5  C 910.92 1932.5  908.5 1930.08  908.5 1927  C 908.5 1923.92  910.92 1921.5  914 1921.5  Z " stroke-width="1" stroke="#797979" fill="none" />
  <path d="M 914 1930  C 912.32 1930  911 1928.68  911 1927  C 911 1925.32  912.32 1924  914 1924  C 915.68 1924  917 1925.32  917 1927  C 917 1928.68  915.68 1930  914 1930  " fill-rule="nonzero" fill="#797979" stroke="none" />
</svg>