<?xml version="1.0" encoding="utf-8"?>
<svg version="1.1" xmlns:xlink="http://www.w3.org/1999/xlink" width="12px" height="12px" viewBox="846 1964  12 12" xmlns="http://www.w3.org/2000/svg">
  <path d="M 852 1964  C 855.36 1964  858 1966.64  858 1970  C 858 1973.36  855.36 1976  852 1976  C 848.64 1976  846 1973.36  846 1970  C 846 1966.64  848.64 1964  852 1964  Z " fill-rule="nonzero" fill="#f0f0f0" stroke="none" />
  <path d="M 852 1964.5  C 855.08 1964.5  857.5 1966.92  857.5 1970  C 857.5 1973.08  855.08 1975.5  852 1975.5  C 848.92 1975.5  846.5 1973.08  846.5 1970  C 846.5 1966.92  848.92 1964.5  852 1964.5  Z " stroke-width="1" stroke="#797979" fill="none" />
  <path d="M 852 1973  C 850.32 1973  849 1971.68  849 1970  C 849 1968.32  850.32 1967  852 1967  C 853.68 1967  855 1968.32  855 1970  C 855 1971.68  853.68 1973  852 1973  " fill-rule="nonzero" fill="#797979" stroke="none" />
</svg>