<?xml version="1.0" encoding="utf-8"?>
<svg version="1.1" xmlns:xlink="http://www.w3.org/1999/xlink" width="12px" height="12px" viewBox="908 1890  12 12" xmlns="http://www.w3.org/2000/svg">
  <path d="M 914 1890  C 917.36 1890  920 1892.64  920 1896  C 920 1899.36  917.36 1902  914 1902  C 910.64 1902  908 1899.36  908 1896  C 908 1892.64  910.64 1890  914 1890  Z " fill-rule="nonzero" fill="#f0f0f0" stroke="none" />
  <path d="M 914 1890.5  C 917.08 1890.5  919.5 1892.92  919.5 1896  C 919.5 1899.08  917.08 1901.5  914 1901.5  C 910.92 1901.5  908.5 1899.08  908.5 1896  C 908.5 1892.92  910.92 1890.5  914 1890.5  Z " stroke-width="1" stroke="#797979" fill="none" />
  <path d="M 914 1899  C 912.32 1899  911 1897.68  911 1896  C 911 1894.32  912.32 1893  914 1893  C 915.68 1893  917 1894.32  917 1896  C 917 1897.68  915.68 1899  914 1899  " fill-rule="nonzero" fill="#797979" stroke="none" />
</svg>