<?xml version="1.0" encoding="utf-8"?>
<svg version="1.1" xmlns:xlink="http://www.w3.org/1999/xlink" width="12px" height="12px" viewBox="405 1091  12 12" xmlns="http://www.w3.org/2000/svg">
  <path d="M 411 1091  C 414.36 1091  417 1093.64  417 1097  C 417 1100.36  414.36 1103  411 1103  C 407.64 1103  405 1100.36  405 1097  C 405 1093.64  407.64 1091  411 1091  Z " fill-rule="nonzero" fill="#ffffff" stroke="none" />
  <path d="M 411 1091.5  C 414.08 1091.5  416.5 1093.92  416.5 1097  C 416.5 1100.08  414.08 1102.5  411 1102.5  C 407.92 1102.5  405.5 1100.08  405.5 1097  C 405.5 1093.92  407.92 1091.5  411 1091.5  Z " stroke-width="1" stroke="#797979" fill="none" />
  <path d="M 411 1100  C 409.32 1100  408 1098.68  408 1097  C 408 1095.32  409.32 1094  411 1094  C 412.68 1094  414 1095.32  414 1097  C 414 1098.68  412.68 1100  411 1100  " fill-rule="nonzero" fill="#797979" stroke="none" />
</svg>