<?xml version="1.0" encoding="utf-8"?>
<svg version="1.1" xmlns:xlink="http://www.w3.org/1999/xlink" width="12px" height="12px" viewBox="528 1091  12 12" xmlns="http://www.w3.org/2000/svg">
  <path d="M 534 1091  C 537.36 1091  540 1093.64  540 1097  C 540 1100.36  537.36 1103  534 1103  C 530.64 1103  528 1100.36  528 1097  C 528 1093.64  530.64 1091  534 1091  Z " fill-rule="nonzero" fill="#ffffff" stroke="none" />
  <path d="M 534 1091.5  C 537.08 1091.5  539.5 1093.92  539.5 1097  C 539.5 1100.08  537.08 1102.5  534 1102.5  C 530.92 1102.5  528.5 1100.08  528.5 1097  C 528.5 1093.92  530.92 1091.5  534 1091.5  Z " stroke-width="1" stroke="#797979" fill="none" />
  <path d="M 534 1100  C 532.32 1100  531 1098.68  531 1097  C 531 1095.32  532.32 1094  534 1094  C 535.68 1094  537 1095.32  537 1097  C 537 1098.68  535.68 1100  534 1100  " fill-rule="nonzero" fill="#797979" stroke="none" />
</svg>