<?xml version="1.0" encoding="utf-8"?>
<svg version="1.1" xmlns:xlink="http://www.w3.org/1999/xlink" width="12px" height="12px" viewBox="504 569  12 12" xmlns="http://www.w3.org/2000/svg">
  <path d="M 510 569  C 513.36 569  516 571.64  516 575  C 516 578.36  513.36 581  510 581  C 506.64 581  504 578.36  504 575  C 504 571.64  506.64 569  510 569  Z " fill-rule="nonzero" fill="#ffffff" stroke="none" />
  <path d="M 510 569.5  C 513.08 569.5  515.5 571.92  515.5 575  C 515.5 578.08  513.08 580.5  510 580.5  C 506.92 580.5  504.5 578.08  504.5 575  C 504.5 571.92  506.92 569.5  510 569.5  Z " stroke-width="1" stroke="#797979" fill="none" />
  <path d="M 510 578  C 508.32 578  507 576.68  507 575  C 507 573.32  508.32 572  510 572  C 511.68 572  513 573.32  513 575  C 513 576.68  511.68 578  510 578  " fill-rule="nonzero" fill="#797979" stroke="none" />
</svg>