<?xml version="1.0" encoding="utf-8"?>
<svg version="1.1" xmlns:xlink="http://www.w3.org/1999/xlink" width="12px" height="12px" viewBox="394 569  12 12" xmlns="http://www.w3.org/2000/svg">
  <path d="M 400 569  C 403.36 569  406 571.64  406 575  C 406 578.36  403.36 581  400 581  C 396.64 581  394 578.36  394 575  C 394 571.64  396.64 569  400 569  Z " fill-rule="nonzero" fill="#f0f0f0" stroke="none" />
  <path d="M 400 569.5  C 403.08 569.5  405.5 571.92  405.5 575  C 405.5 578.08  403.08 580.5  400 580.5  C 396.92 580.5  394.5 578.08  394.5 575  C 394.5 571.92  396.92 569.5  400 569.5  Z " stroke-width="1" stroke="#797979" fill="none" />
  <path d="M 400 578  C 398.32 578  397 576.68  397 575  C 397 573.32  398.32 572  400 572  C 401.68 572  403 573.32  403 575  C 403 576.68  401.68 578  400 578  " fill-rule="nonzero" fill="#797979" stroke="none" />
</svg>