<?xml version="1.0" encoding="utf-8"?>
<svg version="1.1" xmlns:xlink="http://www.w3.org/1999/xlink" width="12px" height="12px" viewBox="398 645  12 12" xmlns="http://www.w3.org/2000/svg">
  <path d="M 404 645  C 407.36 645  410 647.64  410 651  C 410 654.36  407.36 657  404 657  C 400.64 657  398 654.36  398 651  C 398 647.64  400.64 645  404 645  Z " fill-rule="nonzero" fill="#ffffff" stroke="none" />
  <path d="M 404 645.5  C 407.08 645.5  409.5 647.92  409.5 651  C 409.5 654.08  407.08 656.5  404 656.5  C 400.92 656.5  398.5 654.08  398.5 651  C 398.5 647.92  400.92 645.5  404 645.5  Z " stroke-width="1" stroke="#797979" fill="none" />
  <path d="M 404 654  C 402.32 654  401 652.68  401 651  C 401 649.32  402.32 648  404 648  C 405.68 648  407 649.32  407 651  C 407 652.68  405.68 654  404 654  " fill-rule="nonzero" fill="#797979" stroke="none" />
</svg>