<?xml version="1.0" encoding="utf-8"?>
<svg version="1.1" xmlns:xlink="http://www.w3.org/1999/xlink" width="12px" height="12px" viewBox="500 645  12 12" xmlns="http://www.w3.org/2000/svg">
  <path d="M 506 645  C 509.36 645  512 647.64  512 651  C 512 654.36  509.36 657  506 657  C 502.64 657  500 654.36  500 651  C 500 647.64  502.64 645  506 645  Z " fill-rule="nonzero" fill="#f0f0f0" stroke="none" />
  <path d="M 506 645.5  C 509.08 645.5  511.5 647.92  511.5 651  C 511.5 654.08  509.08 656.5  506 656.5  C 502.92 656.5  500.5 654.08  500.5 651  C 500.5 647.92  502.92 645.5  506 645.5  Z " stroke-width="1" stroke="#797979" fill="none" />
  <path d="M 506 654  C 504.32 654  503 652.68  503 651  C 503 649.32  504.32 648  506 648  C 507.68 648  509 649.32  509 651  C 509 652.68  507.68 654  506 654  " fill-rule="nonzero" fill="#797979" stroke="none" />
</svg>