<?xml version="1.0" encoding="utf-8"?>
<svg version="1.1" xmlns:xlink="http://www.w3.org/1999/xlink" width="12px" height="12px" viewBox="2037 2845  12 12" xmlns="http://www.w3.org/2000/svg">
  <path d="M 2043 2845  C 2046.36 2845  2049 2847.64  2049 2851  C 2049 2854.36  2046.36 2857  2043 2857  C 2039.64 2857  2037 2854.36  2037 2851  C 2037 2847.64  2039.64 2845  2043 2845  Z " fill-rule="nonzero" fill="#f0f0f0" stroke="none" />
  <path d="M 2043 2845.5  C 2046.08 2845.5  2048.5 2847.92  2048.5 2851  C 2048.5 2854.08  2046.08 2856.5  2043 2856.5  C 2039.92 2856.5  2037.5 2854.08  2037.5 2851  C 2037.5 2847.92  2039.92 2845.5  2043 2845.5  Z " stroke-width="1" stroke="#797979" fill="none" />
  <path d="M 2043 2854  C 2041.32 2854  2040 2852.68  2040 2851  C 2040 2849.32  2041.32 2848  2043 2848  C 2044.68 2848  2046 2849.32  2046 2851  C 2046 2852.68  2044.68 2854  2043 2854  " fill-rule="nonzero" fill="#797979" stroke="none" />
</svg>