<?xml version="1.0" encoding="utf-8"?>
<svg version="1.1" xmlns:xlink="http://www.w3.org/1999/xlink" width="12px" height="12px" viewBox="2052 1338  12 12" xmlns="http://www.w3.org/2000/svg">
  <path d="M 2058 1338  C 2061.36 1338  2064 1340.64  2064 1344  C 2064 1347.36  2061.36 1350  2058 1350  C 2054.64 1350  2052 1347.36  2052 1344  C 2052 1340.64  2054.64 1338  2058 1338  Z " fill-rule="nonzero" fill="#f0f0f0" stroke="none" />
  <path d="M 2058 1338.5  C 2061.08 1338.5  2063.5 1340.92  2063.5 1344  C 2063.5 1347.08  2061.08 1349.5  2058 1349.5  C 2054.92 1349.5  2052.5 1347.08  2052.5 1344  C 2052.5 1340.92  2054.92 1338.5  2058 1338.5  Z " stroke-width="1" stroke="#797979" fill="none" />
  <path d="M 2058 1347  C 2056.32 1347  2055 1345.68  2055 1344  C 2055 1342.32  2056.32 1341  2058 1341  C 2059.68 1341  2061 1342.32  2061 1344  C 2061 1345.68  2059.68 1347  2058 1347  " fill-rule="nonzero" fill="#797979" stroke="none" />
</svg>