<?xml version="1.0" encoding="utf-8"?>
<svg version="1.1" xmlns:xlink="http://www.w3.org/1999/xlink" width="64px" height="64px" xmlns="http://www.w3.org/2000/svg">
  <g transform="matrix(1 0 0 1 -447 -1417 )">
    <path d="M 479 1417  C 496.92 1417  511 1431.08  511 1449  C 511 1466.92  496.92 1481  479 1481  C 461.08 1481  447 1466.92  447 1449  C 447 1431.08  461.08 1417  479 1417  Z " fill-rule="nonzero" fill="#e9e9e9" stroke="none" />
    <path d="M 479 1417.5  C 496.64 1417.5  510.5 1431.36  510.5 1449  C 510.5 1466.64  496.64 1480.5  479 1480.5  C 461.36 1480.5  447.5 1466.64  447.5 1449  C 447.5 1431.36  461.36 1417.5  479 1417.5  Z " stroke-width="1" stroke="#ffffff" fill="none" />
  </g>
</svg>