<?xml version="1.0" encoding="utf-8"?>
<svg version="1.1" xmlns:xlink="http://www.w3.org/1999/xlink" width="64px" height="64px" xmlns="http://www.w3.org/2000/svg">
  <g transform="matrix(1 0 0 1 -447 -1417 )">
    <path d="M 476.333511537484 1417.61306260062  C 477.22026999089 1417.53772771924  478.109897522075 1417.5  479 1417.5  C 496.39696961967 1417.5  510.5 1431.60303038033  510.5 1449  C 510.5 1466.39696961967  496.39696961967 1480.5  479 1480.5  C 461.60303038033 1480.5  447.5 1466.39696961967  447.5 1449  C 447.5 1443.63735536427  448.869029054164 1438.36633840497  451.473635776507 1433.68499647495  L 478.75 1449.43301270189  A 0.5 0.5 0 0 0 479.497470760719 1448.9497720971 L 476.333511537502 1417.61306260062  Z " fill-rule="nonzero" fill="#99d5fd" stroke="none" />
    <path d="M 476.333511537484 1417.61306260062  C 477.22026999089 1417.53772771924  478.109897522075 1417.5  479 1417.5  C 496.39696961967 1417.5  510.5 1431.60303038033  510.5 1449  C 510.5 1466.39696961967  496.39696961967 1480.5  479 1480.5  C 461.60303038033 1480.5  447.5 1466.39696961967  447.5 1449  C 447.5 1443.63735536427  448.869029054164 1438.36633840497  451.473635776507 1433.68499647495  L 478.75 1449.43301270189  A 0.5 0.5 0 0 0 479.497470760719 1448.9497720971 L 476.333511537502 1417.61306260062  Z " stroke-width="1" stroke="#ffffff" fill="none" />
  </g>
</svg>