<?xml version="1.0" encoding="utf-8"?>
<svg version="1.1" xmlns:xlink="http://www.w3.org/1999/xlink" width="39px" height="39px" xmlns="http://www.w3.org/2000/svg">
  <g transform="matrix(1 0 0 1 -459 -1429 )">
    <path d="M 478.5 1429  C 489.42 1429  498 1437.58  498 1448.5  C 498 1459.42  489.42 1468  478.5 1468  C 467.58 1468  459 1459.42  459 1448.5  C 459 1437.58  467.58 1429  478.5 1429  Z " fill-rule="nonzero" fill="#ffffff" stroke="none" />
    <path d="M 478.5 1429.5  C 489.14 1429.5  497.5 1437.86  497.5 1448.5  C 497.5 1459.14  489.14 1467.5  478.5 1467.5  C 467.86 1467.5  459.5 1459.14  459.5 1448.5  C 459.5 1437.86  467.86 1429.5  478.5 1429.5  Z " stroke-width="1" stroke="#ffffff" fill="none" />
  </g>
</svg>