<?xml version="1.0" encoding="utf-8"?>
<svg version="1.1" xmlns:xlink="http://www.w3.org/1999/xlink" width="64px" height="64px" xmlns="http://www.w3.org/2000/svg">
  <g transform="matrix(1 0 0 1 -682 -1417 )">
    <path d="M 711.333511537483 1417.61306260062  C 712.22026999089 1417.53772771924  713.109897522075 1417.5  714 1417.5  C 731.39696961967 1417.5  745.5 1431.60303038033  745.5 1449  C 745.5 1466.39696961967  731.39696961967 1480.5  714 1480.5  C 697.852014491797 1480.5  684.349015581785 1468.29642682772  682.672190417079 1452.28974163612  L 714.044318343823 1449.49803201142  A 0.5 0.5 0 0 0 714.497470760719 1448.9497720971 L 711.333511537502 1417.61306260062  Z " fill-rule="nonzero" fill="#0096fa" stroke="none" />
    <path d="M 711.333511537483 1417.61306260062  C 712.22026999089 1417.53772771924  713.109897522075 1417.5  714 1417.5  C 731.39696961967 1417.5  745.5 1431.60303038033  745.5 1449  C 745.5 1466.39696961967  731.39696961967 1480.5  714 1480.5  C 697.852014491797 1480.5  684.349015581785 1468.29642682772  682.672190417079 1452.28974163612  L 714.044318343823 1449.49803201142  A 0.5 0.5 0 0 0 714.497470760719 1448.9497720971 L 711.333511537502 1417.61306260062  Z " stroke-width="1" stroke="#ffffff" fill="none" />
  </g>
</svg>