<?xml version="1.0" encoding="utf-8"?>
<svg version="1.1" xmlns:xlink="http://www.w3.org/1999/xlink" width="5px" height="5px" xmlns="http://www.w3.org/2000/svg">
  <g transform="matrix(1 0 0 1 -590 -646 )">
    <path d="M 592.5 646  C 593.9 646  595 647.1  595 648.5  C 595 649.9  593.9 651  592.5 651  C 591.1 651  590 649.9  590 648.5  C 590 647.1  591.1 646  592.5 646  Z " fill-rule="nonzero" fill="#ffffff" stroke="none" />
    <path d="M 592.5 646.5  C 593.62 646.5  594.5 647.38  594.5 648.5  C 594.5 649.62  593.62 650.5  592.5 650.5  C 591.38 650.5  590.5 649.62  590.5 648.5  C 590.5 647.38  591.38 646.5  592.5 646.5  Z " stroke-width="1" stroke="#1890ff" fill="none" />
  </g>
</svg>