<?xml version="1.0" encoding="utf-8"?>
<svg version="1.1" xmlns:xlink="http://www.w3.org/1999/xlink" width="12px" height="12px" viewBox="515 631  12 12" xmlns="http://www.w3.org/2000/svg">
  <path d="M 521 631  C 524.36 631  527 633.64  527 637  C 527 640.36  524.36 643  521 643  C 517.64 643  515 640.36  515 637  C 515 633.64  517.64 631  521 631  Z " fill-rule="nonzero" fill="#ffffff" stroke="none" />
  <path d="M 521 631.5  C 524.08 631.5  526.5 633.92  526.5 637  C 526.5 640.08  524.08 642.5  521 642.5  C 517.92 642.5  515.5 640.08  515.5 637  C 515.5 633.92  517.92 631.5  521 631.5  Z " stroke-width="1" stroke="#797979" fill="none" />
  <path d="M 521 640  C 519.32 640  518 638.68  518 637  C 518 635.32  519.32 634  521 634  C 522.68 634  524 635.32  524 637  C 524 638.68  522.68 640  521 640  " fill-rule="nonzero" fill="#797979" stroke="none" />
</svg>