<?xml version="1.0" encoding="utf-8"?>
<svg version="1.1" xmlns:xlink="http://www.w3.org/1999/xlink" width="12px" height="12px" viewBox="490 342  12 12" xmlns="http://www.w3.org/2000/svg">
  <path d="M 496 342  C 499.36 342  502 344.64  502 348  C 502 351.36  499.36 354  496 354  C 492.64 354  490 351.36  490 348  C 490 344.64  492.64 342  496 342  Z " fill-rule="nonzero" fill="#ffffff" stroke="none" />
  <path d="M 496 342.5  C 499.08 342.5  501.5 344.92  501.5 348  C 501.5 351.08  499.08 353.5  496 353.5  C 492.92 353.5  490.5 351.08  490.5 348  C 490.5 344.92  492.92 342.5  496 342.5  Z " stroke-width="1" stroke="#797979" fill="none" />
  <path d="M 496 351  C 494.32 351  493 349.68  493 348  C 493 346.32  494.32 345  496 345  C 497.68 345  499 346.32  499 348  C 499 349.68  497.68 351  496 351  " fill-rule="nonzero" fill="#797979" stroke="none" />
</svg>