<?xml version="1.0" encoding="utf-8"?>
<svg version="1.1" xmlns:xlink="http://www.w3.org/1999/xlink" width="12px" height="12px" viewBox="515 598  12 12" xmlns="http://www.w3.org/2000/svg">
  <path d="M 521 598  C 524.36 598  527 600.64  527 604  C 527 607.36  524.36 610  521 610  C 517.64 610  515 607.36  515 604  C 515 600.64  517.64 598  521 598  Z " fill-rule="nonzero" fill="#ffffff" stroke="none" />
  <path d="M 521 598.5  C 524.08 598.5  526.5 600.92  526.5 604  C 526.5 607.08  524.08 609.5  521 609.5  C 517.92 609.5  515.5 607.08  515.5 604  C 515.5 600.92  517.92 598.5  521 598.5  Z " stroke-width="1" stroke="#797979" fill="none" />
  <path d="M 521 607  C 519.32 607  518 605.68  518 604  C 518 602.32  519.32 601  521 601  C 522.68 601  524 602.32  524 604  C 524 605.68  522.68 607  521 607  " fill-rule="nonzero" fill="#797979" stroke="none" />
</svg>