<?xml version="1.0" encoding="utf-8"?>
<svg version="1.1" xmlns:xlink="http://www.w3.org/1999/xlink" width="12px" height="12px" viewBox="488 304  12 12" xmlns="http://www.w3.org/2000/svg">
  <path d="M 494 304  C 497.36 304  500 306.64  500 310  C 500 313.36  497.36 316  494 316  C 490.64 316  488 313.36  488 310  C 488 306.64  490.64 304  494 304  Z " fill-rule="nonzero" fill="#ffffff" stroke="none" />
  <path d="M 494 304.5  C 497.08 304.5  499.5 306.92  499.5 310  C 499.5 313.08  497.08 315.5  494 315.5  C 490.92 315.5  488.5 313.08  488.5 310  C 488.5 306.92  490.92 304.5  494 304.5  Z " stroke-width="1" stroke="#797979" fill="none" />
  <path d="M 494 313  C 492.32 313  491 311.68  491 310  C 491 308.32  492.32 307  494 307  C 495.68 307  497 308.32  497 310  C 497 311.68  495.68 313  494 313  " fill-rule="nonzero" fill="#797979" stroke="none" />
</svg>