<?xml version="1.0" encoding="utf-8"?>
<svg version="1.1" xmlns:xlink="http://www.w3.org/1999/xlink" width="12px" height="12px" viewBox="1689 887  12 12" xmlns="http://www.w3.org/2000/svg">
  <path d="M 1695 887  C 1698.36 887  1701 889.64  1701 893  C 1701 896.36  1698.36 899  1695 899  C 1691.64 899  1689 896.36  1689 893  C 1689 889.64  1691.64 887  1695 887  Z " fill-rule="nonzero" fill="#f0f0f0" stroke="none" />
  <path d="M 1695 887.5  C 1698.08 887.5  1700.5 889.92  1700.5 893  C 1700.5 896.08  1698.08 898.5  1695 898.5  C 1691.92 898.5  1689.5 896.08  1689.5 893  C 1689.5 889.92  1691.92 887.5  1695 887.5  Z " stroke-width="1" stroke="#797979" fill="none" />
  <path d="M 1695 896  C 1693.32 896  1692 894.68  1692 893  C 1692 891.32  1693.32 890  1695 890  C 1696.68 890  1698 891.32  1698 893  C 1698 894.68  1696.68 896  1695 896  " fill-rule="nonzero" fill="#797979" stroke="none" />
</svg>