<?xml version="1.0" encoding="utf-8"?>
<svg version="1.1" xmlns:xlink="http://www.w3.org/1999/xlink" width="54px" height="54px" xmlns="http://www.w3.org/2000/svg">
  <g transform="matrix(1 0 0 1 -387 -596 )">
    <path d="M 387 596  L 441 596  L 441 650  L 387 650  L 387 596  " fill-rule="nonzero" fill="#cccccc" stroke="none" />
    <path d="M 391 600  L 437 600  L 437 646  L 391 646  L 391 600  " fill-rule="nonzero" fill="#ffffff" stroke="none" />
    <path d="M 419.13 612.2  C 416.862 612.2  415.08 610.418  415.08 608.15  C 415.08 605.882  416.862 604.1  419.13 604.1  C 421.398 604.1  423.18 605.882  423.18 608.15  C 423.18 610.418  421.398 612.2  419.13 612.2  " fill-rule="nonzero" fill="#cccccc" stroke="none" />
    <path d="M 393 645  L 393 621.35  L 403.75 610.6  L 418.8 619.2  L 427.4 617.05  L 436 619.2  L 436 645  L 393 645  " fill-rule="nonzero" fill="#169bd5" stroke="none" />
  </g>
</svg>