<?xml version="1.0" encoding="utf-8"?>
<svg version="1.1" xmlns:xlink="http://www.w3.org/1999/xlink" width="12px" height="12px" viewBox="453 503  12 12" xmlns="http://www.w3.org/2000/svg">
  <path d="M 459 503  C 462.36 503  465 505.64  465 509  C 465 512.36  462.36 515  459 515  C 455.64 515  453 512.36  453 509  C 453 505.64  455.64 503  459 503  Z " fill-rule="nonzero" fill="#f0f0f0" stroke="none" />
  <path d="M 459 503.5  C 462.08 503.5  464.5 505.92  464.5 509  C 464.5 512.08  462.08 514.5  459 514.5  C 455.92 514.5  453.5 512.08  453.5 509  C 453.5 505.92  455.92 503.5  459 503.5  Z " stroke-width="1" stroke="#797979" fill="none" />
  <path d="M 459 512  C 457.32 512  456 510.68  456 509  C 456 507.32  457.32 506  459 506  C 460.68 506  462 507.32  462 509  C 462 510.68  460.68 512  459 512  " fill-rule="nonzero" fill="#797979" stroke="none" />
</svg>