<?xml version="1.0" encoding="utf-8"?>
<svg version="1.1" xmlns:xlink="http://www.w3.org/1999/xlink" width="66px" height="66px" xmlns="http://www.w3.org/2000/svg">
  <g transform="matrix(1 0 0 1 -700 -589 )">
    <path d="M 701 593  A 3 3 0 0 1 704 590 L 762 590  A 3 3 0 0 1 765 593 L 765 651  A 3 3 0 0 1 762 654 L 704 654  A 3 3 0 0 1 701 651 L 701 593  Z " fill-rule="nonzero" fill="#000000" stroke="none" fill-opacity="0.0196078431372549" />
    <path d="M 700.5 593  A 3.5 3.5 0 0 1 704 589.5 L 762 589.5  A 3.5 3.5 0 0 1 765.5 593 L 765.5 651  A 3.5 3.5 0 0 1 762 654.5 L 704 654.5  A 3.5 3.5 0 0 1 700.5 651 L 700.5 593  Z " stroke-width="1" stroke-dasharray="9,4" stroke="#d9d9d9" fill="none" stroke-dashoffset="0.5" />
  </g>
</svg>