<?xml version="1.0" encoding="utf-8"?>
<svg version="1.1" xmlns:xlink="http://www.w3.org/1999/xlink" width="12px" height="12px" viewBox="1503 504  12 12" xmlns="http://www.w3.org/2000/svg">
  <path d="M 1509 504  C 1512.36 504  1515 506.64  1515 510  C 1515 513.36  1512.36 516  1509 516  C 1505.64 516  1503 513.36  1503 510  C 1503 506.64  1505.64 504  1509 504  Z " fill-rule="nonzero" fill="#ffffff" stroke="none" />
  <path d="M 1509 504.5  C 1512.08 504.5  1514.5 506.92  1514.5 510  C 1514.5 513.08  1512.08 515.5  1509 515.5  C 1505.92 515.5  1503.5 513.08  1503.5 510  C 1503.5 506.92  1505.92 504.5  1509 504.5  Z " stroke-width="1" stroke="#797979" fill="none" />
  <path d="M 1509 513  C 1507.32 513  1506 511.68  1506 510  C 1506 508.32  1507.32 507  1509 507  C 1510.68 507  1512 508.32  1512 510  C 1512 511.68  1510.68 513  1509 513  " fill-rule="nonzero" fill="#797979" stroke="none" />
</svg>