<?xml version="1.0" encoding="utf-8"?>
<svg version="1.1" xmlns:xlink="http://www.w3.org/1999/xlink" width="12px" height="12px" viewBox="939 505  12 12" xmlns="http://www.w3.org/2000/svg">
  <path d="M 945 505  C 948.36 505  951 507.64  951 511  C 951 514.36  948.36 517  945 517  C 941.64 517  939 514.36  939 511  C 939 507.64  941.64 505  945 505  Z " fill-rule="nonzero" fill="#f0f0f0" stroke="none" />
  <path d="M 945 505.5  C 948.08 505.5  950.5 507.92  950.5 511  C 950.5 514.08  948.08 516.5  945 516.5  C 941.92 516.5  939.5 514.08  939.5 511  C 939.5 507.92  941.92 505.5  945 505.5  Z " stroke-width="1" stroke="#797979" fill="none" />
  <path d="M 945 514  C 943.32 514  942 512.68  942 511  C 942 509.32  943.32 508  945 508  C 946.68 508  948 509.32  948 511  C 948 512.68  946.68 514  945 514  " fill-rule="nonzero" fill="#797979" stroke="none" />
</svg>