<?xml version="1.0" encoding="utf-8"?>
<svg version="1.1" xmlns:xlink="http://www.w3.org/1999/xlink" width="12px" height="12px" viewBox="367 503  12 12" xmlns="http://www.w3.org/2000/svg">
  <path d="M 373 503  C 376.36 503  379 505.64  379 509  C 379 512.36  376.36 515  373 515  C 369.64 515  367 512.36  367 509  C 367 505.64  369.64 503  373 503  Z " fill-rule="nonzero" fill="#f0f0f0" stroke="none" />
  <path d="M 373 503.5  C 376.08 503.5  378.5 505.92  378.5 509  C 378.5 512.08  376.08 514.5  373 514.5  C 369.92 514.5  367.5 512.08  367.5 509  C 367.5 505.92  369.92 503.5  373 503.5  Z " stroke-width="1" stroke="#797979" fill="none" />
  <path d="M 373 512  C 371.32 512  370 510.68  370 509  C 370 507.32  371.32 506  373 506  C 374.68 506  376 507.32  376 509  C 376 510.68  374.68 512  373 512  " fill-rule="nonzero" fill="#797979" stroke="none" />
</svg>