<?xml version="1.0" encoding="utf-8"?>
<svg version="1.1" xmlns:xlink="http://www.w3.org/1999/xlink" width="64px" height="64px" xmlns="http://www.w3.org/2000/svg">
  <g transform="matrix(1 0 0 1 -383 -591 )">
    <path d="M 384 595  A 3 3 0 0 1 387 592 L 443 592  A 3 3 0 0 1 446 595 L 446 651  A 3 3 0 0 1 443 654 L 387 654  A 3 3 0 0 1 384 651 L 384 595  Z " fill-rule="nonzero" fill="#ffffff" stroke="none" />
    <path d="M 383.5 595  A 3.5 3.5 0 0 1 387 591.5 L 443 591.5  A 3.5 3.5 0 0 1 446.5 595 L 446.5 651  A 3.5 3.5 0 0 1 443 654.5 L 387 654.5  A 3.5 3.5 0 0 1 383.5 651 L 383.5 595  Z " stroke-width="1" stroke-dasharray="9,4" stroke="#d9d9d9" fill="none" stroke-dashoffset="0.5" />
  </g>
</svg>