<?xml version="1.0" encoding="utf-8"?>
<svg version="1.1" xmlns:xlink="http://www.w3.org/1999/xlink" width="12px" height="12px" viewBox="1587 504  12 12" xmlns="http://www.w3.org/2000/svg">
  <path d="M 1593 504  C 1596.36 504  1599 506.64  1599 510  C 1599 513.36  1596.36 516  1593 516  C 1589.64 516  1587 513.36  1587 510  C 1587 506.64  1589.64 504  1593 504  Z " fill-rule="nonzero" fill="#f0f0f0" stroke="none" />
  <path d="M 1593 504.5  C 1596.08 504.5  1598.5 506.92  1598.5 510  C 1598.5 513.08  1596.08 515.5  1593 515.5  C 1589.92 515.5  1587.5 513.08  1587.5 510  C 1587.5 506.92  1589.92 504.5  1593 504.5  Z " stroke-width="1" stroke="#797979" fill="none" />
  <path d="M 1593 513  C 1591.32 513  1590 511.68  1590 510  C 1590 508.32  1591.32 507  1593 507  C 1594.68 507  1596 508.32  1596 510  C 1596 511.68  1594.68 513  1593 513  " fill-rule="nonzero" fill="#797979" stroke="none" />
</svg>