<?xml version="1.0" encoding="utf-8"?>
<svg version="1.1" xmlns:xlink="http://www.w3.org/1999/xlink" width="12px" height="12px" viewBox="1075 505  12 12" xmlns="http://www.w3.org/2000/svg">
  <path d="M 1081 505  C 1084.36 505  1087 507.64  1087 511  C 1087 514.36  1084.36 517  1081 517  C 1077.64 517  1075 514.36  1075 511  C 1075 507.64  1077.64 505  1081 505  Z " fill-rule="nonzero" fill="#f0f0f0" stroke="none" />
  <path d="M 1081 505.5  C 1084.08 505.5  1086.5 507.92  1086.5 511  C 1086.5 514.08  1084.08 516.5  1081 516.5  C 1077.92 516.5  1075.5 514.08  1075.5 511  C 1075.5 507.92  1077.92 505.5  1081 505.5  Z " stroke-width="1" stroke="#797979" fill="none" />
  <path d="M 1081 514  C 1079.32 514  1078 512.68  1078 511  C 1078 509.32  1079.32 508  1081 508  C 1082.68 508  1084 509.32  1084 511  C 1084 512.68  1082.68 514  1081 514  " fill-rule="nonzero" fill="#797979" stroke="none" />
</svg>