<?xml version="1.0" encoding="utf-8"?>
<svg version="1.1" xmlns:xlink="http://www.w3.org/1999/xlink" width="12px" height="12px" viewBox="367 546  12 12" xmlns="http://www.w3.org/2000/svg">
  <path d="M 373 546  C 376.36 546  379 548.64  379 552  C 379 555.36  376.36 558  373 558  C 369.64 558  367 555.36  367 552  C 367 548.64  369.64 546  373 546  Z " fill-rule="nonzero" fill="#ffffff" stroke="none" />
  <path d="M 373 546.5  C 376.08 546.5  378.5 548.92  378.5 552  C 378.5 555.08  376.08 557.5  373 557.5  C 369.92 557.5  367.5 555.08  367.5 552  C 367.5 548.92  369.92 546.5  373 546.5  Z " stroke-width="1" stroke="#797979" fill="none" />
  <path d="M 373 555  C 371.32 555  370 553.68  370 552  C 370 550.32  371.32 549  373 549  C 374.68 549  376 550.32  376 552  C 376 553.68  374.68 555  373 555  " fill-rule="nonzero" fill="#797979" stroke="none" />
</svg>