<?xml version="1.0" encoding="utf-8"?>
<svg version="1.1" xmlns:xlink="http://www.w3.org/1999/xlink" width="12px" height="12px" viewBox="2441 8606  12 12" xmlns="http://www.w3.org/2000/svg">
  <path d="M 2447 8606  C 2450.36 8606  2453 8608.64  2453 8612  C 2453 8615.36  2450.36 8618  2447 8618  C 2443.64 8618  2441 8615.36  2441 8612  C 2441 8608.64  2443.64 8606  2447 8606  Z " fill-rule="nonzero" fill="#f0f0f0" stroke="none" />
  <path d="M 2447 8606.5  C 2450.08 8606.5  2452.5 8608.92  2452.5 8612  C 2452.5 8615.08  2450.08 8617.5  2447 8617.5  C 2443.92 8617.5  2441.5 8615.08  2441.5 8612  C 2441.5 8608.92  2443.92 8606.5  2447 8606.5  Z " stroke-width="1" stroke="#797979" fill="none" />
  <path d="M 2447 8615  C 2445.32 8615  2444 8613.68  2444 8612  C 2444 8610.32  2445.32 8609  2447 8609  C 2448.68 8609  2450 8610.32  2450 8612  C 2450 8613.68  2448.68 8615  2447 8615  " fill-rule="nonzero" fill="#797979" stroke="none" />
</svg>