<?xml version="1.0" encoding="utf-8"?>
<svg version="1.1" xmlns:xlink="http://www.w3.org/1999/xlink" width="12px" height="12px" viewBox="2188 8606  12 12" xmlns="http://www.w3.org/2000/svg">
  <path d="M 2194 8606  C 2197.36 8606  2200 8608.64  2200 8612  C 2200 8615.36  2197.36 8618  2194 8618  C 2190.64 8618  2188 8615.36  2188 8612  C 2188 8608.64  2190.64 8606  2194 8606  Z " fill-rule="nonzero" fill="#ffffff" stroke="none" />
  <path d="M 2194 8606.5  C 2197.08 8606.5  2199.5 8608.92  2199.5 8612  C 2199.5 8615.08  2197.08 8617.5  2194 8617.5  C 2190.92 8617.5  2188.5 8615.08  2188.5 8612  C 2188.5 8608.92  2190.92 8606.5  2194 8606.5  Z " stroke-width="1" stroke="#797979" fill="none" />
  <path d="M 2194 8615  C 2192.32 8615  2191 8613.68  2191 8612  C 2191 8610.32  2192.32 8609  2194 8609  C 2195.68 8609  2197 8610.32  2197 8612  C 2197 8613.68  2195.68 8615  2194 8615  " fill-rule="nonzero" fill="#797979" stroke="none" />
</svg>