<?xml version="1.0" encoding="utf-8"?>
<svg version="1.1" xmlns:xlink="http://www.w3.org/1999/xlink" width="12px" height="12px" viewBox="1226 505  12 12" xmlns="http://www.w3.org/2000/svg">
  <path d="M 1232 505  C 1235.36 505  1238 507.64  1238 511  C 1238 514.36  1235.36 517  1232 517  C 1228.64 517  1226 514.36  1226 511  C 1226 507.64  1228.64 505  1232 505  Z " fill-rule="nonzero" fill="#f0f0f0" stroke="none" />
  <path d="M 1232 505.5  C 1235.08 505.5  1237.5 507.92  1237.5 511  C 1237.5 514.08  1235.08 516.5  1232 516.5  C 1228.92 516.5  1226.5 514.08  1226.5 511  C 1226.5 507.92  1228.92 505.5  1232 505.5  Z " stroke-width="1" stroke="#797979" fill="none" />
  <path d="M 1232 514  C 1230.32 514  1229 512.68  1229 511  C 1229 509.32  1230.32 508  1232 508  C 1233.68 508  1235 509.32  1235 511  C 1235 512.68  1233.68 514  1232 514  " fill-rule="nonzero" fill="#797979" stroke="none" />
</svg>