<?xml version="1.0" encoding="utf-8"?>
<svg version="1.1" xmlns:xlink="http://www.w3.org/1999/xlink" width="12px" height="12px" viewBox="453 546  12 12" xmlns="http://www.w3.org/2000/svg">
  <path d="M 459 546  C 462.36 546  465 548.64  465 552  C 465 555.36  462.36 558  459 558  C 455.64 558  453 555.36  453 552  C 453 548.64  455.64 546  459 546  Z " fill-rule="nonzero" fill="#f0f0f0" stroke="none" />
  <path d="M 459 546.5  C 462.08 546.5  464.5 548.92  464.5 552  C 464.5 555.08  462.08 557.5  459 557.5  C 455.92 557.5  453.5 555.08  453.5 552  C 453.5 548.92  455.92 546.5  459 546.5  Z " stroke-width="1" stroke="#797979" fill="none" />
  <path d="M 459 555  C 457.32 555  456 553.68  456 552  C 456 550.32  457.32 549  459 549  C 460.68 549  462 550.32  462 552  C 462 553.68  460.68 555  459 555  " fill-rule="nonzero" fill="#797979" stroke="none" />
</svg>