<?xml version="1.0" encoding="utf-8"?>
<svg version="1.1" xmlns:xlink="http://www.w3.org/1999/xlink" width="12px" height="12px" viewBox="2099 1600  12 12" xmlns="http://www.w3.org/2000/svg">
  <path d="M 2105 1600  C 2108.36 1600  2111 1602.64  2111 1606  C 2111 1609.36  2108.36 1612  2105 1612  C 2101.64 1612  2099 1609.36  2099 1606  C 2099 1602.64  2101.64 1600  2105 1600  Z " fill-rule="nonzero" fill="#f0f0f0" stroke="none" />
  <path d="M 2105 1600.5  C 2108.08 1600.5  2110.5 1602.92  2110.5 1606  C 2110.5 1609.08  2108.08 1611.5  2105 1611.5  C 2101.92 1611.5  2099.5 1609.08  2099.5 1606  C 2099.5 1602.92  2101.92 1600.5  2105 1600.5  Z " stroke-width="1" stroke="#797979" fill="none" />
  <path d="M 2105 1609  C 2103.32 1609  2102 1607.68  2102 1606  C 2102 1604.32  2103.32 1603  2105 1603  C 2106.68 1603  2108 1604.32  2108 1606  C 2108 1607.68  2106.68 1609  2105 1609  " fill-rule="nonzero" fill="#797979" stroke="none" />
</svg>