<?xml version="1.0" encoding="utf-8"?>
<svg version="1.1" xmlns:xlink="http://www.w3.org/1999/xlink" width="12px" height="12px" viewBox="2185 1600  12 12" xmlns="http://www.w3.org/2000/svg">
  <path d="M 2191 1600  C 2194.36 1600  2197 1602.64  2197 1606  C 2197 1609.36  2194.36 1612  2191 1612  C 2187.64 1612  2185 1609.36  2185 1606  C 2185 1602.64  2187.64 1600  2191 1600  Z " fill-rule="nonzero" fill="#f0f0f0" stroke="none" />
  <path d="M 2191 1600.5  C 2194.08 1600.5  2196.5 1602.92  2196.5 1606  C 2196.5 1609.08  2194.08 1611.5  2191 1611.5  C 2187.92 1611.5  2185.5 1609.08  2185.5 1606  C 2185.5 1602.92  2187.92 1600.5  2191 1600.5  Z " stroke-width="1" stroke="#797979" fill="none" />
  <path d="M 2191 1609  C 2189.32 1609  2188 1607.68  2188 1606  C 2188 1604.32  2189.32 1603  2191 1603  C 2192.68 1603  2194 1604.32  2194 1606  C 2194 1607.68  2192.68 1609  2191 1609  " fill-rule="nonzero" fill="#797979" stroke="none" />
</svg>