<?xml version="1.0" encoding="utf-8"?>
<svg version="1.1" xmlns:xlink="http://www.w3.org/1999/xlink" width="18px" height="11px" xmlns="http://www.w3.org/2000/svg">
  <g transform="matrix(1 0 0 1 -231 -333 )">
    <path d="M 17.819639278557 1.13402061855669  C 17.939879759519 1.26002290950743  18 1.40492554410076  18 1.56872852233676  C 18 1.73253150057275  17.939879759519 1.87743413516614  17.819639278557 2.00343642611682  L 9.41482965931868 10.8109965635739  C 9.29458917835666 10.9369988545246  9.15631262525051 11  9 11  C 8.84368737474949 11  8.70541082164334 10.9369988545246  8.58517034068132 10.8109965635739  L 0.18036072144298 2.00343642611682  C 0.0601202404809555 1.87743413516614  0 1.73253150057275  0 1.56872852233676  C 0 1.40492554410076  0.0601202404809555 1.26002290950743  0.18036072144298 1.13402061855669  L 1.08216432865731 0.189003436426106  C 1.20240480961922 0.0630011454753685  1.34068136272549 0  1.49699398797588 0  C 1.6533066132265 0  1.79158316633266 0.0630011454753685  1.91182364729457 0.189003436426106  L 9 7.61683848797253  L 16.0881763527054 0.189003436426106  C 16.2084168336673 0.0630011454753685  16.3466933867735 0  16.5030060120241 0  C 16.6593186372745 0  16.7975951903808 0.0630011454753685  16.9178356713427 0.189003436426106  L 17.819639278557 1.13402061855669  Z " fill-rule="nonzero" fill="#ffffff" stroke="none" transform="matrix(1 0 0 1 231 333 )" />
  </g>
</svg>