<?xml version="1.0" encoding="utf-8"?>
<svg version="1.1" xmlns:xlink="http://www.w3.org/1999/xlink" width="18px" height="18px" xmlns="http://www.w3.org/2000/svg">
  <g transform="matrix(1 0 0 1 -769 -515 )">
    <path d="M 9.00250830078125 0.578869531250001  C 4.3660118359375 0.57886953125  0.60793982421875 4.3399794921875  0.60793982421875 8.97993361328125  C 0.60793982421875 13.619867734375  4.36601185546875 17.3809577148438  9.00250830078125 17.3809577148438  C 13.6385450585938 17.3809577148438  17.3966370898438 13.619867734375  17.3966370898438 8.97993361328125  C 17.3966370898438 4.33997951171875  13.638545078125 0.578869531250001  9.00250830078125 0.578869531250001  Z M 7.17702599609375 12.6076340429688  L 10.8474374414062 8.97993361328125  L 7.17700599609375 5.35219322265625  C 6.97754123046875 5.15364783203125  6.95771466796875 4.85233212890625  7.13165673828125 4.67880978515625  C 7.306478203125 4.50526744140625  7.6094927734375 4.525133984375  7.80891755859375 4.72369935546875  L 11.7133303710938 8.58408201171875  C 11.8268733984375 8.69758505859375  11.8804170898437 8.84392583984375  11.874381171875 8.98161248046875  C 11.8795376757813 9.1180599609375  11.8260339453125 9.263081640625  11.7129306445313 9.37576525390625  L 7.80893755859375 13.2361479101563  C 7.6095127734375 13.4342336132813  7.30607849609375 13.4545598242188  7.13167673828125 13.2810174804688  C 6.95773466796875 13.10745515625  6.97754125 12.8061794140625  7.17702599609375 12.6076340429688  Z " fill-rule="nonzero" fill="#ffffff" stroke="none" transform="matrix(1 0 0 1 769 515 )" />
  </g>
</svg>