<?xml version="1.0" encoding="utf-8"?>
<svg version="1.1" xmlns:xlink="http://www.w3.org/1999/xlink" width="17px" height="17px" xmlns="http://www.w3.org/2000/svg">
  <g transform="matrix(1 0 0 1 -2379 -713 )">
    <path d="M 15.791015625 3.9921875  L 13.015625 1.216796875  L 12.322265625 0.5234375  L 11.359375 1.486328125  L 2.685546875 10.16015625  L 2.2734375 10.57421875  L 2.265625 10.58203125  C 2.19140625 10.65625  2.134765625 10.74609375  2.1015625 10.84375  L 0.38671875 16.02734375  C 0.32421875 16.21484375  0.234375 16.53125  0.357421875 16.65234375  C 0.48046875 16.7734375  0.794921875 16.685546875  0.982421875 16.623046875  L 6.166015625 14.90625  C 6.26171875 14.875  6.353515625 14.818359375  6.427734375 14.744140625  L 6.435546875 14.734375  L 6.849609375 14.322265625  L 15.5234375 5.6484375  L 16.486328125 4.685546875  L 15.791015625 3.9921875  Z M 5.79296875 13.8828125  L 1.8046875 15.203125  L 3.125 11.21484375  L 5.79296875 13.8828125  Z M 6.244140625 13.5390625  L 3.470703125 10.763671875  L 12.220703125 2.013671875  L 14.994140625 4.7890625  L 6.244140625 13.5390625  Z " fill-rule="nonzero" fill="#333333" stroke="none" transform="matrix(1 0 0 1 2379 713 )" />
  </g>
</svg>