<?xml version="1.0" encoding="utf-8"?>
<svg version="1.1" xmlns:xlink="http://www.w3.org/1999/xlink" width="16px" height="18px" xmlns="http://www.w3.org/2000/svg">
  <g transform="matrix(1 0 0 1 -133 -1125 )">
    <path d="M 10.5 5.25  L 13.7425 5.25  L 10.5 2.0075  L 10.5 5.25  Z M 14 16.5  L 14 6.5  L 9.25 6.5  L 9.25 1.5  L 2 1.5  L 2 16.5  L 14 16.5  Z M 0.675 0.425  C 0.794437137470946 0.307088548794109  0.957281773435938 0.243760079252167  1.125 0.25  L 10.5 0.25  L 15.5 5.25  L 15.5 17.125  C 15.5062399207478 17.2927182265641  15.4429114512059 17.455562862529  15.325 17.575  C 15.2055628625291 17.6929114512059  15.0427182265641 17.7562399207478  14.875 17.75  L 1.125 17.75  C 0.957281773435939 17.7562399207478  0.794437137470945 17.6929114512059  0.675 17.575  C 0.557088548794109 17.455562862529  0.493760079252167 17.2927182265641  0.5 17.125  L 0.5 0.875  C 0.493760079252167 0.707281773435939  0.557088548794109 0.544437137470946  0.675 0.425  Z M 5.12916666015625 9.41083333984375  L 7.33666666015625 11.6175  L 10.8708333398438 8.0825  L 11.77 8.96166666015625  L 7.33666666015625 13.395  L 4.25 10.2891666601562  L 5.12916666015625 9.41083333984375  Z " fill-rule="nonzero" fill="#000000" stroke="none" fill-opacity="0.647058823529412" transform="matrix(1 0 0 1 133 1125 )" />
  </g>
</svg>