<?xml version="1.0" encoding="utf-8"?>
<svg version="1.1" xmlns:xlink="http://www.w3.org/1999/xlink" width="13px" height="11px" xmlns="http://www.w3.org/2000/svg">
  <g transform="matrix(1 0 0 1 -33 -24 )">
    <path d="M 9.5109375 6.2431640625  C 9.25064453125 6.24251953125  9.03990234375 6.0313671875  9.03990234375 5.7709765625  C 9.03990234375 5.62634765625  9.104921875 5.4969140625  9.20732421875 5.4103125  C 9.8094140625 4.90158203125  10.18875 4.14685546875  10.18875 3.30353515625  C 10.18875 2.54298828125  9.880234375 1.85453125  9.3815625 1.35642578125  C 9.2961328125 1.27080078125  9.24330078125 1.15267578125  9.24330078125 1.02216796875  C 9.24330078125 0.760859374999999  9.45515625 0.549023437499999  9.7164453125 0.549023437499999  C 9.8473046875 0.549023437499999  9.96572265625 0.602128906249999  10.05138671875 0.687968749999999  C 10.7200390625 1.35705078125  11.13353515625 2.28115234375  11.13353515625 3.30181640625  C 11.13353515625 4.43517578125  10.6236328125 5.44943359375  9.82078125 6.12775390625  C 9.73412109375 6.20123046875  9.6280859375 6.24318359375  9.512265625 6.24318359375  C 9.51181640625 6.24318359375  9.511328125 6.24318359375  9.51087890625 6.24318359375  Z M 8.01083984375 5.623046875  L 8.0090625 5.6230859375  C 8.12 5.6230859375  8.22240234375 5.58611328125  8.3048828125 5.52068359375  C 8.9607421875 4.9976953125  9.37732421875 4.19875  9.37732421875 3.30248046875  C 9.37732421875 2.5243359375  9.06328125 1.81953125  8.5550390625 1.307890625  C 8.4700390625 1.2216796875  8.35173828125 1.168203125  8.2209765625 1.168203125  C 8.09021484375 1.168203125  7.9719140625 1.2216796875  7.886796875 1.30796875  C 7.80125 1.393046875  7.748359375 1.5107421875  7.748359375 1.6408203125  C 7.748359375 1.77087890625  7.80126953125 1.88859375  7.88673828125 1.97359375  C 8.225546875 2.3140234375  8.435 2.78349609375  8.435 3.30181640625  C 8.435 3.8992578125  8.1567578125 4.43173828125  7.72279296875 4.77669921875  C 7.609375 4.866640625  7.5397265625 4.99982421875  7.5397265625 5.14927734375  C 7.5397265625 5.260546875  7.57833984375 5.36279296875  7.6428515625 5.44333984375  C 7.728828125 5.5521484375  7.86162109375 5.62220703125  8.01083984375 5.623046875  Z M 1.77689453125 6.2431640625  C 1.9176953125 6.2431640625  2.04712890625 6.1834375  2.13669921875 6.07390625  C 2.20646484375 5.99248046875  2.24896484375 5.885859375  2.24896484375 5.76931640625  C 2.24896484375 5.6252734375  2.1840625 5.49640625  2.081953125 5.41029296875  C 1.47966796875 4.90484375  1.09990234375 4.152578125  1.09990234375 3.31162109375  C 1.09990234375 3.30873046875  1.09990234375 3.305859375  1.099921875 3.30294921875  C 1.099921875 2.56525390625  1.38580078125 1.8740625  1.90490234375 1.3563671875  C 1.9898828125 1.27056640625  2.04236328125 1.1525  2.04236328125 1.02212890625  C 2.04236328125 0.891777343749999  1.9898828125 0.773710937499999  1.90484375 0.687851562499999  C 1.8191015625 0.602910156249999  1.70099609375 0.550429687499999  1.5706640625 0.550429687499999  C 1.4403125 0.550429687499999  1.32224609375 0.602910156249999  1.23638671875 0.687949218749999  C 0.53953125 1.3848046875  0.155527343750001 2.313515625  0.155527343750001 3.303359375  C 0.155507812500002 3.30673828125  0.155507812500002 3.31072265625  0.155507812500002 3.31470703125  C 0.155507812500002 4.443828125  0.665117187500002 5.4539453125  1.46685546875 6.12755859375  C 1.5529296875 6.2011328125  1.65828125 6.243125  1.7734375 6.243125  C 1.7746484375 6.243125  1.77583984375 6.243125  1.77705078125 6.24310546875  Z M 3.27306640625 5.6230859375  C 3.27408203125 5.6230859375  3.2753125 5.62310546875  3.2765234375 5.62310546875  C 3.5365234375 5.62310546875  3.747265625 5.41236328125  3.747265625 5.15236328125  C 3.747265625 5.00201171875  3.67677734375 4.8680859375  3.56701171875 4.78193359375  C 3.12955078125 4.43591796875  2.85203125 3.90630859375  2.85203125 3.31189453125  C 2.85203125 3.30943359375  2.85203125 3.30697265625  2.85205078125 3.30451171875  C 2.85205078125 2.8028515625  3.0469140625 2.3306640625  3.40103515625 1.9751171875  C 3.4865234375 1.89009765625  3.53943359375 1.7723828125  3.53943359375 1.64232421875  C 3.53943359375 1.512265625  3.4865234375 1.39455078125  3.4010546875 1.30955078125  C 3.315859375 1.22318359375  3.19759765625 1.16966796875  3.066796875 1.16966796875  C 2.93603515625 1.16966796875  2.817734375 1.22314453125  2.7326171875 1.30943359375  C 2.19923828125 1.84138671875  1.90767578125 2.54966796875  1.90767578125 3.30484375  C 1.90765625 3.30923828125  1.90763671875 3.314453125  1.90763671875 3.3196484375  C 1.90763671875 4.21171875  2.3258203125 5.00611328125  2.9768359375 5.51751953125  C 3.06181640625 5.585  3.163046875 5.62306640625  3.273125 5.62306640625  Z M 6.11607421875 5.0598828125  L 5.1703125 5.0598828125  L 5.1703125 9.0805078125  L 6.11607421875 9.0805078125  L 6.11607421875 5.0598828125  Z M 4.41509765625 3.3973046875  C 4.4158984375 2.7192578125  4.9657421875 2.169921875  5.64388671875 2.169921875  C 6.3225390625 2.169921875  6.87267578125 2.72005859375  6.87267578125 3.3987109375  C 6.87267578125 3.39923828125  6.87267578125 3.39970703125  6.87267578125 3.4001953125  C 6.871875 4.07814453125  6.32203125 4.6275  5.64388671875 4.6275  C 4.965234375 4.6275  4.41509765625 4.07736328125  4.41509765625 3.3987109375  C 4.41509765625 3.39818359375  4.41509765625 3.39771484375  4.41509765625 3.3972265625  Z M 5.63833984375 5.0966796875  L 5.64248046875 5.096875  C 6.5605078125 5.0694921875  7.29427734375 4.31875  7.29427734375 3.3966015625  C 7.29427734375 2.474453125  6.5605078125 1.7237109375  5.64498046875 1.69638671875  C 4.7396484375 1.74296875  4.0252734375 2.48634765625  4.0252734375 3.3966015625  C 4.0252734375 4.30685546875  4.7396484375 5.050234375  5.63833984375 5.0966796875  Z M 5.64248046875 2.64068359375  C 6.04599609375 2.65873046875  6.3662890625 2.9902734375  6.3662890625 3.3966015625  C 6.3662890625 3.8029296875  6.0459765625 4.13447265625  5.64408203125 4.1524609375  C 5.225 4.15251953125  4.88654296875 3.81408203125  4.88654296875 3.3966015625  C 4.88654296875 2.97912109375  5.2249609375 2.64068359375  5.6424609375 2.64068359375  Z " fill-rule="nonzero" fill="#000000" stroke="none" transform="matrix(1 0 0 1 33 24 )" />
  </g>
</svg>