<?xml version="1.0" encoding="utf-8"?>
<svg version="1.1" xmlns:xlink="http://www.w3.org/1999/xlink" width="20px" height="12px" xmlns="http://www.w3.org/2000/svg">
  <g transform="matrix(1 0 0 1 -26 -32 )">
    <path d="M 2.99697265625 8.72779296875  L 2.9983984375 8.72779296875  L 2.01279296875 8.72779296875  L 2.01279296875 7.78912109375  L 2.99697265625 7.78912109375  L 2.99697265625 8.72779296875  Z M 4.9667578125 8.72779296875  L 4.9667578125 7.78912109375  L 3.982578125 7.78912109375  L 3.982578125 8.72779296875  L 4.9667578125 8.72779296875  Z M 6.93509765625 8.72779296875  L 6.93509765625 7.78912109375  L 5.95091796875 7.78912109375  L 5.95091796875 8.72779296875  L 6.93509765625 8.72779296875  Z M 8.90345703125 8.72779296875  L 8.90345703125 7.78912109375  L 7.91927734375 7.78912109375  L 7.91927734375 8.72779296875  L 8.90345703125 8.72779296875  Z M 19.95556640625 4.973125  L 17.98720703125 4.97169921875  L 17.98720703125 5.91462890625  L 19.95556640625 5.91462890625  L 19.95556640625 10.72458984375  L 17.98720703125 10.72458984375  L 17.98720703125 11.66041015625  L 16.01744140625 11.66041015625  L 16.01744140625 10.72458984375  L 3.982578125 10.72458984375  L 3.982578125 11.66041015625  L 2.0128125 11.66041015625  L 2.0128125 10.72458984375  L 0.0444531250000024 10.72458984375  L 0.0444531250000024 5.91462890625  L 2.0128125 5.91462890625  L 2.0128125 4.97169921875  L 0.0444531250000024 4.97169921875  L 0.0444531250000024 0.284062499999999  L 19.95556640625 0.284062499999999  L 19.95556640625 4.973125  Z M 1.02861328125 4  L 18.97279296875 4  L 18.97279296875 1.21990234375  L 1.02861328125 1.21990234375  L 1.02861328125 4  Z M 18.97138671875 6.85189453125  L 1.0286328125 6.85189453125  L 1.0286328125 9.7859375  L 18.97138671875 9.7859375  L 18.97138671875 6.85189453125  Z M 16.017421875 6  L 16.017421875 5  L 3.98255859375 5  L 3.98255859375 6  L 16.017421875 6  Z M 2.01279296875 2.16140625  L 2.01279296875 3.0972265625  L 2.99697265625 3.0972265625  L 2.99697265625 2.16140625  L 2.01279296875 2.16140625  Z M 3.982578125 2.16140625  L 3.982578125 3.0972265625  L 4.9667578125 3.0972265625  L 4.9667578125 2.16140625  L 3.982578125 2.16140625  Z M 5.9509375 2.16140625  L 5.9509375 3.0972265625  L 6.9351171875 3.0972265625  L 6.9351171875 2.16140625  L 5.9509375 2.16140625  Z M 7.919296875 2.16140625  L 7.919296875 3.0972265625  L 8.9034765625 3.0972265625  L 8.9034765625 2.16140625  L 7.919296875 2.16140625  Z M 17.00302734375 2.16140625  L 17.00302734375 3.0972265625  L 17.98720703125 3.0972265625  L 17.98720703125 2.16140625  L 17.00302734375 2.16140625  Z M 15.03466796875 2.16140625  L 15.03466796875 3.0972265625  L 16.017421875 3.0972265625  L 16.017421875 2.16140625  L 15.03466796875 2.16140625  Z M 16.017421875 8.84298828125  L 15.95626953125 8.84298828125  L 15.95626953125 7.78912109375  L 17.98720703125 7.78912109375  L 17.98720703125 8.84298828125  L 16.01744140625 8.84298828125  Z " fill-rule="nonzero" fill="#000000" stroke="none" transform="matrix(1 0 0 1 26 32 )" />
  </g>
</svg>