<?xml version="1.0" encoding="utf-8"?>
<svg version="1.1" xmlns:xlink="http://www.w3.org/1999/xlink" width="20px" height="19px" xmlns="http://www.w3.org/2000/svg">
  <g transform="matrix(1 0 0 1 -691 -148 )">
    <path d="M 7.11111111979167 18.0047618959263  C 7.02222223958333 18.1857142857143  6.844444453125 18.2761904673549  6.66666666666667 18.2761904673549  L 6.48888888020833 18.2761904673549  C 3.11111109375 16.7380952204241  0.888888880208334 13.3904761816406  0.888888880208334 9.59047618164063  C 0.888888880208333 4.25238096121652  5.06666666666667 0  10.2222222135417 0  C 15.3777777604167 0  19.555555546875 4.25238096121652  19.555555546875 9.5  C 19.555555546875 10.3142857142857  19.4666666666667 11.0380952469308  19.2888888802083 11.8523809612165  C 19.2 12.1238095326451  19.0222222135417 12.2142857142857  18.755555546875 12.2142857142857  C 18.4888888802083 12.1238095326451  18.4 11.9428571428571  18.4 11.6714285714286  C 18.5777777864583 10.9476190387835  18.6666666666667 10.2238095326451  18.6666666666667 9.5  C 18.6666666666667 4.79523810407366  14.844444453125 0.90476189592634  10.2222222135417 0.90476189592634  C 5.59999997395833 0.90476189592634  1.77777776041667 4.79523807756696  1.77777778645833 9.5  C 1.77777778645833 12.9380952469308  3.73333333333333 16.0142857142857  6.844444453125 17.3714285714286  C 7.11111111979167 17.4619047530692  7.2 17.7333333244978  7.11111111979167 18.0047618959263  Z " fill-rule="nonzero" fill="#ff0000" stroke="none" transform="matrix(1 0 0 1 691 148 )" />
  </g>
</svg>