<?xml version="1.0" encoding="utf-8"?>
<svg version="1.1" xmlns:xlink="http://www.w3.org/1999/xlink" width="12px" height="12px" viewBox="2160 1490  12 12" xmlns="http://www.w3.org/2000/svg">
  <path d="M 2166 1490  C 2169.36 1490  2172 1492.64  2172 1496  C 2172 1499.36  2169.36 1502  2166 1502  C 2162.64 1502  2160 1499.36  2160 1496  C 2160 1492.64  2162.64 1490  2166 1490  Z " fill-rule="nonzero" fill="#f0f0f0" stroke="none" />
  <path d="M 2166 1490.5  C 2169.08 1490.5  2171.5 1492.92  2171.5 1496  C 2171.5 1499.08  2169.08 1501.5  2166 1501.5  C 2162.92 1501.5  2160.5 1499.08  2160.5 1496  C 2160.5 1492.92  2162.92 1490.5  2166 1490.5  Z " stroke-width="1" stroke="#797979" fill="none" />
  <path d="M 2166 1499  C 2164.32 1499  2163 1497.68  2163 1496  C 2163 1494.32  2164.32 1493  2166 1493  C 2167.68 1493  2169 1494.32  2169 1496  C 2169 1497.68  2167.68 1499  2166 1499  " fill-rule="nonzero" fill="#797979" stroke="none" />
</svg>