<?xml version="1.0" encoding="utf-8"?>
<svg version="1.1" xmlns:xlink="http://www.w3.org/1999/xlink" width="12px" height="12px" viewBox="2080 1490  12 12" xmlns="http://www.w3.org/2000/svg">
  <path d="M 2086 1490  C 2089.36 1490  2092 1492.64  2092 1496  C 2092 1499.36  2089.36 1502  2086 1502  C 2082.64 1502  2080 1499.36  2080 1496  C 2080 1492.64  2082.64 1490  2086 1490  Z " fill-rule="nonzero" fill="#f0f0f0" stroke="none" />
  <path d="M 2086 1490.5  C 2089.08 1490.5  2091.5 1492.92  2091.5 1496  C 2091.5 1499.08  2089.08 1501.5  2086 1501.5  C 2082.92 1501.5  2080.5 1499.08  2080.5 1496  C 2080.5 1492.92  2082.92 1490.5  2086 1490.5  Z " stroke-width="1" stroke="#797979" fill="none" />
  <path d="M 2086 1499  C 2084.32 1499  2083 1497.68  2083 1496  C 2083 1494.32  2084.32 1493  2086 1493  C 2087.68 1493  2089 1494.32  2089 1496  C 2089 1497.68  2087.68 1499  2086 1499  " fill-rule="nonzero" fill="#797979" stroke="none" />
</svg>