<?xml version="1.0" encoding="utf-8"?>
<svg version="1.1" xmlns:xlink="http://www.w3.org/1999/xlink" width="12px" height="12px" viewBox="2160 1532  12 12" xmlns="http://www.w3.org/2000/svg">
  <path d="M 2166 1532  C 2169.36 1532  2172 1534.64  2172 1538  C 2172 1541.36  2169.36 1544  2166 1544  C 2162.64 1544  2160 1541.36  2160 1538  C 2160 1534.64  2162.64 1532  2166 1532  Z " fill-rule="nonzero" fill="#f0f0f0" stroke="none" />
  <path d="M 2166 1532.5  C 2169.08 1532.5  2171.5 1534.92  2171.5 1538  C 2171.5 1541.08  2169.08 1543.5  2166 1543.5  C 2162.92 1543.5  2160.5 1541.08  2160.5 1538  C 2160.5 1534.92  2162.92 1532.5  2166 1532.5  Z " stroke-width="1" stroke="#797979" fill="none" />
  <path d="M 2166 1541  C 2164.32 1541  2163 1539.68  2163 1538  C 2163 1536.32  2164.32 1535  2166 1535  C 2167.68 1535  2169 1536.32  2169 1538  C 2169 1539.68  2167.68 1541  2166 1541  " fill-rule="nonzero" fill="#797979" stroke="none" />
</svg>