<?xml version="1.0" encoding="utf-8"?>
<svg version="1.1" xmlns:xlink="http://www.w3.org/1999/xlink" width="12px" height="12px" viewBox="2080 1449  12 12" xmlns="http://www.w3.org/2000/svg">
  <path d="M 2086 1449  C 2089.36 1449  2092 1451.64  2092 1455  C 2092 1458.36  2089.36 1461  2086 1461  C 2082.64 1461  2080 1458.36  2080 1455  C 2080 1451.64  2082.64 1449  2086 1449  Z " fill-rule="nonzero" fill="#f0f0f0" stroke="none" />
  <path d="M 2086 1449.5  C 2089.08 1449.5  2091.5 1451.92  2091.5 1455  C 2091.5 1458.08  2089.08 1460.5  2086 1460.5  C 2082.92 1460.5  2080.5 1458.08  2080.5 1455  C 2080.5 1451.92  2082.92 1449.5  2086 1449.5  Z " stroke-width="1" stroke="#797979" fill="none" />
  <path d="M 2086 1458  C 2084.32 1458  2083 1456.68  2083 1455  C 2083 1453.32  2084.32 1452  2086 1452  C 2087.68 1452  2089 1453.32  2089 1455  C 2089 1456.68  2087.68 1458  2086 1458  " fill-rule="nonzero" fill="#797979" stroke="none" />
</svg>