<?xml version="1.0" encoding="utf-8"?>
<svg version="1.1" xmlns:xlink="http://www.w3.org/1999/xlink" width="12px" height="12px" viewBox="2080 1685  12 12" xmlns="http://www.w3.org/2000/svg">
  <path d="M 2086 1685  C 2089.36 1685  2092 1687.64  2092 1691  C 2092 1694.36  2089.36 1697  2086 1697  C 2082.64 1697  2080 1694.36  2080 1691  C 2080 1687.64  2082.64 1685  2086 1685  Z " fill-rule="nonzero" fill="#ffffff" stroke="none" />
  <path d="M 2086 1685.5  C 2089.08 1685.5  2091.5 1687.92  2091.5 1691  C 2091.5 1694.08  2089.08 1696.5  2086 1696.5  C 2082.92 1696.5  2080.5 1694.08  2080.5 1691  C 2080.5 1687.92  2082.92 1685.5  2086 1685.5  Z " stroke-width="1" stroke="#797979" fill="none" />
  <path d="M 2086 1694  C 2084.32 1694  2083 1692.68  2083 1691  C 2083 1689.32  2084.32 1688  2086 1688  C 2087.68 1688  2089 1689.32  2089 1691  C 2089 1692.68  2087.68 1694  2086 1694  " fill-rule="nonzero" fill="#797979" stroke="none" />
</svg>