<?xml version="1.0" encoding="utf-8"?>
<svg version="1.1" xmlns:xlink="http://www.w3.org/1999/xlink" width="12px" height="12px" viewBox="2160 1685  12 12" xmlns="http://www.w3.org/2000/svg">
  <path d="M 2166 1685  C 2169.36 1685  2172 1687.64  2172 1691  C 2172 1694.36  2169.36 1697  2166 1697  C 2162.64 1697  2160 1694.36  2160 1691  C 2160 1687.64  2162.64 1685  2166 1685  Z " fill-rule="nonzero" fill="#f0f0f0" stroke="none" />
  <path d="M 2166 1685.5  C 2169.08 1685.5  2171.5 1687.92  2171.5 1691  C 2171.5 1694.08  2169.08 1696.5  2166 1696.5  C 2162.92 1696.5  2160.5 1694.08  2160.5 1691  C 2160.5 1687.92  2162.92 1685.5  2166 1685.5  Z " stroke-width="1" stroke="#797979" fill="none" />
  <path d="M 2166 1694  C 2164.32 1694  2163 1692.68  2163 1691  C 2163 1689.32  2164.32 1688  2166 1688  C 2167.68 1688  2169 1689.32  2169 1691  C 2169 1692.68  2167.68 1694  2166 1694  " fill-rule="nonzero" fill="#797979" stroke="none" />
</svg>