<?xml version="1.0" encoding="utf-8"?>
<svg version="1.1" xmlns:xlink="http://www.w3.org/1999/xlink" width="12px" height="12px" viewBox="365 539  12 12" xmlns="http://www.w3.org/2000/svg">
  <path d="M 371 539  C 374.36 539  377 541.64  377 545  C 377 548.36  374.36 551  371 551  C 367.64 551  365 548.36  365 545  C 365 541.64  367.64 539  371 539  Z " fill-rule="nonzero" fill="#ffffff" stroke="none" />
  <path d="M 371 539.5  C 374.08 539.5  376.5 541.92  376.5 545  C 376.5 548.08  374.08 550.5  371 550.5  C 367.92 550.5  365.5 548.08  365.5 545  C 365.5 541.92  367.92 539.5  371 539.5  Z " stroke-width="1" stroke="#797979" fill="none" />
  <path d="M 371 548  C 369.32 548  368 546.68  368 545  C 368 543.32  369.32 542  371 542  C 372.68 542  374 543.32  374 545  C 374 546.68  372.68 548  371 548  " fill-rule="nonzero" fill="#797979" stroke="none" />
</svg>