<?xml version="1.0" encoding="utf-8"?>
<svg version="1.1" xmlns:xlink="http://www.w3.org/1999/xlink" width="40px" height="40px" xmlns="http://www.w3.org/2000/svg">
  <defs>
    <filter x="1520px" y="1148px" width="40px" height="40px" filterUnits="userSpaceOnUse" id="filter653">
      <feOffset dx="1" dy="1" in="SourceAlpha" result="shadowOffsetInner" />
      <feGaussianBlur stdDeviation="2.5" in="shadowOffsetInner" result="shadowGaussian" />
      <feComposite in2="shadowGaussian" operator="atop" in="SourceAlpha" result="shadowComposite" />
      <feColorMatrix type="matrix" values="0 0 0 0 0  0 0 0 0 0  0 0 0 0 0  0 0 0 0.698039215686274 0  " in="shadowComposite" />
    </filter>
    <g id="widget654">
      <path d="M 1539 1152  C 1547.4 1152  1554 1158.6  1554 1167  C 1554 1175.4  1547.4 1182  1539 1182  C 1530.6 1182  1524 1175.4  1524 1167  C 1524 1158.6  1530.6 1152  1539 1152  Z " fill-rule="nonzero" fill="#009dd9" stroke="none" />
      <path d="M 1539 1152.5  C 1547.12 1152.5  1553.5 1158.88  1553.5 1167  C 1553.5 1175.12  1547.12 1181.5  1539 1181.5  C 1530.88 1181.5  1524.5 1175.12  1524.5 1167  C 1524.5 1158.88  1530.88 1152.5  1539 1152.5  Z " stroke-width="1" stroke="#ffffff" fill="none" />
    </g>
  </defs>
  <g transform="matrix(1 0 0 1 -1520 -1148 )">
    <use xlink:href="#widget654" filter="url(#filter653)" />
    <use xlink:href="#widget654" />
  </g>
</svg>