<?xml version="1.0" encoding="utf-8"?>
<svg version="1.1" xmlns:xlink="http://www.w3.org/1999/xlink" width="12px" height="12px" viewBox="430 339  12 12" xmlns="http://www.w3.org/2000/svg">
  <path d="M 436 339  C 439.36 339  442 341.64  442 345  C 442 348.36  439.36 351  436 351  C 432.64 351  430 348.36  430 345  C 430 341.64  432.64 339  436 339  Z " fill-rule="nonzero" fill="#ffffff" stroke="none" />
  <path d="M 436 339.5  C 439.08 339.5  441.5 341.92  441.5 345  C 441.5 348.08  439.08 350.5  436 350.5  C 432.92 350.5  430.5 348.08  430.5 345  C 430.5 341.92  432.92 339.5  436 339.5  Z " stroke-width="1" stroke="#797979" fill="none" />
  <path d="M 436 348  C 434.32 348  433 346.68  433 345  C 433 343.32  434.32 342  436 342  C 437.68 342  439 343.32  439 345  C 439 346.68  437.68 348  436 348  " fill-rule="nonzero" fill="#797979" stroke="none" />
</svg>