<?xml version="1.0" encoding="utf-8"?>
<svg version="1.1" xmlns:xlink="http://www.w3.org/1999/xlink" width="40px" height="37px" xmlns="http://www.w3.org/2000/svg">
  <g transform="matrix(1 0 0 1 -1402 -360 )">
    <path d="M 35.6830019493177 36  C 39.5168031189084 36.4469395711501  41.0847953216374 33.6831189083821  39.1679142300195 30.2949707602339  L 23.4800389863548 2.61009746588694  C 21.5614035087719 -0.774580896686158  18.4256140350877 -0.774580896686158  16.5067056530214 2.61009746588694  L 0.818869395711501 30.2949707602339  C -1.09953216374269 33.6831189083821  0.469980506822612 36.4469395711501  4.30378167641326 36  L 35.6830019493177 36  Z M 21.2333333333333 29.00261208577  L 21.2333333333333 31.4840545808967  L 18.7518908382066 31.4840545808967  L 18.7518908382066 29.00261208577  L 21.2333333333333 29.00261208577  Z M 21 9.15115009746589  L 21 24.0397660818713  L 19 24.0397660818713  L 19 9.15115009746589  L 21 9.15115009746589  Z " fill-rule="nonzero" fill="#000000" stroke="none" transform="matrix(1 0 0 1 1402 360 )" />
  </g>
</svg>