<?xml version="1.0" encoding="utf-8"?>
<svg version="1.1" xmlns:xlink="http://www.w3.org/1999/xlink" width="18px" height="18px" xmlns="http://www.w3.org/2000/svg">
  <g transform="matrix(1 0 0 1 -2451 -97 )">
    <path d="M 8.99997001953125 0.27519541015625  C 4.18117716796875 0.27519541015625  0.2751854296875 4.181466953125  0.2751854296875 8.99998  C 0.2751854296875 13.8185130273438  4.18117716796875 17.7247845898438  8.99997001953125 17.7247845898438  C 13.818503046875 17.7247845898438  17.7247945898438 13.818513046875  17.7247945898438 8.99998  C 17.7247945898438 4.18146697265625  13.818503046875 0.27519541015625  8.99997001953125 0.27519541015625  Z M 13.7716548242187 6.92742521484375  L 8.084051015625 12.6148691210937  C 7.9511411328125 12.748058828125  7.73528748046875 12.748058828125  7.60235759765625 12.6148691210937  L 4.2283251953125 9.24083671875  C 4.0954153125 9.1079268359375  4.0954153125 8.89207318359375  4.2283251953125 8.75902337890625  L 5.288826171875 7.6986623046875  C 5.4217360546875 7.56561251953125  5.63758970703125 7.56561251953125  5.77051958984375 7.6986623046875  L 7.843234296875 9.77107720703125  L 12.2294604296875 5.3851108984375  C 12.3623703125 5.25206111328125  12.5782439453125 5.25206111328125  12.711173828125 5.3851108984375  L 13.7716748046875 6.44547197265625  C 13.9048445117187 6.5785217578125  13.9048445117187 6.79437541015625  13.7716548242187 6.92742521484375  Z " fill-rule="nonzero" fill="#89c27e" stroke="none" transform="matrix(1 0 0 1 2451 97 )" />
  </g>
</svg>