<?xml version="1.0" encoding="utf-8"?>
<svg version="1.1" xmlns:xlink="http://www.w3.org/1999/xlink" width="12px" height="12px" viewBox="401 583  12 12" xmlns="http://www.w3.org/2000/svg">
  <path d="M 407 583  C 410.36 583  413 585.64  413 589  C 413 592.36  410.36 595  407 595  C 403.64 595  401 592.36  401 589  C 401 585.64  403.64 583  407 583  Z " fill-rule="nonzero" fill="#ffffff" stroke="none" />
  <path d="M 407 583.5  C 410.08 583.5  412.5 585.92  412.5 589  C 412.5 592.08  410.08 594.5  407 594.5  C 403.92 594.5  401.5 592.08  401.5 589  C 401.5 585.92  403.92 583.5  407 583.5  Z " stroke-width="1" stroke="#797979" fill="none" />
  <path d="M 407 592  C 405.32 592  404 590.68  404 589  C 404 587.32  405.32 586  407 586  C 408.68 586  410 587.32  410 589  C 410 590.68  408.68 592  407 592  " fill-rule="nonzero" fill="#797979" stroke="none" />
</svg>