<?xml version="1.0" encoding="utf-8"?>
<svg version="1.1" xmlns:xlink="http://www.w3.org/1999/xlink" width="12px" height="12px" viewBox="633 583  12 12" xmlns="http://www.w3.org/2000/svg">
  <path d="M 639 583  C 642.36 583  645 585.64  645 589  C 645 592.36  642.36 595  639 595  C 635.64 595  633 592.36  633 589  C 633 585.64  635.64 583  639 583  Z " fill-rule="nonzero" fill="#f0f0f0" stroke="none" />
  <path d="M 639 583.5  C 642.08 583.5  644.5 585.92  644.5 589  C 644.5 592.08  642.08 594.5  639 594.5  C 635.92 594.5  633.5 592.08  633.5 589  C 633.5 585.92  635.92 583.5  639 583.5  Z " stroke-width="1" stroke="#797979" fill="none" />
  <path d="M 639 592  C 637.32 592  636 590.68  636 589  C 636 587.32  637.32 586  639 586  C 640.68 586  642 587.32  642 589  C 642 590.68  640.68 592  639 592  " fill-rule="nonzero" fill="#797979" stroke="none" />
</svg>