<?xml version="1.0" encoding="utf-8"?>
<svg version="1.1" xmlns:xlink="http://www.w3.org/1999/xlink" width="51px" height="81px" xmlns="http://www.w3.org/2000/svg">
  <defs>
    <linearGradient gradientUnits="userSpaceOnUse" x1="1700" y1="2546" x2="1700" y2="2626" id="LinearGradient684">
      <stop id="Stop685" stop-color="#ffffff" offset="0" />
      <stop id="Stop686" stop-color="#f2f2f2" offset="0" />
      <stop id="Stop687" stop-color="#e4e4e4" offset="1" />
      <stop id="Stop688" stop-color="#ffffff" offset="1" />
    </linearGradient>
  </defs>
  <g transform="matrix(1 0 0 1 -1675 -2546 )">
    <path d="M 1700 2546.5  C 1705.32 2546.5  1709.5 2550.68  1709.5 2556  C 1709.5 2561.32  1705.32 2565.5  1700 2565.5  C 1694.68 2565.5  1690.5 2561.32  1690.5 2556  C 1690.5 2550.68  1694.68 2546.5  1700 2546.5  Z " fill-rule="nonzero" fill="url(#LinearGradient684)" stroke="none" />
    <path d="M 1700 2546.5  C 1705.32 2546.5  1709.5 2550.68  1709.5 2556  C 1709.5 2561.32  1705.32 2565.5  1700 2565.5  C 1694.68 2565.5  1690.5 2561.32  1690.5 2556  C 1690.5 2550.68  1694.68 2546.5  1700 2546.5  Z " stroke-width="1" stroke="#797979" fill="none" />
    <path d="M 1675 2576  L 1725 2576  M 1700 2566  L 1700 2601  M 1680 2626  L 1700 2601  M 1700 2601  L 1720 2626  " stroke-width="1" stroke="#797979" fill="none" />
  </g>
</svg>