<?xml version="1.0" encoding="utf-8"?>
<svg version="1.1" xmlns:xlink="http://www.w3.org/1999/xlink" width="12px" height="12px" viewBox="239 1636  12 12" xmlns="http://www.w3.org/2000/svg">
  <path d="M 245 1636  C 248.36 1636  251 1638.64  251 1642  C 251 1645.36  248.36 1648  245 1648  C 241.64 1648  239 1645.36  239 1642  C 239 1638.64  241.64 1636  245 1636  Z " fill-rule="nonzero" fill="#f0f0f0" stroke="none" />
  <path d="M 245 1636.5  C 248.08 1636.5  250.5 1638.92  250.5 1642  C 250.5 1645.08  248.08 1647.5  245 1647.5  C 241.92 1647.5  239.5 1645.08  239.5 1642  C 239.5 1638.92  241.92 1636.5  245 1636.5  Z " stroke-width="1" stroke="#797979" fill="none" />
  <path d="M 245 1645  C 243.32 1645  242 1643.68  242 1642  C 242 1640.32  243.32 1639  245 1639  C 246.68 1639  248 1640.32  248 1642  C 248 1643.68  246.68 1645  245 1645  " fill-rule="nonzero" fill="#797979" stroke="none" />
</svg>