<?xml version="1.0" encoding="utf-8"?>
<svg version="1.1" xmlns:xlink="http://www.w3.org/1999/xlink" width="12px" height="12px" viewBox="239 1672  12 12" xmlns="http://www.w3.org/2000/svg">
  <path d="M 245 1672  C 248.36 1672  251 1674.64  251 1678  C 251 1681.36  248.36 1684  245 1684  C 241.64 1684  239 1681.36  239 1678  C 239 1674.64  241.64 1672  245 1672  Z " fill-rule="nonzero" fill="#ffffff" stroke="none" />
  <path d="M 245 1672.5  C 248.08 1672.5  250.5 1674.92  250.5 1678  C 250.5 1681.08  248.08 1683.5  245 1683.5  C 241.92 1683.5  239.5 1681.08  239.5 1678  C 239.5 1674.92  241.92 1672.5  245 1672.5  Z " stroke-width="1" stroke="#797979" fill="none" />
  <path d="M 245 1681  C 243.32 1681  242 1679.68  242 1678  C 242 1676.32  243.32 1675  245 1675  C 246.68 1675  248 1676.32  248 1678  C 248 1679.68  246.68 1681  245 1681  " fill-rule="nonzero" fill="#797979" stroke="none" />
</svg>