<?xml version="1.0" encoding="utf-8"?>
<svg version="1.1" xmlns:xlink="http://www.w3.org/1999/xlink" width="12px" height="12px" viewBox="242 1162  12 12" xmlns="http://www.w3.org/2000/svg">
  <path d="M 248 1162  C 251.36 1162  254 1164.64  254 1168  C 254 1171.36  251.36 1174  248 1174  C 244.64 1174  242 1171.36  242 1168  C 242 1164.64  244.64 1162  248 1162  Z " fill-rule="nonzero" fill="#f0f0f0" stroke="none" />
  <path d="M 248 1162.5  C 251.08 1162.5  253.5 1164.92  253.5 1168  C 253.5 1171.08  251.08 1173.5  248 1173.5  C 244.92 1173.5  242.5 1171.08  242.5 1168  C 242.5 1164.92  244.92 1162.5  248 1162.5  Z " stroke-width="1" stroke="#797979" fill="none" />
  <path d="M 248 1171  C 246.32 1171  245 1169.68  245 1168  C 245 1166.32  246.32 1165  248 1165  C 249.68 1165  251 1166.32  251 1168  C 251 1169.68  249.68 1171  248 1171  " fill-rule="nonzero" fill="#797979" stroke="none" />
</svg>