<?xml version="1.0" encoding="utf-8"?>
<svg version="1.1" xmlns:xlink="http://www.w3.org/1999/xlink" width="12px" height="12px" viewBox="321 1132  12 12" xmlns="http://www.w3.org/2000/svg">
  <path d="M 327 1132  C 330.36 1132  333 1134.64  333 1138  C 333 1141.36  330.36 1144  327 1144  C 323.64 1144  321 1141.36  321 1138  C 321 1134.64  323.64 1132  327 1132  Z " fill-rule="nonzero" fill="#f0f0f0" stroke="none" />
  <path d="M 327 1132.5  C 330.08 1132.5  332.5 1134.92  332.5 1138  C 332.5 1141.08  330.08 1143.5  327 1143.5  C 323.92 1143.5  321.5 1141.08  321.5 1138  C 321.5 1134.92  323.92 1132.5  327 1132.5  Z " stroke-width="1" stroke="#797979" fill="none" />
  <path d="M 327 1141  C 325.32 1141  324 1139.68  324 1138  C 324 1136.32  325.32 1135  327 1135  C 328.68 1135  330 1136.32  330 1138  C 330 1139.68  328.68 1141  327 1141  " fill-rule="nonzero" fill="#797979" stroke="none" />
</svg>