<?xml version="1.0" encoding="utf-8"?>
<svg version="1.1" xmlns:xlink="http://www.w3.org/1999/xlink" width="12px" height="12px" viewBox="912 1128  12 12" xmlns="http://www.w3.org/2000/svg">
  <path d="M 918 1128  C 921.36 1128  924 1130.64  924 1134  C 924 1137.36  921.36 1140  918 1140  C 914.64 1140  912 1137.36  912 1134  C 912 1130.64  914.64 1128  918 1128  Z " fill-rule="nonzero" fill="#f0f0f0" stroke="none" />
  <path d="M 918 1128.5  C 921.08 1128.5  923.5 1130.92  923.5 1134  C 923.5 1137.08  921.08 1139.5  918 1139.5  C 914.92 1139.5  912.5 1137.08  912.5 1134  C 912.5 1130.92  914.92 1128.5  918 1128.5  Z " stroke-width="1" stroke="#797979" fill="none" />
  <path d="M 918 1137  C 916.32 1137  915 1135.68  915 1134  C 915 1132.32  916.32 1131  918 1131  C 919.68 1131  921 1132.32  921 1134  C 921 1135.68  919.68 1137  918 1137  " fill-rule="nonzero" fill="#797979" stroke="none" />
</svg>