<?xml version="1.0" encoding="utf-8"?>
<svg version="1.1" xmlns:xlink="http://www.w3.org/1999/xlink" width="12px" height="12px" viewBox="1012 1128  12 12" xmlns="http://www.w3.org/2000/svg">
  <path d="M 1018 1128  C 1021.36 1128  1024 1130.64  1024 1134  C 1024 1137.36  1021.36 1140  1018 1140  C 1014.64 1140  1012 1137.36  1012 1134  C 1012 1130.64  1014.64 1128  1018 1128  Z " fill-rule="nonzero" fill="#f0f0f0" stroke="none" />
  <path d="M 1018 1128.5  C 1021.08 1128.5  1023.5 1130.92  1023.5 1134  C 1023.5 1137.08  1021.08 1139.5  1018 1139.5  C 1014.92 1139.5  1012.5 1137.08  1012.5 1134  C 1012.5 1130.92  1014.92 1128.5  1018 1128.5  Z " stroke-width="1" stroke="#797979" fill="none" />
  <path d="M 1018 1137  C 1016.32 1137  1015 1135.68  1015 1134  C 1015 1132.32  1016.32 1131  1018 1131  C 1019.68 1131  1021 1132.32  1021 1134  C 1021 1135.68  1019.68 1137  1018 1137  " fill-rule="nonzero" fill="#797979" stroke="none" />
</svg>