<?xml version="1.0" encoding="utf-8"?>
<svg version="1.1" xmlns:xlink="http://www.w3.org/1999/xlink" width="18px" height="18px" xmlns="http://www.w3.org/2000/svg">
  <g transform="matrix(1 0 0 1 -642 -343 )">
    <path d="M 17.6785714285714 9.00072321428572  C 17.6785714285714 13.7855089285714  13.7847857142857 17.6792946428571  9 17.6792946428571  C 4.21485267857143 17.6792946428571  0.321428571428571 13.7855089285714  0.321428571428571 9.00072321428572  C 0.321428571428571 4.21557589285714  4.21485267857143 0.322151785714287  9 0.322151785714287  C 13.7847857142857 0.322151785714287  17.6785714285714 4.21557589285714  17.6785714285714 9.00072321428572  Z M 16.9553571428571 9.00072321428572  C 16.9553571428571 4.61406696428571  13.38665625 1.04536607142857  9 1.04536607142857  C 4.61334375 1.04536607142857  1.04464285714286 4.61406696428571  1.04464285714286 9.00072321428572  C 1.04464285714286 13.3873794642857  4.61334375 16.9560803571429  9 16.9560803571429  C 13.38665625 16.9560803571429  16.9553571428571 13.3873794642857  16.9553571428571 9.00072321428572  Z M 9.72321428571428 9.72321428571428  L 4.66071428571429 9.7239375  L 4.66071428571429 9.00072321428572  L 9 9  L 9 3.21428571428571  L 9.72321428571428 3.21428571428571  L 9.72321428571428 9.72321428571428  Z " fill-rule="nonzero" fill="#000000" stroke="none" transform="matrix(1 0 0 1 642 343 )" />
  </g>
</svg>