<?xml version="1.0" encoding="utf-8"?>
<svg version="1.1" xmlns:xlink="http://www.w3.org/1999/xlink" width="12px" height="12px" viewBox="485 303  12 12" xmlns="http://www.w3.org/2000/svg">
  <path d="M 491 303  C 494.36 303  497 305.64  497 309  C 497 312.36  494.36 315  491 315  C 487.64 315  485 312.36  485 309  C 485 305.64  487.64 303  491 303  Z " fill-rule="nonzero" fill="#ffffff" stroke="none" />
  <path d="M 491 303.5  C 494.08 303.5  496.5 305.92  496.5 309  C 496.5 312.08  494.08 314.5  491 314.5  C 487.92 314.5  485.5 312.08  485.5 309  C 485.5 305.92  487.92 303.5  491 303.5  Z " stroke-width="1" stroke="#797979" fill="none" />
  <path d="M 491 312  C 489.32 312  488 310.68  488 309  C 488 307.32  489.32 306  491 306  C 492.68 306  494 307.32  494 309  C 494 310.68  492.68 312  491 312  " fill-rule="nonzero" fill="#797979" stroke="none" />
</svg>