<?xml version="1.0" encoding="utf-8"?>
<svg version="1.1" xmlns:xlink="http://www.w3.org/1999/xlink" width="12px" height="12px" viewBox="585 303  12 12" xmlns="http://www.w3.org/2000/svg">
  <path d="M 591 303  C 594.36 303  597 305.64  597 309  C 597 312.36  594.36 315  591 315  C 587.64 315  585 312.36  585 309  C 585 305.64  587.64 303  591 303  Z " fill-rule="nonzero" fill="#f0f0f0" stroke="none" />
  <path d="M 591 303.5  C 594.08 303.5  596.5 305.92  596.5 309  C 596.5 312.08  594.08 314.5  591 314.5  C 587.92 314.5  585.5 312.08  585.5 309  C 585.5 305.92  587.92 303.5  591 303.5  Z " stroke-width="1" stroke="#797979" fill="none" />
  <path d="M 591 312  C 589.32 312  588 310.68  588 309  C 588 307.32  589.32 306  591 306  C 592.68 306  594 307.32  594 309  C 594 310.68  592.68 312  591 312  " fill-rule="nonzero" fill="#797979" stroke="none" />
</svg>