<?xml version="1.0" encoding="utf-8"?>
<svg version="1.1" xmlns:xlink="http://www.w3.org/1999/xlink" width="12px" height="12px" viewBox="789 396  12 12" xmlns="http://www.w3.org/2000/svg">
  <path d="M 795 396  C 798.36 396  801 398.64  801 402  C 801 405.36  798.36 408  795 408  C 791.64 408  789 405.36  789 402  C 789 398.64  791.64 396  795 396  Z " fill-rule="nonzero" fill="#ffffff" stroke="none" />
  <path d="M 795 396.5  C 798.08 396.5  800.5 398.92  800.5 402  C 800.5 405.08  798.08 407.5  795 407.5  C 791.92 407.5  789.5 405.08  789.5 402  C 789.5 398.92  791.92 396.5  795 396.5  Z " stroke-width="1" stroke="#797979" fill="none" />
  <path d="M 795 405  C 793.32 405  792 403.68  792 402  C 792 400.32  793.32 399  795 399  C 796.68 399  798 400.32  798 402  C 798 403.68  796.68 405  795 405  " fill-rule="nonzero" fill="#797979" stroke="none" />
</svg>