<?xml version="1.0" encoding="utf-8"?>
<svg version="1.1" xmlns:xlink="http://www.w3.org/1999/xlink" width="12px" height="12px" viewBox="1142 396  12 12" xmlns="http://www.w3.org/2000/svg">
  <path d="M 1148 396  C 1151.36 396  1154 398.64  1154 402  C 1154 405.36  1151.36 408  1148 408  C 1144.64 408  1142 405.36  1142 402  C 1142 398.64  1144.64 396  1148 396  Z " fill-rule="nonzero" fill="#ffffff" stroke="none" />
  <path d="M 1148 396.5  C 1151.08 396.5  1153.5 398.92  1153.5 402  C 1153.5 405.08  1151.08 407.5  1148 407.5  C 1144.92 407.5  1142.5 405.08  1142.5 402  C 1142.5 398.92  1144.92 396.5  1148 396.5  Z " stroke-width="1" stroke="#797979" fill="none" />
  <path d="M 1148 405  C 1146.32 405  1145 403.68  1145 402  C 1145 400.32  1146.32 399  1148 399  C 1149.68 399  1151 400.32  1151 402  C 1151 403.68  1149.68 405  1148 405  " fill-rule="nonzero" fill="#797979" stroke="none" />
</svg>