<?xml version="1.0" encoding="utf-8"?>
<svg version="1.1" xmlns:xlink="http://www.w3.org/1999/xlink" width="12px" height="12px" viewBox="669 396  12 12" xmlns="http://www.w3.org/2000/svg">
  <path d="M 675 396  C 678.36 396  681 398.64  681 402  C 681 405.36  678.36 408  675 408  C 671.64 408  669 405.36  669 402  C 669 398.64  671.64 396  675 396  Z " fill-rule="nonzero" fill="#f0f0f0" stroke="none" />
  <path d="M 675 396.5  C 678.08 396.5  680.5 398.92  680.5 402  C 680.5 405.08  678.08 407.5  675 407.5  C 671.92 407.5  669.5 405.08  669.5 402  C 669.5 398.92  671.92 396.5  675 396.5  Z " stroke-width="1" stroke="#797979" fill="none" />
  <path d="M 675 405  C 673.32 405  672 403.68  672 402  C 672 400.32  673.32 399  675 399  C 676.68 399  678 400.32  678 402  C 678 403.68  676.68 405  675 405  " fill-rule="nonzero" fill="#797979" stroke="none" />
</svg>