<?xml version="1.0" encoding="utf-8"?>
<svg version="1.1" xmlns:xlink="http://www.w3.org/1999/xlink" width="12px" height="12px" viewBox="789 441  12 12" xmlns="http://www.w3.org/2000/svg">
  <path d="M 795 441  C 798.36 441  801 443.64  801 447  C 801 450.36  798.36 453  795 453  C 791.64 453  789 450.36  789 447  C 789 443.64  791.64 441  795 441  Z " fill-rule="nonzero" fill="#ffffff" stroke="none" />
  <path d="M 795 441.5  C 798.08 441.5  800.5 443.92  800.5 447  C 800.5 450.08  798.08 452.5  795 452.5  C 791.92 452.5  789.5 450.08  789.5 447  C 789.5 443.92  791.92 441.5  795 441.5  Z " stroke-width="1" stroke="#797979" fill="none" />
  <path d="M 795 450  C 793.32 450  792 448.68  792 447  C 792 445.32  793.32 444  795 444  C 796.68 444  798 445.32  798 447  C 798 448.68  796.68 450  795 450  " fill-rule="nonzero" fill="#797979" stroke="none" />
</svg>