<?xml version="1.0" encoding="utf-8"?>
<svg version="1.1" xmlns:xlink="http://www.w3.org/1999/xlink" width="12px" height="12px" viewBox="920 396  12 12" xmlns="http://www.w3.org/2000/svg">
  <path d="M 926 396  C 929.36 396  932 398.64  932 402  C 932 405.36  929.36 408  926 408  C 922.64 408  920 405.36  920 402  C 920 398.64  922.64 396  926 396  Z " fill-rule="nonzero" fill="#ffffff" stroke="none" />
  <path d="M 926 396.5  C 929.08 396.5  931.5 398.92  931.5 402  C 931.5 405.08  929.08 407.5  926 407.5  C 922.92 407.5  920.5 405.08  920.5 402  C 920.5 398.92  922.92 396.5  926 396.5  Z " stroke-width="1" stroke="#797979" fill="none" />
  <path d="M 926 405  C 924.32 405  923 403.68  923 402  C 923 400.32  924.32 399  926 399  C 927.68 399  929 400.32  929 402  C 929 403.68  927.68 405  926 405  " fill-rule="nonzero" fill="#797979" stroke="none" />
</svg>