<?xml version="1.0" encoding="utf-8"?>
<svg version="1.1" xmlns:xlink="http://www.w3.org/1999/xlink" width="12px" height="12px" viewBox="547 1196  12 12" xmlns="http://www.w3.org/2000/svg">
  <path d="M 553 1196  C 556.36 1196  559 1198.64  559 1202  C 559 1205.36  556.36 1208  553 1208  C 549.64 1208  547 1205.36  547 1202  C 547 1198.64  549.64 1196  553 1196  Z " fill-rule="nonzero" fill="#f0f0f0" stroke="none" />
  <path d="M 553 1196.5  C 556.08 1196.5  558.5 1198.92  558.5 1202  C 558.5 1205.08  556.08 1207.5  553 1207.5  C 549.92 1207.5  547.5 1205.08  547.5 1202  C 547.5 1198.92  549.92 1196.5  553 1196.5  Z " stroke-width="1" stroke="#797979" fill="none" />
  <path d="M 553 1205  C 551.32 1205  550 1203.68  550 1202  C 550 1200.32  551.32 1199  553 1199  C 554.68 1199  556 1200.32  556 1202  C 556 1203.68  554.68 1205  553 1205  " fill-rule="nonzero" fill="#797979" stroke="none" />
</svg>