<?xml version="1.0" encoding="utf-8"?>
<svg version="1.1" xmlns:xlink="http://www.w3.org/1999/xlink" width="12px" height="12px" viewBox="415 1196  12 12" xmlns="http://www.w3.org/2000/svg">
  <path d="M 421 1196  C 424.36 1196  427 1198.64  427 1202  C 427 1205.36  424.36 1208  421 1208  C 417.64 1208  415 1205.36  415 1202  C 415 1198.64  417.64 1196  421 1196  Z " fill-rule="nonzero" fill="#f0f0f0" stroke="none" />
  <path d="M 421 1196.5  C 424.08 1196.5  426.5 1198.92  426.5 1202  C 426.5 1205.08  424.08 1207.5  421 1207.5  C 417.92 1207.5  415.5 1205.08  415.5 1202  C 415.5 1198.92  417.92 1196.5  421 1196.5  Z " stroke-width="1" stroke="#797979" fill="none" />
  <path d="M 421 1205  C 419.32 1205  418 1203.68  418 1202  C 418 1200.32  419.32 1199  421 1199  C 422.68 1199  424 1200.32  424 1202  C 424 1203.68  422.68 1205  421 1205  " fill-rule="nonzero" fill="#797979" stroke="none" />
</svg>