<?xml version="1.0" encoding="utf-8"?>
<svg version="1.1" xmlns:xlink="http://www.w3.org/1999/xlink" width="12px" height="12px" viewBox="2321 1412  12 12" xmlns="http://www.w3.org/2000/svg">
  <path d="M 2327 1412  C 2330.36 1412  2333 1414.64  2333 1418  C 2333 1421.36  2330.36 1424  2327 1424  C 2323.64 1424  2321 1421.36  2321 1418  C 2321 1414.64  2323.64 1412  2327 1412  Z " fill-rule="nonzero" fill="#f0f0f0" stroke="none" />
  <path d="M 2327 1412.5  C 2330.08 1412.5  2332.5 1414.92  2332.5 1418  C 2332.5 1421.08  2330.08 1423.5  2327 1423.5  C 2323.92 1423.5  2321.5 1421.08  2321.5 1418  C 2321.5 1414.92  2323.92 1412.5  2327 1412.5  Z " stroke-width="1" stroke="#797979" fill="none" />
  <path d="M 2327 1421  C 2325.32 1421  2324 1419.68  2324 1418  C 2324 1416.32  2325.32 1415  2327 1415  C 2328.68 1415  2330 1416.32  2330 1418  C 2330 1419.68  2328.68 1421  2327 1421  " fill-rule="nonzero" fill="#797979" stroke="none" />
</svg>