<?xml version="1.0" encoding="utf-8"?>
<svg version="1.1" xmlns:xlink="http://www.w3.org/1999/xlink" width="20px" height="20px" xmlns="http://www.w3.org/2000/svg">
  <g transform="matrix(1 0 0 1 -2412 -3953 )">
    <path d="M 2422 3953  C 2427.6 3953  2432 3957.4  2432 3963  C 2432 3968.6  2427.6 3973  2422 3973  C 2416.4 3973  2412 3968.6  2412 3963  C 2412 3957.4  2416.4 3953  2422 3953  Z " fill-rule="nonzero" fill="#ffffff" stroke="none" />
    <path d="M 2422 3953.5  C 2427.32 3953.5  2431.5 3957.68  2431.5 3963  C 2431.5 3968.32  2427.32 3972.5  2422 3972.5  C 2416.68 3972.5  2412.5 3968.32  2412.5 3963  C 2412.5 3957.68  2416.68 3953.5  2422 3953.5  Z " stroke-width="1" stroke="#797979" fill="none" />
  </g>
</svg>