<?xml version="1.0" encoding="utf-8"?>
<svg version="1.1" xmlns:xlink="http://www.w3.org/1999/xlink" width="12px" height="12px" viewBox="2056 1558  12 12" xmlns="http://www.w3.org/2000/svg">
  <path d="M 2062 1558  C 2065.36 1558  2068 1560.64  2068 1564  C 2068 1567.36  2065.36 1570  2062 1570  C 2058.64 1570  2056 1567.36  2056 1564  C 2056 1560.64  2058.64 1558  2062 1558  Z " fill-rule="nonzero" fill="#f0f0f0" stroke="none" />
  <path d="M 2062 1558.5  C 2065.08 1558.5  2067.5 1560.92  2067.5 1564  C 2067.5 1567.08  2065.08 1569.5  2062 1569.5  C 2058.92 1569.5  2056.5 1567.08  2056.5 1564  C 2056.5 1560.92  2058.92 1558.5  2062 1558.5  Z " stroke-width="1" stroke="#797979" fill="none" />
  <path d="M 2062 1567  C 2060.32 1567  2059 1565.68  2059 1564  C 2059 1562.32  2060.32 1561  2062 1561  C 2063.68 1561  2065 1562.32  2065 1564  C 2065 1565.68  2063.68 1567  2062 1567  " fill-rule="nonzero" fill="#797979" stroke="none" />
</svg>