<?xml version="1.0" encoding="utf-8"?>
<svg version="1.1" xmlns:xlink="http://www.w3.org/1999/xlink" width="10px" height="9px" xmlns="http://www.w3.org/2000/svg">
  <g transform="matrix(1 0 0 1 -95 -13 )">
    <path d="M 9.76430976430976 6.72727272727272  C 9.92143658810323 6.86868686868689  10 7.04040404040406  10 7.24242424242425  C 10 7.44444444444443  9.92143658810323 7.61616161616159  9.76430976430976 7.75757575757578  L 8.61952861952864 8.78787878787878  C 8.4624017957351 8.92929292929291  8.27160493827159 9  8.04713804713805 9  C 7.8226711560045 9  7.63187429854099 8.92929292929291  7.47474747474746 8.78787878787878  L 5 6.56060606060606  L 2.52525252525254 8.78787878787878  C 2.36812570145901 8.92929292929291  2.1773288439955 9  1.95286195286195 9  C 1.72839506172841 9  1.5375982042649 8.92929292929291  1.38047138047136 8.78787878787878  L 0.235690235690242 7.75757575757578  C 0.0785634118967664 7.61616161616159  0 7.44444444444443  0 7.24242424242425  C 0 7.04040404040406  0.0785634118967664 6.86868686868689  0.235690235690242 6.72727272727272  L 2.7104377104377 4.5  L 0.235690235690242 2.27272727272728  C 0.0785634118967664 2.13131313131311  0 1.95959595959594  0 1.75757575757575  C 0 1.55555555555557  0.0785634118967664 1.38383838383841  0.235690235690242 1.24242424242422  L 1.38047138047136 0.212121212121218  C 1.5375982042649 0.0707070707070869  1.72839506172841 0  1.95286195286195 0  C 2.1773288439955 0  2.36812570145901 0.0707070707070869  2.52525252525254 0.212121212121218  L 5 2.43939393939394  L 7.47474747474746 0.212121212121218  C 7.63187429854099 0.0707070707070869  7.8226711560045 0  8.04713804713805 0  C 8.27160493827159 0  8.4624017957351 0.0707070707070869  8.61952861952864 0.212121212121218  L 9.76430976430976 1.24242424242422  C 9.92143658810323 1.38383838383841  10 1.55555555555557  10 1.75757575757575  C 10 1.95959595959594  9.92143658810323 2.13131313131311  9.76430976430976 2.27272727272728  L 7.2895622895623 4.5  L 9.76430976430976 6.72727272727272  Z " fill-rule="nonzero" fill="#cccccc" stroke="none" transform="matrix(1 0 0 1 95 13 )" />
  </g>
</svg>