<?xml version="1.0" encoding="utf-8"?>
<svg version="1.1" xmlns:xlink="http://www.w3.org/1999/xlink" width="12px" height="12px" viewBox="833 337  12 12" xmlns="http://www.w3.org/2000/svg">
  <path d="M 839 337  C 842.36 337  845 339.64  845 343  C 845 346.36  842.36 349  839 349  C 835.64 349  833 346.36  833 343  C 833 339.64  835.64 337  839 337  Z " fill-rule="nonzero" fill="#ffffff" stroke="none" />
  <path d="M 839 337.5  C 842.08 337.5  844.5 339.92  844.5 343  C 844.5 346.08  842.08 348.5  839 348.5  C 835.92 348.5  833.5 346.08  833.5 343  C 833.5 339.92  835.92 337.5  839 337.5  Z " stroke-width="1" stroke="#797979" fill="none" />
  <path d="M 839 346  C 837.32 346  836 344.68  836 343  C 836 341.32  837.32 340  839 340  C 840.68 340  842 341.32  842 343  C 842 344.68  840.68 346  839 346  " fill-rule="nonzero" fill="#797979" stroke="none" />
</svg>