<?xml version="1.0" encoding="utf-8"?>
<svg version="1.1" xmlns:xlink="http://www.w3.org/1999/xlink" width="12px" height="12px" viewBox="943 337  12 12" xmlns="http://www.w3.org/2000/svg">
  <path d="M 949 337  C 952.36 337  955 339.64  955 343  C 955 346.36  952.36 349  949 349  C 945.64 349  943 346.36  943 343  C 943 339.64  945.64 337  949 337  Z " fill-rule="nonzero" fill="#ffffff" stroke="none" />
  <path d="M 949 337.5  C 952.08 337.5  954.5 339.92  954.5 343  C 954.5 346.08  952.08 348.5  949 348.5  C 945.92 348.5  943.5 346.08  943.5 343  C 943.5 339.92  945.92 337.5  949 337.5  Z " stroke-width="1" stroke="#797979" fill="none" />
  <path d="M 949 346  C 947.32 346  946 344.68  946 343  C 946 341.32  947.32 340  949 340  C 950.68 340  952 341.32  952 343  C 952 344.68  950.68 346  949 346  " fill-rule="nonzero" fill="#797979" stroke="none" />
</svg>