<?xml version="1.0" encoding="utf-8"?>
<svg version="1.1" xmlns:xlink="http://www.w3.org/1999/xlink" width="12px" height="12px" viewBox="541 320  12 12" xmlns="http://www.w3.org/2000/svg">
  <path d="M 547 320  C 550.36 320  553 322.64  553 326  C 553 329.36  550.36 332  547 332  C 543.64 332  541 329.36  541 326  C 541 322.64  543.64 320  547 320  Z " fill-rule="nonzero" fill="#ffffff" stroke="none" />
  <path d="M 547 320.5  C 550.08 320.5  552.5 322.92  552.5 326  C 552.5 329.08  550.08 331.5  547 331.5  C 543.92 331.5  541.5 329.08  541.5 326  C 541.5 322.92  543.92 320.5  547 320.5  Z " stroke-width="1" stroke="#797979" fill="none" />
  <path d="M 547 329  C 545.32 329  544 327.68  544 326  C 544 324.32  545.32 323  547 323  C 548.68 323  550 324.32  550 326  C 550 327.68  548.68 329  547 329  " fill-rule="nonzero" fill="#797979" stroke="none" />
</svg>