<?xml version="1.0" encoding="utf-8"?>
<svg version="1.1" xmlns:xlink="http://www.w3.org/1999/xlink" width="12px" height="12px" viewBox="510 1164  12 12" xmlns="http://www.w3.org/2000/svg">
  <path d="M 516 1164  C 519.36 1164  522 1166.64  522 1170  C 522 1173.36  519.36 1176  516 1176  C 512.64 1176  510 1173.36  510 1170  C 510 1166.64  512.64 1164  516 1164  Z " fill-rule="nonzero" fill="#f0f0f0" stroke="none" />
  <path d="M 516 1164.5  C 519.08 1164.5  521.5 1166.92  521.5 1170  C 521.5 1173.08  519.08 1175.5  516 1175.5  C 512.92 1175.5  510.5 1173.08  510.5 1170  C 510.5 1166.92  512.92 1164.5  516 1164.5  Z " stroke-width="1" stroke="#797979" fill="none" />
  <path d="M 516 1173  C 514.32 1173  513 1171.68  513 1170  C 513 1168.32  514.32 1167  516 1167  C 517.68 1167  519 1168.32  519 1170  C 519 1171.68  517.68 1173  516 1173  " fill-rule="nonzero" fill="#797979" stroke="none" />
</svg>