<?xml version="1.0" encoding="utf-8"?>
<svg version="1.1" xmlns:xlink="http://www.w3.org/1999/xlink" width="12px" height="12px" viewBox="2425 2542  12 12" xmlns="http://www.w3.org/2000/svg">
  <path d="M 2431 2542  C 2434.36 2542  2437 2544.64  2437 2548  C 2437 2551.36  2434.36 2554  2431 2554  C 2427.64 2554  2425 2551.36  2425 2548  C 2425 2544.64  2427.64 2542  2431 2542  Z " fill-rule="nonzero" fill="#f0f0f0" stroke="none" />
  <path d="M 2431 2542.5  C 2434.08 2542.5  2436.5 2544.92  2436.5 2548  C 2436.5 2551.08  2434.08 2553.5  2431 2553.5  C 2427.92 2553.5  2425.5 2551.08  2425.5 2548  C 2425.5 2544.92  2427.92 2542.5  2431 2542.5  Z " stroke-width="1" stroke="#797979" fill="none" />
  <path d="M 2431 2551  C 2429.32 2551  2428 2549.68  2428 2548  C 2428 2546.32  2429.32 2545  2431 2545  C 2432.68 2545  2434 2546.32  2434 2548  C 2434 2549.68  2432.68 2551  2431 2551  " fill-rule="nonzero" fill="#797979" stroke="none" />
</svg>