<?xml version="1.0" encoding="utf-8"?>
<svg version="1.1" xmlns:xlink="http://www.w3.org/1999/xlink" width="12px" height="12px" viewBox="2301 2542  12 12" xmlns="http://www.w3.org/2000/svg">
  <path d="M 2307 2542  C 2310.36 2542  2313 2544.64  2313 2548  C 2313 2551.36  2310.36 2554  2307 2554  C 2303.64 2554  2301 2551.36  2301 2548  C 2301 2544.64  2303.64 2542  2307 2542  Z " fill-rule="nonzero" fill="#ffffff" stroke="none" />
  <path d="M 2307 2542.5  C 2310.08 2542.5  2312.5 2544.92  2312.5 2548  C 2312.5 2551.08  2310.08 2553.5  2307 2553.5  C 2303.92 2553.5  2301.5 2551.08  2301.5 2548  C 2301.5 2544.92  2303.92 2542.5  2307 2542.5  Z " stroke-width="1" stroke="#797979" fill="none" />
  <path d="M 2307 2551  C 2305.32 2551  2304 2549.68  2304 2548  C 2304 2546.32  2305.32 2545  2307 2545  C 2308.68 2545  2310 2546.32  2310 2548  C 2310 2549.68  2308.68 2551  2307 2551  " fill-rule="nonzero" fill="#797979" stroke="none" />
</svg>