<?xml version="1.0" encoding="utf-8"?>
<svg version="1.1" xmlns:xlink="http://www.w3.org/1999/xlink" width="12px" height="12px" viewBox="2297 3439  12 12" xmlns="http://www.w3.org/2000/svg">
  <path d="M 2303 3439  C 2306.36 3439  2309 3441.64  2309 3445  C 2309 3448.36  2306.36 3451  2303 3451  C 2299.64 3451  2297 3448.36  2297 3445  C 2297 3441.64  2299.64 3439  2303 3439  Z " fill-rule="nonzero" fill="#ffffff" stroke="none" />
  <path d="M 2303 3439.5  C 2306.08 3439.5  2308.5 3441.92  2308.5 3445  C 2308.5 3448.08  2306.08 3450.5  2303 3450.5  C 2299.92 3450.5  2297.5 3448.08  2297.5 3445  C 2297.5 3441.92  2299.92 3439.5  2303 3439.5  Z " stroke-width="1" stroke="#797979" fill="none" />
  <path d="M 2303 3448  C 2301.32 3448  2300 3446.68  2300 3445  C 2300 3443.32  2301.32 3442  2303 3442  C 2304.68 3442  2306 3443.32  2306 3445  C 2306 3446.68  2304.68 3448  2303 3448  " fill-rule="nonzero" fill="#797979" stroke="none" />
</svg>