<?xml version="1.0" encoding="utf-8"?>
<svg version="1.1" xmlns:xlink="http://www.w3.org/1999/xlink" width="12px" height="12px" viewBox="2547 3439  12 12" xmlns="http://www.w3.org/2000/svg">
  <path d="M 2553 3439  C 2556.36 3439  2559 3441.64  2559 3445  C 2559 3448.36  2556.36 3451  2553 3451  C 2549.64 3451  2547 3448.36  2547 3445  C 2547 3441.64  2549.64 3439  2553 3439  Z " fill-rule="nonzero" fill="#ffffff" stroke="none" />
  <path d="M 2553 3439.5  C 2556.08 3439.5  2558.5 3441.92  2558.5 3445  C 2558.5 3448.08  2556.08 3450.5  2553 3450.5  C 2549.92 3450.5  2547.5 3448.08  2547.5 3445  C 2547.5 3441.92  2549.92 3439.5  2553 3439.5  Z " stroke-width="1" stroke="#797979" fill="none" />
  <path d="M 2553 3448  C 2551.32 3448  2550 3446.68  2550 3445  C 2550 3443.32  2551.32 3442  2553 3442  C 2554.68 3442  2556 3443.32  2556 3445  C 2556 3446.68  2554.68 3448  2553 3448  " fill-rule="nonzero" fill="#797979" stroke="none" />
</svg>