<?xml version="1.0" encoding="utf-8"?>
<svg version="1.1" xmlns:xlink="http://www.w3.org/1999/xlink" width="12px" height="12px" viewBox="2551 2542  12 12" xmlns="http://www.w3.org/2000/svg">
  <path d="M 2557 2542  C 2560.36 2542  2563 2544.64  2563 2548  C 2563 2551.36  2560.36 2554  2557 2554  C 2553.64 2554  2551 2551.36  2551 2548  C 2551 2544.64  2553.64 2542  2557 2542  Z " fill-rule="nonzero" fill="#ffffff" stroke="none" />
  <path d="M 2557 2542.5  C 2560.08 2542.5  2562.5 2544.92  2562.5 2548  C 2562.5 2551.08  2560.08 2553.5  2557 2553.5  C 2553.92 2553.5  2551.5 2551.08  2551.5 2548  C 2551.5 2544.92  2553.92 2542.5  2557 2542.5  Z " stroke-width="1" stroke="#797979" fill="none" />
  <path d="M 2557 2551  C 2555.32 2551  2554 2549.68  2554 2548  C 2554 2546.32  2555.32 2545  2557 2545  C 2558.68 2545  2560 2546.32  2560 2548  C 2560 2549.68  2558.68 2551  2557 2551  " fill-rule="nonzero" fill="#797979" stroke="none" />
</svg>