<?xml version="1.0" encoding="utf-8"?>
<svg version="1.1" xmlns:xlink="http://www.w3.org/1999/xlink" width="12px" height="12px" viewBox="2421 3439  12 12" xmlns="http://www.w3.org/2000/svg">
  <path d="M 2427 3439  C 2430.36 3439  2433 3441.64  2433 3445  C 2433 3448.36  2430.36 3451  2427 3451  C 2423.64 3451  2421 3448.36  2421 3445  C 2421 3441.64  2423.64 3439  2427 3439  Z " fill-rule="nonzero" fill="#ffffff" stroke="none" />
  <path d="M 2427 3439.5  C 2430.08 3439.5  2432.5 3441.92  2432.5 3445  C 2432.5 3448.08  2430.08 3450.5  2427 3450.5  C 2423.92 3450.5  2421.5 3448.08  2421.5 3445  C 2421.5 3441.92  2423.92 3439.5  2427 3439.5  Z " stroke-width="1" stroke="#797979" fill="none" />
  <path d="M 2427 3448  C 2425.32 3448  2424 3446.68  2424 3445  C 2424 3443.32  2425.32 3442  2427 3442  C 2428.68 3442  2430 3443.32  2430 3445  C 2430 3446.68  2428.68 3448  2427 3448  " fill-rule="nonzero" fill="#797979" stroke="none" />
</svg>