<?xml version="1.0" encoding="utf-8"?>
<svg version="1.1" xmlns:xlink="http://www.w3.org/1999/xlink" width="12px" height="12px" viewBox="2423 4349  12 12" xmlns="http://www.w3.org/2000/svg">
  <path d="M 2429 4349  C 2432.36 4349  2435 4351.64  2435 4355  C 2435 4358.36  2432.36 4361  2429 4361  C 2425.64 4361  2423 4358.36  2423 4355  C 2423 4351.64  2425.64 4349  2429 4349  Z " fill-rule="nonzero" fill="#ffffff" stroke="none" />
  <path d="M 2429 4349.5  C 2432.08 4349.5  2434.5 4351.92  2434.5 4355  C 2434.5 4358.08  2432.08 4360.5  2429 4360.5  C 2425.92 4360.5  2423.5 4358.08  2423.5 4355  C 2423.5 4351.92  2425.92 4349.5  2429 4349.5  Z " stroke-width="1" stroke="#797979" fill="none" />
  <path d="M 2429 4358  C 2427.32 4358  2426 4356.68  2426 4355  C 2426 4353.32  2427.32 4352  2429 4352  C 2430.68 4352  2432 4353.32  2432 4355  C 2432 4356.68  2430.68 4358  2429 4358  " fill-rule="nonzero" fill="#797979" stroke="none" />
</svg>