<?xml version="1.0" encoding="utf-8"?>
<svg version="1.1" xmlns:xlink="http://www.w3.org/1999/xlink" width="12px" height="12px" viewBox="760 600  12 12" xmlns="http://www.w3.org/2000/svg">
  <path d="M 766 600  C 769.36 600  772 602.64  772 606  C 772 609.36  769.36 612  766 612  C 762.64 612  760 609.36  760 606  C 760 602.64  762.64 600  766 600  Z " fill-rule="nonzero" fill="#f0f0f0" stroke="none" />
  <path d="M 766 600.5  C 769.08 600.5  771.5 602.92  771.5 606  C 771.5 609.08  769.08 611.5  766 611.5  C 762.92 611.5  760.5 609.08  760.5 606  C 760.5 602.92  762.92 600.5  766 600.5  Z " stroke-width="1" stroke="#797979" fill="none" />
  <path d="M 766 609  C 764.32 609  763 607.68  763 606  C 763 604.32  764.32 603  766 603  C 767.68 603  769 604.32  769 606  C 769 607.68  767.68 609  766 609  " fill-rule="nonzero" fill="#797979" stroke="none" />
</svg>