<?xml version="1.0" encoding="utf-8"?>
<svg version="1.1" xmlns:xlink="http://www.w3.org/1999/xlink" width="12px" height="12px" viewBox="515 473  12 12" xmlns="http://www.w3.org/2000/svg">
  <path d="M 521 473  C 524.36 473  527 475.64  527 479  C 527 482.36  524.36 485  521 485  C 517.64 485  515 482.36  515 479  C 515 475.64  517.64 473  521 473  Z " fill-rule="nonzero" fill="#f0f0f0" stroke="none" />
  <path d="M 521 473.5  C 524.08 473.5  526.5 475.92  526.5 479  C 526.5 482.08  524.08 484.5  521 484.5  C 517.92 484.5  515.5 482.08  515.5 479  C 515.5 475.92  517.92 473.5  521 473.5  Z " stroke-width="1" stroke="#797979" fill="none" />
  <path d="M 521 482  C 519.32 482  518 480.68  518 479  C 518 477.32  519.32 476  521 476  C 522.68 476  524 477.32  524 479  C 524 480.68  522.68 482  521 482  " fill-rule="nonzero" fill="#797979" stroke="none" />
</svg>