<?xml version="1.0" encoding="utf-8"?>
<svg version="1.1" xmlns:xlink="http://www.w3.org/1999/xlink" width="12px" height="12px" viewBox="515 440  12 12" xmlns="http://www.w3.org/2000/svg">
  <path d="M 521 440  C 524.36 440  527 442.64  527 446  C 527 449.36  524.36 452  521 452  C 517.64 452  515 449.36  515 446  C 515 442.64  517.64 440  521 440  Z " fill-rule="nonzero" fill="#f0f0f0" stroke="none" />
  <path d="M 521 440.5  C 524.08 440.5  526.5 442.92  526.5 446  C 526.5 449.08  524.08 451.5  521 451.5  C 517.92 451.5  515.5 449.08  515.5 446  C 515.5 442.92  517.92 440.5  521 440.5  Z " stroke-width="1" stroke="#797979" fill="none" />
  <path d="M 521 449  C 519.32 449  518 447.68  518 446  C 518 444.32  519.32 443  521 443  C 522.68 443  524 444.32  524 446  C 524 447.68  522.68 449  521 449  " fill-rule="nonzero" fill="#797979" stroke="none" />
</svg>