<?xml version="1.0" encoding="utf-8"?>
<svg version="1.1" xmlns:xlink="http://www.w3.org/1999/xlink" width="12px" height="12px" viewBox="495 222  12 12" xmlns="http://www.w3.org/2000/svg">
  <path d="M 501 222  C 504.36 222  507 224.64  507 228  C 507 231.36  504.36 234  501 234  C 497.64 234  495 231.36  495 228  C 495 224.64  497.64 222  501 222  Z " fill-rule="nonzero" fill="#ffffff" stroke="none" />
  <path d="M 501 222.5  C 504.08 222.5  506.5 224.92  506.5 228  C 506.5 231.08  504.08 233.5  501 233.5  C 497.92 233.5  495.5 231.08  495.5 228  C 495.5 224.92  497.92 222.5  501 222.5  Z " stroke-width="1" stroke="#797979" fill="none" />
  <path d="M 501 231  C 499.32 231  498 229.68  498 228  C 498 226.32  499.32 225  501 225  C 502.68 225  504 226.32  504 228  C 504 229.68  502.68 231  501 231  " fill-rule="nonzero" fill="#797979" stroke="none" />
</svg>