<?xml version="1.0" encoding="utf-8"?>
<svg version="1.1" xmlns:xlink="http://www.w3.org/1999/xlink" width="12px" height="12px" viewBox="520 841  12 12" xmlns="http://www.w3.org/2000/svg">
  <path d="M 526 841  C 529.36 841  532 843.64  532 847  C 532 850.36  529.36 853  526 853  C 522.64 853  520 850.36  520 847  C 520 843.64  522.64 841  526 841  Z " fill-rule="nonzero" fill="#ffffff" stroke="none" />
  <path d="M 526 841.5  C 529.08 841.5  531.5 843.92  531.5 847  C 531.5 850.08  529.08 852.5  526 852.5  C 522.92 852.5  520.5 850.08  520.5 847  C 520.5 843.92  522.92 841.5  526 841.5  Z " stroke-width="1" stroke="#797979" fill="none" />
  <path d="M 526 850  C 524.32 850  523 848.68  523 847  C 523 845.32  524.32 844  526 844  C 527.68 844  529 845.32  529 847  C 529 848.68  527.68 850  526 850  " fill-rule="nonzero" fill="#797979" stroke="none" />
</svg>