<?xml version="1.0" encoding="utf-8"?>
<svg version="1.1" xmlns:xlink="http://www.w3.org/1999/xlink" width="12px" height="12px" viewBox="495 183  12 12" xmlns="http://www.w3.org/2000/svg">
  <path d="M 501 183  C 504.36 183  507 185.64  507 189  C 507 192.36  504.36 195  501 195  C 497.64 195  495 192.36  495 189  C 495 185.64  497.64 183  501 183  Z " fill-rule="nonzero" fill="#ffffff" stroke="none" />
  <path d="M 501 183.5  C 504.08 183.5  506.5 185.92  506.5 189  C 506.5 192.08  504.08 194.5  501 194.5  C 497.92 194.5  495.5 192.08  495.5 189  C 495.5 185.92  497.92 183.5  501 183.5  Z " stroke-width="1" stroke="#797979" fill="none" />
  <path d="M 501 192  C 499.32 192  498 190.68  498 189  C 498 187.32  499.32 186  501 186  C 502.68 186  504 187.32  504 189  C 504 190.68  502.68 192  501 192  " fill-rule="nonzero" fill="#797979" stroke="none" />
</svg>