<?xml version="1.0" encoding="utf-8"?>
<svg version="1.1" xmlns:xlink="http://www.w3.org/1999/xlink" width="12px" height="12px" viewBox="2191 1624  12 12" xmlns="http://www.w3.org/2000/svg">
  <path d="M 2197 1624  C 2200.36 1624  2203 1626.64  2203 1630  C 2203 1633.36  2200.36 1636  2197 1636  C 2193.64 1636  2191 1633.36  2191 1630  C 2191 1626.64  2193.64 1624  2197 1624  Z " fill-rule="nonzero" fill="#f0f0f0" stroke="none" />
  <path d="M 2197 1624.5  C 2200.08 1624.5  2202.5 1626.92  2202.5 1630  C 2202.5 1633.08  2200.08 1635.5  2197 1635.5  C 2193.92 1635.5  2191.5 1633.08  2191.5 1630  C 2191.5 1626.92  2193.92 1624.5  2197 1624.5  Z " stroke-width="1" stroke="#797979" fill="none" />
  <path d="M 2197 1633  C 2195.32 1633  2194 1631.68  2194 1630  C 2194 1628.32  2195.32 1627  2197 1627  C 2198.68 1627  2200 1628.32  2200 1630  C 2200 1631.68  2198.68 1633  2197 1633  " fill-rule="nonzero" fill="#797979" stroke="none" />
</svg>