<?xml version="1.0" encoding="utf-8"?>
<svg version="1.1" xmlns:xlink="http://www.w3.org/1999/xlink" width="12px" height="12px" viewBox="2191 1998  12 12" xmlns="http://www.w3.org/2000/svg">
  <path d="M 2197 1998  C 2200.36 1998  2203 2000.64  2203 2004  C 2203 2007.36  2200.36 2010  2197 2010  C 2193.64 2010  2191 2007.36  2191 2004  C 2191 2000.64  2193.64 1998  2197 1998  Z " fill-rule="nonzero" fill="#f0f0f0" stroke="none" />
  <path d="M 2197 1998.5  C 2200.08 1998.5  2202.5 2000.92  2202.5 2004  C 2202.5 2007.08  2200.08 2009.5  2197 2009.5  C 2193.92 2009.5  2191.5 2007.08  2191.5 2004  C 2191.5 2000.92  2193.92 1998.5  2197 1998.5  Z " stroke-width="1" stroke="#797979" fill="none" />
  <path d="M 2197 2007  C 2195.32 2007  2194 2005.68  2194 2004  C 2194 2002.32  2195.32 2001  2197 2001  C 2198.68 2001  2200 2002.32  2200 2004  C 2200 2005.68  2198.68 2007  2197 2007  " fill-rule="nonzero" fill="#797979" stroke="none" />
</svg>