<?xml version="1.0" encoding="utf-8"?>
<svg version="1.1" xmlns:xlink="http://www.w3.org/1999/xlink" width="12px" height="12px" viewBox="2135 3397  12 12" xmlns="http://www.w3.org/2000/svg">
  <path d="M 2141 3397  C 2144.36 3397  2147 3399.64  2147 3403  C 2147 3406.36  2144.36 3409  2141 3409  C 2137.64 3409  2135 3406.36  2135 3403  C 2135 3399.64  2137.64 3397  2141 3397  Z " fill-rule="nonzero" fill="#f0f0f0" stroke="none" />
  <path d="M 2141 3397.5  C 2144.08 3397.5  2146.5 3399.92  2146.5 3403  C 2146.5 3406.08  2144.08 3408.5  2141 3408.5  C 2137.92 3408.5  2135.5 3406.08  2135.5 3403  C 2135.5 3399.92  2137.92 3397.5  2141 3397.5  Z " stroke-width="1" stroke="#797979" fill="none" />
  <path d="M 2141 3406  C 2139.32 3406  2138 3404.68  2138 3403  C 2138 3401.32  2139.32 3400  2141 3400  C 2142.68 3400  2144 3401.32  2144 3403  C 2144 3404.68  2142.68 3406  2141 3406  " fill-rule="nonzero" fill="#797979" stroke="none" />
</svg>