<?xml version="1.0" encoding="utf-8"?>
<svg version="1.1" xmlns:xlink="http://www.w3.org/1999/xlink" width="12px" height="12px" viewBox="2058 4036  12 12" xmlns="http://www.w3.org/2000/svg">
  <path d="M 2064 4036  C 2067.36 4036  2070 4038.64  2070 4042  C 2070 4045.36  2067.36 4048  2064 4048  C 2060.64 4048  2058 4045.36  2058 4042  C 2058 4038.64  2060.64 4036  2064 4036  Z " fill-rule="nonzero" fill="#ffffff" stroke="none" />
  <path d="M 2064 4036.5  C 2067.08 4036.5  2069.5 4038.92  2069.5 4042  C 2069.5 4045.08  2067.08 4047.5  2064 4047.5  C 2060.92 4047.5  2058.5 4045.08  2058.5 4042  C 2058.5 4038.92  2060.92 4036.5  2064 4036.5  Z " stroke-width="1" stroke="#797979" fill="none" />
  <path d="M 2064 4045  C 2062.32 4045  2061 4043.68  2061 4042  C 2061 4040.32  2062.32 4039  2064 4039  C 2065.68 4039  2067 4040.32  2067 4042  C 2067 4043.68  2065.68 4045  2064 4045  " fill-rule="nonzero" fill="#797979" stroke="none" />
</svg>