<?xml version="1.0" encoding="utf-8"?>
<svg version="1.1" xmlns:xlink="http://www.w3.org/1999/xlink" width="12px" height="12px" viewBox="2058 4143  12 12" xmlns="http://www.w3.org/2000/svg">
  <path d="M 2064 4143  C 2067.36 4143  2070 4145.64  2070 4149  C 2070 4152.36  2067.36 4155  2064 4155  C 2060.64 4155  2058 4152.36  2058 4149  C 2058 4145.64  2060.64 4143  2064 4143  Z " fill-rule="nonzero" fill="#f0f0f0" stroke="none" />
  <path d="M 2064 4143.5  C 2067.08 4143.5  2069.5 4145.92  2069.5 4149  C 2069.5 4152.08  2067.08 4154.5  2064 4154.5  C 2060.92 4154.5  2058.5 4152.08  2058.5 4149  C 2058.5 4145.92  2060.92 4143.5  2064 4143.5  Z " stroke-width="1" stroke="#797979" fill="none" />
  <path d="M 2064 4152  C 2062.32 4152  2061 4150.68  2061 4149  C 2061 4147.32  2062.32 4146  2064 4146  C 2065.68 4146  2067 4147.32  2067 4149  C 2067 4150.68  2065.68 4152  2064 4152  " fill-rule="nonzero" fill="#797979" stroke="none" />
</svg>