<?xml version="1.0" encoding="utf-8"?>
<svg version="1.1" xmlns:xlink="http://www.w3.org/1999/xlink" width="12px" height="12px" viewBox="2020 2509  12 12" xmlns="http://www.w3.org/2000/svg">
  <path d="M 2026 2509  C 2029.36 2509  2032 2511.64  2032 2515  C 2032 2518.36  2029.36 2521  2026 2521  C 2022.64 2521  2020 2518.36  2020 2515  C 2020 2511.64  2022.64 2509  2026 2509  Z " fill-rule="nonzero" fill="#f0f0f0" stroke="none" />
  <path d="M 2026 2509.5  C 2029.08 2509.5  2031.5 2511.92  2031.5 2515  C 2031.5 2518.08  2029.08 2520.5  2026 2520.5  C 2022.92 2520.5  2020.5 2518.08  2020.5 2515  C 2020.5 2511.92  2022.92 2509.5  2026 2509.5  Z " stroke-width="1" stroke="#797979" fill="none" />
  <path d="M 2026 2518  C 2024.32 2518  2023 2516.68  2023 2515  C 2023 2513.32  2024.32 2512  2026 2512  C 2027.68 2512  2029 2513.32  2029 2515  C 2029 2516.68  2027.68 2518  2026 2518  " fill-rule="nonzero" fill="#797979" stroke="none" />
</svg>