<?xml version="1.0" encoding="utf-8"?>
<svg version="1.1" xmlns:xlink="http://www.w3.org/1999/xlink" width="12px" height="12px" viewBox="2696 2520  12 12" xmlns="http://www.w3.org/2000/svg">
  <path d="M 2702 2520  C 2705.36 2520  2708 2522.64  2708 2526  C 2708 2529.36  2705.36 2532  2702 2532  C 2698.64 2532  2696 2529.36  2696 2526  C 2696 2522.64  2698.64 2520  2702 2520  Z " fill-rule="nonzero" fill="#ffffff" stroke="none" />
  <path d="M 2702 2520.5  C 2705.08 2520.5  2707.5 2522.92  2707.5 2526  C 2707.5 2529.08  2705.08 2531.5  2702 2531.5  C 2698.92 2531.5  2696.5 2529.08  2696.5 2526  C 2696.5 2522.92  2698.92 2520.5  2702 2520.5  Z " stroke-width="1" stroke="#797979" fill="none" />
  <path d="M 2702 2529  C 2700.32 2529  2699 2527.68  2699 2526  C 2699 2524.32  2700.32 2523  2702 2523  C 2703.68 2523  2705 2524.32  2705 2526  C 2705 2527.68  2703.68 2529  2702 2529  " fill-rule="nonzero" fill="#797979" stroke="none" />
</svg>