<?xml version="1.0" encoding="utf-8"?>
<svg version="1.1" xmlns:xlink="http://www.w3.org/1999/xlink" width="12px" height="12px" viewBox="2292 2181  12 12" xmlns="http://www.w3.org/2000/svg">
  <path d="M 2298 2181  C 2301.36 2181  2304 2183.64  2304 2187  C 2304 2190.36  2301.36 2193  2298 2193  C 2294.64 2193  2292 2190.36  2292 2187  C 2292 2183.64  2294.64 2181  2298 2181  Z " fill-rule="nonzero" fill="#ffffff" stroke="none" />
  <path d="M 2298 2181.5  C 2301.08 2181.5  2303.5 2183.92  2303.5 2187  C 2303.5 2190.08  2301.08 2192.5  2298 2192.5  C 2294.92 2192.5  2292.5 2190.08  2292.5 2187  C 2292.5 2183.92  2294.92 2181.5  2298 2181.5  Z " stroke-width="1" stroke="#797979" fill="none" />
  <path d="M 2298 2190  C 2296.32 2190  2295 2188.68  2295 2187  C 2295 2185.32  2296.32 2184  2298 2184  C 2299.68 2184  2301 2185.32  2301 2187  C 2301 2188.68  2299.68 2190  2298 2190  " fill-rule="nonzero" fill="#797979" stroke="none" />
</svg>