<?xml version="1.0" encoding="utf-8"?>
<svg version="1.1" xmlns:xlink="http://www.w3.org/1999/xlink" width="104px" height="104px" xmlns="http://www.w3.org/2000/svg">
  <g transform="matrix(1 0 0 1 -2113 -2397 )">
    <path d="M 2114 2401  A 3 3 0 0 1 2117 2398 L 2213 2398  A 3 3 0 0 1 2216 2401 L 2216 2497  A 3 3 0 0 1 2213 2500 L 2117 2500  A 3 3 0 0 1 2114 2497 L 2114 2401  Z " fill-rule="nonzero" fill="#000000" stroke="none" fill-opacity="0.0196078431372549" />
    <path d="M 2113.5 2401  A 3.5 3.5 0 0 1 2117 2397.5 L 2213 2397.5  A 3.5 3.5 0 0 1 2216.5 2401 L 2216.5 2497  A 3.5 3.5 0 0 1 2213 2500.5 L 2117 2500.5  A 3.5 3.5 0 0 1 2113.5 2497 L 2113.5 2401  Z " stroke-width="1" stroke-dasharray="9,4" stroke="#d9d9d9" fill="none" stroke-dashoffset="0.5" />
  </g>
</svg>