<?xml version="1.0" encoding="utf-8"?>
<svg version="1.1" xmlns:xlink="http://www.w3.org/1999/xlink" width="12px" height="12px" viewBox="2190 2308  12 12" xmlns="http://www.w3.org/2000/svg">
  <path d="M 2196 2308  C 2199.36 2308  2202 2310.64  2202 2314  C 2202 2317.36  2199.36 2320  2196 2320  C 2192.64 2320  2190 2317.36  2190 2314  C 2190 2310.64  2192.64 2308  2196 2308  Z " fill-rule="nonzero" fill="#f0f0f0" stroke="none" />
  <path d="M 2196 2308.5  C 2199.08 2308.5  2201.5 2310.92  2201.5 2314  C 2201.5 2317.08  2199.08 2319.5  2196 2319.5  C 2192.92 2319.5  2190.5 2317.08  2190.5 2314  C 2190.5 2310.92  2192.92 2308.5  2196 2308.5  Z " stroke-width="1" stroke="#797979" fill="none" />
  <path d="M 2196 2317  C 2194.32 2317  2193 2315.68  2193 2314  C 2193 2312.32  2194.32 2311  2196 2311  C 2197.68 2311  2199 2312.32  2199 2314  C 2199 2315.68  2197.68 2317  2196 2317  " fill-rule="nonzero" fill="#797979" stroke="none" />
</svg>