<?xml version="1.0" encoding="utf-8"?>
<svg version="1.1" xmlns:xlink="http://www.w3.org/1999/xlink" width="104px" height="104px" xmlns="http://www.w3.org/2000/svg">
  <g transform="matrix(1 0 0 1 -2235 -2399 )">
    <path d="M 2236 2403  A 3 3 0 0 1 2239 2400 L 2335 2400  A 3 3 0 0 1 2338 2403 L 2338 2499  A 3 3 0 0 1 2335 2502 L 2239 2502  A 3 3 0 0 1 2236 2499 L 2236 2403  Z " fill-rule="nonzero" fill="#ffffff" stroke="none" />
    <path d="M 2235.5 2403  A 3.5 3.5 0 0 1 2239 2399.5 L 2335 2399.5  A 3.5 3.5 0 0 1 2338.5 2403 L 2338.5 2499  A 3.5 3.5 0 0 1 2335 2502.5 L 2239 2502.5  A 3.5 3.5 0 0 1 2235.5 2499 L 2235.5 2403  Z " stroke-width="1" stroke-dasharray="9,4" stroke="#d9d9d9" fill="none" stroke-dashoffset="0.5" />
  </g>
</svg>