<?xml version="1.0" encoding="utf-8"?>
<svg version="1.1" xmlns:xlink="http://www.w3.org/1999/xlink" width="100px" height="100px" xmlns="http://www.w3.org/2000/svg">
  <g transform="matrix(1 0 0 1 -673 -244 )">
    <path d="M 673 244  L 773 244  L 773 344  L 673 344  L 673 244  " fill-rule="nonzero" fill="#cccccc" stroke="none" />
    <path d="M 680 251  L 766 251  L 766 337  L 680 337  L 680 251  " fill-rule="nonzero" fill="#ffffff" stroke="none" />
    <path d="M 732.5 274  C 728.3 274  725 270.7  725 266.5  C 725 262.3  728.3 259  732.5 259  C 736.7 259  740 262.3  740 266.5  C 740 270.7  736.7 274  732.5 274  " fill-rule="nonzero" fill="#cccccc" stroke="none" />
    <path d="M 683 335  L 683 290.45  L 703.25 270.2  L 731.6 286.4  L 747.8 282.35  L 764 286.4  L 764 335  L 683 335  " fill-rule="nonzero" fill="#169bd5" stroke="none" />
  </g>
</svg>