<?xml version="1.0" encoding="utf-8"?>
<svg version="1.1" xmlns:xlink="http://www.w3.org/1999/xlink" width="12px" height="10px" preserveAspectRatio="xMinYMid meet" viewBox="895 330  12 8" xmlns="http://www.w3.org/2000/svg">
  <defs>
    <mask fill="white" id="clip1047">
      <path d="M 813 180  L 847 180  L 847 208  L 813 208  Z M 706 79  L 905 79  L 905 337  L 706 337  Z " fill-rule="evenodd" />
    </mask>
  </defs>
  <path d="M 895 334  L 897 334  A 5 5 0 0 0 902 329 L 902 199  A 5 5 0 0 0 897 194 L 721 194  A 5 5 0 0 1 716 189 L 716 91  " stroke-width="2" stroke="#999999" fill="none" mask="url(#clip1047)" />
  <path d="M 711.707106781187 96.1071067811866  L 716 91.8142135623731  L 720.292893218813 96.1071067811866  L 721.707106781187 94.6928932188135  L 716.707106781187 89.6928932188135  L 716 88.9857864376269  L 715.292893218813 89.6928932188135  L 710.292893218813 94.6928932188135  L 711.707106781187 96.1071067811866  Z " fill-rule="nonzero" fill="#999999" stroke="none" mask="url(#clip1047)" />
</svg>