<?xml version="1.0" encoding="utf-8"?>
<svg version="1.1" xmlns:xlink="http://www.w3.org/1999/xlink" width="20px" height="10px" preserveAspectRatio="xMinYMid meet" viewBox="1394 2060  20 8" xmlns="http://www.w3.org/2000/svg">
  <path d="M 1394 2064  L 1404 2064  A 5 5 0 0 1 1409 2069 L 1409 2107  A 5 5 0 0 1 1404 2112 L 1202 2112  A 3 3 0 0 0 1199 2109 A 3 3 0 0 0 1196 2112 L 680 2112  A 5 5 0 0 1 675 2107 L 675 1496  A 5 5 0 0 1 680 1491 L 744 1491  " stroke-width="2" stroke="#999999" fill="none" />
  <path d="M 738.892893218813 1486.70710678119  L 743.185786437627 1491  L 738.892893218813 1495.29289321881  L 740.307106781187 1496.70710678119  L 745.307106781187 1491.70710678119  L 746.014213562373 1491  L 745.307106781187 1490.29289321881  L 740.307106781187 1485.29289321881  L 738.892893218813 1486.70710678119  Z " fill-rule="nonzero" fill="#999999" stroke="none" />
</svg>