<?xml version="1.0" encoding="utf-8"?>
<svg version="1.1" xmlns:xlink="http://www.w3.org/1999/xlink" width="23px" height="10px" preserveAspectRatio="xMinYMid meet" viewBox="725 4447  23 8" xmlns="http://www.w3.org/2000/svg">
  <path d="M 1565 5024  L 1575 5024  A 5 5 0 0 1 1580 5029 L 1580 5066.83333333333  A 5 5 0 0 1 1575 5071.83333333333 L 1373 5071.83333333333  A 3 3 0 0 0 1370 5068.83333333333 A 3 3 0 0 0 1367 5071.83333333333 L 735 5071.83333333333  A 5 5 0 0 1 730 5066.83333333333 L 730 4456  A 5 5 0 0 1 735 4451 L 746 4451  " stroke-width="2" stroke="#999999" fill="none" />
  <path d="M 740.892893218813 4446.70710678119  L 745.185786437627 4451  L 740.892893218813 4455.29289321881  L 742.307106781187 4456.70710678119  L 747.307106781187 4451.70710678119  L 748.014213562373 4451  L 747.307106781187 4450.29289321881  L 742.307106781187 4445.29289321881  L 740.892893218813 4446.70710678119  Z " fill-rule="nonzero" fill="#999999" stroke="none" />
</svg>