<?xml version="1.0" encoding="utf-8"?>
<svg version="1.1" xmlns:xlink="http://www.w3.org/1999/xlink" width="12px" height="59.25px" preserveAspectRatio="xMidYMin meet" viewBox="1594.75 3333  10 59.25" xmlns="http://www.w3.org/2000/svg">
  <path d="M 1578 3339.5  L 1594.75 3339.5  A 5 5 0 0 1 1600.25 3344.5 L 1600.25 3381.25  A 5 5 0 0 1 1594.75 3386.75 L 1386 3386.75  A 3 3 0 0 0 1383 3383.75 A 3 3 0 0 0 1380 3386.75 L 881 3386.75  A 5 5 0 0 1 876.5 3381.75 L 876.5 2771  A 5 5 0 0 1 881.5 2766.5 L 909 2766.5  " stroke-width="3" stroke="#ff0000" fill="none" />
  <path d="M 903.83933982822 2762.56066017178  L 907.77867965644 2766.5  L 903.83933982822 2770.43933982822  L 905.96066017178 2772.56066017178  L 910.96066017178 2767.56066017178  L 912.02132034356 2766.5  L 910.96066017178 2765.43933982822  L 905.96066017178 2760.43933982822  L 903.83933982822 2762.56066017178  Z " fill-rule="nonzero" fill="#ff0000" stroke="none" />
</svg>