<?xml version="1.0" encoding="utf-8"?>
<svg version="1.1" xmlns:xlink="http://www.w3.org/1999/xlink" width="12px" height="12px" viewBox="2197 1548  12 12" xmlns="http://www.w3.org/2000/svg">
  <path d="M 2203 1548  C 2206.36 1548  2209 1550.64  2209 1554  C 2209 1557.36  2206.36 1560  2203 1560  C 2199.64 1560  2197 1557.36  2197 1554  C 2197 1550.64  2199.64 1548  2203 1548  Z " fill-rule="nonzero" fill="#ffffff" stroke="none" />
  <path d="M 2203 1548.5  C 2206.08 1548.5  2208.5 1550.92  2208.5 1554  C 2208.5 1557.08  2206.08 1559.5  2203 1559.5  C 2199.92 1559.5  2197.5 1557.08  2197.5 1554  C 2197.5 1550.92  2199.92 1548.5  2203 1548.5  Z " stroke-width="1" stroke="#797979" fill="none" />
  <path d="M 2203 1557  C 2201.32 1557  2200 1555.68  2200 1554  C 2200 1552.32  2201.32 1551  2203 1551  C 2204.68 1551  2206 1552.32  2206 1554  C 2206 1555.68  2204.68 1557  2203 1557  " fill-rule="nonzero" fill="#797979" stroke="none" />
</svg>