<?xml version="1.0" encoding="utf-8"?>
<svg version="1.1" xmlns:xlink="http://www.w3.org/1999/xlink" width="9px" height="4px" xmlns="http://www.w3.org/2000/svg">
  <g transform="matrix(1 0 0 1 -713 -589 )">
    <path d="M 717.5 590  C 719.46 590  721 590.44  721 591  C 721 591.56  719.46 592  717.5 592  C 715.54 592  714 591.56  714 591  C 714 590.44  715.54 590  717.5 590  Z " fill-rule="nonzero" fill="#ffffff" stroke="none" />
    <path d="M 717.5 590  C 719.46 590  721 590.44  721 591  C 721 591.56  719.46 592  717.5 592  C 715.54 592  714 591.56  714 591  C 714 590.44  715.54 590  717.5 590  Z " stroke-width="2" stroke="#2db7f5" fill="none" />
  </g>
</svg>