<?xml version="1.0" encoding="utf-8"?>
<svg version="1.1" xmlns:xlink="http://www.w3.org/1999/xlink" width="149px" height="81px" xmlns="http://www.w3.org/2000/svg">
  <defs>
    <mask fill="white" id="clip1543">
      <path d="M 0 69.0892857142858  L 0 3.91071428571422  C 0 1.72071428571439  2.7370588235294 0  6.22058823529412 0  L 134.779411764706 0  C 138.262941176471 0  141 1.72071428571439  141 3.91071428571422  L 141 69.0892857142858  C 141 71.2792857142858  138.262941176471 73  134.779411764706 73  L 6.22058823529412 73  C 2.7370588235294 73  0 71.2792857142858  0 69.0892857142858  Z " fill-rule="evenodd" />
    </mask>
    <filter x="709px" y="488px" width="149px" height="81px" filterUnits="userSpaceOnUse" id="filter1544">
      <feOffset dx="0" dy="0" in="SourceAlpha" result="shadowOffsetInner" />
      <feGaussianBlur stdDeviation="2" in="shadowOffsetInner" result="shadowGaussian" />
      <feComposite in2="shadowGaussian" operator="atop" in="SourceAlpha" result="shadowComposite" />
      <feColorMatrix type="matrix" values="0 0 0 0 0  0 0 0 0 0  0 0 0 0 0  0 0 0 0.149019607843137 0  " in="shadowComposite" />
    </filter>
    <g id="widget1545">
      <path d="M 0 69.0892857142858  L 0 3.91071428571422  C 0 1.72071428571439  2.7370588235294 0  6.22058823529412 0  L 134.779411764706 0  C 138.262941176471 0  141 1.72071428571439  141 3.91071428571422  L 141 69.0892857142858  C 141 71.2792857142858  138.262941176471 73  134.779411764706 73  L 6.22058823529412 73  C 2.7370588235294 73  0 71.2792857142858  0 69.0892857142858  Z " fill-rule="nonzero" fill="#ffffff" stroke="none" transform="matrix(1 0 0 1 713 492 )" />
      <path d="M 0 69.0892857142858  L 0 3.91071428571422  C 0 1.72071428571439  2.7370588235294 0  6.22058823529412 0  L 134.779411764706 0  C 138.262941176471 0  141 1.72071428571439  141 3.91071428571422  L 141 69.0892857142858  C 141 71.2792857142858  138.262941176471 73  134.779411764706 73  L 6.22058823529412 73  C 2.7370588235294 73  0 71.2792857142858  0 69.0892857142858  Z " stroke-width="2" stroke="#ebebeb" fill="none" transform="matrix(1 0 0 1 713 492 )" mask="url(#clip1543)" />
    </g>
  </defs>
  <g transform="matrix(1 0 0 1 -709 -488 )">
    <use xlink:href="#widget1545" filter="url(#filter1544)" />
    <use xlink:href="#widget1545" />
  </g>
</svg>