<?xml version="1.0" encoding="utf-8"?>
<svg version="1.1" xmlns:xlink="http://www.w3.org/1999/xlink" width="28px" height="28px" xmlns="http://www.w3.org/2000/svg">
  <g transform="matrix(1 0 0 1 -316 -161 )">
    <path d="M 330 162  C 337.28 162  343 167.72  343 175  C 343 182.28  337.28 188  330 188  C 322.72 188  317 182.28  317 175  C 317 167.72  322.72 162  330 162  Z " fill-rule="nonzero" fill="#108ee9" stroke="none" />
    <path d="M 330 162  C 337.28 162  343 167.72  343 175  C 343 182.28  337.28 188  330 188  C 322.72 188  317 182.28  317 175  C 317 167.72  322.72 162  330 162  Z " stroke-width="2" stroke="#108ee9" fill="none" />
  </g>
</svg>