<?xml version="1.0" encoding="utf-8"?>
<svg version="1.1" xmlns:xlink="http://www.w3.org/1999/xlink" width="28px" height="28px" xmlns="http://www.w3.org/2000/svg">
  <g transform="matrix(1 0 0 1 -784 -161 )">
    <path d="M 798 162  C 805.28 162  811 167.72  811 175  C 811 182.28  805.28 188  798 188  C 790.72 188  785 182.28  785 175  C 785 167.72  790.72 162  798 162  Z " fill-rule="nonzero" fill="#ffffff" stroke="none" fill-opacity="0" />
    <path d="M 798 162  C 805.28 162  811 167.72  811 175  C 811 182.28  805.28 188  798 188  C 790.72 188  785 182.28  785 175  C 785 167.72  790.72 162  798 162  Z " stroke-width="2" stroke="#cccccc" fill="none" />
  </g>
</svg>