<?xml version="1.0" encoding="utf-8"?>
<svg version="1.1" xmlns:xlink="http://www.w3.org/1999/xlink" width="12px" height="12px" viewBox="2028 2369  12 12" xmlns="http://www.w3.org/2000/svg">
  <path d="M 2034 2369  C 2037.36 2369  2040 2371.64  2040 2375  C 2040 2378.36  2037.36 2381  2034 2381  C 2030.64 2381  2028 2378.36  2028 2375  C 2028 2371.64  2030.64 2369  2034 2369  Z " fill-rule="nonzero" fill="#ffffff" stroke="none" />
  <path d="M 2034 2369.5  C 2037.08 2369.5  2039.5 2371.92  2039.5 2375  C 2039.5 2378.08  2037.08 2380.5  2034 2380.5  C 2030.92 2380.5  2028.5 2378.08  2028.5 2375  C 2028.5 2371.92  2030.92 2369.5  2034 2369.5  Z " stroke-width="1" stroke="#797979" fill="none" />
  <path d="M 2034 2378  C 2032.32 2378  2031 2376.68  2031 2375  C 2031 2373.32  2032.32 2372  2034 2372  C 2035.68 2372  2037 2373.32  2037 2375  C 2037 2376.68  2035.68 2378  2034 2378  " fill-rule="nonzero" fill="#797979" stroke="none" />
</svg>