<?xml version="1.0" encoding="utf-8"?>
<svg version="1.1" xmlns:xlink="http://www.w3.org/1999/xlink" width="12px" height="12px" viewBox="2709 2369  12 12" xmlns="http://www.w3.org/2000/svg">
  <path d="M 2715 2369  C 2718.36 2369  2721 2371.64  2721 2375  C 2721 2378.36  2718.36 2381  2715 2381  C 2711.64 2381  2709 2378.36  2709 2375  C 2709 2371.64  2711.64 2369  2715 2369  Z " fill-rule="nonzero" fill="#f0f0f0" stroke="none" />
  <path d="M 2715 2369.5  C 2718.08 2369.5  2720.5 2371.92  2720.5 2375  C 2720.5 2378.08  2718.08 2380.5  2715 2380.5  C 2711.92 2380.5  2709.5 2378.08  2709.5 2375  C 2709.5 2371.92  2711.92 2369.5  2715 2369.5  Z " stroke-width="1" stroke="#797979" fill="none" />
  <path d="M 2715 2378  C 2713.32 2378  2712 2376.68  2712 2375  C 2712 2373.32  2713.32 2372  2715 2372  C 2716.68 2372  2718 2373.32  2718 2375  C 2718 2376.68  2716.68 2378  2715 2378  " fill-rule="nonzero" fill="#797979" stroke="none" />
</svg>