<?xml version="1.0" encoding="utf-8"?>
<svg version="1.1" xmlns:xlink="http://www.w3.org/1999/xlink" width="12px" height="12px" viewBox="2571 2369  12 12" xmlns="http://www.w3.org/2000/svg">
  <path d="M 2577 2369  C 2580.36 2369  2583 2371.64  2583 2375  C 2583 2378.36  2580.36 2381  2577 2381  C 2573.64 2381  2571 2378.36  2571 2375  C 2571 2371.64  2573.64 2369  2577 2369  Z " fill-rule="nonzero" fill="#ffffff" stroke="none" />
  <path d="M 2577 2369.5  C 2580.08 2369.5  2582.5 2371.92  2582.5 2375  C 2582.5 2378.08  2580.08 2380.5  2577 2380.5  C 2573.92 2380.5  2571.5 2378.08  2571.5 2375  C 2571.5 2371.92  2573.92 2369.5  2577 2369.5  Z " stroke-width="1" stroke="#797979" fill="none" />
  <path d="M 2577 2378  C 2575.32 2378  2574 2376.68  2574 2375  C 2574 2373.32  2575.32 2372  2577 2372  C 2578.68 2372  2580 2373.32  2580 2375  C 2580 2376.68  2578.68 2378  2577 2378  " fill-rule="nonzero" fill="#797979" stroke="none" />
</svg>