<?xml version="1.0" encoding="utf-8"?>
<svg version="1.1" xmlns:xlink="http://www.w3.org/1999/xlink" width="12px" height="12px" viewBox="396 286  12 12" xmlns="http://www.w3.org/2000/svg">
  <path d="M 402 286  C 405.36 286  408 288.64  408 292  C 408 295.36  405.36 298  402 298  C 398.64 298  396 295.36  396 292  C 396 288.64  398.64 286  402 286  Z " fill-rule="nonzero" fill="#f0f0f0" stroke="none" />
  <path d="M 402 286.5  C 405.08 286.5  407.5 288.92  407.5 292  C 407.5 295.08  405.08 297.5  402 297.5  C 398.92 297.5  396.5 295.08  396.5 292  C 396.5 288.92  398.92 286.5  402 286.5  Z " stroke-width="1" stroke="#797979" fill="none" />
  <path d="M 402 295  C 400.32 295  399 293.68  399 292  C 399 290.32  400.32 289  402 289  C 403.68 289  405 290.32  405 292  C 405 293.68  403.68 295  402 295  " fill-rule="nonzero" fill="#797979" stroke="none" />
</svg>