<?xml version="1.0" encoding="utf-8"?>
<svg version="1.1" xmlns:xlink="http://www.w3.org/1999/xlink" width="12px" height="12px" viewBox="621 1300  12 12" xmlns="http://www.w3.org/2000/svg">
  <path d="M 627 1300  C 630.36 1300  633 1302.64  633 1306  C 633 1309.36  630.36 1312  627 1312  C 623.64 1312  621 1309.36  621 1306  C 621 1302.64  623.64 1300  627 1300  Z " fill-rule="nonzero" fill="#f0f0f0" stroke="none" />
  <path d="M 627 1300.5  C 630.08 1300.5  632.5 1302.92  632.5 1306  C 632.5 1309.08  630.08 1311.5  627 1311.5  C 623.92 1311.5  621.5 1309.08  621.5 1306  C 621.5 1302.92  623.92 1300.5  627 1300.5  Z " stroke-width="1" stroke="#797979" fill="none" />
  <path d="M 627 1309  C 625.32 1309  624 1307.68  624 1306  C 624 1304.32  625.32 1303  627 1303  C 628.68 1303  630 1304.32  630 1306  C 630 1307.68  628.68 1309  627 1309  " fill-rule="nonzero" fill="#797979" stroke="none" />
</svg>