<?xml version="1.0" encoding="utf-8"?>
<svg version="1.1" xmlns:xlink="http://www.w3.org/1999/xlink" width="12px" height="12px" viewBox="489 1300  12 12" xmlns="http://www.w3.org/2000/svg">
  <path d="M 495 1300  C 498.36 1300  501 1302.64  501 1306  C 501 1309.36  498.36 1312  495 1312  C 491.64 1312  489 1309.36  489 1306  C 489 1302.64  491.64 1300  495 1300  Z " fill-rule="nonzero" fill="#ffffff" stroke="none" />
  <path d="M 495 1300.5  C 498.08 1300.5  500.5 1302.92  500.5 1306  C 500.5 1309.08  498.08 1311.5  495 1311.5  C 491.92 1311.5  489.5 1309.08  489.5 1306  C 489.5 1302.92  491.92 1300.5  495 1300.5  Z " stroke-width="1" stroke="#797979" fill="none" />
  <path d="M 495 1309  C 493.32 1309  492 1307.68  492 1306  C 492 1304.32  493.32 1303  495 1303  C 496.68 1303  498 1304.32  498 1306  C 498 1307.68  496.68 1309  495 1309  " fill-rule="nonzero" fill="#797979" stroke="none" />
</svg>