<?xml version="1.0" encoding="utf-8"?>
<svg version="1.1" xmlns:xlink="http://www.w3.org/1999/xlink" width="12px" height="12px" viewBox="489 167  12 12" xmlns="http://www.w3.org/2000/svg">
  <path d="M 495 167  C 498.36 167  501 169.64  501 173  C 501 176.36  498.36 179  495 179  C 491.64 179  489 176.36  489 173  C 489 169.64  491.64 167  495 167  Z " fill-rule="nonzero" fill="#ffffff" stroke="none" />
  <path d="M 495 167.5  C 498.08 167.5  500.5 169.92  500.5 173  C 500.5 176.08  498.08 178.5  495 178.5  C 491.92 178.5  489.5 176.08  489.5 173  C 489.5 169.92  491.92 167.5  495 167.5  Z " stroke-width="1" stroke="#797979" fill="none" />
  <path d="M 495 176  C 493.32 176  492 174.68  492 173  C 492 171.32  493.32 170  495 170  C 496.68 170  498 171.32  498 173  C 498 174.68  496.68 176  495 176  " fill-rule="nonzero" fill="#797979" stroke="none" />
</svg>