<?xml version="1.0" encoding="utf-8"?>
<svg version="1.1" xmlns:xlink="http://www.w3.org/1999/xlink" width="12px" height="12px" viewBox="498 453  12 12" xmlns="http://www.w3.org/2000/svg">
  <path d="M 504 453  C 507.36 453  510 455.64  510 459  C 510 462.36  507.36 465  504 465  C 500.64 465  498 462.36  498 459  C 498 455.64  500.64 453  504 453  Z " fill-rule="nonzero" fill="#f0f0f0" stroke="none" />
  <path d="M 504 453.5  C 507.08 453.5  509.5 455.92  509.5 459  C 509.5 462.08  507.08 464.5  504 464.5  C 500.92 464.5  498.5 462.08  498.5 459  C 498.5 455.92  500.92 453.5  504 453.5  Z " stroke-width="1" stroke="#797979" fill="none" />
  <path d="M 504 462  C 502.32 462  501 460.68  501 459  C 501 457.32  502.32 456  504 456  C 505.68 456  507 457.32  507 459  C 507 460.68  505.68 462  504 462  " fill-rule="nonzero" fill="#797979" stroke="none" />
</svg>