<?xml version="1.0" encoding="utf-8"?>
<svg version="1.1" xmlns:xlink="http://www.w3.org/1999/xlink" width="12px" height="12px" viewBox="1251 1499  12 12" xmlns="http://www.w3.org/2000/svg">
  <path d="M 1257 1499  C 1260.36 1499  1263 1501.64  1263 1505  C 1263 1508.36  1260.36 1511  1257 1511  C 1253.64 1511  1251 1508.36  1251 1505  C 1251 1501.64  1253.64 1499  1257 1499  Z " fill-rule="nonzero" fill="#ffffff" stroke="none" />
  <path d="M 1257 1499.5  C 1260.08 1499.5  1262.5 1501.92  1262.5 1505  C 1262.5 1508.08  1260.08 1510.5  1257 1510.5  C 1253.92 1510.5  1251.5 1508.08  1251.5 1505  C 1251.5 1501.92  1253.92 1499.5  1257 1499.5  Z " stroke-width="1" stroke="#797979" fill="none" />
  <path d="M 1257 1508  C 1255.32 1508  1254 1506.68  1254 1505  C 1254 1503.32  1255.32 1502  1257 1502  C 1258.68 1502  1260 1503.32  1260 1505  C 1260 1506.68  1258.68 1508  1257 1508  " fill-rule="nonzero" fill="#797979" stroke="none" />
</svg>