<?xml version="1.0" encoding="utf-8"?>
<svg version="1.1" xmlns:xlink="http://www.w3.org/1999/xlink" width="12px" height="12px" viewBox="621 167  12 12" xmlns="http://www.w3.org/2000/svg">
  <path d="M 627 167  C 630.36 167  633 169.64  633 173  C 633 176.36  630.36 179  627 179  C 623.64 179  621 176.36  621 173  C 621 169.64  623.64 167  627 167  Z " fill-rule="nonzero" fill="#ffffff" stroke="none" />
  <path d="M 627 167.5  C 630.08 167.5  632.5 169.92  632.5 173  C 632.5 176.08  630.08 178.5  627 178.5  C 623.92 178.5  621.5 176.08  621.5 173  C 621.5 169.92  623.92 167.5  627 167.5  Z " stroke-width="1" stroke="#797979" fill="none" />
  <path d="M 627 176  C 625.32 176  624 174.68  624 173  C 624 171.32  625.32 170  627 170  C 628.68 170  630 171.32  630 173  C 630 174.68  628.68 176  627 176  " fill-rule="nonzero" fill="#797979" stroke="none" />
</svg>