<?xml version="1.0" encoding="utf-8"?>
<svg version="1.1" xmlns:xlink="http://www.w3.org/1999/xlink" width="12px" height="12px" viewBox="498 791  12 12" xmlns="http://www.w3.org/2000/svg">
  <path d="M 504 791  C 507.36 791  510 793.64  510 797  C 510 800.36  507.36 803  504 803  C 500.64 803  498 800.36  498 797  C 498 793.64  500.64 791  504 791  Z " fill-rule="nonzero" fill="#f0f0f0" stroke="none" />
  <path d="M 504 791.5  C 507.08 791.5  509.5 793.92  509.5 797  C 509.5 800.08  507.08 802.5  504 802.5  C 500.92 802.5  498.5 800.08  498.5 797  C 498.5 793.92  500.92 791.5  504 791.5  Z " stroke-width="1" stroke="#797979" fill="none" />
  <path d="M 504 800  C 502.32 800  501 798.68  501 797  C 501 795.32  502.32 794  504 794  C 505.68 794  507 795.32  507 797  C 507 798.68  505.68 800  504 800  " fill-rule="nonzero" fill="#797979" stroke="none" />
</svg>