<?xml version="1.0" encoding="utf-8"?>
<svg version="1.1" xmlns:xlink="http://www.w3.org/1999/xlink" width="12px" height="12px" viewBox="1307 446  12 12" xmlns="http://www.w3.org/2000/svg">
  <path d="M 1313 446  C 1316.36 446  1319 448.64  1319 452  C 1319 455.36  1316.36 458  1313 458  C 1309.64 458  1307 455.36  1307 452  C 1307 448.64  1309.64 446  1313 446  Z " fill-rule="nonzero" fill="#ffffff" stroke="none" />
  <path d="M 1313 446.5  C 1316.08 446.5  1318.5 448.92  1318.5 452  C 1318.5 455.08  1316.08 457.5  1313 457.5  C 1309.92 457.5  1307.5 455.08  1307.5 452  C 1307.5 448.92  1309.92 446.5  1313 446.5  Z " stroke-width="1" stroke="#797979" fill="none" />
  <path d="M 1313 455  C 1311.32 455  1310 453.68  1310 452  C 1310 450.32  1311.32 449  1313 449  C 1314.68 449  1316 450.32  1316 452  C 1316 453.68  1314.68 455  1313 455  " fill-rule="nonzero" fill="#797979" stroke="none" />
</svg>