<?xml version="1.0" encoding="utf-8"?>
<svg version="1.1" xmlns:xlink="http://www.w3.org/1999/xlink" width="12px" height="12px" viewBox="498 416  12 12" xmlns="http://www.w3.org/2000/svg">
  <path d="M 504 416  C 507.36 416  510 418.64  510 422  C 510 425.36  507.36 428  504 428  C 500.64 428  498 425.36  498 422  C 498 418.64  500.64 416  504 416  Z " fill-rule="nonzero" fill="#f0f0f0" stroke="none" />
  <path d="M 504 416.5  C 507.08 416.5  509.5 418.92  509.5 422  C 509.5 425.08  507.08 427.5  504 427.5  C 500.92 427.5  498.5 425.08  498.5 422  C 498.5 418.92  500.92 416.5  504 416.5  Z " stroke-width="1" stroke="#797979" fill="none" />
  <path d="M 504 425  C 502.32 425  501 423.68  501 422  C 501 420.32  502.32 419  504 419  C 505.68 419  507 420.32  507 422  C 507 423.68  505.68 425  504 425  " fill-rule="nonzero" fill="#797979" stroke="none" />
</svg>