<?xml version="1.0" encoding="utf-8"?>
<svg version="1.1" xmlns:xlink="http://www.w3.org/1999/xlink" width="12px" height="12px" viewBox="510 1963  12 12" xmlns="http://www.w3.org/2000/svg">
  <path d="M 516 1963  C 519.36 1963  522 1965.64  522 1969  C 522 1972.36  519.36 1975  516 1975  C 512.64 1975  510 1972.36  510 1969  C 510 1965.64  512.64 1963  516 1963  Z " fill-rule="nonzero" fill="#f0f0f0" stroke="none" />
  <path d="M 516 1963.5  C 519.08 1963.5  521.5 1965.92  521.5 1969  C 521.5 1972.08  519.08 1974.5  516 1974.5  C 512.92 1974.5  510.5 1972.08  510.5 1969  C 510.5 1965.92  512.92 1963.5  516 1963.5  Z " stroke-width="1" stroke="#797979" fill="none" />
  <path d="M 516 1972  C 514.32 1972  513 1970.68  513 1969  C 513 1967.32  514.32 1966  516 1966  C 517.68 1966  519 1967.32  519 1969  C 519 1970.68  517.68 1972  516 1972  " fill-rule="nonzero" fill="#797979" stroke="none" />
</svg>