<?xml version="1.0" encoding="utf-8"?>
<svg version="1.1" xmlns:xlink="http://www.w3.org/1999/xlink" width="12px" height="12px" viewBox="2147 2222  12 12" xmlns="http://www.w3.org/2000/svg">
  <path d="M 2153 2222  C 2156.36 2222  2159 2224.64  2159 2228  C 2159 2231.36  2156.36 2234  2153 2234  C 2149.64 2234  2147 2231.36  2147 2228  C 2147 2224.64  2149.64 2222  2153 2222  Z " fill-rule="nonzero" fill="#ffffff" stroke="none" />
  <path d="M 2153 2222.5  C 2156.08 2222.5  2158.5 2224.92  2158.5 2228  C 2158.5 2231.08  2156.08 2233.5  2153 2233.5  C 2149.92 2233.5  2147.5 2231.08  2147.5 2228  C 2147.5 2224.92  2149.92 2222.5  2153 2222.5  Z " stroke-width="1" stroke="#797979" fill="none" />
  <path d="M 2153 2231  C 2151.32 2231  2150 2229.68  2150 2228  C 2150 2226.32  2151.32 2225  2153 2225  C 2154.68 2225  2156 2226.32  2156 2228  C 2156 2229.68  2154.68 2231  2153 2231  " fill-rule="nonzero" fill="#797979" stroke="none" />
</svg>