<?xml version="1.0" encoding="utf-8"?>
<svg version="1.1" xmlns:xlink="http://www.w3.org/1999/xlink" width="12px" height="12px" viewBox="2061 2222  12 12" xmlns="http://www.w3.org/2000/svg">
  <path d="M 2067 2222  C 2070.36 2222  2073 2224.64  2073 2228  C 2073 2231.36  2070.36 2234  2067 2234  C 2063.64 2234  2061 2231.36  2061 2228  C 2061 2224.64  2063.64 2222  2067 2222  Z " fill-rule="nonzero" fill="#f0f0f0" stroke="none" />
  <path d="M 2067 2222.5  C 2070.08 2222.5  2072.5 2224.92  2072.5 2228  C 2072.5 2231.08  2070.08 2233.5  2067 2233.5  C 2063.92 2233.5  2061.5 2231.08  2061.5 2228  C 2061.5 2224.92  2063.92 2222.5  2067 2222.5  Z " stroke-width="1" stroke="#797979" fill="none" />
  <path d="M 2067 2231  C 2065.32 2231  2064 2229.68  2064 2228  C 2064 2226.32  2065.32 2225  2067 2225  C 2068.68 2225  2070 2226.32  2070 2228  C 2070 2229.68  2068.68 2231  2067 2231  " fill-rule="nonzero" fill="#797979" stroke="none" />
</svg>