<?xml version="1.0" encoding="utf-8"?>
<svg version="1.1" xmlns:xlink="http://www.w3.org/1999/xlink" width="12px" height="12px" viewBox="2235 1285  12 12" xmlns="http://www.w3.org/2000/svg">
  <path d="M 2241 1285  C 2244.36 1285  2247 1287.64  2247 1291  C 2247 1294.36  2244.36 1297  2241 1297  C 2237.64 1297  2235 1294.36  2235 1291  C 2235 1287.64  2237.64 1285  2241 1285  Z " fill-rule="nonzero" fill="#f0f0f0" stroke="none" />
  <path d="M 2241 1285.5  C 2244.08 1285.5  2246.5 1287.92  2246.5 1291  C 2246.5 1294.08  2244.08 1296.5  2241 1296.5  C 2237.92 1296.5  2235.5 1294.08  2235.5 1291  C 2235.5 1287.92  2237.92 1285.5  2241 1285.5  Z " stroke-width="1" stroke="#797979" fill="none" />
  <path d="M 2241 1294  C 2239.32 1294  2238 1292.68  2238 1291  C 2238 1289.32  2239.32 1288  2241 1288  C 2242.68 1288  2244 1289.32  2244 1291  C 2244 1292.68  2242.68 1294  2241 1294  " fill-rule="nonzero" fill="#797979" stroke="none" />
</svg>