<?xml version="1.0" encoding="utf-8"?>
<svg version="1.1" xmlns:xlink="http://www.w3.org/1999/xlink" width="73px" height="65px" xmlns="http://www.w3.org/2000/svg">
  <g transform="matrix(1 0 0 1 -108 -316 )">
    <path d="M 108 316  L 181 316  L 181 381  L 108 381  L 108 316  " fill-rule="nonzero" fill="#cccccc" stroke="none" />
    <path d="M 113 321  L 176 321  L 176 376  L 113 376  L 113 321  " fill-rule="nonzero" fill="#ffffff" stroke="none" />
    <path d="M 150.835 335.5  C 148.105 335.5  145.96 333.355  145.96 330.625  C 145.96 327.895  148.105 325.75  150.835 325.75  C 153.565 325.75  155.71 327.895  155.71 330.625  C 155.71 333.355  153.565 335.5  150.835 335.5  " fill-rule="nonzero" fill="#cccccc" stroke="none" />
    <path d="M 115 375  L 115 346.4  L 130 333.4  L 151 347.219178082192  L 163 341.2  L 175 347.219178082192  L 175 375  L 115 375  " fill-rule="nonzero" fill="#169bd5" stroke="none" />
  </g>
</svg>