<?xml version="1.0" encoding="utf-8"?>
<svg version="1.1" xmlns:xlink="http://www.w3.org/1999/xlink" width="12px" height="12px" viewBox="104 443  12 12" xmlns="http://www.w3.org/2000/svg">
  <path d="M 110 443  C 113.36 443  116 445.64  116 449  C 116 452.36  113.36 455  110 455  C 106.64 455  104 452.36  104 449  C 104 445.64  106.64 443  110 443  Z " fill-rule="nonzero" fill="#f0f0f0" stroke="none" />
  <path d="M 110 443.5  C 113.08 443.5  115.5 445.92  115.5 449  C 115.5 452.08  113.08 454.5  110 454.5  C 106.92 454.5  104.5 452.08  104.5 449  C 104.5 445.92  106.92 443.5  110 443.5  Z " stroke-width="1" stroke="#797979" fill="none" />
  <path d="M 110 452  C 108.32 452  107 450.68  107 449  C 107 447.32  108.32 446  110 446  C 111.68 446  113 447.32  113 449  C 113 450.68  111.68 452  110 452  " fill-rule="nonzero" fill="#797979" stroke="none" />
</svg>