<?xml version="1.0" encoding="utf-8"?>
<svg version="1.1" xmlns:xlink="http://www.w3.org/1999/xlink" width="12px" height="12px" viewBox="279 444  12 12" xmlns="http://www.w3.org/2000/svg">
  <path d="M 285 444  C 288.36 444  291 446.64  291 450  C 291 453.36  288.36 456  285 456  C 281.64 456  279 453.36  279 450  C 279 446.64  281.64 444  285 444  Z " fill-rule="nonzero" fill="#ffffff" stroke="none" />
  <path d="M 285 444.5  C 288.08 444.5  290.5 446.92  290.5 450  C 290.5 453.08  288.08 455.5  285 455.5  C 281.92 455.5  279.5 453.08  279.5 450  C 279.5 446.92  281.92 444.5  285 444.5  Z " stroke-width="1" stroke="#797979" fill="none" />
  <path d="M 285 453  C 283.32 453  282 451.68  282 450  C 282 448.32  283.32 447  285 447  C 286.68 447  288 448.32  288 450  C 288 451.68  286.68 453  285 453  " fill-rule="nonzero" fill="#797979" stroke="none" />
</svg>