<?xml version="1.0" encoding="utf-8"?>
<svg version="1.1" xmlns:xlink="http://www.w3.org/1999/xlink" width="12px" height="12px" viewBox="279 480  12 12" xmlns="http://www.w3.org/2000/svg">
  <path d="M 285 480  C 288.36 480  291 482.64  291 486  C 291 489.36  288.36 492  285 492  C 281.64 492  279 489.36  279 486  C 279 482.64  281.64 480  285 480  Z " fill-rule="nonzero" fill="#ffffff" stroke="none" />
  <path d="M 285 480.5  C 288.08 480.5  290.5 482.92  290.5 486  C 290.5 489.08  288.08 491.5  285 491.5  C 281.92 491.5  279.5 489.08  279.5 486  C 279.5 482.92  281.92 480.5  285 480.5  Z " stroke-width="1" stroke="#797979" fill="none" />
  <path d="M 285 489  C 283.32 489  282 487.68  282 486  C 282 484.32  283.32 483  285 483  C 286.68 483  288 484.32  288 486  C 288 487.68  286.68 489  285 489  " fill-rule="nonzero" fill="#797979" stroke="none" />
</svg>