<?xml version="1.0" encoding="utf-8"?>
<svg version="1.1" xmlns:xlink="http://www.w3.org/1999/xlink" width="12px" height="12px" viewBox="104 597  12 12" xmlns="http://www.w3.org/2000/svg">
  <path d="M 110 597  C 113.36 597  116 599.64  116 603  C 116 606.36  113.36 609  110 609  C 106.64 609  104 606.36  104 603  C 104 599.64  106.64 597  110 597  Z " fill-rule="nonzero" fill="#f0f0f0" stroke="none" />
  <path d="M 110 597.5  C 113.08 597.5  115.5 599.92  115.5 603  C 115.5 606.08  113.08 608.5  110 608.5  C 106.92 608.5  104.5 606.08  104.5 603  C 104.5 599.92  106.92 597.5  110 597.5  Z " stroke-width="1" stroke="#797979" fill="none" />
  <path d="M 110 606  C 108.32 606  107 604.68  107 603  C 107 601.32  108.32 600  110 600  C 111.68 600  113 601.32  113 603  C 113 604.68  111.68 606  110 606  " fill-rule="nonzero" fill="#797979" stroke="none" />
</svg>