<?xml version="1.0" encoding="utf-8"?>
<svg version="1.1" xmlns:xlink="http://www.w3.org/1999/xlink" width="12px" height="12px" viewBox="104 641  12 12" xmlns="http://www.w3.org/2000/svg">
  <path d="M 110 641  C 113.36 641  116 643.64  116 647  C 116 650.36  113.36 653  110 653  C 106.64 653  104 650.36  104 647  C 104 643.64  106.64 641  110 641  Z " fill-rule="nonzero" fill="#ffffff" stroke="none" />
  <path d="M 110 641.5  C 113.08 641.5  115.5 643.92  115.5 647  C 115.5 650.08  113.08 652.5  110 652.5  C 106.92 652.5  104.5 650.08  104.5 647  C 104.5 643.92  106.92 641.5  110 641.5  Z " stroke-width="1" stroke="#797979" fill="none" />
  <path d="M 110 650  C 108.32 650  107 648.68  107 647  C 107 645.32  108.32 644  110 644  C 111.68 644  113 645.32  113 647  C 113 648.68  111.68 650  110 650  " fill-rule="nonzero" fill="#797979" stroke="none" />
</svg>