<?xml version="1.0" encoding="utf-8"?>
<svg version="1.1" xmlns:xlink="http://www.w3.org/1999/xlink" width="12px" height="12px" viewBox="2070 1178  12 12" xmlns="http://www.w3.org/2000/svg">
  <path d="M 2076 1178  C 2079.36 1178  2082 1180.64  2082 1184  C 2082 1187.36  2079.36 1190  2076 1190  C 2072.64 1190  2070 1187.36  2070 1184  C 2070 1180.64  2072.64 1178  2076 1178  Z " fill-rule="nonzero" fill="#f0f0f0" stroke="none" />
  <path d="M 2076 1178.5  C 2079.08 1178.5  2081.5 1180.92  2081.5 1184  C 2081.5 1187.08  2079.08 1189.5  2076 1189.5  C 2072.92 1189.5  2070.5 1187.08  2070.5 1184  C 2070.5 1180.92  2072.92 1178.5  2076 1178.5  Z " stroke-width="1" stroke="#797979" fill="none" />
  <path d="M 2076 1187  C 2074.32 1187  2073 1185.68  2073 1184  C 2073 1182.32  2074.32 1181  2076 1181  C 2077.68 1181  2079 1182.32  2079 1184  C 2079 1185.68  2077.68 1187  2076 1187  " fill-rule="nonzero" fill="#797979" stroke="none" />
</svg>